<svg xmlns="http://www.w3.org/2000/svg" width="78.754" height="86.801" viewBox="0 0 78.754 86.801">
  <g id="care_7924610" transform="translate(-30.604 -6.498)">
    <path id="Path_24427" data-name="Path 24427" d="M347.571,373.08a7.658,7.658,0,0,0,6.693-4.156l.556-1.083" transform="translate(-262.006 -298.859)" fill="none" stroke="#f57c00" stroke-linecap="round" stroke-linejoin="round" stroke-width="2"/>
    <path id="Path_24428" data-name="Path 24428" d="M289.131,268.631a7.036,7.036,0,0,1,5.648-2.841h9.715a6.6,6.6,0,0,1,5.868,9.613l-1.28,2.489" transform="translate(-213.537 -214.22)" fill="none" stroke="#f57c00" stroke-linecap="round" stroke-linejoin="round" stroke-width="2"/>
    <path id="Path_24429" data-name="Path 24429" d="M53.634,268.631a7.034,7.034,0,0,0-5.648-2.841H38.271A6.6,6.6,0,0,0,32.4,275.4l4.566,8.882a7.658,7.658,0,0,0,6.693,4.156" transform="translate(0 -214.22)" fill="none" stroke="#f57c00" stroke-linecap="round" stroke-linejoin="round" stroke-width="2"/>
    <path id="Path_24430" data-name="Path 24430" d="M132.964,312.645v0a16.44,16.44,0,0,0,10.247-15.233v-4.061A13.849,13.849,0,0,0,129.362,279.5H114.81a13.849,13.849,0,0,0-13.849,13.849v4.061a16.441,16.441,0,0,0,10.249,15.233" transform="translate(-57.472 -225.591)" fill="none" stroke="#f57c00" stroke-linecap="round" stroke-linejoin="round" stroke-width="2"/>
    <path id="Path_24431" data-name="Path 24431" d="M177.081,414.18a9.282,9.282,0,0,1,5.6,8.524v1.1c0,.181-.008.362-.024.539a5.777,5.777,0,0,1-5.758,5.245H166.665a5.789,5.789,0,0,1-5.758-5.247c-.017-.177-.026-.357-.026-.537v-1.1a9.28,9.28,0,0,1,5.6-8.524" transform="translate(-107.169 -337.292)" fill="none" stroke="#f57c00" stroke-linecap="round" stroke-linejoin="round" stroke-width="2"/>
    <path id="Path_24432" data-name="Path 24432" d="M193.237,391.855v-.938a2.5,2.5,0,0,1,2.5-2.5H201.5a2.5,2.5,0,0,1,2.5,2.5v.938a5.381,5.381,0,1,1-10.762,0Z" transform="translate(-134.004 -315.923)" fill="none" stroke="#f57c00" stroke-linecap="round" stroke-linejoin="round" stroke-width="2"/>
    <g id="Group_25320" data-name="Group 25320" transform="translate(51.782 66.137)">
      <path id="Path_24433" data-name="Path 24433" d="M149.566,352.37q2.415-2.406,4.831,0" transform="translate(-149.566 -351.166)" fill="none" stroke="#f57c00" stroke-linecap="round" stroke-linejoin="round" stroke-width="2"/>
      <path id="Path_24434" data-name="Path 24434" d="M271.672,352.37q2.415-2.406,4.831,0" transform="translate(-250.838 -351.166)" fill="none" stroke="#f57c00" stroke-linecap="round" stroke-linejoin="round" stroke-width="2"/>
    </g>
    <path id="Path_24435" data-name="Path 24435" d="M111.031,207.687l1.188,1.188a4.806,4.806,0,0,0,5.516.918L126.9,205.3" transform="translate(-65.824 -164.051)" fill="none" stroke="#f57c00" stroke-linecap="round" stroke-linejoin="round" stroke-width="2"/>
    <path id="Path_24436" data-name="Path 24436" d="M194.376,120.1l-21.906-2.434a2.866,2.866,0,0,0-2.059.573l-3,2.3" transform="translate(-112.587 -91.357)" fill="none" stroke="#f57c00" stroke-linecap="round" stroke-linejoin="round" stroke-width="2"/>
    <path id="Path_24437" data-name="Path 24437" d="M89.454,155.97l-9.77,7.485a1.339,1.339,0,0,0-.082,2.056l.191.174a5.033,5.033,0,0,0,5.68.737l10.553-5.448" transform="translate(-39.392 -123.138)" fill="none" stroke="#f57c00" stroke-linecap="round" stroke-linejoin="round" stroke-width="2"/>
    <path id="Path_24438" data-name="Path 24438" d="M278.621,120.3l4.912.546a2.2,2.2,0,0,0,1.855-.691l1.107-1.2" transform="translate(-204.82 -92.442)" fill="none" stroke="#f57c00" stroke-linecap="round" stroke-linejoin="round" stroke-width="2"/>
    <path id="Path_24439" data-name="Path 24439" d="M192.024,163.36l-10.208-2.007a3.5,3.5,0,0,0-4,2.247,3.446,3.446,0,0,0,2.049,4.344l10.889,4.085a24.7,24.7,0,0,0,8.676,1.573h.843a10.7,10.7,0,0,0,7.852-3.431l5.542-5.989" transform="translate(-121.057 -127.547)" fill="none" stroke="#f57c00" stroke-linecap="round" stroke-linejoin="round" stroke-width="2"/>
    <path id="Path_24440" data-name="Path 24440" d="M326.729,22.539,315.258,34.933a1.9,1.9,0,0,0,.1,2.689l13.129,12.152a1.9,1.9,0,0,0,2.689-.1l11.471-12.394a1.325,1.325,0,0,0-.072-1.872L328.6,22.467A1.324,1.324,0,0,0,326.729,22.539Z" transform="translate(-234.785 -12.121)" fill="none" stroke="#f57c00" stroke-linecap="round" stroke-linejoin="round" stroke-width="2"/>
    <path id="Path_24441" data-name="Path 24441" d="M59.032,25.889a1.675,1.675,0,0,1-2.186,0l-7.781-6.7A6.651,6.651,0,0,1,57.742,9.11a.3.3,0,0,0,.394,0,6.651,6.651,0,0,1,8.677,10.082Z" transform="translate(-12.512)" fill="none" stroke="#f57c00" stroke-linecap="round" stroke-linejoin="round" stroke-width="2"/>
  </g>
</svg>
