<svg id="Layer_1" enable-background="new 0 0 68 68" height="512" viewBox="0 0 68 68" width="512" xmlns="http://www.w3.org/2000/svg"><g id="_x34_8"><path d="m34.4 45.1c-.9.2-1.5 1-1.5 1.9v6c0 1.1.9 2 2 2h1.5c.5 2.8 2.9 5 5.9 5s5.4-2.2 5.9-5h1.4c1.1 0 2-.9 2-2v-6c0-.9-.6-1.7-1.4-1.9.1-1.3.3-2.6.6-3.9.1-.5-.2-1.1-.7-1.2s-1.1.2-1.2.7c-.4 1.4-.6 2.9-.7 4.3h-2.3v-5.2c0-.6-.4-1-1-1s-1 .4-1 1v5.2h-3.1v-5.2c0-.6-.4-1-1-1s-1 .4-1 1v5.2h-2.3c0-4.2-1.7-8.4-4.8-11.8-2.5-2.7-3.8-6.3-3.7-9.9.2-7.8 6.6-14 14.3-14 7.8 0 14.3 6.3 14.3 14.3 0 3.5-1.3 6.9-3.7 9.6-.9 1-1.7 2.2-2.4 3.4-.3.5-.1 1.1.4 1.4s1.1.1 1.4-.4c.6-1.1 1.3-2.1 2.2-3 2.7-3 4.2-6.9 4.2-10.9 0-9.2-7.4-16.3-16.3-16.3-9.1 0-16.3 7.2-16.3 16.2 0 4.1 1.4 8 4.2 11 2.5 3 4.1 6.7 4.1 10.5zm7.8 12.9c-1.9 0-3.4-1.3-3.9-3h7.7c-.4 1.7-1.9 3-3.8 3zm-7.4-11c.5 0 15.6 0 14.7 0v2h-14.7zm0 4h14.7v2h-14.7z" fill="#f57c00" stroke="#f57c00" stroke-width=".1"/><path d="m31.5 27.9 1.6 2.7c.3.4.8.6 1.3.4l1.9-.8c.9.8 2 1.4 3.2 1.8l.2 2.1c.1.5.5.9 1 .9h3.2c.5 0 .9-.4 1-.9l.2-2.1c1.2-.4 2.2-1 3.2-1.8l1.9.8c.5.2 1 0 1.3-.4l1.6-2.7c.3-.4.1-1-.3-1.3l-1.8-1.2c.2-1.2.3-2.5 0-3.6l1.7-1.2c.4-.3.5-.9.3-1.3l-1.6-2.7c-.3-.4-.8-.6-1.3-.4l-1.9.8c-.9-.8-2-1.4-3.2-1.8l-.2-2.2c-.1-.5-.5-.9-1-.9h-3.2c-.5 0-.9.4-1 .9l-.2 2c-1.2.4-2.2 1-3.2 1.8l-1.8-.8c-.5-.2-1 0-1.3.4l-1.6 2.7c-.3.4-.1 1 .3 1.3l1.7 1.2c-.2 1.2-.2 2.5 0 3.6l-1.7 1.2c-.4.5-.5 1.1-.3 1.5zm4-2.4c-.4-1.2-.4-2.6 0-3.9.1-.4 0-.8-.4-1.1l-1.5-1.1.7-1.2 1.7.7c.4.2.8.1 1.1-.2.9-1 2.1-1.6 3.4-1.9.4-.1.7-.4.8-.9l.2-1.8h1.4l.2 1.8c0 .4.4.8.8.9 1.3.3 2.5 1 3.4 1.9.3.3.7.4 1.1.2l1.7-.7.7 1.2-1.5 1.1c-.3.3-.5.7-.4 1.1.4 1.3.4 2.7 0 3.9-.1.4 0 .8.4 1.1l1.5 1.1-.7 1.2-1.7-.7c-.4-.2-.8-.1-1.1.2-.9 1-2.1 1.6-3.4 1.9-.4.1-.7.4-.8.9l-.2 1.8h-1.4l-.2-1.8c0-.4-.4-.8-.8-.9-1.3-.3-2.4-1-3.4-1.9-.3-.3-.7-.4-1.1-.2l-1.7.7-.7-1.2 1.5-1.1c.4-.3.6-.7.4-1.1z" fill="#f57c00" stroke="#f57c00" stroke-width=".1"/><path d="m43.2 5.3v-2.2c0-.6-.4-1-1-1s-1 .4-1 1v2.2c0 .6.4 1 1 1s1-.4 1-1z" fill="#f57c00" stroke="#f57c00" stroke-width=".1"/><path d="m33.6 8.6c.5-.3.6-.9.4-1.4l-1.1-1.9c-.3-.5-.9-.6-1.4-.3s-.6.9-.4 1.4l1.1 1.9c.3.4.9.6 1.4.3z" fill="#f57c00" stroke="#f57c00" stroke-width=".1"/><path d="m27.3 14.9c.3-.5.1-1.1-.4-1.4l-1.9-1.1c-.5-.3-1.1-.1-1.4.4s-.1 1.1.4 1.4l1.9 1.1c.5.3 1.1.1 1.4-.4z" fill="#f57c00" stroke="#f57c00" stroke-width=".1"/><path d="m21.8 22.5c-.6 0-1 .4-1 1s.4 1 1 1h2.2c.6 0 1-.4 1-1s-.4-1-1-1z" fill="#f57c00" stroke="#f57c00" stroke-width=".1"/><path d="m59.5 23.5c0 .6.4 1 1 1h2.2c.6 0 1-.4 1-1s-.4-1-1-1h-2.2c-.6 0-1 .5-1 1z" fill="#f57c00" stroke="#f57c00" stroke-width=".1"/><path d="m59.5 12.4-1.9 1.1c-.5.3-.6.9-.4 1.4.3.5.9.6 1.4.4l1.9-1.1c.5-.3.6-.9.4-1.4-.4-.5-1-.6-1.4-.4z" fill="#f57c00" stroke="#f57c00" stroke-width=".1"/><path d="m52.2 8.3 1.1-1.9c.3-.6.1-1.2-.3-1.4-.5-.3-1.1-.1-1.4.4l-1.1 1.9c-.3.5-.1 1.1.4 1.4.4.2 1 0 1.3-.4z" fill="#f57c00" stroke="#f57c00" stroke-width=".1"/><path d="m42.2 28.2c2.6 0 4.7-2.1 4.7-4.7s-2.1-4.7-4.7-4.7-4.7 2.1-4.7 4.7 2.2 4.7 4.7 4.7zm0-7.3c1.5 0 2.7 1.2 2.7 2.7s-1.2 2.7-2.7 2.7-2.7-1.2-2.7-2.7 1.3-2.7 2.7-2.7z" fill="#f57c00" stroke="#f57c00" stroke-width=".1"/><path d="m65.8 49.7-4.1-5c-.4-.5-1.2-.5-1.6 0l-4.1 5c-.3.4-.3 1.1.2 1.4.4.3 1.1.3 1.4-.2l2.3-2.8v13.8c0 1.1-.9 2-2 2h-25.2c-.6 0-1 .4-1 1s.4 1 1 1h25.3c2.2 0 4-1.8 4-4v-13.8l2.3 2.8c.3.4 1 .5 1.4.2.4-.4.5-1 .1-1.4z" fill="#f57c00" stroke="#f57c00" stroke-width=".1"/><path d="m1.9 62.9c0 1.7 1.3 3 3 3h20.8c1.7 0 3-1.3 3-3v-4.3c0-4.4-3.5-8.1-7.8-8.4-.4-.3-.8-.8-1-1.2 1.4-1.1 2.3-2.7 2.6-4.5l.9-5.4c.7-4.1-2.5-7.3-6.1-7.3h-3.9c-2.8 0-5.2 1.8-6 4.4-.6 2 .1 3.6.8 8.2.3 1.8 1.3 3.4 2.6 4.5-.2.4-.7.8-1 1.2-4.4.3-7.8 4-7.8 8.4v4.4zm7.4-25.9c.6-1.8 2.2-3 4.1-3h3.9c2 0 3.8 1.4 4.2 3.4-.9.8-1.7 1.2-2.5 1.1-1.2-.2-2.2-1.5-2.4-2.1-.2-.4-.6-.6-1-.5-.4 0-.7.3-.9.7 0 0-.6 2.1-2.3 3-.8.4-1.8.5-2.9.3-.2-.6-.6-1.8-.2-2.9zm.8 7.3-.4-2.3c2.7.3 4.7-.9 6.1-3.1 1.5 1.6 3.4 2.2 5.4 1.1l-.7 4.3c-.4 2.6-2.6 4.4-5.2 4.4s-4.7-1.8-5.2-4.4zm8.9 7-3.7 3.7-3.7-3.7c.3-.3.6-.7.9-1.1 1.8.8 3.8.8 5.6 0 .3.4.6.8.9 1.1zm-15.1 7.4c0-3.3 2.6-6.1 5.8-6.4l4.8 4.9c.4.4 1 .4 1.4 0l4.8-4.9c3.3.3 5.8 3.1 5.8 6.4v4.3c0 .6-.4 1-1 1h-2.6v-4.2c0-.6-.4-1-1-1s-1 .4-1 1v4.2h-11.4v-4.2c0-.6-.4-1-1-1s-1 .4-1 1v4.2h-2.6c-.6 0-1-.4-1-1z" fill="#f57c00" stroke="#f57c00" stroke-width=".1"/></g></svg>