<?xml version="1.0"?>
<svg xmlns="http://www.w3.org/2000/svg" id="Layer_1" data-name="Layer 1" viewBox="0 0 100 100"><path d="M50,7a1.5,1.5,0,0,1-1.5-1.5V2a1.5,1.5,0,0,1,3,0V5.48A1.5,1.5,0,0,1,50,7Z"/><path d="M37.15,10.43a1.51,1.51,0,0,1-1.3-.75l-1.73-3a1.5,1.5,0,0,1,2.6-1.5l1.73,3a1.49,1.49,0,0,1-.55,2.05A1.43,1.43,0,0,1,37.15,10.43Z"/><path d="M27.75,19.87a1.43,1.43,0,0,1-.75-.2l-3-1.74a1.5,1.5,0,1,1,1.5-2.59l3,1.74a1.49,1.49,0,0,1-.75,2.79Z"/><path d="M24.31,32.77H20.84a1.5,1.5,0,1,1,0-3h3.47a1.5,1.5,0,0,1,0,3Z"/><path d="M79.16,32.77H75.69a1.5,1.5,0,1,1,0-3h3.47a1.5,1.5,0,0,1,0,3Z"/><path d="M72.25,19.87a1.49,1.49,0,0,1-.75-2.79l3-1.74A1.5,1.5,0,1,1,76,17.93l-3,1.74A1.43,1.43,0,0,1,72.25,19.87Z"/><path d="M62.85,10.43a1.43,1.43,0,0,1-.75-.2,1.49,1.49,0,0,1-.55-2.05l1.73-3a1.5,1.5,0,1,1,2.6,1.5l-1.73,3A1.51,1.51,0,0,1,62.85,10.43Z"/><path d="M59.64,47.75a1.46,1.46,0,0,1-.84-.26,1.49,1.49,0,0,1-.4-2.08A6.55,6.55,0,0,1,60,43.74,17.08,17.08,0,0,0,67,30,17,17,0,0,0,48.91,13,17,17,0,0,0,40,43.78a6.58,6.58,0,0,1,1.58,1.62,1.5,1.5,0,0,1-2.48,1.7,3.64,3.64,0,0,0-.86-.89A20.05,20.05,0,0,1,48.73,10a19.78,19.78,0,0,1,14.92,5.37,20.07,20.07,0,0,1-1.87,30.8,3.57,3.57,0,0,0-.9.92A1.49,1.49,0,0,1,59.64,47.75Z"/><path d="M50.19,61.24a8,8,0,0,1-7.93-7.37,1.51,1.51,0,0,1,1.5-1.62H56.63a1.51,1.51,0,0,1,1.5,1.62A8,8,0,0,1,50.19,61.24Zm-4.53-6a4.93,4.93,0,0,0,9.07,0Z"/><path d="M60.08,55.25H40.3a5.25,5.25,0,0,1,0-10.5H60.08a5.25,5.25,0,0,1,0,10.5ZM40.3,47.75a2.25,2.25,0,0,0,0,4.5H60.08a2.25,2.25,0,0,0,0-4.5Z"/><path d="M42.86,91.27a1.5,1.5,0,0,1-1.5-1.5V79.51a7.48,7.48,0,0,0-1.81-4.88L29.15,62.49a2.76,2.76,0,0,0-3.88-.21A2.67,2.67,0,0,0,25,65.9l1,1.25a1.5,1.5,0,1,1-2.31,1.92l-1.06-1.28a5.69,5.69,0,0,1,8.76-7.26l10.4,12.14a10.53,10.53,0,0,1,2.53,6.84V89.77A1.5,1.5,0,0,1,42.86,91.27Z"/><path d="M26.19,91.23a1.5,1.5,0,0,1-1.5-1.5v-.89L13.26,74.11a8,8,0,0,1-1.65-4.84V45.72a5.16,5.16,0,1,1,10.32,0V62.23l9.31,11.12a1.5,1.5,0,1,1-2.3,1.92L19.28,63.75a1.52,1.52,0,0,1-.35-1V45.72a2.21,2.21,0,0,0-.64-1.54,2.13,2.13,0,0,0-1.52-.62,2.16,2.16,0,0,0-2.16,2.16V69.27a4.92,4.92,0,0,0,1,3L27.38,87.41a1.52,1.52,0,0,1,.31.92v1.4A1.5,1.5,0,0,1,26.19,91.23Z"/><path d="M41.79,99.5H27.11a5.69,5.69,0,0,1,0-11.38H41.79a5.69,5.69,0,0,1,0,11.38ZM27.11,91.12a2.69,2.69,0,0,0,0,5.38H41.79a2.69,2.69,0,0,0,0-5.38Z"/><path d="M57.14,91.27a1.5,1.5,0,0,1-1.5-1.5V79.51a10.53,10.53,0,0,1,2.53-6.84l10.4-12.14a5.69,5.69,0,0,1,10,3.73,4.2,4.2,0,0,1,0,.7c0,.09,0,.17,0,.23s-.06.28-.09.42,0,0,0,0h0a5,5,0,0,1-.3.87,4.69,4.69,0,0,1-.53,1l-.11.15-.08.1-1.1,1.32A1.5,1.5,0,1,1,74,67.16l1.18-1.43a2.19,2.19,0,0,0,.2-.38,3.24,3.24,0,0,0,.14-.39s0-.06,0-.09l0-.12c0-.06,0-.1,0-.15v0a1.62,1.62,0,0,0,0-.31,2.66,2.66,0,0,0-.84-2,2.76,2.76,0,0,0-3.88.21L60.45,74.63a7.48,7.48,0,0,0-1.81,4.88V89.77A1.5,1.5,0,0,1,57.14,91.27Z"/><path d="M73.81,91.23a1.5,1.5,0,0,1-1.5-1.5v-1.4a1.52,1.52,0,0,1,.31-.92L84.36,72.27a4.87,4.87,0,0,0,1-3V45.72a2.16,2.16,0,0,0-2.16-2.16,2.14,2.14,0,0,0-1.53.63,2.2,2.2,0,0,0-.63,1.53V62.78a1.48,1.48,0,0,1-.35,1L71.06,75.27a1.5,1.5,0,1,1-2.3-1.92l9.31-11.12V45.72a5.16,5.16,0,1,1,10.32,0V69.27a7.9,7.9,0,0,1-1.66,4.84L75.31,88.84v.89A1.5,1.5,0,0,1,73.81,91.23Z"/><path d="M72.89,99.5H58.21a5.69,5.69,0,0,1,0-11.38H72.89a5.69,5.69,0,0,1,0,11.38ZM58.21,91.12a2.69,2.69,0,0,0,0,5.38H72.89a2.69,2.69,0,0,0,0-5.38Z"/></svg>
