<svg clip-rule="evenodd" fill-rule="evenodd" stroke-linejoin="round" stroke-miterlimit="2" viewBox="0 0 510 510" xmlns="http://www.w3.org/2000/svg"><path d="m294.271 345.62c56.781 15.797 99.628 65.006 106.05 125.107.241 2.256-.488 4.509-2.005 6.197s-3.68 2.653-5.95 2.653h-274.732c-2.271 0-4.434-.965-5.952-2.654-1.517-1.689-2.245-3.943-2.003-6.201 6.455-60.101 49.31-109.31 106.074-125.104-23.052-13.544-38.578-38.618-38.578-67.195 0-42.874 34.95-77.862 77.825-77.862 42.915 0 77.862 34.989 77.862 77.862 0 28.578-15.527 53.653-38.591 67.197zm-39.271 10.666c-64.068 0-117.326 46.311-128.153 107.291h256.31c-10.794-60.981-64.056-107.291-128.157-107.291zm0-16c34.096 0 61.862-27.799 61.862-61.863 0-34.063-27.766-61.862-61.862-61.862-34.062 0-61.825 27.8-61.825 61.862 0 34.063 27.763 61.863 61.825 61.863zm-139.19-45.073c0 4.416-3.585 8-8 8s-8-3.584-8-8c0-85.651 69.538-155.19 155.19-155.19s155.19 69.539 155.19 155.19c0 4.416-3.585 8-8 8s-8-3.584-8-8c0-76.821-62.369-139.19-139.19-139.19s-139.19 62.369-139.19 139.19zm131.19-215.059v-41.731c0-4.415 3.585-8 8-8s8 3.585 8 8v41.731l2.248-1.972c3.318-2.912 8.377-2.582 11.289.736 2.913 3.319 2.583 8.378-.736 11.29l-15.524 13.623c-3.019 2.65-7.535 2.65-10.554 0l-15.524-13.623c-3.319-2.912-3.649-7.971-.736-11.29 2.912-3.318 7.971-3.648 11.289-.736zm-126.54 52.415.194-2.984c.288-4.406 4.098-7.75 8.504-7.462 4.406.287 7.75 4.098 7.462 8.504l-1.344 20.61c-.261 4.008-3.454 7.201-7.462 7.462l-20.611 1.345c-4.406.287-8.216-3.057-8.504-7.463-.287-4.406 3.057-8.216 7.463-8.503l2.984-.195-29.508-29.508c-3.123-3.122-3.123-8.192 0-11.314 3.122-3.122 8.191-3.122 11.313 0zm-63.729 137.854-1.972-2.247c-2.913-3.319-2.583-8.378.736-11.29s8.377-2.582 11.29.736l13.623 15.525c2.649 3.019 2.649 7.534 0 10.553l-13.623 15.525c-2.913 3.318-7.971 3.648-11.29.736s-3.649-7.971-.736-11.29l1.972-2.248h-41.731c-4.415 0-8-3.584-8-8 0-4.415 3.585-8 8-8zm332.809-137.854 29.509-29.508c3.122-3.122 8.191-3.122 11.313 0 3.123 3.122 3.123 8.192 0 11.314l-29.508 29.508 2.984.195c4.406.287 7.75 4.097 7.463 8.503-.288 4.406-4.098 7.75-8.504 7.463l-20.611-1.345c-4.008-.261-7.201-3.454-7.462-7.462l-1.344-20.61c-.288-4.406 3.056-8.217 7.462-8.504 4.406-.288 8.216 3.056 8.504 7.462zm63.729 137.854h41.731c4.415 0 8 3.585 8 8 0 4.416-3.585 8-8 8h-41.731l1.972 2.248c2.913 3.319 2.583 8.378-.736 11.29s-8.377 2.582-11.29-.736l-13.623-15.525c-2.649-3.019-2.649-7.534 0-10.553l13.623-15.525c2.913-3.318 7.971-3.648 11.29-.736s3.649 7.971.736 11.29z" fill="#f57c00" stroke="#f57c00" stroke-width=".1"/></svg>