<svg clip-rule="evenodd" fill-rule="evenodd" stroke-linejoin="round" stroke-miterlimit="2" viewBox="0 0 510 510" xmlns="http://www.w3.org/2000/svg"><path d="m255 115.97c76.792 0 139.03 62.238 139.03 139.03s-62.238 139.03-139.03 139.03-139.03-62.238-139.03-139.03 62.238-139.03 139.03-139.03zm95.782 216.258c17.044-21.113 27.248-47.977 27.248-77.228 0-67.955-55.075-123.03-123.03-123.03s-123.03 55.075-123.03 123.03c0 29.251 10.204 56.115 27.248 77.228 8.84-31.515 32.807-56.708 63.565-67.24-13.361-9.91-22.057-25.791-22.057-43.613 0-29.86 24.414-54.274 54.274-54.274s54.274 24.414 54.274 54.274c0 17.822-8.696 33.703-22.057 43.613 30.758 10.532 54.725 35.725 63.565 67.24zm-178.269 14.06c21.821 19.729 50.749 31.742 82.487 31.742s60.666-12.013 82.487-31.742c-6.183-40.005-40.77-70.639-82.487-70.639s-76.304 30.634-82.487 70.639zm82.487-86.639c21.057 0 38.274-17.216 38.274-38.274 0-21.057-17.217-38.274-38.274-38.274s-38.274 17.217-38.274 38.274c0 21.058 17.217 38.274 38.274 38.274zm231.864 3.351h-45.941l6.398 7.592c2.845 3.376 2.414 8.427-.963 11.273-3.376 2.845-8.427 2.414-11.272-.962l-17.484-20.748c-2.511-2.978-2.511-7.332 0-10.31l17.484-20.748c2.845-3.376 7.896-3.807 11.272-.962 3.377 2.846 3.808 7.897.963 11.273l-6.398 7.592h54.077c4.415 0 8 3.585 8 8 0 120.463-86.077 220.978-200.025 243.353-4.332.851-8.54-1.976-9.391-6.308-.851-4.333 1.976-8.541 6.308-9.392 104.061-20.433 183.267-110.537 186.972-219.653zm-239.864-193.923v-54.077c0-4.415 3.585-8 8-8 120.463 0 220.978 86.077 243.353 200.025.851 4.332-1.976 8.54-6.308 9.391-4.333.851-8.541-1.976-9.392-6.308-20.433-104.061-110.537-183.267-219.653-186.972v45.941l7.592-6.398c3.376-2.845 8.427-2.414 11.273.963 2.845 3.376 2.414 8.427-.962 11.272l-20.748 17.484c-2.978 2.511-7.332 2.511-10.31 0l-20.748-17.484c-3.376-2.845-3.807-7.896-.962-11.272 2.846-3.377 7.897-3.808 11.273-.963zm-223.864 177.923h45.941l-6.398-7.592c-2.845-3.376-2.414-8.427.963-11.273 3.376-2.845 8.427-2.414 11.272.962l17.484 20.748c2.511 2.978 2.511 7.332 0 10.31l-17.484 20.748c-2.845 3.376-7.896 3.807-11.272.962-3.377-2.846-3.808-7.897-.963-11.273l6.398-7.592h-54.077c-4.415 0-8-3.585-8-8 0-120.463 86.077-220.978 200.025-243.353 4.332-.851 8.54 1.976 9.391 6.308.851 4.333-1.976 8.541-6.309 9.392-104.06 20.433-183.266 110.537-186.971 219.653zm223.864 239.864v-45.941l-7.592 6.398c-3.376 2.845-8.427 2.414-11.273-.963-2.845-3.376-2.414-8.427.962-11.272l20.748-17.484c2.978-2.511 7.332-2.511 10.31 0l20.748 17.484c3.376 2.845 3.807 7.896.962 11.272-2.846 3.377-7.897 3.808-11.273.963l-7.592-6.398v54.077c0 4.415-3.585 8-8 8-120.463 0-220.978-86.077-243.353-200.025-.851-4.332 1.976-8.54 6.308-9.391 4.333-.851 8.541 1.976 9.392 6.308 20.433 104.061 110.537 183.267 219.653 186.972z"/></svg>