<svg class="orange-stroke" clip-rule="evenodd" fill-rule="evenodd" stroke-linejoin="round" stroke-miterlimit="1" viewBox="0 0 510 510" xmlns="http://www.w3.org/2000/svg"><path  d="m61.176 242.156c-3.441 11.472-14.088 19.842-26.674 19.842-15.366 0-27.841-12.476-27.841-27.842s12.475-27.842 27.841-27.842c12.586 0 23.233 8.37 26.674 19.842h39.279c1.713 0 3.381.55 4.758 1.569l32.891 24.333 5.682-5.682c2.282-15.954 14.136-98.834 14.136-98.834h-78.793c-3.482 0-6.565-2.252-7.622-5.57-1.058-3.318.153-6.939 2.993-8.954l175.531-124.543c2.773-1.967 6.486-1.967 9.259 0l175.531 124.543c2.841 2.015 4.051 5.636 2.993 8.954-1.057 3.318-4.139 5.57-7.622 5.57h-78.793l14.136 98.834 5.682 5.682 32.892-24.333c1.377-1.019 3.045-1.569 4.758-1.569h39.957c3.441-11.472 14.088-19.842 26.674-19.842 15.366 0 27.841 12.476 27.841 27.842s-12.475 27.842-27.841 27.842c-12.586 0-23.233-8.37-26.674-19.842h-37.32l-34.612 25.606c-2.194 4.954-7.846 17.714-7.847 17.714 5.514 9.634 9.769 19.908 12.681 30.63l20.034 7.71c3.088 1.189 5.126 4.157 5.126 7.466v11.493h41.938c3.441-11.473 14.088-19.842 26.674-19.842 15.366 0 27.841 12.475 27.841 27.842 0 15.366-12.475 27.841-27.841 27.841-12.586 0-23.233-8.369-26.674-19.841h-41.938v11.531c0 3.309-2.038 6.277-5.126 7.466 0 0-20.039 7.712-20.038 7.711-2.917 10.689-7.192 20.953-12.681 30.58l7.851 17.724 34.612 25.606h37.32c3.441-11.472 14.088-19.842 26.674-19.842 15.366 0 27.841 12.476 27.841 27.842s-12.475 27.842-27.841 27.842c-12.586 0-23.233-8.37-26.674-19.842h-39.957c-1.713 0-3.381-.55-4.758-1.569l-32.892-24.333-22.714 22.714c-2.338 2.338-5.873 2.997-8.896 1.657 0 0-19.643-8.7-19.642-8.7-9.609 5.51-19.899 9.764-30.595 12.675l-7.712 20.036c-1.189 3.089-4.156 5.127-7.466 5.127h-39.023c-3.31 0-6.278-2.038-7.467-5.127 0 0-7.71-20.035-7.71-20.034-10.719-2.917-20.99-7.193-30.62-12.684l-19.657 8.707c-3.023 1.34-6.559.681-8.897-1.657l-22.714-22.714-32.891 24.333c-1.377 1.019-3.045 1.569-4.758 1.569h-39.279c-3.441 11.472-14.088 19.842-26.674 19.842-15.366 0-27.841-12.476-27.841-27.842s12.475-27.842 27.841-27.842c12.586 0 23.233 8.37 26.674 19.842h36.641l34.617-25.61c2.2-4.947 7.875-17.711 7.875-17.71-5.508-9.606-9.763-19.892-12.698-30.585l-20.049-7.716c-3.089-1.189-5.127-4.157-5.127-7.466v-11.531h-41.259c-3.441 11.472-14.088 19.841-26.674 19.841-15.366 0-27.841-12.475-27.841-27.841 0-15.367 12.475-27.842 27.841-27.842 12.586 0 23.233 8.369 26.674 19.842h41.259v-11.493c0-3.309 2.038-6.277 5.127-7.466 0 0 20.046-7.715 20.045-7.714 2.937-10.719 7.193-20.989 12.704-30.62l-7.877-17.716-34.617-25.61zm101.399-14.14c2.163-1.208 4.811-1.365 7.15-.325 0 0 19.644 8.734 19.643 8.735 9.63-5.511 19.897-9.764 30.588-12.675l7.749-20.082c1.191-3.085 4.157-5.12 7.464-5.12h39.023c3.311 0 6.28 2.04 7.468 5.131l7.712 20.073c10.689 2.911 20.953 7.163 30.581 12.672l19.643-8.734c2.34-1.04 4.988-.883 7.15.325l-12.492-87.341c-.328-2.296.356-4.621 1.875-6.374 1.52-1.752 3.725-2.759 6.044-2.759h62.919l-150.431-106.733-150.431 106.733h62.918c2.319 0 4.524 1.007 6.044 2.759 1.519 1.753 2.204 4.078 1.875 6.374zm113.345 5.335-7.224-18.802h-28.039l-7.26 18.813c-.949 2.459-3.049 4.293-5.614 4.903-11.903 2.829-23.256 7.532-33.689 13.961-2.248 1.385-5.035 1.572-7.447.499 0 0-18.401-8.181-18.401-8.181s-19.816 19.816-19.816 19.816l8.181 18.4c1.073 2.413.886 5.2-.499 7.447-6.433 10.44-11.137 21.8-14.004 33.747-.615 2.559-2.449 4.653-4.906 5.599l-18.767 7.223v28.037l18.767 7.223c2.455.944 4.289 3.036 4.904 5.593 2.867 11.908 7.568 23.301 14 33.702 1.391 2.249 1.58 5.041.505 7.458 0 0-8.181 18.4-8.181 18.4l19.822 19.822 18.405-8.152c2.404-1.065 5.177-.881 7.419.493 10.439 6.395 21.795 11.14 33.741 13.97 2.57.609 4.673 2.446 5.622 4.911l7.223 18.767h28.037l7.223-18.767c.948-2.463 3.049-4.3 5.616-4.91 11.9-2.828 23.285-7.527 33.679-13.954 2.246-1.389 5.033-1.58 7.448-.51l18.405 8.152 19.827-19.828-8.152-18.405c-1.065-2.403-.881-5.177.493-7.419 6.396-10.44 11.141-21.797 13.971-33.707.611-2.567 2.447-4.669 4.91-5.616l18.767-7.223v-28.037l-18.767-7.223c-2.464-.949-4.302-3.052-4.911-5.622-2.828-11.939-7.531-23.291-13.96-33.724-1.383-2.244-1.571-5.026-.503-7.436l8.152-18.405s-19.822-19.822-19.822-19.822l-18.4 8.181c-2.413 1.073-5.199.886-7.447-.499-10.434-6.429-21.786-11.132-33.69-13.961-2.569-.61-4.671-2.449-5.618-4.914zm-21.266 18.06c54.897 0 99.409 44.46 99.409 99.357 0 54.896-44.513 99.409-99.409 99.409-54.897 0-99.357-44.512-99.357-99.409 0-54.899 44.458-99.357 99.357-99.357zm0 16c-46.058 0-83.357 37.299-83.357 83.357 0 46.059 37.298 83.409 83.357 83.409 46.06 0 83.409-37.349 83.409-83.409 0-46.059-37.35-83.357-83.409-83.357zm-47.315 67.786h-12.846c-4.415 0-8-3.584-8-8 0-4.415 3.585-8 8-8h12.846v-3.035c0-3.371 1.339-6.604 3.722-8.987 2.383-2.384 5.616-3.723 8.987-3.723h3.035v-12.845c0-4.415 3.585-8 8-8 4.416 0 8 3.585 8 8v12.845h7.578v-12.845c0-4.415 3.584-8 8-8 4.415 0 8 3.585 8 8v12.845h7.577v-12.845c0-4.415 3.585-8 8-8s8 3.585 8 8v12.845h3.036c3.37 0 6.603 1.339 8.986 3.723 2.384 2.383 3.723 5.616 3.723 8.987v3.035h12.845c4.415 0 8 3.585 8 8 0 4.416-3.585 8-8 8h-12.845v7.578h12.845c4.415 0 8 3.584 8 8 0 4.415-3.585 8-8 8h-12.845v7.577h12.845c4.415 0 8 3.584 8 8 0 4.415-3.585 8-8 8h-12.845v3.035c0 3.371-1.339 6.604-3.723 8.987-2.383 2.384-5.616 3.723-8.986 3.723h-3.036v12.845c0 4.415-3.585 8-8 8s-8-3.585-8-8v-12.845h-7.577v12.845c0 4.415-3.585 8-8 8-4.416 0-8-3.585-8-8v-12.845h-7.578v12.845c0 4.415-3.584 8-8 8-4.415 0-8-3.585-8-8v-12.845h-3.035c-3.371 0-6.604-1.339-8.987-3.723-2.383-2.383-3.722-5.616-3.722-8.987v-3.035h-12.846c-4.415 0-8-3.585-8-8 0-4.416 3.585-8 8-8h12.846v-7.577h-12.846c-4.415 0-8-3.585-8-8 0-4.416 3.585-8 8-8h12.846zm78.644-15.745h-62.644v62.645h62.644zm-251.481 19.481c-6.535 0-11.841 5.306-11.841 11.842 0 6.535 5.306 11.841 11.841 11.841 6.536 0 11.842-5.306 11.842-11.841 0-6.536-5.306-11.842-11.842-11.842zm0-116.619c-6.535 0-11.841 5.306-11.841 11.842s5.306 11.842 11.841 11.842c6.536 0 11.842-5.306 11.842-11.842s-5.306-11.842-11.842-11.842zm440.996 0c-6.536 0-11.842 5.306-11.842 11.842s5.306 11.842 11.842 11.842c6.535 0 11.841-5.306 11.841-11.842s-5.306-11.842-11.841-11.842zm0 233.237c-6.536 0-11.842 5.306-11.842 11.842s5.306 11.842 11.842 11.842c6.535 0 11.841-5.306 11.841-11.842s-5.306-11.842-11.841-11.842zm0-116.618c-6.536 0-11.842 5.306-11.842 11.842 0 6.535 5.306 11.841 11.842 11.841 6.535 0 11.841-5.306 11.841-11.841 0-6.536-5.306-11.842-11.841-11.842zm-440.996 116.618c-6.535 0-11.841 5.306-11.841 11.842s5.306 11.842 11.841 11.842c6.536 0 11.842-5.306 11.842-11.842s-5.306-11.842-11.842-11.842z" fill="#f57c00" stroke="#f57c00" stroke-width=".1" /></svg>