<svg xmlns="http://www.w3.org/2000/svg" width="80.369" height="80.022" viewBox="0 0 80.369 80.022">
  <g id="Group_25321" data-name="Group 25321" transform="translate(-562.149 -322.496)">
    <g id="Group_25314" data-name="Group 25314" transform="translate(563.508 323.496)">
      <g id="Group_25313" data-name="Group 25313">
        <g id="Group_25312" data-name="Group 25312">
          <g id="Group_25309" data-name="Group 25309">
            <path id="Path_24411" data-name="Path 24411" d="M592.512,351.7v23.88a55.74,55.74,0,0,0,48.431,0V351.7" transform="translate(-577.722 -337.318)" fill="none" stroke="#f57c00" stroke-linecap="round" stroke-linejoin="round" stroke-width="2"/>
            <path id="Path_24412" data-name="Path 24412" d="M602.513,323.5l39.005,10.383-39.005,10.545-39.005-10.545Z" transform="translate(-563.508 -323.496)" fill="none" stroke="#f57c00" stroke-linecap="round" stroke-linejoin="round" stroke-width="2"/>
          </g>
          <g id="Group_25311" data-name="Group 25311" transform="translate(4.829 12.09)">
            <g id="Group_25310" data-name="Group 25310">
              <line id="Line_1218" data-name="Line 1218" y2="11.208" fill="none" stroke="#f57c00" stroke-linecap="round" stroke-linejoin="round" stroke-width="2"/>
            </g>
          </g>
        </g>
        <line id="Line_1219" data-name="Line 1219" x1="4.774" y2="5.098" transform="translate(0.055 23.298)" fill="none" stroke="#f57c00" stroke-linecap="round" stroke-linejoin="round" stroke-width="2"/>
        <line id="Line_1220" data-name="Line 1220" y2="8.344" transform="translate(4.829 23.298)" fill="none" stroke="#f57c00" stroke-linecap="round" stroke-linejoin="round" stroke-width="2"/>
      </g>
    </g>
    <g id="Group_25315" data-name="Group 25315" transform="translate(563.535 376.934)">
      <path id="Path_24413" data-name="Path 24413" d="M585.591,447.728h-12.31a9.719,9.719,0,0,1-9.719-9.718h0a9.718,9.718,0,0,1,9.719-9.719h68.243" transform="translate(-563.562 -428.291)" fill="none" stroke="#f57c00" stroke-linecap="round" stroke-linejoin="round" stroke-width="2"/>
      <line id="Line_1221" data-name="Line 1221" x1="42.755" transform="translate(35.206 19.437)" fill="none" stroke="#f57c00" stroke-linecap="round" stroke-linejoin="round" stroke-width="2"/>
      <line id="Line_1222" data-name="Line 1222" x2="64.138" transform="translate(9.881 9.718)" fill="none" stroke="#f57c00" stroke-linecap="round" stroke-linejoin="round" stroke-width="2"/>
      <line id="Line_1223" data-name="Line 1223" y2="19.257" transform="translate(74.019)" fill="none" stroke="#f57c00" stroke-linecap="round" stroke-linejoin="round" stroke-width="2"/>
      <path id="Path_24414" data-name="Path 24414" d="M619.94,447.35v14.867l-6.589-4.859-6.589,4.859V447.35" transform="translate(-584.733 -437.631)" fill="none" stroke="#f57c00" stroke-linecap="round" stroke-linejoin="round" stroke-width="2"/>
    </g>
  </g>
</svg>
