<svg xmlns="http://www.w3.org/2000/svg" width="33.332" height="42.241" viewBox="0 0 33.332 42.241">
  <g id="education_8973410" transform="translate(1 -6.5)">
    <g id="Group_8398" data-name="Group 8398" transform="translate(0 7.5)">
      <path id="Path_7447" data-name="Path 7447" d="M101.04,31.527h11.386a13.867,13.867,0,0,0,13.023-10.093,1.124,1.124,0,0,0-1.695-1.254,16.524,16.524,0,0,1-8.76,2.7" transform="translate(-97.921 -18.982)" fill="none" stroke="#50e3c2" stroke-linecap="round" stroke-linejoin="round" stroke-width="2"/>
      <path id="Path_7448" data-name="Path 7448" d="M333.727,133.071a9.542,9.542,0,0,0,6.253,2.379" transform="translate(-311.767 -122.904)" fill="none" stroke="#50e3c2" stroke-linejoin="round" stroke-width="2"/>
      <path id="Path_7449" data-name="Path 7449" d="M121.2,10.069a12.539,12.539,0,1,0,2.882,3.092" transform="translate(-97.921 -7.5)" fill="none" stroke="#50e3c2" stroke-linecap="round" stroke-linejoin="round" stroke-width="2" stroke-dasharray="200 30 970 30 1000 0"/>
      <g id="Group_8397" data-name="Group 8397" transform="translate(0 9.428)">
        <path id="Path_7450" data-name="Path 7450" d="M66.019,123.964a3.119,3.119,0,1,0,0,6.19" transform="translate(-62.515 -123.94)" fill="none" stroke="#50e3c2" stroke-linejoin="round" stroke-width="2"/>
        <path id="Path_7451" data-name="Path 7451" d="M406.208,130.154a3.119,3.119,0,1,0,0-6.19" transform="translate(-378.38 -123.94)" fill="none" stroke="#50e3c2" stroke-linejoin="round" stroke-width="2"/>
      </g>
    </g>
    <g id="Group_8400" data-name="Group 8400" transform="translate(9.57 22.017)">
      <g id="Group_8399" data-name="Group 8399" transform="translate(3.755 2.071)">
        <path id="Path_7452" data-name="Path 7452" d="M229.429,212.375a1.17,1.17,0,0,1-2.341,0" transform="translate(-227.088 -212.375)" fill="none" stroke="#50e3c2" stroke-linecap="round" stroke-width="2"/>
        <path id="Path_7453" data-name="Path 7453" d="M258.341,212.375a1.17,1.17,0,1,1-2.341,0" transform="translate(-253.659 -212.375)" fill="none" stroke="#50e3c2" stroke-linecap="round" stroke-width="2"/>
      </g>
      <path id="Path_7454" data-name="Path 7454" d="M182.942,187.91a1.115,1.115,0,0,0-2.229,0" transform="translate(-180.713 -186.795)" fill="none" stroke="#50e3c2" stroke-linecap="round" stroke-linejoin="round" stroke-width="2"/>
      <path id="Path_7455" data-name="Path 7455" d="M303.757,187.91a1.115,1.115,0,1,1,2.229,0" transform="translate(-293.794 -186.795)" fill="none" stroke="#50e3c2" stroke-linecap="round" stroke-linejoin="round" stroke-width="2"/>
    </g>
    <path id="Path_7456" data-name="Path 7456" d="M376.578,385.673h-.9a1.824,1.824,0,0,0-1.731,2.4l.4,1.21a1.824,1.824,0,0,0,1.731,1.247h1.357a1.619,1.619,0,0,0,1.619-1.619v-2.024a2.428,2.428,0,0,0-2.455-2.429h-.159" transform="translate(-348.646 -346.436)" fill="none" stroke="#50e3c2" stroke-linecap="round" stroke-linejoin="round" stroke-width="2"/>
    <path id="Path_7457" data-name="Path 7457" d="M129.033,372.74v-.532a1.823,1.823,0,0,0-1.822-1.822H124.1a10.069,10.069,0,0,0-6.455,2.787l-.883.784-.882-.784a9.716,9.716,0,0,0-6.455-2.454h-3.107a1.822,1.822,0,0,0-1.822,1.822v.2" transform="translate(-101.101 -333.504)" fill="none" stroke="#50e3c2" stroke-linecap="round" stroke-linejoin="round" stroke-width="2"/>
    <path id="Path_7458" data-name="Path 7458" d="M104.561,459.458a1.822,1.822,0,0,0,1.817,1.694h3.107a9.716,9.716,0,0,1,4.836,1.289,5.048,5.048,0,0,0,5,0,9.717,9.717,0,0,1,4.836-1.289h3.107a1.822,1.822,0,0,0,1.817-1.694" transform="translate(-101.157 -415.364)" fill="none" stroke="#50e3c2" stroke-linecap="round" stroke-linejoin="round" stroke-width="2" stroke-dasharray="266 30 970 30 1000 0"/>
    <path id="Path_7459" data-name="Path 7459" d="M76.645,384.458H76.31a2.428,2.428,0,0,0-2.455,2.429v2.024a1.619,1.619,0,0,0,1.619,1.619h1.357a1.824,1.824,0,0,0,1.731-1.247l.4-1.21a1.824,1.824,0,0,0-1.731-2.4h-.9" transform="translate(-72.937 -346.436)" fill="none" stroke="#50e3c2" stroke-linecap="round" stroke-linejoin="round" stroke-width="2"/>
    <path id="Path_7460" data-name="Path 7460" d="M300.024,313.405a6.768,6.768,0,0,0-1.976-1.781" transform="translate(-278.977 -279.5)" fill="none" stroke="#50e3c2" stroke-width="2"/>
    <path id="Path_7461" data-name="Path 7461" d="M189.61,311.633a6.8,6.8,0,0,0-2.144,2.018" transform="translate(-177.349 -279.508)" fill="none" stroke="#50e3c2" stroke-width="2"/>
    <path id="Path_7462" data-name="Path 7462" d="M148.308,333.615v-.81a2.429,2.429,0,0,0-2.429-2.429,8.657,8.657,0,0,0-2.595.262,12.848,12.848,0,0,0-5.381,3.31,10.264,10.264,0,0,0-7.338-3.239h-.41a2.488,2.488,0,0,0-2.657,2.429v.81" transform="translate(-122.237 -296.733)" fill="none" stroke="#50e3c2" stroke-linecap="round" stroke-linejoin="round" stroke-width="2"/>
    <line id="Line_72" data-name="Line 72" y2="4.858" transform="translate(15.666 40.454)" fill="none" stroke="#50e3c2" stroke-linecap="round" stroke-linejoin="round" stroke-width="2"/>
  </g>
</svg>
