<svg xmlns="http://www.w3.org/2000/svg" width="86.342" height="86.799" viewBox="0 0 86.342 86.799">
  <g id="level-up_14913162" transform="translate(-9 -9)">
    <path id="Path_24417" data-name="Path 24417" d="M18.571,10,10,22h4.286V35.714h8.571V22h4.286Z" transform="translate(0 0)" fill="none" stroke="#f57c00" stroke-linecap="round" stroke-linejoin="round" stroke-width="2"/>
    <path id="Path_24418" data-name="Path 24418" d="M410.571,10,402,22h4.286V35.714h8.571V22h4.286Z" transform="translate(-324.8 0)" fill="none" stroke="#f57c00" stroke-linecap="round" stroke-linejoin="round" stroke-width="2"/>
    <line id="Line_1224" data-name="Line 1224" transform="translate(52.171 79.169)" fill="none" stroke="#f57c00" stroke-linecap="round" stroke-linejoin="round" stroke-width="2"/>
    <line id="Line_1225" data-name="Line 1225" transform="translate(52.171 86.273)" fill="none" stroke="#f57c00" stroke-linecap="round" stroke-linejoin="round" stroke-width="2"/>
    <line id="Line_1226" data-name="Line 1226" y2="9.946" transform="translate(32.278 84.852)" fill="none" stroke="#f57c00" stroke-linecap="round" stroke-linejoin="round" stroke-width="2"/>
    <line id="Line_1227" data-name="Line 1227" y2="9.946" transform="translate(72.064 84.852)" fill="none" stroke="#f57c00" stroke-linecap="round" stroke-linejoin="round" stroke-width="2"/>
    <path id="Path_24419" data-name="Path 24419" d="M182.3,34.313l-.62-7.233A18.675,18.675,0,0,0,163.071,10h0a18.675,18.675,0,0,0-18.607,17.08l-.62,7.233" transform="translate(-110.899 0)" fill="none" stroke="#f57c00" stroke-linecap="round" stroke-linejoin="round" stroke-width="2"/>
    <line id="Line_1228" data-name="Line 1228" x1="2.297" y1="26.793" transform="translate(71.885 40)" fill="none" stroke="#f57c00" stroke-linecap="round" stroke-linejoin="round" stroke-width="2"/>
    <line id="Line_1229" data-name="Line 1229" x1="2.297" y2="26.794" transform="translate(30.16 40)" fill="none" stroke="#f57c00" stroke-linecap="round" stroke-linejoin="round" stroke-width="2"/>
    <path id="Path_24420" data-name="Path 24420" d="M176,111.857h0a9.9,9.9,0,0,0,9.265-6.42l.164-.437h0a23.411,23.411,0,0,0,16.554,6.857h1.445v10.286a13.714,13.714,0,0,1-13.714,13.714h0A13.714,13.714,0,0,1,176,122.143Z" transform="translate(-137.543 -78.714)" fill="none" stroke="#f57c00" stroke-linecap="round" stroke-linejoin="round" stroke-width="2"/>
    <path id="Path_24421" data-name="Path 24421" d="M336,153.571h2.571a4.286,4.286,0,0,0,0-8.571H336" transform="translate(-270.115 -111.857)" fill="none" stroke="#f57c00" stroke-linecap="round" stroke-linejoin="round" stroke-width="2"/>
    <path id="Path_24422" data-name="Path 24422" d="M142.857,145h-2.571a4.286,4.286,0,0,0,0,8.571h2.571" transform="translate(-104.4 -111.857)" fill="none" stroke="#f57c00" stroke-linecap="round" stroke-linejoin="round" stroke-width="2"/>
    <path id="Path_24423" data-name="Path 24423" d="M182.35,310l-5.928,1.888,4.213,11.826,9.428-5.143Z" transform="translate(-137.893 -248.572)" fill="none" stroke="#f57c00" stroke-linecap="round" stroke-linejoin="round" stroke-width="2"/>
    <g id="Group_25319" data-name="Group 25319" transform="translate(82.01 80.589)">
      <rect id="Rectangle_6695" data-name="Rectangle 6695" transform="translate(0 0)" fill="none" stroke="#f57c00" stroke-linecap="round" stroke-linejoin="round" stroke-width="2"/>
    </g>
    <path id="Path_24424" data-name="Path 24424" d="M263.714,310l5.928,1.888-4.213,11.826L256,318.571Z" transform="translate(-203.829 -248.572)" fill="none" stroke="#f57c00" stroke-linecap="round" stroke-linejoin="round" stroke-width="2"/>
    <line id="Line_1230" data-name="Line 1230" y2="6.661" transform="translate(44.457 54.767)" fill="none" stroke="#f57c00" stroke-linecap="round" stroke-linejoin="round" stroke-width="2"/>
    <line id="Line_1231" data-name="Line 1231" y2="6.661" transform="translate(59.885 54.767)" fill="none" stroke="#f57c00" stroke-linecap="round" stroke-linejoin="round" stroke-width="2"/>
    <path id="Path_24425" data-name="Path 24425" d="M101.5,321.012A18,18,0,0,0,86,338.838v13.2h58.285v-5.486" transform="translate(-62.972 -257.696)" fill="none" stroke="#f57c00" stroke-linecap="round" stroke-linejoin="round" stroke-width="2"/>
    <path id="Path_24426" data-name="Path 24426" d="M335.576,321.017a18.018,18.018,0,0,1,13.852,10.289" transform="translate(-269.763 -257.7)" fill="none" stroke="#f57c00" stroke-linecap="round" stroke-linejoin="round" stroke-width="2"/>
  </g>
</svg>
