<svg id="Group_21737" data-name="Group 21737" xmlns="http://www.w3.org/2000/svg" width="412.927" height="750.804" viewBox="0 0 412.927 750.804">
  <g id="Group_21731" data-name="Group 21731" transform="translate(37.513 0.875)">
    <path id="Path_19177" data-name="Path 19177" d="M363.436,855.5l1.725-4.038L379.832,769.1l10.361-13.411v-4.582l-14.877,16.3Z" transform="translate(-320.091 -154.043)" fill="#6e8189"/>
    <path id="Path_19178" data-name="Path 19178" d="M427.533,606.157l-24.508,58.848-3.112,2.144-4.167,41.183c-7.5,15.612-15.693,32.623-15.949,32.87l1.623,3.977,13.7-30.609-2.489,24.6L394.37,736l2.741-25.892,12.94-28.923-5.336-14.04.406-1.009,9.049-6.333v-2.479l-7.613,5.245,22.7-56.416,4.392-43.286-1.949,1.357Zm-19.511,76.555s-4.711,9.853-10.285,21.47l3.759-35.506Z" transform="translate(-321.404 -138.938)" fill="#6e8189"/>
    <path id="Path_19179" data-name="Path 19179" d="M512.741,114.305l-52.9-11.8-3.022,1.125-.4-1.2-4.023-.475-1.231,3.036-.116.052-.1.472-6.077,29.883-20.242,34.268,1.82,4.1-5.173,9.7-8.1-4.189-7.263,9.359-5.4-3.375-3.961,1.109-6.086,9.152-6.11-3.055-6.163,6.787-5.479-1.323-2.138,1.648,6.286,1.141-3.954,4.354L362.56,202.45l-1.738.951,11.268,2.454,1.542-.475,4.563-4.415,8.625,1.564,4.36-5.3,6.015,2.353h1.256l7.435-8.919,9.843,5.018,6.673-9.133,5.534,2.782,1.832,10.524-5.136,8.234,1.2,3.4-1.2,1.019.15,1.6-3.513-2.074-3.441,2.485-3.212-2.012-7.127-.979-6.232,3.24-4.222-3.839-3.47-.479-8.984,3.124-1.722-1.067H378.5l3.544,1.948-4.652,1.618-7.467-4.545-7.368.169,14.677,6.381,7.757-2,8.161,4.487,7.444-3.306,7.842,6,11.623-4.992,5.393,3.089,4.055,43.47-4.3,35.411v4.306l1.449,10.868-9.194-13.8-6.23,2.934-22.777,22.631-17.982-5.69-7.286,2.9-9.321,9.912-10.848-2.149-4.646,2.516-12.978,10.8-8.669-.139-.423,1.69c.139,0,3.137.049,7.09.116l-7.09,5.9h1.9l7.52-5.864c7.875.132,17.823.3,17.823.3l11.635-10.6,22.483,2.883,10.992-10.527,16.134,3.956,22.957-9.572,2.6,19.524-5.063,19.213-.537-.971-6.148,6-4.518-4.548-8.609-1.03L393.823,368.2l-6.767-5.379h-5.348l-14.182,4.324-6.705-4.324h-6.076l-14.077,4.733-15.912-4.733-3.485,1.082,16.258,4.706-4.748,1.6,1.633.38c.151-.01,2.4-.56,5.418-1.31l13.54,3.919,13.07-2.938,13.857,7.25,13.107-5.665,14.347,9.581,10.053-8.331,8.643,6.85,3.68,45.509-3.9,32.747h1.69l2.861-24.667,2.84,35.121.826-5.679-2.413-40.249,4.226-36.435-.234-.563.234-1.022-.062-.65.063-.616-.162-.406L432.38,344.75l3.883-17.066-.521-.632.521-2.678-4.029-57.714,3.379-37.848-1.126-2.613,1.117-.545L434.557,225l.707-1.641-3.276-22.328,3.276-7.352v-2.232l.815-.321-1.619-.837.557-1.085,11.129-47.991,13.3-23.561-.565-1.026,1.679-1.686-2.969-8.975,52.857,10.717ZM386.637,201.3l-7.031-1.7,5.074-4.91,5.039,1.971Zm11.111-2.133-5.781-2.891,7.365-8.949,5.449,2.778Zm17.624-4.611-8.366-5.233,6.173-7.406,7.043,3.539Zm8.354-9.817,2.753-3.766.992,5.7Zm-30.493,34.2-5.684-3.525,7.954-2.055,3.424,2.618Zm15.207,2.36-5.561-5.056,7.7-3.418,5.351,3.066Zm13.84-3.991,2.691-1.156.281,3.018ZM343.1,345.742l-15.235-.245,13.364-10.422,10.62,1.361Zm33.636-6.925-19.461-3.857,11.619-10.586,17.949,4.4Zm27.427-6.68-13.942-4.412L414.3,304.664l13.051,15.926.024.177ZM353.584,371.4l-10.15-3.019c6.123-1.533,13.106-3.3,13.106-3.3l6.543,3.423Zm26.927,4.122-9.686-6.246,14.015-3.152,5.763,3.85Zm26.5,3.169-10.37-8.245,11.532-4.984,6.837,5.42Zm14.348-8.543,4.025-3.335.65,8.042Zm10.145,43.738-1.883-31.422,3.365,2.668,2-.482Zm3.563-29.935-5.7-5.74-.476-7.954,6.206,13.456Zm.385-2.524-7.285-18.173,3.068-13.484Zm-3.737-43.473L430.393,324.3l3.726,4.546Zm3.546-11.477-.4-.478-.327,1.24-3.368-5.057,3.551-1.481Zm-.854-9.152-4.483,2.2-1.258-12.941,2.318-25.952Zm-3.251-66.06L429.22,223.5l4.963,2.843Zm2.936-26.553-5.01-3.138-.846-12.12,0,0,2.3-5.167Zm.839-33.131-3.507,5.621-.968-6.6,2.893,1.454-.132.655.294-.574Zm-1.151-1.64-3.7-1.915-1.464-9.978,1.841-2.52-2.363-1.037-.15-1.019,14.363-25.452Zm15.407-61.849,4.23-18.239,3.211,5.643Z" transform="translate(-316.309 -101.951)" fill="#6e8189"/>
    <path id="Path_19180" data-name="Path 19180" d="M396.793,499.734l-4.4,1.478-15.406,11.232-10.631.443s-6.86,5-13.045,9.542l-4.062-1.824-10.612,5.435,10.026-.189c-2.8,2.067-4.85,3.6-5.034,3.789l5.346-1.451,3.294-2.407,3.633-.068,3.372-.608-3.766-1.69,11.957-8.741s2.993-.159,6.99-.384l-14.724,10.734,2.532-.456,15.385-10.461c7.623-.44,16.784-1.01,17.06-1.221.475-.362,2.692,0,2.692,0l15.413-9.664,13.889.549,4.712-1.927-14.949-.911,13.88-8.7-2.323-2.952-16.351,11.362Zm-.975,11.924-15.518.648,14.41-9.8,13.508.534Z" transform="translate(-318.101 -133.033)" fill="#6e8189"/>
    <path id="Path_19181" data-name="Path 19181" d="M361.289,528.321l.244-.178-.457.083Z" transform="translate(-319.901 -136.151)" fill="#6e8189"/>
  </g>
  <g id="Group_21732" data-name="Group 21732" transform="translate(179.75 0.875)">
    <path id="Path_19182" data-name="Path 19182" d="M635.064,855.5l-1.725-4.038L618.668,769.1l-10.362-13.411v-4.582l14.877,16.3Z" transform="translate(-481.978 -154.043)" fill="#6e8189"/>
    <path id="Path_19183" data-name="Path 19183" d="M564.434,564.228l-1.948-1.357,4.392,43.286,22.7,56.416-7.612-5.245v2.479l9.049,6.333.406,1.009-5.337,14.04,12.941,28.923L601.767,736l1.742,3.163-2.488-24.6,13.694,30.609,1.623-3.977c-.256-.248-8.454-17.258-15.95-32.87l-4.166-41.183-3.113-2.144L568.6,606.157Zm30.2,104.448,3.759,35.506c-5.573-11.616-10.284-21.47-10.284-21.47Z" transform="translate(-478.301 -138.938)" fill="#6e8189"/>
    <path id="Path_19184" data-name="Path 19184" d="M473.253,116.681l52.857-10.717-2.969,8.975,1.678,1.686-.564,1.026,13.3,23.561L548.679,189.2l.556,1.085-1.618.837.815.321v2.232l3.275,7.352-3.275,22.328.706,1.641-1.047.656,1.117.545-1.126,2.613,3.379,37.848-4.029,57.714.521,2.678-.521.632,3.884,17.066L547.6,383.032l-.163.406.063.616-.063.65.235,1.022-.235.563,4.226,36.435-2.412,40.249.826,5.679,2.839-35.121,2.862,24.667h1.69l-3.9-32.747,3.681-45.509,8.643-6.85,10.052,8.331,14.347-9.581,13.108,5.665,13.857-7.25,13.069,2.938,13.541-3.919c3.014.75,5.267,1.3,5.418,1.31l1.632-.38-4.748-1.6,16.258-4.706-3.485-1.082-15.912,4.733-14.077-4.733h-6.076l-6.7,4.324-14.182-4.324H596.64l-6.766,5.379-11.658-6.409-8.608,1.03-4.518,4.548-6.148-6-.538.971-5.062-19.213,2.6-19.524,22.957,9.572,16.135-3.956,10.991,10.527,22.484-2.883,11.634,10.6s9.948-.17,17.823-.3l7.52,5.864h1.9l-7.091-5.9c3.954-.067,6.953-.116,7.091-.116l-.422-1.69-8.669.139-12.978-10.8-4.646-2.516-10.848,2.149-9.319-9.912-7.287-2.9-17.983,5.69-22.777-22.631-6.229-2.934-9.194,13.8,1.448-10.868V300.23l-4.3-35.411,4.055-43.47,5.393-3.089,11.622,4.992,7.843-6,7.444,3.306,8.161-4.487,7.757,2,14.677-6.381-7.369-.169-7.468,4.545-4.651-1.618,3.543-1.948h-4.355l-1.722,1.067-8.984-3.124-3.47.479-4.222,3.839-6.232-3.24-7.127.979-3.213,2.012-3.441-2.485-3.512,2.074.15-1.6-1.2-1.019,1.2-3.4-5.136-8.234,1.832-10.524,5.534-2.782,6.673,9.133,9.843-5.018,7.435,8.919H586.5l6.014-2.353,4.36,5.3,8.625-1.564,4.564,4.415,1.542.475,11.268-2.454-1.738-.951-10.357,2.629-3.953-4.354,6.286-1.141-2.138-1.648-5.478,1.323-6.164-6.787-6.109,3.055-6.087-9.152-3.959-1.109-5.4,3.375-7.264-9.359-8.1,4.189-5.173-9.7,1.821-4.1-20.243-34.268-6.076-29.883-.1-.472-.117-.052-1.23-3.036-4.023.475-.4,1.2-3.022-1.125-52.9,11.8ZM593.976,196.66l5.039-1.971,5.074,4.91-7.032,1.7ZM578.915,190.1l5.449-2.778,7.365,8.949-5.782,2.891Zm-15.441-4.647,7.042-3.539,6.174,7.406-8.367,5.233Zm-7.25,1.22.993-5.7,2.752,3.766Zm28.544,29.3,3.425-2.618,7.954,2.055-5.684,3.525Zm-17-.087,5.351-3.066,7.7,3.418-5.562,5.056Zm-9.324,3.279.281-3.018,2.691,1.156Zm73.4,117.268,10.621-1.361L655.831,345.5l-15.236.245Zm-34.995-7.662,17.95-4.4,11.618,10.586-19.461,3.857Zm-40.531-8.008.023-.177L569.4,304.664l24.078,23.061-13.941,4.412ZM620.614,368.5l6.542-3.423s6.984,1.768,13.106,3.3L630.113,371.4Zm-27.521,1.471,5.764-3.85,14.015,3.152-9.686,6.246Zm-24.409.908,6.838-5.42,11.532,4.984-10.371,8.245Zm-11.024,3.973.65-8.042,4.025,3.335Zm-8.95,9.794,2,.482,3.366-2.668-1.884,31.422Zm-.111-.937,6.206-13.456-.475,7.954-5.7,5.74Zm3.859-33.943,3.069,13.484-7.286,18.173Zm-2.879-20.921L553.3,324.3l-1.326,13.651Zm-.607-8.148,3.551,1.481-3.368,5.057-.328-1.24-.394.478Zm3.739-40.074,2.317,25.952-1.258,12.941-4.483-2.2Zm-3.2-54.276,4.963-2.843-1.939,27.756Zm3.644-22.063,2.3,5.167,0,0-.846,12.12-5.009,3.138Zm-2.974-12.149.294.574-.133-.655,2.893-1.454-.968,6.6-3.506-5.621Zm-8.795-44.121,14.362,25.452-.15,1.019-2.362,1.037,1.84,2.52-1.463,9.978-3.7,1.915Zm-14.322-32.523,3.211-5.643,4.229,18.239Z" transform="translate(-470.956 -101.951)" fill="#6e8189"/>
    <path id="Path_19185" data-name="Path 19185" d="M581.067,500.642,564.716,489.28l-2.323,2.952,13.879,8.7-14.948.911,4.712,1.927,13.889-.549,15.413,9.664s2.217-.362,2.692,0c.276.211,9.437.781,17.06,1.221l15.385,10.461,2.532.456-14.723-10.734c4,.225,6.989.384,6.989.384l11.957,8.741-3.765,1.69,3.372.608,3.633.068,3.293,2.407,5.347,1.451c-.184-.188-2.237-1.723-5.034-3.789l10.025.189-10.612-5.435-4.062,1.824c-6.183-4.541-13.044-9.542-13.044-9.542l-10.631-.443-15.405-11.232-4.4-1.478Zm3.455,2.4,13.508-.534,14.409,9.8-15.518-.648Z" transform="translate(-478.208 -133.033)" fill="#6e8189"/>
    <path id="Path_19186" data-name="Path 19186" d="M639.506,528.321l-.244-.178.457.083Z" transform="translate(-484.462 -136.151)" fill="#6e8189"/>
  </g>
  <path id="Path_19187" data-name="Path 19187" d="M658.763,893.416H310.014l33.481-28.8H625.282Z" transform="translate(-278.291 -162.277)" fill="#b9baba"/>
  <path id="Path_19188" data-name="Path 19188" d="M319.352,892.825c2.058.433,10.929-1.31,10.929-1.31s10.4.159,20.247,0,49.954-10.288,69.656-12.114,117.431.1,129.627-.782,34.335,2.6,48.687,2.759,25.546,10.136,25.546,10.136,21.277.7,21.91,1.379,0,1.632,0,1.632-319.158.891-322.8.682S319.352,892.825,319.352,892.825Z" transform="translate(-279.04 -163.389)" fill="#cacece"/>
  <path id="Path_19189" data-name="Path 19189" d="M554.7,869.268l9.323-2.994,45.35,6.824,2.775-3.031L573.6,864.611H552.946l3.222.484-9.7,2.51L531.7,864.611H513.383l20.253,3.791h-92.83l20.252-3.791H442.744L427.976,867.6l-9.7-2.51,3.221-.484H400.844L362.3,870.066l2.775,3.031,45.351-6.824,9.323,2.994-74.5,15.083,3.878,6.053,10.254-3.43,73.851-16.907H541.21l73.852,16.907,10.254,3.43,3.877-6.053Z" transform="translate(-281.118 -162.277)" fill="#9ca0a0"/>
  <path id="Path_19190" data-name="Path 19190" d="M361.336,867.248l-2.776,1.622-1.236,4.434h8.714l1.648-2.481-.549-3.023-.7-.383-1.7.978-3.445-.2Z" transform="translate(-282.087 -162.488)" fill="#d3d3d3"/>
  <path id="Path_19191" data-name="Path 19191" d="M365.132,869.11l.905,4.336h-8.714l1.236-4.434Z" transform="translate(-282.087 -162.63)" fill="#f4f4f4"/>
  <path id="Path_19192" data-name="Path 19192" d="M637.846,867.248l2.776,1.622,1.236,4.434h-8.713l-1.647-2.481.549-3.023.7-.383,1.7.978,3.445-.2Z" transform="translate(-304.088 -162.488)" fill="#d3d3d3"/>
  <path id="Path_19193" data-name="Path 19193" d="M634.193,869.11l-.905,4.336H642l-1.236-4.434Z" transform="translate(-304.232 -162.63)" fill="#f4f4f4"/>
  <path id="Path_19194" data-name="Path 19194" d="M658.222,895.926H309.469l-6.238,19.668H664.46Z" transform="translate(-277.746 -164.789)" fill="#9ca0a0"/>
  <g id="Group_21735" data-name="Group 21735" transform="translate(4.424 12.058)">
    <path id="Path_19195" data-name="Path 19195" d="M611.277,808.181l-1.495-5.6-30.266-32.2-61.265-65.19H459.824L427.07,740.029l-28.521,30.352-30.864,32.836-1.324,4.963h-5.746L436.251,524.03V192.276l24.067-78.166h57l24.058,78.166V524.03l75.637,284.151Zm-242.3-9.839,27.518-29.27-17.532-8.225ZM581.57,769.07,608.482,797.7l-9.759-36.666Zm-26.991-28.724,25.2,26.824,18.288-8.572-13.765-51.712ZM379.606,758.42l18.675,8.75,25.214-26.824L393.426,706.5Zm45.531-19.814,31.395-33.415H395.454Zm127.8,0,29.683-33.415H521.533Zm-157.772-39.5H582.241l-.337-1.233L489.038,583.747Zm2.419-8.239.809.5,24.98-30.691-9.271-31.86Zm156.755-30.64,24.681,30.326.809-.5L563.5,628.724ZM414.845,626.04l9.667,33.239,29.567-36.336H415.672ZM553.2,658.825l9.562-32.883-.8-3H523.988Zm-30.515-37.509h38.842l-13.615-51.171H532.885Zm-106.581,0h38.784l-10.2-51.171h-14.97Zm40.1-.982,31.3-38.468-9.537-11.72H446.194Zm34.367-38.468,30.9,37.977,9.9-49.7H500.1Zm-1.534-1.88,8-9.84H481.034Zm12.391-11.466h46l-.169-.851-.182-.2-28.513-20.009ZM470.573,557.29l9.141,11.231H498.36l9-11.061-8.3-16.284H478.791ZM430.5,567.222l-.338,1.3h46.483l-17.254-21.206Zm89.06-20.981,27.032,18.97L536.125,525.88Zm-88.436,18.633,27.265-18.78L441.61,525.47Zm77.282-8.7,12.2-15H500.752Zm-38.874-.168,7.564-14.835H457.456Zm30.391-16.459h22.015l3.217-3.952-18.809-14.925H490.291Zm-20.308,0h18.62l-9.31-18.244Zm-26.783-4.058,3.306,4.058h21.789l9.63-18.877H471.5Zm73.309-1.106,9.727-11.953v-2.52l-47.048-27.987-47.056,27.987v1.976l10.082,12.392,19.187-15.233h35.79Zm-84.376-17.328L486.412,490.5l-44.649-26.56ZM491.226,490.5l44.641,26.551v-53.1Zm-49.463-30.213v.8l47.056,27.986,47.048-27.986v-.843l-47.023-41.179Zm0-3.216,45.244-39.611-45.244-39.62Zm48.916-39.611,45.187,39.567V377.884Zm-48.916-42.836,47.08,41.223,47.023-41.17v-1.546l-94.1-55.965Zm.186-60.211,93.918,55.853V314.524L488.843,274.64Zm-.186-3.015,45.211-38.351-45.211-38.342Zm48.949-38.351,45.154,38.307v-76.6Zm-48.949-42.172v.642l.186.166,46.895,39.778,47.023-39.882v-.642l-.331-.2-46.692-16.407Zm0-1.706,44.649-15.693-44.649-15.684Zm49.5-15.693,44.6,15.675V197.81Zm-49.5-19.409v2.018l47.08,16.542L535.867,196.1v-2.08l-47.023-46.139Zm1.379-4.3,43.8-43.453-23.088-25.7Zm47.6-43.453,43.72,43.39L513.8,120.638Zm-1.9-1.582,21.7-24.538H467.147Z" transform="translate(-286.775 -114.11)" fill="#6e8189"/>
    <path id="Path_19196" data-name="Path 19196" d="M448.513,554.755v-5.323h21.912l-21.912-45.222v-6.333h94.949v5.859l-22.141,45.7h22.141v5.323Zm69.3-5.323h1.953l22.4-46.234H498.134Zm-42.351,0h40.829L496.611,503.2h-1.474Zm-3.476,0h1.952L493.6,503.2H449.589Z" transform="translate(-293.829 -144.906)" fill="#6e8189"/>
    <path id="Path_19197" data-name="Path 19197" d="M553.988,554.77v-5.323H570.35l-16.362-41.97V498.07l152.393,49.613v7.087ZM665.4,549.448h31.474l.148-.927L668.737,539.3Zm-29.009-19.727,24.984,19.727h1.878l3.553-10.777L636.83,528.9ZM619.92,549.448h38.765l-28.958-22.874-2.061-.665Zm-2.837,0h.691l7.945-24.177-35.835-11.68Zm-42.641,0h40.316l-28.129-37.085Zm-2.047-.305,12.249-37.262-26.577-8.667h-3.585Z" transform="translate(-302.293 -144.921)" fill="#6e8189"/>
    <path id="Path_19198" data-name="Path 19198" d="M280.333,554.77v-7.087L432.726,498.07v9.407l-16.362,41.97h16.362v5.323Zm91.624-5.323h40.316l-12.187-37.085ZM361,525.27l7.945,24.177h.691l27.2-35.858Zm-4.008,1.3L328.03,549.448h38.765l-7.745-23.539Zm-37.077,12.1,3.552,10.777h1.878l24.986-19.727-.441-.825ZM289.7,548.52l.147.927h31.473l-3.34-10.149Zm112.373-36.64,12.249,37.262,17.913-45.929h-3.585Z" transform="translate(-280.333 -144.921)" fill="#6e8189"/>
    <path id="Path_19199" data-name="Path 19199" d="M448.513,407.11v-6.036h21.879L448.513,350.78v-7.132h94.949v6.6l-22.108,50.823h22.108v6.036Zm69.286-6.036h1.978l22.347-51.39H498.161Zm-42.311,0H516.26l-19.637-51.39h-1.5Zm-3.518,0h1.978l19.626-51.39H449.622Z" transform="translate(-293.829 -132.529)" fill="#6e8189"/>
    <g id="Group_21733" data-name="Group 21733" transform="translate(251.695 211.24)">
      <path id="Path_19200" data-name="Path 19200" d="M553.988,401.083l24.19-3.348-24.19-43.28V343.78l151.568,35.007-.111,4.762L553.988,407.041Zm30.133-4.171,47.545-6.582-31.608-32.108Zm-28.784-47.188,25.888,46.936,16.2-38.976-36.891-8.048Zm78.777,40.267.635-.086,8.219-22.29-38.818-8.462Zm2.746-.38,35.114-4.861-25.257-16.32-1.944-.418Zm16.063-18.882,20.99,13.752,1.549-.214,2.975-8.913-25.152-5.486Zm23.942,13.344,22.777-3.153.036-.935-20.012-4.365Z" transform="translate(-553.988 -343.78)" fill="#6e8189"/>
    </g>
    <g id="Group_21734" data-name="Group 21734" transform="translate(0.825 211.24)">
      <path id="Path_19201" data-name="Path 19201" d="M281.341,383.548l-.111-4.762L432.8,343.78v10.676l-24.189,43.28,24.189,3.348v5.957Zm73.78,6.782,47.544,6.582-15.936-38.69Zm34.238-32.647,16.2,38.976,25.888-46.936-5.2-.088Zm-45.541,9.931,8.219,22.29.635.086,29.964-30.838Zm-3.749.816L314.81,384.75l35.116,4.861-7.914-21.6Zm-31.72,6.924,2.974,8.913,1.55.214,20.989-13.752-.362-.862Zm-21.241,4.632.036.935,22.775,3.153-2.8-8.453Z" transform="translate(-281.23 -343.78)" fill="#6e8189"/>
    </g>
    <path id="Path_19202" data-name="Path 19202" d="M445.213,384.987l99.706-59.871L546,327.353,446.3,387.223Z" transform="translate(-293.564 -131.042)" fill="#6e8189"/>
    <path id="Path_19203" data-name="Path 19203" d="M447.242,236.425v-4.467H471.7l-22.37-30.667h-2.085v-4.04l.122-.436h96.765v4.475h-1.923l-22.36,30.667h24.283v4.467Zm70.61-4.467h1.126l22.361-30.667h-43.5Zm-43.338,0h42.505l-20-30.667h-2.5Zm-1.95,0h1.127L493.7,201.291H450.2Z" transform="translate(-293.727 -120.747)" fill="#6e8189"/>
    <path id="Path_19204" data-name="Path 19204" d="M555.682,231.978l20.912-3.039-20.912-21.447v-2.734l22.907,23.891.955-.139L590.211,208.7l-33.829-7.35-.7.014v-3.5l87.637,20.568v3.246l-87.637,14.746Zm25.6-3.72L616.1,223.2,593.71,209.429l-.1.009-2.079-.445Zm17.529-16.745,18.417,11.522,1.745-.253,3.159-7.14-22.967-5ZM619.8,222.662l18.182-2.642.032-.935-15.192-3.3Z" transform="translate(-302.429 -120.831)" fill="#6e8189"/>
    <path id="Path_19205" data-name="Path 19205" d="M349.035,221.681v-3.246l87.636-20.568v3.5l-.7-.014-33.829,7.35L412.81,228.51l.955.139,22.906-23.891v2.734L415.76,228.939l20.911,3.039v4.45Zm49.474-12.169L376.258,223.2l34.81,5.058-10.246-19.264-2.078.445-.086-.008Zm-28.289,6.129,3.159,7.14,1.745.253,18.416-11.522-.352-.867Zm-15.879,3.444.032.935,18.181,2.642-3.021-6.875Z" transform="translate(-285.846 -120.831)" fill="#6e8189"/>
  </g>
  <g id="Group_21736" data-name="Group 21736" transform="translate(0 0)">
    <path id="Path_19206" data-name="Path 19206" d="M606.1,717.774l-2.233-7.6L549.179,523.99V170.261L520.688,101H452.871l-28.5,69.261V523.99L369.678,710.172l-2.233,7.6-32.256,109.8h7.926l1.634-5.551,36.209-34.906,33.556-32.359,38.375-36.988h68.292l38.366,36.988L593.1,787.121l35.505,34.222,1.834,6.235h7.916Zm-12.782-16.536L564.5,669.146l10.122-31.552Zm-20.128-68.52-10.9,33.966-32.882-36.6h43Zm-1.616-5.484H527.321L539.076,573.8h16.812Zm-30-418.313L491.5,192.975l50.073-15.937Zm0,87.271-51.651-39.706,51.651-39.7Zm-.641,4.3-54.154,29.184-54.124-29.165,54.151-41.616Zm.641,3.973V359.2l-50.788-27.368Zm0,59.062v1.046l-54.769,43.449-54.835-43.506v-.985l54.8-29.534Zm-54.8,122.643-54.806-29.537v-.247l54.835-43.507,54.769,43.459v.3Zm54.8-25.213v54.74l-50.787-27.37Zm-58.808,27.37-50.8,27.379V460.944Zm-50.8-36.8V369.369l51.775,41.084Zm57.895-41.074,51.709-41.037v82.063ZM431.973,520.017l54.806-29.537,54.8,29.537v2.138l-10.967,12.212L508.142,518.2h-42.47l-22.315,16.052-11.385-12.678Zm68.2,20.042-10.7-19.007h17.751L528.7,536.5l-3.2,3.563Zm22.761,2.852-13,14.483-8.155-14.483ZM496.9,540.059h-20l10-17.752Zm-30.317-19.007h17.753l-10.7,19.007H448.575l-3.307-3.677Zm5.446,21.859-8.05,14.3-12.848-14.3Zm3.279,0h23.2l9.407,16.725-10.159,11.309h-21.44L466,559.456Zm9.171,42.822-35.762,39.829L437.323,573.8H473.76ZM478.872,573.8H495.2l-8.164,9.094Zm21.431,0h35.856L524.888,625.04l-35.3-39.307Zm54.74-2.851H502.868l19.007-21.164,33.148,21.079Zm-1.245-4.238L523.8,547.635l18.379-20.47ZM539.191,165.956l-49.218-37.025,25.954-19.53ZM510.662,108.6l-23.854,17.943L462.954,108.6Zm-53.01.77,25.991,19.559-49.314,37.092Zm-25.679,63.189,54.835-41.255,54.769,41.207v1.53l-54.769,17.439-54.835-17.458Zm0,4.456,50.13,15.957-50.13,15.966Zm0,34.917,54.835-17.458,54.769,17.439V212l-54.769,42.091-54.835-42.148Zm0,4.808,51.718,39.744-51.718,39.753Zm50.8,115.091-50.8,27.376V304.46ZM431.488,526.727l18.627,20.746-30.269,18.893ZM418.639,570.48l33.415-20.859L471.2,570.946h-52.7Zm-.979,3.317h16.745l11.756,53.438H401.971Zm-16.526,56.289h43.516l-33.3,37.083-11.024-34.345Zm-2.243,7.6,10.254,31.931L379.97,702.1ZM346.908,814.663l10.976-37.349,19.273,8.192Zm33.224-32.028-21.174-8.99,15.851-53.961,34.317,35Zm31.732-30.582-33.6-34.279h69.147Zm-34.023-41.882,109.2-121.6L595.8,709.7l.143.475Zm148.814,7.6h69.157l-33.6,34.279Zm38.29,36.912,33.918-34.594,15.785,53.743-20.717,8.8Zm31.96,30.819,18.826-7.993,10.711,36.466Z" transform="translate(-280.311 -101)" fill="#a0b6c1"/>
    <path id="Path_19207" data-name="Path 19207" d="M716.459,410.709a9.49,9.49,0,0,0,6.33-2.138.5.5,0,0,0,.181-.39.509.509,0,0,0-.181-.4,9.49,9.49,0,0,0-6.33-2.138h0V404.9h0a9.49,9.49,0,0,0,6.33-2.138.519.519,0,0,0,0-.788,9.485,9.485,0,0,0-6.33-2.138h0V385.581h-4.242v14.255h0a9.487,9.487,0,0,0-6.33,2.138.521.521,0,0,0,0,.788,9.492,9.492,0,0,0,6.33,2.138h0v.742h0a9.492,9.492,0,0,0-6.33,2.138.522.522,0,0,0,0,.789,9.493,9.493,0,0,0,6.33,2.138h0v.742h0a9.491,9.491,0,0,0-6.33,2.138.522.522,0,0,0,0,.789,9.492,9.492,0,0,0,6.33,2.138h0v.742h0a9.492,9.492,0,0,0-6.33,2.138.521.521,0,0,0,0,.788,9.491,9.491,0,0,0,6.33,2.138h0v.742h0a9.492,9.492,0,0,0-6.33,2.138.522.522,0,0,0,0,.789,9.5,9.5,0,0,0,6.33,2.138h0v.741h0a9.491,9.491,0,0,0-6.33,2.139.521.521,0,0,0,0,.788,9.492,9.492,0,0,0,6.33,2.138h0v1.667h4.242V433.94h0a9.49,9.49,0,0,0,6.33-2.138.519.519,0,0,0,0-.788,9.489,9.489,0,0,0-6.33-2.139h0v-.741h0a9.494,9.494,0,0,0,6.33-2.138.5.5,0,0,0,.181-.39.509.509,0,0,0-.181-.4,9.49,9.49,0,0,0-6.33-2.138h0v-.742h0a9.489,9.489,0,0,0,6.33-2.138.519.519,0,0,0,0-.788,9.49,9.49,0,0,0-6.33-2.138h0v-.742h0a9.49,9.49,0,0,0,6.33-2.138.52.52,0,0,0,0-.789,9.489,9.489,0,0,0-6.33-2.138h0v-.742Z" transform="translate(-310.043 -123.836)" fill="#769ab2"/>
    <path id="Path_19208" data-name="Path 19208" d="M647.747,239.388v.534a6.842,6.842,0,0,1,4.564,1.542.377.377,0,0,1,0,.568,6.068,6.068,0,0,1-1.569.966,7.712,7.712,0,0,1-2.995.576v.534a6.847,6.847,0,0,1,4.564,1.541.378.378,0,0,1,0,.569,5.9,5.9,0,0,1-1.569.966,7.6,7.6,0,0,1-2.995.576v.534h-3.063v-.534a6.839,6.839,0,0,1-4.563-1.541.375.375,0,0,1,0-.569,6.055,6.055,0,0,1,1.569-.966,7.708,7.708,0,0,1,2.994-.576v-.534a6.839,6.839,0,0,1-4.563-1.542.374.374,0,0,1,0-.568,5.832,5.832,0,0,1,1.569-.967,7.592,7.592,0,0,1,2.994-.576v-.534a6.839,6.839,0,0,1-4.563-1.541.374.374,0,0,1,0-.568,6.027,6.027,0,0,1,1.569-.967,7.708,7.708,0,0,1,2.994-.576V235.2a6.839,6.839,0,0,1-4.563-1.542.374.374,0,0,1,0-.568,5.855,5.855,0,0,1,1.569-.967,7.591,7.591,0,0,1,2.994-.576V221.271h3.063v10.278a6.842,6.842,0,0,1,4.564,1.542.377.377,0,0,1,0,.568,6.089,6.089,0,0,1-1.569.967,7.731,7.731,0,0,1-2.995.575v.534a6.842,6.842,0,0,1,4.564,1.542.377.377,0,0,1,0,.568A6.842,6.842,0,0,1,647.747,239.388Z" transform="translate(-304.77 -110.651)" fill="#769ab2"/>
    <path id="Path_19209" data-name="Path 19209" d="M354.3,239.388v.534a6.841,6.841,0,0,1,4.564,1.542.376.376,0,0,1,0,.568A6.047,6.047,0,0,1,357.3,243a7.713,7.713,0,0,1-2.995.576v.534a6.847,6.847,0,0,1,4.564,1.541.377.377,0,0,1,0,.569,5.876,5.876,0,0,1-1.569.966,7.6,7.6,0,0,1-2.995.576v.534h-3.063v-.534a6.844,6.844,0,0,1-4.564-1.541.377.377,0,0,1,0-.569,6.082,6.082,0,0,1,1.57-.966,7.708,7.708,0,0,1,2.994-.576v-.534a6.844,6.844,0,0,1-4.564-1.542.376.376,0,0,1,0-.568,5.858,5.858,0,0,1,1.57-.967,7.592,7.592,0,0,1,2.994-.576v-.534a6.844,6.844,0,0,1-4.564-1.541.376.376,0,0,1,0-.568,6.054,6.054,0,0,1,1.57-.967,7.708,7.708,0,0,1,2.994-.576V235.2a6.844,6.844,0,0,1-4.564-1.542.376.376,0,0,1,0-.568,5.88,5.88,0,0,1,1.57-.967,7.591,7.591,0,0,1,2.994-.576V221.271H354.3v10.278a6.841,6.841,0,0,1,4.564,1.542.376.376,0,0,1,0,.568,6.069,6.069,0,0,1-1.569.967,7.732,7.732,0,0,1-2.995.575v.534a6.841,6.841,0,0,1,4.564,1.542.376.376,0,0,1,0,.568A6.842,6.842,0,0,1,354.3,239.388Z" transform="translate(-281.222 -110.651)" fill="#769ab2"/>
    <path id="Path_19210" data-name="Path 19210" d="M716.459,581.082a9.485,9.485,0,0,0,6.33-2.138.5.5,0,0,0,.181-.389.508.508,0,0,0-.181-.4,9.491,9.491,0,0,0-6.33-2.137h0v-.743h0a9.5,9.5,0,0,0,6.33-2.137.5.5,0,0,0,.181-.39.512.512,0,0,0-.181-.4,9.5,9.5,0,0,0-6.33-2.137h0V555.954h-4.242v14.255h0a9.5,9.5,0,0,0-6.33,2.137.545.545,0,0,0-.18.4.538.538,0,0,0,.18.39,9.5,9.5,0,0,0,6.33,2.137h0v.743h0a9.493,9.493,0,0,0-6.33,2.137.541.541,0,0,0-.18.4.533.533,0,0,0,.18.389,9.487,9.487,0,0,0,6.33,2.138h0v.743h0a9.5,9.5,0,0,0-6.33,2.138.545.545,0,0,0-.18.4.536.536,0,0,0,.18.389,9.492,9.492,0,0,0,6.33,2.138h0v.743h0a9.493,9.493,0,0,0-6.33,2.137.541.541,0,0,0-.18.4.534.534,0,0,0,.18.389,9.492,9.492,0,0,0,6.33,2.138h0v.743h0a9.5,9.5,0,0,0-6.33,2.137.522.522,0,0,0,0,.789,9.492,9.492,0,0,0,6.33,2.138h0v.742h0a9.487,9.487,0,0,0-6.33,2.138.521.521,0,0,0,0,.788,9.492,9.492,0,0,0,6.33,2.138h0v1.667h4.242v-1.667h0a9.49,9.49,0,0,0,6.33-2.138.52.52,0,0,0,0-.788,9.485,9.485,0,0,0-6.33-2.138h0v-.742h0a9.49,9.49,0,0,0,6.33-2.138.5.5,0,0,0,.181-.389.509.509,0,0,0-.181-.4,9.5,9.5,0,0,0-6.33-2.137h0V592.7h0a9.49,9.49,0,0,0,6.33-2.138.5.5,0,0,0,.181-.389.508.508,0,0,0-.181-.4,9.491,9.491,0,0,0-6.33-2.137h0v-.743h0a9.49,9.49,0,0,0,6.33-2.138.5.5,0,0,0,.181-.389.512.512,0,0,0-.181-.4,9.5,9.5,0,0,0-6.33-2.138h0v-.743Z" transform="translate(-310.043 -137.508)" fill="#769ab2"/>
    <path id="Path_19211" data-name="Path 19211" d="M286.281,410.709a9.492,9.492,0,0,0,6.33-2.138.505.505,0,0,0,.18-.39.51.51,0,0,0-.18-.4,9.491,9.491,0,0,0-6.33-2.138h0V404.9h0a9.491,9.491,0,0,0,6.33-2.138.521.521,0,0,0,0-.788,9.487,9.487,0,0,0-6.33-2.138h0V385.581h-4.242v14.255h0a9.484,9.484,0,0,0-6.329,2.138.519.519,0,0,0,0,.788,9.488,9.488,0,0,0,6.329,2.138h0v.742h0a9.488,9.488,0,0,0-6.329,2.138.52.52,0,0,0,0,.789,9.489,9.489,0,0,0,6.329,2.138h0v.742h0a9.488,9.488,0,0,0-6.329,2.138.52.52,0,0,0,0,.789,9.488,9.488,0,0,0,6.329,2.138h0v.742h0A9.489,9.489,0,0,0,275.7,419.4a.519.519,0,0,0,0,.788,9.488,9.488,0,0,0,6.329,2.138h0v.742h0A9.489,9.489,0,0,0,275.7,425.2a.52.52,0,0,0,0,.789,9.493,9.493,0,0,0,6.329,2.138h0v.741h0a9.488,9.488,0,0,0-6.329,2.139.519.519,0,0,0,0,.788,9.488,9.488,0,0,0,6.329,2.138h0v1.667h4.242V433.94h0a9.491,9.491,0,0,0,6.33-2.138.521.521,0,0,0,0-.788,9.491,9.491,0,0,0-6.33-2.139h0v-.741h0a9.5,9.5,0,0,0,6.33-2.138.505.505,0,0,0,.18-.39.511.511,0,0,0-.18-.4,9.492,9.492,0,0,0-6.33-2.138h0v-.742h0a9.491,9.491,0,0,0,6.33-2.138.521.521,0,0,0,0-.788,9.492,9.492,0,0,0-6.33-2.138h0v-.742h0a9.491,9.491,0,0,0,6.33-2.138.522.522,0,0,0,0-.789,9.491,9.491,0,0,0-6.33-2.138h0v-.742Z" transform="translate(-275.523 -123.836)" fill="#769ab2"/>
    <path id="Path_19212" data-name="Path 19212" d="M286.281,581.082a9.487,9.487,0,0,0,6.33-2.138.5.5,0,0,0,.18-.389.509.509,0,0,0-.18-.4,9.492,9.492,0,0,0-6.33-2.137h0v-.743h0a9.5,9.5,0,0,0,6.33-2.137.505.505,0,0,0,.18-.39.513.513,0,0,0-.18-.4,9.5,9.5,0,0,0-6.33-2.137h0V555.954h-4.242v14.255h0a9.494,9.494,0,0,0-6.329,2.137.546.546,0,0,0-.181.4.539.539,0,0,0,.181.39,9.495,9.495,0,0,0,6.329,2.137h0v.743h0a9.49,9.49,0,0,0-6.329,2.137.541.541,0,0,0-.181.4.534.534,0,0,0,.181.389,9.484,9.484,0,0,0,6.329,2.138h0v.743h0a9.494,9.494,0,0,0-6.329,2.138.546.546,0,0,0-.181.4.537.537,0,0,0,.181.389,9.489,9.489,0,0,0,6.329,2.138h0v.743h0a9.49,9.49,0,0,0-6.329,2.137.541.541,0,0,0-.181.4.535.535,0,0,0,.181.389,9.489,9.489,0,0,0,6.329,2.138h0v.743h0a9.494,9.494,0,0,0-6.329,2.137.52.52,0,0,0,0,.789,9.489,9.489,0,0,0,6.329,2.138h0v.742h0a9.484,9.484,0,0,0-6.329,2.138.519.519,0,0,0,0,.788,9.489,9.489,0,0,0,6.329,2.138h0v1.667h4.242v-1.667h0a9.492,9.492,0,0,0,6.33-2.138.521.521,0,0,0,0-.788,9.486,9.486,0,0,0-6.33-2.138h0v-.742h0a9.492,9.492,0,0,0,6.33-2.138.5.5,0,0,0,.18-.389.511.511,0,0,0-.18-.4,9.5,9.5,0,0,0-6.33-2.137h0V592.7h0a9.492,9.492,0,0,0,6.33-2.138.5.5,0,0,0,.18-.389.509.509,0,0,0-.18-.4,9.492,9.492,0,0,0-6.33-2.137h0v-.743h0a9.492,9.492,0,0,0,6.33-2.138.5.5,0,0,0,.18-.389.513.513,0,0,0-.18-.4,9.5,9.5,0,0,0-6.33-2.138h0v-.743Z" transform="translate(-275.523 -137.508)" fill="#769ab2"/>
    <path id="Path_19213" data-name="Path 19213" d="M541.884,484h-119.1l-142.97,60.528v9.588H684.855v-9.588ZM642.6,546.513l-23.175-23.8,27.517,11.668-3.067,12.131Zm-41.233,0L577,504.722l31.647,13.42-7.174,28.371Zm-92.089,0L485.95,491.6H537.46L510.9,546.513Zm31.248-54.7,16.4,54.7H514.068Zm57.56,54.7H562l10.914-43.164Zm13.21-27.246,1.429.606,25.942,26.64H604.407ZM570.346,501.9l-10.9,43.105L543.436,491.6h2.62ZM453.769,546.513,427.209,491.6h51.514l-23.333,54.911Zm-90.569,0-7.174-28.371,31.648-13.42L363.3,546.513Zm-42.405,0-3.067-12.131,27.517-11.668-23.176,23.8Zm31.149-26.64,1.43-.606,6.89,27.246H326Zm39.811-16.524,10.915,43.164H366.582ZM450.6,546.513H407.744l16.4-54.7ZM421.236,491.6l-16.011,53.406-10.9-43.105,24.29-10.3ZM315.075,535.507l2.783,11.006H289.121Zm143.414,11.006L481.821,491.6h1.029l23.332,54.911H458.488Zm188.325,0,2.783-11.006,25.954,11.006Z" transform="translate(-275.868 -131.734)" fill="#c3d9e2"/>
    <path id="Path_19214" data-name="Path 19214" d="M541.884,313.855h-119.1l-142.97,60.528v9.588H684.855v-9.588ZM642.6,376.369l-23.175-23.8,27.517,11.669-3.067,12.13Zm-41.233,0L577,334.579,608.646,348l-7.174,28.371Zm-92.089,0L485.95,321.458H537.46L510.9,376.369Zm31.248-54.7,16.4,54.7H514.068Zm57.56,54.7H562l10.914-43.163Zm13.21-27.246,1.429.606,25.942,26.64H604.407Zm-40.952-17.365-10.9,43.105-16.011-53.406h2.62ZM453.769,376.369l-26.561-54.911h51.514l-23.333,54.911Zm-90.569,0L356.026,348l31.648-13.419L363.3,376.369Zm-42.405,0-3.067-12.13,27.517-11.669-23.176,23.8Zm31.149-26.64,1.43-.606,6.89,27.246H326Zm39.811-16.523,10.915,43.163H366.582ZM450.6,376.369H407.744l16.4-54.7Zm-29.366-54.911-16.011,53.406-10.9-43.105,24.29-10.3ZM315.075,365.363l2.783,11.006H289.121Zm143.414,11.006,23.332-54.911h1.029l23.332,54.911H458.488Zm188.325,0,2.783-11.006,25.954,11.006Z" transform="translate(-275.868 -118.081)" fill="#c3d9e2"/>
    <path id="Path_19215" data-name="Path 19215" d="M547.4,177.813H428.29L348.519,213.7v6.776H627.17V213.7Zm52.511,28.246-2.946,8.713h-1.331l-16.713-18.2,20.985,9.481Zm-49.926-22.544,21.392,9.656,0,0-7.336,21.6h-.324l-15.243-31.257Zm-8.017,0-26.277,31.257h-.76l-23.512-31.257Zm-57.691,0-23.512,31.257H460l-26.276-31.257Zm-58.57,0h1.511l-15.243,31.257h-.324l-7.336-21.6Zm-28.928,13.058-16.717,18.2h-1.33l-2.946-8.715Zm-40.3,18.2,17.563-7.926,2.689,7.926Zm26.182,0,18.523-20.185,1.4-.627,7.071,20.812Zm31.429,0,15.243-31.257h1.919l26.277,31.257Zm49.057,0,23.5-31.257h2.409l23.5,31.257Zm55.03,0,26.276-31.257h1.92l15.243,31.257Zm47.878,0,7.07-20.81,1.393.625.008,0,18.519,20.181Zm32.92,0,2.689-7.924,17.559,7.924Z" transform="translate(-281.381 -107.164)" fill="#c3d9e2"/>
  </g>
  <path id="Path_19216" data-name="Path 19216" d="M660.265,879.482l5.87,3.244,2.614,8.87H650.323l-3.485-4.963L648,880.589l1.476-.768,3.593,1.955,7.286-.4Z" transform="translate(-305.319 -163.47)" fill="#d3d3d3"/>
  <path id="Path_19217" data-name="Path 19217" d="M652.54,883.208l-1.913,8.671h18.426l-2.614-8.87Z" transform="translate(-305.624 -163.753)" fill="#f4f4f4"/>
  <path id="Path_19218" data-name="Path 19218" d="M337.91,879.482l-5.871,3.244-2.613,8.87h18.426l3.484-4.963-1.161-6.045-1.476-.768-3.593,1.955-7.286-.4Z" transform="translate(-279.849 -163.47)" fill="#d3d3d3"/>
  <path id="Path_19219" data-name="Path 19219" d="M345.938,883.208l1.914,8.671H329.426l2.613-8.87Z" transform="translate(-279.849 -163.753)" fill="#f4f4f4"/>
  <path id="Path_19220" data-name="Path 19220" d="M335.189,895.78c.9.525,21.388,1.792,46.519,2.637s135.964.211,170.831,0,85.82-2.637,85.82-2.637-32-.953-51.164-1.27-194.347-.791-213.829,0S335.189,895.78,335.189,895.78Z" transform="translate(-280.311 -164.641)" fill="#e5eaea"/>
  <path id="Path_19221" data-name="Path 19221" d="M326.757,901.275c3.906,3.907,34.634,12.249,75.816,12.249H597.422c18.873,0,24.786-5.279,29.222-8.87s-1.9-6.547-8.026-6.547-77.71,3.168-141.176,3.168-122.175.634-127.877,0S326.757,901.275,326.757,901.275Z" transform="translate(-279.634 -164.965)" fill="#b9baba"/>
</svg>
