<svg xmlns="http://www.w3.org/2000/svg" width="74.84" height="87.035" viewBox="0 0 74.84 87.035">
  <g id="g669" transform="translate(-8.432 682.29)">
    <g id="g671" transform="translate(45.852 -671.757)">
      <path id="path673" d="M0-63.635v-9.338" transform="translate(0 72.973)" fill="none" stroke="#f57c00" stroke-linecap="round" stroke-linejoin="round" stroke-width="2"/>
    </g>
    <g id="g675" transform="translate(9.432 -681.29)">
      <g id="Group_25317" data-name="Group 25317" transform="translate(0 0)">
        <g id="g683" transform="translate(65.273 57.416)">
          <path id="path685" d="M-17.976-1.569l.742-.155a3.367,3.367,0,0,1,4,2.491,3.213,3.213,0,0,1,.078.691,3.285,3.285,0,0,1-2.655,3.179L-20.72,5.665" transform="translate(20.72 1.8)" fill="none" stroke="#f57c00" stroke-linecap="round" stroke-linejoin="round" stroke-width="2"/>
        </g>
        <g id="g687" transform="translate(0 57.416)">
          <path id="path689" d="M-31.6-1.569l-.742-.155a3.367,3.367,0,0,0-4,2.491,3.213,3.213,0,0,0-.078.691,3.285,3.285,0,0,0,2.655,3.179l4.912,1.029" transform="translate(36.427 1.8)" fill="none" stroke="#f57c00" stroke-linecap="round" stroke-linejoin="round" stroke-width="2"/>
        </g>
        <g id="g691" transform="translate(26.636 80.233)">
          <path id="path693" d="M0,0A33.5,33.5,0,0,0,9.784,1.449,33.5,33.5,0,0,0,19.569,0" fill="none" stroke="#f57c00" stroke-linecap="round" stroke-linejoin="round" stroke-width="2"/>
        </g>
        <g id="g695" transform="translate(3.923 18.871)">
          <path id="path697" d="M-24.213-313.2a30.415,30.415,0,0,1-3.7-14.556c0-17.344,14.549-31.4,32.5-31.4s32.5,14.061,32.5,31.4a30.415,30.415,0,0,1-3.7,14.556" transform="translate(27.908 359.159)" fill="none" stroke="#f57c00" stroke-linecap="round" stroke-linejoin="round" stroke-width="2"/>
        </g>
        <g id="g699" transform="translate(29.588 19.571)">
          <path id="path701" d="M0,0C.648,2.522,1.31,5.485,1.905,8.98c.974,5.716,1.382,10.564,4.2,11.441,2.745.854,4.976-2.928,8.783-2.214,3.194.6,3.642,3.641,6.492,5.905,2.614,2.076,6.785,3.131,11.17,2.779" fill="none" stroke="#f57c00" stroke-linecap="round" stroke-linejoin="round" stroke-width="2"/>
        </g>
        <g id="g703" transform="translate(10.194 31.737)">
          <path id="path705" d="M0,0C3.409,1.974,6.2,4.933,7.223,8.111c1.239,3.861-.754,6.141.731,13.631a24.861,24.861,0,0,0,1.115,4.032" fill="none" stroke="#f57c00" stroke-linecap="round" stroke-linejoin="round" stroke-width="2"/>
        </g>
        <g id="g707" transform="translate(28.712 57.366)">
          <path id="path709" d="M0-140.116a20.6,20.6,0,0,0,8.037-8.83c2.57-5.656,1.128-10.022,4.08-11.389,3.743-1.734,9.791,3.557,12.4,5.854" transform="translate(0 160.678)" fill="none" stroke="#f57c00" stroke-linecap="round" stroke-linejoin="round" stroke-width="2"/>
        </g>
        <g id="g711" transform="translate(56.984 61.092)">
          <path id="path713" d="M-5.929-5.959h0a3.166,3.166,0,0,1,4.369,0L3.683-.892a2.915,2.915,0,0,1,0,4.223h0a3.166,3.166,0,0,1-4.369,0L-5.929-1.737A2.916,2.916,0,0,1-5.929-5.959Z" transform="translate(6.834 6.834)" fill="none" stroke="#f57c00" stroke-linecap="round" stroke-linejoin="round" stroke-width="2"/>
        </g>
        <g id="g715" transform="translate(50.742 63.505)">
          <path id="path717" d="M-5.93-5.959h0a3.166,3.166,0,0,1,4.369,0L7.428,2.727a2.915,2.915,0,0,1,0,4.223,3.166,3.166,0,0,1-4.369,0L-5.93-1.737A2.915,2.915,0,0,1-5.93-5.959Z" transform="translate(6.835 6.834)" fill="none" stroke="#f57c00" stroke-linecap="round" stroke-linejoin="round" stroke-width="2"/>
        </g>
        <g id="g719" transform="translate(46.373 67.727)">
          <path id="path721" d="M-5.929-5.959h0a3.166,3.166,0,0,1,4.369,0L7.429,2.727a2.916,2.916,0,0,1,0,4.223,3.166,3.166,0,0,1-4.369,0L-5.929-1.737A2.916,2.916,0,0,1-5.929-5.959Z" transform="translate(6.834 6.834)" fill="none" stroke="#f57c00" stroke-linecap="round" stroke-linejoin="round" stroke-width="2"/>
        </g>
        <g id="g723" transform="translate(43.876 73.76)">
          <path id="path725" d="M-5.929-5.959h0a3.166,3.166,0,0,1,4.369,0L3.683-.892a2.915,2.915,0,0,1,0,4.223,3.166,3.166,0,0,1-4.369,0L-5.929-1.737A2.916,2.916,0,0,1-5.929-5.959Z" transform="translate(6.834 6.834)" fill="none" stroke="#f57c00" stroke-linecap="round" stroke-linejoin="round" stroke-width="2"/>
        </g>
        <g id="g727" transform="translate(4.434 61.092)">
          <path id="path729" d="M-68.913-5.959h0a3.166,3.166,0,0,0-4.369,0L-78.526-.892a2.915,2.915,0,0,0,0,4.223h0a3.166,3.166,0,0,0,4.369,0l5.243-5.067A2.916,2.916,0,0,0-68.913-5.959Z" transform="translate(79.431 6.834)" fill="none" stroke="#f57c00" stroke-linecap="round" stroke-linejoin="round" stroke-width="2"/>
        </g>
        <g id="g731" transform="translate(6.93 63.505)">
          <path id="path733" d="M-93.451-5.959h0a3.166,3.166,0,0,0-4.369,0l-8.988,8.687a2.915,2.915,0,0,0,0,4.223,3.166,3.166,0,0,0,4.369,0l8.988-8.686A2.915,2.915,0,0,0-93.451-5.959Z" transform="translate(107.714 6.834)" fill="none" stroke="#f57c00" stroke-linecap="round" stroke-linejoin="round" stroke-width="2"/>
        </g>
        <g id="g735" transform="translate(11.3 67.727)">
          <path id="path737" d="M-93.451-5.959h0a3.166,3.166,0,0,0-4.369,0l-8.988,8.687a2.916,2.916,0,0,0,0,4.223,3.166,3.166,0,0,0,4.369,0l8.988-8.687A2.916,2.916,0,0,0-93.451-5.959Z" transform="translate(107.714 6.834)" fill="none" stroke="#f57c00" stroke-linecap="round" stroke-linejoin="round" stroke-width="2"/>
        </g>
        <g id="g739" transform="translate(17.542 73.76)">
          <path id="path741" d="M-68.913-5.959h0a3.166,3.166,0,0,0-4.369,0L-78.526-.892a2.915,2.915,0,0,0,0,4.223,3.166,3.166,0,0,0,4.369,0l5.243-5.067A2.916,2.916,0,0,0-68.913-5.959Z" transform="translate(79.431 6.834)" fill="none" stroke="#f57c00" stroke-linecap="round" stroke-linejoin="round" stroke-width="2"/>
        </g>
        <g id="g743" transform="translate(25.583 3.725)">
          <path id="path745" d="M-50.14-71.371h3.185v-3.078a7.527,7.527,0,0,0-7.652-7.4h-2.479a.7.7,0,0,0-.706.682v2.4A7.527,7.527,0,0,0-50.14-71.371Z" transform="translate(57.792 81.844)" fill="none" stroke="#f57c00" stroke-linecap="round" stroke-linejoin="round" stroke-width="2"/>
        </g>
        <g id="g747" transform="translate(36.42)">
          <path id="path749" d="M-20.868-71.371h-3.185v-3.078a7.527,7.527,0,0,1,7.652-7.4h2.479a.7.7,0,0,1,.706.682v2.4A7.527,7.527,0,0,1-20.868-71.371Z" transform="translate(24.053 81.844)" fill="none" stroke="#f57c00" stroke-linecap="round" stroke-linejoin="round" stroke-width="2"/>
        </g>
        <g id="g751" transform="translate(36.42 6.585)">
          <path id="path753" d="M0-26.5l4.544-3.888" transform="translate(0 30.385)" fill="none" stroke="#f57c00" stroke-linecap="round" stroke-linejoin="round" stroke-width="2"/>
        </g>
        <g id="g755" transform="translate(31.86 9.791)">
          <path id="path757" d="M-29.877-30.03l-4.56-4.407" transform="translate(34.437 34.437)" fill="none" stroke="#f57c00" stroke-linecap="round" stroke-linejoin="round" stroke-width="2"/>
        </g>
      </g>
    </g>
  </g>
</svg>
