<svg xmlns="http://www.w3.org/2000/svg" width="81" height="81" viewBox="0 0 81 81">
  <g id="Group_25319" data-name="Group 25319" transform="translate(-540.735 -307)">
    <g id="Group_25299" data-name="Group 25299" transform="translate(569.418 324.288)">
      <path id="Path_24391" data-name="Path 24391" d="M655.062,416.243l2.612,1.383a1.882,1.882,0,0,0,2.557-.806h0a1.883,1.883,0,0,0-.713-2.474l-4.456-2.655" transform="translate(-638.204 -387.228)" fill="none" stroke="#f57c00" stroke-linejoin="round" stroke-width="2"/>
      <path id="Path_24392" data-name="Path 24392" d="M623.171,423.886h-5.3a5.7,5.7,0,0,1-5.7-5.7v-8.565" transform="translate(-612.167 -385.971)" fill="none" stroke="#f57c00" stroke-linejoin="round" stroke-width="2"/>
      <line id="Line_1215" data-name="Line 1215" x2="7.176" transform="translate(0 30.167)" fill="none" stroke="#f57c00" stroke-linecap="round" stroke-linejoin="round" stroke-width="2"/>
      <path id="Path_24393" data-name="Path 24393" d="M623.171,349.445a5.788,5.788,0,0,1,5.657,5.818v2.746a4.239,4.239,0,0,1-.924,2.643l-1.532,1.921a4.191,4.191,0,0,1-3.277,1.578h0a4.191,4.191,0,0,1-3.277-1.578l-1.532-1.921a4.237,4.237,0,0,1-.925-2.643v-2.832A5.733,5.733,0,0,1,623.171,349.445Z" transform="translate(-615.32 -349.445)" fill="none" stroke="#f57c00" stroke-linecap="round" stroke-linejoin="round" stroke-width="2"/>
      <g id="Group_25297" data-name="Group 25297" transform="translate(6.771 9.659)">
        <path id="Path_24394" data-name="Path 24394" d="M631.4,374.438a1.419,1.419,0,0,0-2.007,0" transform="translate(-629.396 -374.023)" fill="none" stroke="#f57c00" stroke-linecap="round" stroke-linejoin="round" stroke-width="2"/>
      </g>
      <path id="Path_24395" data-name="Path 24395" d="M642.744,406.522a2.421,2.421,0,0,1,2.421-2.421h0a2.42,2.42,0,0,1,2.421,2.421v10.6h0a1.706,1.706,0,0,1,1.706,1.706h0a1.706,1.706,0,0,1-1.706,1.706h-4.841" transform="translate(-630.727 -382.62)" fill="none" stroke="#f57c00" stroke-linecap="round" stroke-linejoin="round" stroke-width="2"/>
      <path id="Path_24396" data-name="Path 24396" d="M630.425,407.348v-.826a2.421,2.421,0,0,1,2.421-2.421h0a2.421,2.421,0,0,1,2.421,2.421v10.6h0a1.7,1.7,0,0,1,1.7,1.7v.005a1.7,1.7,0,0,1-1.7,1.7H632.6a2.178,2.178,0,0,1-2.178-2.178v-6.217" transform="translate(-623.249 -382.62)" fill="none" stroke="#f57c00" stroke-linecap="round" stroke-linejoin="round" stroke-width="2"/>
      <path id="Path_24397" data-name="Path 24397" d="M616.887,383.574l-1.186.266a4.527,4.527,0,0,0-3.534,4.416v5.554a3.2,3.2,0,0,0,1.791,2.876l7.311,3.873a1.882,1.882,0,0,0,2.557-.807h0a1.883,1.883,0,0,0-.712-2.474l-7.377-4.4.019-1.657" transform="translate(-612.167 -370.161)" fill="none" stroke="#f57c00" stroke-linecap="round" stroke-linejoin="round" stroke-width="2"/>
      <path id="Path_24398" data-name="Path 24398" d="M639.721,383.574l1.186.266a4.526,4.526,0,0,1,3.534,4.416v3.6" transform="translate(-628.892 -370.161)" fill="none" stroke="#f57c00" stroke-linejoin="round" stroke-width="2"/>
      <path id="Path_24399" data-name="Path 24399" d="M677.53,439.2a4.783,4.783,0,0,0,2.758-4.333h-8.541a4.782,4.782,0,0,0,2.758,4.333Z" transform="translate(-648.331 -401.297)" fill="none" stroke="#f57c00" stroke-linecap="round" stroke-linejoin="round" stroke-width="2"/>
      <g id="Group_25298" data-name="Group 25298" transform="translate(4.159 17.661)">
        <path id="Path_24400" data-name="Path 24400" d="M622.75,394.383h.742a1.1,1.1,0,0,1,.847.4" transform="translate(-622.75 -394.383)" fill="none" stroke="#f57c00" stroke-linecap="round" stroke-linejoin="round" stroke-width="2"/>
        <path id="Path_24401" data-name="Path 24401" d="M638.613,394.383h-.741a1.1,1.1,0,0,0-.847.4" transform="translate(-631.415 -394.383)" fill="none" stroke="#f57c00" stroke-linecap="round" stroke-linejoin="round" stroke-width="2"/>
      </g>
    </g>
    <circle id="Ellipse_85" data-name="Ellipse 85" cx="39.5" cy="39.5" r="39.5" transform="translate(541.735 308)" fill="none" stroke="#f57c00" stroke-linecap="round" stroke-linejoin="round" stroke-width="2"/>
    <line id="Line_1216" data-name="Line 1216" x1="11.572" y2="11.572" transform="translate(553.308 363.855)" fill="none" stroke="#f57c00" stroke-linecap="round" stroke-linejoin="round" stroke-width="2"/>
    <line id="Line_1217" data-name="Line 1217" x1="16.672" y2="16.671" transform="translate(592.495 319.569)" fill="none" stroke="#f57c00" stroke-linecap="round" stroke-linejoin="round" stroke-width="2"/>
  </g>
</svg>
