<svg xmlns="http://www.w3.org/2000/svg" width="42.241" height="42.241" viewBox="0 0 42.241 42.241">
  <g id="Global" transform="translate(1 1)">
    <path id="Path_7463" data-name="Path 7463" d="M261.009,296.517A5.024,5.024,0,0,0,256,301.526v2.588h10.019v-2.588a10.087,10.087,0,0,0,10.1-10.019V286.5a5.024,5.024,0,0,0-5.009,5.009,5.1,5.1,0,0,1-5.093,5.009Z" transform="translate(-235.879 -263.873)" fill="none" stroke="#b3d4e6" stroke-linecap="round" stroke-linejoin="round" stroke-width="2"/>
    <path id="Path_7464" data-name="Path 7464" d="M26.111,296.517a5.024,5.024,0,0,1,5.009,5.009v2.588H21.1v-2.588A10.087,10.087,0,0,1,11,291.507V286.5a5.024,5.024,0,0,1,5.009,5.009,5.1,5.1,0,0,0,5.093,5.009Z" transform="translate(-11 -263.873)" fill="none" stroke="#b3d4e6" stroke-linecap="round" stroke-linejoin="round" stroke-width="2"/>
    <path id="Path_7465" data-name="Path 7465" d="M120.468,28.616h1.112a2.5,2.5,0,0,0,2.5-2.5h5.009a2.5,2.5,0,0,0,0-5.009,2.5,2.5,0,1,1,0-5.009,2.5,2.5,0,0,0,2.5-2.5V11" transform="translate(-111.478 -11)" fill="none" stroke="#b3d4e6" stroke-linecap="round" stroke-linejoin="round" stroke-width="2"/>
    <path id="Path_7466" data-name="Path 7466" d="M324.259,134.008H319.5a2.5,2.5,0,1,0,0,5.009,2.5,2.5,0,0,0,2.5,2.5h1.463" transform="translate(-291.866 -123.906)" fill="none" stroke="#b3d4e6" stroke-linecap="round" stroke-linejoin="round" stroke-width="2"/>
    <path id="Path_7467" data-name="Path 7467" d="M109.2,34.1a12.523,12.523,0,1,1,13.677,0" transform="translate(-95.914 -11)" fill="none" stroke="#b3d4e6" stroke-linecap="round" stroke-linejoin="round" stroke-width="2"/>
    <circle id="Ellipse_18" data-name="Ellipse 18" cx="3.757" cy="3.757" r="3.757" transform="translate(21.373 22.625)" fill="none" stroke="#b3d4e6" stroke-linecap="round" stroke-linejoin="round" stroke-width="2"/>
    <circle id="Ellipse_19" data-name="Ellipse 19" cx="3.757" cy="3.757" r="3.757" transform="translate(11.354 22.625)" fill="none" stroke="#b3d4e6" stroke-linecap="round" stroke-linejoin="round" stroke-width="2"/>
  </g>
</svg>
