<svg id="Layer_1" enable-background="new 0 0 512 512" viewBox="0 0 512 512" xmlns="http://www.w3.org/2000/svg" xmlns:xlink="http://www.w3.org/1999/xlink"><path d="m256 123.22c-73.22 0-132.78 59.57-132.78 132.78s59.56 132.78 132.78 132.78 132.78-59.57 132.78-132.78-59.56-132.78-132.78-132.78zm6 77.7c15.77-.38 31.15-2.25 45.45-5.45 4.79 16.27 7.75 34.86 8.26 54.52h-53.71zm0-12v-53.07c16.79 3.56 31.78 21.87 41.64 48.2-13.09 2.84-27.17 4.51-41.64 4.87zm-12-53.07v53.07c-14.47-.36-28.55-2.03-41.64-4.87 9.86-26.33 24.85-44.63 41.64-48.2zm0 65.07v49.08h-53.71c.5-19.66 3.47-38.25 8.26-54.52 14.3 3.2 29.68 5.06 45.45 5.44zm-65.71 49.08h-48.92c1.3-26.34 11.07-50.49 26.65-69.77 9.15 4.9 19.55 9.02 30.83 12.27-5.13 17.54-8.07 37.12-8.56 57.5zm0 12c.48 20.38 3.43 39.96 8.55 57.5-11.28 3.24-21.68 7.37-30.83 12.27-15.58-19.28-25.36-43.43-26.65-69.77zm12 0h53.71v49.07c-15.77.38-31.15 2.25-45.45 5.45-4.79-16.27-7.75-34.86-8.26-54.52zm53.71 61.08v53.07c-16.79-3.56-31.78-21.87-41.64-48.2 13.09-2.84 27.17-4.51 41.64-4.87zm12 53.07v-53.07c14.47.36 28.55 2.03 41.64 4.87-9.86 26.33-24.85 44.63-41.64 48.2zm0-65.08v-49.07h53.71c-.5 19.66-3.47 38.25-8.26 54.52-14.3-3.2-29.68-5.07-45.45-5.45zm65.71-49.07h48.92c-1.3 26.34-11.07 50.49-26.65 69.77-9.15-4.9-19.55-9.02-30.83-12.27 5.13-17.54 8.07-37.12 8.56-57.5zm0-12c-.48-20.38-3.43-39.96-8.55-57.5 11.28-3.24 21.68-7.37 30.83-12.27 15.58 19.28 25.36 43.43 26.65 69.77zm14.01-79c-7.9 3.99-16.76 7.38-26.31 10.1-2.26-6.15-4.79-12-7.61-17.45-4.74-9.14-10.09-16.84-15.88-22.99 19.05 5.96 36.08 16.51 49.8 30.34zm-121.64-30.33c-5.79 6.15-11.14 13.84-15.88 22.99-2.83 5.45-5.36 11.3-7.61 17.45-9.55-2.72-18.41-6.11-26.31-10.1 13.72-13.84 30.75-24.39 49.8-30.34zm-49.8 200.33c7.9-3.99 16.76-7.38 26.31-10.1 2.26 6.15 4.79 12 7.61 17.45 4.74 9.14 10.09 16.84 15.88 22.99-19.05-5.96-36.08-16.51-49.8-30.34zm121.64 30.33c5.79-6.15 11.14-13.84 15.88-22.99 2.83-5.45 5.36-11.3 7.61-17.45 9.55 2.72 18.41 6.11 26.31 10.1-13.72 13.84-30.75 24.39-49.8 30.34zm-70.85-315.4c-2.34-2.34-2.34-6.14 0-8.48l30.68-30.68c1.13-1.13 2.65-1.76 4.24-1.76s3.12.63 4.24 1.76l30.68 30.68c2.34 2.34 2.34 6.14 0 8.48-1.17 1.17-2.71 1.76-4.24 1.76s-3.07-.59-4.24-1.76l-20.43-20.44v61.61c0 3.31-2.69 6-6 6s-6-2.69-6-6v-61.61l-20.44 20.44c-2.34 2.34-6.14 2.34-8.49 0zm143.05 91.95c-2.34-2.34-2.34-6.14 0-8.48l43.56-43.56h-28.91c-3.31 0-6-2.69-6-6s2.69-6 6-6h43.39c3.31 0 6 2.69 6 6v43.39c0 3.31-2.69 6-6 6s-6-2.69-6-6v-28.91l-43.56 43.56c-1.17 1.17-2.71 1.76-4.24 1.76s-3.07-.59-4.24-1.76zm131.12 112.36-30.68 30.68c-1.17 1.17-2.71 1.76-4.24 1.76s-3.07-.59-4.24-1.76c-2.34-2.34-2.34-6.14 0-8.48l20.43-20.44h-61.61c-3.31 0-6-2.69-6-6s2.69-6 6-6h61.61l-20.44-20.44c-2.34-2.34-2.34-6.14 0-8.48s6.14-2.34 8.49 0l30.68 30.68c2.35 2.34 2.35 6.14 0 8.48zm-67.07 118.54v43.39c0 3.31-2.69 6-6 6h-43.39c-3.31 0-6-2.69-6-6s2.69-6 6-6h28.91l-43.56-43.56c-2.34-2.34-2.34-6.14 0-8.48s6.14-2.34 8.49 0l43.56 43.56v-28.91c0-3.31 2.69-6 6-6s5.99 2.68 5.99 6zm-137.24 77.29c2.34 2.34 2.34 6.14 0 8.48l-30.68 30.68c-1.13 1.13-2.65 1.76-4.24 1.76s-3.12-.63-4.24-1.76l-30.68-30.68c-2.34-2.34-2.34-6.14 0-8.48s6.14-2.34 8.49 0l20.42 20.44v-61.61c0-3.31 2.69-6 6-6s6 2.69 6 6v61.61l20.44-20.44c2.34-2.34 6.14-2.34 8.49 0zm-143.05-91.95c2.34 2.34 2.34 6.14 0 8.48l-43.56 43.56h28.91c3.31 0 6 2.69 6 6s-2.69 6-6 6h-43.4c-3.31 0-6-2.69-6-6v-43.39c0-3.31 2.69-6 6-6s6 2.69 6 6v28.91l43.56-43.56c2.35-2.34 6.14-2.34 8.49 0zm-91.95-81.68c2.34 2.34 2.34 6.14 0 8.48-1.17 1.17-2.71 1.76-4.24 1.76-1.54 0-3.07-.59-4.24-1.76l-30.68-30.68c-2.34-2.34-2.34-6.14 0-8.48l30.68-30.68c2.34-2.34 6.14-2.34 8.49 0 2.34 2.34 2.34 6.14 0 8.48l-20.45 20.44h61.61c3.31 0 6 2.69 6 6s-2.69 6-6 6h-61.61zm27.9-149.22v-43.39c0-3.31 2.69-6 6-6h43.39c3.31 0 6 2.69 6 6s-2.69 6-6 6h-28.91l43.56 43.56c2.34 2.34 2.34 6.14 0 8.48-1.17 1.17-2.71 1.76-4.24 1.76s-3.07-.59-4.24-1.76l-43.56-43.56v28.91c0 3.31-2.69 6-6 6s-6-2.68-6-6z" fill="#f57c00" stroke="#f57c00" stroke-width=".1" /></svg>