<svg xmlns="http://www.w3.org/2000/svg" width="68.739" height="81.033" viewBox="0 0 68.739 81.033">
  <g id="Group_25320" data-name="Group 25320" transform="translate(596.311 80.617)">
    <g id="Group_25302" data-name="Group 25302" transform="translate(-595.311 -34.753)">
      <g id="Group_25301" data-name="Group 25301" transform="translate(0 0)">
        <path id="Path_24402" data-name="Path 24402" d="M-363.36,206.573l1.763-1.359a6.447,6.447,0,0,1,6.576-.717c.61.289,1.791,1.324,1.752,2.338" transform="translate(400.23 -203.69)" fill="rgba(0,0,0,0)" stroke="#f57c00" stroke-linejoin="round" stroke-width="2"/>
        <path id="Path_24403" data-name="Path 24403" d="M-366.58,206.767a3.226,3.226,0,0,0-1.752-2.27,6.45,6.45,0,0,0-6.577.717l-16.681,12.856" transform="translate(423.973 -203.69)" fill="rgba(0,0,0,0)" stroke="#f57c00" stroke-linejoin="round" stroke-width="2"/>
        <path id="Path_24404" data-name="Path 24404" d="M-570.973,218.712l11.892-11.432a2.153,2.153,0,0,0,.151-2.947h0a5.13,5.13,0,0,0-7.129-.665c-2.442,1.961-5.927,4.015-12.125,4.015-8.6,0-10.675,9.7-10.675,9.7h0a6.452,6.452,0,0,0-6.452,6.452V228.7a7.977,7.977,0,0,0,9.294,7.868l10.69-1.789,8.657-2.222" transform="translate(595.311 -202.529)" fill="rgba(0,0,0,0)" stroke="#f57c00" stroke-linejoin="round" stroke-width="2"/>
        <path id="Path_24405" data-name="Path 24405" d="M-419.96,234.959l10.081-2.588a11.8,11.8,0,0,0,5.679-3.365l16.439-17.562a2.432,2.432,0,0,0-.74-3.863,6.348,6.348,0,0,0-6.577.716l-15.943,12.288a3.638,3.638,0,0,1-2.531.743l-13.542-1.161" transform="translate(453.833 -206.27)" fill="rgba(0,0,0,0)" stroke="#f57c00" stroke-linejoin="round" stroke-width="2"/>
      </g>
    </g>
    <g id="Group_25307" data-name="Group 25307" transform="translate(-589.775 -79.599)">
      <g id="Group_25305" data-name="Group 25305">
        <g id="Group_25304" data-name="Group 25304">
          <g id="Group_25303" data-name="Group 25303">
            <path id="Path_24406" data-name="Path 24406" d="M-321.162-66.885a11.68,11.68,0,0,0-8.518-10.054" transform="translate(366.367 77.362)" fill="rgba(0,0,0,0)" stroke="#f57c00" stroke-linejoin="round" stroke-width="2"/>
            <path id="Path_24407" data-name="Path 24407" d="M-497.48,88.662a49.493,49.493,0,0,0,11.974,8.658,1.585,1.585,0,0,0,1.4,0A48.732,48.732,0,0,0-466.385,81.8" transform="translate(507.495 -56.145)" fill="rgba(0,0,0,0)" stroke="#f57c00" stroke-linejoin="round" stroke-width="2"/>
            <path id="Path_24408" data-name="Path 24408" d="M-529.2-79.4a12.666,12.666,0,0,0-8.593,6c-6.4-10.514-23.237-7.427-22.676,7.446.2,5.339,2.8,10.458,6.361,14.881" transform="translate(560.484 79.599)" fill="rgba(0,0,0,0)" stroke="#f57c00" stroke-linejoin="round" stroke-width="2"/>
          </g>
        </g>
        <path id="Path_24409" data-name="Path 24409" d="M-506.621,3.877h6.841l2.211-8.9,4.76,17.507,4.436-14.7,1.668,6.1h6.428" transform="translate(515.183 16.878)" fill="rgba(0,0,0,0)" stroke="#f57c00" stroke-linejoin="round" stroke-width="2"/>
      </g>
      <g id="Group_25306" data-name="Group 25306" transform="translate(35.099 10.476)">
        <path id="Path_24410" data-name="Path 24410" d="M-320.381-7.683h-4.743v-4.744a1.267,1.267,0,0,0-1.267-1.267h-6a1.267,1.267,0,0,0-1.267,1.267v4.744H-338.4a1.267,1.267,0,0,0-1.267,1.267v6A1.267,1.267,0,0,0-338.4.854h4.744V5.6a1.267,1.267,0,0,0,1.267,1.267h6A1.267,1.267,0,0,0-325.124,5.6V.854h4.743a1.267,1.267,0,0,0,1.267-1.267v-6A1.267,1.267,0,0,0-320.381-7.683Z" transform="translate(339.672 13.694)" fill="rgba(0,0,0,0)" stroke="#f57c00" stroke-linejoin="round" stroke-width="2"/>
      </g>
    </g>
  </g>
</svg>
