<svg xmlns="http://www.w3.org/2000/svg" xmlns:xlink="http://www.w3.org/1999/xlink" width="123.109" height="123.109" viewBox="0 0 123.109 123.109">
  <defs>
    <clipPath id="clip-path">
      <path id="path1101" d="M0-682.665H123.109v123.109H0Z" transform="translate(0 682.665)"/>
    </clipPath>
  </defs>
  <g id="g1095" transform="translate(0 682.665)">
    <g id="g1097" transform="translate(0 -682.665)">
      <g id="g1099" clip-path="url(#clip-path)">
        <g id="g1105" transform="translate(1.803 15.103)">
          <path id="path1107" d="M-2.186-2.186,37.44,37.44m52.8,52.8L50.091,50.091M-2.667,82.46v7.213H4.547m0-92.34H-2.667V4.547M43.785,40.178v7.213m-3.607-3.607h7.213M43.766,90.237l.019-35.632M43.766-2.667l.019,35.632M54.605,43.8h19.1m11.948,0H96.81m13.293,0h6.733m-7.694,16.572H97.772m0-9.358h11.37M97.772,36.591h11.37m-11.37-9.4h11.37m0,45.776H97.772m0-58.369h11.851V-2.667H97.291v92.9h12.332V21.814m-.481,58.369H97.772m0-72.8h11.37M61.284,6.259q-.5-.233-1-.452c.108-2.214.144-4.266.1-6.091a47.039,47.039,0,0,0-8.931-2.383C50.492-1.109,49.5.687,48.484,2.659a41.659,41.659,0,0,0-9.4,0C38.073.687,37.078-1.109,36.124-2.667a47.014,47.014,0,0,0-8.93,2.383c-.048,1.825-.012,3.877.1,6.091a41.113,41.113,0,0,0-8.141,4.708c-1.862-1.2-3.62-2.257-5.224-3.128Q12.154,8.843,10.5,10.5T7.387,13.925c.871,1.6,1.928,3.362,3.128,5.224a41.122,41.122,0,0,0-4.708,8.141c-2.214-.108-4.266-.145-6.091-.1a47.019,47.019,0,0,0-2.383,8.93c1.558.954,3.354,1.949,5.326,2.962a41.631,41.631,0,0,0,0,9.4C.687,49.5-1.109,50.492-2.667,51.446a47.037,47.037,0,0,0,2.383,8.93c1.825.048,3.877.011,6.091-.1a41.113,41.113,0,0,0,4.708,8.141c-1.2,1.863-2.257,3.62-3.128,5.224q1.456,1.771,3.109,3.429t3.429,3.109c1.6-.871,3.362-1.928,5.224-3.128a41.114,41.114,0,0,0,8.141,4.708c-.108,2.214-.144,4.266-.1,6.091a47.014,47.014,0,0,0,8.93,2.383c.954-1.558,1.949-3.354,2.962-5.326a41.66,41.66,0,0,0,9.4,0c1.013,1.972,2.008,3.768,2.962,5.326a47.021,47.021,0,0,0,8.931-2.383c.048-1.825.011-3.877-.1-6.091a41.114,41.114,0,0,0,8.141-4.708c1.862,1.2,3.62,2.257,5.224,3.128q1.771-1.456,3.429-3.109t3.109-3.429c-.871-1.6-1.929-3.362-3.129-5.224a41.1,41.1,0,0,0,4.708-8.141c2.214.108,4.266.145,6.091.1a47.019,47.019,0,0,0,2.383-8.93c-1.558-.954-3.354-1.949-5.325-2.962a41.661,41.661,0,0,0,0-9.4c1.972-1.013,3.768-2.008,5.325-2.962a47.019,47.019,0,0,0-2.383-8.93c-1.825-.048-3.877-.011-6.091.1a41.121,41.121,0,0,0-4.708-8.141c1.2-1.862,2.257-3.62,3.128-5.224q-1.456-1.771-3.109-3.429T73.645,7.387c-1.6.871-3.362,1.928-5.224,3.128q-.443-.329-.893-.644M22.009,22.517a30.431,30.431,0,0,0,6.2,47.42m6.724,2.971A30.428,30.428,0,1,0,28.2,17.64" transform="translate(2.667 2.667)" fill="none" stroke="#fff" stroke-linecap="round" stroke-linejoin="round" stroke-width="2"/>
        </g>
      </g>
    </g>
  </g>
</svg>
