<svg xmlns="http://www.w3.org/2000/svg" width="92.266" height="91.852" viewBox="0 0 92.266 91.852">
  <path id="assembly-line_7230028" d="M80.714,0l6.908,6.75a7.572,7.572,0,0,1,0,10.731l-6.908,6.885M74.813,11.8H39.024A39.025,39.025,0,0,0,0,50.827H0A39.025,39.025,0,0,0,39.024,89.852H89.852M39.024,27.032a23.8,23.8,0,1,0,23.8,23.8A23.8,23.8,0,0,0,39.024,27.032Zm0,16.181a7.615,7.615,0,1,0,7.615,7.615A7.615,7.615,0,0,0,39.024,43.213Z" transform="translate(1.414 90.852) rotate(-90)" fill="none" stroke="#004a70" stroke-linecap="round" stroke-linejoin="round" stroke-width="2"/>
</svg>
