<svg id="g987" xmlns="http://www.w3.org/2000/svg" xmlns:xlink="http://www.w3.org/1999/xlink" width="26.703" height="26.703" viewBox="0 0 26.703 26.703">
  <defs>
    <clipPath id="clip-path">
      <path id="path993" d="M0-682.665H26.7v26.7H0Z" transform="translate(0 682.665)"/>
    </clipPath>
  </defs>
  <g id="g989">
    <g id="g991" clip-path="url(#clip-path)">
      <g id="g997" transform="translate(3.807 1.043)">
        <path id="path999" d="M-468.768-527.844a3.129,3.129,0,0,1-3.129,3.129h-12.824a3.129,3.129,0,0,1-3.129-3.129V-546.2a3.129,3.129,0,0,1,3.129-3.129H-471.9a3.129,3.129,0,0,1,3.129,3.129v13.143" transform="translate(487.851 549.332)" fill="none" stroke="#f57c00" stroke-linecap="round" stroke-linejoin="round" stroke-width="1"/>
      </g>
      <g id="g1001" transform="translate(13.3 7.98)">
        <path id="path1003" d="M0-252.391v-10.275" transform="translate(0 262.666)" fill="none" stroke="#f57c00" stroke-linecap="round" stroke-linejoin="round" stroke-width="1"/>
      </g>
      <g id="g1005" transform="translate(9.701 15.959)">
        <path id="path1007" d="M0,0,2.172,2.2a2.079,2.079,0,0,0,2.957,0L7.3.052" fill="none" stroke="#f57c00" stroke-linecap="round" stroke-linejoin="round" stroke-width="1"/>
      </g>
    </g>
  </g>
</svg>
