<svg id="Group_25095" data-name="Group 25095" xmlns="http://www.w3.org/2000/svg" width="339.532" height="342.001" viewBox="0 0 339.532 342.001">
  <path id="Path_24363" data-name="Path 24363" d="M545,683.56V641.032c-51.823,0-97.6,22.029-130.218,62.668l32.063,26.192A128.194,128.194,0,0,1,545,683.56Z" transform="translate(-375.875 -641.032)" fill="#f57c00"/>
  <path id="Path_24364" data-name="Path 24364" d="M477.179,679.46l-31.912-26.109c-41.992,52.39-49.663,120.429-20.416,181.021l36.6-18.037A128.535,128.535,0,0,1,477.179,679.46Z" transform="translate(-407.309 -589.241)" fill="#6692a9"/>
  <path id="Path_24365" data-name="Path 24365" d="M562.929,641.032v42.523a128.483,128.483,0,1,1-115.657,185.46L410.791,886.99c29.5,61.117,84.833,96.042,152.138,96.042,93.492,0,169.275-76.558,169.275-171S656.421,641.032,562.929,641.032Z" transform="translate(-392.671 -641.032)" fill="#004a70"/>
</svg>
