<svg xmlns="http://www.w3.org/2000/svg" width="27.192" height="23.793" viewBox="0 0 27.192 23.793">
  <path id="Icon_awesome-quote-left" data-name="Icon awesome-quote-left" d="M24.643,14.146H20.394v-3.4a3.4,3.4,0,0,1,3.4-3.4h.425a1.272,1.272,0,0,0,1.275-1.275V3.525A1.272,1.272,0,0,0,24.218,2.25h-.425a8.5,8.5,0,0,0-8.5,8.5V23.494a2.55,2.55,0,0,0,2.549,2.549h6.8a2.55,2.55,0,0,0,2.549-2.549V16.7A2.55,2.55,0,0,0,24.643,14.146Zm-15.3,0H5.1v-3.4a3.4,3.4,0,0,1,3.4-3.4h.425A1.272,1.272,0,0,0,10.2,6.074V3.525A1.272,1.272,0,0,0,8.922,2.25H8.5a8.5,8.5,0,0,0-8.5,8.5V23.494a2.55,2.55,0,0,0,2.549,2.549h6.8A2.55,2.55,0,0,0,11.9,23.494V16.7A2.55,2.55,0,0,0,9.347,14.146Z" transform="translate(0 -2.25)" fill="#a02b2d"/>
</svg>
