<svg xmlns="http://www.w3.org/2000/svg" xmlns:xlink="http://www.w3.org/1999/xlink" width="199.799" height="454.08" viewBox="0 0 199.799 454.08">
  <defs>
    <clipPath id="clip-path">
      <rect id="Rectangle_7533" data-name="Rectangle 7533" width="199.799" height="454.08" fill="none"/>
    </clipPath>
  </defs>
  <g id="Group_26458" data-name="Group 26458" opacity="0.37">
    <g id="Group_26457" data-name="Group 26457" clip-path="url(#clip-path)">
      <g id="Group_26456" data-name="Group 26456">
        <g id="Group_26455" data-name="Group 26455" clip-path="url(#clip-path)">
          <g id="Group_26454" data-name="Group 26454">
            <g id="Group_26453" data-name="Group 26453" clip-path="url(#clip-path)">
              <path id="Path_28865" data-name="Path 28865" d="M3.825,0l.022,1.254L80.983,27.213l-.31.43L49.4,34.842,20.4,36.99V32.951A11.51,11.51,0,0,0,8.536,33.2l-.246,12.3a3.194,3.194,0,0,0-2.868.854c-.661.809.179.98-1.6.633-.338,1.634.674.93,1.227,1.323.128.09.235.736.695,1.113.841.69,2.241.454,2.33.539.263.256.025,6.394.007,7.344C7.7,78.035,6.972,98.813,6.58,119.57c-.051,2.674.383,6.7.01,9.15-.16,1.05-2.7-.291-2.767.22-.379,1.627,1.468.963,2.529,1.4-.039,6.044-.063,12.112-.18,18.162-.662,34.276-1.6,68.6-2.356,102.874L3.83,364.46l-2.343.12L0,437.711v12.117a16.983,16.983,0,0,0,7.651,4.252h5.1c1.119-.126,7.651-2.6,7.651-3.508v-261.8H23.7a2.555,2.555,0,0,0,2.033-2.022c.061-.876-.678-2.441-1.608-2.441H20.4V149.978a.667.667,0,0,1,.538-.313c5.943-1.2,12.51-1.324,18.5-2.567.82-.164,1.056.594,1.595.952a3.386,3.386,0,0,0,2.618.519c2.867-.261,7.716-.943,9.472-3.276l23.888-4.482c20.793,3.312,41.7,6,62.491,9.308,20.125,3.205,40.139,7.133,60.294,10.169v-1.063l-36.991-6.264-21.357-7.552,7.4-4.5,9.114-5.129c8.784-1.439,17.483-3.593,26.274-4.972a13.979,13.979,0,0,1,3.438-.282l1.708-11.807a8.327,8.327,0,0,0-1.065-3.394c-.786-.473-4.17.453-5.318.11l.214,1.486-21.055,3.951c-14.55-10.912-29.046-21.917-43.235-33.295a18.3,18.3,0,0,1-2.878-2.54L199.8,112.244v-1.063l-1.174-.206L113,82.67C102,73.884,91.111,64.908,80.792,55.347L98.261,33.2,130.5,44.115c21.581,9.713,43.108,19.549,64.688,29.264a38.44,38.44,0,0,0,4.607,1.876V74.192L152.256,52.759l-19.1-10.87c-1.23-1.29-.576-3.31-.734-4.9,1.118.17,6.659-.223,5.506-2.2-.711-1.218-3.253-1.167-3.757-1.673-.418-.419-.322-2.313-.685-2.927,1.138.1,5.185-.1,5.324-1.608.146-1.595-3.419-1.727-4.048-2.327a9.283,9.283,0,0,1-.854-2.548c1.016-.117,5.922-.379,5.164-2.171-.555-1.315-3.295-1.349-3.77-1.985a20.45,20.45,0,0,1-.87-2.957c-.268-1.685.3-3.379.139-5.092,1.7-.635,5.08-.946,6.05-2.558a2.789,2.789,0,0,0-3.107-4.169C126.333,9.4,112.4,10.724,103.084,18.811a65.2,65.2,0,0,0-6.524,7.309c-4.5-1.147-8.744-.227-13.141.842C57.455,17.81,31.072,9.75,5.15.483,4.823.366,4.458.328,4.25,0ZM98.837,32.31c2.668-3.231,4.927-6.881,8.189-9.558a43.292,43.292,0,0,1,6.417-4.211L133.48,11.9c-.321,1.261.022,3.186-.262,4.306a32.763,32.763,0,0,1-1.9,3.3c-.532.306-4.566-.091-4.561,1.64,0,1.429,4.289,2.382,5.453,2.232a11.724,11.724,0,0,1-1.271,2.659c-.562.33-5.634.3-4.268,2.349.616.924,3.571,1.631,4.69,1.581a16.336,16.336,0,0,1-.879,2.946c-.387.245-4.794-.006-4.787,1.625.006,1.593,4.663,2.361,5.88,2.445-.409.752-.336,3.6-1.053,3.932-10.668-2.5-21.361-4.908-31.681-8.613M85.66,27.638a39.982,39.982,0,0,1,4.347-.861c.618-.046,5.618-.069,5.636.539L93.21,30.333ZM59.3,33.59,82.8,28.27c1.075-.064,7.9,2.172,9.148,2.752.192.089.394.129.511.333L76.6,51.436a5.931,5.931,0,0,1-1.362-.944A135.741,135.741,0,0,1,60.8,35.815c-.251-.3-1.735-1.984-1.494-2.225M20.4,52.3V38.9l28.15-1.927c1.032-.161.933-.854,1.451-1.116l7.9-1.811c5.345,6.518,11.476,12.321,17.566,18.13l.208.435-11.337,14.1ZM118.818,38.9l10.413,2.441a2.717,2.717,0,0,1-1.489.664Zm14.028,4.889,1.912-.126c2.514,1.481,5.146,2.783,7.657,4.265.233.137.584.217.633.534-2.772-1.1-5.518-2.316-8.222-3.574a6.582,6.582,0,0,1-1.981-1.1M20.4,122.874V53.359L63.768,67.71Zm49.526-54,10.1-12.961L109.89,81.843ZM20.4,127.338a2.811,2.811,0,0,0,3.91-.235L68.963,70.145l.651-.417,42.9,14.061c15.726,12.756,31.805,25.066,47.957,37.278l-.726.334L69.4,138.387c-15.968-2.053-31.918-4.568-47.849-6.983a7.028,7.028,0,0,0-1.142-.027ZM80.346,140.1l103.725-19.349,1.484,7.765-28.733,5.481L138.8,144.455l-.561.966c-6.737-.066-13.437.189-20.165.409ZM20.4,132.44l44.851,6.7-12.686,2.433c-.755.138-1.215-.64-1.924-.789-1.184-.25-7.017.85-8.431,1.249a3.5,3.5,0,0,0-2.688,3.157L20.4,147.746Zm120.518,13.608L157.713,152l-15.94-2.55c.908-.462-1-3.281-.85-3.4m-18.491.213,16.047-.215c.592-.043,1.5,2.858,1.38,2.976Z" transform="translate(0)"/>
            </g>
          </g>
        </g>
      </g>
    </g>
  </g>
</svg>
