<svg xmlns="http://www.w3.org/2000/svg" width="91.368" height="83.491" viewBox="0 0 91.368 83.491">
  <g id="Group_25318" data-name="Group 25318" transform="translate(-250.475 -45.094)">
    <g id="Group_25295" data-name="Group 25295" transform="translate(251.719 46.094)">
      <path id="Path_24374" data-name="Path 24374" d="M896.771,236.646l-1.556,6.406a7.643,7.643,0,0,0,7.427,9.447h0a7.643,7.643,0,0,0,7.427-9.447l-6.416-26.4a1.04,1.04,0,0,0-2.021,0l-3.378,13.9" transform="translate(-821.19 -196.376)" fill="none" stroke="#f57c00" stroke-linecap="round" stroke-linejoin="round" stroke-width="2"/>
      <line id="Line_1206" data-name="Line 1206" y1="12.008" transform="translate(81.451 56.123)" fill="none" stroke="#f57c00" stroke-linecap="round" stroke-linejoin="round" stroke-width="2"/>
      <g id="Group_25287" data-name="Group 25287" transform="translate(23.093 41.221)">
        <line id="Line_1207" data-name="Line 1207" y2="7.118" fill="none" stroke="#f57c00" stroke-linecap="round" stroke-linejoin="round" stroke-width="2"/>
      </g>
      <g id="Group_25288" data-name="Group 25288" transform="translate(7.315 41.221)">
        <line id="Line_1208" data-name="Line 1208" y2="8.085" fill="none" stroke="#f57c00" stroke-linecap="round" stroke-linejoin="round" stroke-width="2"/>
      </g>
      <path id="Path_24375" data-name="Path 24375" d="M725.643,402.875H709.784v15.261c.416-.013.833-.022,1.252-.022a37.846,37.846,0,0,1,14.613,2.915V402.875l-.022-.013Z" transform="translate(-657.229 -361.929)" fill="none" stroke="#f57c00" stroke-linecap="round" stroke-linejoin="round" stroke-width="2"/>
      <path id="Path_24376" data-name="Path 24376" d="M543.74,360.041a37.862,37.862,0,0,1,10.772-1.923V342.856l-10.062-7.791-9.714,7.522a.9.9,0,0,0-.348.709v9.978A34.5,34.5,0,0,1,543.74,360.041Z" transform="translate(-501.957 -301.91)" fill="none" stroke="#f57c00" stroke-linecap="round" stroke-linejoin="round" stroke-width="2"/>
      <path id="Path_24377" data-name="Path 24377" d="M637.639,335.065H622.086l10.062,7.791h15.859l-9.82-7.6A.9.9,0,0,0,637.639,335.065Z" transform="translate(-579.593 -301.91)" fill="none" stroke="#f57c00" stroke-linecap="round" stroke-linejoin="round" stroke-width="2"/>
      <path id="Path_24378" data-name="Path 24378" d="M597.729,452.622V441.505a.544.544,0,0,0-.544-.544h-6.166a.544.544,0,0,0-.544.544v9.633" transform="translate(-551.608 -395.657)" fill="none" stroke="#f57c00" stroke-linecap="round" stroke-linejoin="round" stroke-width="2"/>
      <g id="Group_25291" data-name="Group 25291" transform="translate(56.819 46.61)">
        <g id="Group_25289" data-name="Group 25289">
          <line id="Line_1209" data-name="Line 1209" y2="0.544" fill="none" stroke="#f57c00" stroke-linecap="round" stroke-linejoin="round" stroke-width="2"/>
          <line id="Line_1210" data-name="Line 1210" y2="0.544" transform="translate(3.989)" fill="none" stroke="#f57c00" stroke-linecap="round" stroke-linejoin="round" stroke-width="2"/>
          <line id="Line_1211" data-name="Line 1211" y2="0.544" transform="translate(7.979)" fill="none" stroke="#f57c00" stroke-linecap="round" stroke-linejoin="round" stroke-width="2"/>
        </g>
        <g id="Group_25290" data-name="Group 25290" transform="translate(0 4.624)">
          <line id="Line_1212" data-name="Line 1212" y2="0.544" fill="none" stroke="#f57c00" stroke-linecap="round" stroke-linejoin="round" stroke-width="2"/>
          <line id="Line_1213" data-name="Line 1213" y2="0.544" transform="translate(3.989)" fill="none" stroke="#f57c00" stroke-linecap="round" stroke-linejoin="round" stroke-width="2"/>
          <line id="Line_1214" data-name="Line 1214" y2="0.544" transform="translate(7.979)" fill="none" stroke="#f57c00" stroke-linecap="round" stroke-linejoin="round" stroke-width="2"/>
        </g>
      </g>
      <path id="Path_24379" data-name="Path 24379" d="M293.5,473.376a34.4,34.4,0,0,0-40.339-6.442,2.686,2.686,0,0,0-1.445,2.385v26.24a.9.9,0,0,0,.9.9h17.209A38.068,38.068,0,0,1,293.5,473.376Z" transform="translate(-251.719 -415.246)" fill="none" stroke="#f57c00" stroke-linecap="round" stroke-linejoin="round" stroke-width="2"/>
      <path id="Path_24380" data-name="Path 24380" d="M251.719,621.583a34.616,34.616,0,0,1,5.509-.442,34.215,34.215,0,0,1,18.107,5.153" transform="translate(-251.719 -555.164)" fill="none" stroke="#f57c00" stroke-linecap="round" stroke-linejoin="round" stroke-width="2"/>
      <path id="Path_24381" data-name="Path 24381" d="M251.719,543.543a34.415,34.415,0,0,1,30.734,5.662" transform="translate(-251.719 -485.205)" fill="none" stroke="#f57c00" stroke-linecap="round" stroke-linejoin="round" stroke-width="2"/>
      <path id="Path_24382" data-name="Path 24382" d="M524.881,669.455a38.01,38.01,0,0,0-5.194,9.689" transform="translate(-488.942 -597.935)" fill="none" stroke="#f57c00" stroke-linecap="round" stroke-linejoin="round" stroke-width="2"/>
      <path id="Path_24383" data-name="Path 24383" d="M622.009,541.636a37.528,37.528,0,0,0-20.848,9.958" transform="translate(-561.068 -484.781)" fill="none" stroke="#f57c00" stroke-linecap="round" stroke-linejoin="round" stroke-width="2"/>
      <path id="Path_24384" data-name="Path 24384" d="M654.171,559.808c-11.361,3.549-21.048,12.227-24.689,22.27" transform="translate(-586.14 -500.868)" fill="none" stroke="#f57c00" stroke-linecap="round" stroke-linejoin="round" stroke-width="2"/>
      <path id="Path_24385" data-name="Path 24385" d="M762.261,591.586c-8.088,3.493-15.791,11.292-18.449,18.624" transform="translate(-687.352 -529)" fill="none" stroke="#f57c00" stroke-linecap="round" stroke-linejoin="round" stroke-width="2"/>
      <path id="Path_24386" data-name="Path 24386" d="M479.611,560.819a.908.908,0,0,0,.839-1.252,37.98,37.98,0,0,0-70.924,1.252Z" transform="translate(-391.42 -479.609)" fill="none" stroke="#f57c00" stroke-linecap="round" stroke-linejoin="round" stroke-width="2"/>
      <circle id="Ellipse_84" data-name="Ellipse 84" cx="6.723" cy="6.723" r="6.723" transform="translate(36.446 13.308) rotate(-76.534)" fill="none" stroke="#f57c00" stroke-linecap="round" stroke-linejoin="round" stroke-width="2"/>
      <g id="Group_25294" data-name="Group 25294" transform="translate(63.597 4.214)">
        <g id="Group_25293" data-name="Group 25293">
          <g id="Group_25292" data-name="Group 25292">
            <path id="Path_24387" data-name="Path 24387" d="M806.954,90.617a.936.936,0,0,1-.875-1.259,5.288,5.288,0,0,1,7.391-2.916.936.936,0,0,0,1.234-.329,6.872,6.872,0,0,1,12.739,3.579v.01a.927.927,0,0,1-.933.916H806.954Z" transform="translate(-806.022 -82.82)" fill="none" stroke="#f57c00" stroke-linecap="round" stroke-linejoin="round" stroke-width="2"/>
          </g>
        </g>
      </g>
      <path id="Path_24388" data-name="Path 24388" d="M297.8,53.8h9.725a.925.925,0,0,0,.865-1.244,5.228,5.228,0,0,0-7.307-2.883.926.926,0,0,1-1.22-.326,6.794,6.794,0,0,0-12.594,3.538V52.9a.917.917,0,0,0,.922.905h3.335" transform="translate(-283.193 -46.094)" fill="none" stroke="#f57c00" stroke-linecap="round" stroke-linejoin="round" stroke-width="2"/>
      <path id="Path_24389" data-name="Path 24389" d="M408.171,167.379,403.379,187.1a5.709,5.709,0,0,0,5.547,7.057h0a5.709,5.709,0,0,0,5.547-7.057l-4.793-19.723A.777.777,0,0,0,408.171,167.379Z" transform="translate(-385.833 -152.938)" fill="none" stroke="#f57c00" stroke-linecap="round" stroke-linejoin="round" stroke-width="2"/>
      <path id="Path_24390" data-name="Path 24390" d="M270.654,167.379,265.862,187.1a5.709,5.709,0,0,0,5.547,7.057h0a5.709,5.709,0,0,0,5.547-7.057l-4.792-19.724A.777.777,0,0,0,270.654,167.379Z" transform="translate(-264.094 -152.938)" fill="none" stroke="#f57c00" stroke-linecap="round" stroke-linejoin="round" stroke-width="2"/>
    </g>
  </g>
</svg>
