<svg id="Gradient_Line" height="512" viewBox="0 0 64 64" width="512" xmlns="http://www.w3.org/2000/svg" xmlns:xlink="http://www.w3.org/1999/xlink" data-name="Gradient Line"><path d="m58 10v-4h-41.2002v41.2002h41.2002v-32.20013a1.00018 1.00018 0 0 1 2-.00007v33.2002a.99943.99943 0 0 1 -1 1h-43.2002a.99943.99943 0 0 1 -1-1v-9.79981h-8.7998v19.59961h19.59961v-4.7998a1 1 0 0 1 2 0v5.7998a.99943.99943 0 0 1 -1 1h-21.59961a.99943.99943 0 0 1 -1-1v-21.59961a.99943.99943 0 0 1 1-1h9.7998v-31.40039a.99943.99943 0 0 1 1-1h43.2002a.99943.99943 0 0 1 1 1v5a1 1 0 0 1 -2 0zm-5 8a.99943.99943 0 0 0 1-1v-6a1.00373 1.00373 0 0 0 -1-1h-6a1.00016 1.00016 0 0 0 .00005 2h3.58589l-27.78614 27.78613v-3.58593a1.0001 1.0001 0 0 0 -2 0v6a1.01 1.01 0 0 0 1 1h6a1 1 0 0 0 0-2h-3.58593l27.78613-27.78614v3.58594a.99943.99943 0 0 0 1 1z" fill="#f57c00" stroke="#f57c00" stroke-width=".1" /></svg>