<svg id="Layer_1" enable-background="new 0 0 512 512" height="512" viewBox="0 0 512 512" width="512" xmlns="http://www.w3.org/2000/svg" xmlns:xlink="http://www.w3.org/1999/xlink"><linearGradient id="SVGID_1_" gradientUnits="userSpaceOnUse" x1="255.999" x2="255.999" y1="494.001" y2="17.999"><stop offset="0" stop-color="#07a7ef"/><stop offset="1" stop-color="#0fdcf4"/></linearGradient><path d="m45.25 319.23v-259.98c0-7.73 6.27-14 14-14h259.98c7.73 0 14 6.27 14 14s-6.27 14-14 14h-245.98v245.98c0 7.73-6.27 14-14 14s-14-6.27-14-14zm407.5-140.71c-7.73 0-14 6.27-14 14v246.23h-245.98c-7.73 0-14 6.27-14 14s6.27 14 14 14h259.98c7.73 0 14-6.27 14-14v-260.23c0-7.73-6.27-14-14-14zm41.2-147.46c-.32-7.16-6.81-13.18-13.96-13.06h-83.21c-7.73 0-14 6.27-14 14s6.27 14 14 14h49.41l-86.56 86.56c-5.47 5.47-5.47 14.33 0 19.8 2.73 2.73 6.32 4.1 9.9 4.1s7.17-1.37 9.9-4.1l86.57-86.56v49.42c0 7.73 6.27 14 14 14s14-6.27 14-14v-83.22c0-.32-.03-.63-.05-.94zm-361.39 328.58-86.56 86.56v-49.42c0-7.73-6.27-14-14-14s-14 6.27-14 14v83.22c-.13 7.52 6.48 14.14 14 14h83.21c7.73 0 14-6.27 14-14s-6.27-14-14-14h-49.41l86.56-86.56c5.47-5.47 5.47-14.33 0-19.8s-14.33-5.47-19.8 0z" fill="url(#SVGID_1_)"/></svg>