<svg xmlns="http://www.w3.org/2000/svg" data-name="Layer 1" id="Layer_1" viewBox="0 0 128 128"><title/><path d="M63.99886,40.925A12.80859,12.80859,0,1,0,51.17573,28.1165,12.83038,12.83038,0,0,0,63.99886,40.925Zm0-21.62182a8.81324,8.81324,0,1,1-8.82325,8.81327A8.8183,8.8183,0,0,1,63.99886,19.30323Z" fill="#f57c00" stroke="#f57c00" stroke-width=".1"/><path d="M110.00261,106.42842h-5.45755l-1.72554-5.57772a4.00123,4.00123,0,0,0-7.64316,0l-1.7256,5.57772H87.99821a3.99463,3.99463,0,0,0-2.42816,7.17023l4.58105,3.49562-1.773,5.7308a3.99952,3.99952,0,0,0,6.24977,4.35448l4.37-3.33455,4.37,3.33455a3.99886,3.99886,0,0,0,6.24977-4.35448l-1.7729-5.7308,4.51782-3.4474a3.99385,3.99385,0,0,0-2.36-7.21845Zm-6.80316,9.18277,2.59667,8.39347-6.79822-5.18743-6.79815,5.18743,2.59667-8.39347-6.79822-5.18743h8.403l2.59667-8.39347,2.59667,8.39347h8.403Z" fill="#f57c00" stroke="#f57c00" stroke-width=".1"/><path d="M75.51942,109.75535l8.844-6.7486a3.99388,3.99388,0,0,0-2.36-7.21845H71.19849l-3.378-10.919a4.00123,4.00123,0,0,0-7.64316,0l-3.378,10.919H45.99935a3.99468,3.99468,0,0,0-2.42816,7.17029l8.90717,6.79676L49.053,120.8274a3.99952,3.99952,0,0,0,6.24977,4.35448l8.69611-6.63569,8.69611,6.63569a3.99887,3.99887,0,0,0,6.24977-4.35448ZM75.12319,122.007l-11.12433-8.48857L52.87459,122.007l4.24909-13.73477L45.99935,99.78364H59.74977l4.24909-13.73471L68.248,99.78364H81.99837L70.8741,108.27222Z" fill="#f57c00" stroke="#f57c00" stroke-width=".1"/><path d="M40.00452,106.42842H34.547l-1.72554-5.57772a4.00123,4.00123,0,0,0-7.64316,0l-1.7256,5.57772H18.00012a3.99463,3.99463,0,0,0-2.42816,7.17023l4.58105,3.49562-1.773,5.7308a3.99952,3.99952,0,0,0,6.24977,4.35448l4.37-3.33455,4.37,3.33455a3.99886,3.99886,0,0,0,6.24977-4.35448l-1.7729-5.7308,4.51782-3.4474a3.99385,3.99385,0,0,0-2.36-7.21845Zm-6.80316,9.18277,2.59667,8.39347-6.79822-5.18743-6.79815,5.18743,2.59667-8.39347-6.79822-5.18743h8.403l2.59667-8.39347,2.59667,8.39347h8.403Z" fill="#f57c00" stroke="#f57c00" stroke-width=".1"/><path d="M21.3569,99.67147A7.96456,7.96456,0,0,1,23.57711,96.171V75.29292a7.81691,7.81691,0,0,1,5.03014-7.29667l19.99146-7.82961L62.55652,74.68523a1.99964,1.99964,0,0,0,1.44234.614l.05859-.001a2.00247,2.00247,0,0,0,1.46285-.69987l12.72-14.88523,21.15018,8.28306a7.81691,7.81691,0,0,1,5.03014,7.29667v20.878A7.96362,7.96362,0,0,1,106.6407,99.671l.85447,2.76216h.92533V75.29292a11.78917,11.78917,0,0,0-7.56913-11.016L79.31973,55.8449a4.5491,4.5491,0,0,1-2.92961-4.24456v-.69676a5.65446,5.65446,0,0,0,5.65164-1.40681l3.51107-3.507a5.65361,5.65361,0,0,0,.64409-7.22016,24.331,24.331,0,0,0,1.14792-2.76253,5.65992,5.65992,0,0,0,4.65325-5.55986V25.48748a5.65985,5.65985,0,0,0-4.65325-5.5598,24.3319,24.3319,0,0,0-1.14792-2.76259,5.65326,5.65326,0,0,0-.644-7.22009L82.04177,6.43786a5.66347,5.66347,0,0,0-7.22929-.64378A24.39521,24.39521,0,0,0,72.04771,4.648,5.6627,5.6627,0,0,0,66.48158,0H61.5162A5.66277,5.66277,0,0,0,55.95,4.648a24.38349,24.38349,0,0,0-2.7647,1.14619,5.66343,5.66343,0,0,0-7.22936.64372L42.44488,9.945a5.65334,5.65334,0,0,0-.644,7.22009,24.30961,24.30961,0,0,0-1.14792,2.76259,5.65985,5.65985,0,0,0-4.65332,5.5598v4.95973a5.65991,5.65991,0,0,0,4.65332,5.55986,24.32538,24.32538,0,0,0,1.14792,2.76259,5.65329,5.65329,0,0,0,.64384,7.21991l3.51132,3.5072a5.65435,5.65435,0,0,0,5.65158,1.40681v.69676A4.54859,4.54859,0,0,1,48.677,55.8449L27.14635,64.277a11.78917,11.78917,0,0,0-7.56913,11.016v27.14022h.92533ZM63.912,70.32654,52.34855,58.29913a8.47913,8.47913,0,0,0,3.25894-6.69879V51.157c.11487.04152.227.09.34252.12979a5.66277,5.66277,0,0,0,5.56619,4.648h4.96538a5.6627,5.6627,0,0,0,5.56613-4.648c.11548-.03975.22765-.08828.34252-.12979v.44333A8.46717,8.46717,0,0,0,74.828,57.55189ZM51.125,46.67164a1.65642,1.65642,0,0,1-2.3407,0l-3.51107-3.507a1.652,1.652,0,0,1,0-2.338l1.46694-1.46533a20.53062,20.53062,0,0,1-3.01573-7.26076H41.65468a1.65426,1.65426,0,0,1-1.65517-1.65328V25.48748a1.65421,1.65421,0,0,1,1.65517-1.65322h2.06977a20.53092,20.53092,0,0,1,3.01573-7.26082l-1.46694-1.46527a1.652,1.652,0,0,1,0-2.338L48.78431,9.263a1.65642,1.65642,0,0,1,2.3407,0l1.467,1.46533A20.57954,20.57954,0,0,1,59.861,7.716V5.64856A1.65417,1.65417,0,0,1,61.5162,3.99534h4.96538a1.65412,1.65412,0,0,1,1.65511,1.65322V7.716a20.57984,20.57984,0,0,1,7.26909,3.01229L76.87272,9.263a1.65642,1.65642,0,0,1,2.3407,0l3.51113,3.50714a1.65206,1.65206,0,0,1,0,2.338l-1.467,1.46527a20.53092,20.53092,0,0,1,3.01573,7.26082H86.3431a1.65415,1.65415,0,0,1,1.65511,1.65322v4.95973A1.65421,1.65421,0,0,1,86.3431,32.1005H84.27327a20.53062,20.53062,0,0,1-3.01573,7.26076l1.467,1.46533a1.65206,1.65206,0,0,1,0,2.338l-3.51113,3.507a1.65642,1.65642,0,0,1-2.3407,0l-1.46688-1.46521a20.58014,20.58014,0,0,1-7.26915,3.01229v2.06741a1.65421,1.65421,0,0,1-1.65511,1.65328H61.5162A1.65426,1.65426,0,0,1,59.861,50.28614V48.21872a20.57984,20.57984,0,0,1-7.26909-3.01229Z" fill="#f57c00" stroke="#f57c00" stroke-width=".1"/></svg>
