<svg id="Layer_1" enable-background="new 0 0 512 512" viewBox="0 0 512 512" xmlns="http://www.w3.org/2000/svg" xmlns:xlink="http://www.w3.org/1999/xlink"><linearGradient id="SVGID_1_" gradientUnits="userSpaceOnUse" x1="100.7" x2="411.3" y1="119.262" y2="429.862"><stop offset="0" stop-color="#3b99d4"/><stop offset="1" stop-color="#bd75b1"/></linearGradient><path d="m195.54 101.13c-.64-2.69 1.02-5.38 3.71-6.02l15.3-3.63c1.29-.3 2.65-.09 3.78.61s1.94 1.81 2.24 3.1l3.63 15.3c.64 2.69-1.02 5.38-3.71 6.02s-5.38-1.02-6.02-3.71l-.64-2.7c-1.59 4.62-2.42 9.51-2.42 14.47 0 24.44 19.88 44.32 44.32 44.32 7.41 0 14.74-1.86 21.19-5.38 2.42-1.32 5.46-.43 6.78 1.99s.43 5.46-2 6.78c-7.92 4.32-16.91 6.61-25.98 6.61-29.95 0-54.32-24.37-54.32-54.32 0-7.14 1.39-14.15 4.07-20.66l-3.92.93c-2.68.63-5.38-1.03-6.01-3.71zm39.42-15.73c6.35-3.37 13.53-5.16 20.77-5.16 24.44 0 44.32 19.88 44.32 44.32 0 4.63-.72 9.19-2.11 13.54l-.42-1.77c-.64-2.69-3.33-4.35-6.02-3.71s-4.35 3.33-3.71 6.02l3.63 15.3c.31 1.29 1.11 2.41 2.24 3.1.79.49 1.71.74 2.62.74.39 0 .77-.04 1.15-.13l15.3-3.63c2.69-.64 4.35-3.33 3.71-6.02s-3.33-4.35-6.02-3.71l-4.51 1.07c2.72-6.56 4.13-13.61 4.13-20.8 0-29.95-24.37-54.32-54.32-54.32-8.87 0-17.68 2.19-25.46 6.33-2.44 1.3-3.36 4.32-2.07 6.76 1.31 2.44 4.34 3.37 6.77 2.07zm35.49 25.53-21.92 16.18-5.84-8.43c-1.57-2.27-4.69-2.84-6.96-1.26-2.27 1.57-2.84 4.69-1.26 6.96l8.77 12.67c.77 1.11 1.96 1.86 3.29 2.09.27.04.55.07.82.07 1.06 0 2.1-.34 2.97-.98l26.06-19.24c2.22-1.64 2.69-4.77 1.05-6.99s-4.76-2.71-6.98-1.07zm229.67 225.23c-1.77 6.62-6.01 12.15-11.93 15.57l-22.24 12.84c-4 2.31-8.38 3.41-12.7 3.41-7.83 0-15.48-3.62-20.39-10.15-5.6 8.01-10.68 14.57-15.85 20.46 4.68 7.72 5.13 17.69.3 26.04-6.24 10.81-19.24 15.33-30.61 11.32.86 5.55-.09 11.42-3.12 16.65-6.24 10.81-19.24 15.33-30.61 11.32.86 5.55-.09 11.42-3.12 16.65-6.24 10.81-19.24 15.34-30.61 11.32.86 5.55-.1 11.42-3.12 16.65-3.4 5.89-8.91 10.11-15.52 11.88-2.21.59-4.46.89-6.69.89-4.42 0-8.77-1.15-12.69-3.41l-29.13-16.82c-4.84 7.51-13.06 11.71-21.5 11.71-4.33 0-8.72-1.1-12.73-3.42-6.02-3.47-10.08-9.04-11.82-15.25-2.44 1.73-5.21 3.03-8.19 3.83-6.61 1.77-13.49.87-19.38-2.53-7.29-4.21-11.72-11.49-12.6-19.27-1.16.5-2.36.92-3.6 1.25-6.6 1.77-13.49.87-19.38-2.53-8.92-5.15-13.56-14.9-12.66-24.54-6.53 1.68-13.31.76-19.12-2.59-12.2-7.04-16.39-22.69-9.35-34.89l2.54-4.4c-8.57-8.37-16.4-17.79-25.18-30.31-4.92 6.53-12.56 10.15-20.4 10.15-4.32 0-8.7-1.1-12.7-3.41l-22.24-12.84c-5.92-3.42-10.15-8.94-11.93-15.57s-.87-13.53 2.54-19.44l63.94-110.74c3.42-5.92 8.94-10.15 15.57-11.93 6.62-1.77 13.53-.87 19.44 2.54l22.24 12.84c5.88 3.4 10.1 8.9 11.86 15.48 1.73 6.47.89 13.2-2.35 19.01 17.82 9.33 34.62 12.42 50.91 15.42 8.42 1.55 16.42 3.03 24.34 5.3 6.06-5.54 12.74-9.19 20.85-11.36l38.23-10.24c11.37-3.05 22.17-2.28 33 2.34l9.97 4.23c9.96 4.23 19.75 4.48 29.91.75 5.09-1.87 9.88-4 14.55-6.44-3.24-5.81-4.08-12.54-2.35-19.01 1.76-6.59 5.98-12.08 11.86-15.48l22.24-12.84c5.92-3.42 12.82-4.32 19.44-2.54 6.62 1.77 12.15 6.01 15.57 11.93l63.94 110.74c3.44 5.9 4.34 12.8 2.57 19.43zm-274.54-62.7-30 29.99c-1.21 1.21-1.87 2.82-1.87 4.54s.66 3.33 1.87 4.54c2.58 2.58 8.35 5.73 16.11 6.11 5.51.27 13.5-.83 20.3-7.63l16.44-16.44c.97-.97 2.31-1.51 3.69-1.46l23.71.71c1.31.04 2.55.59 3.46 1.54 18.97 19.8 40.28 29.99 63.35 30.28 17.33.21 29.22-5.5 29.34-5.56 2.48-1.21 5.47-.19 6.69 2.28s.21 5.46-2.26 6.68c-.5.24-11.1 5.4-27.25 6.42l58.81 33.96c.78.45 1.52.93 2.23 1.45 5.44-6.29 10.85-13.42 17-22.46l-55.33-95.83c-5.17 2.73-10.47 5.09-16.1 7.15-12.49 4.58-25.02 4.27-37.26-.93l-9.98-4.24c-8.82-3.76-17.24-4.36-26.49-1.88l-38.23 10.24c-7.28 1.97-12.9 5.21-18.23 10.54zm-153.37 76.77 64.08-110.99c2.06-3.57 2.61-7.74 1.53-11.75-1.07-4.01-3.63-7.35-7.2-9.41l-22.24-12.84c-2.39-1.38-5.06-2.09-7.76-2.09-1.36 0-2.74.18-4.09.54-4.04 1.08-7.42 3.66-9.5 7.27l-63.95 110.75c-2.08 3.6-2.63 7.81-1.55 11.86 1.08 4.04 3.66 7.42 7.27 9.5l22.24 12.84c7.4 4.26 16.9 1.72 21.17-5.68zm65.16 62.85 20.63-35.74.01-.03c4.26-7.42 1.71-16.93-5.7-21.21-7.42-4.29-16.95-1.73-21.23 5.69l-20.63 35.74c-4.29 7.42-1.73 16.95 5.69 21.23 3.58 2.06 7.76 2.61 11.79 1.53 4.02-1.08 7.37-3.63 9.43-7.19zm31.77 27.13 28.25-48.92c4.28-7.42 1.73-16.95-5.69-21.23s-16.95-1.73-21.23 5.69l-28.24 48.92c-4.29 7.42-1.73 16.95 5.69 21.23 3.58 2.06 7.76 2.61 11.79 1.53 4.02-1.08 7.37-3.64 9.44-7.21-.01 0-.01 0-.01-.01zm67.64-34.96c4.29-7.42 1.73-16.95-5.69-21.23s-16.95-1.73-21.23 5.69l-32.05 55.51c-4.29 7.42-1.73 16.95 5.69 21.23 3.57 2.06 7.76 2.61 11.79 1.53s7.38-3.64 9.44-7.22zm7.33 69.46 20.63-35.74c4.29-7.42 1.73-16.95-5.69-21.23s-16.94-1.73-21.23 5.69l-20.63 35.74c-4.28 7.42-1.73 16.95 5.69 21.23 7.43 4.28 16.95 1.73 21.23-5.69zm158.85-96.62-76.49-44.16c-15.63-3.16-34.42-11.36-52.97-30.16l-19.53-.59-14.91 14.91c-7.33 7.33-17.23 11.08-27.86 10.55-8.86-.44-17.56-3.9-22.69-9.03-3.09-3.09-4.8-7.22-4.8-11.61s1.71-8.51 4.8-11.61l23.58-23.58c-5.76-1.39-11.7-2.49-17.87-3.63-16.35-3.01-34.75-6.4-54.1-16.58l-55.32 95.82c8.92 13.08 16.42 22.45 24.69 30.77l12.93-22.39c7.04-12.2 22.7-16.39 34.89-9.35 6.02 3.47 10.08 9.04 11.82 15.25 7.9-5.59 18.66-6.45 27.57-1.3 6.02 3.47 10.08 9.04 11.82 15.25 7.9-5.6 18.66-6.45 27.57-1.3 10.81 6.24 15.33 19.24 11.32 30.61 5.55-.86 11.42.1 16.65 3.12 12.2 7.04 16.39 22.69 9.35 34.89l-16.26 28.16 29.09 16.8c3.57 2.06 7.76 2.61 11.79 1.53s7.38-3.64 9.44-7.22c4.28-7.41 1.74-16.91-5.64-21.21l-10.75-6.21c-2.39-1.38-3.21-4.44-1.83-6.83s4.44-3.21 6.83-1.83l10.68 6.17c.01 0 .01.01.02.01.01.01.03.02.04.02l13.14 7.59c7.42 4.29 16.95 1.73 21.23-5.69s1.73-16.95-5.69-21.23c-.01 0-.01-.01-.02-.01l-23.86-13.78c-2.39-1.38-3.21-4.44-1.83-6.83s4.44-3.21 6.83-1.83l37.06 21.4c7.42 4.29 16.95 1.73 21.23-5.69 4.28-7.41 1.74-16.92-5.66-21.22l-37.09-21.42c-2.39-1.38-3.21-4.44-1.83-6.83s4.44-3.21 6.83-1.83l50.25 29.01c7.42 4.28 16.95 1.73 21.23-5.69 4.3-7.41 1.75-16.93-5.68-21.22zm85.96-56.38-63.94-110.74c-2.08-3.6-5.45-6.18-9.5-7.27-4.04-1.08-8.25-.53-11.86 1.55l-22.24 12.84c-3.57 2.06-6.13 5.4-7.2 9.41s-.53 8.18 1.53 11.75l64.08 110.99c4.27 7.4 13.76 9.94 21.16 5.67l22.24-12.84c3.6-2.08 6.18-5.45 7.27-9.5 1.08-4.05.54-8.26-1.54-11.86zm-345.88-185.33c-.81-7.83-.81-15.78 0-23.61.84-8.07 7.07-14.24 15.15-14.99l15.69-1.46c2.13-.2 3.88-1.49 4.69-3.46.8-1.97.46-4.12-.92-5.75l-10.16-12.04c-5.23-6.2-5.35-14.96-.29-21.31 5.1-6.39 10.91-12.25 17.27-17.41 6.3-5.12 15.07-5.07 21.31.11l12.12 10.06c1.65 1.37 3.8 1.69 5.76.87s3.24-2.58 3.42-4.72l1.33-15.71c.69-8.09 6.8-14.37 14.87-15.27 8.43-.94 16.98-.94 25.41 0 8.07.9 14.19 7.18 14.88 15.27l1.33 15.71c.18 2.13 1.46 3.9 3.42 4.72s4.12.5 5.76-.87l12.12-10.06c6.25-5.18 15.01-5.23 21.31-.11 6.35 5.16 12.16 11.02 17.27 17.41 5.06 6.34 4.95 15.1-.29 21.31l-10.16 12.04c-1.38 1.64-1.72 3.79-.92 5.75.81 1.97 2.56 3.26 4.69 3.46l15.69 1.46c8.08.75 14.31 6.91 15.15 14.99.82 7.84.82 15.78 0 23.62-.84 8.07-7.07 14.23-15.15 14.99l-15.69 1.46c-2.13.2-3.88 1.49-4.69 3.46s-.46 4.12.92 5.75l10.16 12.04c5.23 6.2 5.35 14.97.29 21.31-5.11 6.4-10.92 12.26-17.27 17.41-6.3 5.12-15.07 5.07-21.31-.11l-12.12-10.06c-1.65-1.37-3.8-1.69-5.76-.87s-3.24 2.58-3.42 4.72l-1.33 15.71c-.69 8.09-6.8 14.37-14.88 15.27-4.21.47-8.46.7-12.7.7s-8.49-.23-12.7-.7c-8.07-.9-14.19-7.18-14.88-15.27l-1.33-15.71c-.18-2.13-1.46-3.9-3.42-4.72s-4.11-.49-5.76.87l-12.12 10.06c-6.25 5.18-15.01 5.23-21.31.11-6.35-5.16-12.16-11.02-17.27-17.41-5.06-6.34-4.94-15.1.29-21.31l10.16-12.04c1.38-1.64 1.72-3.79.92-5.75-.81-1.97-2.56-3.26-4.69-3.46l-15.69-1.46c-8.09-.77-14.31-6.93-15.15-15zm9.94-1.03c.34 3.27 2.86 5.76 6.13 6.06l15.69 1.46c5.82.54 10.81 4.23 13.02 9.62 2.21 5.4 1.24 11.52-2.53 15.99l-10.16 12.04c-2.12 2.51-2.17 6.05-.12 8.62 4.66 5.83 9.96 11.18 15.76 15.89 2.55 2.07 6.1 2.05 8.62-.05l12.12-10.06c2.87-2.38 6.4-3.62 9.98-3.62 2.03 0 4.08.4 6.03 1.22 5.38 2.25 9.02 7.27 9.52 13.09l1.33 15.71c.28 3.27 2.75 5.81 6.02 6.18 7.69.86 15.5.86 23.19 0 3.26-.36 5.74-2.9 6.02-6.18l1.33-15.71c.5-5.82 4.14-10.84 9.52-13.09s11.51-1.33 16.01 2.4l12.12 10.06c2.53 2.1 6.07 2.12 8.62.05 5.79-4.7 11.1-10.05 15.76-15.89 2.05-2.57 2-6.11-.12-8.62l-10.16-12.04c-3.77-4.47-4.74-10.59-2.53-15.99s7.2-9.08 13.02-9.63l15.69-1.46c3.27-.3 5.79-2.8 6.13-6.06.74-7.15.74-14.4 0-21.55-.34-3.27-2.86-5.76-6.13-6.06l-15.69-1.46c-5.82-.54-10.81-4.23-13.02-9.63s-1.24-11.52 2.53-15.99l10.16-12.04c2.12-2.51 2.17-6.05.12-8.62-4.66-5.84-9.96-11.18-15.76-15.89-2.55-2.07-6.1-2.05-8.62.05l-12.12 10.06c-4.5 3.73-10.64 4.65-16.01 2.4-5.38-2.25-9.03-7.27-9.52-13.09l-1.33-15.71c-.28-3.27-2.75-5.81-6.02-6.18-7.69-.86-15.5-.86-23.19 0-3.26.36-5.74 2.9-6.02 6.18l-1.33 15.71c-.5 5.82-4.14 10.84-9.52 13.09s-11.51 1.33-16.01-2.4l-12.11-10.05c-2.53-2.1-6.07-2.12-8.62-.05-5.8 4.71-11.1 10.05-15.75 15.89-2.05 2.57-2 6.11.12 8.62l10.16 12.04c3.77 4.47 4.74 10.59 2.53 15.99s-7.2 9.08-13.02 9.62l-15.69 1.46c-3.27.3-5.79 2.8-6.13 6.06-.76 7.16-.76 14.41-.02 21.56z" fill="url(#SVGID_1_)"/></svg>