<svg xmlns="http://www.w3.org/2000/svg" xmlns:xlink="http://www.w3.org/1999/xlink" width="409.057" height="678.07" viewBox="0 0 409.057 678.07">
  <defs>
    <clipPath id="clip-path">
      <path id="Path_22898" data-name="Path 22898" d="M-280.644,1533.052H-37.206c65.629,0,118.834-40.835,118.834-91.208V947.192c0-50.374-53.2-91.21-118.834-91.21H-179.279V971.813h121.3c13.086,0,23.694,8.141,23.694,18.186v409.039c0,10.04-10.608,18.183-23.694,18.183H-280.644Z" transform="translate(-7226.799 -5234.652)" stroke="rgba(0,0,0,0)" stroke-width="1"/>
    </clipPath>
  </defs>
  <g id="Group_24699" data-name="Group 24699" transform="translate(-1371.271 -4324.83)">
    <g id="Group_24683" data-name="Group 24683" transform="translate(1371.771 4321.169)">
      <path id="Path_22898-2" data-name="Path 22898" d="M-410.644,1533.052H-93.8a91.209,91.209,0,0,0,91.21-91.208V947.192a91.21,91.21,0,0,0-91.21-91.21h-135.91V971.813h93.1A18.185,18.185,0,0,1-118.417,990v409.039a18.186,18.186,0,0,1-18.186,18.183H-410.644Z" transform="translate(410.644 -851.821)" fill="#90bc5e" stroke="rgba(0,0,0,0)" stroke-width="1"/>
    </g>
    <g id="Mask_Group_17" data-name="Mask Group 17" transform="translate(8925 8704)" clip-path="url(#clip-path)">
      <g id="Group_24685" data-name="Group 24685" transform="translate(-8895.378 -8717.242)" style="mix-blend-mode: hard-light;isolation: isolate">
        <g id="Group_24716" data-name="Group 24716" transform="translate(1536.818 4296.713)">
          <g id="Group_24762" data-name="Group 24762" transform="translate(0 0)">
            <g id="Group_24738" data-name="Group 24738" transform="translate(0)">
              <g id="Group_24732" data-name="Group 24732">
                <g id="Group_24718" data-name="Group 24718" transform="translate(33.944 101.555)">
                  <g id="Group_24716-2" data-name="Group 24716">
                    <path id="Path_24056" data-name="Path 24056" d="M72.354,35.327H70.767L63.84,35.31H61.851l-7.1,320.3,5.7.019,11.317.022,5.7.006Z" transform="translate(-54.445 -34.993)" fill="#f7f7f8"/>
                    <path id="Path_24057" data-name="Path 24057" d="M77.68,356.191a.314.314,0,0,0,.218-.1.321.321,0,0,0,.093-.221l-5.1-320.334a.312.312,0,0,0-.31-.3l-10.512-.022h0a.319.319,0,0,0-.31.307l-7.094,320.3a.413.413,0,0,0,.08.246.45.45,0,0,0,.23.07l22.71.051ZM72.269,35.854l5.088,319.713-22.067-.045L62.377,35.835Z" transform="translate(-54.659 -35.211)" fill="#cecfd1"/>
                  </g>
                  <g id="Group_24717" data-name="Group 24717" transform="translate(0.31 0.317)" style="mix-blend-mode: multiply;isolation: isolate">
                    <path id="Path_24058" data-name="Path 24058" d="M58.406,355.606l7.1-320.3H67.49l1.946.008V355.631l-5.333-.006Z" transform="translate(-58.406 -35.31)" fill="#cecfd1"/>
                  </g>
                </g>
                <g id="Group_24721" data-name="Group 24721" transform="translate(31.202 89.485)">
                  <g id="Group_24719" data-name="Group 24719" transform="translate(0 0)">
                    <path id="Path_24059" data-name="Path 24059" d="M77.278,50.844H60.859v-.019a2.033,2.033,0,0,1-.525-.08s-3.686-.486-4.246-5.117V31.535h21.19Z" transform="translate(-55.778 -31.228)" fill="#f7f7f8"/>
                    <path id="Path_24060" data-name="Path 24060" d="M61.069,51.372H77.488a.325.325,0,0,0,.323-.317V31.746a.315.315,0,0,0-.323-.307H56.3a.31.31,0,0,0-.31.307V45.839c.576,4.858,4.483,5.427,4.518,5.437a3.412,3.412,0,0,0,.48.09C61.027,51.365,61.043,51.372,61.069,51.372Zm16.115-.634H61.155a.245.245,0,0,0-.07-.01,1.223,1.223,0,0,1-.432-.074c-.208-.029-3.52-.531-4.042-4.858V32.069H77.184Z" transform="translate(-55.987 -31.439)" fill="#cecfd1"/>
                  </g>
                  <path id="Path_24061" data-name="Path 24061" d="M56.088,34.457V39.2c.56,4.63,4.246,5.117,4.246,5.117a2.033,2.033,0,0,0,.525.08v.019H77.278V34.457Z" transform="translate(-55.778 -24.799)" fill="#cecfd1" style="mix-blend-mode: multiply;isolation: isolate"/>
                  <g id="Group_24720" data-name="Group 24720" transform="translate(16.528 0)">
                    <path id="Path_24062" data-name="Path 24062" d="M59.222,31.535h4.963V45.628c-.557,4.63-4.25,5.117-4.25,5.117a1.949,1.949,0,0,1-1.162,0s-3.7-.486-4.253-5.117V31.535Z" transform="translate(-54.198 -31.228)" fill="#f7f7f8"/>
                    <path id="Path_24063" data-name="Path 24063" d="M59.561,51.372a1.939,1.939,0,0,0,.707-.134h0c.051,0,3.882-.592,4.445-5.366l.013-14.125a.311.311,0,0,0-.317-.307H54.745a.315.315,0,0,0-.323.307V45.839c.6,4.858,4.5,5.427,4.528,5.437A2.143,2.143,0,0,0,59.561,51.372Zm4.541-19.3v13.77c-.531,4.294-3.942,4.787-3.978,4.806a1.649,1.649,0,0,1-1.024.01c-.2-.029-3.517-.531-4.032-4.858V32.069Z" transform="translate(-54.422 -31.439)" fill="#cecfd1"/>
                  </g>
                </g>
                <g id="Group_24722" data-name="Group 24722" transform="translate(59.634 102.083)">
                  <path id="Path_24064" data-name="Path 24064" d="M103.89,95.791s3.53,2.474,4.442,1.827c.931-.634.627-1.76-.691-2.771-1.52-1.174-42.759-37.975-48.311-44.08,0,0-3.027-2.746-4.685-3.363C51.3,46.159,30.3,35.576,30.3,35.576s-2.39-.643-1.13,1.3S103.89,95.791,103.89,95.791Z" transform="translate(-28.497 -35.16)" fill="#f7f7f8"/>
                  <path id="Path_24065" data-name="Path 24065" d="M108.133,98.253a1.036,1.036,0,0,0,.6-.157,1.478,1.478,0,0,0,.669-1.152,2.842,2.842,0,0,0-1.354-2.128C106.1,93.328,65.228,56.781,59.768,50.768c-.147-.125-3.114-2.813-4.8-3.443-3.29-1.216-24.109-11.686-24.323-11.811a3.374,3.374,0,0,0-.909-.138.964.964,0,0,0-.938.426c-.189.358-.08.816.326,1.456C30.412,39.238,100.9,93.93,103.9,96.266,104.213,96.474,106.805,98.253,108.133,98.253ZM29.733,36a2.861,2.861,0,0,1,.691.1c.8.416,21,10.589,24.31,11.821,1.587.586,4.563,3.264,4.6,3.3,5.434,5.99,46.4,42.608,48.323,44.087a2.323,2.323,0,0,1,1.114,1.619.83.83,0,0,1-.39.656.519.519,0,0,1-.243.051c-.954,0-3.11-1.354-3.866-1.875C78.936,76.106,30.719,38.5,29.644,36.909c-.32-.49-.333-.742-.3-.8S29.509,36,29.733,36Z" transform="translate(-28.706 -35.376)" fill="#cecfd1"/>
                </g>
                <g id="Group_24723" data-name="Group 24723" transform="translate(59.644 99.526)">
                  <path id="Path_24066" data-name="Path 24066" d="M106.143,98.915s1.206,1.1,2.118.458c.931-.634.883-1.21.253-3.046S67,56.112,61.451,49.993c0,0-3.027-2.739-4.688-3.338-3.338-1.248-24.336-11.83-24.336-11.83S28.5,33.648,28.763,37.92C28.917,40.243,106.143,98.915,106.143,98.915Z" transform="translate(-28.438 -34.358)" fill="#d9dadc"/>
                  <path id="Path_24067" data-name="Path 24067" d="M107.846,100.11a1.516,1.516,0,0,0,.819-.256c1.126-.778.982-1.6.355-3.4-.355-1.014-10.378-10.72-25.613-25.392C73.59,61.617,64.348,52.7,61.891,50.011c-.141-.134-3.107-2.813-4.8-3.446C53.8,45.345,32.988,34.859,32.78,34.772a3.841,3.841,0,0,0-1.261-.2,2.836,2.836,0,0,0-2.106.8,3.617,3.617,0,0,0-.746,2.781c.157,2.355,64.589,51.411,77.5,61.219A2.817,2.817,0,0,0,107.846,100.11ZM31.52,35.2a4.111,4.111,0,0,1,1.027.131c.806.413,21.008,10.586,24.317,11.824,1.594.573,4.563,3.264,4.592,3.3,2.438,2.688,11.709,11.594,21.514,21.053,11.718,11.3,25.011,24.086,25.462,25.155.65,1.9.56,2.192-.118,2.675a.822.822,0,0,1-.467.138,2.286,2.286,0,0,1-1.277-.57C75.945,75.633,30.108,40.254,29.286,38.094a2.993,2.993,0,0,1,.589-2.282A2.161,2.161,0,0,1,31.52,35.2Z" transform="translate(-28.653 -34.577)" fill="#cecfd1"/>
                </g>
                <g id="Group_24724" data-name="Group 24724" transform="translate(60.722 99.674)">
                  <path id="Path_24068" data-name="Path 24068" d="M105.068,98.813s1.206,1.1,2.118.458c.931-.634.883-1.21.253-3.046S65.922,56.009,60.377,49.891c0,0-3.027-2.739-4.688-3.338-3.338-1.248-24.336-11.83-24.336-11.83s-4.81.224-1.35,2.762C59.353,58.851,105.068,98.813,105.068,98.813Z" transform="translate(-28.44 -34.403)" fill="#fff"/>
                  <path id="Path_24069" data-name="Path 24069" d="M106.769,100.009a1.516,1.516,0,0,0,.819-.256c1.126-.778.982-1.6.355-3.4-.355-1.014-10.378-10.72-25.613-25.392C72.513,61.516,63.271,52.6,60.813,49.909c-.141-.134-3.107-2.813-4.8-3.446-3.286-1.219-24.1-11.706-24.307-11.792a.257.257,0,0,0-.163-.048c-.419.019-2.534.186-2.842,1.245-.2.6.246,1.29,1.334,2.074,29.008,21.13,74.576,60.915,75.04,61.315A2.845,2.845,0,0,0,106.769,100.009ZM31.5,35.25c1.581.81,21.053,10.586,24.288,11.808,1.594.573,4.563,3.264,4.592,3.3,2.438,2.688,11.709,11.594,21.514,21.053C93.61,82.7,106.9,95.494,107.354,96.562c.65,1.9.56,2.192-.118,2.675a.822.822,0,0,1-.467.138,2.423,2.423,0,0,1-1.277-.57C105.031,98.4,59.431,58.569,30.4,37.439c-1.117-.819-1.152-1.251-1.107-1.4C29.428,35.583,30.666,35.311,31.5,35.25Z" transform="translate(-28.653 -34.623)" fill="#cecfd1"/>
                </g>
                <g id="Group_24725" data-name="Group 24725" transform="translate(55.323)">
                  <path id="Path_24070" data-name="Path 24070" d="M69.253,5.861s.352-1.6-.662-2.08S67.1,3.643,65.848,5.112C64.571,6.577,51.861,61.346,49.362,69.24c0,0-.864,4-.55,5.75.6,3.52,1.978,27.05,1.978,27.05s.957,4,4.522,1.61C57.246,102.347,69.253,5.861,69.253,5.861Z" transform="translate(-48.426 -3.25)" fill="#d9dadc"/>
                  <path id="Path_24071" data-name="Path 24071" d="M53.462,104.944a4.18,4.18,0,0,0,2.24-.806c1.952-1.312,12.07-81.879,14.074-98.013.022-.051.384-1.821-.848-2.394-1.219-.6-1.77-.16-3.1,1.392-.7.822-4.064,14.4-9.123,35.027C53.446,53.382,50.384,65.9,49.28,69.369c-.042.192-.88,4.118-.563,5.9.592,3.462,1.962,26.79,1.978,27.024C50.733,102.448,51.344,104.944,53.462,104.944ZM68.054,4.121a1.43,1.43,0,0,1,.621.176c.768.352.486,1.7.486,1.718C64.4,44.278,56.787,101.84,55.325,103.642a3.567,3.567,0,0,1-1.862.688c-1.619,0-2.144-2.115-2.157-2.128-.035-.906-1.373-23.539-1.978-27.034-.285-1.674.544-5.6.56-5.638C50.982,66.064,54.054,53.542,57.3,40.3c3.9-15.869,8.291-33.853,9-34.758C67.123,4.582,67.6,4.121,68.054,4.121Z" transform="translate(-48.645 -3.475)" fill="#cecfd1"/>
                </g>
                <g id="Group_24726" data-name="Group 24726" transform="translate(58.605 0.089)">
                  <path id="Path_24072" data-name="Path 24072" d="M65.973,8.514s.358-4.3-.656-4.781-1.83.355-2.051,2c-.25,1.917-11.4,56.2-13.9,64.09,0,0-.858,4.006-.557,5.757.6,3.517,1.994,27.043,1.994,27.043s.611,2.4,1.677.314C53.525,100.873,65.973,8.514,65.973,8.514Z" transform="translate(-48.434 -3.292)" fill="#fff"/>
                  <path id="Path_24073" data-name="Path 24073" d="M51.847,104.322c.4,0,.762-.333,1.11-1.014C54.02,101.2,65.985,12.537,66.481,8.77c.1-1.075.294-4.579-.835-5.1a1.383,1.383,0,0,0-.662-.166c-.95,0-1.622.9-1.818,2.4C62.849,8.335,51.732,62.22,49.274,69.938c-.038.2-.877,4.122-.557,5.9.582,3.472,1.971,26.79,1.971,27.034C50.759,103.145,51.1,104.322,51.847,104.322ZM64.983,4.117a.95.95,0,0,1,.41.118c.5.224.634,2.5.474,4.458C61.572,40.565,53.23,101.3,52.4,103.023c-.33.675-.554.675-.554.675-.147,0-.416-.461-.544-.934-.048-.9-1.386-23.526-1.971-27.037-.288-1.654.534-5.59.56-5.632C52.337,62.37,63.47,8.425,63.783,5.983,63.937,4.837,64.378,4.117,64.983,4.117Z" transform="translate(-48.645 -3.503)" fill="#cecfd1"/>
                </g>
                <g id="Group_24727" data-name="Group 24727" transform="translate(62.751 94.621)">
                  <path id="Path_24074" data-name="Path 24074" d="M58.174,38.05c0,2.714-1.738,4.922-3.872,4.922S50.43,40.763,50.43,38.05s1.744-4.909,3.872-4.909S58.174,35.339,58.174,38.05Z" transform="translate(-50.116 -32.831)" fill="#f7f7f8"/>
                  <path id="Path_24075" data-name="Path 24075" d="M54.518,43.492c2.3,0,4.186-2.355,4.186-5.229s-1.882-5.219-4.186-5.219-4.186,2.346-4.186,5.219S52.217,43.492,54.518,43.492Zm0-9.824c1.968,0,3.558,2.067,3.558,4.6s-1.59,4.6-3.558,4.6-3.558-2.07-3.558-4.6S52.556,33.668,54.518,33.668Z" transform="translate(-50.332 -33.044)" fill="#cecfd1"/>
                </g>
                <g id="Group_24728" data-name="Group 24728" transform="translate(48.872 93.424)">
                  <path id="Path_24076" data-name="Path 24076" d="M54.256,32.774l8.528.035a4.882,4.882,0,0,1,.534-.042c2.64,0,10.931,2.7,10.931,6.054,0,3.325-8.291,6.038-10.931,6.038a2.445,2.445,0,0,0-.534.115H54.256c-2.646,0-4.819-2.739-4.819-6.106S51.61,32.774,54.256,32.774Z" transform="translate(-49.136 -32.454)" fill="#f7f7f8"/>
                  <path id="Path_24077" data-name="Path 24077" d="M54.457,45.5h8.528c.029,0,.061,0,.093,0a1.728,1.728,0,0,1,.442-.093c2.64,0,11.251-2.726,11.251-6.365,0-3.654-8.611-6.368-11.251-6.368a2.524,2.524,0,0,0-.579.058l-8.483-.058c-2.822,0-5.12,2.88-5.12,6.416S51.635,45.5,54.457,45.5Zm8.483-.618H54.457c-2.48,0-4.493-2.592-4.493-5.8,0-3.187,2.013-5.789,4.493-5.789l8.528.035a4.329,4.329,0,0,1,.534-.035c2.528,0,10.621,2.643,10.621,5.741,0,3.082-8.093,5.738-10.621,5.738A2.372,2.372,0,0,0,62.94,44.881Z" transform="translate(-49.337 -32.67)" fill="#cecfd1"/>
                </g>
                <g id="Group_24729" data-name="Group 24729" transform="translate(48.872 93.424)" style="mix-blend-mode: multiply;isolation: isolate">
                  <path id="Path_24078" data-name="Path 24078" d="M57.158,32.774l8.528.035a4.882,4.882,0,0,1,.534-.042,10.067,10.067,0,0,1,1.645.192,3.2,3.2,0,0,0-1.376,1.03,8.2,8.2,0,0,0-1.411,4.285c-.141,1.648-.227,4.714.784,6.65l-.176.051H57.158c-2.646,0-4.819-2.739-4.819-6.106S54.512,32.774,57.158,32.774Z" transform="translate(-52.038 -32.454)" fill="#cecfd1"/>
                  <path id="Path_24079" data-name="Path 24079" d="M57.363,45.5h8.528c.029,0,.061,0,.093,0a1.258,1.258,0,0,0,.17-.054.315.315,0,0,0,.2-.166.372.372,0,0,0,0-.275c-.97-1.837-.9-4.861-.765-6.486a7.878,7.878,0,0,1,1.36-4.115,2.729,2.729,0,0,1,1.232-.922.317.317,0,0,0,.2-.317.31.31,0,0,0-.253-.285,9.26,9.26,0,0,0-1.7-.2,2.524,2.524,0,0,0-.579.058l-8.483-.058c-2.822,0-5.12,2.88-5.12,6.416S54.54,45.5,57.363,45.5Zm8.234-.618H57.363c-2.48,0-4.493-2.592-4.493-5.8,0-3.187,2.013-5.789,4.493-5.789l8.528.035a4.285,4.285,0,0,1,1.229.019,3.468,3.468,0,0,0-.662.656,8.46,8.46,0,0,0-1.491,4.464A14.788,14.788,0,0,0,65.6,44.881Z" transform="translate(-52.243 -32.67)" fill="#f7f7f8"/>
                </g>
                <path id="Path_24080" data-name="Path 24080" d="M58.264,36.531c2.938.048,5.878,0,8.8-.045,2.064-.022,5.555-.064,6.979-1.811-.1,3.318-8.3,5.99-10.928,5.99a2.445,2.445,0,0,0-.534.115H54.049c-2.192,0-4.026-1.862-4.611-4.4C52.363,36.723,55.326,36.464,58.264,36.531Z" transform="translate(-0.057 65.165)" fill="#cecfd1" style="mix-blend-mode: multiply;isolation: isolate"/>
                <g id="Group_24730" data-name="Group 24730" transform="translate(0 101.021)">
                  <path id="Path_24081" data-name="Path 24081" d="M56.874,118.688s-.826,1.4-1.9,1.078c-1.066-.352-1.174-.925-1.1-2.864S82,66.247,85.562,58.765c0,0,2.112-3.514,3.514-4.582,2.858-2.16,19.91-18.426,19.91-18.426s3.427-2.272,4.4,1.907C113.917,39.926,56.874,118.688,56.874,118.688Z" transform="translate(-53.538 -34.832)" fill="#d9dadc"/>
                  <path id="Path_24082" data-name="Path 24082" d="M55.536,120.331h0c1.069,0,1.8-1.222,1.824-1.277C66.884,105.9,114.445,40.1,113.911,37.8c-.528-2.282-1.782-2.755-2.742-2.755a4.252,4.252,0,0,0-2.131.675c-.211.186-17.123,16.3-19.917,18.435-1.45,1.094-3.514,4.525-3.606,4.662-1.571,3.315-7.859,14.56-14.528,26.458-10.365,18.534-17.162,30.762-17.2,31.83-.09,1.923.013,2.742,1.315,3.165A1.809,1.809,0,0,0,55.536,120.331Zm55.632-84.656c1.062,0,1.786.762,2.138,2.282-.16,2.269-33.85,49.549-56.455,80.752-.186.3-.733,1-1.315,1h0a1.271,1.271,0,0,1-.246-.035c-.778-.246-.963-.518-.877-2.544.1-1.126,9.152-17.283,17.123-31.536C78.2,73.681,84.493,62.42,86.077,59.118c0,0,2.074-3.44,3.411-4.47,2.832-2.147,19.222-17.766,19.946-18.461h0A3.813,3.813,0,0,1,111.168,35.674Z" transform="translate(-53.759 -35.044)" fill="#cecfd1"/>
                </g>
                <g id="Group_24731" data-name="Group 24731" transform="translate(0.293 103.014)">
                  <path id="Path_24083" data-name="Path 24083" d="M58.433,115.326s-2.672,3.382-3.75,3.066c-1.066-.352-1.1-1.53-.134-2.88,1.126-1.574,30-48.861,33.562-56.343,0,0,2.1-3.52,3.514-4.592,2.838-2.144,19.91-18.413,19.91-18.413s2.1-1.347,1.443.909C112.328,39.3,58.433,115.326,58.433,115.326Z" transform="translate(-53.544 -35.451)" fill="#fff"/>
                  <path id="Path_24084" data-name="Path 24084" d="M55.062,118.925h0c1.248,0,3.4-2.656,3.824-3.19,2.208-3.12,53.943-76.1,54.6-78.371a1.6,1.6,0,0,0-.032-1.414.759.759,0,0,0-.634-.282,2.562,2.562,0,0,0-1.238.451c-.218.2-17.139,16.307-19.939,18.426-1.434,1.1-3.507,4.528-3.594,4.682-3.494,7.338-32.109,54.33-33.536,56.317a2.9,2.9,0,0,0-.685,2.448,1.432,1.432,0,0,0,.973.909A1.112,1.112,0,0,0,55.062,118.925Zm57.76-82.631c.1,0,.134.022.141.032.016.035.115.211-.067.858-.57,1.83-35.907,51.936-54.512,78.176-.9,1.126-2.6,2.947-3.322,2.947h0c-.022,0-.045-.01-.067-.01a.836.836,0,0,1-.573-.518,2.333,2.333,0,0,1,.6-1.859c1.427-2.013,30.1-49.082,33.584-56.391.016-.006,2.077-3.466,3.424-4.486C94.86,52.909,111.27,37.264,111.968,36.6A2.2,2.2,0,0,1,112.822,36.294Z" transform="translate(-53.756 -35.667)" fill="#cecfd1"/>
                </g>
              </g>
              <g id="Group_24737" data-name="Group 24737" transform="translate(23.154 404.561)">
                <g id="Group_24733" data-name="Group 24733" transform="translate(7.094 2.922)">
                  <path id="Path_24085" data-name="Path 24085" d="M59.224,139.747a2.315,2.315,0,0,0,2.31,2.307h7.5a2.312,2.312,0,0,0,2.307-2.307V133.21a2.3,2.3,0,0,0-2.307-2.3h-7.5a2.307,2.307,0,0,0-2.31,2.3Z" transform="translate(-58.92 -130.595)" fill="#f7f7f8"/>
                  <path id="Path_24086" data-name="Path 24086" d="M61.741,142.589h7.5a2.639,2.639,0,0,0,2.618-2.624v-6.538a2.616,2.616,0,0,0-2.618-2.614h-7.5a2.611,2.611,0,0,0-2.614,2.614v6.538A2.634,2.634,0,0,0,61.741,142.589Zm7.5-11.155a2.006,2.006,0,0,1,1.994,1.994v6.538a2,2,0,0,1-1.994,2h-7.5a2,2,0,0,1-1.99-2v-6.538a2,2,0,0,1,1.99-1.994Z" transform="translate(-59.127 -130.813)" fill="#5c5e61"/>
                </g>
                <g id="Group_24734" data-name="Group 24734" transform="translate(0)">
                  <path id="Path_24087" data-name="Path 24087" d="M59.56,143.226a3.473,3.473,0,0,0,3.459,3.456H74.248a3.46,3.46,0,0,0,3.446-3.456v-9.766A3.457,3.457,0,0,0,74.248,130H63.019a3.47,3.47,0,0,0-3.459,3.462Z" transform="translate(-59.256 -129.687)" fill="#f7f7f8"/>
                  <path id="Path_24088" data-name="Path 24088" d="M63.228,147.206H74.457a3.763,3.763,0,0,0,3.75-3.766v-9.766a3.771,3.771,0,0,0-3.75-3.773H63.228a3.775,3.775,0,0,0-3.763,3.773v9.766A3.768,3.768,0,0,0,63.228,147.206Zm11.229-16.678a3.16,3.16,0,0,1,3.139,3.146v9.766a3.149,3.149,0,0,1-3.139,3.142H63.228a3.138,3.138,0,0,1-3.133-3.142v-9.766a3.149,3.149,0,0,1,3.133-3.146Z" transform="translate(-59.465 -129.9)" fill="#5c5e61"/>
                </g>
                <path id="Rectangle_6442" data-name="Rectangle 6442" d="M.877,0h12.98a.874.874,0,0,1,.874.874V12.68a.876.876,0,0,1-.876.876H.876A.876.876,0,0,1,0,12.68V.877A.877.877,0,0,1,.877,0Z" transform="translate(1.843 2.032)" fill="#d0d2d4" style="mix-blend-mode: multiply;isolation: isolate"/>
                <g id="Group_24735" data-name="Group 24735" transform="translate(15.786 1.261)">
                  <path id="Path_24089" data-name="Path 24089" d="M60.05,130.835a.538.538,0,0,0,.541.547.544.544,0,0,0,0-1.088A.536.536,0,0,0,60.05,130.835Z" transform="translate(-60.05 -130.294)" fill="#5c5e61" opacity="0.6" style="mix-blend-mode: multiply;isolation: isolate"/>
                  <path id="Path_24090" data-name="Path 24090" d="M60.05,135.134a.535.535,0,0,0,.541.534.544.544,0,0,0,.544-.534.536.536,0,0,0-.544-.528A.527.527,0,0,0,60.05,135.134Z" transform="translate(-60.05 -120.808)" fill="#5c5e61" opacity="0.6" style="mix-blend-mode: multiply;isolation: isolate"/>
                </g>
                <g id="Group_24736" data-name="Group 24736" transform="translate(1.843 1.261)">
                  <path id="Path_24091" data-name="Path 24091" d="M64.411,130.835a.536.536,0,1,0,.538-.541A.541.541,0,0,0,64.411,130.835Z" transform="translate(-64.411 -130.294)" fill="#5c5e61" opacity="0.6" style="mix-blend-mode: multiply;isolation: isolate"/>
                  <path id="Path_24092" data-name="Path 24092" d="M64.411,135.134a.536.536,0,0,0,1.072,0,.536.536,0,0,0-1.072,0Z" transform="translate(-64.411 -120.808)" fill="#5c5e61" opacity="0.6" style="mix-blend-mode: multiply;isolation: isolate"/>
                </g>
              </g>
            </g>
            <g id="Group_24761" data-name="Group 24761" transform="translate(113.558 134.703)">
              <g id="Group_24755" data-name="Group 24755" transform="translate(0)">
                <g id="Group_24741" data-name="Group 24741" transform="translate(23.122 69.179)">
                  <g id="Group_24739" data-name="Group 24739">
                    <path id="Path_24093" data-name="Path 24093" d="M36.93,67.267H35.848l-4.717-.011H29.775l-4.83,218.188,3.876.012,7.711.019h3.878Z" transform="translate(-24.732 -67.039)" fill="#f7f7f8"/>
                    <path id="Path_24094" data-name="Path 24094" d="M40.559,285.841a.225.225,0,0,0,.211-.218L37.292,67.409a.208.208,0,0,0-.2-.2l-7.165-.016h0a.217.217,0,0,0-.211.211L24.879,285.592a.248.248,0,0,0,.054.16.255.255,0,0,0,.16.054l15.466.035ZM36.876,67.626l3.462,217.789L25.3,285.387,30.137,67.614Z" transform="translate(-24.879 -67.188)" fill="#cecfd1"/>
                  </g>
                  <g id="Group_24740" data-name="Group 24740" transform="translate(0.213 0.217)" style="mix-blend-mode: multiply;isolation: isolate">
                    <path id="Path_24095" data-name="Path 24095" d="M27.432,285.444l4.83-218.188h1.356l1.322,0v218.2l-3.631-.006Z" transform="translate(-27.432 -67.256)" fill="#cecfd1"/>
                  </g>
                </g>
                <g id="Group_24744" data-name="Group 24744" transform="translate(21.254 60.959)">
                  <g id="Group_24742" data-name="Group 24742" transform="translate(0)">
                    <path id="Path_24096" data-name="Path 24096" d="M40.287,77.839H29.1v-.013a1.231,1.231,0,0,1-.355-.054,3.666,3.666,0,0,1-2.9-3.488v-9.6H40.287Z" transform="translate(-25.641 -64.476)" fill="#f7f7f8"/>
                    <path id="Path_24097" data-name="Path 24097" d="M29.246,78.2H40.43a.217.217,0,0,0,.218-.214V64.827a.21.21,0,0,0-.218-.208H26a.208.208,0,0,0-.211.208v9.6a3.919,3.919,0,0,0,3.075,3.7,1.909,1.909,0,0,0,.33.061Zm10.979-.432H29.3l-.045-.006a.8.8,0,0,1-.294-.051A3.417,3.417,0,0,1,26.213,74.4v-9.35H40.226Z" transform="translate(-25.784 -64.619)" fill="#cecfd1"/>
                  </g>
                  <path id="Path_24098" data-name="Path 24098" d="M25.852,66.675V69.9a3.666,3.666,0,0,0,2.9,3.488,1.231,1.231,0,0,0,.355.054v.013H40.287V66.675Z" transform="translate(-25.641 -60.096)" fill="#cecfd1" style="mix-blend-mode: multiply;isolation: isolate"/>
                  <g id="Group_24743" data-name="Group 24743" transform="translate(11.261)">
                    <path id="Path_24099" data-name="Path 24099" d="M27.984,64.684h3.382v9.6a3.665,3.665,0,0,1-2.9,3.488,1.314,1.314,0,0,1-.787,0,3.66,3.66,0,0,1-2.9-3.488v-9.6Z" transform="translate(-24.563 -64.476)" fill="#f7f7f8"/>
                    <path id="Path_24100" data-name="Path 24100" d="M28.219,78.2a1.385,1.385,0,0,0,.48-.09h0a3.871,3.871,0,0,0,3.027-3.658l.006-9.622a.208.208,0,0,0-.211-.208H24.939a.213.213,0,0,0-.221.208v9.6a3.933,3.933,0,0,0,3.085,3.7A1.409,1.409,0,0,0,28.219,78.2Zm3.088-13.149v9.379A3.47,3.47,0,0,1,28.6,77.7a1.07,1.07,0,0,1-.7.006A3.42,3.42,0,0,1,25.156,74.4v-9.35Z" transform="translate(-24.718 -64.619)" fill="#cecfd1"/>
                  </g>
                </g>
                <g id="Group_24745" data-name="Group 24745" transform="translate(40.621 69.541)">
                  <path id="Path_24101" data-name="Path 24101" d="M58.41,108.458s2.406,1.68,3.027,1.245.429-1.2-.47-1.891c-1.04-.8-29.13-25.866-32.909-30.026a15.469,15.469,0,0,0-3.194-2.291c-2.272-.848-16.579-8.058-16.579-8.058S6.656,67,7.52,68.323,58.41,108.458,58.41,108.458Z" transform="translate(-7.053 -67.155)" fill="#f7f7f8"/>
                  <path id="Path_24102" data-name="Path 24102" d="M61.31,110.13a.711.711,0,0,0,.406-.1,1.012,1.012,0,0,0,.451-.787,1.945,1.945,0,0,0-.925-1.45c-1.318-1.014-29.165-25.91-32.886-30.006a15.313,15.313,0,0,0-3.274-2.342c-2.234-.829-16.419-7.958-16.56-8.045a2.2,2.2,0,0,0-.624-.1.668.668,0,0,0-.64.288c-.128.243-.051.557.227.992.874,1.347,48.9,38.608,50.938,40.2A7.963,7.963,0,0,0,61.31,110.13ZM7.9,67.723a1.857,1.857,0,0,1,.47.074c.544.282,14.307,7.206,16.563,8.051a15.12,15.12,0,0,1,3.13,2.246c3.7,4.083,31.606,29.024,32.918,30.029a1.611,1.611,0,0,1,.758,1.1.58.58,0,0,1-.269.448.39.39,0,0,1-.16.038,7.512,7.512,0,0,1-2.637-1.283c-17.254-13.386-50.1-39-50.835-40.083-.218-.336-.227-.509-.2-.547S7.745,67.723,7.9,67.723Z" transform="translate(-7.199 -67.301)" fill="#cecfd1"/>
                </g>
                <g id="Group_24746" data-name="Group 24746" transform="translate(40.629 67.8)">
                  <path id="Path_24103" data-name="Path 24103" d="M59.955,110.583s.819.749,1.44.314.6-.826.173-2.074S33.286,81.428,29.51,77.258a15.05,15.05,0,0,0-3.2-2.275c-2.275-.851-16.573-8.058-16.573-8.058a1.842,1.842,0,0,0-2.5,2.112C7.344,70.615,59.955,110.583,59.955,110.583Z" transform="translate(-7.02 -66.609)" fill="#d9dadc"/>
                  <path id="Path_24104" data-name="Path 24104" d="M61.11,111.4a1.114,1.114,0,0,0,.563-.173c.765-.531.662-1.091.237-2.317-.237-.691-7.066-7.3-17.45-17.3C37.775,85.176,31.478,79.1,29.8,77.269a15.342,15.342,0,0,0-3.27-2.346c-2.24-.832-16.413-7.974-16.56-8.038a2.906,2.906,0,0,0-.858-.128,1.945,1.945,0,0,0-1.434.541,2.474,2.474,0,0,0-.509,1.894c.106,1.606,44,35.024,52.791,41.7A1.911,1.911,0,0,0,61.11,111.4ZM9.116,67.183a2.8,2.8,0,0,1,.7.09c.554.282,14.314,7.21,16.57,8.051a14.963,14.963,0,0,1,3.126,2.25c1.658,1.83,7.978,7.9,14.653,14.339,7.984,7.7,17.037,16.41,17.347,17.136.445,1.3.378,1.494-.083,1.824a.546.546,0,0,1-.317.093,1.556,1.556,0,0,1-.87-.387C39.378,94.722,8.156,70.623,7.6,69.151a2.063,2.063,0,0,1,.4-1.555A1.481,1.481,0,0,1,9.116,67.183Z" transform="translate(-7.163 -66.757)" fill="#cecfd1"/>
                </g>
                <g id="Group_24747" data-name="Group 24747" transform="translate(41.362 67.899)">
                  <path id="Path_24105" data-name="Path 24105" d="M59.218,110.514s.819.749,1.44.314.6-.826.173-2.074-28.282-27.4-32.058-31.565a15.05,15.05,0,0,0-3.2-2.275C23.3,74.062,9,66.856,9,66.856s-3.28.154-.918,1.882C28.075,83.291,59.218,110.514,59.218,110.514Z" transform="translate(-7.015 -66.638)" fill="#fff"/>
                  <path id="Path_24106" data-name="Path 24106" d="M60.377,111.329a1.114,1.114,0,0,0,.563-.173c.765-.531.662-1.091.237-2.317-.237-.691-7.066-7.3-17.45-17.3C37.042,85.108,30.745,79.031,29.071,77.2a15.342,15.342,0,0,0-3.27-2.346c-2.24-.832-16.413-7.974-16.56-8.038a.213.213,0,0,0-.109-.029c-.288.013-1.728.125-1.939.851-.131.41.173.874.912,1.408,19.757,14.394,50.8,41.5,51.117,41.77A1.913,1.913,0,0,0,60.377,111.329ZM9.1,67.217c1.072.55,14.339,7.21,16.547,8.038a14.963,14.963,0,0,1,3.126,2.25c1.658,1.83,7.978,7.9,14.653,14.339,7.984,7.7,17.037,16.41,17.347,17.136.445,1.3.378,1.494-.083,1.824a.546.546,0,0,1-.317.093,1.638,1.638,0,0,1-.87-.387C59.193,110.228,28.13,83.1,8.354,68.7c-.765-.554-.784-.851-.755-.95C7.692,67.441,8.534,67.255,9.1,67.217Z" transform="translate(-7.163 -66.788)" fill="#cecfd1"/>
                </g>
                <g id="Group_24748" data-name="Group 24748" transform="translate(37.686)">
                  <path id="Path_24107" data-name="Path 24107" d="M34.821,47.193s.24-1.085-.448-1.418-1.018-.093-1.872.909S22.974,84.994,21.269,90.37a15.213,15.213,0,0,0-.374,3.917c.41,2.4,1.347,18.426,1.347,18.426a1.836,1.836,0,0,0,3.078,1.1C26.645,112.924,34.821,47.193,34.821,47.193Z" transform="translate(-20.635 -45.415)" fill="#d9dadc"/>
                  <path id="Path_24108" data-name="Path 24108" d="M24.062,114.691a2.813,2.813,0,0,0,1.523-.55c1.331-.893,8.224-55.779,9.59-66.765.016-.035.259-1.242-.576-1.635s-1.21-.106-2.118.95C32,47.254,29.716,56.5,26.27,70.557c-2.221,9.011-4.307,17.536-5.053,19.9a15.157,15.157,0,0,0-.387,4.016c.4,2.362,1.338,18.253,1.347,18.41C22.2,113,22.619,114.691,24.062,114.691ZM34,46.013a.988.988,0,0,1,.426.115c.522.243.33,1.158.33,1.171-3.245,26.07-8.432,65.28-9.424,66.5a2.4,2.4,0,0,1-1.27.467c-1.107,0-1.459-1.44-1.472-1.446-.022-.618-.931-16.035-1.341-18.416a15.136,15.136,0,0,1,.378-3.843c.749-2.355,2.838-10.89,5.056-19.907,2.653-10.813,5.645-23.059,6.128-23.68C33.367,46.323,33.7,46.013,34,46.013Z" transform="translate(-20.782 -45.569)" fill="#cecfd1"/>
                </g>
                <g id="Group_24749" data-name="Group 24749" transform="translate(39.919 0.059)">
                  <path id="Path_24109" data-name="Path 24109" d="M32.588,49s.243-2.925-.445-3.258-1.251.246-1.4,1.366c-.173,1.309-7.77,38.285-9.472,43.658a15.48,15.48,0,0,0-.381,3.92c.41,2.4,1.36,18.426,1.36,18.426s.419,1.635,1.142.214S32.588,49,32.588,49Z" transform="translate(-20.64 -45.442)" fill="#fff"/>
                  <path id="Path_24110" data-name="Path 24110" d="M22.964,114.273c.269,0,.518-.23.755-.7.73-1.434,8.877-61.831,9.213-64.4.074-.733.2-3.117-.566-3.478a1.012,1.012,0,0,0-.454-.112c-.643,0-1.107.614-1.238,1.638-.214,1.654-7.786,38.365-9.466,43.619a15.754,15.754,0,0,0-.378,4.019c.4,2.365,1.344,18.25,1.344,18.416C22.224,113.467,22.455,114.273,22.964,114.273ZM31.911,46.01a.719.719,0,0,1,.282.077c.342.157.432,1.706.323,3.04-2.931,21.712-8.611,63.085-9.174,64.256-.224.461-.378.461-.378.461-.1,0-.282-.314-.371-.637-.038-.614-.938-16.029-1.344-18.416a14.888,14.888,0,0,1,.384-3.837c1.664-5.261,9.248-42.01,9.462-43.674C31.2,46.5,31.5,46.01,31.911,46.01Z" transform="translate(-20.781 -45.588)" fill="#cecfd1"/>
                </g>
                <g id="Group_24750" data-name="Group 24750" transform="translate(42.742 64.459)">
                  <path id="Path_24111" data-name="Path 24111" d="M27.272,69.123c0,1.846-1.181,3.35-2.63,3.35S22,70.969,22,69.123s1.187-3.344,2.643-3.344S27.272,67.273,27.272,69.123Z" transform="translate(-21.78 -65.568)" fill="#f7f7f8"/>
                  <path id="Path_24112" data-name="Path 24112" d="M24.793,72.823c1.565,0,2.842-1.6,2.842-3.555s-1.277-3.555-2.842-3.555-2.861,1.6-2.861,3.555S23.218,72.823,24.793,72.823Zm0-6.685c1.334,0,2.416,1.4,2.416,3.13S26.127,72.4,24.793,72.4s-2.429-1.414-2.429-3.136S23.452,66.139,24.793,66.139Z" transform="translate(-21.932 -65.713)" fill="#cecfd1"/>
                </g>
                <g id="Group_24751" data-name="Group 24751" transform="translate(33.289 63.643)">
                  <path id="Path_24113" data-name="Path 24113" d="M24.6,65.53l5.808.026a2.758,2.758,0,0,1,.362-.032c1.8,0,7.45,1.843,7.45,4.125,0,2.266-5.651,4.112-7.45,4.112a1.755,1.755,0,0,0-.362.077H24.6c-1.808,0-3.283-1.859-3.283-4.154S22.8,65.53,24.6,65.53Z" transform="translate(-21.113 -65.313)" fill="#f7f7f8"/>
                  <path id="Path_24114" data-name="Path 24114" d="M24.744,74.2h5.808a.207.207,0,0,0,.061-.006,1.3,1.3,0,0,1,.3-.064c1.8,0,7.667-1.853,7.667-4.333s-5.869-4.336-7.667-4.336a1.616,1.616,0,0,0-.39.038l-5.779-.038c-1.926,0-3.491,1.962-3.491,4.371S22.818,74.2,24.744,74.2Zm5.779-.422H24.744c-1.69,0-3.062-1.766-3.062-3.946s1.373-3.946,3.062-3.946l5.808.026a2.616,2.616,0,0,1,.362-.026c1.722,0,7.242,1.8,7.242,3.91S32.635,73.7,30.914,73.7A1.631,1.631,0,0,0,30.523,73.775Z" transform="translate(-21.253 -65.458)" fill="#cecfd1"/>
                </g>
                <g id="Group_24752" data-name="Group 24752" transform="translate(33.289 63.643)" style="mix-blend-mode: multiply;isolation: isolate">
                  <path id="Path_24115" data-name="Path 24115" d="M26.58,65.53l5.808.026a2.758,2.758,0,0,1,.362-.032,7.037,7.037,0,0,1,1.126.131,2.166,2.166,0,0,0-.941.7,5.614,5.614,0,0,0-.963,2.918,9.317,9.317,0,0,0,.534,4.534l-.118.029H26.58c-1.808,0-3.283-1.859-3.283-4.154S24.772,65.53,26.58,65.53Z" transform="translate(-23.089 -65.313)" fill="#cecfd1"/>
                  <path id="Path_24116" data-name="Path 24116" d="M26.724,74.2h5.808a.207.207,0,0,0,.061-.006.6.6,0,0,0,.118-.035.2.2,0,0,0,.134-.112.241.241,0,0,0,0-.189,9.192,9.192,0,0,1-.522-4.416,5.363,5.363,0,0,1,.928-2.8A1.881,1.881,0,0,1,34.09,66a.2.2,0,0,0,.134-.214.211.211,0,0,0-.173-.192,6.711,6.711,0,0,0-1.158-.138,1.616,1.616,0,0,0-.39.038l-5.779-.038c-1.926,0-3.491,1.962-3.491,4.371S24.8,74.2,26.724,74.2Zm5.61-.422h-5.61c-1.69,0-3.062-1.766-3.062-3.946s1.373-3.946,3.062-3.946l5.808.026a2.816,2.816,0,0,1,.835.01,2.733,2.733,0,0,0-.451.451A5.745,5.745,0,0,0,31.9,69.407,10.03,10.03,0,0,0,32.333,73.775Z" transform="translate(-23.233 -65.458)" fill="#f7f7f8"/>
                </g>
                <path id="Path_24117" data-name="Path 24117" d="M27.338,68.088c2,.032,4,0,5.987-.032,1.411-.016,3.786-.045,4.758-1.232-.07,2.256-5.658,4.077-7.446,4.077a1.755,1.755,0,0,0-.362.077H24.468a3.5,3.5,0,0,1-3.146-3C23.319,68.216,25.335,68.04,27.338,68.088Z" transform="translate(12.313 1.191)" fill="#cecfd1" style="mix-blend-mode: multiply;isolation: isolate"/>
                <g id="Group_24753" data-name="Group 24753" transform="translate(0 68.818)">
                  <path id="Path_24118" data-name="Path 24118" d="M26.387,124.054s-.563.95-1.3.733c-.73-.237-.8-.63-.749-1.949S43.5,88.329,45.93,83.232a15.617,15.617,0,0,1,2.394-3.123c1.946-1.472,13.562-12.547,13.562-12.547a1.836,1.836,0,0,1,3,1.3C65.245,70.4,26.387,124.054,26.387,124.054Z" transform="translate(-24.116 -66.931)" fill="#d9dadc"/>
                  <path id="Path_24119" data-name="Path 24119" d="M25.477,125.168h0c.726,0,1.226-.826,1.242-.867,6.486-8.96,38.89-53.783,38.522-55.347s-1.216-1.878-1.872-1.878a2.93,2.93,0,0,0-1.45.461c-.141.122-11.664,11.107-13.565,12.554a15.557,15.557,0,0,0-2.461,3.181c-1.066,2.259-5.347,9.917-9.894,18.019-7.059,12.627-11.693,20.954-11.718,21.686-.058,1.309.01,1.866.9,2.154A1.14,1.14,0,0,0,25.477,125.168ZM63.368,67.5c.73,0,1.222.518,1.459,1.555-.109,1.546-23.059,33.754-38.458,55.008-.128.2-.5.675-.893.675h0a.98.98,0,0,1-.17-.019c-.534-.173-.656-.355-.6-1.734.067-.765,6.234-11.776,11.667-21.482,4.534-8.115,8.826-15.786,9.9-18.035a15.774,15.774,0,0,1,2.32-3.043c1.933-1.466,13.1-12.106,13.59-12.576h0A2.6,2.6,0,0,1,63.368,67.5Z" transform="translate(-24.265 -67.075)" fill="#cecfd1"/>
                </g>
                <g id="Group_24754" data-name="Group 24754" transform="translate(0.198 70.175)">
                  <path id="Path_24120" data-name="Path 24120" d="M27.451,121.761s-1.821,2.307-2.554,2.09c-.73-.237-.749-1.04-.093-1.962.768-1.075,20.438-33.28,22.861-38.378a15.562,15.562,0,0,1,2.394-3.133c1.933-1.456,13.565-12.541,13.565-12.541s1.427-.918.982.621C64.161,69.976,27.451,121.761,27.451,121.761Z" transform="translate(-24.12 -67.352)" fill="#fff"/>
                  <path id="Path_24121" data-name="Path 24121" d="M25.15,124.216h0c.854,0,2.317-1.811,2.608-2.173,1.507-2.128,36.746-51.84,37.2-53.392a1.091,1.091,0,0,0-.022-.96A.519.519,0,0,0,64.5,67.5a1.742,1.742,0,0,0-.845.307c-.147.138-11.677,11.107-13.578,12.55a15.556,15.556,0,0,0-2.451,3.19c-2.381,5-21.872,37.008-22.848,38.362a2.01,2.01,0,0,0-.467,1.667.983.983,0,0,0,.666.621A.774.774,0,0,0,25.15,124.216ZM64.5,67.925c.07,0,.093.019.1.026.01.022.077.141-.045.582-.39,1.245-24.461,35.379-37.136,53.255-.611.768-1.77,2.01-2.266,2.01h0l-.042-.006a.557.557,0,0,1-.387-.355,1.581,1.581,0,0,1,.4-1.267C26.1,120.8,45.63,88.737,48,83.755A15.9,15.9,0,0,1,50.334,80.7c1.933-1.456,13.107-12.112,13.584-12.563A1.462,1.462,0,0,1,64.5,67.925Z" transform="translate(-24.263 -67.499)" fill="#cecfd1"/>
                </g>
              </g>
              <g id="Group_24760" data-name="Group 24760" transform="translate(15.769 275.59)">
                <g id="Group_24756" data-name="Group 24756" transform="translate(4.832 1.987)">
                  <path id="Rectangle_6443" data-name="Rectangle 6443" d="M.492,0h7.27a.491.491,0,0,1,.491.491V7.1a.492.492,0,0,1-.492.492H.489A.489.489,0,0,1,0,7.1V.492A.492.492,0,0,1,.492,0Z" transform="translate(0.212 0.217)" fill="#f7f7f8"/>
                  <path id="Path_24122" data-name="Path 24122" d="M29.708,140.334h5.1a1.8,1.8,0,0,0,1.786-1.782v-4.458a1.784,1.784,0,0,0-1.786-1.782h-5.1a1.786,1.786,0,0,0-1.786,1.782v4.458A1.8,1.8,0,0,0,29.708,140.334Zm5.1-7.6a1.367,1.367,0,0,1,1.36,1.36v4.458a1.364,1.364,0,0,1-1.36,1.357h-5.1a1.359,1.359,0,0,1-1.354-1.357v-4.458a1.362,1.362,0,0,1,1.354-1.36Z" transform="translate(-27.922 -132.312)" fill="#5c5e61"/>
                </g>
                <g id="Group_24757" data-name="Group 24757" transform="translate(0)">
                  <path id="Path_24123" data-name="Path 24123" d="M28.217,140.77a2.362,2.362,0,0,0,2.352,2.352h7.648a2.355,2.355,0,0,0,2.349-2.352v-6.65a2.362,2.362,0,0,0-2.349-2.365H30.569a2.369,2.369,0,0,0-2.352,2.365Z" transform="translate(-28.003 -131.548)" fill="#f7f7f8"/>
                  <path id="Path_24124" data-name="Path 24124" d="M30.718,143.48h7.648a2.564,2.564,0,0,0,2.557-2.566v-6.65a2.572,2.572,0,0,0-2.557-2.573H30.718a2.576,2.576,0,0,0-2.566,2.573v6.65A2.568,2.568,0,0,0,30.718,143.48Zm7.648-11.36a2.149,2.149,0,0,1,2.138,2.144v6.65a2.143,2.143,0,0,1-2.138,2.144H30.718a2.14,2.14,0,0,1-2.134-2.144v-6.65a2.146,2.146,0,0,1,2.134-2.144Z" transform="translate(-28.152 -131.691)" fill="#5c5e61"/>
                </g>
                <path id="Rectangle_6444" data-name="Rectangle 6444" d="M.6,0H9.439a.6.6,0,0,1,.6.6V8.633a.6.6,0,0,1-.6.6H.6a.6.6,0,0,1-.6-.6V.6A.6.6,0,0,1,.6,0Z" transform="translate(1.258 1.386)" fill="#d0d2d4" style="mix-blend-mode: multiply;isolation: isolate"/>
                <g id="Group_24758" data-name="Group 24758" transform="translate(10.755 0.858)">
                  <path id="Path_24125" data-name="Path 24125" d="M28.551,132.324a.366.366,0,0,0,.371.374.37.37,0,0,0,0-.739A.366.366,0,0,0,28.551,132.324Z" transform="translate(-28.551 -131.959)" fill="#5c5e61" opacity="0.6" style="mix-blend-mode: multiply;isolation: isolate"/>
                  <path id="Path_24126" data-name="Path 24126" d="M28.551,135.255a.365.365,0,0,0,.371.362.371.371,0,0,0,.368-.362.366.366,0,0,0-.368-.358A.361.361,0,0,0,28.551,135.255Z" transform="translate(-28.551 -125.495)" fill="#5c5e61" opacity="0.6" style="mix-blend-mode: multiply;isolation: isolate"/>
                </g>
                <g id="Group_24759" data-name="Group 24759" transform="translate(1.258 0.858)">
                  <path id="Path_24127" data-name="Path 24127" d="M31.521,132.324a.367.367,0,0,0,.365.374.37.37,0,0,0,0-.739A.367.367,0,0,0,31.521,132.324Z" transform="translate(-31.521 -131.959)" fill="#5c5e61" opacity="0.6" style="mix-blend-mode: multiply;isolation: isolate"/>
                  <path id="Path_24128" data-name="Path 24128" d="M31.521,135.255a.366.366,0,0,0,.365.362.371.371,0,0,0,.368-.362.366.366,0,0,0-.368-.358A.361.361,0,0,0,31.521,135.255Z" transform="translate(-31.521 -125.495)" fill="#5c5e61" opacity="0.6" style="mix-blend-mode: multiply;isolation: isolate"/>
                </g>
              </g>
            </g>
          </g>
        </g>
        <g id="Group_24763" data-name="Group 24763" transform="translate(1596.246 4899.528)">
          <g id="Group_24778" data-name="Group 24778" transform="translate(8.296 26.61)">
            <g id="Group_24765" data-name="Group 24765" transform="translate(108.517 41.117)">
              <g id="Group_24763-2" data-name="Group 24763" transform="translate(0 13.139)">
                <path id="Path_24129" data-name="Path 24129" d="M1766.456,714.741v-2.753l7.866-3,7.866,2.981v2.753l-7.866,3-7.866-2.981Z" transform="translate(-1766.456 -708.987)" fill="#cfcdc7" fill-rule="evenodd"/>
                <path id="Path_24130" data-name="Path 24130" d="M1774.322,714.969l-7.866-2.981,7.866-3,7.866,2.981-7.866,3Z" transform="translate(-1766.456 -708.987)" fill="#e0ded7" fill-rule="evenodd"/>
                <path id="Path_24131" data-name="Path 24131" d="M1774.322,731.725l-7.866-2.981v-2.753l7.866,2.981v2.753Z" transform="translate(-1766.456 -722.991)" fill="#cfcdc7" fill-rule="evenodd"/>
                <path id="Path_24132" data-name="Path 24132" d="M1811.022,731.628l7.866-3v-2.752l-7.866,3v2.752Z" transform="translate(-1803.156 -722.894)" fill="#9d9591" fill-rule="evenodd"/>
              </g>
              <g id="Group_24764" data-name="Group 24764" transform="translate(5.991)">
                <path id="Path_24133" data-name="Path 24133" d="M1801.971,683.451l-1.571-.595V674.9l3.92-1.418v9.075l-2.349.9Z" transform="translate(-1800.399 -666.607)" fill="#d4ceca" fill-rule="evenodd"/>
                <path id="Path_24134" data-name="Path 24134" d="M1809.3,651.39l2.349-.9V634.546l-2.349.9V651.39Z" transform="translate(-1807.729 -634.546)" fill="#9d9591" fill-rule="evenodd"/>
              </g>
            </g>
            <g id="Group_24768" data-name="Group 24768" transform="translate(128.564 24.597)">
              <g id="Group_24766" data-name="Group 24766" transform="translate(0 22.01)">
                <path id="Path_24135" data-name="Path 24135" d="M1880.036,671.4v-2.752l7.866-3,7.866,2.981v2.752l-7.866,3-7.866-2.982Z" transform="translate(-1880.036 -665.652)" fill="#cfcdc7" fill-rule="evenodd"/>
                <path id="Path_24136" data-name="Path 24136" d="M1887.9,671.634l-7.866-2.981,7.866-3,7.866,2.981-7.866,3Z" transform="translate(-1880.036 -665.652)" fill="#e0ded7" fill-rule="evenodd"/>
                <path id="Path_24137" data-name="Path 24137" d="M1887.9,688.386l-7.866-2.981v-2.753l7.866,2.982v2.753Z" transform="translate(-1880.036 -679.651)" fill="#cfcdc7" fill-rule="evenodd"/>
                <path id="Path_24138" data-name="Path 24138" d="M1924.6,688.293l7.866-3V682.54l-7.866,3v2.753Z" transform="translate(-1916.736 -679.559)" fill="#9d9591" fill-rule="evenodd"/>
              </g>
              <g id="Group_24767" data-name="Group 24767" transform="translate(5.991)">
                <path id="Path_24139" data-name="Path 24139" d="M1915.548,569.6l-1.571-.595V545.927l3.92-1.417V568.7l-2.349.9Z" transform="translate(-1913.977 -543.883)" fill="#cac3bf" fill-rule="evenodd"/>
                <path id="Path_24140" data-name="Path 24140" d="M1922.878,566.667l2.349-.9V540.953l-2.349.9v24.818Z" transform="translate(-1921.307 -540.953)" fill="#9d9591" fill-rule="evenodd"/>
              </g>
            </g>
            <g id="Group_24771" data-name="Group 24771" transform="translate(0 0)">
              <g id="Group_24769" data-name="Group 24769" transform="translate(0 13.138)">
                <path id="Path_24141" data-name="Path 24141" d="M1151.638,481.783v-2.753l7.866-3,7.866,2.981v2.752l-7.866,3-7.866-2.981Z" transform="translate(-1151.638 -476.029)" fill="#cfcdc7" fill-rule="evenodd"/>
                <path id="Path_24142" data-name="Path 24142" d="M1159.5,482.012l-7.866-2.981,7.866-3,7.866,2.981-7.866,3Z" transform="translate(-1151.638 -476.029)" fill="#e0ded7" fill-rule="evenodd"/>
                <path id="Path_24143" data-name="Path 24143" d="M1159.5,498.768l-7.866-2.981v-2.753l7.866,2.981v2.753Z" transform="translate(-1151.638 -490.033)" fill="#cfcdc7" fill-rule="evenodd"/>
                <path id="Path_24144" data-name="Path 24144" d="M1196.2,498.675l7.866-3v-2.753l-7.866,3v2.753Z" transform="translate(-1188.338 -489.939)" fill="#a8a59e" fill-rule="evenodd"/>
              </g>
              <g id="Group_24770" data-name="Group 24770" transform="translate(5.991)">
                <path id="Path_24145" data-name="Path 24145" d="M1187.15,450.493l-1.571-.594v-7.96l3.92-1.418V449.6l-2.349.9Z" transform="translate(-1185.579 -433.65)" fill="#e3dfd6" fill-rule="evenodd"/>
                <path id="Path_24146" data-name="Path 24146" d="M1194.479,418.437l2.349-.9V401.593l-2.349.9v15.947Z" transform="translate(-1192.909 -401.593)" fill="#c4bfb5" fill-rule="evenodd"/>
              </g>
            </g>
            <g id="Group_24774" data-name="Group 24774" transform="translate(36.172 13.705)">
              <g id="Group_24772" data-name="Group 24772" transform="translate(0 13.139)">
                <path id="Path_24147" data-name="Path 24147" d="M1356.578,559.438v-2.753l7.866-3,7.866,2.98v2.753l-7.866,3-7.866-2.981Z" transform="translate(-1356.578 -553.684)" fill="#cfcdc7" fill-rule="evenodd"/>
                <path id="Path_24148" data-name="Path 24148" d="M1364.444,559.666l-7.866-2.981,7.866-3,7.866,2.98-7.866,3Z" transform="translate(-1356.578 -553.684)" fill="#e0ded7" fill-rule="evenodd"/>
                <path id="Path_24149" data-name="Path 24149" d="M1364.444,576.422l-7.866-2.981v-2.753l7.866,2.981v2.753Z" transform="translate(-1356.578 -567.687)" fill="#cfcdc7" fill-rule="evenodd"/>
                <path id="Path_24150" data-name="Path 24150" d="M1401.144,576.324l7.866-3V570.57l-7.866,3v2.753Z" transform="translate(-1393.278 -567.59)" fill="#a8a59e" fill-rule="evenodd"/>
              </g>
              <g id="Group_24773" data-name="Group 24773" transform="translate(5.991)">
                <path id="Path_24151" data-name="Path 24151" d="M1392.091,528.147l-1.571-.595v-7.96l3.92-1.417v9.075l-2.349.9Z" transform="translate(-1390.52 -511.303)" fill="#e3dfd6" fill-rule="evenodd"/>
                <path id="Path_24152" data-name="Path 24152" d="M1399.42,496.086l2.349-.9V479.243l-2.349.9v15.946Z" transform="translate(-1397.849 -479.243)" fill="#c4bfb5" fill-rule="evenodd"/>
              </g>
            </g>
            <g id="Group_24777" data-name="Group 24777" transform="translate(72.345 27.411)">
              <g id="Group_24775" data-name="Group 24775" transform="translate(0 13.138)">
                <path id="Path_24153" data-name="Path 24153" d="M1561.519,637.087v-2.753l7.866-3,7.866,2.981v2.753l-7.866,3-7.866-2.981Z" transform="translate(-1561.519 -631.333)" fill="#cfcdc7" fill-rule="evenodd"/>
                <path id="Path_24154" data-name="Path 24154" d="M1569.385,637.316l-7.866-2.982,7.866-3,7.866,2.981-7.866,3Z" transform="translate(-1561.519 -631.333)" fill="#e0ded7" fill-rule="evenodd"/>
                <path id="Path_24155" data-name="Path 24155" d="M1569.385,654.071l-7.866-2.981v-2.753l7.866,2.981v2.753Z" transform="translate(-1561.519 -645.336)" fill="#cfcdc7" fill-rule="evenodd"/>
                <path id="Path_24156" data-name="Path 24156" d="M1606.085,653.978l7.866-3v-2.753l-7.866,3v2.752Z" transform="translate(-1598.219 -645.243)" fill="#a8a59e" fill-rule="evenodd"/>
              </g>
              <g id="Group_24776" data-name="Group 24776" transform="translate(5.991)">
                <path id="Path_24157" data-name="Path 24157" d="M1597.03,605.8l-1.571-.595v-7.959l3.92-1.418V604.9l-2.349.9Z" transform="translate(-1595.459 -588.953)" fill="#e3dfd6" fill-rule="evenodd"/>
                <path id="Path_24158" data-name="Path 24158" d="M1604.359,573.74l2.349-.9V556.9l-2.349.9V573.74Z" transform="translate(-1602.788 -556.896)" fill="#c4bfb5" fill-rule="evenodd"/>
              </g>
            </g>
          </g>
          <g id="Group_24787" data-name="Group 24787" transform="translate(0 0)">
            <g id="Group_24780" data-name="Group 24780" transform="translate(89.798 34.025)">
              <g id="Group_24779" data-name="Group 24779" transform="translate(0.234 0.18)">
                <path id="Path_24159" data-name="Path 24159" d="M1615.889,482.335l38.864-36.979,29.554,11.2-38.864,36.979-29.554-11.2Z" transform="translate(-1615.684 -445.227)" fill="#1b377e" fill-rule="evenodd"/>
                <path id="Path_24160" data-name="Path 24160" d="M1644.515,493.062l-.065-.025-29.72-11.261,39.043-37.149.065.025,29.72,11.261Zm-29.376-11.368,29.324,11.111L1683.149,456l-29.324-11.111Z" transform="translate(-1614.73 -444.627)" fill="#1b377e"/>
              </g>
              <path id="Path_24161" data-name="Path 24161" d="M1695.072,465.942l4.476-4.259-.618-.235-4.477,4.259-3.441-1.3,4.476-4.259-.618-.235-4.477,4.259-3.441-1.3,4.477-4.259-.618-.235-4.478,4.26-3.441-1.3,4.477-4.26-.618-.235-4.477,4.26-3.441-1.3,4.477-4.259-.618-.235-4.478,4.26-3.441-1.3,4.477-4.259-.619-.235-4.477,4.26-4.391-1.664-.5.476,4.391,1.664-3.748,3.566-4.39-1.664-.5.476,4.39,1.664-3.748,3.566-4.39-1.663-.5.474,4.391,1.664-3.748,3.566-4.391-1.664-.5.476,4.391,1.664-3.748,3.566-4.391-1.664-.5.476,4.391,1.664-3.747,3.566-4.392-1.664-.5.476,4.392,1.664-3.748,3.566-4.392-1.664-.5.476,4.392,1.664-3.748,3.566-4.391-1.664-.5.475,4.391,1.664-4.477,4.26.618.233,4.477-4.259,3.442,1.3-4.477,4.26.618.234,4.477-4.259,3.442,1.3-4.476,4.26.618.234,4.477-4.259,3.442,1.3-4.476,4.26.618.234,4.477-4.259,3.442,1.3-4.476,4.26.618.234,4.477-4.26,3.442,1.3-4.477,4.26.619.235,4.477-4.26,4.392,1.664.5-.476-4.392-1.664,3.747-3.565,4.392,1.664.5-.476-4.391-1.664,3.748-3.566,4.391,1.664.5-.475-4.391-1.664,3.748-3.566,4.392,1.664.5-.476-4.392-1.664,3.748-3.566,4.392,1.664.5-.476-4.392-1.664,3.747-3.565,4.392,1.664.5-.477-4.391-1.664,3.747-3.565,4.392,1.664.5-.476-4.392-1.664,3.748-3.566,4.392,1.664.5-.476Zm-8.621-2.6,3.442,1.3-3.748,3.566-3.442-1.3Zm-20.55,14.151,3.748-3.565,3.442,1.3-3.748,3.566Zm2.941,1.78-3.748,3.565-3.441-1.3,3.748-3.566Zm1.306-5.821,3.747-3.566,3.441,1.3-3.747,3.565Zm4.247-4.041,3.748-3.566,3.44,1.3-3.747,3.565Zm-.619-.234-3.441-1.3,3.748-3.566,3.441,1.3Zm-.5.475-3.747,3.565-3.441-1.3,3.747-3.566Zm-4.247,4.041-3.748,3.566-3.441-1.3,3.748-3.565Zm-4.248,4.042-3.747,3.565-3.442-1.3,3.748-3.566Zm-4.247,4.041-3.748,3.566-3.442-1.3,3.748-3.566Zm.618.235,3.441,1.3-3.748,3.566-3.442-1.3Zm4.06,1.538,3.442,1.3-3.748,3.566-3.442-1.3Zm.5-.475,3.748-3.566,3.442,1.3-3.748,3.565Zm4.247-4.041,3.748-3.566,3.442,1.3-3.748,3.566Zm4.248-4.042,3.747-3.565,3.442,1.3-3.747,3.565Zm4.247-4.041,3.747-3.566,3.442,1.3-3.747,3.565Zm3.935-9.145,3.441,1.3-3.748,3.566-3.44-1.3Zm-4.06-1.539,3.441,1.3-3.748,3.566-3.441-1.3Zm-4.06-1.538,3.441,1.3-3.748,3.566-3.442-1.3Zm-4.248,4.042,3.441,1.3-3.747,3.566-3.442-1.3Zm-4.247,4.041,3.441,1.3-3.748,3.566-3.441-1.3Zm-4.248,4.042,3.442,1.3-3.748,3.566-3.441-1.3Zm-4.248,4.041,3.442,1.3-3.747,3.566-3.442-1.3Zm-4.247,4.041,3.442,1.3-3.748,3.566-3.442-1.3Zm-4.553,8.911-3.442-1.3,3.748-3.566,3.442,1.3Zm4.06,1.539-3.442-1.3,3.748-3.566,3.442,1.3Zm4.06,1.538-3.442-1.3,3.748-3.566,3.442,1.3Zm4.06,1.538-3.442-1.3,3.748-3.566,3.442,1.3Zm4.06,1.539-3.441-1.3,3.748-3.565,3.442,1.3Zm4.247-4.041-3.441-1.3,3.748-3.566,3.441,1.3Zm4.247-4.041-3.441-1.3,3.748-3.566,3.441,1.3Zm4.248-4.041-3.441-1.3L1677.77,477l3.442,1.3Zm4.248-4.042-3.442-1.3,3.748-3.565,3.441,1.3Zm4.247-4.041-3.442-1.3,3.747-3.565,3.442,1.3Zm4.247-4.041-3.441-1.3,3.748-3.566,3.441,1.3Z" transform="translate(-1634.849 -451.964)" fill="#e6e6e6" fill-rule="evenodd"/>
              <path id="Path_24162" data-name="Path 24162" d="M1614.585,481.506l-1.181-.447,39.362-37.453,1.181.447-39.362,37.452Z" transform="translate(-1613.405 -443.607)" fill="#e6e6e6" fill-rule="evenodd"/>
              <path id="Path_24163" data-name="Path 24163" d="M1777.49,543.231l-1.18-.446,39.362-37.454,1.181.447-39.362,37.452Z" transform="translate(-1747.557 -494.437)" fill="#e6e6e6" fill-rule="evenodd"/>
              <path id="Path_24164" data-name="Path 24164" d="M1831.276,444.47l.908-.864,29.933,11.342-.908.863-29.933-11.341Z" transform="translate(-1792.822 -443.607)" fill="#e6e6e6" fill-rule="evenodd"/>
              <path id="Path_24165" data-name="Path 24165" d="M1613.4,651.776l.908-.864,29.933,11.341-.908.864L1613.4,651.776Z" transform="translate(-1613.405 -614.323)" fill="#e6e6e6" fill-rule="evenodd"/>
            </g>
            <g id="Group_24782" data-name="Group 24782">
              <g id="Group_24781" data-name="Group 24781" transform="translate(0.234 0.18)">
                <path id="Path_24166" data-name="Path 24166" d="M1107.121,289.56l38.864-36.979,29.554,11.2-38.864,36.979-29.554-11.2Z" transform="translate(-1106.917 -252.452)" fill="#1b377e" fill-rule="evenodd"/>
                <path id="Path_24167" data-name="Path 24167" d="M1135.748,300.287l-.065-.025L1105.963,289l39.043-37.149.065.025,29.719,11.261Zm-29.376-11.368,29.324,11.111,38.686-36.81-29.324-11.111Z" transform="translate(-1105.963 -251.852)" fill="#1b377e"/>
              </g>
              <path id="Path_24168" data-name="Path 24168" d="M1186.305,273.166l4.476-4.259-.618-.235-4.477,4.259-3.441-1.3,4.476-4.259-.618-.235-4.477,4.259-3.441-1.3,4.476-4.259-.618-.235-4.477,4.26-3.441-1.3,4.477-4.26-.618-.235-4.477,4.26-3.441-1.3,4.476-4.259-.618-.235-4.477,4.26-3.441-1.3,4.477-4.259-.618-.235-4.478,4.26-4.391-1.664-.5.476,4.391,1.664-3.747,3.566-4.39-1.664-.5.476,4.39,1.664-3.747,3.566-4.39-1.663-.5.474,4.391,1.664-3.747,3.566-4.391-1.664-.5.476,4.391,1.664L1148.4,281.4,1144,279.741l-.5.476,4.391,1.664-3.747,3.566-4.392-1.664-.5.476,4.392,1.664-3.748,3.566-4.392-1.664-.5.476,4.392,1.664-3.748,3.566-4.391-1.664-.5.475,4.392,1.664-4.477,4.26.618.234,4.477-4.259,3.442,1.3-4.476,4.26.618.234,4.476-4.259,3.442,1.3-4.476,4.26.618.234,4.476-4.259,3.441,1.3-4.476,4.26.618.234,4.477-4.259,3.442,1.3-4.477,4.26.618.235,4.477-4.26,3.442,1.3-4.477,4.26.618.234,4.477-4.26,4.392,1.664.5-.476-4.392-1.664,3.747-3.566,4.392,1.664.5-.476-4.391-1.664,3.748-3.566,4.391,1.664.5-.475-4.391-1.664,3.747-3.565,4.392,1.664.5-.476-4.391-1.664,3.747-3.566,4.392,1.664.5-.475-4.391-1.664,3.747-3.565,4.392,1.664.5-.477-4.391-1.664,3.747-3.565,4.392,1.664.5-.476-4.392-1.664,3.748-3.566,4.391,1.664.5-.475Zm-8.621-2.6,3.442,1.3-3.748,3.566-3.442-1.3Zm-20.55,14.151,3.748-3.566,3.441,1.3-3.748,3.566Zm2.942,1.78-3.748,3.566-3.442-1.3,3.748-3.566Zm1.306-5.821,3.747-3.566,3.441,1.3-3.747,3.565Zm4.247-4.041,3.748-3.566,3.44,1.3-3.747,3.565Zm-.619-.234-3.441-1.3,3.748-3.566,3.442,1.3Zm-.5.475-3.747,3.566-3.441-1.3,3.747-3.566Zm-4.247,4.041-3.748,3.566-3.441-1.3,3.748-3.566Zm-4.248,4.042-3.747,3.566-3.442-1.3,3.748-3.566ZM1151.769,289l-3.748,3.566-3.442-1.3,3.748-3.565Zm.618.235,3.441,1.3-3.748,3.566-3.442-1.3Zm4.06,1.538,3.443,1.3-3.748,3.566-3.443-1.3Zm.5-.475,3.748-3.566,3.442,1.3-3.748,3.566Zm4.247-4.041,3.748-3.566,3.442,1.3-3.748,3.566Zm4.248-4.042,3.747-3.565,3.442,1.3-3.747,3.566Zm4.247-4.041,3.747-3.566,3.442,1.3-3.747,3.565Zm3.935-9.146,3.441,1.3-3.748,3.566-3.441-1.3Zm-4.06-1.538,3.442,1.3-3.748,3.566-3.442-1.3Zm-4.06-1.538,3.441,1.3-3.748,3.566-3.441-1.3Zm-4.248,4.042,3.442,1.3-3.748,3.566-3.442-1.3Zm-4.247,4.041,3.441,1.3L1156.7,278.9l-3.442-1.3Zm-4.248,4.041,3.442,1.3-3.747,3.566-3.442-1.3Zm-4.248,4.041,3.442,1.3-3.747,3.566-3.442-1.3Zm-4.247,4.041,3.442,1.3-3.748,3.566-3.442-1.3Zm-4.553,8.911-3.442-1.3,3.747-3.566,3.442,1.3Zm4.06,1.538-3.442-1.3,3.748-3.566,3.442,1.3Zm4.06,1.538-3.442-1.3,3.747-3.566,3.442,1.3Zm4.06,1.538-3.443-1.3,3.748-3.566,3.442,1.3Zm4.06,1.538-3.442-1.3,3.748-3.566,3.442,1.3Zm4.247-4.041-3.441-1.3,3.748-3.566,3.442,1.3Zm4.247-4.041-3.442-1.3,3.748-3.565,3.441,1.3Zm4.248-4.041-3.442-1.3,3.748-3.566,3.442,1.3Zm4.247-4.042-3.442-1.3,3.747-3.565,3.441,1.3Zm4.247-4.041-3.442-1.3,3.747-3.565,3.442,1.3Zm4.247-4.041-3.442-1.3,3.748-3.566,3.441,1.3Z" transform="translate(-1126.082 -259.188)" fill="#e6e6e6" fill-rule="evenodd"/>
              <path id="Path_24169" data-name="Path 24169" d="M1105.818,288.731l-1.18-.447L1144,250.831l1.181.447-39.363,37.452Z" transform="translate(-1104.638 -250.831)" fill="#e6e6e6" fill-rule="evenodd"/>
              <path id="Path_24170" data-name="Path 24170" d="M1268.722,350.457l-1.18-.446,39.362-37.454,1.181.448-39.362,37.452Z" transform="translate(-1238.789 -301.662)" fill="#e6e6e6" fill-rule="evenodd"/>
              <path id="Path_24171" data-name="Path 24171" d="M1322.51,251.695l.908-.864,29.933,11.342-.908.863-29.933-11.341Z" transform="translate(-1284.055 -250.831)" fill="#e6e6e6" fill-rule="evenodd"/>
              <path id="Path_24172" data-name="Path 24172" d="M1104.638,459l.908-.864,29.933,11.341-.908.864L1104.638,459Z" transform="translate(-1104.638 -421.547)" fill="#e6e6e6" fill-rule="evenodd"/>
            </g>
            <g id="Group_24784" data-name="Group 24784" transform="translate(29.933 11.342)">
              <g id="Group_24783" data-name="Group 24783" transform="translate(0.234 0.18)">
                <path id="Path_24173" data-name="Path 24173" d="M1276.71,353.818l38.864-36.979,29.554,11.2-38.864,36.979-29.554-11.2Z" transform="translate(-1276.506 -316.71)" fill="#1b377e" fill-rule="evenodd"/>
                <path id="Path_24174" data-name="Path 24174" d="M1305.337,364.545l-.065-.025-29.719-11.261,39.043-37.149.065.025,29.719,11.261Zm-29.376-11.368,29.324,11.111,38.686-36.809-29.324-11.111Z" transform="translate(-1275.552 -316.11)" fill="#1b377e"/>
              </g>
              <path id="Path_24175" data-name="Path 24175" d="M1355.894,337.425l4.476-4.259-.618-.235-4.477,4.259-3.441-1.3,4.476-4.259-.618-.235-4.477,4.259-3.441-1.3,4.476-4.259-.618-.235-4.477,4.26-3.441-1.3,4.477-4.26-.618-.235-4.477,4.26-3.441-1.3,4.476-4.259-.619-.235-4.477,4.26-3.441-1.3,4.477-4.259-.618-.235-4.477,4.26-4.391-1.664-.5.476,4.391,1.664-3.747,3.566-4.39-1.664-.5.476,4.39,1.664-3.748,3.566-4.39-1.663-.5.474,4.391,1.664-3.748,3.566-4.391-1.664-.5.476,4.391,1.664-3.748,3.566L1313.594,344l-.5.476,4.391,1.664-3.747,3.566-4.391-1.664-.5.476,4.392,1.664-3.748,3.566-4.391-1.664-.5.476,4.391,1.664-3.748,3.566-4.391-1.664-.5.475,4.391,1.664-4.476,4.26.618.234,4.476-4.259,3.442,1.3-4.476,4.259.618.234,4.476-4.259,3.442,1.3-4.476,4.26.618.234,4.477-4.259,3.441,1.3-4.476,4.26.618.234,4.477-4.259,3.442,1.3-4.477,4.26.618.235,4.477-4.26,3.442,1.3-4.477,4.26.618.235,4.477-4.26,4.392,1.664.5-.476-4.392-1.664,3.747-3.566,4.392,1.664.5-.476-4.391-1.664,3.748-3.566,4.391,1.664.5-.475-4.391-1.664,3.748-3.566,4.392,1.664.5-.476-4.391-1.664,3.747-3.566,4.392,1.664.5-.476-4.392-1.664,3.747-3.565,4.392,1.664.5-.476-4.391-1.664,3.747-3.565,4.392,1.664.5-.476-4.392-1.664,3.748-3.567,4.391,1.664.5-.476Zm-8.621-2.6,3.442,1.3-3.748,3.566-3.442-1.3Zm-20.55,14.151,3.748-3.566,3.441,1.3-3.748,3.566Zm2.942,1.78-3.748,3.565-3.441-1.3,3.748-3.566Zm1.306-5.821,3.747-3.566,3.441,1.3-3.747,3.565Zm4.247-4.041,3.748-3.566,3.441,1.3-3.747,3.566Zm-.619-.234-3.441-1.3,3.748-3.566,3.442,1.3Zm-.5.475-3.747,3.566-3.441-1.3,3.747-3.566Zm-4.247,4.041-3.748,3.566-3.442-1.3,3.748-3.566Zm-4.248,4.042-3.747,3.565-3.442-1.3,3.748-3.565Zm-4.247,4.04-3.748,3.566-3.442-1.3,3.748-3.565Zm.618.235,3.441,1.3-3.748,3.566-3.442-1.3Zm4.06,1.538,3.442,1.3-3.748,3.566-3.442-1.3Zm.5-.475,3.747-3.566,3.442,1.3-3.747,3.566Zm4.247-4.041,3.748-3.566,3.442,1.3-3.748,3.566Zm4.248-4.042,3.747-3.565,3.442,1.3-3.747,3.565Zm4.247-4.041,3.747-3.566,3.442,1.3-3.747,3.565Zm3.935-9.145,3.441,1.3-3.748,3.566-3.441-1.3Zm-4.06-1.538,3.441,1.3-3.747,3.566-3.442-1.3Zm-4.06-1.538,3.441,1.3-3.748,3.566-3.441-1.3Zm-4.248,4.042,3.441,1.3-3.748,3.566-3.441-1.3Zm-4.247,4.041,3.441,1.3-3.747,3.566-3.442-1.3Zm-4.248,4.042,3.441,1.3-3.748,3.566-3.441-1.3Zm-4.248,4.041,3.442,1.3-3.747,3.566-3.442-1.3Zm-4.247,4.041,3.442,1.3-3.748,3.566-3.442-1.3Zm-4.553,8.911-3.442-1.3,3.748-3.566,3.442,1.3Zm4.06,1.539-3.442-1.3,3.748-3.566,3.442,1.3Zm4.06,1.538-3.442-1.3,3.747-3.566,3.442,1.3Zm4.06,1.539-3.442-1.3,3.747-3.566,3.443,1.3Zm4.06,1.538-3.442-1.3,3.748-3.566,3.442,1.3Zm4.247-4.041-3.442-1.3,3.748-3.566,3.442,1.3Zm4.247-4.041-3.442-1.3,3.748-3.566,3.441,1.3Zm4.247-4.041-3.441-1.3,3.748-3.566,3.442,1.3Zm4.248-4.042-3.442-1.3,3.747-3.565,3.441,1.3Zm4.247-4.041-3.442-1.3,3.747-3.565,3.442,1.3Zm4.247-4.041-3.441-1.3,3.748-3.566,3.441,1.3Z" transform="translate(-1295.671 -323.447)" fill="#e6e6e6" fill-rule="evenodd"/>
              <path id="Path_24176" data-name="Path 24176" d="M1275.407,352.989l-1.18-.447,39.362-37.453,1.181.447-39.362,37.452Z" transform="translate(-1274.227 -315.09)" fill="#e6e6e6" fill-rule="evenodd"/>
              <path id="Path_24177" data-name="Path 24177" d="M1438.312,414.715l-1.18-.446,39.362-37.454,1.181.447-39.362,37.452Z" transform="translate(-1408.378 -365.921)" fill="#e6e6e6" fill-rule="evenodd"/>
              <path id="Path_24178" data-name="Path 24178" d="M1492.1,315.954l.908-.864,29.933,11.342-.908.863L1492.1,315.954Z" transform="translate(-1453.644 -315.09)" fill="#e6e6e6" fill-rule="evenodd"/>
              <path id="Path_24179" data-name="Path 24179" d="M1274.227,523.259l.908-.864,29.933,11.341-.908.864-29.933-11.341Z" transform="translate(-1274.227 -485.806)" fill="#e6e6e6" fill-rule="evenodd"/>
            </g>
            <g id="Group_24786" data-name="Group 24786" transform="translate(59.866 22.683)">
              <g id="Group_24785" data-name="Group 24785" transform="translate(0.234 0.18)">
                <path id="Path_24180" data-name="Path 24180" d="M1446.3,418.074l38.865-36.979,29.554,11.2-38.865,36.979-29.554-11.2Z" transform="translate(-1446.093 -380.966)" fill="#1b377e" fill-rule="evenodd"/>
                <path id="Path_24181" data-name="Path 24181" d="M1474.924,428.8l-.065-.025-29.719-11.261,39.043-37.149.065.025,29.719,11.261Zm-29.376-11.368,29.324,11.111,38.686-36.809-29.324-11.111Z" transform="translate(-1445.139 -380.366)" fill="#1b377e"/>
              </g>
              <path id="Path_24182" data-name="Path 24182" d="M1525.483,401.681l4.476-4.259-.619-.235-4.477,4.259-3.441-1.3,4.477-4.259-.618-.235-4.477,4.259-3.441-1.3,4.476-4.259-.618-.235-4.478,4.26-3.441-1.3,4.476-4.26-.619-.235-4.477,4.26-3.441-1.3,4.477-4.259-.618-.235-4.477,4.26-3.441-1.3,4.477-4.259-.619-.235-4.477,4.26-4.391-1.664-.5.476,4.391,1.664-3.748,3.566-4.39-1.664-.5.476,4.39,1.664-3.748,3.566-4.39-1.663-.5.474,4.391,1.664-3.748,3.566-4.39-1.664-.5.476,4.391,1.664-3.748,3.565-4.391-1.664-.5.476,4.391,1.664-3.747,3.566-4.391-1.664-.5.476,4.391,1.664L1479.079,418l-4.391-1.664-.5.476,4.391,1.664-3.748,3.566-4.391-1.664-.5.475,4.391,1.664-4.476,4.26.617.234,4.477-4.259,3.443,1.3-4.476,4.26.617.234,4.477-4.259,3.443,1.3-4.477,4.26.617.234,4.477-4.259,3.442,1.3-4.477,4.26.618.234,4.477-4.259,3.442,1.3-4.476,4.26.618.235,4.476-4.26,3.442,1.3-4.476,4.26.618.235,4.477-4.26,4.392,1.664.5-.476-4.392-1.664,3.747-3.566,4.392,1.664.5-.476L1500,425.929l3.748-3.566,4.391,1.664.5-.475-4.391-1.664,3.747-3.565,4.392,1.664.5-.476-4.392-1.664,3.747-3.566,4.391,1.664.5-.476-4.391-1.664,3.746-3.565,4.392,1.664.5-.477-4.391-1.664,3.746-3.565,4.392,1.664.5-.476-4.392-1.664,3.748-3.566,4.391,1.664.5-.476Zm-8.621-2.6,3.442,1.3-3.748,3.566-3.442-1.3Zm-20.549,14.151,3.747-3.566,3.442,1.3-3.748,3.566Zm2.942,1.78-3.748,3.566-3.441-1.3,3.747-3.566Zm1.306-5.821,3.747-3.566,3.441,1.3L1504,410.493Zm4.247-4.041,3.747-3.566,3.441,1.3-3.747,3.565Zm-.619-.234-3.441-1.3,3.747-3.566,3.442,1.3Zm-.5.475-3.747,3.565-3.441-1.3,3.747-3.566Zm-4.247,4.041L1495.694,413l-3.441-1.3,3.747-3.566Zm-4.248,4.042-3.747,3.565-3.442-1.3,3.747-3.565Zm-4.247,4.041-3.748,3.566-3.442-1.3,3.748-3.566Zm.618.235,3.441,1.3-3.747,3.566-3.442-1.3Zm4.059,1.538,3.443,1.3-3.748,3.566-3.442-1.3Zm.5-.475,3.748-3.566,3.442,1.3-3.748,3.566Zm4.248-4.041,3.748-3.566,3.442,1.3-3.748,3.566Zm4.248-4.042,3.747-3.565,3.442,1.3-3.747,3.566Zm4.248-4.041,3.747-3.566,3.442,1.3-3.747,3.565Zm3.934-9.145,3.441,1.3-3.748,3.566-3.44-1.3Zm-4.06-1.538,3.442,1.3-3.748,3.566-3.441-1.3Zm-4.06-1.538,3.441,1.3-3.748,3.566-3.441-1.3Zm-4.248,4.042,3.442,1.3-3.748,3.566-3.441-1.3Zm-4.247,4.041,3.442,1.3-3.748,3.566-3.441-1.3Zm-4.248,4.042,3.442,1.3-3.748,3.566-3.441-1.3Zm-4.248,4.041,3.442,1.3-3.747,3.566-3.442-1.3Zm-4.247,4.041,3.442,1.3-3.748,3.566-3.442-1.3Zm-4.553,8.911-3.442-1.3,3.748-3.566,3.442,1.3Zm4.06,1.539-3.442-1.3,3.748-3.566,3.442,1.3Zm4.06,1.538-3.442-1.3,3.748-3.566,3.442,1.3Zm4.06,1.538-3.442-1.3,3.747-3.566,3.443,1.3Zm4.06,1.538-3.441-1.3,3.747-3.565,3.442,1.3Zm4.248-4.041-3.442-1.3,3.748-3.566,3.442,1.3Zm4.247-4.041-3.441-1.3,3.747-3.566,3.442,1.3Zm4.248-4.041-3.441-1.3,3.747-3.566,3.442,1.3Zm4.248-4.042-3.441-1.3,3.747-3.565,3.441,1.3Zm4.248-4.041-3.442-1.3,3.747-3.565,3.442,1.3Zm4.247-4.041-3.441-1.3,3.748-3.567,3.441,1.3Z" transform="translate(-1465.26 -387.703)" fill="#e6e6e6" fill-rule="evenodd"/>
              <path id="Path_24183" data-name="Path 24183" d="M1445,417.245l-1.18-.447,39.362-37.453,1.181.447L1445,417.245Z" transform="translate(-1443.816 -379.346)" fill="#e6e6e6" fill-rule="evenodd"/>
              <path id="Path_24184" data-name="Path 24184" d="M1607.9,478.971l-1.18-.446,39.362-37.454,1.181.447L1607.9,478.971Z" transform="translate(-1577.967 -430.177)" fill="#e6e6e6" fill-rule="evenodd"/>
              <path id="Path_24185" data-name="Path 24185" d="M1661.685,380.209l.908-.864,29.933,11.342-.908.863-29.933-11.341Z" transform="translate(-1623.231 -379.346)" fill="#e6e6e6" fill-rule="evenodd"/>
              <path id="Path_24186" data-name="Path 24186" d="M1443.816,587.515l.908-.864,29.932,11.341-.908.864-29.932-11.341Z" transform="translate(-1443.816 -550.062)" fill="#e6e6e6" fill-rule="evenodd"/>
            </g>
          </g>
          <path id="Path_24187" data-name="Path 24187" d="M1199.292,514.038H1196.2l6.451-2.461,1.549.586-4.912,1.875Zm36.172,13.705h-3.088l6.451-2.462,1.549.588-4.912,1.874Zm36.172,13.706h-3.088l6.451-2.462,1.549.587-4.912,1.875Zm32.781,7.947v-5.439l-4.089,3.889,4.089,1.55Zm2.349-7.675v7.506l-1.391.53,3.147,1.194,4.065-1.552v2.753l-7.866,3h3.088l7.866-3.005-3.088-1.17v-1.144l11.1-2.739,1.082.41,5.023-1.917,35.4-8.736-38.117-14.484-.26.277v18.932l-2.349.9V524.882Zm18,3.032v2.753l7.866-3v-2.752l-7.866,3Z" transform="translate(-1180.042 -465.555)" fill="#ccc" fill-rule="evenodd" style="mix-blend-mode: multiply;isolation: isolate"/>
        </g>
        <g id="Group_24788" data-name="Group 24788" transform="translate(1457.788 4924.007)">
          <g id="Group_24778-2" data-name="Group 24778" transform="translate(9.724 31.193)">
            <g id="Group_24765-2" data-name="Group 24765" transform="translate(127.207 48.198)">
              <g id="Group_24763-3" data-name="Group 24763" transform="translate(0 15.402)">
                <path id="Path_24129-2" data-name="Path 24129" d="M1766.456,715.732v-3.227l9.221-3.518,9.221,3.494v3.227l-9.221,3.518-9.221-3.494Z" transform="translate(-1766.456 -708.987)" fill="#cfcdc7" fill-rule="evenodd"/>
                <path id="Path_24130-2" data-name="Path 24130" d="M1775.677,716l-9.221-3.494,9.221-3.518,9.221,3.494L1775.677,716Z" transform="translate(-1766.456 -708.987)" fill="#e0ded7" fill-rule="evenodd"/>
                <path id="Path_24131-2" data-name="Path 24131" d="M1775.677,732.713l-9.221-3.494v-3.227l9.221,3.494v3.227Z" transform="translate(-1766.456 -722.474)" fill="#cfcdc7" fill-rule="evenodd"/>
                <path id="Path_24132-2" data-name="Path 24132" d="M1811.022,732.62l9.221-3.518v-3.227l-9.221,3.518v3.227Z" transform="translate(-1801.801 -722.38)" fill="#9d9591" fill-rule="evenodd"/>
              </g>
              <g id="Group_24764-2" data-name="Group 24764" transform="translate(7.023)">
                <path id="Path_24133-2" data-name="Path 24133" d="M1802.241,685.168l-1.842-.7v-9.33l4.6-1.662v10.638l-2.754,1.051Z" transform="translate(-1800.399 -665.424)" fill="#d4ceca" fill-rule="evenodd"/>
                <path id="Path_24134-2" data-name="Path 24134" d="M1809.3,654.291l2.754-1.051V634.546L1809.3,635.6v18.693Z" transform="translate(-1807.458 -634.546)" fill="#9d9591" fill-rule="evenodd"/>
              </g>
            </g>
            <g id="Group_24768-2" data-name="Group 24768" transform="translate(150.707 28.834)">
              <g id="Group_24766-2" data-name="Group 24766" transform="translate(0 25.8)">
                <path id="Path_24135-2" data-name="Path 24135" d="M1880.036,672.4v-3.227l9.221-3.517,9.221,3.494v3.226l-9.221,3.518-9.221-3.495Z" transform="translate(-1880.036 -665.652)" fill="#cfcdc7" fill-rule="evenodd"/>
                <path id="Path_24136-2" data-name="Path 24136" d="M1889.257,672.664l-9.221-3.495,9.221-3.517,9.221,3.494-9.221,3.518Z" transform="translate(-1880.036 -665.652)" fill="#e0ded7" fill-rule="evenodd"/>
                <path id="Path_24137-2" data-name="Path 24137" d="M1889.257,689.374l-9.221-3.495v-3.227l9.221,3.495v3.227Z" transform="translate(-1880.036 -679.135)" fill="#cfcdc7" fill-rule="evenodd"/>
                <path id="Path_24138-2" data-name="Path 24138" d="M1924.6,689.284l9.221-3.518V682.54l-9.221,3.518v3.227Z" transform="translate(-1915.382 -679.046)" fill="#9d9591" fill-rule="evenodd"/>
              </g>
              <g id="Group_24767-2" data-name="Group 24767" transform="translate(7.022)">
                <path id="Path_24139-2" data-name="Path 24139" d="M1915.819,573.918l-1.842-.7V546.171l4.6-1.661v28.355l-2.754,1.052Z" transform="translate(-1913.977 -543.774)" fill="#cac3bf" fill-rule="evenodd"/>
                <path id="Path_24140-2" data-name="Path 24140" d="M1922.878,571.1l2.754-1.051V540.953L1922.878,542V571.1Z" transform="translate(-1921.036 -540.953)" fill="#9d9591" fill-rule="evenodd"/>
              </g>
            </g>
            <g id="Group_24771-2" data-name="Group 24771" transform="translate(0 0)">
              <g id="Group_24769-2" data-name="Group 24769" transform="translate(0 15.401)">
                <path id="Path_24141-2" data-name="Path 24141" d="M1151.638,482.774v-3.227l9.221-3.518,9.221,3.495v3.227l-9.221,3.518-9.221-3.495Z" transform="translate(-1151.638 -476.029)" fill="#cfcdc7" fill-rule="evenodd"/>
                <path id="Path_24142-2" data-name="Path 24142" d="M1160.859,483.043l-9.221-3.495,9.221-3.518,9.221,3.495-9.221,3.518Z" transform="translate(-1151.638 -476.029)" fill="#e0ded7" fill-rule="evenodd"/>
                <path id="Path_24143-2" data-name="Path 24143" d="M1160.859,499.756l-9.221-3.495v-3.227l9.221,3.495v3.227Z" transform="translate(-1151.638 -489.516)" fill="#cfcdc7" fill-rule="evenodd"/>
                <path id="Path_24144-2" data-name="Path 24144" d="M1196.2,499.666l9.221-3.518v-3.227l-9.221,3.518v3.227Z" transform="translate(-1186.983 -489.426)" fill="#a8a59e" fill-rule="evenodd"/>
              </g>
              <g id="Group_24770-2" data-name="Group 24770" transform="translate(7.023)">
                <path id="Path_24145-2" data-name="Path 24145" d="M1187.421,452.21l-1.842-.7v-9.331l4.6-1.662v10.638l-2.754,1.051Z" transform="translate(-1185.579 -432.467)" fill="#e3dfd6" fill-rule="evenodd"/>
                <path id="Path_24146-2" data-name="Path 24146" d="M1194.479,421.338l2.754-1.051V401.593l-2.754,1.051v18.694Z" transform="translate(-1192.638 -401.593)" fill="#c4bfb5" fill-rule="evenodd"/>
              </g>
            </g>
            <g id="Group_24774-2" data-name="Group 24774" transform="translate(42.403 16.066)">
              <g id="Group_24772-2" data-name="Group 24772" transform="translate(0 15.402)">
                <path id="Path_24147-2" data-name="Path 24147" d="M1356.578,560.429V557.2l9.221-3.518,9.221,3.494V560.4l-9.221,3.518-9.221-3.494Z" transform="translate(-1356.578 -553.684)" fill="#cfcdc7" fill-rule="evenodd"/>
                <path id="Path_24148-2" data-name="Path 24148" d="M1365.8,560.7l-9.221-3.494,9.221-3.518,9.221,3.494L1365.8,560.7Z" transform="translate(-1356.578 -553.684)" fill="#e0ded7" fill-rule="evenodd"/>
                <path id="Path_24149-2" data-name="Path 24149" d="M1365.8,577.409l-9.221-3.494v-3.227l9.221,3.494v3.227Z" transform="translate(-1356.578 -567.17)" fill="#cfcdc7" fill-rule="evenodd"/>
                <path id="Path_24150-2" data-name="Path 24150" d="M1401.144,577.315l9.221-3.518V570.57l-9.221,3.518v3.227Z" transform="translate(-1391.923 -567.076)" fill="#a8a59e" fill-rule="evenodd"/>
              </g>
              <g id="Group_24773-2" data-name="Group 24773" transform="translate(7.023)">
                <path id="Path_24151-2" data-name="Path 24151" d="M1392.361,529.864l-1.841-.7v-9.331l4.6-1.661v10.638l-2.754,1.051Z" transform="translate(-1390.52 -510.12)" fill="#e3dfd6" fill-rule="evenodd"/>
                <path id="Path_24152-2" data-name="Path 24152" d="M1399.42,498.987l2.754-1.051V479.243l-2.754,1.052v18.693Z" transform="translate(-1397.578 -479.243)" fill="#c4bfb5" fill-rule="evenodd"/>
              </g>
            </g>
            <g id="Group_24777-2" data-name="Group 24777" transform="translate(84.805 32.133)">
              <g id="Group_24775-2" data-name="Group 24775" transform="translate(0 15.401)">
                <path id="Path_24153-2" data-name="Path 24153" d="M1561.519,638.078v-3.227l9.221-3.518,9.221,3.495v3.227l-9.221,3.518-9.221-3.495Z" transform="translate(-1561.519 -631.333)" fill="#cfcdc7" fill-rule="evenodd"/>
                <path id="Path_24154-2" data-name="Path 24154" d="M1570.74,638.346l-9.221-3.5,9.221-3.518,9.221,3.495-9.221,3.518Z" transform="translate(-1561.519 -631.333)" fill="#e0ded7" fill-rule="evenodd"/>
                <path id="Path_24155-2" data-name="Path 24155" d="M1570.74,655.058l-9.221-3.494v-3.227l9.221,3.494v3.227Z" transform="translate(-1561.519 -644.82)" fill="#cfcdc7" fill-rule="evenodd"/>
                <path id="Path_24156-2" data-name="Path 24156" d="M1606.085,654.969l9.221-3.517v-3.227l-9.221,3.518v3.225Z" transform="translate(-1596.864 -644.73)" fill="#a8a59e" fill-rule="evenodd"/>
              </g>
              <g id="Group_24776-2" data-name="Group 24776" transform="translate(7.022)">
                <path id="Path_24157-2" data-name="Path 24157" d="M1597.3,607.514l-1.842-.7v-9.33l4.6-1.662v10.638l-2.754,1.051Z" transform="translate(-1595.459 -587.77)" fill="#e3dfd6" fill-rule="evenodd"/>
                <path id="Path_24158-2" data-name="Path 24158" d="M1604.359,576.641l2.754-1.051V556.9l-2.754,1.051v18.694Z" transform="translate(-1602.518 -556.896)" fill="#c4bfb5" fill-rule="evenodd"/>
              </g>
            </g>
          </g>
          <g id="Group_24787-2" data-name="Group 24787" transform="translate(0 0)">
            <g id="Group_24780-2" data-name="Group 24780" transform="translate(105.265 39.886)">
              <g id="Group_24779-2" data-name="Group 24779" transform="translate(0.274 0.211)">
                <path id="Path_24159-2" data-name="Path 24159" d="M1615.889,488.7l45.558-43.349,34.645,13.127-45.558,43.348L1615.889,488.7Z" transform="translate(-1615.649 -445.205)" fill="#1b377e" fill-rule="evenodd"/>
                <path id="Path_24160-2" data-name="Path 24160" d="M1649.645,501.4l-.077-.029-34.838-13.2,45.767-43.547.076.029,34.838,13.2Zm-34.435-13.326,34.374,13.024,45.349-43.149-34.374-13.024Z" transform="translate(-1614.73 -444.627)" fill="#1b377e"/>
              </g>
              <path id="Path_24161-2" data-name="Path 24161" d="M1704.653,468.041l5.247-4.993-.725-.276-5.248,4.993-4.034-1.528,5.247-4.992-.725-.276-5.248,4.993-4.034-1.529,5.248-4.993-.725-.276-5.249,4.993-4.033-1.528,5.248-4.993-.725-.276-5.249,4.993-4.033-1.528,5.248-4.993-.725-.276-5.249,4.993-4.034-1.528,5.248-4.993-.725-.275-5.249,4.993-5.147-1.95-.586.557,5.147,1.95-4.393,4.181-5.146-1.95-.586.558,5.146,1.95-4.393,4.18-5.146-1.95-.586.555,5.147,1.951-4.393,4.18-5.147-1.95-.586.558,5.147,1.95-4.393,4.18-5.147-1.951-.586.558,5.147,1.95-4.392,4.18-5.148-1.951-.586.558,5.148,1.95-4.393,4.18-5.148-1.951-.586.558,5.148,1.951-4.394,4.18-5.147-1.95-.586.557,5.148,1.951-5.248,4.994.724.274,5.247-4.993,4.036,1.529-5.248,4.993.724.274,5.248-4.993,4.035,1.529-5.248,4.993.724.274,5.248-4.993,4.034,1.529-5.247,4.993.724.274,5.248-4.993,4.035,1.529-5.247,4.993.725.275,5.248-4.993,4.034,1.528-5.248,4.993.725.275,5.248-4.993,5.148,1.951.586-.558L1669.8,501.2l4.392-4.179,5.148,1.951.585-.558-5.148-1.951,4.394-4.18,5.147,1.95.585-.557-5.147-1.951,4.393-4.18,5.148,1.951.585-.558-5.148-1.951,4.393-4.18,5.148,1.95.586-.558-5.148-1.95,4.392-4.179,5.148,1.951.586-.559-5.147-1.95,4.392-4.179,5.148,1.951.586-.557-5.148-1.951,4.394-4.181,5.148,1.951.586-.558Zm-10.106-3.049,4.034,1.528-4.393,4.181-4.035-1.529Zm-24.089,16.588,4.393-4.179,4.034,1.528-4.393,4.18Zm3.448,2.087-4.393,4.18-4.034-1.528,4.393-4.18Zm1.531-6.824,4.392-4.18,4.034,1.529-4.393,4.179Zm4.978-4.737,4.393-4.18,4.033,1.528-4.392,4.18Zm-.726-.275-4.034-1.528,4.393-4.18,4.034,1.528Zm-.585.557-4.393,4.18-4.034-1.528,4.393-4.18Zm-4.979,4.737-4.393,4.18-4.034-1.529,4.393-4.18Zm-4.979,4.738-4.393,4.18-4.035-1.529,4.393-4.18Zm-4.978,4.737-4.393,4.18-4.035-1.529,4.393-4.18Zm.725.275,4.034,1.528-4.393,4.18-4.035-1.528Zm4.759,1.8,4.035,1.529-4.393,4.18-4.035-1.529Zm.586-.557,4.393-4.18,4.035,1.529-4.394,4.18Zm4.979-4.737,4.394-4.18,4.035,1.529-4.393,4.18Zm4.979-4.738,4.393-4.179,4.035,1.529-4.393,4.18Zm4.979-4.737,4.393-4.18,4.035,1.529-4.392,4.179Zm4.613-10.721,4.034,1.528-4.394,4.181-4.033-1.528Zm-4.759-1.8,4.034,1.529-4.393,4.18-4.034-1.528Zm-4.759-1.8,4.033,1.529-4.393,4.18-4.034-1.529Zm-4.98,4.738,4.034,1.528-4.393,4.18L1670.9,468.5Zm-4.978,4.737,4.034,1.528-4.393,4.18-4.034-1.529Zm-4.979,4.738,4.034,1.528-4.393,4.18-4.034-1.529Zm-4.979,4.737,4.034,1.529-4.393,4.18-4.035-1.529Zm-4.979,4.737,4.035,1.528-4.393,4.18-4.035-1.529Zm-5.338,10.446L1646,492.185l4.393-4.18,4.035,1.529Zm4.76,1.8-4.035-1.529,4.393-4.18,4.035,1.529Zm4.76,1.8-4.035-1.528,4.393-4.18,4.035,1.529Zm4.76,1.8-4.035-1.528,4.393-4.18,4.035,1.529Zm4.76,1.8-4.034-1.529,4.393-4.18,4.034,1.528Zm4.979-4.737-4.034-1.529,4.394-4.18,4.034,1.528Zm4.979-4.737L1675,489.924l4.393-4.18,4.034,1.529Zm4.979-4.737-4.034-1.528,4.393-4.18,4.034,1.528Zm4.979-4.738-4.034-1.528,4.393-4.179,4.033,1.529Zm4.979-4.737-4.034-1.529,4.393-4.179,4.034,1.528Zm4.979-4.737-4.034-1.529,4.394-4.18,4.034,1.528Z" transform="translate(-1634.057 -451.655)" fill="#e6e6e6" fill-rule="evenodd"/>
              <path id="Path_24162-2" data-name="Path 24162" d="M1614.788,488.034l-1.384-.524,46.142-43.9,1.384.525-46.142,43.9Z" transform="translate(-1613.405 -443.607)" fill="#e6e6e6" fill-rule="evenodd"/>
              <path id="Path_24163-2" data-name="Path 24163" d="M1777.693,549.759l-1.384-.522,46.141-43.9,1.384.524-46.142,43.9Z" transform="translate(-1742.604 -492.561)" fill="#e6e6e6" fill-rule="evenodd"/>
              <path id="Path_24164-2" data-name="Path 24164" d="M1831.276,444.619l1.064-1.012,35.088,13.3-1.064,1.012-35.089-13.295Z" transform="translate(-1786.198 -443.607)" fill="#e6e6e6" fill-rule="evenodd"/>
              <path id="Path_24165-2" data-name="Path 24165" d="M1613.4,651.925l1.064-1.012,35.089,13.295-1.064,1.012L1613.4,651.925Z" transform="translate(-1613.405 -608.021)" fill="#e6e6e6" fill-rule="evenodd"/>
            </g>
            <g id="Group_24782-2" data-name="Group 24782">
              <g id="Group_24781-2" data-name="Group 24781" transform="translate(0.274 0.211)">
                <path id="Path_24166-2" data-name="Path 24166" d="M1107.121,295.929l45.558-43.349,34.645,13.127-45.558,43.349-34.645-13.127Z" transform="translate(-1106.881 -252.43)" fill="#1b377e" fill-rule="evenodd"/>
                <path id="Path_24167-2" data-name="Path 24167" d="M1140.878,308.629l-.077-.029-34.838-13.2,45.767-43.548.076.029,34.838,13.2ZM1106.442,295.3l34.375,13.024,45.349-43.149-34.375-13.024Z" transform="translate(-1105.963 -251.852)" fill="#1b377e"/>
              </g>
              <path id="Path_24168-2" data-name="Path 24168" d="M1195.886,275.265l5.247-4.992-.725-.276-5.248,4.993-4.034-1.528,5.247-4.992-.725-.275-5.248,4.993-4.034-1.529,5.247-4.993-.725-.276-5.249,4.994-4.034-1.528,5.248-4.993-.725-.276-5.249,4.993-4.034-1.528,5.247-4.993-.725-.275-5.249,4.993-4.034-1.528,5.248-4.993-.725-.276-5.249,4.994-5.147-1.95-.586.558,5.147,1.95-4.393,4.181-5.146-1.95-.586.558,5.146,1.95-4.393,4.18-5.146-1.95-.586.556,5.147,1.951-4.393,4.18-5.147-1.951-.586.558,5.147,1.95-4.393,4.179-5.147-1.95-.586.558,5.147,1.95-4.393,4.18-5.148-1.951-.586.558,5.148,1.95-4.393,4.18-5.148-1.951-.586.558,5.148,1.951-4.394,4.18-5.147-1.95-.586.557,5.148,1.951-5.247,4.994.724.274,5.247-4.993,4.035,1.529-5.247,4.993.724.274,5.247-4.993,4.035,1.529-5.247,4.993.724.274,5.247-4.993,4.034,1.529-5.247,4.994.724.274,5.248-4.993,4.035,1.529-5.248,4.993.725.275,5.248-4.993,4.034,1.528-5.248,4.994.725.275,5.248-4.993,5.148,1.951.586-.558-5.148-1.95,4.392-4.18,5.149,1.951.586-.558-5.148-1.951,4.393-4.18,5.147,1.95.585-.556-5.147-1.951,4.393-4.18,5.149,1.951.585-.558-5.148-1.951,4.393-4.18,5.148,1.95.586-.557-5.148-1.95,4.392-4.179,5.149,1.951.586-.559-5.148-1.95,4.392-4.179,5.149,1.951.586-.558L1190.907,280l4.394-4.181,5.148,1.951.586-.557Zm-10.106-3.049,4.034,1.528-4.393,4.181-4.035-1.529ZM1161.691,288.8l4.393-4.18,4.034,1.528-4.393,4.18Zm3.448,2.086-4.393,4.18-4.034-1.528,4.393-4.18Zm1.531-6.824,4.393-4.18,4.034,1.529-4.393,4.179Zm4.978-4.737,4.393-4.18,4.033,1.528-4.392,4.18Zm-.725-.274-4.034-1.529,4.393-4.18,4.034,1.528Zm-.585.557-4.393,4.18-4.034-1.528,4.392-4.18Zm-4.979,4.737-4.393,4.18L1156.932,287l4.393-4.18Zm-4.979,4.738-4.393,4.18-4.035-1.529,4.393-4.18Zm-4.978,4.737-4.393,4.18-4.035-1.529,4.393-4.18Zm.725.275,4.034,1.528-4.393,4.18-4.035-1.528Zm4.759,1.8,4.036,1.529-4.393,4.18-4.035-1.529Zm.586-.557,4.393-4.18,4.035,1.529-4.393,4.18Zm4.979-4.737,4.394-4.18,4.035,1.529-4.393,4.18Zm4.98-4.738,4.392-4.179,4.035,1.528-4.393,4.18Zm4.979-4.737,4.393-4.18,4.035,1.529-4.393,4.179Zm4.613-10.721,4.034,1.528-4.393,4.181-4.033-1.528Zm-4.76-1.8,4.034,1.529-4.393,4.18-4.034-1.528Zm-4.759-1.8,4.034,1.528-4.393,4.18-4.034-1.528Zm-4.98,4.738,4.034,1.528-4.393,4.18-4.034-1.528Zm-4.978,4.737,4.034,1.528-4.393,4.18-4.034-1.528Zm-4.979,4.737,4.034,1.529-4.393,4.18-4.034-1.529Zm-4.979,4.737,4.034,1.528-4.393,4.18-4.035-1.529Zm-4.978,4.737,4.035,1.528-4.393,4.18-4.035-1.529Zm-5.338,10.446-4.035-1.529,4.393-4.18,4.035,1.529Zm4.76,1.8-4.035-1.529,4.393-4.18,4.035,1.529Zm4.76,1.8-4.035-1.529,4.393-4.18,4.035,1.529Zm4.76,1.8-4.035-1.528,4.393-4.18,4.035,1.529Zm4.76,1.8-4.034-1.528,4.393-4.18,4.034,1.529Zm4.978-4.737-4.034-1.528,4.394-4.18,4.034,1.528Zm4.979-4.737-4.034-1.528,4.393-4.18,4.034,1.528Zm4.979-4.737-4.034-1.528,4.393-4.18,4.034,1.529Zm4.979-4.738-4.034-1.528,4.393-4.179,4.034,1.528Zm4.979-4.737-4.034-1.528,4.393-4.179,4.034,1.529Zm4.979-4.737-4.035-1.528,4.394-4.181,4.034,1.528Z" transform="translate(-1125.29 -258.879)" fill="#e6e6e6" fill-rule="evenodd"/>
              <path id="Path_24169-2" data-name="Path 24169" d="M1106.021,295.258l-1.384-.524,46.142-43.9,1.384.525-46.142,43.9Z" transform="translate(-1104.638 -250.831)" fill="#e6e6e6" fill-rule="evenodd"/>
              <path id="Path_24170-2" data-name="Path 24170" d="M1268.926,356.984l-1.384-.523,46.142-43.9,1.384.525-46.142,43.9Z" transform="translate(-1233.837 -299.786)" fill="#e6e6e6" fill-rule="evenodd"/>
              <path id="Path_24171-2" data-name="Path 24171" d="M1322.51,251.844l1.064-1.013,35.088,13.3-1.064,1.011-35.088-13.295Z" transform="translate(-1277.432 -250.831)" fill="#e6e6e6" fill-rule="evenodd"/>
              <path id="Path_24172-2" data-name="Path 24172" d="M1104.638,459.15l1.064-1.013,35.089,13.295-1.064,1.013-35.088-13.295Z" transform="translate(-1104.638 -415.245)" fill="#e6e6e6" fill-rule="evenodd"/>
            </g>
            <g id="Group_24784-2" data-name="Group 24784" transform="translate(35.088 13.295)">
              <g id="Group_24783-2" data-name="Group 24783" transform="translate(0.274 0.211)">
                <path id="Path_24173-2" data-name="Path 24173" d="M1276.71,360.187l45.558-43.348,34.645,13.127-45.558,43.348-34.645-13.127Z" transform="translate(-1276.471 -316.688)" fill="#1b377e" fill-rule="evenodd"/>
                <path id="Path_24174-2" data-name="Path 24174" d="M1310.467,372.887l-.077-.029-34.838-13.2,45.767-43.547.077.029,34.838,13.2Zm-34.435-13.326,34.375,13.024,45.349-43.149-34.375-13.025Z" transform="translate(-1275.552 -316.11)" fill="#1b377e"/>
              </g>
              <path id="Path_24175-2" data-name="Path 24175" d="M1365.475,339.524l5.247-4.992-.725-.275-5.248,4.993-4.034-1.529,5.247-4.992-.725-.276-5.248,4.993-4.034-1.529,5.247-4.993-.725-.275-5.248,4.993-4.034-1.528,5.248-4.993-.725-.276-5.248,4.994-4.034-1.528,5.248-4.993-.725-.276-5.249,4.993-4.034-1.528,5.247-4.993-.725-.275-5.249,4.993-5.147-1.95-.586.558,5.147,1.95-4.393,4.181-5.146-1.95-.586.558,5.146,1.95-4.393,4.18-5.146-1.95-.586.556,5.147,1.951-4.393,4.18-5.147-1.95-.586.558,5.148,1.95-4.393,4.18-5.147-1.95-.586.558,5.147,1.95-4.392,4.18-5.148-1.951-.586.558,5.148,1.95-4.393,4.18-5.148-1.951-.586.558,5.148,1.951-4.394,4.18-5.147-1.95-.586.556,5.148,1.951-5.248,4.993.724.274,5.247-4.993,4.035,1.529-5.248,4.993.724.274,5.248-4.993,4.035,1.529-5.247,4.993.724.274,5.248-4.993,4.034,1.529-5.247,4.993.724.274,5.248-4.993,4.035,1.529-5.248,4.994.725.275,5.248-4.994,4.034,1.529-5.248,4.993.725.275,5.248-4.994,5.149,1.951.586-.558-5.148-1.951,4.392-4.18,5.148,1.951.586-.558-5.148-1.951,4.393-4.18,5.148,1.95.585-.557-5.147-1.951,4.393-4.18,5.148,1.951.585-.558-5.148-1.951,4.393-4.18,5.148,1.95.586-.558-5.148-1.95,4.392-4.179,5.149,1.951.586-.558-5.147-1.95,4.392-4.179,5.149,1.951.586-.558-5.148-1.951,4.394-4.181,5.148,1.951.586-.558Zm-10.106-3.049L1359.4,338l-4.393,4.18-4.035-1.529Zm-24.089,16.588,4.393-4.18,4.034,1.528-4.393,4.18Zm3.448,2.087-4.393,4.179L1326.3,357.8l4.393-4.18Zm1.531-6.824,4.393-4.18,4.034,1.529-4.393,4.179Zm4.978-4.737,4.393-4.18,4.033,1.528-4.392,4.18Zm-.725-.274-4.034-1.528,4.393-4.18,4.034,1.528Zm-.585.557-4.393,4.18-4.034-1.528,4.392-4.18Zm-4.979,4.737-4.393,4.18-4.034-1.529,4.393-4.18Zm-4.979,4.738-4.393,4.179L1321.542,356l4.393-4.179Zm-4.978,4.736-4.393,4.18-4.035-1.529,4.393-4.179Zm.725.275,4.034,1.528-4.393,4.18-4.035-1.528Zm4.759,1.8,4.035,1.529-4.393,4.18-4.035-1.529Zm.586-.557,4.393-4.18,4.035,1.529-4.393,4.18Zm4.978-4.737,4.394-4.18,4.035,1.529-4.393,4.18Zm4.98-4.738,4.392-4.179,4.035,1.528-4.393,4.18Zm4.979-4.737,4.392-4.18,4.035,1.529-4.393,4.179Zm4.613-10.721,4.034,1.528-4.394,4.18-4.033-1.528Zm-4.76-1.8,4.034,1.528-4.393,4.18-4.034-1.529Zm-4.759-1.8,4.034,1.528-4.393,4.18-4.034-1.528Zm-4.98,4.738,4.034,1.528-4.393,4.18-4.034-1.528Zm-4.978,4.737,4.034,1.528-4.393,4.18-4.034-1.528Zm-4.979,4.738,4.034,1.528-4.393,4.18-4.034-1.529Zm-4.979,4.737,4.034,1.529-4.392,4.18-4.035-1.529Zm-4.978,4.737,4.035,1.528-4.393,4.18-4.035-1.529Zm-5.338,10.446-4.035-1.529,4.393-4.18,4.035,1.529Zm4.76,1.8-4.035-1.529,4.393-4.18,4.035,1.529Zm4.76,1.8-4.035-1.528,4.393-4.18,4.035,1.529Zm4.76,1.8-4.035-1.529,4.393-4.18,4.035,1.529Zm4.76,1.8-4.035-1.528,4.393-4.18,4.034,1.528Zm4.979-4.737-4.034-1.528,4.394-4.18,4.034,1.528Zm4.979-4.737-4.034-1.528,4.393-4.18,4.034,1.528Zm4.979-4.737-4.034-1.528,4.393-4.18,4.034,1.528Zm4.979-4.738-4.034-1.528,4.393-4.179,4.034,1.528Zm4.979-4.737-4.034-1.528,4.393-4.179,4.034,1.529Zm4.979-4.737-4.034-1.528,4.394-4.181,4.034,1.528Z" transform="translate(-1294.879 -323.138)" fill="#e6e6e6" fill-rule="evenodd"/>
              <path id="Path_24176-2" data-name="Path 24176" d="M1275.61,359.517l-1.384-.523,46.142-43.9,1.384.524-46.142,43.9Z" transform="translate(-1274.227 -315.09)" fill="#e6e6e6" fill-rule="evenodd"/>
              <path id="Path_24177-2" data-name="Path 24177" d="M1438.515,421.243l-1.384-.523,46.142-43.9,1.384.525-46.142,43.9Z" transform="translate(-1403.426 -364.044)" fill="#e6e6e6" fill-rule="evenodd"/>
              <path id="Path_24178-2" data-name="Path 24178" d="M1492.1,316.1l1.064-1.012,35.088,13.3-1.065,1.011L1492.1,316.1Z" transform="translate(-1447.021 -315.09)" fill="#e6e6e6" fill-rule="evenodd"/>
              <path id="Path_24179-2" data-name="Path 24179" d="M1274.227,523.408l1.065-1.013,35.088,13.295-1.064,1.013-35.088-13.295Z" transform="translate(-1274.227 -479.504)" fill="#e6e6e6" fill-rule="evenodd"/>
            </g>
            <g id="Group_24786-2" data-name="Group 24786" transform="translate(70.177 26.59)">
              <g id="Group_24785-2" data-name="Group 24785" transform="translate(0.274 0.211)">
                <path id="Path_24180-2" data-name="Path 24180" d="M1446.3,424.443l45.558-43.348,34.645,13.127-45.559,43.348L1446.3,424.443Z" transform="translate(-1446.057 -380.944)" fill="#1b377e" fill-rule="evenodd"/>
                <path id="Path_24181-2" data-name="Path 24181" d="M1480.054,437.143l-.077-.029-34.838-13.2,45.767-43.548.077.029,34.838,13.2Zm-34.435-13.326,34.375,13.024,45.349-43.149-34.375-13.025Z" transform="translate(-1445.139 -380.366)" fill="#1b377e"/>
              </g>
              <path id="Path_24182-2" data-name="Path 24182" d="M1535.064,403.78l5.247-4.993-.725-.275-5.249,4.993-4.034-1.529,5.248-4.992-.725-.276-5.249,4.993-4.034-1.529,5.247-4.993-.725-.275-5.249,4.993-4.033-1.528,5.247-4.993-.725-.275-5.248,4.993-4.034-1.529,5.248-4.993-.725-.276-5.248,4.994-4.034-1.529,5.248-4.993-.725-.275-5.248,4.993-5.147-1.95-.585.558,5.147,1.95-4.394,4.181-5.146-1.95-.586.558,5.147,1.95-4.394,4.18-5.146-1.95-.586.556L1500,404.52l-4.394,4.18-5.147-1.95-.587.557,5.148,1.95-4.394,4.18-5.147-1.95-.586.557,5.147,1.95-4.393,4.18-5.148-1.951-.586.558,5.148,1.95-4.394,4.18-5.148-1.951-.585.558,5.148,1.951-4.394,4.18-5.147-1.95-.585.557,5.148,1.951-5.248,4.993.724.274,5.248-4.993,4.036,1.529L1474.616,435l.724.274,5.248-4.993,4.036,1.529-5.248,4.993.724.274,5.248-4.993,4.035,1.529-5.248,4.993.725.274,5.248-4.993,4.035,1.529-5.248,4.993.725.275,5.247-4.994,4.035,1.528-5.247,4.993.725.275,5.248-4.993,5.149,1.951.586-.558-5.148-1.951,4.393-4.18,5.148,1.951.585-.558-5.148-1.951,4.394-4.18,5.148,1.95.585-.557-5.147-1.951,4.393-4.179,5.149,1.951.586-.558-5.148-1.951,4.392-4.18,5.148,1.951.586-.558-5.148-1.951,4.392-4.179,5.149,1.951.586-.559-5.147-1.95,4.392-4.179,5.149,1.951.586-.558-5.148-1.951,4.393-4.181,5.148,1.951.585-.558Zm-10.106-3.049,4.035,1.529-4.394,4.18-4.035-1.529Zm-24.089,16.588,4.392-4.18,4.035,1.528-4.393,4.18Zm3.448,2.087-4.394,4.18-4.034-1.529,4.392-4.18Zm1.531-6.824,4.393-4.18,4.034,1.529-4.393,4.179Zm4.978-4.737,4.393-4.18,4.034,1.528-4.392,4.18Zm-.726-.275-4.034-1.528,4.393-4.18,4.035,1.528Zm-.585.557-4.393,4.18-4.034-1.528,4.393-4.18Zm-4.978,4.737-4.394,4.18-4.034-1.529,4.393-4.18Zm-4.979,4.738-4.393,4.18-4.035-1.529,4.392-4.179Zm-4.978,4.737-4.394,4.18-4.035-1.529,4.394-4.18Zm.725.275,4.034,1.529-4.393,4.18-4.035-1.528Zm4.759,1.8,4.036,1.529-4.393,4.18-4.035-1.529Zm.586-.557,4.393-4.18,4.035,1.529-4.393,4.18Zm4.979-4.737,4.394-4.18,4.035,1.529-4.394,4.18Zm4.979-4.738,4.392-4.179,4.035,1.528-4.393,4.18Zm4.979-4.737,4.392-4.18,4.035,1.529-4.392,4.179Zm4.612-10.721,4.034,1.528-4.394,4.181-4.033-1.529Zm-4.76-1.8,4.035,1.528-4.394,4.18-4.034-1.528Zm-4.759-1.8,4.034,1.528-4.394,4.18-4.034-1.528Zm-4.98,4.738,4.035,1.529-4.394,4.18-4.034-1.529Zm-4.978,4.737,4.035,1.529-4.394,4.18-4.034-1.529Zm-4.979,4.738,4.035,1.528-4.394,4.18-4.034-1.529Zm-4.979,4.737,4.035,1.528-4.392,4.18-4.035-1.529Zm-4.978,4.737,4.035,1.529-4.394,4.18-4.035-1.529Zm-5.338,10.446-4.035-1.529,4.393-4.18,4.035,1.529Zm4.76,1.8-4.035-1.529,4.394-4.18,4.035,1.529Zm4.76,1.8-4.035-1.529,4.393-4.18,4.035,1.529Zm4.76,1.8-4.035-1.528,4.392-4.18,4.036,1.529Zm4.759,1.8-4.034-1.528,4.393-4.18,4.035,1.529Zm4.979-4.737-4.035-1.528,4.393-4.18,4.035,1.528Zm4.978-4.737-4.034-1.528,4.392-4.18,4.035,1.529Zm4.979-4.737-4.034-1.528,4.393-4.18,4.035,1.528Zm4.979-4.738-4.034-1.528,4.393-4.179,4.034,1.528Zm4.979-4.737-4.035-1.528,4.393-4.179,4.035,1.529Zm4.978-4.737-4.034-1.528,4.394-4.181,4.034,1.528Z" transform="translate(-1464.468 -387.394)" fill="#e6e6e6" fill-rule="evenodd"/>
              <path id="Path_24183-2" data-name="Path 24183" d="M1445.2,423.773l-1.384-.523,46.141-43.9,1.385.525-46.142,43.9Z" transform="translate(-1443.816 -379.346)" fill="#e6e6e6" fill-rule="evenodd"/>
              <path id="Path_24184-2" data-name="Path 24184" d="M1608.1,485.5l-1.384-.523,46.141-43.9,1.385.525L1608.1,485.5Z" transform="translate(-1573.015 -428.3)" fill="#e6e6e6" fill-rule="evenodd"/>
              <path id="Path_24185-2" data-name="Path 24185" d="M1661.685,380.358l1.065-1.012,35.089,13.3-1.064,1.011-35.089-13.295Z" transform="translate(-1616.607 -379.346)" fill="#e6e6e6" fill-rule="evenodd"/>
              <path id="Path_24186-2" data-name="Path 24186" d="M1443.816,587.664l1.064-1.013,35.088,13.295-1.064,1.013-35.088-13.295Z" transform="translate(-1443.816 -543.759)" fill="#e6e6e6" fill-rule="evenodd"/>
            </g>
          </g>
          <path id="Path_24187-2" data-name="Path 24187" d="M1199.823,514.462h-3.62l7.562-2.885,1.816.687-5.758,2.2Zm42.4,16.066h-3.62l7.562-2.886,1.816.689-5.758,2.2Zm42.4,16.067h-3.62l7.562-2.886,1.816.688-5.758,2.2Zm38.426,9.316v-6.376l-4.793,4.559,4.793,1.817Zm2.754-9v8.8l-1.63.621,3.689,1.4,4.765-1.819v3.227l-9.221,3.518h3.62l9.221-3.523-3.62-1.372v-1.342l13.011-3.211,1.268.481,5.888-2.247,41.5-10.24-44.682-16.978-.3.324v22.193l-2.754,1.051V527.174Zm21.1,3.554v3.227l9.221-3.517v-3.227l-9.221,3.517Z" transform="translate(-1177.259 -457.628)" fill="#ccc" fill-rule="evenodd" style="mix-blend-mode: multiply;isolation: isolate"/>
        </g>
      </g>
    </g>
  </g>
</svg>
