<svg xmlns="http://www.w3.org/2000/svg" width="106.123" height="459.381" viewBox="0 0 106.123 459.381">
  <g id="Group_25687" data-name="Group 25687" transform="translate(-12464.354 13456.949)" opacity="0.37">
    <path id="Path_26175" data-name="Path 26175" d="M55.251,1720.926a.74.74,0,0,1-.373-.1l-44.386-25.8a.743.743,0,0,1,.373-1.385H99.637a.743.743,0,0,1,.373,1.385l-44.386,25.8a.742.742,0,0,1-.374.1m-41.629-25.8,41.629,24.193,41.629-24.193Z" transform="translate(12459.138 -14718.495)" fill="#b3b3b3"/>
    <path id="Path_26176" data-name="Path 26176" d="M60.346,1618.2a.742.742,0,0,1-.413-.126l-38.508-25.8a.743.743,0,0,1,.413-1.36H99.586a.743.743,0,0,1,.408,1.363l-39.24,25.8a.741.741,0,0,1-.408.123m-36.065-25.8,36.069,24.165L97.1,1592.4Z" transform="translate(12453.676 -14667.364)" fill="#e84938"/>
    <path id="Path_26177" data-name="Path 26177" d="M99.636,1669.567a.743.743,0,0,1-.37-.1l-44.378-25.582-43.647,25.579a.743.743,0,1,1-.751-1.282l44.02-25.8a.74.74,0,0,1,.746,0l44.752,25.8a.743.743,0,0,1-.372,1.386" transform="translate(12459.138 -14692.931)" fill="#e84938"/>
    <path id="Path_26178" data-name="Path 26178" d="M140.472,1643.77H98.507a.743.743,0,1,1,0-1.486h41.965a.743.743,0,1,1,0,1.486" transform="translate(12415.516 -14692.931)" fill="#e84938"/>
    <path id="Path_26179" data-name="Path 26179" d="M58.01,1643.77h-41.6a.743.743,0,1,1,0-1.486h41.6a.743.743,0,1,1,0,1.486" transform="translate(12456.377 -14692.931)" fill="#e84938"/>
    <path id="Path_26180" data-name="Path 26180" d="M99.586,1566.84a.738.738,0,0,1-.407-.123l-38.828-25.526-38.1,25.523a.743.743,0,0,1-.827-1.234l38.508-25.8a.743.743,0,0,1,.822,0l39.24,25.8a.743.743,0,0,1-.409,1.363" transform="translate(12453.676 -14641.801)" fill="#b3b3b3"/>
    <path id="Path_26181" data-name="Path 26181" d="M135.094,1541.043H98.507a.743.743,0,0,1,0-1.486h36.587a.743.743,0,0,1,0,1.486" transform="translate(12415.516 -14641.801)" fill="#b3b3b3"/>
    <path id="Path_26182" data-name="Path 26182" d="M98.507,1515.479a.743.743,0,0,1-.45-1.335l32.244-24.462H98.507a.743.743,0,1,1,0-1.486h34a.743.743,0,0,1,.449,1.335l-34,25.8a.742.742,0,0,1-.449.151" transform="translate(12415.516 -14616.237)" fill="#b3b3b3"/>
    <path id="Path_26183" data-name="Path 26183" d="M63.34,1515.479H27.121a.743.743,0,1,1,0-1.486h34.03l-31.9-24.464a.743.743,0,0,1,.452-1.333H63.34a.743.743,0,1,1,0,1.486H31.894l31.9,24.464a.743.743,0,0,1-.452,1.333" transform="translate(12451.047 -14616.237)" fill="#b3b3b3"/>
    <path id="Path_26184" data-name="Path 26184" d="M68.373,1438.323H37.233a.743.743,0,1,1,0-1.486h31.14a.743.743,0,1,1,0,1.486" transform="translate(12446.014 -14590.674)" fill="#e84938"/>
    <path id="Path_26185" data-name="Path 26185" d="M99.539,1464.119a.742.742,0,0,1-.449-.151l-33.549-25.453-32.82,25.448a.743.743,0,1,1-.91-1.174l33.271-25.8a.742.742,0,0,1,.9,0l34,25.8a.743.743,0,0,1-.45,1.334" transform="translate(12448.486 -14590.674)" fill="#e84938"/>
    <path id="Path_26186" data-name="Path 26186" d="M70.372,1412.759a.741.741,0,0,1-.5-.193l-28.391-25.8a.743.743,0,0,1,.5-1.293H99.495a.743.743,0,0,1,.493,1.3l-29.123,25.8a.742.742,0,0,1-.493.187m-26.469-25.8,26.476,24.056,27.158-24.056Z" transform="translate(12443.65 -14565.11)" fill="#e84938"/>
    <path id="Path_26187" data-name="Path 26187" d="M99.495,1361.4a.738.738,0,0,1-.5-.19l-28.263-25.352-28.26,25.352a.743.743,0,0,1-.992-1.106l28.756-25.8a.742.742,0,0,1,.992,0l28.759,25.8a.742.742,0,0,1-.5,1.3" transform="translate(12443.65 -14539.547)" fill="#b3b3b3"/>
    <path id="Path_26188" data-name="Path 26188" d="M125.378,1335.6H98.506a.743.743,0,1,1,0-1.486h26.873a.743.743,0,1,1,0,1.486" transform="translate(12415.517 -14539.547)" fill="#b3b3b3"/>
    <path id="Path_26189" data-name="Path 26189" d="M98.507,1310.038a.743.743,0,0,1-.535-1.258l23.608-24.539H98.507a.743.743,0,0,1,0-1.486h24.817a.743.743,0,0,1,.535,1.258l-24.817,25.8a.742.742,0,0,1-.535.228" transform="translate(12415.516 -14513.983)" fill="#b3b3b3"/>
    <path id="Path_26190" data-name="Path 26190" d="M72.967,1310.038h-26.5a.743.743,0,1,1,0-1.486H71.239l-23.262-24.543a.743.743,0,0,1,.539-1.254h24.45a.743.743,0,0,1,0,1.486H50.244l23.262,24.543a.743.743,0,0,1-.539,1.254" transform="translate(12441.42 -14513.983)" fill="#b3b3b3"/>
    <path id="Path_26191" data-name="Path 26191" d="M121.565,1232.881H98.506a.743.743,0,0,1,0-1.486h23.058a.743.743,0,1,1,0,1.486" transform="translate(12415.516 -14488.42)" fill="#e84938"/>
    <path id="Path_26192" data-name="Path 26192" d="M50.553,1258.677a.743.743,0,0,1-.539-1.254l23.262-24.542H52.312a.743.743,0,1,1,0-1.486H75a.743.743,0,0,1,.539,1.254l-24.45,25.8a.742.742,0,0,1-.539.232" transform="translate(12439.384 -14488.42)" fill="#e84938"/>
    <path id="Path_26193" data-name="Path 26193" d="M102.357,1233.317a.743.743,0,0,1-.539-.232l-24.453-25.8-21.552-25.624a.743.743,0,1,1,1.137-.957L78.472,1206.3l24.423,25.764a.743.743,0,0,1-.539,1.254" transform="translate(12436.483 -14463.06)" fill="#e84938"/>
    <path id="Path_26194" data-name="Path 26194" d="M99.231,1207.521a.743.743,0,0,1-.568-1.221l21.526-25.592a.743.743,0,0,1,1.137.957L99.8,1207.256a.742.742,0,0,1-.569.265" transform="translate(12415.155 -14463.06)" fill="#e84938"/>
    <rect id="Rectangle_7093" data-name="Rectangle 7093" width="1.757" height="61.423" transform="translate(12513.507 -13456.949)" fill="gray"/>
    <rect id="Rectangle_7094" data-name="Rectangle 7094" width="1.739" height="38.632" transform="translate(12519.658 -13434.158)" fill="gray"/>
    <path id="Path_26195" data-name="Path 26195" d="M146.48,1465.492H99.235a.743.743,0,0,1-.743-.743V1181.187a.743.743,0,0,1,.743-.743h21.524a.743.743,0,0,1,.742.724c1.849,72.128,25.478,281.392,25.716,283.5a.743.743,0,0,1-.738.827m-46.5-1.486h45.671c-1.629-14.479-23.689-211.562-25.613-282.076H99.978Z" transform="translate(12415.153 -14463.06)" fill="#666"/>
    <path id="Path_26196" data-name="Path 26196" d="M52.418,1465.492H5.173a.743.743,0,0,1-.738-.827c.239-2.1,23.867-211.368,25.716-283.5a.744.744,0,0,1,.743-.724H52.418a.743.743,0,0,1,.743.743v283.562a.743.743,0,0,1-.743.743M6,1464.006H51.675V1181.93H31.617C29.693,1252.444,7.633,1449.527,6,1464.006" transform="translate(12461.971 -14463.06)" fill="#666"/>
    <rect id="Rectangle_7095" data-name="Rectangle 7095" width="22.183" height="113.654" transform="translate(12503.294 -13395.527)" fill="#e84938"/>
    <rect id="Rectangle_7096" data-name="Rectangle 7096" width="22.183" height="6.761" transform="translate(12503.294 -13302.848)" fill="#f2f2f2"/>
    <rect id="Rectangle_7097" data-name="Rectangle 7097" width="22.183" height="6.761" transform="translate(12503.294 -13321.353)" fill="#f2f2f2"/>
    <rect id="Rectangle_7098" data-name="Rectangle 7098" width="22.183" height="6.761" transform="translate(12503.294 -13339.856)" fill="#f2f2f2"/>
    <rect id="Rectangle_7099" data-name="Rectangle 7099" width="22.183" height="6.761" transform="translate(12503.294 -13358.359)" fill="#f2f2f2"/>
    <rect id="Rectangle_7100" data-name="Rectangle 7100" width="22.183" height="6.761" transform="translate(12503.294 -13376.864)" fill="#f2f2f2"/>
    <rect id="Rectangle_7101" data-name="Rectangle 7101" width="22.183" height="7.249" transform="translate(12503.294 -13395.856)" fill="#f2f2f2"/>
    <path id="Path_26197" data-name="Path 26197" d="M130.015,1438.323H98.507a.743.743,0,1,1,0-1.486h31.508a.743.743,0,1,1,0,1.486" transform="translate(12415.516 -14590.674)" fill="#e84938"/>
    <path id="Path_26198" data-name="Path 26198" d="M133.993,1465.491a.743.743,0,0,1-.735-.64c-13.415-96.3-15.406-281.795-15.425-283.657a.743.743,0,0,1,.735-.75h.008a.743.743,0,0,1,.743.735c.019,1.862,2.009,187.26,15.411,283.467a.743.743,0,0,1-.633.838.825.825,0,0,1-.1.007" transform="translate(12405.527 -14463.06)" fill="#666"/>
    <path id="Path_26199" data-name="Path 26199" d="M49.252,1465.49a.8.8,0,0,1-.1-.007.743.743,0,0,1-.633-.838c13.4-96.207,15.392-281.605,15.411-283.467a.728.728,0,0,1,.75-.735.742.742,0,0,1,.735.75c-.019,1.862-2.01,187.357-15.425,283.657a.743.743,0,0,1-.735.64" transform="translate(12440.032 -14463.06)" fill="#666"/>
    <path id="Path_26200" data-name="Path 26200" d="M168.543,1394.4c0,8.114-5.23,14.691-11.682,14.691s-15.617-2.029-15.617-14.691c0-12.389,9.165-14.691,15.617-14.691s11.682,6.577,11.682,14.691" transform="translate(12393.874 -14562.242)" fill="gray"/>
    <path id="Path_26201" data-name="Path 26201" d="M172.443,1394.4c0,8.114-5.23,14.691-11.682,14.691s-11.682-6.577-11.682-14.691,5.23-14.691,11.682-14.691,11.682,6.577,11.682,14.691" transform="translate(12389.976 -14562.242)" fill="#f2f2f2"/>
    <path id="Path_26202" data-name="Path 26202" d="M4.687,1422.343c0,9.243,5.958,16.735,13.308,16.735s17.79-2.312,17.79-16.735c0-14.113-10.44-16.735-17.79-16.735S4.687,1413.1,4.687,1422.343" transform="translate(12461.843 -14575.131)" fill="gray"/>
    <path id="Path_26203" data-name="Path 26203" d="M4.687,1422.343c0,9.243,5.958,16.735,13.308,16.735s13.308-7.492,13.308-16.735-5.958-16.735-13.308-16.735S4.687,1413.1,4.687,1422.343" transform="translate(12461.843 -14575.131)" fill="#f2f2f2"/>
    <path id="Path_26204" data-name="Path 26204" d="M90.973,1299.313c0,9.37,7.875,16.966,17.59,16.966a17.232,17.232,0,0,0,17.074-17.428c0-9.37-7.359-16.5-17.074-16.5s-17.59,7.6-17.59,16.966" transform="translate(12418.896 -14513.78)" fill="#666"/>
    <path id="Path_26205" data-name="Path 26205" d="M97.1,1299.313c0,9.37,7.186,16.966,16.051,16.966s16.051-7.6,16.051-16.966-7.187-16.966-16.051-16.966-16.051,7.6-16.051,16.966" transform="translate(12415.846 -14513.78)" fill="#f2f2f2"/>
    <path id="Path_26206" data-name="Path 26206" d="M109.507,1305.84a9.835,9.835,0,1,0,9.82-10.38,10.112,10.112,0,0,0-9.82,10.38" transform="translate(12409.671 -14520.307)" fill="#e6e6e6"/>
    <path id="Path_26207" data-name="Path 26207" d="M128.627,1316.13h6.506c.476,0,.862-.206.862-.462s-.386-.461-.862-.461h-6.506c-.476,0-.862.206-.862.461s.386.462.862.462" transform="translate(12400.584 -14530.136)" fill="#b3b3b3"/>
    <rect id="Rectangle_7102" data-name="Rectangle 7102" width="43.273" height="5.989" transform="translate(12492.737 -13355.692)" fill="#4d4d4d"/>
    <rect id="Rectangle_7103" data-name="Rectangle 7103" width="43.274" height="5.989" transform="translate(12494.215 -13325.299)" fill="#4d4d4d"/>
    <rect id="Rectangle_7104" data-name="Rectangle 7104" width="6.666" height="46.624" transform="translate(12489.234 -13359.784)" fill="#ccc"/>
    <rect id="Rectangle_7105" data-name="Rectangle 7105" width="6.666" height="46.624" transform="translate(12499.962 -13359.788)" fill="#ccc"/>
    <rect id="Rectangle_7106" data-name="Rectangle 7106" width="6.666" height="46.624" transform="translate(12510.689 -13359.792)" fill="#ccc"/>
    <rect id="Rectangle_7107" data-name="Rectangle 7107" width="6.666" height="46.624" transform="translate(12521.416 -13359.797)" fill="#ccc"/>
    <rect id="Rectangle_7108" data-name="Rectangle 7108" width="6.666" height="46.624" transform="translate(12532.144 -13359.801)" fill="#ccc"/>
    <path id="Path_26208" data-name="Path 26208" d="M99.433,1175.168H49.154a.743.743,0,0,1-.743-.743V1167.6a.743.743,0,0,1,.743-.742H99.433a.743.743,0,0,1,.743.742v6.824a.743.743,0,0,1-.743.743M49.9,1173.682H98.69v-5.338H49.9Z" transform="translate(12440.08 -14456.299)" fill="#4d4d4d"/>
    <path id="Path_26209" data-name="Path 26209" d="M55.065,1175.168a.743.743,0,0,1-.743-.743V1167.6a.743.743,0,0,1,1.486,0v6.823a.743.743,0,0,1-.743.743" transform="translate(12437.139 -14456.299)" fill="#4d4d4d"/>
    <path id="Path_26210" data-name="Path 26210" d="M62.426,1175.168a.743.743,0,0,1-.743-.743V1167.6a.743.743,0,0,1,1.486,0v6.823a.743.743,0,0,1-.743.743" transform="translate(12433.475 -14456.299)" fill="#4d4d4d"/>
    <path id="Path_26211" data-name="Path 26211" d="M69.787,1175.168a.743.743,0,0,1-.743-.743V1167.6a.743.743,0,0,1,1.486,0v6.823a.743.743,0,0,1-.743.743" transform="translate(12429.811 -14456.299)" fill="#4d4d4d"/>
    <path id="Path_26212" data-name="Path 26212" d="M77.148,1175.168a.743.743,0,0,1-.743-.743V1167.6a.743.743,0,0,1,1.486,0v6.823a.743.743,0,0,1-.743.743" transform="translate(12426.147 -14456.299)" fill="#4d4d4d"/>
    <path id="Path_26213" data-name="Path 26213" d="M84.508,1175.168a.743.743,0,0,1-.743-.743V1167.6a.743.743,0,0,1,1.486,0v6.823a.743.743,0,0,1-.743.743" transform="translate(12422.483 -14456.299)" fill="#4d4d4d"/>
    <path id="Path_26214" data-name="Path 26214" d="M91.869,1175.168a.743.743,0,0,1-.743-.743V1167.6a.743.743,0,0,1,1.486,0v6.823a.743.743,0,0,1-.743.743" transform="translate(12418.82 -14456.299)" fill="#4d4d4d"/>
    <path id="Path_26215" data-name="Path 26215" d="M99.23,1175.168a.743.743,0,0,1-.743-.743V1167.6a.743.743,0,0,1,1.486,0v6.823a.743.743,0,0,1-.743.743" transform="translate(12415.156 -14456.299)" fill="#4d4d4d"/>
    <path id="Path_26216" data-name="Path 26216" d="M106.591,1175.168a.743.743,0,0,1-.743-.743V1167.6a.743.743,0,0,1,1.486,0v6.823a.743.743,0,0,1-.743.743" transform="translate(12411.492 -14456.299)" fill="#4d4d4d"/>
    <path id="Path_26217" data-name="Path 26217" d="M113.951,1175.168a.743.743,0,0,1-.743-.743V1167.6a.743.743,0,0,1,1.486,0v6.823a.743.743,0,0,1-.742.743" transform="translate(12407.829 -14456.299)" fill="#4d4d4d"/>
    <path id="Path_26218" data-name="Path 26218" d="M121.312,1175.168a.743.743,0,0,1-.743-.743V1167.6a.743.743,0,0,1,1.486,0v6.823a.743.743,0,0,1-.743.743" transform="translate(12404.165 -14456.299)" fill="#4d4d4d"/>
    <path id="Path_26219" data-name="Path 26219" d="M128.673,1175.168a.743.743,0,0,1-.743-.743V1167.6a.743.743,0,0,1,1.486,0v6.823a.743.743,0,0,1-.743.743" transform="translate(12400.502 -14456.299)" fill="#4d4d4d"/>
    <path id="Path_26220" data-name="Path 26220" d="M136.034,1175.168a.743.743,0,0,1-.743-.743V1167.6a.743.743,0,0,1,1.486,0v6.823a.743.743,0,0,1-.743.743" transform="translate(12396.838 -14456.299)" fill="#4d4d4d"/>
    <path id="Path_26221" data-name="Path 26221" d="M143.395,1175.168a.743.743,0,0,1-.743-.743V1167.6a.743.743,0,0,1,1.486,0v6.823a.743.743,0,0,1-.743.743" transform="translate(12393.174 -14456.299)" fill="#4d4d4d"/>
    <path id="Path_26222" data-name="Path 26222" d="M167.519,1186.029c3.153,14.937-1.387,28.543-10.139,30.39s-28.592-6.613-31.744-21.55,11.575-30.692,20.327-32.54,18.4,8.763,21.556,23.7" transform="translate(12401.859 -14453.939)" fill="#b3b3b3"/>
    <path id="Path_26223" data-name="Path 26223" d="M179.907,1185.754c3.153,14.937-.721,28.4-8.652,30.076s-16.916-9.077-20.069-24.014.721-28.4,8.652-30.076,16.916,9.077,20.068,24.014" transform="translate(12389.472 -14453.665)" fill="#f2f2f2"/>
    <path id="Path_26224" data-name="Path 26224" d="M174.741,1197.069c1.963,9.3-.449,17.69-5.389,18.733s-10.536-5.654-12.5-14.957.449-17.69,5.389-18.733,10.536,5.654,12.5,14.957" transform="translate(12386.446 -14463.837)" fill="#e6e6e6"/>
    <path id="Path_26225" data-name="Path 26225" d="M169.328,1212.495a.536.536,0,0,1-.11-1.06l20.354-4.3a.536.536,0,0,1,.221,1.049l-20.354,4.3a.553.553,0,0,1-.111.012" transform="translate(12380.163 -14476.341)" fill="#b3b3b3"/>
    <path id="Path_26226" data-name="Path 26226" d="M1.471,1224.721c-2.957,14.009,1.3,26.77,9.51,28.5s26.816-6.2,29.773-20.211-10.856-28.787-19.065-30.52-17.261,8.219-20.217,22.228" transform="translate(12463.911 -14473.937)" fill="#b3b3b3"/>
    <path id="Path_26227" data-name="Path 26227" d="M1.382,1224.464c-2.957,14.009.676,26.638,8.115,28.208s15.865-8.514,18.822-22.523-.677-26.638-8.115-28.208-15.865,8.513-18.822,22.522" transform="translate(12464 -14473.68)" fill="#f2f2f2"/>
    <path id="Path_26228" data-name="Path 26228" d="M17.064,1235.075c-1.842,8.725.421,16.592,5.054,17.569s9.882-5.3,11.724-14.028-.421-16.591-5.054-17.569-9.881,5.3-11.723,14.028" transform="translate(12456.002 -14483.22)" fill="#e6e6e6"/>
    <path id="Path_26229" data-name="Path 26229" d="M20.125,1249.543a.5.5,0,0,0,.1-.995L1.138,1244.52a.5.5,0,0,0-.207.983l19.089,4.029a.494.494,0,0,0,.1.011" transform="translate(12463.911 -14494.947)" fill="#b3b3b3"/>
  </g>
</svg>
