<svg xmlns="http://www.w3.org/2000/svg" width="1920" height="1067.842" viewBox="0 0 1920 1067.842">
  <path id="Path_18100" data-name="Path 18100" d="M2004,835.378c-22.324-.075-51.275-4.237-77.364-9.054A449.718,449.718,0,0,0,2004,798.515v-3.407a442.641,442.641,0,0,1-84.438,29.881c-23.267-4.479-43.393-9.226-53.13-11.608v-8.766a2.3,2.3,0,0,0-2.377-2.217h-1.04V783.274h-4.455v2.891l-82.031-14.051-8.792-40.639-.031-.139a7.477,7.477,0,0,0,6.82-7.183c0-4.022-3.523-7.281-7.87-7.281s-7.871,3.26-7.871,7.281a7.478,7.478,0,0,0,6.821,7.183l-.031.139-8.792,40.639-82.03,14.051v-2.891H1670.3V802.4h-1.04a2.3,2.3,0,0,0-2.377,2.217v6.91q-15.93,6.627-31.957,11.654a393.049,393.049,0,0,1-45.661-16.029c-52.13-21.97-89.471-50.331-104.382-62.669V726.406a3.678,3.678,0,0,0-3.8-3.542h-1.66V692.3h-7.12v4.618l-131.076-22.452-14.048-64.935-.049-.222c6.145-.766,10.9-5.584,10.9-11.479,0-6.425-5.63-11.634-12.576-11.634s-12.575,5.209-12.575,11.634c0,5.894,4.754,10.713,10.9,11.479l-.049.222-14.048,64.935L1178.6,696.923V692.3h-7.119v30.558h-1.661a3.677,3.677,0,0,0-3.8,3.542v15.732q-22.6,6.581-44.573,11.88a440.241,440.241,0,0,1-45.371-19.409c-74.724-37.1-121.8-86.3-136.778-103.388V605.144a5.81,5.81,0,0,0-6-5.6h-2.625V551.258h-11.25v7.3L712.311,523.079l-22.2-102.608-.078-.351c9.708-1.21,17.22-8.824,17.22-18.137,0-10.154-8.9-18.384-19.872-18.384s-19.871,8.23-19.871,18.384c0,9.313,7.512,16.928,17.22,18.138l-.076.35-22.2,102.608L455.34,558.556v-7.3H444.088v48.287h-2.624a5.809,5.809,0,0,0-6,5.6v28.01c-17.248,11.909-54.495,33.97-110.749,48.3a445.73,445.73,0,0,1-73.334,12.088A795.338,795.338,0,0,1,84,629.479v3.505a798.913,798.913,0,0,0,157.288,61.291c-44.152,2.738-96.761.078-157.288-12.866v3.04c64.412,13.687,119.928,15.805,165.885,12.177q32.156,8.4,65.349,14.317c88.776,15.769,183.1,18.111,280.723,7.055q10.792,4.778,22.287,9.438L590.757,854.489l-.231.1.157.233L469.626,1414.39H431.241v22.475h-83.63v14.576h679.546v-14.576h-83.63V1414.39H905.14L784.081,854.827l.157-.233-.229-.1-18.3-84.58c95.876,17.436,216.085,20.777,355.523-12.764A443.948,443.948,0,0,0,1249.026,782.8c10.486,4.82,21.873,9.767,34.042,14.666L1264.3,884.2l-.146.067.1.147-76.61,354.121h-24.292v14.224H1110.43v13.981h430.05v-13.981h-52.926v-14.224h-24.293l-76.613-354.121.1-.147-.146-.067-12.315-56.93c40.152,10.034,86.2,17.424,134.846,17.423,40.788,0,83.388-5.226,125.821-18.393a359.854,359.854,0,0,0,96.878,13.565c3.415,0,6.865-.072,10.332-.177l-13.776,63.677-.091.041.062.092-47.945,221.619h-15.2v8.9h-33.121v11h269.139v-11H1868.1v-8.9h-15.2L1804.954,903.5l.063-.092-.09-.041-13.86-64.063a432.022,432.022,0,0,0,128.485-11.212c27.728,5.321,59.777,10.164,84.449,10.2ZM778.9,1118.861l-85.981,104.37-1.92.006-.269-236.189.8,0,.374.257Zm-71.3-120.731,108.9,75.092-32.862,39.888Zm33.67,178.357L769.565,1223l-66.8.2ZM691.853,978.645l-1.128.005-.18-156.451,81.777,37.236ZM709.194,820.42l33.826-.2,28.3,28.5Zm-12.969-7.007,11.431-28.807,28.369,28.566Zm-5.691-2.591-.068-58.519c6.836,1.969,13.817,3.9,21.012,5.743Zm-.072-61.637-.055-45.912q8.2-1.626,16.2-3.327l19.812,20.443L712.59,755.241C705.006,753.294,697.645,751.265,690.461,749.185Zm42.908-55.249,3.1,1.145-6.825,17.192-13.868-14.311Q724.714,695.987,733.369,693.936Zm-20.03,1.513-13.469-13.9,28.443,10.517Q720.926,693.785,713.339,695.449Zm-8.516-22.242,34.053-.331,3.038,14.044Zm-4.32-5.56,25.657-53.538,11.508,53.177Zm20.405-57.662L693.23,667.717l-2.864.028-.093-82.692Zm-22.782-29.449,20.7-.348,4.516,20.873Zm-7.753,92.811h.16l-.16.333Zm13.789,24.074q-6.8,1.437-13.758,2.817l-.02-17.034Zm39.342-3.149L758.935,765.6q-20.927-4.018-40.227-8.837ZM731.1,609.94l188.327-20.2v9.809h-2.251a5.809,5.809,0,0,0-6,5.6v28.563c-28.978,12.2-86.906,34.511-163.331,53.636Zm185.084-27.365-61.091,6.555,60.988-22.963Zm-6.734-18.145-68.257,25.7-30.3-42.581Zm-72.628,26.66-68.856,7.388,37.891-50.9ZM801.9,546.008,764.291,596.53l-48.152-65.212Zm-40.744,53.2L729.515,602.6l-14.153-65.415ZM717.87,575.785l-20.677.348,14.887-27.1Zm-27.61-1.066-.05-43.473L705.8,546.419Zm19.687-35.55L698.181,527.72l9.244-.213Zm-3.306-15.276-9.808.227,6.276-16.556Zm-16.438.256-.035-28.82L698.3,502.8Zm9.8-30.928-9.455-8.691-.394,1.442-.043-38.476ZM684.65,447.5l-.043,38.476-.394-1.442-9.452,8.691Zm-88.788,671.365,87-131.559.321-.221.849,0-.272,236.182-1.893.006Zm76.219,104.433-67.183.2,28.589-47.01ZM591.124,1113.11l-32.86-39.888,108.9-75.092ZM682.94,978.684l-80.5-119.248L684.22,822.2l-.178,156.48Zm-17.957-158-61.537,28.023,27.626-27.818Zm-26.832-6.923,28.96-29.16,11.473,28.915Zm18.671-72.011q13.2,4.487,27.482,8.755l-.071,60.312Zm-1.46-3.679-7.018-17.686L659.386,709q12.682-2.166,24.972-4.526l-.05,42.9Q669.215,742.862,655.362,738.076ZM669,673.554l-36.15,13.366,2.821-13.042Zm-32.114-5.29,11.717-54.156L674.386,667.9Zm.439,41.3c-3.2.484-6.443.934-9.675,1.4l3.61-16.683Zm1.121,2.827,9.105,22.946c-1.9-.68-3.841-1.356-5.707-2.041-6-2.2-11.831-4.452-17.572-6.726l2.706-12.511C630.824,713.51,634.656,712.963,638.449,712.386Zm6.326-.993c.472-.075.946-.148,1.417-.223l-1.068,1.1Zm-1.125-2.835L638.3,695.081l36.6-13.532-25.257,26.063C647.655,707.935,645.65,708.245,643.651,708.559ZM662.9,705.37,684.383,683.2l-.021,18.24C677.323,702.807,670.145,704.106,662.9,705.37Zm21.362-31.964.131,0v.274Zm-2.672-5.576-27.729-57.846,30.634-24.931-.1,82.75Zm-30.161-66.77,4.285-19.812,20.473-.344ZM684.6,495.329l-.033,28.82L676.47,502.8Zm-12.938,12.234,6.442,16.989-10.169.235Zm12.9,23.683-.049,43.473-15.54-28.3Zm-17.413-2.809,8.92-.206-11.241,10.938Zm-4.456,20.592,15.068,27.432-21.079.354ZM645.252,602.6l-31.641-3.394L659.4,537.186Zm13.374-71.285L610.477,596.53l-37.612-50.522ZM606.8,598.478l-68.857-7.388,30.966-43.509Zm-42.921-50.931-30.3,42.581-68.258-25.7ZM458.686,566.168l60.988,22.963-61.092-6.555ZM260.007,695.727a445.6,445.6,0,0,0,65.907-11.487c54.354-13.88,91.189-34.942,109.55-47.3v11.6a5.81,5.81,0,0,0,6,5.6H457.59a5.81,5.81,0,0,0,6-5.6v-7.7c22.122,16.99,65.311,46.875,127.021,74.786C496.058,725.818,380.448,725.612,260.007,695.727ZM463.59,636.848v-31.7a5.81,5.81,0,0,0-6-5.6h-2.25v-9.81l188.324,20.2L621.623,711.817c-.594.081-1.177.172-1.772.253q-11.382,1.542-23.243,2.891C530.564,685.616,485.215,653.694,463.59,636.848ZM602,717.319q9.237-1.1,18.511-2.342l.445-.064-2.059,9.518C613.114,722.089,607.5,719.712,602,717.319Zm21.629,12.253c5.463,2.157,11.011,4.293,16.708,6.383,2.845,1.045,5.769,2.081,8.7,3.114l14.846,37.413L626.79,813.835l-21.424.129ZM603.832,821.06l15.88-.1-20.277,20.418Zm-8.723,40.32,79.211,117.341-104.695.452Zm-27.3,126.2,99.835-.431-117.23,80.834Zm-18.7,86.47,79.7,96.746-32.309,52.726-79.783.241ZM475.466,1414.39l39.426-182.223,76.444-.232-111.8,182.455Zm13.336,0,110.978-182.48,78.193-.236L490.481,1414.39Zm359.466,0v22.475H526.5V1414.39H501.662l185.72-180.19,185.726,180.19Zm36.015,0L696.732,1231.617l77.93-.235,111.3,183.007Zm15.015,0h-4.067L783.076,1231.358l76.575-.232Zm-41.464-191.656-79.895.241L745.967,1170.8l79.7-96.746Zm-33.481-154.752-117.475-81,99.856-.431Zm-19.435-89.825-104.4.45,79.134-117.227ZM775.33,841.381l-21.088-21.234,16.471-.1Zm-6.147-28.41-21.935.133-36.367-36.621,6.713-16.918q20.127,5,42.025,9.193Zm-4.158-46.225-16.546-76.482C823.947,671.4,881.52,649.413,911.177,637v11.53a5.81,5.81,0,0,0,6,5.6H933.3a5.811,5.811,0,0,0,6-5.6V636.1c17.65,19.548,63.875,65.706,134.918,101a444.4,444.4,0,0,0,41.933,18.184C978.412,787.785,859.715,784.142,765.026,766.746Zm618.347,284.767-54.413,66.051-1.215,0-.172-149.473.506,0,.236.164Zm-45.12-76.406,68.914,47.523-20.795,25.243Zm21.309,112.873,17.9,29.436-42.278.128Zm-31.279-125.2-.714,0-.114-99.011,51.753,23.565Zm10.975-100.135,21.405-.13,17.91,18.035Zm-8.208-4.434,7.234-18.231,17.954,18.078Zm-3.6-1.64-.052-42.877c2.079.686,4.16,1.371,6.268,2.043q4.37,1.394,8.89,2.766Zm7.516-43.577c-2.549-.812-5.066-1.639-7.571-2.469l-.036-30.274c1.288-.148,2.57-.291,3.865-.45l18.937,19.541-6.492,16.36Q1339.25,814.356,1334.965,812.992Zm19.98-36.69q2.22-.379,4.449-.783l.57,2.639Zm1.571,7.02-4.32,10.88-14.723-15.2c1.75-.237,3.522-.513,5.284-.771Zm-7.137-9.079-12.889-4.764,21.552-.21.72,3.329C1355.625,773.165,1352.482,773.744,1349.379,774.245Zm-12.442,1.839c-.675.091-1.353.191-2.027.279l-1.553-1.6Zm-3.18-10.122,16.237-33.882,7.282,33.653Zm12.914-36.493-17.516,36.537-1.813.018-.059-52.332Zm-14.418-18.636,13.1-.221,2.858,13.209Zm-4.907,58.736h.1l-.1.211Zm1.265,7.536c-.419.05-.837.1-1.257.149l0-1.447Zm32.359,5.706,8.7,40.213q-11.467-2.974-22.2-6.192Zm-7.849-53.369L1472.3,716.656v6.208h-1.423a3.679,3.679,0,0,0-3.8,3.542v14.933a572.678,572.678,0,0,1-104.76,30.627Zm117.13-17.317-38.662,4.148,38.6-14.532Zm-4.262-11.483L1422.794,716.9l-19.18-26.947Zm-45.962,16.872-43.575,4.675,23.978-32.21Zm-22.1-28.53-23.8,31.973-30.474-41.27Zm-25.786,33.668-20.026,2.148-8.956-41.4Zm-27.394-14.823-13.086.22,9.421-17.154Zm-17.474-.675-.03-27.512,9.865,9.6Zm12.46-22.5-7.448-7.246,5.85-.135Zm-2.092-9.668-6.208.143,3.973-10.478Zm-10.4.161-.021-18.238,5.144,4.73Zm6.207-19.573-5.984-5.5-.249.912-.027-24.35Zm-9.721-28.937-.027,24.35-.249-.912-5.981,5.5Zm-56.188,424.875,55.057-83.257.205-.139.536,0-.173,149.467-1.2,0Zm48.236,66.09-42.518.129,18.092-29.751Zm-51.234-69.73-20.8-25.243,68.916-47.523Zm58.1-85.072L1271.7,887.335l51.753-23.565-.113,99.029Zm-11.364-99.988-38.945,17.735,17.484-17.6Zm-16.98-4.381,18.328-18.454,7.26,18.3Zm8.773-53.239q9.947,3.676,20.441,7.208l-.052,44.168Zm-1.5-3.778-.824-2.076,17.555-18.113q2.614-.251,5.246-.535l-.033,28.527C1316,806.679,1308.666,804.071,1301.571,801.416Zm12.252-31.716-22.878,8.459,1.786-8.254Zm-20.325-3.347,7.415-34.272,16.315,34.041Zm24.054,8.407-3.752,3.871c-2.883.253-5.765.5-8.616.7Zm-23.16,8.564,1.233-.456q7.43-.362,15.017-.977L1298.71,794.2Zm2.17,16.187q-4.788-1.833-9.441-3.681l2.751-12.718.18-.005Zm24.919-21.564,2.073-2.14,0,1.9C1322.866,777.776,1322.165,777.875,1321.482,777.946Zm2-8.34h.083v.174Zm-1.69-3.529-17.549-36.608,19.388-15.777-.061,52.369ZM1302.7,723.821l2.713-12.538,12.956-.218Zm20.99-66.911-.019,18.238-5.124-13.507Zm-8.186,7.742,4.075,10.752-6.435.148Zm8.161,14.988-.032,27.512-9.834-17.91Zm-11.021-1.779,5.646-.13-7.113,6.923Zm-2.819,13.031,9.535,17.361-13.339.224ZM1298.791,724.8l-20.025-2.148,28.981-39.252Zm8.465-45.114-30.473,41.27-23.8-31.973Zm-32.8,42.5-43.577-4.675,19.6-27.535Zm-27.163-32.231L1228.115,716.9l-43.2-16.262Zm-66.572,11.784,38.6,14.532-38.661-4.148Zm-54.1,54.115q19.453-4.8,39.406-10.594v8.6a3.678,3.678,0,0,0,3.8,3.543h10.2a3.677,3.677,0,0,0,3.8-3.543v-5.052c11.285,6.72,31.344,18.046,57.917,30.6A439.649,439.649,0,0,1,1126.621,755.855Zm57.2-10.657V726.406a3.676,3.676,0,0,0-3.8-3.542H1178.6v-6.208l119.181,12.786L1286.8,780.223q-18.951.569-36.86-.351A692.216,692.216,0,0,1,1183.825,745.2Zm73.321,37.949q14.181.485,29.007.069l-2.434,11.246C1274.38,790.691,1265.495,786.892,1257.146,783.148Zm29.323,15.69c3.793,1.5,7.674,3,11.608,4.486l12.505,31.515-23.475,23.638-13.559.081Zm-13.891,64.211,10.048-.061L1269.8,875.91Zm-5.521,25.517,50.129,74.259-66.256.287Zm-17.278,79.866,63.18-.273-74.188,51.156Zm-11.838,54.722,50.439,61.227-20.447,33.367-50.49.153Zm-46.6,215.386,24.949-115.32,48.379-.148-70.755,115.468Zm8.44,0,70.233-115.483,49.484-.15-118.655,115.633Zm227.489,0v14.224H1223.637v-14.224h-15.719l117.534-114.034,117.537,114.034Zm22.792,0-118.691-115.668,49.318-.149,70.438,115.817Zm9.5,0h-2.573l-70.978-115.834,48.459-.146Zm-26.241-121.291-50.562.153-20.232-33.022,50.439-61.227Zm-21.187-97.934-74.346-51.264,63.194-.272Zm-12.3-56.846-66.068.285,50.079-74.187Zm-18.726-86.559-13.346-13.438,10.425-.063Zm-3.89-17.98-13.881.084-23.015-23.175,6.034-15.208q11.593,3.449,24.017,6.657Zm-3.639-33.919-10.627-49.118a576.07,576.07,0,0,0,104.126-30.3v9.269a3.679,3.679,0,0,0,3.8,3.543h10.2a3.678,3.678,0,0,0,3.8-3.543v-5.286a438.168,438.168,0,0,0,102.746,61.181,398.511,398.511,0,0,0,42.034,15C1538.095,852.049,1446,842.317,1373.582,824.011ZM1802.9,1008.076l-34.053,41.336-.761,0-.106-93.543.316,0,.147.1Zm-28.237-47.816L1817.8,990l-13.014,15.8ZM1788,1030.9l11.2,18.421-26.459.08Zm-19.575-78.357-.445,0-.072-61.963,32.388,14.747Zm6.868-62.666,13.4-.081,11.21,11.286Zm-5.136-2.776,4.528-11.409,11.237,11.314Zm-2.252-1.025-.057-48.143c.706-.076,1.407-.136,2.115-.217l12.155,12.543Zm3.947-56.706,10.161-21.2,4.557,21.06Zm15.2,2.072.177.815c-2.772.468-5.539.911-8.288,1.3l-5.377-1.988Zm-7.115-24.909L1768.972,829.4l-1.134.012-.036-32.751Zm-9.025-11.663,8.2-.138L1780.9,803Zm-3.069,36.758h.064l-.064.132Zm6.708,6.29c1.089.114,2.17.231,3.27.337,1.263.122,2.56.232,3.851.344l4.426,1.636-2.7,6.809Zm10.646-2.291c.885-.141,1.775-.3,2.664-.449l.142.658C1787.064,835.767,1786.123,835.7,1785.2,835.626Zm-1.223-29.111,74.587-8V802.4h-.892a2.3,2.3,0,0,0-2.377,2.217v8.7a343.12,343.12,0,0,1-65.829,18.576Zm73.3-10.839-24.195,2.6,24.154-9.094Zm-2.667-7.186-27.033,10.177-12-16.864Zm-28.763,10.559-27.272,2.926,15.007-20.158Zm-13.831-17.855-14.9,20.01-19.072-25.828Zm-16.137,21.07-12.532,1.345-5.606-25.908Zm-17.144-9.276-8.191.138,5.9-10.735Zm-10.935-.423-.02-17.218,6.173,6.009Zm7.8-14.08-4.661-4.534,3.66-.084Zm-1.309-6.049-3.886.089,2.487-6.558Zm-6.51.1-.015-11.414,3.219,2.96Zm3.882-12.249-3.746-3.442-.155.571-.017-15.238Zm-6.082-18.109-.018,15.238-.156-.571-3.743,3.442Zm-35.166,265.9,34.457-52.105.128-.087h.336l-.109,93.54-.749,0Zm30.186,41.36-26.607.08,11.323-18.617Zm-32.063-43.638L1715.518,990l43.131-29.741Zm36.365-53.24-31.881-47.229,32.388-14.747-.071,61.975Zm-7.112-62.575-24.372,11.1,10.943-11.017Zm-10.626-2.741,11.47-11.549,4.544,11.452Zm4.036-36.982,11.432-11.8c.942-.086,1.893-.194,2.838-.289l-.055,47.9Zm-4.537-20.644,4.641-21.449,10.21,21.3Zm12.72,2.095-2.1.775c-1.572-.229-3.12-.468-4.655-.71Zm-8.351,3.088-4.772,1.764c-.37.016-.742.035-1.11.05l.585-2.709Q1748.343,834.36,1751.027,834.8Zm-1.525,4.593q4.155-.217,8.361-.542l-7.944,8.2-2.7-6.809Zm15.919-7.74h.051v.108Zm-1.059-2.209-10.982-22.91,12.132-9.874-.038,32.774ZM1752.416,803l1.7-7.847,8.11-.136Zm13.136-41.876-.013,11.414-3.206-8.454Zm-5.123,4.846,2.55,6.728-4.027.093Zm5.107,9.38-.02,17.218-6.155-11.209Zm-6.9-1.112,3.532-.082-4.452,4.332Zm-1.766,8.155,5.967,10.864-8.348.141Zm-6.9,21.219-12.532-1.345,18.136-24.565Zm5.3-28.233L1736.2,801.2l-14.9-20.01Zm-20.526,26.6-27.272-2.926,12.265-17.232Zm-17-20.172-12,16.864-27.033-10.177Zm-41.663,7.375,24.155,9.094-24.195-2.6Zm-1.325,9.334,74.588,8-5.158,23.843c-32.757-5.849-56.025-14.044-66.161-18.029v-7.713a2.3,2.3,0,0,0-2.378-2.217h-.891Zm-34.47,26.126q13.326-4.347,26.6-9.82V821.8a2.3,2.3,0,0,0,2.377,2.218h6.386a2.3,2.3,0,0,0,2.378-2.218v-6.2c11.02,4.281,33.98,12.2,65.48,17.9l-.7,3.215A352.576,352.576,0,0,1,1640.285,824.638Zm104.145,15.277,12.92,32.56-14.691,14.793-8.485.052Zm-10.864,50.214,6.288-.038-8.029,8.087Zm-3.455,15.97,31.373,46.473-41.465.179ZM1719.3,956.081l39.539-.17-46.429,32.015Zm-7.41,34.246,31.567,38.318-12.8,20.882-31.6.1Zm-29.162,134.8,15.615-72.172,30.276-.091-44.28,72.263Zm5.282,0,43.954-72.273,30.967-.094-74.257,72.367Zm142.369,0v8.9h-127.44v-8.9H1693.1l73.555-71.365,73.557,71.365Zm14.264,0-74.281-72.389,30.867-.092,44.078,72.481Zm5.947,0h-1.611l-44.421-72.492,30.329-.092Zm-16.423-75.907-31.642.1-12.663-20.666,31.566-38.318Zm-13.26-61.29-46.527-32.082,39.549-.171Zm-7.7-35.576-41.348.178L1803.2,906.1Zm-11.719-54.171-8.351-8.41,6.522-.039Zm-2.435-11.253-8.688.053-14.4-14.5,12.92-32.56Zm-8.7-50.926-.262-1.211a346.635,346.635,0,0,0,65.2-18.208V821.8a2.3,2.3,0,0,0,2.377,2.218h6.387a2.3,2.3,0,0,0,2.377-2.218v-5.326c9.178,2.255,26.036,6.242,45.87,10.2A427.384,427.384,0,0,1,1790.351,836Z" transform="translate(-84 -383.599)" fill="#333" opacity="0.05"/>
</svg>
