<svg id="Group_25107" data-name="Group 25107" xmlns="http://www.w3.org/2000/svg" width="193.228" height="374.169" viewBox="0 0 193.228 374.169">
  <path id="Path_20621" data-name="Path 20621" d="M2532.659-443.512h11.7l-5.851-14.787-5.85,14.787Zm14.8,2.362h-17.968l9.02-23.57,8.948,23.57Z" transform="translate(-2441.895 464.721)"/>
  <path id="Path_20622" data-name="Path 20622" d="M2383.847,1.045,2348.8-169.87V-307.953l-13.73-41.94h-12.9l-13.729,41.94V-169.87l-.023.106L2273.464,1.045,2271.35.613l34.934-170.7V-308.3l.054-.163,14.27-43.589h16.029l14.323,43.924v138.037l35,170.7-2.113.432Z" transform="translate(-2232.041 373.124)"/>
  <path id="Path_20623" data-name="Path 20623" d="M2283.794-90.865H2242.36l40.783-30.949,1.3,1.717-35.678,27.076h35.025v2.156Z" transform="translate(-2208.474 185.955)"/>
  <path id="Path_20624" data-name="Path 20624" d="M2136.52,200.258H2061.2l74.906-31.086.827,1.992-64.91,26.938h64.5v2.156Z" transform="translate(-2061.201 -50.603)"/>
  <path id="Path_20625" data-name="Path 20625" d="M2730.149-90.865h-41.436v-2.156h35.027L2688.06-120.1l1.3-1.717,40.785,30.949Z" transform="translate(-2570.805 185.955)"/>
  <path id="Path_20626" data-name="Path 20626" d="M2765.073,200.258h-75.32V198.1h64.5l-64.91-26.938.826-1.992,74.906,31.086Z" transform="translate(-2571.846 -50.603)"/>
  <path id="Path_20627" data-name="Path 20627" d="M2506.391-119.028H2463.87v-1.078h42.521v1.078Z" transform="translate(-2388.55 184.567)"/>
  <path id="Path_20628" data-name="Path 20628" d="M2506.391,36.079H2463.87V35h42.521v1.078Z" transform="translate(-2388.55 58.472)"/>
  <path id="Path_20629" data-name="Path 20629" d="M2506.391,172.694H2463.87v-1.078h42.521v1.078Z" transform="translate(-2388.55 -52.589)"/>
  <path id="Path_20630" data-name="Path 20630" d="M2506.391,327.8H2463.87v-1.078h42.521V327.8Z" transform="translate(-2388.55 -178.683)"/>
  <path id="Path_20631" data-name="Path 20631" d="M2506.391,464.421H2463.87v-1.078h42.521v1.078Z" transform="translate(-2388.55 -289.749)"/>
  <path id="Path_20632" data-name="Path 20632" d="M2506.391,619.521H2463.87v-1.077h42.521v1.077Z" transform="translate(-2388.55 -415.838)"/>
  <path id="Path_20633" data-name="Path 20633" d="M2476.53,850.89h-60.37v-2.157h60.37v2.157Z" transform="translate(-2349.764 -603.052)"/>
  <path id="Path_20634" data-name="Path 20634" d="M2433.041,1189.28H2346.68v-2.157h86.362v2.157Z" transform="translate(-2293.28 -878.146)"/>
  <path id="Path_20635" data-name="Path 20635" d="M2560.244-319.627l-23.574-27.824.821-.7,23.576,27.824-.823.7Z" transform="translate(-2447.733 369.953)"/>
  <path id="Path_20636" data-name="Path 20636" d="M2488.783-319.627l-.823-.7,23.576-27.824.823.7-23.576,27.824Z" transform="translate(-2408.134 369.953)"/>
  <path id="Path_20637" data-name="Path 20637" d="M2533.97-192.921l-35.89-17.042.462-.974,35.89,17.042-.462.974Z" transform="translate(-2416.361 258.407)"/>
  <path id="Path_20638" data-name="Path 20638" d="M2472.252-192.921l-.462-.974,35.889-17.042.462.974-35.89,17.042Z" transform="translate(-2394.989 258.407)"/>
  <path id="Path_20639" data-name="Path 20639" d="M2504.837-89.7l-42.587-29.013.609-.891,42.586,29.013-.608.891Z" transform="translate(-2387.233 184.159)"/>
  <path id="Path_20640" data-name="Path 20640" d="M2462.859-89.7l-.609-.891,42.587-29.013.608.891L2462.859-89.7Z" transform="translate(-2387.233 184.159)"/>
  <path id="Path_20641" data-name="Path 20641" d="M2504.978,61.89,2462.39,36.336l.555-.924,42.586,25.554-.552.924Z" transform="translate(-2387.347 58.138)"/>
  <path id="Path_20642" data-name="Path 20642" d="M2462.945,61.89l-.555-.924,42.588-25.554.552.924L2462.945,61.89Z" transform="translate(-2387.347 58.138)"/>
  <path id="Path_20643" data-name="Path 20643" d="M2504.837,202.02l-42.587-29.012.609-.891,42.586,29.013-.608.89Z" transform="translate(-2387.233 -52.996)"/>
  <path id="Path_20644" data-name="Path 20644" d="M2462.859,202.02l-.609-.89,42.587-29.013.608.891-42.586,29.012Z" transform="translate(-2387.233 -52.996)"/>
  <path id="Path_20645" data-name="Path 20645" d="M2504.978,353.611l-42.588-25.555.555-.924,42.586,25.555-.552.924Z" transform="translate(-2387.347 -179.016)"/>
  <path id="Path_20646" data-name="Path 20646" d="M2462.945,353.611l-.555-.924,42.588-25.555.552.924-42.586,25.555Z" transform="translate(-2387.347 -179.016)"/>
  <path id="Path_20647" data-name="Path 20647" d="M2504.837,493.745l-42.587-29.011.609-.89,42.586,29.012-.608.89Z" transform="translate(-2387.233 -290.156)"/>
  <path id="Path_20648" data-name="Path 20648" d="M2462.859,493.745l-.609-.89,42.587-29.012.608.89-42.586,29.011Z" transform="translate(-2387.233 -290.156)"/>
  <path id="Path_20649" data-name="Path 20649" d="M2513.455,663.56l-51.444-43.614.7-.823,51.446,43.616-.7.821Z" transform="translate(-2387.039 -416.39)"/>
  <path id="Path_20650" data-name="Path 20650" d="M2414.988,663.56l-.7-.823,51.514-43.615.7.823-51.512,43.614Z" transform="translate(-2348.244 -416.39)"/>
  <path id="Path_20651" data-name="Path 20651" d="M2483.908,896.591l-69.288-43.614.574-.913,69.29,43.615-.576.913Z" transform="translate(-2348.513 -605.759)"/>
  <path id="Path_20652" data-name="Path 20652" d="M2367.525,896.591l-.575-.913,69.288-43.615.574.913-69.288,43.614Z" transform="translate(-2309.759 -605.759)"/>
  <path id="Path_20653" data-name="Path 20653" d="M2454.391,1129.986l-87.2-43.927.485-.965,87.2,43.929-.486.963Z" transform="translate(-2309.953 -795.202)"/>
  <path id="Path_20654" data-name="Path 20654" d="M2319.566,1129.986l-.486-.963,87.2-43.929.486.965-87.2,43.927Z" transform="translate(-2270.843 -795.202)"/>
  <path id="Path_20655" data-name="Path 20655" d="M2361.451-41.208,2346.57-57.874l-7.2,16.522-.988-.431,7.873-18.065,16,17.921-.8.718Z" transform="translate(-2286.533 135.579)"/>
  <path id="Path_20656" data-name="Path 20656" d="M2220.588,229.124,2205.1,215.771l-11.774,12.762-.791-.73,12.481-13.53,15.011,12.939,6.51-22.383,17.184,23.016-.864.646-15.89-21.283-6.375,21.915Z" transform="translate(-2167.965 -79.59)"/>
  <path id="Path_20657" data-name="Path 20657" d="M2712.368,229.124l-6.375-21.915L2690.1,228.492l-.865-.646,17.184-23.016,6.512,22.383,15.011-12.939,12.482,13.53-.793.73-11.775-12.762-15.491,13.353Z" transform="translate(-2571.763 -79.59)"/>
  <path id="Path_20658" data-name="Path 20658" d="M2692.334-41.208l-.8-.718,16-17.921,7.875,18.065-.99.431-7.2-16.522-14.882,16.666Z" transform="translate(-2573.625 135.579)"/>
  <path id="Path_20659" data-name="Path 20659" d="M2256.937,56.1h-7.6a1.078,1.078,0,0,1,0-2.156h7.6a1.078,1.078,0,1,1,0,2.156Z" transform="translate(-2213.27 43.072)"/>
  <path id="Path_20660" data-name="Path 20660" d="M2256.937,75.105h-7.6a1.078,1.078,0,0,1,0-2.156h7.6a1.078,1.078,0,1,1,0,2.156Z" transform="translate(-2213.27 27.622)"/>
  <path id="Path_20661" data-name="Path 20661" d="M2256.937,94.109h-7.6a1.078,1.078,0,0,1,0-2.156h7.6a1.078,1.078,0,1,1,0,2.156Z" transform="translate(-2213.27 12.173)"/>
  <path id="Path_20662" data-name="Path 20662" d="M2256.937,113.113h-7.6a1.078,1.078,0,0,1,0-2.156h7.6a1.078,1.078,0,1,1,0,2.156Z" transform="translate(-2213.27 -3.277)"/>
  <path id="Path_20663" data-name="Path 20663" d="M2256.937,132.114h-7.6a1.078,1.078,0,0,1,0-2.156h7.6a1.078,1.078,0,1,1,0,2.156Z" transform="translate(-2213.27 -18.723)"/>
  <path id="Path_20664" data-name="Path 20664" d="M2256.937,151.117h-7.6a1.078,1.078,0,0,1,0-2.157h7.6a1.078,1.078,0,1,1,0,2.157Z" transform="translate(-2213.27 -34.172)"/>
  <path id="Path_20665" data-name="Path 20665" d="M2272,57.934a.539.539,0,0,1-.539-.539V35.54a.539.539,0,1,1,1.078,0V57.4a.539.539,0,0,1-.538.539Z" transform="translate(-2232.13 58.472)"/>
  <path id="Path_20666" data-name="Path 20666" d="M2863.327,56.1h-7.6a1.078,1.078,0,0,1,0-2.156h7.6a1.078,1.078,0,0,1,0,2.156Z" transform="translate(-2706.233 43.072)"/>
  <path id="Path_20667" data-name="Path 20667" d="M2863.327,75.105h-7.6a1.078,1.078,0,0,1,0-2.156h7.6a1.078,1.078,0,0,1,0,2.156Z" transform="translate(-2706.233 27.622)"/>
  <path id="Path_20668" data-name="Path 20668" d="M2863.327,94.109h-7.6a1.078,1.078,0,0,1,0-2.156h7.6a1.078,1.078,0,0,1,0,2.156Z" transform="translate(-2706.233 12.173)"/>
  <path id="Path_20669" data-name="Path 20669" d="M2863.327,113.113h-7.6a1.078,1.078,0,0,1,0-2.156h7.6a1.078,1.078,0,0,1,0,2.156Z" transform="translate(-2706.233 -3.277)"/>
  <path id="Path_20670" data-name="Path 20670" d="M2863.327,132.114h-7.6a1.078,1.078,0,0,1,0-2.156h7.6a1.078,1.078,0,0,1,0,2.156Z" transform="translate(-2706.233 -18.723)"/>
  <path id="Path_20671" data-name="Path 20671" d="M2863.327,151.117h-7.6a1.078,1.078,0,0,1,0-2.157h7.6a1.078,1.078,0,0,1,0,2.157Z" transform="translate(-2706.233 -34.172)"/>
  <path id="Path_20672" data-name="Path 20672" d="M2878.381,57.934a.539.539,0,0,1-.54-.539V35.54a.54.54,0,0,1,1.08,0V57.4a.539.539,0,0,1-.539.539Z" transform="translate(-2725.087 58.472)"/>
  <path id="Path_20673" data-name="Path 20673" d="M2098.608,347.828h-7.6a1.077,1.077,0,1,1,0-2.155h7.6a1.077,1.077,0,1,1,0,2.155Z" transform="translate(-2084.556 -194.089)"/>
  <path id="Path_20674" data-name="Path 20674" d="M2098.608,366.83h-7.6a1.078,1.078,0,0,1,0-2.157h7.6a1.078,1.078,0,1,1,0,2.157Z" transform="translate(-2084.556 -209.535)"/>
  <path id="Path_20675" data-name="Path 20675" d="M2098.608,385.83h-7.6a1.078,1.078,0,0,1,0-2.157h7.6a1.078,1.078,0,1,1,0,2.157Z" transform="translate(-2084.556 -224.981)"/>
  <path id="Path_20676" data-name="Path 20676" d="M2098.608,404.83h-7.6a1.078,1.078,0,0,1,0-2.157h7.6a1.078,1.078,0,1,1,0,2.157Z" transform="translate(-2084.556 -240.427)"/>
  <path id="Path_20677" data-name="Path 20677" d="M2098.608,423.84h-7.6a1.078,1.078,0,0,1,0-2.157h7.6a1.078,1.078,0,1,1,0,2.157Z" transform="translate(-2084.556 -255.882)"/>
  <path id="Path_20678" data-name="Path 20678" d="M2098.608,442.84h-7.6a1.078,1.078,0,0,1,0-2.156h7.6a1.078,1.078,0,1,1,0,2.156Z" transform="translate(-2084.556 -271.328)"/>
  <path id="Path_20679" data-name="Path 20679" d="M2113.661,349.656a.539.539,0,0,1-.541-.541V327.261a.54.54,0,0,1,1.079,0v21.854a.539.539,0,0,1-.539.541Z" transform="translate(-2103.408 -178.683)"/>
  <path id="Path_20680" data-name="Path 20680" d="M3022.018,347.828h-7.6a1.077,1.077,0,1,1,0-2.155h7.6a1.077,1.077,0,1,1,0,2.155Z" transform="translate(-2835.241 -194.089)"/>
  <path id="Path_20681" data-name="Path 20681" d="M3022.018,366.83h-7.6a1.078,1.078,0,0,1,0-2.157h7.6a1.078,1.078,0,0,1,0,2.157Z" transform="translate(-2835.241 -209.535)"/>
  <path id="Path_20682" data-name="Path 20682" d="M3022.018,385.83h-7.6a1.078,1.078,0,0,1,0-2.157h7.6a1.078,1.078,0,0,1,0,2.157Z" transform="translate(-2835.241 -224.981)"/>
  <path id="Path_20683" data-name="Path 20683" d="M3022.018,404.83h-7.6a1.078,1.078,0,0,1,0-2.157h7.6a1.078,1.078,0,0,1,0,2.157Z" transform="translate(-2835.241 -240.427)"/>
  <path id="Path_20684" data-name="Path 20684" d="M3022.018,423.84h-7.6a1.078,1.078,0,0,1,0-2.157h7.6a1.078,1.078,0,0,1,0,2.157Z" transform="translate(-2835.241 -255.882)"/>
  <path id="Path_20685" data-name="Path 20685" d="M3022.018,442.84h-7.6a1.078,1.078,0,0,1,0-2.156h7.6a1.078,1.078,0,0,1,0,2.156Z" transform="translate(-2835.241 -271.328)"/>
  <path id="Path_20686" data-name="Path 20686" d="M3037.07,349.656a.539.539,0,0,1-.54-.541V327.261a.539.539,0,1,1,1.078,0v21.854a.538.538,0,0,1-.538.541Z" transform="translate(-2854.094 -178.683)"/>
</svg>
