<svg id="Group_25109" data-name="Group 25109" xmlns="http://www.w3.org/2000/svg" width="94.506" height="183" viewBox="0 0 94.506 183">
  <path id="Path_20621" data-name="Path 20621" d="M2531.04-454.348h5.723l-2.862-7.232-2.861,7.232Zm7.238,1.155h-8.788l4.411-11.528,4.377,11.528Z" transform="translate(-2486.648 464.721)"/>
  <path id="Path_20622" data-name="Path 20622" d="M2326.37-179.357l-17.14-83.591v-67.534l-6.715-20.512h-6.311l-6.715,20.512v67.534l-.011.052-17.1,83.539-1.034-.211,17.086-83.487v-67.6l.026-.08,6.979-21.318h7.839l7.005,21.482v67.512l17.118,83.487-1.034.211Z" transform="translate(-2252.125 362.357)"/>
  <path id="Path_20623" data-name="Path 20623" d="M2262.625-106.678H2242.36l19.946-15.137.638.84-17.45,13.242h17.13v1.055Z" transform="translate(-2225.787 153.185)"/>
  <path id="Path_20624" data-name="Path 20624" d="M2098.038,184.376H2061.2l36.635-15.2.4.974-31.747,13.175h31.544v1.054Z" transform="translate(-2061.201 -111.182)"/>
  <path id="Path_20625" data-name="Path 20625" d="M2708.645-106.678H2688.38v-1.055h17.131l-17.45-13.242.637-.84,19.948,15.137Z" transform="translate(-2630.713 153.185)"/>
  <path id="Path_20626" data-name="Path 20626" d="M2726.38,184.376h-36.837v-1.054h31.544l-31.746-13.175.4-.974,36.635,15.2Z" transform="translate(-2631.876 -111.182)"/>
  <path id="Path_20627" data-name="Path 20627" d="M2484.667-119.579h-20.8v-.527h20.8v.527Z" transform="translate(-2427.032 151.633)"/>
  <path id="Path_20628" data-name="Path 20628" d="M2484.667,35.528h-20.8V35h20.8v.527Z" transform="translate(-2427.032 10.715)"/>
  <path id="Path_20629" data-name="Path 20629" d="M2484.667,172.143h-20.8v-.527h20.8v.527Z" transform="translate(-2427.032 -113.402)"/>
  <path id="Path_20630" data-name="Path 20630" d="M2484.667,327.249h-20.8v-.527h20.8v.527Z" transform="translate(-2427.032 -254.319)"/>
  <path id="Path_20631" data-name="Path 20631" d="M2484.667,463.87h-20.8v-.527h20.8v.527Z" transform="translate(-2427.032 -378.441)"/>
  <path id="Path_20632" data-name="Path 20632" d="M2484.667,618.97h-20.8v-.527h20.8v.527Z" transform="translate(-2427.032 -519.352)"/>
  <path id="Path_20633" data-name="Path 20633" d="M2445.685,849.788h-29.526v-1.055h29.526v1.055Z" transform="translate(-2383.686 -728.575)"/>
  <path id="Path_20634" data-name="Path 20634" d="M2388.918,1188.178H2346.68v-1.055h42.238v1.055Z" transform="translate(-2320.563 -1036.008)"/>
  <path id="Path_20635" data-name="Path 20635" d="M2548.2-334.2l-11.53-13.608.4-.341L2548.6-334.54l-.4.341Z" transform="translate(-2493.172 358.813)"/>
  <path id="Path_20636" data-name="Path 20636" d="M2488.363-334.2l-.4-.341,11.531-13.608.4.341L2488.363-334.2Z" transform="translate(-2448.918 358.813)"/>
  <path id="Path_20637" data-name="Path 20637" d="M2515.634-202.125l-17.553-8.335.226-.476,17.553,8.335-.226.476Z" transform="translate(-2458.113 234.153)"/>
  <path id="Path_20638" data-name="Path 20638" d="M2472.017-202.125l-.226-.476,17.553-8.335.226.476-17.553,8.335Z" transform="translate(-2434.229 234.153)"/>
  <path id="Path_20639" data-name="Path 20639" d="M2483.079-104.98l-20.829-14.19.3-.436,20.828,14.19-.3.436Z" transform="translate(-2425.56 151.178)"/>
  <path id="Path_20640" data-name="Path 20640" d="M2462.548-104.98l-.3-.436,20.829-14.19.3.436-20.828,14.19Z" transform="translate(-2425.56 151.178)"/>
  <path id="Path_20641" data-name="Path 20641" d="M2483.219,48.362l-20.829-12.5.271-.452,20.828,12.5-.27.452Z" transform="translate(-2425.688 10.342)"/>
  <path id="Path_20642" data-name="Path 20642" d="M2462.661,48.362l-.271-.452,20.829-12.5.27.452-20.828,12.5Z" transform="translate(-2425.688 10.342)"/>
  <path id="Path_20643" data-name="Path 20643" d="M2483.079,186.742l-20.829-14.189.3-.436,20.828,14.19-.3.435Z" transform="translate(-2425.56 -113.857)"/>
  <path id="Path_20644" data-name="Path 20644" d="M2462.548,186.742l-.3-.435,20.829-14.19.3.436-20.828,14.189Z" transform="translate(-2425.56 -113.857)"/>
  <path id="Path_20645" data-name="Path 20645" d="M2483.219,340.083l-20.829-12.5.271-.452,20.828,12.5-.27.452Z" transform="translate(-2425.688 -254.691)"/>
  <path id="Path_20646" data-name="Path 20646" d="M2462.661,340.083l-.271-.452,20.829-12.5.27.452-20.828,12.5Z" transform="translate(-2425.688 -254.691)"/>
  <path id="Path_20647" data-name="Path 20647" d="M2483.079,478.468l-20.829-14.189.3-.435,20.828,14.189-.3.435Z" transform="translate(-2425.56 -378.896)"/>
  <path id="Path_20648" data-name="Path 20648" d="M2462.548,478.468l-.3-.435,20.829-14.189.3.435-20.828,14.189Z" transform="translate(-2425.56 -378.896)"/>
  <path id="Path_20649" data-name="Path 20649" d="M2487.171,640.857l-25.161-21.331.341-.4,25.161,21.332-.342.4Z" transform="translate(-2425.343 -519.97)"/>
  <path id="Path_20650" data-name="Path 20650" d="M2414.632,640.857l-.341-.4,25.195-21.331.34.4-25.194,21.331Z" transform="translate(-2381.988 -519.97)"/>
  <path id="Path_20651" data-name="Path 20651" d="M2448.508,873.841l-33.887-21.331.281-.446,33.888,21.331-.281.446Z" transform="translate(-2382.288 -731.6)"/>
  <path id="Path_20652" data-name="Path 20652" d="M2367.231,873.841l-.281-.446,33.887-21.331.281.446-33.887,21.331Z" transform="translate(-2338.979 -731.6)"/>
  <path id="Path_20653" data-name="Path 20653" d="M2409.838,1107.05l-42.649-21.484.237-.472,42.649,21.485-.238.471Z" transform="translate(-2339.196 -943.312)"/>
  <path id="Path_20654" data-name="Path 20654" d="M2319.318,1107.05l-.238-.471,42.649-21.485.238.472-42.649,21.484Z" transform="translate(-2295.488 -943.312)"/>
  <path id="Path_20655" data-name="Path 20655" d="M2349.664-50.732l-7.278-8.151-3.522,8.081-.483-.211,3.851-8.835,7.826,8.765-.393.351Z" transform="translate(-2313.023 96.887)"/>
  <path id="Path_20656" data-name="Path 20656" d="M2206.253,216.712l-7.577-6.531-5.759,6.242-.387-.357,6.1-6.617,7.342,6.328,3.184-10.947,8.4,11.257-.423.316-7.771-10.409-3.118,10.718Z" transform="translate(-2180.516 -143.577)"/>
  <path id="Path_20657" data-name="Path 20657" d="M2700.552,216.712l-3.118-10.718-7.771,10.409-.423-.316,8.4-11.257,3.185,10.947,7.342-6.328,6.1,6.617-.388.357-5.759-6.242-7.576,6.531Z" transform="translate(-2631.784 -143.577)"/>
  <path id="Path_20658" data-name="Path 20658" d="M2691.923-50.732l-.394-.351,7.826-8.765,3.852,8.835-.484.211-3.522-8.081-7.279,8.151Z" transform="translate(-2633.864 96.887)"/>
  <path id="Path_20659" data-name="Path 20659" d="M2252.5,55h-3.717a.527.527,0,0,1,0-1.055h3.717a.527.527,0,1,1,0,1.055Z" transform="translate(-2231.147 -6.495)"/>
  <path id="Path_20660" data-name="Path 20660" d="M2252.5,74h-3.717a.527.527,0,0,1,0-1.055h3.717a.527.527,0,1,1,0,1.055Z" transform="translate(-2231.147 -23.761)"/>
  <path id="Path_20661" data-name="Path 20661" d="M2252.5,93.008h-3.717a.527.527,0,0,1,0-1.055h3.717a.527.527,0,1,1,0,1.055Z" transform="translate(-2231.147 -41.027)"/>
  <path id="Path_20662" data-name="Path 20662" d="M2252.5,112.012h-3.717a.527.527,0,0,1,0-1.055h3.717a.527.527,0,1,1,0,1.055Z" transform="translate(-2231.147 -58.292)"/>
  <path id="Path_20663" data-name="Path 20663" d="M2252.5,131.012h-3.717a.527.527,0,0,1,0-1.055h3.717a.527.527,0,1,1,0,1.055Z" transform="translate(-2231.147 -75.555)"/>
  <path id="Path_20664" data-name="Path 20664" d="M2252.5,150.016h-3.717a.527.527,0,0,1,0-1.055h3.717a.527.527,0,1,1,0,1.055Z" transform="translate(-2231.147 -92.82)"/>
  <path id="Path_20665" data-name="Path 20665" d="M2271.724,46.217a.264.264,0,0,1-.264-.264V35.265a.264.264,0,1,1,.527,0V45.954a.263.263,0,0,1-.263.264Z" transform="translate(-2252.225 10.715)"/>
  <path id="Path_20666" data-name="Path 20666" d="M2858.894,55h-3.717a.527.527,0,0,1,0-1.055h3.717a.527.527,0,0,1,0,1.055Z" transform="translate(-2782.062 -6.495)"/>
  <path id="Path_20667" data-name="Path 20667" d="M2858.894,74h-3.717a.527.527,0,0,1,0-1.055h3.717a.527.527,0,0,1,0,1.055Z" transform="translate(-2782.062 -23.761)"/>
  <path id="Path_20668" data-name="Path 20668" d="M2858.894,93.008h-3.717a.527.527,0,0,1,0-1.055h3.717a.527.527,0,0,1,0,1.055Z" transform="translate(-2782.062 -41.027)"/>
  <path id="Path_20669" data-name="Path 20669" d="M2858.894,112.012h-3.717a.527.527,0,0,1,0-1.055h3.717a.527.527,0,0,1,0,1.055Z" transform="translate(-2782.062 -58.292)"/>
  <path id="Path_20670" data-name="Path 20670" d="M2858.894,131.012h-3.717a.527.527,0,0,1,0-1.055h3.717a.527.527,0,0,1,0,1.055Z" transform="translate(-2782.062 -75.555)"/>
  <path id="Path_20671" data-name="Path 20671" d="M2858.894,150.016h-3.717a.527.527,0,0,1,0-1.055h3.717a.527.527,0,0,1,0,1.055Z" transform="translate(-2782.062 -92.82)"/>
  <path id="Path_20672" data-name="Path 20672" d="M2878.1,46.217a.264.264,0,0,1-.264-.264V35.265a.264.264,0,0,1,.528,0V45.954a.263.263,0,0,1-.264.264Z" transform="translate(-2803.131 10.715)"/>
  <path id="Path_20673" data-name="Path 20673" d="M2094.174,346.727h-3.717a.527.527,0,1,1,0-1.054h3.717a.527.527,0,1,1,0,1.054Z" transform="translate(-2087.302 -271.536)"/>
  <path id="Path_20674" data-name="Path 20674" d="M2094.174,365.728h-3.717a.527.527,0,0,1,0-1.055h3.717a.527.527,0,1,1,0,1.055Z" transform="translate(-2087.302 -288.798)"/>
  <path id="Path_20675" data-name="Path 20675" d="M2094.174,384.728h-3.717a.527.527,0,0,1,0-1.055h3.717a.527.527,0,1,1,0,1.055Z" transform="translate(-2087.302 -306.059)"/>
  <path id="Path_20676" data-name="Path 20676" d="M2094.174,403.728h-3.717a.527.527,0,0,1,0-1.055h3.717a.527.527,0,1,1,0,1.055Z" transform="translate(-2087.302 -323.321)"/>
  <path id="Path_20677" data-name="Path 20677" d="M2094.174,422.739h-3.717a.527.527,0,0,1,0-1.055h3.717a.527.527,0,1,1,0,1.055Z" transform="translate(-2087.302 -340.593)"/>
  <path id="Path_20678" data-name="Path 20678" d="M2094.174,441.739h-3.717a.527.527,0,0,1,0-1.055h3.717a.527.527,0,1,1,0,1.055Z" transform="translate(-2087.302 -357.855)"/>
  <path id="Path_20679" data-name="Path 20679" d="M2113.385,337.939a.264.264,0,0,1-.264-.264V326.986a.264.264,0,0,1,.528,0v10.689a.264.264,0,0,1-.264.264Z" transform="translate(-2108.37 -254.318)"/>
  <path id="Path_20680" data-name="Path 20680" d="M3017.584,346.727h-3.717a.527.527,0,0,1,0-1.054h3.717a.527.527,0,1,1,0,1.054Z" transform="translate(-2926.235 -271.536)"/>
  <path id="Path_20681" data-name="Path 20681" d="M3017.584,365.728h-3.717a.527.527,0,0,1,0-1.055h3.717a.527.527,0,0,1,0,1.055Z" transform="translate(-2926.235 -288.798)"/>
  <path id="Path_20682" data-name="Path 20682" d="M3017.584,384.728h-3.717a.527.527,0,0,1,0-1.055h3.717a.527.527,0,0,1,0,1.055Z" transform="translate(-2926.235 -306.059)"/>
  <path id="Path_20683" data-name="Path 20683" d="M3017.584,403.728h-3.717a.527.527,0,0,1,0-1.055h3.717a.527.527,0,0,1,0,1.055Z" transform="translate(-2926.235 -323.321)"/>
  <path id="Path_20684" data-name="Path 20684" d="M3017.584,422.739h-3.717a.527.527,0,0,1,0-1.055h3.717a.527.527,0,0,1,0,1.055Z" transform="translate(-2926.235 -340.593)"/>
  <path id="Path_20685" data-name="Path 20685" d="M3017.584,441.739h-3.717a.527.527,0,0,1,0-1.055h3.717a.527.527,0,1,1,0,1.055Z" transform="translate(-2926.235 -357.855)"/>
  <path id="Path_20686" data-name="Path 20686" d="M3036.794,337.939a.264.264,0,0,1-.264-.264V326.986a.264.264,0,1,1,.527,0v10.689a.263.263,0,0,1-.263.264Z" transform="translate(-2947.303 -254.318)"/>
</svg>
