<svg id="Group_25108" data-name="Group 25108" xmlns="http://www.w3.org/2000/svg" width="117.446" height="227.425" viewBox="0 0 117.446 227.425">
  <path id="Path_20621" data-name="Path 20621" d="M2531.416-451.83h7.113l-3.557-8.988-3.556,8.988Zm9,1.436h-10.921l5.482-14.326,5.439,14.326Z" transform="translate(-2476.249 464.721)"/>
  <path id="Path_20622" data-name="Path 20622" d="M2339.727-137.435l-21.3-103.884v-83.929l-8.345-25.492h-7.842l-8.345,25.492v83.929l-.014.065-21.246,103.819-1.284-.263,21.233-103.754v-84l.033-.1,8.673-26.494h9.743l8.705,26.7v83.9L2341.011-137.7l-1.284.263Z" transform="translate(-2247.458 364.859)"/>
  <path id="Path_20623" data-name="Path 20623" d="M2267.544-103H2242.36l24.789-18.811.792,1.044-21.686,16.457h21.289V-103Z" transform="translate(-2221.764 160.8)"/>
  <path id="Path_20624" data-name="Path 20624" d="M2106.981,188.067H2061.2l45.529-18.894.5,1.211-39.453,16.373h39.2v1.31Z" transform="translate(-2061.201 -97.104)"/>
  <path id="Path_20625" data-name="Path 20625" d="M2713.643-103h-25.186v-1.311h21.29l-21.687-16.457.792-1.044L2713.643-103Z" transform="translate(-2616.791 160.8)"/>
  <path id="Path_20626" data-name="Path 20626" d="M2735.372,188.067h-45.78v-1.31h39.2l-39.453-16.373.5-1.211,45.529,18.894Z" transform="translate(-2617.926 -97.104)"/>
  <path id="Path_20627" data-name="Path 20627" d="M2489.715-119.451H2463.87v-.655h25.844v.655Z" transform="translate(-2418.09 159.286)"/>
  <path id="Path_20628" data-name="Path 20628" d="M2489.715,35.656H2463.87V35h25.844v.655Z" transform="translate(-2418.09 21.813)"/>
  <path id="Path_20629" data-name="Path 20629" d="M2489.715,172.271H2463.87v-.655h25.844v.655Z" transform="translate(-2418.09 -99.27)"/>
  <path id="Path_20630" data-name="Path 20630" d="M2489.715,327.377H2463.87v-.655h25.844v.655Z" transform="translate(-2418.09 -236.742)"/>
  <path id="Path_20631" data-name="Path 20631" d="M2489.715,464H2463.87v-.655h25.844V464Z" transform="translate(-2418.09 -357.831)"/>
  <path id="Path_20632" data-name="Path 20632" d="M2489.715,619.1H2463.87v-.655h25.844v.655Z" transform="translate(-2418.09 -495.298)"/>
  <path id="Path_20633" data-name="Path 20633" d="M2452.853,850.044h-36.694v-1.311h36.694v1.311Z" transform="translate(-2375.803 -699.405)"/>
  <path id="Path_20634" data-name="Path 20634" d="M2399.171,1188.434H2346.68v-1.311h52.491v1.311Z" transform="translate(-2314.223 -999.323)"/>
  <path id="Path_20635" data-name="Path 20635" d="M2551-330.813l-14.328-16.912.5-.424,14.33,16.912-.5.424Z" transform="translate(-2482.613 361.402)"/>
  <path id="Path_20636" data-name="Path 20636" d="M2488.46-330.813l-.5-.424,14.33-16.912.5.424-14.33,16.912Z" transform="translate(-2439.441 361.402)"/>
  <path id="Path_20637" data-name="Path 20637" d="M2519.895-199.986l-21.814-10.358.281-.592,21.814,10.358-.281.592Z" transform="translate(-2448.411 239.789)"/>
  <path id="Path_20638" data-name="Path 20638" d="M2472.071-199.986l-.281-.592,21.814-10.358.281.592-21.814,10.358Z" transform="translate(-2425.11 239.789)"/>
  <path id="Path_20639" data-name="Path 20639" d="M2488.135-101.43l-25.885-17.634.37-.541,25.884,17.634-.369.541Z" transform="translate(-2416.654 158.842)"/>
  <path id="Path_20640" data-name="Path 20640" d="M2462.62-101.43l-.37-.541,25.885-17.634.369.541L2462.62-101.43Z" transform="translate(-2416.654 158.842)"/>
  <path id="Path_20641" data-name="Path 20641" d="M2488.275,51.505,2462.39,35.973l.337-.562,25.884,15.532-.336.562Z" transform="translate(-2416.778 21.449)"/>
  <path id="Path_20642" data-name="Path 20642" d="M2462.727,51.505l-.337-.562,25.885-15.532.336.562-25.884,15.532Z" transform="translate(-2416.778 21.449)"/>
  <path id="Path_20643" data-name="Path 20643" d="M2488.135,190.292l-25.885-17.634.37-.541,25.884,17.634-.369.541Z" transform="translate(-2416.654 -99.714)"/>
  <path id="Path_20644" data-name="Path 20644" d="M2462.62,190.292l-.37-.541,25.885-17.634.369.541-25.884,17.634Z" transform="translate(-2416.654 -99.714)"/>
  <path id="Path_20645" data-name="Path 20645" d="M2488.275,343.227l-25.885-15.532.337-.562,25.884,15.533-.336.562Z" transform="translate(-2416.778 -237.106)"/>
  <path id="Path_20646" data-name="Path 20646" d="M2462.727,343.227l-.337-.562,25.885-15.533.336.562-25.884,15.532Z" transform="translate(-2416.778 -237.106)"/>
  <path id="Path_20647" data-name="Path 20647" d="M2488.135,482.018l-25.885-17.633.37-.541,25.884,17.634-.369.541Z" transform="translate(-2416.654 -358.274)"/>
  <path id="Path_20648" data-name="Path 20648" d="M2462.62,482.018l-.37-.541,25.885-17.634.369.541-25.884,17.633Z" transform="translate(-2416.654 -358.274)"/>
  <path id="Path_20649" data-name="Path 20649" d="M2493.279,646.132l-31.268-26.509.424-.5,31.269,26.51-.425.5Z" transform="translate(-2416.442 -495.9)"/>
  <path id="Path_20650" data-name="Path 20650" d="M2414.714,646.132l-.424-.5,31.311-26.509.423.5-31.31,26.509Z" transform="translate(-2374.147 -495.9)"/>
  <path id="Path_20651" data-name="Path 20651" d="M2456.734,879.127l-42.114-26.509.349-.555,42.115,26.509-.35.555Z" transform="translate(-2374.439 -702.357)"/>
  <path id="Path_20652" data-name="Path 20652" d="M2367.3,879.127l-.349-.555,42.114-26.509.349.555L2367.3,879.127Z" transform="translate(-2332.189 -702.357)"/>
  <path id="Path_20653" data-name="Path 20653" d="M2420.191,1112.38l-53-26.7.294-.587,53,26.7-.295.585Z" transform="translate(-2332.4 -908.894)"/>
  <path id="Path_20654" data-name="Path 20654" d="M2319.375,1112.38l-.3-.585,53-26.7.3.587-53,26.7Z" transform="translate(-2289.761 -908.894)"/>
  <path id="Path_20655" data-name="Path 20655" d="M2352.4-48.518l-9.045-10.13-4.377,10.042-.6-.262,4.785-10.98,9.726,10.893-.489.436Z" transform="translate(-2306.867 105.878)"/>
  <path id="Path_20656" data-name="Path 20656" d="M2209.584,219.6l-9.417-8.116-7.157,7.757-.481-.444,7.586-8.223,9.124,7.864,3.957-13.6,10.445,13.99-.525.393-9.658-12.936-3.875,13.32Z" transform="translate(-2177.599 -128.708)"/>
  <path id="Path_20657" data-name="Path 20657" d="M2703.3,219.6l-3.875-13.32-9.657,12.936-.526-.393,10.445-13.99,3.958,13.6,9.124-7.864,7.586,8.223-.482.444-7.157-7.757L2703.3,219.6Z" transform="translate(-2617.836 -128.708)"/>
  <path id="Path_20658" data-name="Path 20658" d="M2692.018-48.518l-.489-.436,9.726-10.893,4.787,10.98-.6.262-4.377-10.042-9.045,10.13Z" transform="translate(-2619.866 105.878)"/>
  <path id="Path_20659" data-name="Path 20659" d="M2253.534,55.255h-4.619a.655.655,0,0,1,0-1.311h4.619a.655.655,0,1,1,0,1.311Z" transform="translate(-2226.993 5.024)"/>
  <path id="Path_20660" data-name="Path 20660" d="M2253.534,74.26h-4.619a.655.655,0,0,1,0-1.311h4.619a.655.655,0,1,1,0,1.311Z" transform="translate(-2226.993 -11.821)"/>
  <path id="Path_20661" data-name="Path 20661" d="M2253.534,93.264h-4.619a.655.655,0,0,1,0-1.311h4.619a.655.655,0,1,1,0,1.311Z" transform="translate(-2226.993 -28.664)"/>
  <path id="Path_20662" data-name="Path 20662" d="M2253.534,112.267h-4.619a.655.655,0,0,1,0-1.311h4.619a.655.655,0,1,1,0,1.311Z" transform="translate(-2226.993 -45.508)"/>
  <path id="Path_20663" data-name="Path 20663" d="M2253.534,131.268h-4.619a.655.655,0,0,1,0-1.311h4.619a.655.655,0,1,1,0,1.311Z" transform="translate(-2226.993 -62.348)"/>
  <path id="Path_20664" data-name="Path 20664" d="M2253.534,150.272h-4.619a.655.655,0,0,1,0-1.311h4.619a.655.655,0,1,1,0,1.311Z" transform="translate(-2226.993 -79.191)"/>
  <path id="Path_20665" data-name="Path 20665" d="M2271.788,48.94a.328.328,0,0,1-.328-.328V35.329a.328.328,0,1,1,.655,0V48.613a.327.327,0,0,1-.327.328Z" transform="translate(-2247.555 21.813)"/>
  <path id="Path_20666" data-name="Path 20666" d="M2859.924,55.255h-4.62a.655.655,0,0,1,0-1.311h4.62a.655.655,0,0,1,0,1.311Z" transform="translate(-2764.441 5.024)"/>
  <path id="Path_20667" data-name="Path 20667" d="M2859.924,74.26h-4.62a.655.655,0,0,1,0-1.311h4.62a.655.655,0,0,1,0,1.311Z" transform="translate(-2764.441 -11.821)"/>
  <path id="Path_20668" data-name="Path 20668" d="M2859.924,93.264h-4.62a.655.655,0,0,1,0-1.311h4.62a.655.655,0,0,1,0,1.311Z" transform="translate(-2764.441 -28.664)"/>
  <path id="Path_20669" data-name="Path 20669" d="M2859.924,112.267h-4.62a.655.655,0,0,1,0-1.311h4.62a.655.655,0,0,1,0,1.311Z" transform="translate(-2764.441 -45.508)"/>
  <path id="Path_20670" data-name="Path 20670" d="M2859.924,131.268h-4.62a.655.655,0,0,1,0-1.311h4.62a.655.655,0,0,1,0,1.311Z" transform="translate(-2764.441 -62.348)"/>
  <path id="Path_20671" data-name="Path 20671" d="M2859.924,150.272h-4.62a.655.655,0,0,1,0-1.311h4.62a.655.655,0,0,1,0,1.311Z" transform="translate(-2764.441 -79.191)"/>
  <path id="Path_20672" data-name="Path 20672" d="M2878.169,48.94a.328.328,0,0,1-.328-.328V35.329a.328.328,0,0,1,.656,0V48.613a.327.327,0,0,1-.328.328Z" transform="translate(-2784.995 21.813)"/>
  <path id="Path_20673" data-name="Path 20673" d="M2095.2,346.983h-4.619a.655.655,0,1,1,0-1.31h4.619a.655.655,0,1,1,0,1.31Z" transform="translate(-2086.664 -253.538)"/>
  <path id="Path_20674" data-name="Path 20674" d="M2095.2,365.984h-4.619a.655.655,0,0,1,0-1.311h4.619a.655.655,0,1,1,0,1.311Z" transform="translate(-2086.664 -270.378)"/>
  <path id="Path_20675" data-name="Path 20675" d="M2095.2,384.984h-4.619a.655.655,0,0,1,0-1.311h4.619a.655.655,0,1,1,0,1.311Z" transform="translate(-2086.664 -287.218)"/>
  <path id="Path_20676" data-name="Path 20676" d="M2095.2,403.984h-4.619a.655.655,0,0,1,0-1.311h4.619a.655.655,0,1,1,0,1.311Z" transform="translate(-2086.664 -304.058)"/>
  <path id="Path_20677" data-name="Path 20677" d="M2095.2,422.995h-4.619a.655.655,0,0,1,0-1.311h4.619a.655.655,0,1,1,0,1.311Z" transform="translate(-2086.664 -320.908)"/>
  <path id="Path_20678" data-name="Path 20678" d="M2095.2,441.995h-4.619a.655.655,0,0,1,0-1.311h4.619a.655.655,0,1,1,0,1.311Z" transform="translate(-2086.664 -337.748)"/>
  <path id="Path_20679" data-name="Path 20679" d="M2113.448,340.662a.328.328,0,0,1-.328-.329V327.05a.328.328,0,0,1,.656,0v13.283a.328.328,0,0,1-.327.329Z" transform="translate(-2107.217 -236.742)"/>
  <path id="Path_20680" data-name="Path 20680" d="M3018.614,346.983H3014a.655.655,0,1,1,0-1.31h4.619a.655.655,0,1,1,0,1.31Z" transform="translate(-2905.09 -253.538)"/>
  <path id="Path_20681" data-name="Path 20681" d="M3018.614,365.984H3014a.655.655,0,0,1,0-1.311h4.619a.655.655,0,0,1,0,1.311Z" transform="translate(-2905.09 -270.378)"/>
  <path id="Path_20682" data-name="Path 20682" d="M3018.614,384.984H3014a.655.655,0,0,1,0-1.311h4.619a.655.655,0,0,1,0,1.311Z" transform="translate(-2905.09 -287.218)"/>
  <path id="Path_20683" data-name="Path 20683" d="M3018.614,403.984H3014a.655.655,0,0,1,0-1.311h4.619a.655.655,0,0,1,0,1.311Z" transform="translate(-2905.09 -304.058)"/>
  <path id="Path_20684" data-name="Path 20684" d="M3018.614,422.995H3014a.655.655,0,0,1,0-1.311h4.619a.655.655,0,0,1,0,1.311Z" transform="translate(-2905.09 -320.908)"/>
  <path id="Path_20685" data-name="Path 20685" d="M3018.614,441.995H3014a.655.655,0,0,1,0-1.311h4.619a.655.655,0,0,1,0,1.311Z" transform="translate(-2905.09 -337.748)"/>
  <path id="Path_20686" data-name="Path 20686" d="M3036.858,340.662a.328.328,0,0,1-.329-.329V327.05a.328.328,0,0,1,.656,0v13.283a.327.327,0,0,1-.327.329Z" transform="translate(-2925.643 -236.742)"/>
</svg>
