<svg id="Group_24878" data-name="Group 24878" xmlns="http://www.w3.org/2000/svg" width="106.535" height="290.022" viewBox="0 0 106.535 290.022">
  <g id="Group_23883" data-name="Group 23883" transform="translate(0 0)">
    <path id="Path_21496" data-name="Path 21496" d="M-1277.171,441.326l-.287-.107a.362.362,0,0,0-.117-.044l-12.2-4.531-.256-.545-.535.251-20.037-7.443-.489-25.588,20.928-3.047.748.274.148-.4,19.889-2.9-.168-1.154-.745.109-.184-.892,1.06-.014-.015-1.166-1.285.016-.49-2.376a.364.364,0,0,0-.282-.283l-4.406-.926-.248-.178-.078.11-24.269-5.1h0l-10.991-2.311-.2-10.4.137-.214-.143-.092-.074-3.844.143-.11-.148-.194-.185-9.693.229-.018.021,0,20.024-2.776.082.117.229-.16,4.654-.645.166.13.135-.172,6.517-.9.259.1.051-.138.253-.035a.364.364,0,0,0,.314-.355l.009-.538.137-.259-.132-.069.044-2.639.108-.279-7.1-2.75c-.167-.892-.378-1.943-.495-2.629a1.3,1.3,0,0,0-1.8-1.087,1.081,1.081,0,0,0-.343,1.452,2.135,2.135,0,0,1,.026,1.25l-1.506-.583c-.042-.411-.085-.831-.123-1.241-.152-1.643-1.441-1.008-1.992-.726-.283.145-.318.529-.27,1.042l-20-7.746-4.931-28.645,7.757-6.55.291-.059a.364.364,0,0,0,.292-.351v-.084l.455-.384-.47-.557-.045.038a.365.365,0,0,0-.24-.146l-9.89-1.441-.046,0-4.154-.07a.36.36,0,0,0-.084.008l-3.261.714-.063-.095-.242.161-6,1.313-.269-.069-.035.136-.959.21a.365.365,0,0,0-.286.35l-.022,1.3-.128.221.269.156a.35.35,0,0,0,.077.045l8.637,5-.147.211.1.071-2.96,16.886-.156.122a.364.364,0,0,0-.14.3.365.365,0,0,0,.094.227l-.14.015.084.8-1.517,8.652-.54.358.377.569-.144.823a.583.583,0,0,0-.312.343l-24.032,12.87c-.4-.5-.791-1-1.028-1.275-.549-.641-1.748-.078-1.825.181a1.368,1.368,0,0,0-.015.906,4.454,4.454,0,0,0,.877,1.254l-.582.312a13.044,13.044,0,0,1-1.2-1.362c-.379-.59-.52-.883-.668-.716s-.535-.009-1.166-.019-.516.307-.516.307a3.237,3.237,0,0,0,.384,1.748,6.969,6.969,0,0,0,.947,1.23l-3.192,1.71.22.411a.353.353,0,0,0-.035.041.365.365,0,0,0-.057.281l.745,3.638-.043.015.24.688.283-.1,6.448.108c.106.359.289.8.566.884a1.4,1.4,0,0,0,1.45-.851l21.935.367h.035l.245-.019.053,23.723-11.3,4.079-.008-.02-.483.2-10.748,3.879-.185-.086-.087.184-11.1,4.009-.247-.061-.064.262-.105.113-.2,0,0,.224-2.4,2.575a6.939,6.939,0,0,1-2.6-.966c-.5-.519-1.083-.638-1.379-.351s-.37.322-.731.134-1.351-1-2.027-.869c0,0-1.165-.06-1.109.889s1.531,2.213,2.725,2.743,2.1.946,2.356.768a1.642,1.642,0,0,1,.614-.233l.089.688,1.031-.133.379,1.318-.949,0,0,1.166,16.9-.068.347.094a.367.367,0,0,0,.314-.06.384.384,0,0,0,.038-.036l20.977-.085.057,25.694c-2.885,1.475-6.424,3.282-10.073,5.143l0,0,0,0-.654.333-.012-.019-.237.146c-2.991,1.524-6.023,3.067-8.8,4.478l-.2-.069-.072.206-.37.188-.008,0-1.093.555-.107-.083-.173.224c-1.877.952-3.587,1.817-5.023,2.539a11.687,11.687,0,0,0-2.259-.628c-.584.027-1.344.265-1.326.812,0,0-.094.98.429,1.395-.693.342-1.139.557-1.277.613l-.323.034.078.725.146-.016,1.187,1.73.129.319.07-.028.056.081a.365.365,0,0,0,.294.158h.005l29.086.05h.024l.549-.036.009,4.09-11.054,64.137-6.165,36.54-.148.059.1.245-.08.473-.241.4.157.094-5.517,32.7a.583.583,0,0,0,.4.654.581.581,0,0,0,.163.026.584.584,0,0,0,.539-.338l7.806-16.886,2.518,12.162-.069.593a.583.583,0,0,0,.258.554.584.584,0,0,0,.311.1.586.586,0,0,0,.3-.077l21.789-12.485,28.216,16.827a.584.584,0,0,0,.625-.018.583.583,0,0,0,.249-.574l-.294-1.86.323.2a.583.583,0,0,0,.63-.009.583.583,0,0,0,.254-.577l-4.515-28.6.559-.32-.58-1.012-.173.1-15.489-98.1h.055l-.1-5.434h0l-.01-.335-.088-4.631.064-.056.838-.055.016,0,.99-.109.2.277.3-.213.194-.14,7.964-.875.024.07.3-.106,15.8-1.737.266.108.059-.144,5.512-.606.316.073.163-.71-.067-.016.026-1.537Zm-54.016-84.122-4.11-2.895,2.869-3.5,1.227-.195Zm-2.325-6.221-2.383,2.9-2.927-2.062Zm-3.612-.164,4.415-1.712.491.3-.6.729Zm5.373-1.982-.1-.062.224-.087Zm.162.952.2.12-.34.054Zm.36-11.5.021,9.45-1.43.555-8.084-4.921Zm-2.265,10.337-7.042,2.731-.147.023-.374-7.359Zm-6.789,4.081-.655-.437.585-.2.076-.012Zm-1.508-8.761.375,7.375-9.368-2.559Zm-9.695,7.73.318,1.37-.363.058Zm-.484,2.235.933.482.031.616-.636.222-.515-1.29Zm1.02,2.2.05.976-.307-.769Zm-4.4-2.479.066.063-.115.018,0-.019Zm3.021,1.835-2.2.767,1.742-1.91Zm-1.3-1.3-1.344,1.474-.266-1.218Zm-.83,3.829-.206-.945,2.443-.852Zm2.2-4.784-.208.033a5.409,5.409,0,0,0-1.366-1.388l1.679-1.966Zm-1.032-3.113-1.072,1.254c-.119-.136-.253-.3-.395-.469Zm-3.35,1.939c.271.327.536.7.807,1.038l-.452.53a2.839,2.839,0,0,0-.3-.692c-.044-.045-.325-.323-.684-.686l.541-.29Zm-2.858,1.385c.256.267.487.5.637.646a1.707,1.707,0,0,0,.191.16l-3.315.526Zm2.046,1.35a2.608,2.608,0,0,0,.984.086.34.34,0,0,0,.286-.252l.036-.042.188-.03.385,1.763-.036.04.056.051.04.184-2.669.93-3.881-2Zm-4.681,1.517,3,1.546-2.506.873Zm2.276,2.571,1.619-.564,1.187.611Zm2.568-.9,1.932-.673.265,1.214-.449.36Zm3.869,1c.019-.446.232-.849.165-1l1.461-1.174.885,2.22Zm2.158-9.593,8.513,2.326-7.691,1.221Zm.925,4.268,5.928-.941-4.947,1.725-.965-.5Zm5.859-.145-2.568,2.124-1.42-.733Zm-5.763,2.044.077-.062.751-.262,1.757.908-2.453,2.029Zm.224,3.483,3.065-2.534,5.173,2.672Zm3.675-3.04,3.841-3.177.707-.247,1.51,1.007-.05,5.521Zm6.8-3.792,3.192,2.248-.462.564-2.738-1.825Zm-.017,1.858,2.281,1.52-2.32,2.83Zm.245,5.153,2.646-3.226,5.036,3.355Zm3.111-3.793.451-.549,4.575,3.222v.676Zm51.425,85.787a5.48,5.48,0,0,0-.593-2.157l5.724,2.126Zm-2.076-2.707c-.2.115-.4.4-.3,1.121a7.227,7.227,0,0,0,.323,1.329l-.506-.117-.839-2.823Zm-1.3,2.146-1.719-.4,1.147-1.532Zm-6.658,2.09c-1-.266-1.94-.513-2.752-.724l4.052-.024Zm.523.895-1.57.549,1.149-.661Zm-6.506-4.89-.011-.257,3.821.879-3.714,1.743-.084-2.063.143-.126Zm4.962.887,4.589,1.055-.988.569-7.152.043Zm3.8,2.352,2.206-.013.017.1-3.25,1.137-.749-.2Zm1.28-.737.556-.32,1.341.309Zm.228-4.106,1.623.6-1.745,2.332-4.114-.947Zm-.957-.356-4.43,2.079-4.922-1.132-.184-4.489Zm-9.934,4.525-1.944.011,1.877-1.655Zm-2.777.745,2.447-.015c-.529.352-1.286.872-2.378,1.641l-1.345-.5Zm-2.05.836-2.175-.811,3.115-.019Zm4.721-4.162-2.948,2.6-5.318.031h-.015l-.486.023-.067-.025-.02-1.024,3.939-3.142,4.9,1.126Zm-8.871.686-.06-3.147,3.11.715Zm8.823-1.852-4.139-.952,3.97-3.167Zm-.565-4.735-4.481,3.574-3.852-.886-.111-5.825ZM-1316.9,568.658l-1.765-1.1,21.373-13.013.418,2.637Zm20.221-10.243,4.017,25.344-23.114-14.4ZM-1334,490.173l2.619-2.959-.484,4.166-1.779.932Zm.274,6.076-2.682-1.666,2.212-1.158Zm.124-51.269,2.15,1.69-2.986-1.044Zm0-.924-.8-.629,1.873-.2Zm.591.465,1.841-1.423.168-.008.007,3.016Zm3.041-61.4-.022-10.033.594.351.146,9.173ZM-1331,441.159l-3.682-2.332,3.674-1.313Zm1.578-69.654.017,1.081-.583-.344v-.362Zm-.568-.5v-.226l.551-.4,0,.257Zm1.814-31.353,3.7,2.477-4.512,3.938Zm-.575-1.262-.353-.236.384-.016Zm2.876-14.525,4.666,3.622-1.588,1.544-3.734-2.4.315-2.495Zm-.489-7.114.387-.321-.071.561Zm1.375-9.062.41-2.341-.347,2.748-.12-.084,0-.009.15-.259Zm3.48,5.029,3.288,2.411-2.629,2.353-3.283-2.584Zm-.174-1.031.279-.243.157.11-.29.24Zm3.27-3.813-.117.1-2.77-1.821.21-.173Zm-2.093-2.372,1.678-1.379.5,2.92Zm2.038,3.386.24.158-2.437,2.024-.172-.12Zm-2.159,3.1,3.325,2.321-.363.325-3.265-2.394Zm.637,41.1-5.267-3.06,11.117-.593Zm.014.851,2.037,1.184-2.341-.994Zm-1.926-23.464,6.2,4-2.35,2.051-5.975.253-3.3-2.326,1.223-1.189Zm-1.366.031.564-.548.133.086Zm1.166-9.592,4.293,3.269-2.872,2.792-4.6-3.572Zm-3.634,1.917,2.828-2.531.206.157Zm3.381-3.026,1.534-1.373.352.277-1.641,1.283Zm1.727,8.134.567.44-1.847,1.225-.26-.167Zm-.68,15.434,2.425-2.083,4.969,3.5,0,1.107-3.391.154Zm2.779,2.737-6.3.286,2.944-2.529Zm.216-5.309,3.8-3.261.577-.024.023,6.385Zm-.614-.433-1.338-.943,1.976-1.725,2.6-.11Zm-.527-2.619-1.424,1.244-1.583-1.117Zm-1.376,2.169,1.333.94-2.439,2.1-1.342-.9Zm-1.68,3.528-3.5,3-2.433.11,4.592-4.009Zm5.679,3.8,2.218,1.484-11.8.63-1.115-.647,1.285-1.1Zm1.24-.048,1.686-.065,0,1.2Zm1.328-10.837-2.62.111,1.823-1.591,1.441.928Zm-.863-2.39-6.112-3.936,1.786-1.184,5.4,4.188Zm-4.973-6.545,2.877-2.8,1.31,1-3.508,2.327Zm2.819-3.757-4.228-3.219,1.63-1.275,3.99,3.14Zm-2.6-5.421-.391-.308,2.648-2.37.6.441Zm-4.841-3.811-.065-.051,2.537-2.208.132.1Zm-.155-.939.375-2.971,1.649,1.209Zm-.284,2.251.452-.375,3.3,2.6-1.544,1.381-2.434-1.853Zm1.66,4.1-2.455,2.2.468-3.709Zm.165,9.7-3.226,3.136-.8.534.732-5.794Zm-1.884,7.271-2.615.111.226-1.795Zm1.562,1.1,2.212,1.559-2.462,2.149-4.168-2.789.093-.737Zm-5.576,45.571v.034l-.051,0Zm.012.763v.064l-.093-.061Zm.59-36.189h0l-.006-.369,1.227-.047-.782.672Zm.892,1.361-.664.036.292-.251Zm1.15.669,5.9,3.426-.41.256-7.488-3.179-.006-.4Zm11.47,9.943.879.53-6.094,4.037-.627-.349Zm-.6-1.214,1.166-.093-.6.433Zm-5.944,5.04-6.776-3.768,0-.261,11.476-.911,1.171.706Zm8.112,84.619-2.074,1.446-3.7-2.008,5.767-.376Zm.962-58.119.217.12-.215.161Zm-.719,63.163.387,2.44-2-1.3Zm.765-50.106.02-.014.16-.006-.155,7.166Zm.078,22.173,0-1.35.094-.076a.38.38,0,0,0,.074-.085c.083.119.171.244.271.382Zm.392,2.737-.384-.21,0-.651Zm-.578,29.34.126.793-3.9,3.179-4.342-2.832,1.582-1.121Zm.223-21.439.167-.008c.149.495.324,1.073.532,1.751-.307.582-.529,1.017-.688,1.345Zm.04,11.44v-.2l.322-.021Zm1.084.132.144.211-1,.385Zm-1.088-1.308v-.284l.24.351Zm-10.4,97.71,5.4,2.076-20.635,8.383.54-4.657Zm-14.6,4.981,1.177-10.146h0l12.42,4.779Zm14.6-5.763-12.494-4.808,17.92-8.172,12.864,5.761Zm5.424-13.78-6.884-3.083,1.71-.773,7.311,2.881Zm-8.66-3.08-9.225,4.171.916-7.893Zm-8.156-5.037.036-.313.25.1Zm.271.707.813-.607,9.612,3.789-1.653.747Zm11.351,2.763-9.852-3.883,14.623-10.925h.023l10.882,7.72Zm-10.35-14.435,1.276-.032-1.384.962Zm.174-12.849.132.082-.049.421Zm-.09,12.117.03-.263,3.66-.774-1.412.982Zm3.015-59.956v-.217l1.621-1.108.051,3.219-.366.26Zm1.139,3.287-.118-.038.066-.047Zm-.43-.71-.188.133-.495-.907-.023.012v-.4Zm5.277-87.023-4.473,3.23-.1-6.167Zm-4.585-3.812-.011-.678,6.11,3.4-.879.634Zm5.244,4.236.485.311-5.445,3.607-.155-.1,0-.127Zm2.353,19.958-2.861,2.155-4.362-2.869-.014-.874,4.144-.124Zm-1.666-1.755,4.161-.124-1.858,1.4Zm-5.055,32.563-.031-1.971,1.366.883Zm-.592,36.035v0l0,0Zm-.386-24.17.016,1.011-.819.033q.078-.3.155-.6Zm-.365-9.344-.356-.195.365-.3Zm.334,7.374.017,1.094-.357.246C-1328.756,427.362-1328.641,426.906-1328.544,426.516Zm.52-40.536,3.73,2.454-3.647,2.746Zm-.067-4.185v-.011l.008,0Zm-.026-1.652-.1-6.009,4.485,2.647Zm.211,13.246.446.3-.436.346Zm-.579,36.836.021,1.326-1.2-.7.154-.589Zm.035,2.177.046,2.872-1.06-3.461Zm4.443-33.233-1.029-.582,1.223.437Zm1.3,1.57-3.367,2.058-1.665.068,3.79-2.828Zm-1.935-1.094-3.123,2.33-.066-4.133Zm-3.7,39.114.038,2.392-.461.336Zm-.222,3.484.274-.2,0,.187Zm.289.716,0,.1-.165-.09Zm.015.934.034,2.122-1.126-.732.283-1.829Zm.608-35.008,3.3,2.021-3.231,2.289Zm.307,5.035,3.669-2.6,1.512.926-3.436,2.8Zm3.64-3.473-3.96-2.426-.053-3.364.331-.2,6.583,3.937Zm-2.98-6.421.065-.04,9.009-.368,1.971,1.114-4.515,3.2Zm2.112-1.291,2.6-1.586,2.441,1.38Zm2.581-2.431-1.315-.743.325-.242,1.642.587Zm-.289-1.509,1.192-.889,1.448.961-.9.55Zm1.167-1.78-.98-.65,1.987-.1Zm-.621.463-1.37,1.022-4.739-1.694,0-.148,4.529-.231Zm-6.13-1.986-.009-.542,1.06-.841,1.861,1.234Zm1.013-2.283-.909-.6,1.848-.141Zm-.781-1.344,3.992-3.007,1.242.817-2.5,1.981Zm-.424-8.37-.013-.817.7-.5,2.216,1.227Zm.641-2.174-.6-.332,4.972-3.809.8.474Zm4.318-5.019-5.122-3.023-.041-2.54.152-.1,6.862,4.246Zm-5.777,29.062v.082l-.114-.013Zm.061,3.851.1,6.008-.7-.658Zm-.484-2.192-.532-.326.013-.758.69-.422Zm.477,9.1-.026,1.572-1.03.84-.008-3.4Zm-.064,3.84-.088,5.237c-.035.217-.412,1.707-.821,3.287l-.061.042-.021-9.107Zm.024,16.286-.83.037a.376.376,0,0,0-.106.021l-.04.014-.007-3.281Zm-.742.763.8-.036-.793,5.118-.227.166-.012-5.165Zm-.146,6.072-.071.456v-.495Zm1.537,3.81.007.45-.929.355a.364.364,0,0,0-.136-.251l-.542-.426,0-1.17Zm-1.539,1.711.037.1.044-.017-.138.094v-.17Zm1.654,5.51.011.666-.44-.805Zm.583-36.566,1.963-1.6,5.112,3.3-3.57,2.548-3.467-1.9Zm13.9,10.769,0,.584-4.873.194,2.547-2.05Zm.963-57.855.131.3-.129.092Zm-5.758,81.416-.763.024-4.115-2.675,1.622-1.15.987-.064,4.391,2.386Zm2.839-1.091,1.746.948-3.251.1Zm1.28,5.726-3.232.009.755-.535Zm-1.667-1.1.407-.288.856.556Zm-.97-.206-3.819-.811,1.965-1.371,2.573,1.672Zm-8.978-28.518,4.4,2.527-5.823.232-.028-1.76Zm-.036-.861-1.364-.783,3.345-2.387,1.457.8Zm.8,19.759-1.825,1.247-.083-.054-.036-2.249Zm-1.957-1.892-.008-.522,3.911,1.085-1.27.868Zm1.136,4.662,1.379.9-2.4,1.7-.04-2.528Zm-1.009,11.044,2.148,1.4-2.518,1.785Zm.035-5.575,4.395.934-2.56,1.785-1.791.005Zm-.012-.748,0-.205,7.448-.231-2.219,1.547Zm-.015-.934,0-.307,3.042-2.157,3.478,2.261Zm3.02-3.345-.8-.522,1.695-.11Zm-1.824-1.186-.41-.266,2.509-.96,1.771.962-.019.014Zm2.995-1.569,2.531-.968,1.114.309-2.108,1.495Zm-.843-.458-.13-.07,1.469-1,.852.236Zm1.208-1.868-3.2-.886,4.826-.228Zm-4.714-1.544-.015-.974,2.532-1.849,4.066,2.513Zm-.03-1.866-.041-2.557,1.918,1.186Zm2.513-1.835-2.541-1.571,5-.226Zm-2.579-2.3v-.047l2.174-1.751,2.713,1.576Zm-.016-.971-.033-2.118,1.547.9Zm2.122-1.709-2.17-1.26-.032-2.057,6.652-.265Zm-2.343,30.067,3.286-2.329,4.588,3-6.868,5.6-1.634-.856Zm3.27-3.211-2.635-1.721,1.317-.918,1.714,0,1.737,1.133Zm1.725-2.648,2.02-.006-.973.689Zm-1.362-1.162,2.257-1.574,3.829.814-1.051.745Zm3.3-9.273,2.3-1.631,4.338,1.2-6.631.432Zm1.426-2.63,1.88-.719.084.052-1.228.871Zm1.641.455,1-.706,2.88,1.781Zm.315-1.984-1.015-.628,3.029-.143Zm-.856.328-2.282.873-1.211-.336,2.072-1.416Zm-1.441-1.748-4.533-2.8,2.963-2.164,4.776,2.774Zm-1.615-5.835-3.384-1.966,4.608-3.709,3.666,2.1Zm.919-6.691-5.106-2.932,3.454-2.383,5.156,2.82-3.078,2.478Zm4.81-2.611,1.7-1.368.008,2.3Zm-.692-.379-5.1-2.789,3.419-2.359,4.065,2.628,0,.6Zm-5.814-3.18-1.47-.8,3.519-2.511,1.423.92Zm-2.839-.722-2.739,1.955-.056-3.484Zm-1.936,4.017-.762.526-.015-.972Zm-.457,44.047-1.3,1.061.191-1.642Zm.7.368,3.835,2.008-2.617,1.643-3.3-1.955Zm-1.261,12.954-2.053-.969.58-4.994,3.963-2.487,5.241,3.11Zm.069.838,4.651,2.195-2.926,1.533-4.128-2.068Zm1.716-9.707-3.15,1.977.417-3.6Zm-2.785-11.293-1.394.988-.019-.369,1.79-3.864Zm-.113.973-.456,3.93-.639-.335-.141-2.718Zm-.546,4.7-.339,2.924-.166-3.188Zm-.482,14.278,1.448.683-1.661,1.147Zm3.139,5.187-3.983,2.086.447-3.857Zm.8.4,7.064,3.538-10.981,6.14-1.676-1.041.7-6.078Zm2.072,16.011-.011-.008h.023Zm1.035,1.628.013.009-1.31.277-1.063-.106,1.205-.838Zm-2.041-2.342-5.969-4.235.966-.54,7.343,4.56-.237.164Zm-6.279-20.056-.231-1.54.389.183Zm-.473,14.2,1.042.647-.917.512-.24-.17Zm.079,2.02,2.7,1.917-3.036-1.73Zm4.689,3.888-5.468.131.353-3.046Zm1.228.7.941.537-1.62,1.126-6.2-.619.1-.882Zm-1.6,2.3-.482.335-5.112,1.082.226-1.952Zm-.187,1.017,3.327-.7,3.14.313,2.073,1.471-10.464.258Zm7.252-1.045-.626-.357,2.161-.457,1.855,1.152Zm3.4,1.071-.656.49-1.182-.673Zm.341,1.9,11.588,6.6-1.392.63Zm-.109-.9-.2-.113,1.04-.777.325.032,1.282.8Zm.928-1.863-1.991-1.237,5.088-1.077Zm-2.886-1.792-1.331-.827,5.907-.142Zm-1.03.218-2.219.469-.7-.4-.8-.564.7-.488,1.377-.033Zm-9.624-6.834,11.061-6.185,6.739,3.375-10.532,7.322Zm11.043-7.009-7.037-3.525,2.95-1.545,7.134,3.367Zm-4.1-5.884-4.767-2.25,7.658-5.29,5.4,3.2Zm3.551-8,2.861-1.976,6.317,3.307-3.684,1.929Zm-.69-.409-5.206-3.09,2.66-1.669,5.368,2.81Zm-2.579-5.6-3.936-2.06,6.806-5.552,4.537,2.964Zm2.822-8.514-4.541-2.967,2.133-1.512,4.389,2.862Zm3.419-9.5-2.533-1.647,4.631-.144.043.273Zm.667-3.924,1.361-.949.006,1.692Zm-.913-6.392,1.677-1.189.572-.219.01,2.8Zm2.107-2.387-4.538.214,2.711-1.853,1.964,1.141v.4Zm-1.16-2.094,1.289-.881.005,1.633Zm-.7-.406-4.255-2.472,6.235-.282,0,1.4Zm-4.231-3.2,4.326-3.16,1.876,1.078.006,1.8Zm4.97-3.63,1.223-.893.005,1.6Zm-.692-.4-3.427-1.968,5.336-.213,0,.784Zm2.873-60.067.226-.16.006.31Zm.53-22.419.1-.005,8.824.305.564.28-3.917,3.338-5.564-3.723Zm9.1-.423-.256-.127-.057.116-8.353-.289,1.715-1.282,7.565,1.6Zm-9.128-.865-.023-1.182,1.25.265Zm-.344,20.132-.174.134-.028-7.882.053-.035Zm-1.165,50.064.016,4.549-3.413-2.205Zm-4.059,1.915-1.434-.927,3.864-2.757,1.542.944Zm-2.093-1.353-5.157-3.333,3.451-2.814,5.553,3.4Zm-1.766-7.038-1.464-.9,2.908-2.06,1.259.753Zm2.095-3.418,4.532-3.211.888.5-4.21,3.433Zm4.488-4.074-1.247-.7,2.379-.1Zm-3.172-1.794-3.111-1.759.808-.494,5.893,2.106Zm-1.5-2.741.688-.42,2.179,1.445Zm-.81-2.289,1.67-1.246,3.848-.2-4,2.447Zm3.351-2.5,1.279-.954,1.254.825Zm1.253-1.844-1.911-1.257,4.007-.306Zm-.621.464-1.94,1.447-5.3.27-2.485-1.648,1.6-1.267,5.652-.432Zm-7.11-2.007,1.84-1.46,1.8,1.182Zm1.8-2.358-1.225-.806,2.913-2.194,1.232.682Zm2.326-3.479,2.421-1.823,2.011-.06-3.219,2.555Zm2.168-2.545-6.419.192-2.985-1.652,5.155-3.653,6.19,3.652Zm-4.285-5.982-.831-.49,1.837-1.407.892.552Zm1.625-2.371,4.907-3.759,1.111.714-5.1,3.614Zm-.663-.41-6.812-4.215,5.433-3.6,6.3,4.046Zm-1.385-8.684-.514-.33.923-.666.6.331Zm-6.208-6.637,5.664-3.537,4.526,2.727Zm5.658-4.392-4.217-2.541,4.932,2.094Zm-.694.433-5.2,3.247-.1-6.442Zm-5.784,39.814-.817.648-.07,0-.006-2.825.857-.066Zm-.014,2.2.05.028.09,5.658-.111.083-.885.036-.014-6.116Zm-.773,6.969a.364.364,0,0,0,.2.065.363.363,0,0,0,.224-.072l.013-.01.5-.02.007.439-1.018.622,0-1.019Zm.44,3.7-.5,4.412-.011-4.726Zm-1.285,58.022.1,1.827-.887-.465.552-1.192Zm.268-8.883-.1.005.548-3.177,2.032,3.722-.049.426-2.14,4.618Zm.593,16.815-.439,3.784-1.636,1.026-.15-1Zm-.547,4.712-.426,3.674-.608-.287-.376-2.5Zm-1.6,13.768-.55,4.743-.385-.239-.615-3.692Zm-1.17,20.206,2.82-1.961,11.263-.277-14.162,10.579-.85-.335Zm-.256-7.916-.925.022,1.208-2.457Zm-.085.731-.086.738-1.4-.139.28-.57Zm-.17,1.462-.309,2.665-1.906-1.695.558-1.135Zm-2.088-.941-1.136-.113-.043-.325,1.412-.034Zm-.343.7-.349.71-.274-.244-.071-.535Zm-.432,7.423-3.652,2.539,3.14-6.388Zm.067-5.026.249-.506,2.137,1.9-.243,2.1-1.536,1.068Zm2.03,4.456-.67,5.771-.646-4.857Zm9.27,13.616,6.887,3.085-17.866,8.148.768-6.615Zm-11.352,4.333-1.856.839-.783-3.724,3.609-5.474Zm-2.537,1.147-3.933,1.778,3.266-4.953Zm.154.731.929,4.419-5.773-2.222.006-.01Zm.681-.308,1.6-.726-.625,5.388Zm-.429,16.807-2.154.85-1.266-4.191,4.478-5.772Zm-.095.821-.574,4.945-1.274-4.216Zm.012,10.014,14.837,8.849-17.07,10.393Zm.147-1.27.292-2.521,17.377,10.826-1.853,1.128Zm.493-3.771,21.668-8.8,18.259,7.026-21.634,13.172Zm22.655-9.2,15.79-6.414,2.109,13.3Zm-.995-.382-5.381-2.071,18.215-7.189,3.7,1.658.132.831Zm13.782-9.634,2.289-.9.329,2.076Zm-.93-.417-12.928-5.79,2.193-1,13.818,5.446.019.12Zm-9.813-7.211,11.16-5.089,1.6,10.12Zm-.942-.371-7.307-2.88,15.419-6.973,3.578,2.538.293,1.85Zm8.882-10.2,1.486-.672.834.475.329,2.076Zm1.524-1.489-11.291-6.435,2.353-.058,9.428,5.854.062.389Zm-9.7-7.826,5.012.5-4.047.1Zm-1.106-.843,4.016-3,.863-.183,4.625-.11.683,4.31Zm8.764-4.005.607-.129.018.113Zm-3.357-.035,3.558-2.658.292,1.843Zm-1.417.149-10.118.242-.25-.155,10.6-7.37,4.381,2.195.232,1.468Zm.914-7.756,2.894-2.012.069.033.6,3.762Zm-.742-.372-6.651-3.331,3.068-1.716,6.458,3.048Zm-3.611-5.866-7.106-3.353,8.2-4.292,4.79,2.842.22,1.393Zm1.849-8.043,3.248-1.7.635,4Zm-2.692-6.141,4.719-3.26.991,6.25Zm-.729-.382-5.331-2.791,7.331-4.6,3.049,1.992.273,1.723Zm2.68-7.818,1.806-1.134.409,2.581Zm-.672-.439-4.624-3.021,1.981-1.616,4.919,3.208Zm-2.05-5.121,3.388-2.764.879,5.548Zm3.408-10.374,0-.573.28.564Zm.8,1.271-.413,1.44-.288-1.821Zm.175,3.544.537-3.2.061,3.2Zm.462-4.13.057,0,0,.121Zm.043-.73-.4.012-1.086-2.193v-.193l1.429-.55Zm-.1-4.994-.21.014-.623-.911.794-1.154Zm-1.4-1.353-.011-3.087.514-.024c.208.347.46.762.769,1.263Zm1.3-3.879-.361.017-.051-.03-.072-.123.475-.379Zm-.033-1.712-.951.675-.012-.026c.1-.273.52-1.111.939-1.912Zm-.046-2.4c-.108-.355-.223-.736-.338-1.116l.316-.014Zm-.036-1.859-.518.023c-.191-.641-.365-1.233-.481-1.647h0c-.067-.237-.115-.417-.136-.511.1-.246.54-1.071,1.056-2.005Zm-1.237-3.545-.005-1.439,1-.732.092.2C-1311.84,430.8-1312.19,431.438-1312.44,431.906Zm1.1-3.729-.717-1.6.654-1.694Zm-.079-4.114a11.053,11.053,0,0,1-.96-1.5c.061-.268.45-1.36.883-2.516Zm7.347-28.329,2.4-.03-3.874,2.724-.928-.412Zm-3.125,1.961-4.032-1.79v-.08l6.085-.077Zm4.37-3.143,1.739-1.651-.038,1.63Zm-1.073.013-7.353.093-.012-.642,3.3-2.407,6.556.6Zm-7.382-1.439-.034-1.778.26-.02,1.989.18Zm-.248,25.179-.406-.769.208-9.6Zm.406-16.883-.09-4.713,3.444,1.529Zm.351.672,3.724-3.535.8.358-4.516,3.175Zm1.611-.234,3.695-2.6,3.494,1.552Zm8.8-6.173,7.772-.1-3.154,1.861-4.612-1.689Zm9.792-1.29-7.822.1,3.041-1.741,6.555.6Zm.257,1.163-4.18,2.349-.368-.135,3.736-2.2Zm-9.981,1,3.737,1.369-3.467,2.045Zm.923,3.874,3.7-2.182.344.126-3.525,1.98Zm2.525-.368,2.418-1.358,1.967.72Zm9.061-6.467.128-.076-.044-.074,1.026.093-1.1.354Zm8.956,1.815.458-.006-2.966,1.331-.18-.043Zm-3.814,1.011-3.8-.915,5.873-.074Zm-4.157-2.076,1.98-.637,5.918.537Zm-.81,4.373-.094-2.765,4.017.967-3.7,1.767Zm2.744-.4-.089.013,2.393-1.141.137.033Zm2.636-.384.963-.432.756.182Zm6.44-.937.027-1.587,2.234,1.258Zm3.157-.661-1.745-.982,2.406-.03Zm1.449-.884.175.85-.807.118Zm-.681-3.305.314,1.525-2.871-2.063Zm-4.323-.909,4.018,2.887-3.718-.338-.448-2.58Zm-.3,4.143-.029,1.723-2.049.3-1.609-.387,3.64-1.633Zm-.148-1.662-6.406-.582,5.972-1.922Zm-1.567-2.905-6.7,2.155-2.913-.264-.135-3.939Zm-10.129,8.01-2.61.38-2.647-.969,4.609-2.59.543.131Zm-.161-4.7-.135.044.064.2-.537.007.6-.357Zm-.051-1.488-5.7-.518,5.575-3.19Zm-11.655-6.448,10.859,2.283-6.172,3.532-4.813-.437Zm-.143,6.109,3.726.338-3.276,1.875-.5.006Zm-.379,8.084-.062.037.075.128,0,.026-4.063-1.8,3.6-2.533.123.045Zm-.331-8.881-6.022-.547,6.139-4.483Zm-.377-5.571-6.744,4.924-2.844-.258a.381.381,0,0,0-.061,0l-.249.019-.13-6.793Zm-10.493,33.185c-.185.484-.378,1-.554,1.478l-.009-2.545Zm.085-17.017-.125.118-.579.024-.023-6.365.463-.024-.17.384.324.144Zm-.142-7.421-.209.011.206-.15Zm-.02-1.03-.571.417-.009-2.513.164-.122.373-.028Zm-.073-3.834-.514-.285-.02-5.77.418-.012Zm-.136-7.088-.4-.238-.007-1.937.363-.273Zm-.06-3.145-.354-.219-.024-6.753.247.159Zm.462-21.862-.152-.064-.138-7.249,4.97,3.326Zm1.252-.109,4.057-3.458,3.584,2.4Zm8.644-1.265-4.01-2.683,3.849-3.28.2,5.939Zm.574-5.8,4.782,2.373-4.6,2.945Zm8.023.3-2.524,1.615-5.482-2.721.06-.051,2.971.1Zm-.773-.909,2.082.072-.434.277Zm-6.23,6.253,4.524-2.893,3.569,1.772Zm5.241-3.352,2.779-1.777.719.152.114.09.082,3.369Zm7.608-.754-.963.672-1.529-1.2Zm-2.271-1.226a2.118,2.118,0,0,0,.035-.374l2.452.9Zm-.982,1.028,1.664,1.305-1.605,1.119Zm.682,2.879,1.582-1.1.957.751Zm3.543-.491-1.336-1.048,1.341-.935,4.027.853,1.126.414Zm6.766-.938-.073.01-2.183-.8.009-.041-.284-.06-3.46-1.272-.143-.2-.143.1-2.552-.938,1.37.048a6.969,6.969,0,0,0,.8.243.391.391,0,0,0,.456-.2l.543.019,5.661,2.991Zm.016-.925-4.005-2.116,4.038.14Zm-1.738-2.767-3.744-.13-.5-.262a4.511,4.511,0,0,0-.007-.661c-.013-.148-.045-.365-.088-.626Zm-7.1-2.748c.007.082.012.166.016.247l-.629-.485Zm.49,1.534a1.262,1.262,0,0,1,.052.632.955.955,0,0,0,.013.356l-1.775-.061c-.028-.32-.054-.62-.051-.835.006-.35-.034-.889-.094-1.522Zm-4.166-2.1c.087.957.153,2.307.212,2.948l-6.187-.214-1.448-.307,7.4-2.651C-1292.243,346.187-1292.235,346.262-1292.229,346.337Zm-.2-.935-8.583,3.075-.118-.025-.787-6.724Zm-9.454,2.89-7.313-1.55,6.559-4.9Zm-1.212-7.021-7.05,5.27-2.041-.433-.161-8.421Zm-9.581,17.316,0,.173-.028-.064v-.107Zm-.988,58.02-.979-.6.975-.7Zm.963-59.282-.006,0v-.35Zm-.971,57.092-1.647,1.176-5.6-3.43,2.71-2.21,4.529,2.709Zm-.009-2.607-3.926-2.347,3.906-3.185ZM-1313.7,405l-.588-.332.585-.414Zm-.011-3.136-.227-.081-4.351-2.886,4.559-2.786Zm-.026-7.357-1.486-.977,1.479-1.1Zm-.013-3.7-5.027.384-2.384-1.568,2.969-2.356,4.438,2.457Zm-.007-1.918-3.817-2.113,3.748-2.974h.051Zm-.021-6.055-.312.247-1.958.058,1.359-1.023.91.537Zm0-1.028-.278-.164.276-.208Zm0-1.282-.953.717-6.168-3.64,1.884-1.334,5.234,3.238Zm-.007-1.877-4.585-2.837,4.564-3.235Zm-.027-7.649-.629-.4.626-.479Zm-.006-1.8-1.274.976-6.248-4.014,1.052-.7,6.469,3.6Zm0-.973-5.782-3.216,5.757-3.814Zm-.029-8.276-.613-.369.61-.44Zm-.007-2-2.922.232-5.081-3.061.835-.521,7.167,3.043Zm-5.41-4.448,5.382-3.361.023,6.5Zm5.766-18.49-.978-.629.755-.66Zm-1.561-9.068,1.07,6.216-4.809-3.733,3.73-2.474Zm-.118-.682-1.5-1.145,1.12-1.088Zm-.662-3.845-3.435-2.7,2.617-2.047Zm-1.108-6.436.033.195-.138-.1Zm-.259-1.5-2.828-1.973,2.177-1.808Zm-.309-6.092-.653-3.794.112-.092.018.019.187-.179,6.749-1.369Zm7.763-6.584v.03l-.189.16-1.1.224.019-.046-1.988-.843Zm-2.47.652-4.645.942,2.106-2.02Zm-3.178-1.476-2.705,2.6-.257-.11-.443-2.578.006-.369h-.07l-.007-.043Zm-5.711,5.089-2.1-1.481,4.109-.173Zm-2.063-2.212,1.367-1.07,2.158.922Zm3.688-2.621.325,1.889-1.991-.85,1.334-1.044Zm-3.588-.887,3.133.052-.123.1-3.023-.051Zm-.1.825,2.2.037-.942.737-1.289-.55Zm-.123.975.729.311-.852.667Zm-.378,3,1.984,1.4-.231.19-1.8-1.186Zm-.153,1.211,1.317.865-1.591,1.308Zm1.955,1.285,2.789,1.833-2.352,2.048-2.789-1.947Zm-2.463,2.745,2.334,1.629-.266.231-2.108-1.546Zm.053-9.849-.487,2.781-1.556-2.334Zm-2.808.615,1.691,2.536-6.1-1.571Zm-6.8,1.488.812-.177,5.138,1.323-5.962-.4Zm1.16,1.558,7.245.481h.039l.442-.018-.094.535-.149.227.1.064-.493,2.815Zm7.375,6.687.2.149-.674,5.339-.575.478Zm-1.321,7.533.54.411-.747,5.915-1.045.817Zm-.337,7.353-.179,1.419-.9-.578Zm-1.234,1.607.953.614-.541,4.285-.474-4.548Zm-.521,2.974.469,4.5-1.424.944Zm-1.128,6.438,1.628-1.08-.285,2.257-1.561.066Zm-1.186,59.948-.363.047-2.75-2.219,3.106-.635Zm-1.21,1.331-2.406,1.707-1.365-1.222Zm-4.92-.543-2.132-1.908,4.223-.863,2.675,2.158Zm6.1-11.972.017,7.633-3.84.785-6.026-4.862Zm-10.249,7.806.725,1.777-.959.2Zm.875,2.49.053,2.09-1.494.192.242-2.037Zm.082,3.262.011.444-.723-.352Zm-1.216-9.765-.133,1.126-.384-.939Zm-1.2.434.893,2.186-.417,3.519-4.062.83-6.309-2.963Zm-6.153,10.434,4.213-.542-2.215,1.4Zm1.248,1.326-.612.385-3.344-1.363,1.283-.165Zm-3.363-2.229-.312-.134-.329-1.03,5.233-1.069,2.744,1.289Zm5.786-2.477,2.867-.586-.217,1.83Zm-8.111-1.563.742,2.324-.9.183Zm-.643-1.434-.25,4.093-3.814.78-5.624-1.375Zm-.3,4.847-.057.933-2.053-.5Zm-5.44.368-3.295.673-1.169-1.765Zm-5.137-.788,1.073,1.619-1.1.225Zm-.043,2.591,6.839-1.4,2.041.5-8.883,1.143Zm7.505.454-2.465,1.208-2.228-.6Zm-8.2-2.661-.043,2.543v0l-.527.068c.091-.375-.026-.733-.606-.858l-.381-.083Zm-2.277,5.47-.4-1.409,2.349-.3-1.934,1.711Zm1.115,0,1.775-1.57.815,1.56Zm3.41-.014-.991-1.9.357-.046,3.125.848-2.233,1.095Zm1.928-.008,1.63-.8,2.879.781Zm8.839-.036-1.586.007-4.631-1.256,3.644-1.787,1.03-.133,1.544,3.106Zm.027-1.646-.806-1.621.278-.036.552.225Zm-1.059-2.764.068-1.112,1.165-.238.365,1.144Zm1.728-2.2-1.1-3.45,5.453,2.56Zm.147,6.6-.111-.224.043-2.555,2.778,1.132-2.615,1.647Zm1.47-.006,2.07-1.3,3.148,1.282Zm7.131-.029-4.3-1.753.6-.376,4.971,2.123Zm2.754-.162-5.71-2.439,3.12-1.965.61-.079,2.061,1,.084,3.361Zm-.731-11.989.216-1.824,5.106,4.12-4.047.827Zm1.438,4.374,1.574,1.409-1.534.2Zm.07,2.779,2.653-.341,1.711,1.532-1.522,1.08-2.82-1.373Zm.043,1.717,2.122,1.033-2.059,1.461Zm.234,3.266,2.634-1.869,3.786,1.843Zm8.071-.032-4.76-2.318,1.332-.945,3.643,3.261Zm-2.818-3.695,3.062-2.172.011,4.923Zm4.1-60.884,1.209.809-.958,7.59-.232.2Zm.022,9.681.071-.028-.017.133.194.024.023,1.45-.268.043Zm.006,2.663.221.135a.372.372,0,0,0,.047.024l.018.007.118,7.4-.387-.272Zm.018,8.185.4.281h0l-.381.03-.018-.01Zm0,1.137.414.23.009.576-.422-.271Zm0,1.4.434.279.124,7.756-.539.389Zm-1.012,69.187.014,6.093-4.454,1.592-4.735-3Q-1336.006,433.195-1331.022,430.646Zm-9.74,7.666.966,1.568-1.091.39Zm-.175,2.75,1.621-.579.269.211.043,2.49-1.846.2-.229-.08Zm1.945,2.853,0,.116-.255-.089Zm-2.348-8,0,.065-.029-.047Zm-.685.349.6.974-.21,3.3-3.642,1.3-4.574-1.593Q-1346.412,438.5-1342.024,436.265Zm-7.386,8.03-.071-.178,4.21-1.5,2.727.95Zm6.1.082-1.492,1.018-1.556-.693Zm-6.176,1.677-.094-.016.07-.043Zm5.312-3.833,2.494-.892-.11,1.722Zm-6.573-1.517,4.382,1.526-3.384,1.21-1.08-2.695Zm.87,4.374.093.231-.882.541-.2-.034-.459-.585Zm-.338-.7.051-.018,0,.012Zm-.93-2.466.709,1.77-1.064.381Zm-1.206-.4.582-.295-.516,3.124-.852.3a1.317,1.317,0,0,0-.726-.27c-.223-.022-.432-.054-.631-.09Zm-.472,3.875.648-.069.242.308-.9-.155C-1352.831,445.449-1352.829,445.421-1352.827,445.393Zm-2.454-1.279a10.473,10.473,0,0,0-1.48-.371q1.293-.651,2.895-1.46Zm-4.854,1.314.024.009-.053.006Zm-.591,2.109-.833-1.212,3.173-.339c.309.086.591.156.807.195l.139.024Zm.934.408,3.868-1.569c.448.035.918.06,1.34.058l.513,1.521Zm5.964-1.553a1.439,1.439,0,0,0,.516-.14.813.813,0,0,0,.13-.1l1.573.272-1.828,1.122Zm1.121,1.565,1.751-1.075.847,1.079Zm3.525.006-1.012-1.291,1.023.177.447,1.115Zm.3-2.354,1.162-.713,2.209.983-1.01.689-2.123-.367Zm.809,2.018-.253-.631.94.162Zm.795.34.924-.63,3.7.638Zm1.789-1.221.76-.519,2.388,1.063Zm6.213,1.234.046-.1-4.791-2.132,2.242-1.53.845-.09,1.96.685.055,3.172Zm.208-8.6,0,.237-.028.01-1.588-2.576.072-1.12,4.278,2.709-2.035.727Zm.742.748,2.776-.993,4.555,2.884v.337l-.126.006-.106-.138-.2.152-.051,0-.022,0-3.717.4-3.109-2.444Zm.02,1.145,2.055,1.615-2.023.216Zm.044,2.563,2.831-.3,1.244.978-1.066.824-3-1.05Zm.021,1.227,2.3.8-2.256,1.743Zm6.677,2.928-5.92-.01,2.363-1.826,4.138,1.447v.351Zm1.607-63.285.756.5.108,6.772-.848.065ZM-1331,459.773l.219,4.2-.723,1.56-.557.394Zm-1.12,7.09,0,.006,0,0Zm-.638,3.111.975-2.1,1.238.648.241,4.637-1.918,3.284-.769-5.119Zm.3,9.822.256,1.705-1.675-.79.023-.04Zm-.6-.482.421-.722.063.418Zm-.328-5.71.577,3.838-1.581,2.707-.139.087Zm-1.534,8.9.676-1.159,2.174,1.026.58,3.863-2.668,3.015-.946-5.677Zm-.56,3.247.7,4.2-1.768,2Zm-1.3,7.564,2.158-2.438.3,1.792-2.578,1.35Zm-.3,1.713,3.508,2.179.521,3.124-2.094,4.259-1.871.045-.749-5.631Zm-.541,10.585-.681-.068-.165-.147.814-.02Zm-.559-4.2.431,3.241-.994.024Zm-.827,4.8.4.039,1.217,1.083.192,1.443-3.462,7.042Zm2.6,8.527.676,5.081-5.1-2.008Zm-4.709,3.742,5.495,2.166.124.926-3.853,5.845-1.815-8.637Zm-.382,2.265,1.582,7.528-3.833,5.814Zm-2.578,15.282,6.3,2.424.2.935-4.732,6.1-2.156-7.134Zm-.665,3.941,1.881,6.223-3.745,4.827Zm-2.12,12.569,4.26-5.491,1.134,3.753-5.465,2.157Zm-.213,1.259,5.819-2.3,1.546,5.117-.706,1.528-6.716-4.005Zm-4.982,29.528,4.315-25.577,2.322,11.219Zm4.65-27.558.066-.393,6.432,3.836-4,8.645Zm5.2,24.761-.062.038-2.233-10.791,4.606-9.964.087.052Zm.93,2.1.163-1.4,18.373-11.187,1.681,1Zm21.378-12.25-1.715-1.023,1.828-1.113,1.732,1.079Zm1.15.686,1.819-1.042,24.505,15.266.258,1.629Zm23.244-13.319,4.247,26.9-.1-.061-4.245-26.781Zm-.509-3.224.314,1.991-.1.056-.331-2.091Zm-2.393-15.156,2.253,14.268-.145-.238-2.217-13.986Zm-.78-4.466a.372.372,0,0,0,.069-.037l.5,3.193-.126-.056-.489-3.083Zm-1.806-11.914,1.772,11.222-.128-.05-1.762-11.119Zm-.17-1.076.052.329-.118.054-.066-.417A.36.36,0,0,0-1301.16,521.9Zm-.509-3.227.19,1.2-.012.732-.319-2.014Zm-.292-1.848.146.926-.142-.081-.148-.935Zm-.169-1.068-.1.044-.029-.018-.953-6.012.136.014Zm-1.219-7.721.158,1-.137-.013-.071-.446Zm-8.166,2,7.138-.176.81,5.111Zm7.7-4.943-.05.551-.17-1.074.137,0Zm-.2-1.252-.138,0-.052-.327.134-.028Zm-.557-3.528.387,2.455-.134.029-.379-2.39Zm-.227-.74-.027.02-.006-.037Zm-.637-4.735.617,3.91-.153-.077-.6-3.8.1.048Zm-.232-1.475.111.707-.156-.073-.086-.544Zm-1.055-6.683.929,5.883-.131.091-.935-5.9Zm-.267,6.714-6.367-3,5.412-3.026.956,6.03Zm.009-7.4,0-.013.012.008Zm-2.1-14.261,2.117,13.41-.165-.1-2.095-13.214Zm-.269-.7-.02-.127.1.069Zm0-.982-.178-.116-1.82-11.485.147-.12Zm-.917-23.619-.078-4.045.116-.2,3.357,1.252Zm2.345-.045-1.362.15,3.187-2.809,1.244.464C-1305.7,444.789-1306.707,445.513-1307.919,446.386Zm1.476-.162c.787-.563,1.626-1.161,2.423-1.723l3.017,1.125Zm6.972-.8-3.827-1.427c1.394-.978,2.548-1.769,2.877-1.947.44.092,2.368.594,4.707,1.212Zm3.17-.31,3.263-1.142,2.076.555Zm4.487-1.57,2.124-.743.238,1.377Zm3.119.734-.3-1.721.443-.155,3.584,1.466Zm5.247-.576-4.064-1.662.148-.052a.379.379,0,0,0,.058-.027l.941-.005a3,3,0,0,0,.29.39.786.786,0,0,0,1.3-.164l4.9,1.128Zm5.419-.717-4.574-1.052,4.592-.027Z" transform="translate(1375.91 -298.611)"/>
    <path id="Path_21497" data-name="Path 21497" d="M-1095.061,1205.328c.27-.141.414-.09.008-.461s-.288-.2-.427-.663-.362-.152-.362-.152-.32.213-.345.31-.076.169-.273.36a.766.766,0,0,0-.152.823c.1.391.206.319.029.754s.232.684.132.828a1.035,1.035,0,0,0,.131.877c.189.343-.007.413-.013.778s.381.492.207.805.083.73.012.924a2.535,2.535,0,0,0,.143,1.314c.167.222-.006.389-.131.557s.015.559.231.709-.036.728-.136.9.215.2.335.3-.056.436-.106.557.09.415.186.513.019.292.019.292-.129.46-.059.582a1.815,1.815,0,0,1-.036.728c-.026.072.117.294.211.441s-.058.582-.109.727.235.49.746.522.646.546.649.376.368-.237.552-.477-.049-.535-.144-.683.032-.461.142-.581-.2-.441-.294-.515.126-.241.276-.506-.19-.246-.334-.346-.021-.171.176-.361-.184-.611-.3-.734-.24-.2.054-.485-.21-.368-.352-.589.174-.24.322-.359-.088-.536-.177-.659-.054-.1,0-.486a.717.717,0,0,0-.328-.735c-.168-.1.054-.315.191-.41s-.056-.414-.175-.562-.238-.344.074-.436-.058-.536-.272-.788-.044-.263.2-.526-.01-.608-.226-.757-.168-.124.151-.314-.258-.587-.35-.71-.142-.343.007-.413.126-.435-.208-.805S-1095.33,1205.469-1095.061,1205.328Z" transform="translate(1117.607 -1136.04)"/>
    <path id="Path_21498" data-name="Path 21498" d="M-194.419,1155.232c-.137-.109-.01-.171.2-.349s-.142-.621-.252-.753-.225-.214.087-.48-.184-.382-.31-.612.191-.228.346-.336-.051-.541-.131-.67-.047-.1.035-.485a.716.716,0,0,0-.277-.755c-.161-.111.076-.31.219-.4s-.027-.417-.135-.573-.213-.36.1-.43-.021-.538-.218-.8-.026-.265.235-.511.032-.607-.173-.771-.159-.135.172-.3-.217-.6-.3-.733-.119-.351.035-.411.156-.425-.151-.818-.118-.327.161-.449.42-.061.04-.46-.274-.219-.379-.692-.351-.176-.351-.176-.333.191-.366.286-.087.163-.3.34a.768.768,0,0,0-.209.811c.071.4.184.333-.023.754s.184.7.075.835a1.035,1.035,0,0,0,.07.884c.165.355-.035.412-.067.775s.346.518.151.818.033.734-.052.923a2.54,2.54,0,0,0,.053,1.321c.151.232-.033.387-.169.546s-.024.559.182.723-.087.724-.2.885.2.213.314.32-.086.432-.145.549.061.42.15.525,0,.292,0,.292-.161.449-.1.577a1.816,1.816,0,0,1-.087.724c-.031.071.1.3.18.454s-.1.577-.159.717.2.505.708.573.607.588.622.419.384-.211.584-.438-.012-.538-.1-.691.064-.458.182-.57-.168-.453-.258-.534.142-.232.31-.485S-194.282,1155.342-194.419,1155.232Z" transform="translate(284.894 -1079.825)"/>
    <path id="Path_21499" data-name="Path 21499" d="M8.725,1727.752c-.09-.146.045-.445.159-.557s-.185-.432-.279-.507.132-.229.29-.48-.183-.244-.324-.345-.016-.165.186-.344-.166-.6-.282-.719-.234-.2.068-.467-.2-.362-.334-.58.181-.227.332-.337-.073-.521-.157-.643-.051-.1.016-.47a.688.688,0,0,0-.306-.72c-.166-.1.063-.3.2-.39s-.044-.4-.158-.548-.227-.34.087-.42-.042-.52-.249-.77-.037-.255.214-.5.008-.588-.2-.739-.164-.125.16-.3-.24-.576-.33-.7-.132-.336.019-.4.139-.417-.184-.785-.132-.312.142-.44.417-.075.021-.446-.282-.2-.407-.654-.357-.158-.357-.158-.325.2-.354.289-.081.161-.284.34a.724.724,0,0,0-.176.792c.086.381.2.315.007.73s.211.669.108.8a.972.972,0,0,0,.106.852c.178.338-.019.4-.036.751s.366.488.183.785.062.709-.015.894a2.384,2.384,0,0,0,.1,1.276c.16.219-.018.375-.147.534s0,.542.21.693-.058.7-.162.863.209.2.326.3-.069.42-.123.535.078.4.171.5.011.283.011.283-.142.441-.075.561a1.7,1.7,0,0,1-.058.7c-.028.069.108.288.2.433s-.075.561-.131.7.22.481.73.529.63.548.638.383.375-.218.566-.444S8.816,1727.9,8.725,1727.752Z" transform="translate(97.48 -1608.052)"/>
    <path id="Path_21500" data-name="Path 21500" d="M-1261.248,1805.767c-.11-.114-.018-.4.079-.513s-.244-.353-.348-.4.1-.221.219-.465-.215-.188-.369-.255-.04-.143.136-.33-.249-.5-.381-.591-.259-.141,0-.421-.248-.289-.413-.461.147-.226.281-.346-.145-.447-.246-.542-.064-.077-.051-.415a.6.6,0,0,0-.4-.588c-.178-.065.019-.276.145-.374s-.1-.347-.234-.459-.273-.265.027-.382-.115-.451-.356-.64-.072-.219.141-.474-.075-.518-.306-.62-.18-.086.116-.286-.319-.471-.425-.565-.178-.276-.038-.354.078-.387-.293-.663-.174-.255.078-.409.4-.127-.042-.395-.308-.135-.495-.516-.376-.086-.376-.086-.294.221-.309.307-.057.153-.233.34a.594.594,0,0,0-.062.722c.139.322.239.248.11.641s.3.557.22.692,0,.463.225.734.038.354.071.666.431.375.293.663.161.614.111.788a1.91,1.91,0,0,0,.285,1.106c.189.169.035.333-.069.491s.075.476.306.578.043.627-.038.783.235.143.365.214-.009.379-.046.489.135.344.24.416.051.247.051.247-.079.409.005.5a1.345,1.345,0,0,1,.042.627c-.017.065.148.237.258.351s0,.5-.03.635.286.39.8.357.7.388.685.242.34-.247.5-.474S-1261.138,1805.882-1261.248,1805.767Z" transform="translate(1273.779 -1681.929)"/>
    <path id="Path_21501" data-name="Path 21501" d="M-1074.429,2376.232a9.244,9.244,0,0,1,.442,1.174c.047.1.043,1.021.241,1.219s.7.376.926.234,1.2-.758.849-1.371a5.228,5.228,0,0,1-.584-1.4,3.716,3.716,0,0,0-.251-1,2.851,2.851,0,0,1-.421-.955,12.5,12.5,0,0,0-.216-1.608,7.135,7.135,0,0,1-.583-1.468c-.09-.439-.073-.876-.185-1a4.9,4.9,0,0,1-.409-1.222,1.273,1.273,0,0,0-.3-.758c-.191-.173-.381-.444-.576-.423a2.9,2.9,0,0,1-.485-.008c-.2.483-.82,1.056-.608,1.472a1.749,1.749,0,0,1,.252.952c-.029.219.119.114.3.741s.067.334.2.823a4.591,4.591,0,0,0,.406,1.125c.177.294.075.609.261,1.122s.372,1,.465,1.247A5.683,5.683,0,0,0-1074.429,2376.232Z" transform="translate(1099.086 -2212.454)"/>
    <path id="Path_21502" data-name="Path 21502" d="M-154.916,2339.344a3.722,3.722,0,0,0-.156-1.019,2.864,2.864,0,0,1-.33-.99,12.473,12.473,0,0,0-.065-1.621,7.129,7.129,0,0,1-.443-1.516,4.139,4.139,0,0,0-.091-1.012,4.912,4.912,0,0,1-.294-1.255,1.273,1.273,0,0,0-.231-.784c-.174-.19-.338-.477-.534-.475a2.931,2.931,0,0,1-.483-.053c-.247.462-.915.974-.743,1.408a1.747,1.747,0,0,1,.162.972c-.049.214.108.125.232.767s.036.339.127.837a4.612,4.612,0,0,0,.3,1.158c.149.31.018.613.155,1.141s.277,1.033.346,1.285a5.682,5.682,0,0,0,.169,1.119,9.249,9.249,0,0,1,.33,1.21c.038.1-.052,1.021.126,1.236s.666.441.9.32,1.269-.641.974-1.285A5.254,5.254,0,0,1-154.916,2339.344Z" transform="translate(249.644 -2178.199)"/>
  </g>
  <g id="Group_23884" data-name="Group 23884" transform="translate(26.064 166.204)">
    <path id="Path_21503" data-name="Path 21503" d="M-1016.04,2537.537l-.058-.134c-4.209-9.746-12.172-22.616-12.252-22.744l-.077-.124.248-.154.077.124c.08.129,8.055,13.016,12.272,22.782l.058.134Z" transform="translate(1028.427 -2514.381)"/>
  </g>
  <g id="Group_23885" data-name="Group 23885" transform="translate(25.183 164.105)">
    <path id="Path_21504" data-name="Path 21504" d="M-1028.73,2517.3l-.05-.137c-.087-.235-8.727-23.6-11.342-30.526l-.052-.136.272-.1.052.136c2.615,6.924,11.256,30.292,11.343,30.527l.051.137Z" transform="translate(1040.174 -2486.396)"/>
  </g>
  <g id="Group_23886" data-name="Group 23886" transform="translate(84.953 45.122)">
    <rect id="Rectangle_6238" data-name="Rectangle 6238" width="0.292" height="3.323" transform="translate(0 0.292) rotate(-88.905)"/>
  </g>
  <g id="Group_23887" data-name="Group 23887" transform="translate(89.528 49.365)">
    <path id="Path_21505" data-name="Path 21505" d="M-177.979,1067.071l-.292,0,0-.145c.04-2.4-3.376-74.278-3.41-75l-.17-2.819a.142.142,0,0,1,.012-.068c0-.011.5-1.127.951-1.883.378-.636.913-2.173.256-5.327a33.426,33.426,0,0,1-.316-6.949c.029-1.842.061-3.929-.013-6.381a69.6,69.6,0,0,0-1.368-11.55l-.032-.142.285-.063.032.142a69.934,69.934,0,0,1,1.375,11.6c.074,2.459.042,4.55.013,6.394a33.273,33.273,0,0,0,.31,6.885c.643,3.088.2,4.715-.291,5.536-.4.67-.836,1.633-.921,1.82l.168,2.786c.035.728,3.451,72.611,3.411,75.024Z" transform="translate(182.359 -956.733)"/>
  </g>
  <g id="Group_23888" data-name="Group 23888" transform="translate(92.763 158.811)">
    <path id="Path_21506" data-name="Path 21506" d="M-137.965,2424.829l-.072-.127c-1.442-2.553-1.176-8.487-1.163-8.739l.007-.146.291.014-.007.146c0,.061-.275,6.1,1.126,8.582l.071.127Z" transform="translate(139.227 -2415.818)"/>
  </g>
  <g id="Group_23889" data-name="Group 23889" transform="translate(90.736 145.458)">
    <rect id="Rectangle_6239" data-name="Rectangle 6239" width="0.291" height="8.58" transform="translate(0 0.041) rotate(-8.133)"/>
  </g>
  <g id="Group_23890" data-name="Group 23890" transform="translate(104.479 98.174)">
    <rect id="Rectangle_6240" data-name="Rectangle 6240" width="0.291" height="9.275" transform="translate(0 0.008) rotate(-1.615)"/>
  </g>
  <g id="Group_23891" data-name="Group 23891" transform="translate(89.697 77.306)">
    <rect id="Rectangle_6241" data-name="Rectangle 6241" width="0.292" height="4.555" transform="translate(0 0.023) rotate(-4.433)"/>
  </g>
  <g id="Group_23892" data-name="Group 23892" transform="translate(88.889 56.148)">
    <rect id="Rectangle_6242" data-name="Rectangle 6242" width="0.292" height="8.517" transform="translate(0 0.015) rotate(-2.852)"/>
  </g>
  <g id="Group_23893" data-name="Group 23893" transform="translate(85.873 41.581)">
    <path id="Path_21507" data-name="Path 21507" d="M-228.146,857.381l-.105-.1a21.7,21.7,0,0,1-1.941-2.127,4.394,4.394,0,0,1-.88-2.03l-.015-.145.29-.029.015.145a4.189,4.189,0,0,0,.822,1.883,21.441,21.441,0,0,0,1.91,2.092l.106.1Z" transform="translate(231.088 -852.949)"/>
  </g>
  <g id="Group_23894" data-name="Group 23894" transform="translate(17.406 146.185)">
    <path id="Path_21508" data-name="Path 21508" d="M-1136.238,2272.592c-.025,0-.05,0-.075,0-.543-.054-1.894-.723-2.725-5.764a76.082,76.082,0,0,0-2.357-10.589c-.319-.981-2.4-8.445-2.421-8.52l-.039-.14.281-.078.039.14c.021.075,2.1,7.533,2.417,8.509a76.24,76.24,0,0,1,2.367,10.631c.652,3.955,1.7,5.445,2.467,5.521.324.033.617-.208.781-.643a19.1,19.1,0,0,0,.379-4.966l-.006-.145.292-.012.006.145a18.909,18.909,0,0,1-.4,5.082A1.107,1.107,0,0,1-1136.238,2272.592Z" transform="translate(1143.855 -2247.496)"/>
  </g>
  <g id="Group_23895" data-name="Group 23895" transform="translate(21.659 149.313)">
    <rect id="Rectangle_6243" data-name="Rectangle 6243" width="0.291" height="7.761" transform="translate(0 0.068) rotate(-13.449)"/>
  </g>
  <g id="Group_23896" data-name="Group 23896" transform="translate(11.482 123.165)">
    <path id="Path_21509" data-name="Path 21509" d="M-1211.5,1974.663l-.042-.139c-.03-.1-3.015-9.968-3.663-10.962-.67-1.028-7.3-21.844-7.583-22.729l-.044-.139.278-.089.044.139c2.384,7.489,7.031,21.862,7.549,22.658.67,1.029,3.574,10.629,3.7,11.037l.042.14Z" transform="translate(1222.833 -1940.605)"/>
  </g>
  <g id="Group_23897" data-name="Group 23897" transform="translate(3.962 101.291)">
    <path id="Path_21510" data-name="Path 21510" d="M-1317.107,1681.438c-.7-.012-1.229-1.052-1.574-3.1l-.1-.59c-1.007-5.952-2.528-14.948-2.691-17.937-.126-2.325-.962-7-1.363-9.244-.137-.766-.228-1.272-.244-1.416l-.016-.145.29-.032.016.145c.015.134.109.664.24,1.4.433,2.424,1.241,6.937,1.368,9.28.161,2.972,1.681,11.958,2.686,17.9l.1.59c.444,2.623,1.076,2.869,1.328,2.852.794-.052,1.72-2.378,1.8-4.525a55.634,55.634,0,0,0-.247-6.981l-.016-.145.29-.031.016.145a55.874,55.874,0,0,1,.248,7.024c-.081,2.165-1.005,4.736-2.074,4.805Z" transform="translate(1323.094 -1648.979)"/>
  </g>
  <g id="Group_23898" data-name="Group 23898" transform="translate(22.842 81.574)">
    <path id="Path_21511" data-name="Path 21511" d="M-1053.667,1508.341l-.024-.144-3.255-18.965-8.432-58.1-6.012-44.971.289-.038,6.012,44.969,8.431,58.095,3.279,19.1Z" transform="translate(1071.39 -1386.123)"/>
  </g>
  <g id="Group_23899" data-name="Group 23899" transform="translate(7.42 104.383)">
    <rect id="Rectangle_6244" data-name="Rectangle 6244" width="0.292" height="9.129" transform="matrix(0.985, -0.175, 0.175, 0.985, 0, 0.051)"/>
  </g>
  <g id="Group_23900" data-name="Group 23900" transform="translate(13.945 50.155)">
    <path id="Path_21512" data-name="Path 21512" d="M-1181.679,1002.482a.429.429,0,0,1-.184-.048c-.967-.479-2.558-5.154-4.537-11.216-.712-2.18-1.327-4.063-1.752-5.129-1.428-3.581-1.941-13.284-1.837-15.04.065-1.094.761-3.728,1.615-3.794.43-.031.757.508,1,1.654l.031.143-.285.062-.031-.143c-.29-1.349-.606-1.432-.7-1.425-.519.04-1.268,2.2-1.347,3.52-.1,1.744.4,11.37,1.817,14.915.429,1.075,1.045,2.962,1.758,5.147,1.459,4.466,3.456,10.582,4.39,11.045.05.025.073.017.08.014.971-.338.754-3.386.588-4.532l-.021-.145.288-.041.021.144c.064.446.591,4.371-.78,4.849A.353.353,0,0,1-1181.679,1002.482Z" transform="translate(1190.003 -967.254)"/>
  </g>
  <g id="Group_23901" data-name="Group 23901" transform="translate(15.85 50.418)">
    <rect id="Rectangle_6245" data-name="Rectangle 6245" width="0.292" height="3.082" transform="matrix(0.022, -1, 1, 0.022, 0, 0.291)"/>
  </g>
  <g id="Group_23902" data-name="Group 23902" transform="translate(20.931 60.425)">
    <rect id="Rectangle_6246" data-name="Rectangle 6246" width="0.292" height="8.776" transform="translate(0 0.028) rotate(-5.52)"/>
  </g>
</svg>
