<svg xmlns="http://www.w3.org/2000/svg" width="480.273" height="694" viewBox="0 0 480.273 694">
  <path id="Union_2" data-name="Union 2" d="M153.756,666.29,36.879,559.711,8.629,533.953,34.22,505.566l33.888-37.4,25.639-28.393L122,465.545l87.82,80.061c5.932,5.426,15.633,4.549,21.593-1.97L331.262,433a16,16,0,0,0,4.365-11.925,13.593,13.593,0,0,0-4.412-9.718L243.379,331.3l-28.254-25.773,25.663-28.374,33.77-37.416,25.684-28.372,28.319,25.773,116.83,106.6c44.648,40.645,46.7,111.586,4.622,158.119L311,655.639a114.41,114.41,0,0,1-79.753,38.231q-2.718.13-5.418.13A106.166,106.166,0,0,1,153.756,666.29ZM154.983,458.4,36.4,353.843A107.991,107.991,0,0,1,.223,279.564a115.689,115.689,0,0,1,28.851-83.825L165.653,39.645c41.273-47.165,111.726-53.1,157.017-13.2L441.3,130.993l28.644,25.269-25.177,28.86L411.578,223.03,386.4,251.882,357.712,226.6,268.574,147.98a13.784,13.784,0,0,0-10.181-3.367,16.782,16.782,0,0,0-11.342,5.778s-98.076,112.158-98.076,112.1c-5.8,6.7-5.611,16.421.464,21.759l89.087,78.6,28.665,25.244-25.153,28.788-33.172,37.978-25.152,28.761Z" transform="translate(0)" fill="#fff" opacity="0.49"/>
</svg>
