<svg id="Layer_1" viewBox="0 0 512 512" xmlns="http://www.w3.org/2000/svg" xmlns:xlink="http://www.w3.org/1999/xlink" data-name="Layer 1"><path d="m367.13 327.76c3.92-.58 6.82-3.95 6.82-7.91v-16.85c15.1-3.43 29.34-9.34 42.48-17.61l11.9 11.9c2.8 2.8 7.22 3.13 10.4.78 12.9-9.52 24.27-20.9 33.8-33.8 2.35-3.18 2.02-7.6-.78-10.4l-11.9-11.9c8.27-13.14 14.18-27.39 17.61-42.51h16.85c3.96 0 7.32-2.9 7.91-6.81 1.19-7.94 1.79-15.98 1.79-23.89s-.6-15.95-1.79-23.89c-.58-3.92-3.95-6.81-7.91-6.81h-16.85c-3.43-15.12-9.34-29.37-17.61-42.49l11.91-11.93c2.79-2.8 3.12-7.22.77-10.4-9.57-12.93-20.94-24.3-33.79-33.79-3.18-2.35-7.61-2.02-10.41.78l-11.9 11.92c-13.12-8.28-27.37-14.19-42.48-17.63v-16.85c0-3.96-2.9-7.32-6.82-7.91-15.69-2.34-32.18-2.33-47.8 0-3.92.58-6.81 3.95-6.81 7.91v16.85c-15.12 3.44-29.37 9.34-42.49 17.61l-11.93-11.91c-2.8-2.8-7.23-3.12-10.41-.76-12.86 9.55-24.22 20.91-33.77 33.77-2.36 3.18-2.04 7.62.77 10.42l11.92 11.92c-8.28 13.11-14.19 27.35-17.63 42.49h-16.85c-3.96 0-7.32 2.9-7.91 6.81-1.17 7.81-1.76 15.85-1.76 23.89s.59 16.07 1.76 23.91c.58 3.92 3.95 6.82 7.91 6.82h16.86c.51 2.23 1.09 4.43 1.7 6.6l-25.4 25.41c-1.34-3.72-3.49-7.21-6.46-10.18-5.22-5.24-12.19-8.12-19.63-8.12h-.02c-7.42 0-14.4 2.88-19.65 8.11l-46.6 46.6c-18.88 18.88-29.82 44.28-31.05 70.72l-3.42-3.42c-1.5-1.5-3.53-2.34-5.65-2.34-2.12 0-4.15.84-5.65 2.34l-36.82 36.82c-1.5 1.5-2.34 3.53-2.34 5.65s.84 4.15 2.34 5.65l118.32 118.32c1.56 1.56 3.61 2.34 5.65 2.34s4.09-.78 5.65-2.34l36.82-36.79c1.5-1.5 2.34-3.53 2.34-5.65s-.84-4.15-2.34-5.65l-3.43-3.43c26.43-1.21 51.83-12.15 70.73-31.04l38.24-38.24c5.22-5.22 8.1-12.2 8.1-19.63s-2.88-14.4-8.1-19.63c-2.93-2.93-6.4-5.12-10.19-6.48l5.99-5.99c10.61-10.61 10.8-27.78.57-38.68 10.66 5.68 21.98 9.89 33.83 12.58v16.85c0 3.96 2.9 7.32 6.81 7.91 7.81 1.17 15.85 1.76 23.89 1.76s16.07-.59 23.91-1.76zm-232.82 156.94-107.02-107.02 25.52-25.52 12.22 12.22c.18.2.36.38.56.56l94.23 94.25-25.51 25.49zm120.04-131.82c2.2-2.21 5.15-3.43 8.3-3.43h.01c3.16 0 6.13 1.22 8.35 3.44 4.59 4.59 4.59 12.06 0 16.64l-38.24 38.24c-19.83 19.83-48.09 29.34-76.04 25.72l-78.24-78.26c-3.57-27.97 5.95-56.22 25.75-76.02l46.59-46.59c4.62-4.6 12.1-4.61 16.68-.01 4.56 4.56 4.58 11.98.06 16.6l-32.92 32.93c-3.12 3.12-3.12 8.18 0 11.3s8.18 3.12 11.3 0l32.78-32.78s.06-.05.09-.08c.05-.05.1-.1.15-.15l80.93-80.95c2.37-2.36 5.5-3.5 8.6-3.44.23.02.47.04.71.04h.07s.05 0 .07 0c2.64.24 5.21 1.37 7.22 3.38 4.59 4.61 4.6 12.09 0 16.68l-113.98 113.98c-3.12 3.12-3.12 8.18 0 11.3 1.56 1.56 3.61 2.34 5.65 2.34s4.09-.78 5.65-2.34l77.61-77.61s0 0 0 0c2.22-2.22 5.18-3.44 8.35-3.44h.01c3.15 0 6.1 1.22 8.31 3.44 2.21 2.21 3.42 5.16 3.42 8.32s-1.21 6.12-3.42 8.32l-77.61 77.61c-3.12 3.12-3.12 8.18 0 11.3 1.56 1.56 3.61 2.34 5.65 2.34s4.09-.78 5.65-2.34l48.24-48.24s0 0 .01 0c4.59-4.59 12.07-4.58 16.66-.01 4.59 4.61 4.6 12.1.01 16.68l-48.25 48.25c-3.12 3.12-3.12 8.18 0 11.3 1.56 1.56 3.61 2.34 5.65 2.34s4.09-.78 5.65-2.34l24.46-24.46s0 0 .01 0zm33.55-184.72c-2.99-2.99-6.49-5.14-10.23-6.48 3.56-32.99 31.71-58.85 65.55-58.85 36.37 0 65.96 29.58 65.96 65.93s-29.59 65.96-65.96 65.96c-21.71 0-41.98-10.76-54.24-28.43 9.72-10.87 9.36-27.66-1.08-38.13zm34.01 120.44c-15.33-2.71-29.71-8.22-42.83-16.4l.44-.44c5.23-5.22 8.1-12.2 8.1-19.63s-2.88-14.4-8.09-19.62c-2.93-2.94-6.4-5.13-10.2-6.5l8.23-8.23c15.36 20.53 39.68 32.93 65.66 32.93 45.19 0 81.95-36.76 81.95-81.95s-36.76-81.92-81.95-81.92c-42.34 0-77.49 32.58-81.52 73.99-4.79 1.16-9.34 3.6-13.08 7.33l-24.69 24.7c-.19-.92-.37-1.85-.54-2.77-.69-3.81-4-6.58-7.87-6.58h-16.33c-.49-4.88-.74-9.81-.74-14.74s.25-9.85.73-14.71h16.33c3.88 0 7.2-2.78 7.87-6.6 3.1-17.51 9.84-33.77 20.05-48.31 2.23-3.18 1.85-7.5-.89-10.24l-11.56-11.56c6.23-7.62 13.2-14.59 20.82-20.82l11.56 11.54c2.74 2.74 7.05 3.11 10.23.89 14.56-10.19 30.82-16.93 48.31-20.02 3.82-.68 6.6-3.99 6.6-7.87v-16.33c9.72-.98 19.7-.98 29.45 0v16.33c0 3.88 2.78 7.19 6.6 7.87 17.49 3.1 33.74 9.85 48.31 20.05 3.18 2.23 7.5 1.85 10.24-.9l11.54-11.56c7.61 6.2 14.57 13.17 20.81 20.82l-11.55 11.57c-2.74 2.74-3.11 7.06-.89 10.23 10.19 14.56 16.93 30.82 20.02 48.32.67 3.82 3.99 6.6 7.87 6.6h16.34c.5 4.92.76 9.84.76 14.71s-.25 9.79-.76 14.71h-16.34c-3.88 0-7.2 2.78-7.87 6.6-3.09 17.49-9.83 33.75-20.03 48.35-2.22 3.18-1.84 7.49.9 10.23l11.54 11.54c-6.21 7.63-13.18 14.6-20.81 20.81l-11.54-11.54c-2.74-2.74-7.05-3.12-10.23-.9-14.59 10.19-30.85 16.93-48.32 20.03-3.82.68-6.6 3.99-6.6 7.87v16.33c-9.75.98-19.73.98-29.45 0v-16.33c0-3.88-2.78-7.2-6.6-7.87zm-16.6-114.89c-3.12-3.12-3.12-8.18 0-11.3s8.18-3.12 11.3 0l16.34 16.34 36.9-36.9c3.12-3.12 8.18-3.12 11.3 0s3.12 8.18 0 11.3l-42.55 42.55c-1.56 1.56-3.61 2.34-5.65 2.34s-4.09-.78-5.65-2.34l-22-22zm113.57 160.03c-46.94 0-85.12 38.19-85.12 85.12s38.19 85.12 85.12 85.12 85.12-38.19 85.12-85.12-38.19-85.12-85.12-85.12zm0 154.26c-38.12 0-69.14-31.01-69.14-69.14s31.01-69.14 69.14-69.14 69.14 31.01 69.14 69.14-31.01 69.14-69.14 69.14zm34.28-92.11-22.99 22.99 22.99 22.99c3.12 3.12 3.12 8.18 0 11.3-1.56 1.56-3.61 2.34-5.65 2.34s-4.09-.78-5.65-2.34l-22.99-22.99-22.99 22.99c-3.12 3.12-8.18 3.12-11.3 0s-3.12-8.18 0-11.3l22.99-22.99-22.99-22.99c-3.12-3.12-3.12-8.18 0-11.3s8.18-3.12 11.3 0l22.99 22.99 22.99-22.99c3.12-3.12 8.18-3.12 11.3 0s3.12 8.18 0 11.3zm-360.04-217.63c46.94 0 85.12-38.19 85.12-85.12s-38.18-85.13-85.12-85.13-85.12 38.19-85.12 85.13 38.19 85.12 85.12 85.12zm0-154.26c38.12 0 69.14 31.01 69.14 69.14s-31.01 69.14-69.14 69.14-69.14-31.02-69.14-69.14 31.02-69.14 69.14-69.14zm-34.28 92.11 22.98-22.98-22.98-22.98c-3.12-3.12-3.12-8.18 0-11.3s8.18-3.12 11.3 0l22.98 22.98 22.98-22.98c3.12-3.12 8.18-3.12 11.3 0s3.12 8.18 0 11.3l-22.98 22.98 22.98 22.98c3.12 3.12 3.12 8.18 0 11.3-1.56 1.56-3.61 2.34-5.65 2.34s-4.09-.78-5.65-2.34l-22.98-22.98-22.98 22.98c-3.12 3.12-8.18 3.12-11.3 0s-3.12-8.18 0-11.3z" fill="#f57c00" stroke="#f57c00" stroke-width=".1" /></svg>