<svg xmlns="http://www.w3.org/2000/svg" width="60.357" height="49.523" viewBox="0 0 60.357 49.523">
  <path id="Path_2" data-name="Path 2" d="M290.77,422.007l1.286-.337-.418,4.806-1.051.275-2.721-3.983,1.286-.337,1.47,2.3Zm6.127,1.966a2.045,2.045,0,0,1-.811.38,1.1,1.1,0,0,1-.872-.161,1.231,1.231,0,0,1-.484-.775,1.115,1.115,0,0,1,.873-1.4,2.039,2.039,0,0,1,.895.028l.22.066.266-1.085-.18-.068a2.9,2.9,0,0,0-1.42-.089,2.5,2.5,0,0,0-1.577,1.04,2.3,2.3,0,0,0-.359,1.77,2.39,2.39,0,0,0,2.372,1.864,2.582,2.582,0,0,0,.524-.054,2.891,2.891,0,0,0,1.264-.644l.138-.134-.675-.89Zm3.2-.446-.5-3.31-1.243.188.681,4.494,3.147-.476L302,423.239Zm7.427-2.3.065,1.1,1.037-.061.022.381a1.011,1.011,0,0,1-.543.167,1.1,1.1,0,0,1-.859-.282,1.241,1.241,0,0,1-.347-.84,1.115,1.115,0,0,1,1.066-1.256,2.45,2.45,0,0,1,.952.153l.193.076.449-1-.179-.1a3.1,3.1,0,0,0-1.467-.3,2.5,2.5,0,0,0-1.711.8,2.3,2.3,0,0,0-.611,1.7,2.348,2.348,0,0,0,2.431,2.215q.084,0,.169,0a2.305,2.305,0,0,0,1.618-.819l.059-.067-.118-2Zm5.046,2.549-1.256-.01.036-4.544,2.084.017a1.483,1.483,0,0,1,.758,2.745l.99,1.813-1.453-.012-.809-1.591-.337,0Zm.022-2.759.828.006h0a.215.215,0,0,0,.144-.088.359.359,0,0,0,.087-.215.208.208,0,0,0-.113-.218.835.835,0,0,0-.372-.067l-.569,0Zm5.779,3.078a2.334,2.334,0,0,1-1.607-.813,2.366,2.366,0,0,1-.558-1.732,2.315,2.315,0,0,1,.842-1.629,2.394,2.394,0,0,1,1.685-.531h0a2.3,2.3,0,0,1,1.594.815,2.369,2.369,0,0,1-1.787,3.9q-.084,0-.169-.006m-.865-2.445a1.316,1.316,0,0,0,.227.9.975.975,0,0,0,.728.384h0c.6.047,1.049-.4,1.1-1.122a1.055,1.055,0,0,0-.952-1.251c-.028,0-.056,0-.084,0a1.066,1.066,0,0,0-1.024,1.1m6.365,2.983a2.616,2.616,0,0,0,.382.029,1.669,1.669,0,0,0,1.75-1.5l.409-2.741-1.226-.183-.412,2.758a.577.577,0,0,1-.725.444c-.383-.057-.617-.319-.57-.637l.412-2.758-1.219-.182-.409,2.74a1.722,1.722,0,0,0,.306,1.335,1.946,1.946,0,0,0,1.3.7m4.616.833-1.229-.265.957-4.44,1.979.426a1.437,1.437,0,0,1,.929.678,1.565,1.565,0,0,1,.2,1.125,1.589,1.589,0,0,1-.639.949,1.41,1.41,0,0,1-1.114.246l-.768-.166Zm.564-2.616.751.162a.2.2,0,0,0,.153-.064.435.435,0,0,0,.136-.222.249.249,0,0,0-.057-.261.7.7,0,0,0-.334-.147l-.51-.11Zm10.9,7.668,0,0,0,0h0l-.114.109c-1.909,1.826-4.394,3.988-6.782,4.631a24.7,24.7,0,0,1-5.9,9.568,24.349,24.349,0,0,1-34.681,0,24.739,24.739,0,0,1-5.395-8.2c-2.46-.679-5.017-2.952-6.745-4.622l-.116-.112h0l-.463-8.7.279-.118q3-1.269,6.122-2.288a24.465,24.465,0,0,1,47.239-.274,63.992,63.992,0,0,1,6.46,2.567l.256.119Zm-8.328-12.48a23.99,23.99,0,0,0-5.531-8.05,26.586,26.586,0,0,1,3.075,5.1,25.21,25.21,0,0,1,2.456,2.952m.266,1.99a23.658,23.658,0,0,0-1.754-2.537q.376,1.082.66,2.208.549.16,1.094.329m-6.925-4.075a27.711,27.711,0,0,1,4.869,3.465,26.287,26.287,0,0,0-1.385-3.836,25.13,25.13,0,0,0-5.729-4.359,29.016,29.016,0,0,1,2.245,4.73m2.918,2.964a26.8,26.8,0,0,0-2.488-1.716c.129.405.248.816.361,1.229q1.07.227,2.127.487m-37.5.622a27.67,27.67,0,0,1,5.021-3.6,28.022,28.022,0,0,1,2.727-5.1,25.208,25.208,0,0,0-6.018,4.321,24.864,24.864,0,0,0-1.793,4.393l.063-.017m4.53-2.313a26.846,26.846,0,0,0-2.624,1.829q1.092-.263,2.19-.495c.136-.45.278-.9.434-1.335m1.175-.68q-.354.892-.647,1.818,1.7-.338,3.418-.6.369-1.464.85-2.874a28.228,28.228,0,0,0-3.62,1.657m.529-1.247a29.325,29.325,0,0,1,3.469-1.462,33.311,33.311,0,0,1,2.21-4.7,25.713,25.713,0,0,0-2.561.943,26.8,26.8,0,0,0-3.117,5.215m4.135-.779c-.369,1.01-.69,2.048-.968,3.106q2.138-.3,4.284-.486c.225-1.25.486-2.473.788-3.66a29.381,29.381,0,0,0-4.1,1.041m.394-1.03a30.294,30.294,0,0,1,3.952-.926,45.306,45.306,0,0,1,1.426-4.356,26.067,26.067,0,0,0-3.028.592,32.01,32.01,0,0,0-2.35,4.69m6.344-5.4a43.5,43.5,0,0,0-1.465,4.331,31.349,31.349,0,0,1,8.3,0c-.385-1.493-.829-2.928-1.328-4.294a26.641,26.641,0,0,0-2.925-.162q-1.307,0-2.581.125m-1.712,5.237c-.316,1.209-.589,2.459-.825,3.738q2.65-.2,5.295-.212h.36q2.347,0,4.675.148c-.207-1.255-.451-2.484-.734-3.677a30.387,30.387,0,0,0-8.771,0m9.467-.768a30.289,30.289,0,0,1,3.987.936,33.337,33.337,0,0,0-2.068-4.56,26.056,26.056,0,0,0-3.212-.685c.487,1.375.919,2.815,1.293,4.31m4.343,1.954a29.412,29.412,0,0,0-4.124-1.042c.27,1.168.5,2.367.7,3.591q2.151.162,4.274.447-.366-1.528-.85-3m.671-.682a29.391,29.391,0,0,1,3.542,1.5,27.8,27.8,0,0,0-2.579-4.88,25.733,25.733,0,0,0-2.911-1.164c.311.6.607,1.214.883,1.839q.588,1.329,1.065,2.708m4.006,2.713a28.315,28.315,0,0,0-3.662-1.673q.429,1.362.75,2.767,1.74.256,3.455.595-.247-.857-.543-1.688m-2.439-9.813a23.419,23.419,0,0,0-4.58-2.1,26.308,26.308,0,0,1,4.556,5.144,26.193,26.193,0,0,1,5.5,3.57,25.072,25.072,0,0,0-5.479-6.61m-6.729-2.711-.236-.052a31.31,31.31,0,0,1,2.865,4.231,26.639,26.639,0,0,1,2.522.881,24.675,24.675,0,0,0-5.151-5.06m-1.56-.3q-.8-.128-1.616-.2a37.683,37.683,0,0,1,1.694,3.818,27.049,27.049,0,0,1,2.943.549,29.322,29.322,0,0,0-3.02-4.167m-3.57-.294-.209,0a33.174,33.174,0,0,0-1.9,3.768c.729-.059,1.465-.09,2.21-.09q1.307,0,2.583.122a35.721,35.721,0,0,0-1.732-3.778q-.474-.022-.954-.025m-2.4.137q-.6.6-1.168,1.259a28.941,28.941,0,0,0-2.231,2.929,26.97,26.97,0,0,1,2.726-.459,35.142,35.142,0,0,1,1.857-3.827q-.6.035-1.183.1m-4.621,4.489a30.25,30.25,0,0,1,2.379-3.3,24.086,24.086,0,0,0-4.461,3.958q1.022-.37,2.083-.661m1.94-4.039q-.783.179-1.545.41a24.011,24.011,0,0,0-9.782,8.333,26.274,26.274,0,0,1,5.634-3.374,25.258,25.258,0,0,1,5.694-5.369m-7.35,3.075a23.974,23.974,0,0,0-9.516,11.679,25.121,25.121,0,0,1,3.4-4.129,25.363,25.363,0,0,1,6.118-7.55m-7.312,10.132a23.888,23.888,0,0,0-2.058,2.945q.593-.177,1.19-.344a25.578,25.578,0,0,1,.869-2.6m-9.108,14.332a19.165,19.165,0,0,0,5.584,4.04,24.875,24.875,0,0,1-1.255-5.59q-2.161.719-4.33,1.55m7.525-1.116q-1.065-.382-2.075-.8h0q.031.317.069.631a21.408,21.408,0,0,0,2.354,2.138q-.211-.971-.348-1.969m-.782-1.2q.331.129.667.254-.022-.22-.04-.442l-.628.189m-.967,2.485a23.212,23.212,0,0,0,1.382,3.046,23.7,23.7,0,0,0,2.146,2.174,25.8,25.8,0,0,1-1.116-3.241,23.74,23.74,0,0,1-2.411-1.979m16.452.977a61.158,61.158,0,0,1-.18-6.7q-2.287.27-4.586.67a37.037,37.037,0,0,0,.343,5.479q2.168.345,4.423.55m13.566-7.123a60.533,60.533,0,0,1-.286,7.081q2.264-.22,4.444-.583a37.762,37.762,0,0,0,.413-6.1q-2.278-.27-4.571-.4m5.436.51a38.925,38.925,0,0,1-.379,5.832q1.892-.344,3.7-.8a30.707,30.707,0,0,0,.327-4.468v0q-1.819-.327-3.648-.565m8.174,4.48q-1.958.685-4.088,1.24a30.508,30.508,0,0,1-.957,4.047,28.522,28.522,0,0,0,4.476-2.471,26.708,26.708,0,0,0,.569-2.816m-3.949.323c1.4-.375,2.764-.8,4.07-1.268q.107-.964.144-1.95-1.959-.482-3.93-.86a31.576,31.576,0,0,1-.283,4.078m-36.145,3.58a24.872,24.872,0,0,0,1.525,3.738,27.275,27.275,0,0,0,4.6,2.814,28.615,28.615,0,0,1-1.815-4.265,30.054,30.054,0,0,1-4.307-2.287m1.251,5.058q-.211-.378-.409-.763-.387-.3-.762-.611.559.708,1.171,1.374m25.694,3.726a32,32,0,0,0,2.012-4.485q-1.883.436-3.876.695c-.349,1.5-.762,2.953-1.234,4.344q1.582-.2,3.1-.554m3.027-4.736a33.01,33.01,0,0,1-1.889,4.449,30.2,30.2,0,0,0,3.351-1.121,28.082,28.082,0,0,0,2.184-4.486,36.072,36.072,0,0,1-3.645,1.158m-7.069,5.4a44.724,44.724,0,0,0,1.266-4.342,42.284,42.284,0,0,1-9.383-.052c.323,1.5.7,2.953,1.141,4.331a32.612,32.612,0,0,0,3.78.22c1.081,0,2.147-.055,3.2-.157m1.47-5.231c.357-1.627.643-3.323.852-5.073-1.919.158-3.886.242-5.89.242q-2.784,0-5.464-.208c.173,1.715.419,3.382.734,4.987a41.561,41.561,0,0,0,9.769.052m-10.495.72q-1.97-.277-3.835-.733a31.39,31.39,0,0,0,1.938,4.466q1.471.365,3.008.593c-.429-1.391-.8-2.836-1.111-4.326m-3.021,3.432a32.609,32.609,0,0,1-1.809-4.421,35.724,35.724,0,0,1-3.676-1.216,27.565,27.565,0,0,0,2.063,4.424,29.952,29.952,0,0,0,3.422,1.213m-4.023-.538a28.9,28.9,0,0,1-4.34-2.351,24.677,24.677,0,0,0,1.432,2.093,25.262,25.262,0,0,0,4.821,3.065,27.189,27.189,0,0,1-1.913-2.807m3.178,4.314a26.321,26.321,0,0,1-3.618-1.8,23.7,23.7,0,0,0,6.3,4.366,25.3,25.3,0,0,1-2.685-2.564m.5-.73a25.615,25.615,0,0,0,2.7.9,29.859,29.859,0,0,1-1.811-2.906,31.108,31.108,0,0,1-3.209-1.025,25.85,25.85,0,0,0,2.316,3.028m2.037-1.727q.714,1.228,1.538,2.371.212.294.43.579.892.195,1.808.328-.565-1.35-1.044-2.793-1.39-.186-2.732-.485m3.678.6q.5,1.458,1.079,2.8a26.451,26.451,0,0,0,2.8.15q.634,0,1.262-.03.651-1.36,1.215-2.862-1.416.122-2.871.123a33.5,33.5,0,0,1-3.482-.181m7.3-.038q-.549,1.5-1.192,2.893.95-.08,1.879-.227a28.174,28.174,0,0,0,2.156-3.119q-1.4.287-2.843.454m2.3,1.976c-.11.154-.221.305-.333.456q1.195-.25,2.345-.607a25.876,25.876,0,0,0,2.822-3.477,31.358,31.358,0,0,1-3.131.939,30.186,30.186,0,0,1-1.7,2.689m6.2-4.155a27.332,27.332,0,0,1-2.487,3.411,25.458,25.458,0,0,0,4.909-2.549,25.461,25.461,0,0,0,2.343-3.361,29.062,29.062,0,0,1-4.766,2.5m.731-1.256a27.482,27.482,0,0,0,4.929-2.912,26.158,26.158,0,0,0,1.488-3.741,30.474,30.474,0,0,1-4.479,2.309,29.238,29.238,0,0,1-1.938,4.344m2.34-9.241q-1.794.436-3.689.774a36.171,36.171,0,0,1-1.118,4.736,34.758,34.758,0,0,0,3.714-1.25,29.558,29.558,0,0,0,1.093-4.261m-4.6.929q-2.143.35-4.393.565c-.2,1.725-.477,3.409-.825,5.039a38.718,38.718,0,0,0,4.01-.762,35.279,35.279,0,0,0,1.209-4.843m-5.175-.227a59.51,59.51,0,0,0,.3-7.205,78.619,78.619,0,0,0-12.02.372,60.058,60.058,0,0,0,.189,6.87c1.819.142,3.671.215,5.545.215,2.026,0,4.026-.085,5.987-.251M304.117,438.5c-.3-1.6-.539-3.252-.7-4.936q-2.232-.2-4.367-.532a34.423,34.423,0,0,0,1.1,4.668,38.444,38.444,0,0,0,3.97.8m-4.952-1.067a35.5,35.5,0,0,1-1.016-4.547q-1.888-.321-3.683-.741a28.742,28.742,0,0,0,.96,3.977,34.3,34.3,0,0,0,3.739,1.31m-4.838-6.2q1.8.432,3.694.76a37.854,37.854,0,0,1-.314-5.176q-1.819.337-3.645.755a29.687,29.687,0,0,0,.264,3.661m.06,4.431a29.637,29.637,0,0,1-.83-3.742q-2.081-.523-4.009-1.171.194,1.246.507,2.449a28.112,28.112,0,0,0,4.332,2.464m-4.968-5.857q1.935.669,4.011,1.2a30.63,30.63,0,0,1-.224-3.239q-1.938.464-3.883,1.022c.026.339.056.677.1,1.012m-1.189,6.606a23.859,23.859,0,0,0,15.031,13.766,24.775,24.775,0,0,1-9.536-7.544,25.262,25.262,0,0,1-5.495-6.223m18.107,13.99q.249.075.5.143a26.459,26.459,0,0,1-2.395-2.681q-1.1-.254-2.165-.6a23.457,23.457,0,0,0,4.06,3.133m-.565-2.266a24.574,24.574,0,0,0,2.589,2.643q-.411-.742-.8-1.539c-.143-.294-.281-.594-.417-.9q-.692-.087-1.372-.208m4.037,3.019a27.43,27.43,0,0,0,1.534-2.614c-.273.008-.547.014-.823.014-.806,0-1.6-.037-2.389-.106q.66,1.413,1.407,2.668l.27.039m.994.033.059,0a24.194,24.194,0,0,0,2.942-2.829c-.49.059-.985.1-1.484.137a29.767,29.767,0,0,1-1.517,2.695m4.3-3.021a25.984,25.984,0,0,1-2.52,2.684,23.008,23.008,0,0,0,4.356-3.065q-.906.221-1.836.381m3.606-.879a24.589,24.589,0,0,1-4.176,3.408,23.334,23.334,0,0,0,8.263-5.1,26.466,26.466,0,0,1-4.087,1.689m1.455,1.519a23.9,23.9,0,0,0,9.149-7.972,25.834,25.834,0,0,1-3.873,3.2,25.216,25.216,0,0,1-5.277,4.772m11.343-11.959q.117-.272.228-.547a25.58,25.58,0,0,1-2.952,2.613,26.615,26.615,0,0,1-1.52,2.653,24.424,24.424,0,0,0,4.244-4.718m.975-2.686q.309-1.043.526-2.122a24.178,24.178,0,0,1-2.309,1.837,27.28,27.28,0,0,1-1.119,3.288,23.583,23.583,0,0,0,2.9-3m-1.472-1.559a21.886,21.886,0,0,0,2.231-1.95q.084-.6.137-1.209-.952.407-1.955.782-.157,1.207-.413,2.377m.522-3.328c.653-.251,1.289-.516,1.913-.791,0-.037,0-.075,0-.112q-.91-.258-1.824-.495c-.021.469-.049.936-.093,1.4m1.828,4.979a18.892,18.892,0,0,0,5.683-4.069q-2.362-.863-4.745-1.568a25.007,25.007,0,0,1-.938,5.636m5.876-10.511c-17.52-8.015-39.406-8.013-58.589.007l.367,6.908a88.884,88.884,0,0,1,30.069-6.1,78.1,78.1,0,0,1,28.027,4.737Z" transform="translate(-279.756 -402.558)" fill="#333"/>
</svg>
