<svg xmlns="http://www.w3.org/2000/svg" width="194.123" height="366.874" viewBox="0 0 194.123 366.874">
  <g id="Group_26461" data-name="Group 26461" transform="translate(0.632 0.587)" opacity="0.37">
    <path id="Path_28866" data-name="Path 28866" d="M59.593,61.492c0,56.839,0,191.735,0,248.328a4.189,4.189,0,0,1-.133.7c-.867.224-1.731.465-2.6.669q-10.479,2.453-20.959,4.9c-.7.164-1.522.153-1.969,1.056v39.4a2.051,2.051,0,0,0,1.416,1c2.684.856,5.361,1.733,8.041,2.6,5.511,1.786,11.027,3.555,16.528,5.371a4.667,4.667,0,0,0,2.649.124q14.506-3.433,29.023-6.826c.625-.146,1.282-.2,1.7-1V318.44c-.236-.635-.8-.815-1.362-1-1.465-.477-2.934-.945-4.4-1.419q-7.965-2.577-15.927-5.158c-.45-.146-.886-.331-1.369-.513a6.032,6.032,0,0,1-.147-2.063c-.008-5.8,0-89.9,0-95.7q0-21.064.006-42.127a3.692,3.692,0,0,1,.189-1.8c1.686-.514,3.508-.566,5.375-1.048l2.419-2.252,1.2,1.529,65.688-30.747q4.441,2.04,8.847,4.062,4.422,2.026,8.848,4.044,4.495,2.06,8.985,4.128c2.946,1.354,5.888,2.72,8.84,4.06s5.859,2.731,8.887,4.042a50.79,50.79,0,0,0,3.475-4.346l-1.918-2.08,1.5-2.178c-.482-.481-.92-.935-1.375-1.37q-19.2-18.358-38.412-36.713L95.417,55.114Q81.056,41.388,66.7,27.656a6.979,6.979,0,0,0-1.961-1.33Q36.542,13.4,8.352.461C8.018.308,7.677.167,7.292,0L5.955,1.209,3.644.232Q2.216,1.083,0,4.555c.334.35.676.738,1.049,1.094q9.684,9.266,19.375,18.526,19.09,18.246,38.184,36.488c.307.293.65.549.986.829m5.674-8.018a2.246,2.246,0,0,1,1.337-.051,1.634,1.634,0,0,1-1.372.015c-.144.126-.281.351-.431.359-.494.028-.992-.022-1.489-.041a.587.587,0,0,1-.756.394,5.44,5.44,0,0,1-1.184-.406q-2.084-.947-4.148-1.939c-.1-.049-.135-.244-.239-.447l1.09-.13.713.932c1.033-.135,1.813-.247,2.6-.33.135-.014.283.09.418.138l.213,1.378.519.437c.288,0,.548,0,.815.007.638-.108,1.275-.216,1.919-.317m87.662,75.731-.84.4a4.939,4.939,0,0,1-1.3-1.89,7.11,7.11,0,0,1,.521-.636c.215-.209.465-.382.771-.627.448.758,1.2,1.141,1.508,1.878l-.728.936c.2-.051.454-.042.6-.163a12.481,12.481,0,0,0,3.113-2.912,2.606,2.606,0,0,1,.505-.461c.346.3.674.554.974.839q3.346,3.185,6.683,6.38,3.857,3.688,7.7,7.389c.174.168.638.288.329.786-.434-.176-.874-.336-1.3-.53q-3.042-1.387-6.077-2.789-6.583-3.023-13.164-6.053c-.352-.163-.841-.2-.943-.767.348-.24.7-.461,1.03-.717a1.359,1.359,0,0,0,.616-1.064M69.251,54.212a8.429,8.429,0,0,1,.167,2.386q.005,42.2,0,84.409,0,10.771-.007,21.541a3.365,3.365,0,0,1-.208,1.857c-.67.433-1.689.059-2.154,1.13v2.854l.577.541,1.584-.079a2.057,2.057,0,0,1,.173.523c.014,23.03.021,124.363.023,147.393a4.948,4.948,0,0,1-.1.728c-2.14,1.28-6.841,1.277-9.035-.024-.012-.521-.037-1.1-.037-1.68,0-21.488,0-121.279,0-142.766q0-51.14,0-102.28,0-7.26,0-14.52c0-.266-.014-.533.007-.8.023-.3-.075-.64.366-.885l1.925.726,6.72-1.055M75.9,161.17a6.083,6.083,0,0,0,.668-.879,11.253,11.253,0,0,0,.515-1.337q5.054-14.185,10.105-28.371,4.68-13.134,9.356-26.27a2.636,2.636,0,0,0,.34-1.767c-.147-.116-.347-.282-.555-.435s-.411-.281-.7-.473c1.015-.913,1.558-2.1,2.588-3,.4.347.772.635,1.108.957q15.278,14.6,30.545,29.2a6.707,6.707,0,0,0,1.958,1.335c1.7.75,3.387,1.536,5.073,2.32a8.629,8.629,0,0,1,.83.515A4.93,4.93,0,0,1,136,133.977q-26.844,12.579-53.7,25.14c-.719.336-1.468.606-2.2.924-1.751.763-3.54,1.467-4.819,2.994-.058.069-.188.079-.345.139a7.868,7.868,0,0,1-1.88-1.07l.724-1.509,2.111.574M92.639,357.945c-10.17,2.378-20.148,4.712-30.126,7.04a7.4,7.4,0,0,1-.81.1,4.35,4.35,0,0,1-.153-.659c-.123-1.948-.018-37.409.119-38.536,1.955-.7,4.056-1.017,6.1-1.536s4.14-.96,6.209-1.445c2.017-.472,4.03-.963,6.047-1.436q3.1-.728,6.211-1.438c2.053-.466,4.081-1.057,6.226-1.388a3.615,3.615,0,0,1,.16.694c.041,12.806.015,25.612.016,38.607M95.463,95.892a28.211,28.211,0,0,1-4.159,4.98c-.479,1.543-.913,3.131-1.463,4.679q-8.918,25.086-17.869,50.16c-.393,1.1-.793,2.2-1.209,3.293-.091.238-.247.483-.672.244q0-43.316.006-86.729a1.629,1.629,0,0,1,.161-.457,1.546,1.546,0,0,1,.444.19c8.23,7.851,16.454,15.707,24.76,23.641M34.735,356.722c-.186-1.4-.3-35.188-.145-38.467a6.976,6.976,0,0,1,.143-.827,10.781,10.781,0,0,1,1.131.235q11.98,3.876,23.954,7.771a10.3,10.3,0,0,1,.954.412c.174,1.371.28,34.529.128,38.351a7.121,7.121,0,0,1-.126.8,3.813,3.813,0,0,1-.683-.082q-12.658-4.084-25.358-8.194m96.008-255.94a3.67,3.67,0,0,1-1.547-.522q-18.405-8.439-36.813-16.872a8.367,8.367,0,0,1-2.352-1.6Q80.765,72.9,71.472,64.041c-.46-.439-.952-.846-1.382-1.227,0-2.65,0-5.147.008-7.644a1.964,1.964,0,0,1,.194-.568,3.107,3.107,0,0,1,1.559.5q10.363,4.748,20.725,9.5A8.314,8.314,0,0,1,94.919,66.2Q106.148,76.964,117.4,87.7q6.17,5.9,12.332,11.8a2.655,2.655,0,0,1,1.01,1.284m23.838,21.829c-.779-.733-1.476-1.381-2.164-2.038q-9.566-9.147-19.13-18.3Q117.38,87.072,101.47,71.87q-4.377-4.184-8.743-8.379c-.372-.359-.872-.637-.949-1.333a12.571,12.571,0,0,1,1.964-2.768,3.281,3.281,0,0,1,.628-.5c.367.353.666.645.969.931a6.867,6.867,0,0,0,1.172,1.07A13.581,13.581,0,0,1,99.092,63q25.534,24.4,51.065,48.812c2.727,2.607,5.43,5.239,8.14,7.865.04.039.019.141.029.228l-1.005-.6-2.74,3.3M77.835,49.942l-.142.276c-.475-.194-.957-.372-1.423-.585-2.75-1.258-5.452-2.615-8.165-3.95-3.424-1.684-6.952-3.156-10.469-4.65-5.574-2.367-11.01-5.058-16.548-7.515a17.892,17.892,0,0,1-5.363-3.612C30.59,24.891,25.366,19.966,20.184,15a2.677,2.677,0,0,1-1.041-1.345c.575.228,1.011.377,1.428.568Q39.2,22.755,57.82,31.291a6.994,6.994,0,0,1,1.964,1.33q8.461,8.116,16.946,16.207c.378.361.738.741,1.106,1.113m69.639,84.365c-.567.269-1.045.5-1.526.724l-44.2,20.695q-10.4,4.869-20.8,9.731a2.922,2.922,0,0,1-1.669.547,21.038,21.038,0,0,1-1.423-3.77c.56-.282,1.08-.533,1.59-.8.467-.247.928-.509,1.385-.774.549-.319,1.068-.7,1.64-.966q31.41-14.722,62.829-29.425a3.305,3.305,0,0,1,1.021-.433,8.736,8.736,0,0,0,2.677-.957c.338-.142.685-.264,1.006-.386a1.4,1.4,0,0,1,.576,1.4l-3.107,4.413M59.652,317.481a2.892,2.892,0,0,0,2.1,1.324,14.664,14.664,0,0,0,6.177-.008,2.828,2.828,0,0,0,2.148-1.483c0-.859-.021-1.868.006-2.876a14.334,14.334,0,0,1,.125-3.125,2.352,2.352,0,0,1,1.593.267c2.636.831,5.261,1.695,7.889,2.548L90.3,317.573c.322.1.686.154.841.65l-29.854,7c-.545-.168-1.054-.317-1.559-.48q-6.447-2.086-12.892-4.176-5.005-1.621-10.01-3.244c-.276-.09-.642-.113-.611-.614.5-.13,1-.275,1.517-.4,2.483-.585,4.968-1.16,7.451-1.744,4.242-1,8.48-2.009,12.727-2.987.49-.113,1-.4,1.6-.1.226,1.986-.019,4.007.14,6M58.824,30.939C57.415,30.542,6.623,7.378,1.487,4.8a6.856,6.856,0,0,1-.636-.407A11.689,11.689,0,0,1,3.646.865c.458.2.945.4,1.425.625Q23.258,9.829,41.444,18.171q9.274,4.254,18.543,8.519a3.3,3.3,0,0,1,1.493.9,23.509,23.509,0,0,1-2.656,3.347m37.569,71.9c-.231.686-.392,1.188-.568,1.684q-7.3,20.491-14.593,40.982-2.352,6.6-4.718,13.2c-.19.525-.217,1.169-.865,1.516a19.545,19.545,0,0,1-3.706-1.411c.11-.411.2-.762.3-1.11a4.5,4.5,0,0,0,.342-1.217,5.145,5.145,0,0,1,.41-1.85q8.8-24.693,17.6-49.385a4.538,4.538,0,0,1,.494-1.169,8.179,8.179,0,0,0,.982-1.988,4.889,4.889,0,0,1,.411-.693,40.665,40.665,0,0,1,3.915,1.436m50.08,26.236c-.587-.249-1.029-.425-1.461-.623-3.523-1.615-7.038-3.245-10.568-4.843a7.769,7.769,0,0,1-2.224-1.5q-7.64-7.341-15.312-14.649c-.339-.325-.651-.679-.989-1.032.121-.072.182-.134.21-.122q18.252,8.3,36.5,16.617c.379.173.734.4,1.216.658a17.733,17.733,0,0,1-3.226,3.363c-1.17,1.012-2.723,1.386-4.145,2.129m13.719-7.6c.39.347.788.679,1.162,1.037q7.731,7.382,15.457,14.77,7.094,6.779,14.184,13.562a3.561,3.561,0,0,1,1.14,1.347,27.649,27.649,0,0,1-2.825,3.576c-.47-.428-.9-.807-1.321-1.2q-8.711-8.32-17.418-16.644-6.056-5.787-12.106-11.579c-.369-.354-.879-.618-.985-1.309l2.711-3.555M62.006,27.818a3.612,3.612,0,0,1,.594.332Q78.044,42.9,93.476,57.657a1.618,1.618,0,0,1,.228.384c-1.382,2.075-2.109,2.939-2.991,3.523-.524-.492-1.067-.993-1.6-1.5q-6.051-5.778-12.1-11.56-8.352-7.983-16.7-15.972c-.368-.353-.871-.622-.97-1.292l2.661-3.418m90.838,93.944a2.243,2.243,0,0,1-1.6-.428q-16.3-7.468-32.6-14.947-9.708-4.452-19.414-8.908a3.129,3.129,0,0,1-1.489-.917A15.013,15.013,0,0,1,99.934,93.8c.391.157.737.281,1.071.434q21.88,10.033,43.76,20.067a5.514,5.514,0,0,1,1.575,1.058c1.91,1.849,3.841,3.675,5.756,5.519.253.244.457.539.749.888M97.073,96.479,70.1,70.7c0-1.622-.006-3.161.012-4.7,0-.11.17-.219.312-.391.5.468.97.9,1.429,1.334q4.035,3.855,8.067,7.713,9.221,8.813,18.44,17.627a2.72,2.72,0,0,1,1,1.261l-2.29,2.937m33.7,32.068c-1.645-1.307-30.081-28.554-30.824-29.517.468-.228.816.109,1.178.272,2.564,1.157,5.112,2.349,7.679,3.5a7.278,7.278,0,0,1,2.078,1.436q10.584,10.139,21.184,20.261c.34.325.655.678,1.012,1.05a17.338,17.338,0,0,1-2.307,3m18.343,4.607c.444.164.843.286,1.22.457,1.886.855,3.766,1.724,5.648,2.588q11.149,5.113,22.294,10.236a6.089,6.089,0,0,1,1.6,1.013c2.1,1.954,4.162,3.949,6.23,5.938a4.017,4.017,0,0,1,.418.577c-.147.066-.2.112-.242.1a2,2,0,0,1-.456-.121q-19.611-9.013-39.218-18.035a.268.268,0,0,1-.107-.116,1.146,1.146,0,0,1-.039-.248,6.771,6.771,0,0,0,2.656-2.392M3.093,6.507c.278-.235.467-.08.647,0,2.9,1.321,5.8,2.633,8.688,3.987a5.952,5.952,0,0,1,1.412,1.011c.944.856,1.848,1.758,2.77,2.639q8.53,8.15,17.056,16.3c.407.391.932.7,1.127,1.343-.354.474-.687.952-1.053,1.4a5.127,5.127,0,0,1-1.23,1.368c-1.193-.85-25.053-23.5-28.952-27.478a7.163,7.163,0,0,1-.465-.579M148.34,109.466c-13.774-13.145-27.364-26.151-40.962-39.149-.223-.213-.407-.468-.638-.737a4.372,4.372,0,0,1,1.232-1.605,1.594,1.594,0,0,1,.356.131,4.661,4.661,0,0,1,.487.409q20.334,19.463,40.664,38.929a.331.331,0,0,1,.069.142,2.489,2.489,0,0,1,.036.274l-1.244,1.607m42.1,40.254c-13.838-13.23-27.516-26.307-41.19-39.388a3.961,3.961,0,0,1-.39-.529,4.417,4.417,0,0,1,1.336-1.679c.489.447.961.864,1.417,1.3q11.246,10.743,22.488,21.491,8.245,7.881,16.485,15.767a3.985,3.985,0,0,1,1.168,1.352l-1.313,1.686m-84.228-80.5C92.368,55.976,78.695,42.9,65.025,29.818a3.853,3.853,0,0,1-.387-.53,4.441,4.441,0,0,1,1.337-1.631c.4.348.759.646,1.1.97Q75.436,36.612,83.793,44.6,95.15,55.457,106.5,66.315a2.684,2.684,0,0,1,1.009,1.27l-1.3,1.634m33.377,39.814c-.6.23-.942-.1-1.3-.267q-18.751-8.586-37.5-17.188a5.934,5.934,0,0,1-1.711-1.136c-1.294-1.26-2.611-2.5-3.911-3.749-.216-.208-.39-.461-.707-.842a4.12,4.12,0,0,1,1.789.586q4.854,2.214,9.7,4.447,13.606,6.242,27.216,12.477a7.1,7.1,0,0,1,2.1,1.408c1.207,1.2,2.451,2.355,3.673,3.536.215.207.4.446.65.728M33.2,34.872a10.814,10.814,0,0,1,2.279-2.846c1.414.36,13.8,5.936,21.97,9.886.325.157.625.367.933.551A7.539,7.539,0,0,1,56.01,45.35C48.491,41.9,40.918,38.452,33.2,34.872m26.189,25.5c-.508-.452-.869-.754-1.209-1.078q-6-5.718-11.985-11.442-3.859-3.687-7.7-7.388c-.181-.175-.623-.3-.372-.743a2.636,2.636,0,0,1,.46.117c2.944,1.347,5.89,2.69,8.824,4.06a4.524,4.524,0,0,1,1.168.8c2.163,2.04,4.3,4.1,6.462,6.165l.1.8c.56.829,1.676.844,2.352,1.535.7.716,1.429,1.405,2.108,2.07,0,1.547,0,2.98-.005,4.412a3.763,3.763,0,0,1-.2.69M7.221.646c.461.186.757.293,1.042.423Q36.638,14.1,65.011,27.131a.283.283,0,0,1,.1.12,1.967,1.967,0,0,1,.088.248,2.445,2.445,0,0,1-1.213,1.286c-.39-.352-.757-.652-1.088-.99a6.391,6.391,0,0,0-1.961-1.331q-17.6-8.053-35.19-16.13Q16.916,6.283,8.088,2.221C7.618,2,7.064,1.906,6.725,1.362l.5-.716M70,47.767c.285.1.539.156.772.262,3.042,1.39,6.085,2.779,9.117,4.19a4.516,4.516,0,0,1,1.187.78q3.246,3.061,6.448,6.169c.156.151.448.3.18.718-6.513-2.978-13.024-5.948-19.513-8.968-.128-.06-.206-.227-.343-.385A15.64,15.64,0,0,1,70,47.767M58.86,42.9l.511-.616L69.53,46.944l-.764,1.129-1.173-.912a1.956,1.956,0,0,0-1.2,1.282l1.186,1.2-.856.851c-.338-.138-.585-.23-.823-.339q-4.051-1.85-8.1-3.707a7.084,7.084,0,0,1-.83-.46c-.072-.046-.093-.173-.175-.34l.735-.873.934.394a1.81,1.81,0,0,0,1.052-1.208L58.86,42.9M139.1,132.517c-2.486-1.151-4.941-2.283-7.39-3.431-.115-.054-.166-.243-.272-.409.357-.478.687-.959,1.06-1.4s.612-1,1.26-1.283c3.016,1.4,6.05,2.8,9.077,4.212.1.047.127.251.227.467l-3.962,1.848m3.474-20.4a4.368,4.368,0,0,1-1.6-.6q-15.073-6.9-30.136-13.827-4.2-1.929-8.4-3.867c-.2-.092-.539-.129-.387-.515.923.3,39.674,17.992,40.427,18.47.058.037.052.176.1.34M69.327,52.754a3.894,3.894,0,0,1,1.529.527q9.688,4.433,19.37,8.882a6.025,6.025,0,0,1,.971.53c.183.13.464.281.266.694-.481-.2-.965-.375-1.432-.589Q82.514,59.351,75,55.895c-1.493-.686-2.994-1.356-4.483-2.051-.46-.215-.984-.383-1.193-1.089M73.8,167.317c-1.894.3-3.732.732-5.651.88a3.782,3.782,0,0,1-.047-2.521,15.247,15.247,0,0,1,5.1-.759l.6,2.4M56.317,46.99c-.49.275-.8-.038-1.108-.18q-9.544-4.363-19.075-8.756a7.783,7.783,0,0,1-1.1-.627c-.142-.1-.38-.242-.118-.559.363.141.755.273,1.129.444q9.18,4.205,18.356,8.42a12.389,12.389,0,0,1,1.286.623,3.66,3.66,0,0,1,.628.634M159.355,121.7c-1.113,1.629-2.332,3.062-3.483,4.573l-1.814-1.371a21.444,21.444,0,0,1,3.777-4.664l1.52,1.462m-9.477,10.513c.323-.028.5-.1.611-.044q12.867,5.914,25.722,11.856c.048.022.035.174.05.265-1.455-.408-17.608-7.717-25.453-11.522-.274-.133-.525-.312-.93-.555M76.723,162.448A3.32,3.32,0,0,1,77.93,164.7a2.659,2.659,0,0,1-1.271,1.138,8.071,8.071,0,0,0-.8-.847,9.652,9.652,0,0,0-1.073-.648l1.934-1.892M65.811,52.5a5.74,5.74,0,0,1-2.905.408,7.418,7.418,0,0,1-.072-2.28c.012-.174.185-.337.32-.567A9.143,9.143,0,0,1,65.811,52.5m-7.527-3.557c.025.352.058.562.05.772a6.19,6.19,0,0,1-.1.657l-.718.161a13.6,13.6,0,0,1-3.409-3.46,27.707,27.707,0,0,1,4.174,1.871m75.366,75.686c.217-.191.4,0,.571.074q5.175,2.4,10.341,4.823a.179.179,0,0,1,.088.126c0,.028-.07.061-.109.091-.866-.24-9.925-4.3-10.8-4.855-.059-.038-.059-.17-.087-.259m-74.285-76c.66-.272.944.212,1.241.535.47.511,1.276.81,1.218,1.7a3.491,3.491,0,0,1-2.542.336,8.2,8.2,0,0,1,.083-2.571m33.107,52.088a5.175,5.175,0,0,1,1.722-1.744l.276,1.07,1.1.966-.69.562-2.4-.854M70.229,161.64a13.567,13.567,0,0,1,3.088,1.618l-1.4.322a4.918,4.918,0,0,1-1.807-.919l.119-1.021m2.16.333c-.842-.419-1.446-.711-2.039-1.024-.066-.035-.074-.181-.13-.332.316-.274.475-.795,1.2-.686.286.527,1,.9.964,2.042M97.136,98.907l-1.6-1.682.646-.66,1.565,1.491-.612.851M65.443,51.075c1.465.534,1.465.534,2.062,1.419-1.019-.03-1.089-.074-2.062-1.419m7.548,109.164-.139.745a2.735,2.735,0,0,1-.561-.413c-.067-.088-.012-.268-.012-.478l.712.146m43-52.466h0M58.4,48.056l-.129-.048.126-.168.127.174-.123.042m96.187,78.368c.011.076.019.133.028.19-.029-.023-.077-.042-.082-.069s.028-.067.055-.122" transform="translate(0 0)" fill="#2b353a" stroke="#000" stroke-width="1"/>
    <rect id="Rectangle_7534" data-name="Rectangle 7534" width="192.839" height="287.488" transform="translate(0)" fill="none"/>
  </g>
</svg>
