<svg xmlns="http://www.w3.org/2000/svg" xmlns:xlink="http://www.w3.org/1999/xlink" width="152.388" height="452.248" viewBox="0 0 152.388 452.248">
  <defs>
    <clipPath id="clip-path">
      <rect id="Rectangle_7535" data-name="Rectangle 7535" width="152.388" height="174.214" fill="none"/>
    </clipPath>
  </defs>
  <g id="Group_26465" data-name="Group 26465" transform="translate(-728.916 -392.436)" opacity="0.37">
    <g id="Group_26464" data-name="Group 26464" transform="translate(730.893 477.694)">
      <path id="Path_21285" data-name="Path 21285" d="M-946.028,1058.986l-40.238-307.714h-17.965l-40.239,307.714-2.192-.289,40.365-308.671a1.106,1.106,0,0,1,1.1-.962H-985.3a1.105,1.105,0,0,1,1.1.962l40.364,308.671-2.192.289Z" transform="translate(1046.663 -691.997)"/>
      <path id="Path_21286" data-name="Path 21286" d="M-991.612,766.5l10.122,6.65,10.122-6.65L-981.49,759.1l-10.122,7.406Zm-2.365,17.5,12.487,10.609L-969,784.008-981.49,775.8l-12.487,8.207Zm-3.633,27.206,16.12,11.672,16.121-11.672-16.121-13.7-16.12,13.7Zm-3.9,28.894,20.018,22.564,20.018-22.564-20.018-14.493-20.018,14.493Zm-7.658,57.093,27.654,32.241,27.7-32.241L-981.49,866l-27.676,31.2Zm-10.466,80.011,38.143,42.928,38.157-42.788-38.181-44.516-38.12,44.376Zm38.142,45.7h0a1.1,1.1,0,0,1-.824-.372l-39.609-44.577a1.109,1.109,0,0,1-.012-1.457l38.969-45.365-28.5-33.23a1.111,1.111,0,0,1,.012-1.457l28.492-32.114-21-23.679a1.1,1.1,0,0,1-.272-.853,1.1,1.1,0,0,1,.45-.774l20.418-14.782-16.672-12.07a1.112,1.112,0,0,1-.456-.853,1.1,1.1,0,0,1,.388-.884l16.917-14.375-13.336-11.33a1.108,1.108,0,0,1-.388-.91,1.106,1.106,0,0,1,.5-.858l12.922-8.491-10.654-7a1.108,1.108,0,0,1-.5-.9,1.1,1.1,0,0,1,.451-.919l10.841-7.931-8.734-6.4,1.305-1.78,9.3,6.807,9.3-6.807,1.3,1.78-8.734,6.4,10.841,7.931a1.1,1.1,0,0,1,.451.919,1.108,1.108,0,0,1-.5.9l-10.655,7,12.922,8.491a1.1,1.1,0,0,1,.5.858,1.109,1.109,0,0,1-.387.91l-13.336,11.33,16.917,14.375a1.1,1.1,0,0,1,.389.884,1.113,1.113,0,0,1-.456.853l-16.673,12.07,20.418,14.782a1.1,1.1,0,0,1,.451.774,1.1,1.1,0,0,1-.272.853l-21,23.679,28.492,32.114a1.11,1.11,0,0,1,.012,1.457l-28.546,33.23,39.031,45.509a1.1,1.1,0,0,1-.014,1.453l-39.627,44.437a1.1,1.1,0,0,1-.824.372Z" transform="translate(1032.904 -692.272)"/>
      <path id="Path_21287" data-name="Path 21287" d="M-932.257,767.922h-21.829v-2.21h21.829v2.21Z" transform="translate(994.585 -701.363)" fill="red"/>
      <path id="Path_21288" data-name="Path 21288" d="M-932.89,806.213h-26.256V804h26.256v2.209Z" transform="translate(997.431 -722.903)" fill="red"/>
      <path id="Path_21289" data-name="Path 21289" d="M-933.7,855.563h-31.9v-2.209h31.9v2.209Z" transform="translate(1001.063 -750.664)" fill="red"/>
      <path id="Path_21290" data-name="Path 21290" d="M-934.743,919.987h-39.225v-2.214h39.225v2.214Z" transform="translate(1005.769 -786.903)" fill="red"/>
      <path id="Path_21291" data-name="Path 21291" d="M-936.235,1011.623h-49.657v-2.209h49.657v2.209Z" transform="translate(1012.477 -838.455)" fill="red"/>
      <path id="Path_21292" data-name="Path 21292" d="M-938.7,1164.252h-67.057v-2.209H-938.7v2.209Z" transform="translate(1023.653 -924.314)" fill="red"/>
      <path id="Path_21293" data-name="Path 21293" d="M-952.2,675.68h17.714V620.822H-952.2V675.68Zm18.819,2.209h-19.924a1.1,1.1,0,0,1-1.105-1.106V619.715a1.1,1.1,0,0,1,1.105-1.1h19.924a1.1,1.1,0,0,1,1.105,1.1v57.067a1.1,1.1,0,0,1-1.105,1.106Z" transform="translate(994.769 -618.613)"/>
      <path id="Path_21294" data-name="Path 21294" d="M-952.1,639.935l-1.526-1.6,19.924-19.021,1.525,1.6L-952.1,639.935Z" transform="translate(994.329 -619.007)"/>
      <path id="Path_21295" data-name="Path 21295" d="M-933.707,639.935l-19.924-19.025,1.526-1.6,19.924,19.021-1.525,1.6Z" transform="translate(994.329 -619.007)"/>
      <path id="Path_21296" data-name="Path 21296" d="M-952.1,683.415l-1.526-1.6,19.924-19.021,1.525,1.6L-952.1,683.415Z" transform="translate(994.329 -643.466)"/>
      <path id="Path_21297" data-name="Path 21297" d="M-933.707,683.415l-19.924-19.021,1.526-1.6,19.924,19.021-1.525,1.6Z" transform="translate(994.329 -643.466)"/>
      <path id="Path_21298" data-name="Path 21298" d="M-952.1,726.9l-1.526-1.6,19.924-19.025,1.525,1.6L-952.1,726.9Z" transform="translate(994.329 -667.925)"/>
      <path id="Path_21299" data-name="Path 21299" d="M-933.707,726.9l-19.924-19.021,1.526-1.6,19.924,19.025-1.525,1.6Z" transform="translate(994.329 -667.925)"/>
      <path id="Path_21332" data-name="Path 21332" d="M-943.548,1371.577h-90.876a1.105,1.105,0,0,1-1.1-1.107,1.105,1.105,0,0,1,1.1-1.107h90.876a1.105,1.105,0,0,1,1.1,1.107,1.105,1.105,0,0,1-1.1,1.107Z" transform="translate(1040.4 -1040.94)" fill="red"/>
    </g>
    <g id="Group_26463" data-name="Group 26463" transform="translate(728.916 392.436)">
      <g id="Group_26462" data-name="Group 26462" clip-path="url(#clip-path)">
        <path id="Path_28870" data-name="Path 28870" d="M59.235,84.958c-1.264,0-2.883-.759-4.475-2.94a129.334,129.334,0,0,1-9.427-14.986C31.322,40.95,19.4,15.463,13.536,2.592c-.561-1.231-.21-2.114.386-2.443s1.53-.156,2.274.975C23.964,12.941,39.18,36.612,53.787,62.365a129.3,129.3,0,0,1,7.66,15.962c1.4,3.521.4,5.6-.881,6.3a2.743,2.743,0,0,1-1.33.327M14.566,1.316a1.286,1.286,0,0,0,.157.735c5.855,12.857,17.766,38.315,31.76,64.364a127.951,127.951,0,0,0,9.331,14.834c1.622,2.224,3.238,2.726,4.119,2.24s1.317-2.123.3-4.679a128.092,128.092,0,0,0-7.581-15.8C38.062,37.288,22.865,13.645,15.105,1.841a1.292,1.292,0,0,0-.539-.525" transform="translate(-10.337 0)" fill="none" stroke="#000" stroke-width="1"/>
        <path id="Path_28871" data-name="Path 28871" d="M1.255,496.85a1.226,1.226,0,0,1-.634-.172c-.583-.352-.9-1.248-.293-2.456,6.351-12.638,19.244-37.652,34.242-63.177a129.323,129.323,0,0,1,9.994-14.614c2.349-2.974,4.646-3.145,5.9-2.389s2.174,2.869.639,6.334a129.569,129.569,0,0,1-8.264,15.657C27.26,461.2,11.147,484.277,2.93,495.79a2.151,2.151,0,0,1-1.675,1.059m47.766-81.888c-.9,0-2.148.652-3.434,2.279a128.054,128.054,0,0,0-9.892,14.466c-14.979,25.493-27.857,50.477-34.2,63.1a1.285,1.285,0,0,0-.185.728,1.285,1.285,0,0,0,.557-.5c8.209-11.5,24.3-34.548,39.862-59.686a128.135,128.135,0,0,0,8.181-15.5c1.114-2.516.742-4.167-.12-4.688a1.479,1.479,0,0,0-.769-.2" transform="translate(0 -322.636)" fill="#fff" stroke="#000" stroke-width="1"/>
        <path id="Path_28872" data-name="Path 28872" d="M283.432,395.706q-3.343,0-6.72-.026a129.422,129.422,0,0,1-17.653-1.348c-3.749-.548-5.047-2.451-5.019-3.916s1.4-3.317,5.164-3.721a129.516,129.516,0,0,1,17.692-.671c29.6.908,57.63,3.324,71.707,4.683,1.346.13,1.936.876,1.923,1.556s-.63,1.4-1.981,1.481c-13.047.758-38.037,1.96-65.113,1.96m-10.481-8.436a127.872,127.872,0,0,0-13.607.724c-2.736.293-3.98,1.44-4,2.447s1.181,2.2,3.9,2.6a128.122,128.122,0,0,0,17.475,1.334c29.568.227,57.642-1.114,71.747-1.932a.392.392,0,1,0,.008-.435c-14.06-1.358-42.06-3.771-71.621-4.677q-1.95-.06-3.906-.06" transform="translate(-198.138 -301.034)" fill="none" stroke="#000" stroke-width="1"/>
        <path id="Path_28873" data-name="Path 28873" d="M210.94,361.652a10.43,10.43,0,1,1-14.172-4.09,10.431,10.431,0,0,1,14.172,4.09" transform="translate(-149.264 -277.866)" fill="#fff" stroke="#000" stroke-width="2"/>
        <path id="Path_28874" data-name="Path 28874" d="M199.5,375.474a11.081,11.081,0,1,1,5.338-1.379,11.093,11.093,0,0,1-5.338,1.379m-.036-20.857a9.776,9.776,0,1,0,8.577,5.05,9.715,9.715,0,0,0-8.577-5.05" transform="translate(-146.938 -275.565)" fill="#07284b"/>
      </g>
    </g>
  </g>
</svg>
