<svg xmlns="http://www.w3.org/2000/svg" width="34.955" height="68.183" viewBox="0 0 34.955 68.183">
  <path id="Path_21515" data-name="Path 21515" d="M185.493,221.454v0s0-.006,0-.01a.05.05,0,0,0-.006-.021.054.054,0,0,0-.009-.011s0-.007-.007-.01l-7.335-5.165.584-4.909.206-.066.354.134.054-.039.085.317c-.113.038-.19.1-.178.143s.109.062.228.042l.047.178a.062.062,0,0,0,.059.045l.016,0a.061.061,0,0,0,.042-.073l-.048-.178c.107-.038.18-.1.168-.139s-.1-.061-.217-.044l-.1-.364.091-.066H179.4l-.014-.008v-.128l-1.274-.475v.174l-.257.075.031.186,0,0-3.241,3.936-10.523-3.765-1.374-2.056a.052.052,0,0,0,.016-.021.045.045,0,0,0-.028-.058l-.054-.019-3.654-5.469a.06.06,0,0,0-.029-.023l-.021-.007.019-.177-.322-.148-.038-.151-1.417-.588-.045.256-.105.045.192.075-.023.263c-.129-.013-.234.013-.241.062s.091.107.224.132l-.022.247a.06.06,0,0,0,.055.066h.006a.06.06,0,0,0,.06-.055l.022-.246c.1,0,.173-.025.179-.066s-.062-.089-.162-.117l.021-.24.521.2v.362l.042.033a.061.061,0,0,0-.005.041l1.6,6.569-7.652-.311h0a.059.059,0,0,0-.028.006l-1.286.7a.06.06,0,0,0-.023.022l0,0a.071.071,0,0,0-.006.029v.005a.041.041,0,0,0,0,.007s0,.005.006.009a.07.07,0,0,0,.012.019l.012.009s.006.006.009.007l.611.207-.036.709c-.119.01-.208.049-.208.1s.086.085.2.1v.051c-.116.01-.2.049-.2.1s.086.084.2.095v.051c-.115.011-.2.049-.2.1s.085.084.2.095v.052c-.114.011-.2.048-.2.095s.084.083.2.094v.053c-.113.011-.2.049-.2.095s.083.082.195.094v.053c-.112.011-.195.049-.195.094s.082.082.193.094V213c-.111.012-.193.049-.193.094s.081.082.191.093v.054c-.11.012-.19.049-.19.094s.08.081.189.093v.054c-.109.012-.189.049-.189.094s.079.081.187.094v.054c-.108.012-.187.05-.187.093s.078.081.185.093v.055c-.107.013-.184.049-.184.093s.077.081.183.093v.056c-.106.013-.183.049-.183.092s.076.08.181.093v.056c-.1.013-.18.05-.18.092s.075.079.179.092v.057c-.1.013-.179.05-.179.092s.074.079.177.092v.057c-.1.013-.176.049-.176.092s.073.078.175.092v.058c-.1.014-.174.05-.174.092s.072.078.173.092v.058c-.1.014-.172.049-.172.092s.071.077.171.091v.058c-.1.014-.17.049-.17.091s.07.077.169.091v.059c-.1.015-.168.05-.168.092s.069.076.167.091v.059c-.1.015-.166.05-.166.092s.068.076.165.09v.06c-.1.015-.164.05-.164.091s.067.076.163.091v.06c-.1.015-.162.05-.162.09s.066.075.161.09v.061c-.094.015-.16.05-.16.09s.065.075.159.09v.062c-.093.015-.158.05-.158.089s.064.074.157.089v.062c-.092.016-.156.05-.156.089s.063.074.155.089v.063c-.091.016-.154.049-.154.089s.063.073.153.089v.064c-.089.015-.152.049-.152.088s.062.072.151.088l-.011,1.305a.06.06,0,0,0,.059.061h0a.061.061,0,0,0,.061-.06l.011-1.3c.143,0,.257-.045.257-.1s-.114-.1-.256-.1v-.046c.142,0,.256-.045.256-.1s-.113-.1-.253-.1v-.046c.14,0,.253-.045.253-.1s-.112-.095-.252-.1v-.046c.14,0,.252-.045.252-.1s-.111-.095-.25-.1v-.046c.139,0,.249-.045.249-.1s-.11-.094-.248-.1v-.047c.138,0,.247-.046.247-.1s-.109-.094-.246-.1v-.047c.136,0,.245-.045.245-.1s-.108-.093-.244-.1v-.047c.136,0,.244-.046.244-.1s-.107-.093-.242-.1v-.047c.134,0,.241-.046.241-.1s-.105-.092-.24-.1v-.047c.134,0,.239-.046.239-.1s-.1-.092-.238-.1V215.6c.133-.005.237-.046.237-.1s-.1-.092-.236-.1v-.047c.132-.006.236-.047.236-.1s-.1-.091-.234-.1v-.048c.131-.005.233-.047.233-.1s-.1-.091-.232-.1v-.048c.13-.006.231-.047.231-.1s-.1-.09-.23-.1v-.047c.129-.007.229-.047.229-.1s-.1-.09-.228-.1v-.048c.128-.007.227-.047.227-.1s-.1-.089-.226-.1v-.048c.127-.007.225-.048.225-.1s-.1-.089-.224-.1v-.048c.126-.007.223-.048.223-.1s-.1-.089-.222-.1v-.049c.125-.007.221-.048.221-.1s-.1-.088-.219-.1v-.049c.124-.008.219-.048.219-.1s-.094-.088-.218-.1v-.049c.123-.008.217-.048.217-.1s-.093-.088-.215-.1v-.049c.122-.009.215-.048.215-.1s-.092-.087-.214-.1V212.7c.121-.009.213-.048.213-.1s-.091-.087-.212-.1v-.049c.121-.009.211-.048.211-.1s-.09-.087-.209-.1v-.05c.119-.009.209-.048.209-.1s-.089-.086-.208-.1v-.05c.118-.01.207-.049.207-.1s-.088-.086-.206-.1v-.051c.117-.01.2-.049.2-.1s-.085-.084-.2-.095l.033-.67,8.523,2.881.021.474-.461.159.061.466.262-.081.057.176-.165.762-.127.5h0a.033.033,0,0,0,0,.015s0,.006,0,.009,0,.006,0,.009l0,.006-.406,1.866v0h0l-.513,21.281a.048.048,0,0,0-.018.028.042.042,0,0,0,.007.035l.01.015-.631,26.18v.007s0,.006,0,.009v0l1.166,4.342a.06.06,0,0,0,.059.044h.5a.06.06,0,0,0,.057-.042l1.347-4.241v0a.033.033,0,0,0,0-.009v-.006l.463-24.924h0v0l.421-22.691v-.01l-.543-3.712.215-.064,7.752,2.621v.407c-.136,0-.242.046-.242.1s.107.093.242.1v.047c-.136,0-.242.046-.242.1s.107.093.242.1v.047c-.136,0-.242.046-.242.1s.107.093.242.1v.047c-.136,0-.242.046-.242.1s.107.092.242.1v.047c-.136,0-.242.046-.242.1s.107.093.242.1v.047c-.136,0-.242.045-.242.1s.107.093.242.1v.047c-.136,0-.242.046-.242.1s.107.093.242.1v.047c-.136,0-.242.046-.242.1s.107.093.242.1v.048c-.136,0-.242.045-.242.1s.107.093.242.1v.047c-.136,0-.242.046-.242.1s.107.093.242.1v.047c-.136,0-.242.046-.242.1s.107.093.242.1v.047c-.136,0-.242.046-.242.1s.107.093.242.1v.047c-.136,0-.242.046-.242.1s.107.093.242.1v.047c-.136,0-.242.046-.242.1s.107.093.242.1v.047c-.136,0-.242.046-.242.1s.107.093.242.1v.047c-.136,0-.242.046-.242.1s.107.093.242.1v.047c-.136,0-.242.046-.242.1s.107.093.242.1v.047c-.136,0-.242.046-.242.1s.107.093.242.1v.047c-.136,0-.242.046-.242.1s.107.093.242.1v.047c-.136,0-.242.046-.242.1s.107.093.242.1v.047c-.136,0-.242.046-.242.1s.107.093.242.1v.047c-.136,0-.242.046-.242.1s.107.093.242.1v.047c-.136,0-.242.046-.242.1s.107.093.242.1v.047c-.136,0-.242.046-.242.1s.107.093.242.1v.047c-.136,0-.242.045-.242.1s.107.093.242.1v.047c-.136,0-.242.046-.242.1s.107.093.242.1v.047c-.136,0-.242.046-.242.1s.107.093.242.1v.885a.06.06,0,1,0,.121,0v-.891c.1-.015.166-.05.166-.091s-.069-.076-.166-.091v-.06c.1-.014.166-.049.166-.091s-.069-.076-.166-.091v-.06c.1-.015.166-.049.166-.091s-.069-.076-.166-.091v-.059c.1-.015.166-.05.166-.091s-.069-.076-.166-.091v-.059c.1-.015.166-.05.166-.091s-.069-.076-.166-.091v-.06c.1-.014.166-.049.166-.091s-.069-.076-.166-.091v-.06c.1-.015.166-.05.166-.091s-.069-.076-.166-.091v-.06c.1-.015.166-.05.166-.091s-.069-.076-.166-.091v-.059c.1-.015.166-.05.166-.091s-.069-.076-.166-.091v-.06c.1-.014.166-.05.166-.091s-.069-.077-.166-.091v-.06c.1-.014.166-.05.166-.091s-.069-.077-.166-.091v-.06c.1-.015.166-.05.166-.091s-.069-.076-.166-.091v-.06c.1-.015.166-.05.166-.091s-.069-.076-.166-.091v-.06c.1-.015.166-.05.166-.091s-.069-.076-.166-.091v-.059c.1-.015.166-.05.166-.091s-.069-.077-.166-.091v-.06c.1-.014.166-.05.166-.091s-.069-.077-.166-.091v-.06c.1-.014.166-.05.166-.091s-.069-.076-.166-.091v-.06c.1-.015.166-.05.166-.091s-.069-.076-.166-.091v-.06c.1-.014.166-.049.166-.091s-.069-.076-.166-.091v-.06c.1-.015.166-.05.166-.091s-.069-.076-.166-.091v-.059c.1-.015.166-.05.166-.091s-.069-.076-.166-.091v-.06c.1-.014.166-.049.166-.091s-.069-.076-.166-.091v-.06c.1-.015.166-.05.166-.091s-.069-.076-.166-.091v-.059c.1-.015.166-.05.166-.091s-.069-.077-.166-.091v-.059c.1-.015.166-.05.166-.091s-.069-.076-.166-.091v-.06c.1-.015.166-.05.166-.091s-.069-.076-.166-.091v-.059c.1-.015.166-.05.166-.091s-.069-.076-.166-.091v-.372l7.121,2.408.036.521-.469.135h.094v.289l-.051.1h.168l.151-.05v.11h.08l.025,0-.125,3.319h0l.122,1.113a.036.036,0,0,0,0,.006v0l4.742,43.1a.034.034,0,0,0,0,.009s0,.009,0,.014l0,0v0l1.624,2.532a.062.062,0,0,0,.051.028h.382a.06.06,0,0,0,.059-.046l.647-2.754s0,0,0,0a.047.047,0,0,0,0-.015h0l-2.582-22.769h0l-2.429-21.425v-.007l-.015-.128-.9-3.424.162-.062,5.53,1.869a.056.056,0,0,0,.019,0l.016,0,.029-.008a.067.067,0,0,0,.032.01l.017,0,.5-.142.027.723c-.135.01-.24.055-.237.106s.109.089.244.088l0,.047c-.135.01-.238.055-.237.107s.11.088.244.087l0,.047c-.134.01-.238.056-.236.107s.109.088.243.088v.047c-.134.01-.237.056-.235.107s.109.088.243.087v.047c-.133.01-.237.055-.234.107s.108.088.241.088l0,.047c-.133.01-.237.056-.234.107s.108.088.241.087v.047c-.133.01-.235.056-.233.107s.107.087.24.087l0,.048c-.133.01-.235.056-.233.106s.107.087.24.087l0,.047c-.133.01-.234.056-.232.106s.107.088.24.088l0,.047c-.132.01-.233.056-.231.106s.107.088.239.088v.047c-.131.011-.232.056-.23.107s.106.086.238.087v.048c-.132.011-.232.056-.23.106s.106.087.237.087l0,.048c-.131.011-.231.056-.23.106s.106.087.237.087l0,.048c-.13.01-.231.056-.229.106s.105.086.236.087l0,.048c-.13.011-.23.056-.228.106s.105.086.236.087l0,.048c-.13.011-.23.056-.227.106s.1.086.234.088l0,.048c-.13.011-.229.056-.227.105s.1.086.234.088v.047c-.129.012-.228.056-.226.106s.1.086.233.088l0,.048c-.129.011-.228.056-.225.106s.1.086.233.087l0,.048c-.129.011-.227.056-.225.105s.1.086.232.088v.048c-.129.012-.226.056-.224.105s.1.086.232.088l0,.048c-.129.011-.226.056-.224.105s.1.086.231.088l0,.048c-.128.012-.225.056-.224.105s.1.086.231.088v.048c-.127.012-.224.056-.222.105s.1.086.23.088l0,.048c-.127.012-.224.056-.222.105s.1.086.229.088v.048c-.127.012-.223.056-.221.105s.1.086.228.088l0,.048c-.126.012-.222.056-.22.105s.1.085.228.088l.019.522a.061.061,0,0,0,.06.058h0a.061.061,0,0,0,.058-.062l-.019-.526c.105-.017.181-.056.18-.1s-.081-.077-.187-.086l0-.056c.105-.017.181-.057.179-.1s-.08-.077-.186-.086l0-.056c.105-.017.18-.057.179-.1s-.08-.076-.186-.085l0-.056c.1-.017.18-.056.178-.1s-.08-.076-.185-.085l0-.056c.1-.017.179-.057.177-.1s-.079-.076-.184-.085l0-.056c.1-.017.178-.057.177-.1s-.079-.076-.184-.085l0-.056c.1-.017.178-.056.176-.1s-.079-.076-.183-.085l0-.056c.1-.018.177-.057.176-.1s-.078-.076-.182-.085l0-.057c.1-.017.176-.056.175-.1s-.078-.076-.182-.085l0-.057c.1-.017.176-.056.174-.1s-.078-.076-.181-.085l0-.057c.1-.018.175-.056.174-.1s-.078-.075-.181-.085l0-.057c.1-.018.174-.056.173-.1s-.077-.075-.18-.085l0-.057c.1-.017.174-.056.172-.1s-.076-.075-.179-.084l0-.058c.1-.018.173-.056.171-.1s-.076-.075-.178-.085l0-.058c.1-.018.172-.057.171-.1s-.076-.075-.178-.085l0-.058c.1-.018.172-.057.17-.1s-.076-.075-.177-.085l0-.058c.1-.018.171-.056.17-.1s-.075-.075-.176-.085l0-.058c.1-.018.17-.056.168-.1s-.075-.075-.176-.085l0-.058c.1-.018.17-.057.168-.1s-.075-.075-.175-.085l0-.058c.1-.018.17-.056.168-.1s-.075-.075-.175-.084l0-.059c.1-.018.169-.056.167-.1s-.074-.075-.174-.085l0-.058c.1-.018.168-.056.166-.1s-.073-.075-.173-.085l0-.059c.1-.018.168-.056.166-.1s-.073-.075-.173-.085l0-.059c.1-.018.167-.056.165-.1s-.073-.074-.172-.085l0-.059c.1-.018.166-.056.164-.1s-.073-.074-.171-.084l0-.059c.1-.018.165-.056.164-.1s-.072-.074-.17-.084l0-.06c.1-.018.165-.056.163-.1s-.072-.074-.17-.085l-.028-.758.789-.226a.058.058,0,0,0,.029-.02s0-.006,0-.01a.052.052,0,0,0,.009-.019Zm-2.4.044-.133-.307.391.269-.177.065Zm-4.567.166-.432-.428v-.015l.211-.392Zm.173.657-.361-.093.26-.29Zm.315,1.2-.573-.561.307-.445Zm.569,4.978-.481-.582.359-.493Zm.263,2.325-.446-.459.344-.441Zm.153,1.344-.746-.394.623-.686Zm.133,1.177-.468-.5.36-.459Zm.154,1.352-.72-.412.6-.671Zm.136,1.2-.478-.505.368-.467Zm.153,1.351-.7-.408.579-.671Zm.138,1.22-.49-.511.378-.484Zm.151,1.33-.711-.405.59-.659Zm.147,1.3-.543-.6.421-.483Zm.141,1.248-.685-.424.559-.68Zm.143,1.261-.525-.545.407-.491Zm.157,1.387-.723-.488.6-.636Zm.29,2.557-.7-.5.562-.7Zm.14,1.24-.515-.544.4-.464Zm.154,1.356-.662-.436.539-.645Zm.137,1.215-.523-.51.411-.479Zm.163,1.437-.684-.472.552-.7Zm.141,1.244-.506-.512.392-.5Zm.158,1.391-.7-.419.569-.7Zm.145,1.278-.539-.544.42-.51Zm.168,1.485-.7-.5.563-.71Zm.134,1.177-.5-.486.39-.458Zm.173,1.524-.695-.484.553-.765Zm.136,1.2-.52-.489.41-.484Zm.171,1.509-.718-.5.578-.742Zm.146,1.29-.518-.543.4-.509Zm.169,1.486-.689-.457.552-.747Zm.152,1.345-.591-.6.464-.526Zm-.383,1.835-.138-.216.268-.334Zm-1.249-.111.032.02-.009.017Zm-1.18-4.057.614.634-.481.571Zm-.149-1.358.555.45-.437.623Zm-.154-1.4.606.622-.474.579Zm-.146-1.328.543.418-.428.622Zm-.159-1.445.586.6-.454.592Zm-.136-1.233.515.366-.411.581Zm-.152-1.379.567.569-.442.572Zm-.149-1.359.614.44-.5.644Zm-.154-1.4.559.635-.43.53Zm-.138-1.254.56.4-.453.571Zm-.148-1.345.531.553-.409.548Zm-.145-1.317.553.428-.44.605Zm-.148-1.342.543.559-.423.537Zm-.133-1.214.541.365-.438.572Zm-.151-1.373.539.581-.414.553Zm-.142-1.29.628.411-.516.606Zm-.288-2.62.668.421-.546.692Zm-.137-1.246.467.518-.357.49Zm-.152-1.377.68.417-.559.68Zm-.129-1.171.463.5-.359.445Zm-.148-1.344.664.439-.546.633Zm-.13-1.185.452.5-.347.449Zm-.147-1.341.675.414-.558.65Zm-.13-1.179.447.5-.343.451Zm-.145-1.321.671.4-.556.649Zm-.131-1.193.458.51-.352.456Zm-.148-1.35.686.437-.569.639Zm-.123-1.12.418.467-.321.42Zm-.277-2.516.424.5-.322.428Zm-.214-4.2.13.163-.141.134Zm.036-.955.291.532-.318.189Zm-7.7-4.483.923-.03.082.37Zm-.61-.206-.273-.336.5-.024.02.224-.239.137Zm-6.94-.685-.415-.462h0l.3-.333Zm.311,2.122-.41-.491.276-.425Zm-.02,2.613-.354-.516.373-.477Zm-.1,5.268-.4-.555.42-.512Zm-.049,2.624-.395-.539.414-.488Zm-.05,2.7-.412-.559.432-.525Zm-.05,2.668-.4-.55.423-.492Zm-.051,2.772-.42-.583.441-.529Zm-.155,8.3-.392-.525.41-.477Zm-.053,2.879-.439-.59.46-.544Zm-.053,2.852-.421-.553.441-.524Zm-.055,2.955-.449-.586.47-.565Zm-.054,2.891-.421-.566.441-.535Zm-.056,3.013c-.149-.179-.314-.381-.478-.584l.5-.618Zm-.056,3-.462-.573.483-.57Zm-.594,4.936-.516-1.013,1.013-.553Zm-.105.332-.038-.058.067-.035Zm-.035.111-.773.626.01-.407a.024.024,0,0,0,.01,0l.669-.344.083.128Zm-1.854-.857.484.491-.272.3Zm-.34-1.269.626.581-.361.406Zm.044-3.013.554.679-.588.692Zm.073-3.028.506.639-.536.626Zm.071-2.959.517.629-.547.615Zm.071-2.963.486.618-.514.587Zm.07-2.9.489.6-.518.619Zm.071-2.949.48.63-.509.561Zm.067-2.805.462.6-.49.559Zm.2-8.307.414.536-.439.5Zm.066-2.743.407.534-.432.515Zm.065-2.7.376.5-.4.471Zm.064-2.681.376.512-.4.473Zm.063-2.641.378.5-.4.472Zm.064-2.665.383.522-.407.5Zm.063-2.607.363.5-.387.476Zm.3-3.742.766.455.1.17-1.077.354Zm-8.443-6.418.626.015.157.25Zm3.442-.61.043.573-.295-.007-.783-.27.947-.3Zm2.32.095.02.534-1.248-.03-.142-.1,1.114-.418Zm2.291.093v.5l-1.325-.032,1.15-.47Zm.287-1.452.587.177-.4.573Zm-.269-1.1.853-.271-.636,1.16Zm-.191-.787.376.115-.229.489Zm-.264-1.083.546-.213-.361.971Zm5.309,5.319h-.051l-1.5-.536.946-.369Zm3.155,1.276.325.4-.313.006-.066-.376.05-.029Zm9.118.9.006.013-.03.016Zm2.251-.671-.255-.273.114-.3.2.077Zm-.174,1.461-.554-.368.621-.2Zm-.165,1.384-.87-.282-.01-.013.948-.276Zm6.41,6.172-.776-.057-.156-.108.742-.275.2.437Zm-1.071-.113.057.039-.136-.01Zm-3.074-1.092.61.023.032.065-.642.056Zm2.735,47.9.224.149-.2.162Zm-.01-.114-.011-.124.9-.152-.584.478Zm-.755-3.163.112.091-.089.114Zm.052,1.541v.007l-.4.6-.619-.5.527-.625Zm-.437-.582.328-.389.093.825Zm.453.727.1.88-.448-.36Zm.113,1.008.01.092-.968.161.446-.664Zm.276.271h-.479l.291-.041a.059.059,0,0,0,.047-.039l.125-.021h.61Zm-.262.121-.142.459-.711-.459Zm.053.133.136.538-.253-.162Zm.378-.161v.02l-.025-.016Zm-.029-.315-.01-.092.456-.517.6.609Zm-.024-.214-.109-.98.514.52Zm-.125-1.124h0l.349-.472.747.5-.506.574Zm-.015-.135-.07-.626.358.237Zm.032,1.382-.079.09-.086-.071-.25-2.23,0,0,.179.119Zm-.354-2.283.088-.1.019.176Zm.057-.351-.182-.146-.248-2.215.022-.028.157.11.253,2.275Zm-.263-2.4-.086-.06.07-.086Zm-.161-.113-.017-.012.129-.152.014.011Zm-.037-.128-.019-.165.1.073Zm.034,1.388v0l-.4.575-.59-.477.5-.61Zm-.438-.578.328-.4.094.832Zm.453.716.1.859-.445-.361Zm.387-.229.591.618-.457.584Zm-.017-.149h0l.324-.416.781.545-.442.566Zm-.015-.13-.063-.566.327.228Zm-.076-.687-.057-.512.5-.587.593.558-.636.817Zm-.071-.636-.117-1.054.562.529Zm-.132-1.192.336-.467.754.527-.455.538Zm-.016-.134-.07-.625.348.241Zm.041,1.454-.015.018-.168-.129-.245-2.19.186.131Zm-1.188-10.668.034.3-.172-.118L181,251.6Zm-.171.061-.014-.129.075.058Zm.022,1.277-.478-.5.367-.493Zm.016.148h0l-.38.478-.624-.442.454-.61Zm.014.129.076.683-.4-.279Zm-.027-1.325.192.133.234,2.1-.192-.135Zm.433,2.352-.149.184-.035-.315Zm.02.122.033.295-.18-.108Zm-.152,1.295-.468-.532.359-.443Zm.018.157v0l-.34.443-.677-.483.472-.582Zm.015.134.069.616-.349-.25Zm-.023-1.291.188.114.225,2.022-.19-.136Zm.464,2.6-.124-.09.1-.129Zm-.095-.38-.107.129-.025-.224Zm-.087,1.389-.446-.448.346-.448Zm-.023.106-.393.557-.574-.409.487-.629Zm.045.093.095.842-.458-.326Zm-.016-1.223.189.136.24,2.155-.187-.133Zm.388,2.372-.108.126-.025-.221Zm-.1,1.3-.438-.451.338-.442Zm.016.146v0l-.407.59-.6-.465.5-.654Zm.016.142.1.852-.445-.344Zm-.01-1.341.134-.176.032.293Zm.1-1.543.584.572-.461.542Zm-.016-.141.33-.415.764.549-.435.51Zm-.014-.126-.065-.583.336.241Zm-.078-.7-.06-.536.475-.576.613.618-.622.784Zm-.074-.661-.119-1.065.543.548Zm-.134-1.209.32-.393.758.455-.462.561Zm-.015-.126-.057-.5.313.188Zm-.069-.616-.056-.507.494-.628.578.585-.633.781Zm-.07-.636-.127-1.141.572.577Zm-.143-1.286.332-.419.747.515-.436.554Zm-.014-.127-.064-.576.336.232Zm-.077-.695-.058-.518.477-.556.6.582-.611.771Zm-.072-.641-.114-1.022.54.526Zm-.128-1.163.343-.411.724.479-.455.529Zm-.015-.123-.063-.567.345.228Zm.036,1.41-.038.046-.148-.115-.238-2.121.194.128Zm-1.424-10.006,0,0,.125,1.117-.528-.586.391-.538Zm-1.611-19.907-.025.571-.551-.141Zm-.6.335.341-.651.251.209Zm.519,1.527-.114-.017a.068.068,0,0,0-.029,0l-.082.029-.36-1.376.638.163Zm.251,2.326-.208-.119-.174-1.552.209.111Zm.277,2.487-.207-.121-.175-1.562.207.11Zm.284,2.553-.206-.131-.173-1.546.2.1Zm.276,2.478-.2-.119-.182-1.625.2.108Zm.282,2.538-.2-.124-.19-1.694.2.116Zm.289,2.6-.2-.133-.2-1.748.2.117Zm-.136.458-.006-.05.164-.2,0,.045Zm.178-.079.034.306-.189-.108Zm-.2-.1-.034-.3.178.118Zm-.245-2.269.157-.2.035.31Zm-.022-.117,0-.047.164-.213.006.051Zm-.019-.176-.037-.324.195.119Zm-.241-2.238.158-.2.035.312Zm-.022-.118-.006-.048.165-.218.006.054Zm-.02-.179-.036-.324.2.115Zm-.232-2.163.158-.2.034.3Zm-.023-.117-.008-.065.167-.217.008.067Zm-.022-.194-.037-.336.2.127Zm-.225-2.1.159-.218.035.314Zm-.023-.121-.023-.2.169-.221.022.194Zm-.037-.333-.037-.328.2.116Zm-.206-2.094.144-.191.032.285Zm-.04-.1-.018-.161.169-.225.018.161Zm-.033-.291-.037-.331.2.114Zm-.4-2.479.006.02,0,.028-.179.257-.537-.06Zm.023.184.016.145-.108-.012Zm.3.279.042-.011,0,.037Zm-.06-.108-.07-.008.139-.2.02.184Zm.172-.359.014-.021.779.117-.76.207Zm-.119.013-.169.245-.024-.218.069-.1.118.018Zm-.5-.7-.423-.532.227-.217Zm-.246-.94.024.091-.257.245-.183-.23.358-.213Zm.3,1.155-.015.01-.72-.512.191-.183Zm.044.162.053.2-.886.305v-.031l.772-.519Zm-.166.736-.234.335-.367-.4Zm.1.012.2.023.113,1.013-.587-.644Zm.37,1.535-.158-.091.133-.141Zm.012.111.061.543-.458.608-.5-.586.66-.7Zm.076.674.133,1.191-.546-.644Zm.152,1.352v0l-.191.209-.79-.462.361-.479Zm.013.121.025.224-.15-.088Zm.038.336.061.542-.466.61-.49-.547.671-.735Zm.075.671.13,1.16-.549-.612Zm.148,1.315-.231.259-.753-.479.362-.474Zm.013.121.035.316-.2-.128Zm.048.431.062.556-.44.57-.531-.591.632-.71Zm.077.685.121,1.08-.513-.571Zm.138,1.235h0l-.244.287-.735-.432.392-.508Zm.014.124.038.337-.217-.127Zm.05.45.06.538-.452.594-.52-.576.622-.726Zm.075.668.125,1.12-.53-.587Zm.143,1.274h0l-.248.288-.739-.453.384-.5Zm.014.124.039.351-.222-.137Zm.052.465.06.54-.454.589-.524-.585.622-.725Zm.075.67.125,1.12-.532-.593Zm.143,1.275h0l-.265.308-.729-.481.388-.5Zm.013.123.045.4-.247-.163Zm.058.516.058.514-.45.558-.536-.579.608-.705Zm.072.641.118,1.06-.521-.562Zm.135,1.211v0l-.253.307-.741-.454.4-.5Zm.015.127.041.371-.231-.142Zm-.013-1.194.2.113.184,1.654-.2-.121Zm.389,1.877-.155.213-.037-.331Zm.034.245.04.356-.2-.122,0-.046Zm-.133,1.537v0l-.268.34-.732-.461.4-.547Zm.015.132.047.42-.252-.16Zm-.027-1.322.2.123.2,1.824-.2-.124Zm.881,3.657-.165.03-.024-.22h0Zm-.042-.172.582.071-.433.081Zm-.325,1.11.186.121-.154.17Zm.209.249.026.233-.131-.092Zm-.222-.366-.072-.639.1.006h.015l.072-.013.086.776Zm-.275-.773-.607-.038.461-.119Zm-.047-.182.091-.024.015.136Zm.345.2-.109-.006-.028-.249.1-.025.083.01.028.257Zm.03-.393-.066-.008a.046.046,0,0,0-.022,0l-.092.024-.088-.783.2.133Zm-.273-.878.155-.187.035.314Zm.126-.393-.154.207-.037-.326Zm-.15,1.318-.171.045-.324-.347.4-.537Zm-.271.071-.623.16.343-.46Zm.279.38-.271.319-.565-.37Zm.051.08.054.484-.3-.2Zm.067.6.062.555-.4.537-.611-.658.578-.678Zm.076.686.109.973-.463-.5Zm.1,1.095-.361.471-.6-.407.458-.611Zm.036.1.077.69-.4-.269Zm-.028-1.333.2.139.234,2.1-.194-.131Zm.386,2.321-.111.129-.025-.221Zm-.1,1.324-.456-.47.353-.449Zm.016.147v0l-.382.526-.616-.477.468-.6Zm.015.136.086.765-.41-.319Zm-.012-1.357.14-.179.033.294Zm.112-1.524.556.589-.434.5Zm-.016-.15.313-.388.761.543-.442.515Zm-.014-.127-.06-.537.314.224Zm-.073-.657-.051-.464.52-.577.537.544-.622.769Zm-.065-.584-.087-.78.254-.047.3.307Zm.275-.848.589-.11-.333.37Zm-.388-.392-.026-.026.284-.3.65.438Zm-.041-.142-.047-.42.27.182Zm-.06-.538-.06-.531.464-.559.6.622-.657.7Zm-.073-.656-.117-1.052.532.552Zm-.133-1.2.309-.374.746.463-.449.541Zm-.015-.124-.054-.484.3.185Zm-.066-.6-.063-.559.45-.518.554.612-.572.695Zm-.076-.682-.115-1.036.518.572Zm-.131-1.188.279-.311.773.442-.458.525Zm-.015-.12-.042-.382.255.145Zm-.055-.493-.057-.516.48-.614.562.586-.656.732Zm-.072-.644-.126-1.132.557.58Zm-.141-1.28.282-.326.766.445-.419.537Zm-.015-.121-.045-.4.262.152Zm-.057-.515-.058-.519.486-.617.551.583-.645.748Zm-.072-.648-.129-1.152.565.6Zm-.143-1.3.262-.294.784.449-.408.519Zm-.015-.12-.04-.355.236.134Zm-.052-.467-.058-.521.488-.623.542.576-.663.745Zm-.072-.649-.13-1.167.57.606Zm-.145-1.315.231-.255.81.428-.4.509Zm-.015-.119-.032-.283.2.1Zm-.044-.392-.056-.508.5-.642.517.532-.69.762Zm-.071-.637-.131-1.178.582.6Zm-.145-1.322.213-.229.822.408-.383.492Zm-.016-.116-.027-.239.171.085Zm-.038-.346-.058-.522.474-.652.487.589-.656.707Zm-.073-.655-.143-1.284.573.693Zm-.161-1.447.207-.207.834.443-.4.545Zm-.013-.114-.025-.222.161.086Zm-.037-.331-.055-.492.488-.648.52.554-.713.713Zm-.069-.623-.133-1.193.573.61Zm-.089-1.278.954.13-.37.492Zm.009-.09-.031,0,.216-.209.6.32Zm-.081-.081-.033-.291.215.115Zm-.044-.4-.016-.137.858-.234-.547.528Zm.028-.693.289-.418.556.545Zm-.1-.015h0l.034-.753.293.287Zm.037-.873.231-.257.435.111-.328.476Zm0-.14.008-.173.121.031Zm.012-.266.035-.8.481.477-.332.368Zm-.085-.811-.226-.189.256-.489Zm.039-.892-.336.644-.572-.477v-.186l.67-.28.242.226Zm-2.4-1.869.384,0,.27.344-.709.014Zm-9.833-3.021-.082.051-.308-.4.312-.01Zm-2.985-1.5-.018-.34a.045.045,0,0,0-.045-.043h-.1l0-.038,1.029.355-.045.026Zm.65.059-.628.366-.017-.335Zm-2.077,29.547-.866-.735.891-.588Zm-3.273,20.707.707.628-.69.594-.047.006Zm2.273-46.764.063.037-.035.011Zm-.379,23.721,0,.1-.048-.072Zm-.4,24.23.21.04-.218.243Zm.832-47.779.034-.016.038-.013-.019.9-.562-.248Zm.05,1-.022,1.037-.8-1.09.188-.229Zm-.028,1.279-.008-.005.008,0Zm-.005.243-.045,2.076-.773-1.069Zm-.051,2.4-.075-.047.076-.038Zm-.049,2.271-.761-1.038.8-.993Zm-.009.411-.14-.089.144-.081Zm-.047,2.217-.772-1.022.815-.959Zm-.009.42-.148-.1.152-.086Zm-.049,2.272-.78-1.06.824-.974Zm-.008.4-.124-.083.127-.07Zm-.048,2.262-.787-1.048.83-.977Zm-.01.476-.18-.129.185-.107Zm-.047,2.206-.764-1,.806-.96Zm-.012.582-.249-.179.256-.158Zm-.046,2.148-.763-.987.8-.922Zm-.069,3.23,0,.141-.3-.2.179-.117Zm-.111-.328.037.01-.021.013Zm.062,2.619-.764-.981.805-.927Zm-.016.764-.349-.289.36-.233Zm-.044,2.055-.737-.957.776-.886Zm-.017.8-.382-.306.394-.25Zm-.043,2.035-.725-.951.763-.842Zm-.017.8-.359-.287.371-.263Zm-.044,2.058-.726-.894.765-.913Zm-.019.9-.427-.329.441-.325Zm-.044,2.068-.736-.94.775-.884Zm-.02.942-.428-.37.443-.323Zm-.042,1.957-.712-.867.749-.842Zm-.021.957-.447-.355.462-.355Zm-.044,2.069-.731-.923.77-.9Zm-.022,1.028-.468-.409.485-.37Zm-.042,1.96-.691-.846.727-.857Zm-.025,1.164-.041,0-.492-.437.552-.475Zm-.161.019-1.039.123.6-.515Zm.092.111-.255.287-.775-.166Zm.064.063-.007.29-.21-.045Zm.177.282.26-.289.75.141Zm-.051-.471.01-.5.018-.845.721.905-.449.5Zm.05-2.318.405.35-.42.361ZM159.68,261l.752.932-.792.935Zm.019-.867.373.3-.386.31Zm.047-2.166a12,12,0,0,0,.726.96l-.767.949Zm.017-.794.31.232c-.131.1-.243.184-.32.246Zm.05-2.29.776,1.045-.82,1Zm.014-.675.35.279-.362.269Zm.046-2.156.74.967-.781.937Zm.016-.755.323.253-.334.249Zm.048-2.2.759,1-.8.953Zm.015-.721.313.254-.323.219ZM160,246.22l.733.985-.774.917Zm.013-.641.271.2-.28.191Zm.048-2.222.771,1.033-.814.945Zm.014-.664.271.231-.28.183Zm.03-1.4.437-.121.285.4-.747.91Zm0-.126.013-.583.347.484Zm.084-.639,1.066.319-.7.194Zm0-.127.279-.176.692.467Zm-.064-.067.007-.334.254.171Zm.054-2.523.747,1.014-.788.934Zm.013-.608.258.2-.266.162Zm.046-2.163.72,1-.761.915Zm.013-.6.256.19-.264.162Zm.046-2.132.728.992-.769.9Zm.011-.522.215.154-.221.127Zm.046-2.131.713.969-.754.915Zm.012-.568.243.171-.25.153Zm.046-2.13.722.987-.762.9Zm.01-.495.2.139-.206.116Zm.046-2.142.709.984-.75.914Zm.01-.468.188.123-.193.1Zm.048-2.219.726,1.061-.769.916Zm.006-.3.044.028-.045.023Zm.05-2.337.741,1.081-.786,1.008Zm.034-1.233.407.145-.432.666.016-.767Zm-.218-1.53.115-.093-.1.223Zm-.133.107.039.075.173,1.165-.208-.123-.437-.768Zm.191.28.25.07-.137.694Zm-.637,1.75-.509-.224.949-.312Zm-.079.1-.157.191-.285-.387Zm-.216.264-.347.423.021-.866Zm.055.075.851,1.154-.089.043-1.132-.744Zm.85,1.363-.87,1.07-.409-.566,1.185-.567Zm-.052,2.355-.161.082-1.1-.68.437-.537Zm-.005.284-.856,1.058-.429-.585,1.125-.57Zm-.05,2.311-.226.126-1.042-.665.458-.566Zm-.009.372-.866,1.02-.426-.564,1.071-.6Zm-.048,2.252-.232.131-1.043-.686.453-.532Zm-.008.386-.875,1.034-.426-.578,1.073-.605Zm-.047,2.311-.21.116-1.073-.713.451-.533Zm-.01.357-.882,1.038-.426-.567,1.1-.607Zm-.05,2.3-.262.151-1.028-.734.452-.533Zm-.008.443-.86,1.024-.455-.6,1.057-.611Zm-.047,2.241-.333.2-.968-.7.486-.578Zm-.014.548-.856.982-.465-.6,1-.614Zm-.045,2.18-.3.187-1.007-.68.492-.562Zm0,.106-.006.281-.214-.144ZM160,240.377l-.613.177-.228-.342.867-1.08Zm0,.127-.014.669-.223-.063-.3-.451Zm-.372.568-.813-.228.553-.159Zm.1.155.075.111-.209.137-.711-.486Zm-1.079-.288.862.589-.89.584Zm.943.645.372.254-.862.992-.478-.613Zm.323,2.436-.429.278-.895-.741.508-.584Zm-.031.725-.813.929-.513-.666.921-.6Zm-.029,2.094-.464.295-.869-.7.544-.622Zm-.016.769-.816.9-.532-.7.894-.566Zm-.043,2.066-.442.313-.9-.716.562-.62Zm-.016.769-.822.982-.539-.663.931-.662Zm-.045,2.081-.513.377-.839-.648.575-.686Zm-.019.873-.83.946-.538-.687.872-.642Zm-.045,2.1-.51.374-.849-.733.57-.65Zm-.019.917-.806.907-.569-.692.878-.642Zm-.042,1.978-.534.409-.835-.663.6-.679Zm-.02.933-.826.963-.558-.7.87-.667Zm-.044,2.1-.553.423-.825-.721.594-.692Zm-.021,1.008-.786.927-.606-.743.855-.652Zm-.043,1.98-.62.535-.77-.685.646-.761Zm-.436,1.548-.28.315-.525-.487Zm.1.022.3.064-.022.839-.592-.548Zm.249,1.914-.368-.376.389-.426Zm.151-1.125.594.913-.627.323Zm.009-.152.264-.144.553,1.089-.151.079Zm0-.1.013-.471.032,0,.18.354Zm.14-.49,1.034-.151-.869.475Zm.629-.445-.335-.064.4-.448.493.617Zm-.706-1.628.489-.419.866.749-.578.646Zm.021-.945.85-1,.517.641-.9.768Zm.047-2.144.456-.368.888.727-.54.638Zm.018-.843L160.53,259c.15.185.326.4.531.643l-.917.737Zm.044-2.208v-.043c.057-.05.206-.165.4-.308l.94.705-.556.688A11.416,11.416,0,0,1,159.749,257.812Zm.4-.464-.378-.284.875-1.061.473.636C160.94,256.767,160.5,257.086,160.147,257.348Zm-.269-2.527.372-.277.892.711-.495.6Zm-.046-.725.837-1,.5.655-.919.683Zm.046-2.185.408-.3.91.709-.525.63Zm.017-.725.856-1.018.474.624-.938.7Zm.048-2.229.394-.268.913.745-.5.589Zm.014-.7.829-.983.491.661-.936.637Zm.047-2.184.356-.243.943.692-.512.607Zm.015-.605.867-1.008.445.6-.969.663Zm.048-2.259.35-.23.939.8-.464.54Zm.357-.344-.326-.276.782-.952.452.629Zm.21-1.73.7-.192-.447.544Zm-.082-.971.885-.553-.021,1.135Zm-.082-.054-.331-.224.841-1,.453.615Zm-.282-2.448.338-.207.933.728-.474.561Zm.011-.577.814-.978.472.655-.953.583Zm.048-2.2.338-.209.926.686-.493.593Zm.012-.563.821-.958.456.621-.946.583Zm.047-2.165.3-.172.955.68-.474.553Zm.007-.49.808-.98.462.628-.975.563Zm.049-2.164.327-.2.921.649-.484.588Zm.009-.534.817-.962.447.611-.943.577Zm.05-2.163.283-.159.954.666-.465.548Zm.009-.461.8-.977.451.625-.973.547Zm.048-2.177.273-.149.956.626-.471.574Zm.364-.2.894-.486-.02,1.059Zm-.086-.057-.271-.177.82-.977.427.624Zm-.222-2.443.132-.068,1.089.68-.442.527Zm0-.255.839-1.076.4.588-1.11.57Zm.047-2.39v-.024l.037-.058,1.181.7-.422.541Zm.525-.9.619.221-1.048.44Zm.067-.1.171-.264.386.463Zm-.088-.031-.45-.161.147-.744.5.6Zm-.221-.948.09-.1.684.192-.3.469Zm-.06-.068.013-.067.039.011Zm.031-.156.222-1.122.46.512-.591.635Zm-.116-.032-.277-.077.217-.505.208-.169Zm.016-.761.075-.173.071.055Zm-.15.121-.207.167-.133-.9.491.382Zm-.063-2.562-.1-.005.063-.048Zm.086.094h0a.045.045,0,0,0,.037-.071l-.089-.132.323-.245.341.118,0,.52h-1.182l.269-.2Zm-2.989-.639-.178-.182.168.006Zm-.27-.276-.621-.633.837.039.038.6Zm-2.541-.813-.853-.564,1.382.092v.5Zm.529.115v.234l-.381-.252Zm-1.79-.8-.482-.032v-.329l.413.273Zm-2.122-.891.46-.252.967.333-1.416-.065Zm2.356.4-.507-.012-.171-.222Zm-.807-.019-.264-.006.264-.161Zm.091,0v-.119l.093.121Zm.188.125.054.07-.108-.071Zm-.383-.338-.326.2-.9-.022-.152-.241Zm-.517.316-.448.274-.182-.29Zm.167,0,.454.011v.348l-.939-.063Zm1.02.242-.171-.221.787.019,1.179.407v.07l-1.534-.1Zm.983-.857.817.553a.066.066,0,0,0,0,.009l-.774-.019Zm2.319.118.493.493-.476-.012Zm.8,1.612-.054-.866.089.088.768,1.055Zm.443-.37.8.8-.293-.1Zm-.34-.467-.113-.155,1.406.034v1.41Zm-.288-.159.034.033.058.931-.658-.227-.028-.752Zm-2.025-.049.419.427-.427-.147v-.28Zm.177.051.882.6-.448-.154Zm1.19.7-1.094-.741,1.068.026Zm-1.465-.75V211l-.762-.263v-.006Zm.091.546.122.008.377.509-.5-.023Zm.182-.063a.046.046,0,0,0-.033-.018l-.149-.01v-.045l.616.212.459.468-.459-.022Zm.625.205,1.305.45-.9-.042Zm1.422.546.187.009.046.016.39.6-.586-.02Zm.373.073.543.187.278.381-.459-.016Zm.692.239,1.046.361-.8-.028Zm.148-8.224-.046.343-.266-.619.2.036Zm2.828,5.621-.044.03-.024-.051Zm-.038-.106.493-.2-.358.244Zm5.345,3.3.071.41-.959-.336.1-.059Zm-.636-.078.563-.339.057.328Zm9.939.533.072-.038.244.088-.031.053-.008,0h-.234Zm-.056.1h-.129l.1-.057Zm1.017-1.419.138.045-.092.156Zm.754-.758.088.009.2.4-.09.237-.109-.042-.123-.543Zm.356.561.091.186-.14-.055Zm-.288,2.993-.936.272-.008-.01.2-.537.335.124Zm-.593.828-.568.145-.045-.016.206-.545.086.028Zm-.161-.336.652.212-.394.1Zm2.483,3.575-.735-.506.735-.74Zm2.413,1.525-.209-.008-.191-.132.4.14Zm-.433-.017-.768-.029-.215-.445.589.2Zm-.126-.306-.213-.073-.975-.67,1.188-.444Zm-.639-.221-1.014-.349.328-.122Zm-1.124-.4v-.369l.347.239Zm-.09-.014-1.338-.462.516-.52.822.565Zm-.811-1.121-.6-.412,1.311-.306Zm-.086.087-.527.53h-.033l-.217-.075-.007-.891.113-.027Zm-.893,1.091-.027-.073.027.044Zm-11.149-4.523.113-.07.123.151Zm-2.536-.876-.041-.052,1.338-.806,1.3,1.593-.167.1Zm-.219-.076v-.061l.047.06-.018.011Zm-.227-.078.133-.077,0,.124Zm-1.6-2.57-.149-.178h.067Zm1.685.389.009.443-.787-.277.255-.182Zm-.4-.1.393-.281.006.294Zm4.668,2.168.105.129-1.343.828-1.294-1.593.264-.159Zm2.848,1,.1.129-.993.568-.139-1.06Zm3.417,1.2-.224.141-.2-.259,0-.032Zm.946-.133h.136l.009.313H175.4Zm1.3-1.294-.339-.411.193.071Zm-.029-.3.509.189-.178.471-.094-.114Zm.159.594.08.185-1-.353.326-.55Zm.089.284-.205.543-1.123-.4-.016-.028.287-.486Zm1.048,3.624-.28-.42.274-.321Zm-.13-.032-.2-.067-.1-.153.082-.1Zm-.342-.3-.248-.4.05-.113.278.418Zm-.306-.491-.436-.7.061-.047.424.638Zm-1.547-1.684h.354l.114.182-.468-.164Zm.861.584-.006-.076.019-.016.246.369-.058.046Zm.105.4-.074.057-.014-.2Zm.109-.351.183.126-.065.05Zm-.326-.35-.1-.035-.135-.215-.017-.03h.357Zm.236-.28h.958l-1.061.27Zm-.537-.09-.176-.313h.736l-.118.313Zm-.227-.4-.181-.32.9.32Zm-.173,0h-.061l0-.1Zm.056.09.195.313h-.3l-.009-.313Zm.467.748.115.184-.655.528-.026-.911Zm.163.261.009.016.035.505-.731.566-.014-.522Zm-.778,1.04-.2-.255.184-.149Zm-.1.025-.313-.108.142-.114Zm.925-.435.054.772-.727-.25Zm.115-.089.114-.089.473.759-.159.36-.365-.126Zm.342-.265.094-.073.459.316-.156.352Zm.194-.15.814-.631-.405.913Zm-.079-.054-.43-.3,1.207-.307Zm-.339-.768.118-.313h.015l.02-.005.888.318Zm-1.129-.658.007.255h-.115l.069-.318Zm.024.862.028,1.015-.236.19-1.057-1.377.278-.174Zm-1.4-.2-.089.056-.018-.195Zm-.21-.273.035.383-.966.607-.174-.225,1.1-.773ZM173,216.992l-.1.065-.165-.217.1-.069Zm-.257.013-.165-.057.08-.056Zm-.067-.238-1.081-1.429.081-.056,1.1,1.416Zm-1.137-1.5-.206-.273.081-.046h0l.2.263Zm-4.465-.4,1.342-.828.1.128-1.305.874Zm2.826.845-.559-.684.24-.721.39.137.15,1.142Zm.234-.029.05.376-.225-.276Zm-1.141.4.07-.213.354.122-.134.077Zm.118.085-.18.1.032-.1Zm-.009-.413.206-.621.513.627-.264.15Zm-.437-1.57.192-.129.639.224-.222.669-.608-.744Zm-.006-.105,0-.094.1.034Zm1.238-.158.056.392-.334-.117.091-.275Zm-.157-.09.1-.3.043.3Zm-.1,0h-.452l.582-.389Zm-.03.09-.081.245-.552-.194.076-.051Zm-.74.014-.037-.014h.057Zm-.306.152-.074-.091.067-.042Zm.671.964-.224.674-.275-.1-.067-1.272Zm-.262.789-.082.247-.131.007-.018-.333Zm-.113.339-.053.159-.034.019-.009-.173Zm.806-.228.207-.118.217.265Zm.548-.313,1.035-.592.211.279-1.181.81Zm1.356-.628.23.081-.11.075Zm-.3-.082-.022-.029.046.016Zm-2.249-1.1h-.21l.6-.259Zm-.593.094-.019-.023.036.013Zm-2.772-.788-.113-.139.108-.063.216.076Zm-3.135-1.215.2.257-.179.129Zm.066-.063.391.137-.183.131Zm.495.174.91.319.029,1.353-1.171-1.507Zm2.5,1.152-1.336.805-.125-.161,1.347-.785Zm-.093-.258-.058-.071.112.039Zm-.079.046-1.294.755-.029-1.343,1.182.415Zm-2.309-1.063-.487-.171.7.021Zm-1.769-.621v-.077H162l.368.437Zm1.055.5-1.048.8-.006-1.167Zm-1.176-.54-.1-.035h.1Zm.354-.54.35.415h-.584l0-.418Zm-.237-.093v-.189l.161.191Zm.744.509-.348-.413.256,0,.192.41Zm-.135-.5-.29,0-.191-.227.448.16Zm-.626-.41-.047-.109.326-.221.242.516Zm-.1.4h-.061l.061-.126Zm0,.09,0,.42h-.31l.2-.421Zm0,.673.007,1.3-.135.1-.6-.8.353-.733Zm.007,1.414v.174l-.083-.112Zm-.208.044-.119.09-.738-.255.288-.6Zm.054.073.076.1-.146-.05Zm.274-.209,1.092-.83.026.5-1.03.737-.086-.029Zm1.125-.221.054,1.007-.985-.34Zm.087-.063.229-.164,1.206,1.552-.2.118-1.173-.4Zm4.717,2.7,1.3-.873.071,1.355-1.366-.471Zm3.091,1.075,1.156-.794,1.082,1.43-.13.092Zm1.986.813-.092.065-.7.022-.045-.376Zm.105.036.059.021-.092,0Zm.6.031.052.067-.1-.035Zm.078-.048.919-.578.095,1.052-.883-.3Zm1-.632.136-.085,1.064,1.386-.188.151-.908-.313Zm.291,1.331h0l-.046.335-.1,0-.031-.337Zm-.056.426-.046.336-.03-.334Zm.091,0,.318-.007-.355.286Zm.013-.091.041-.3.52.18-.141.114Zm.663-.088.2.07-.3.006Zm1.412.487,0,.057-.521-.006-.247-.315Zm.124.043.047.016h-.047Zm.573-.272.225.362-.038.045-.319-.11Zm.373.6.056.088-.367.007.134-.157Zm.181.063.205.07.021.032,0,.264Zm.339-.992v-.012l.013.01Zm-.12.049-.325.382-.3-.444.173-.389.446.306Zm-.4-.563.386-.868.009,1.139Zm-.54-1.527.48-.122.345.417Zm.351-1.368.452-.135.244.393Zm-.022-.088.191-.5.234.377Zm-.387-1.433.386.621-.622-.224Zm.1,0,.291.124.126.548Zm-.035-.113.2-.331.105.459Zm.429.281.207.088-.116.307Zm.12.66v0l.567.376-.285.085Zm.2-.525.432.183-.569.182Zm.079-.209.272.26-.319-.136Zm.053-.074.152-.055.147.341Zm.013-.1.056-.147.047.109Zm.1-.269.061-.162.258.276-.233.086Zm-.069-.159-.089-.205.148.049Zm.138-.364-.023-.1.053.021Zm-.067.116-.208-.068-.129-.3.279.108Zm-.322-.105-.193-.063.1-.162Zm.048.111.157.364-.211.557-.264-.112-.141-.616.171-.288Zm-.9.7-.412.057.647-.454Zm-.245.415-.185-.067.329-.178Zm-.24.22-.032.021-.009-.021Zm.074.059-.051.088-.019-.042Zm.234-.159.745.269.034.055-.25.661-.59-.219-.166-.383Zm-.178.723-.2-.075.1-.167Zm-.71.543h0l-.59-.208.894-.3Zm-.171.036-.322.083-.139-.246Zm.113.064-.228.385-.161-.284Zm-.281.475-.005.009-.664-.237.471-.122Zm-.123.541h-.35l.4-.254Zm-.02.09-.06.283-.553-.194.14-.089Zm-.722.051-.142-.05h.222Zm-.508-.178.007-.009v.012Zm-.195.1-1.1.773-1.1-1.416.16-.11,2,.7Zm-.785-.44.442-.006.169.22Zm-.249-.088-.01,0-.039-.447.334.005.337.438Zm-.057-.541-.027-.314.036-.025.263.342Zm-.091,0-.382-.006.361-.247Zm.008.091.036.416-.776-.272.22-.152Zm-.845.107-.353-.124.523.008Zm-.954-.335-.186-.236.615-.005.049.409Zm-.16-.056-.5-.176.36,0Zm-.752-.264-.014,0-.061-.426h.279l.336.426Zm-.087-.521-.048-.34.269.34Zm-1.337-.019-.065-.408,1.056-.023Zm-.09.008-.277-.1-.251-.307.462-.01Zm-.44-.154-.675-.237.473-.01Zm-.917-.322-.013,0-.077-.446.37-.007.363.444Zm-1.18-.414-.042-.015h.069Zm-.72-.252-.312-.384.571.012.066.486Zm-.163-.057-.982-.345.714.015Zm-1.04-.436-.009-.4.377.011.329.4Zm-.011-.492-.008-.359.008-.006.3.374Zm-.1-.4-.536.384-.881-.026-.2-.434h1.406Zm-1.663-.167-.2-.435.088-.035,1.313.47Zm-.314-.668-.3-.642.116-.079,1.394.428-.97.378Zm-1.463-2.064.435.155.4.85-.475-.171Zm-.031-.107.206-.293.206.439Zm-.052-.084-.228-.532.217-.248.224.478Zm-.411-.956.342.1-.2.227Zm-1.19-2.463.049.115-.072-.03Zm.129-.006.254.071.109.233-.283-.117Zm.415.424-.113.28-.171-.4Zm.054.107.25.534-.072.443-.3-.687Zm.594,1.266-.347-.129,0-.005.073-.453Zm-.2.517-.469-.143.212-.454Zm-.1-.531.353.131.261.557-.366-.111Zm.513.191.92.343-.612.314Zm.388.828.183.085-.086.122Zm-.011-.105.512-.263-.265.376Zm-.432-.84-.061-.131.6.331Zm-.4-.858.029-.18.7.474-.472.246Zm-.068-.145-.07-.149.085.058Zm-.12-.293.184-.1-.034.2Zm-.053-.075-.175-.373.447.125-.018.106Zm-.226-.481-.176-.376.546.48Zm-.153-.043-.249-.07-.036-.085.047-.353Zm-.378.216.146.06.205.478-.55.215Zm.719,1.393-.606.279.352-.872Zm-.021.109-.216.463-.434-.132.016-.039Zm-.168.573.555.169.045.1-.855.271Zm.761.647-.6.689.5-.92Zm.04.092.222.516-.96.325Zm.18.626-.34.482-.573-.173Zm.1.019.294.683-.64-.192Zm.963,1.082-.286.188-.148-.345Zm.069.063.113.241-.323.219-.107-.25Zm-.265.637-.66-.027.505-.333Zm.015.121-.142.294-1.1-.015.057-.09.34-.224Zm-.185.384-.2.405-.972-.341.051-.079Zm-1.182.187.934.328-.328.681-.6-.8Zm.561,1.1-.313.651-.174-.06-.058-1.326Zm-.373.774-.1.2-.009-.209Zm.767.25-.27.206-.263-.39Zm.567.673,0-.478,1.183.408,0,.07Zm2.759.5.024-.015.453.156.206.269-.617.018-.105-.426A.046.046,0,0,0,164.109,214.176Zm.632.2.581.2-.418.012Zm.823.284.015,0,.1.452-.36.011-.344-.45Zm.2.454-.09-.415.964.333-.1.059Zm.625.072-.538.332-.067-.314Zm.36-.116.038.013-.063,0Zm.513.177.325.4-.38.01-.07-.453Zm.162.056.939.324-.661.017Zm1.182.408.009,0,.034.384-.558.026-.318-.391Zm1.275.619.067.3-.863.028Zm.085-.035.15-.063.277.1.227.284-.58.019Zm.588.088.612.211-.433.014Zm.852.294.01,0,.05.411-.336.01-.324-.405Zm.07.5.048.4-.009.006-.317-.4Zm.091,0,.555-.017-.513.361Zm.72-.022.467-.015.01,0,.059.484h-1.187l-.014-.005Zm.572.022.382.132.247.319h-.573Zm.538.186.76.262v0h-.555Zm.768.355.031.339-.257.005-.267-.344Zm.039.429.026.291-.222-.287Zm.723-.015.657-.014-.058.377-1.036-.012Zm.739.05.25.318-.3,0Zm.437.411.455.005.023.332-.211,0Zm.484.427.015.21-.163-.208Zm.121,0,.085,0-.073.165Zm-.006-.091-.022-.327.3,0-.143.322Zm.363-.3.284.1-.163.191-.252,0Zm.665.369.029.047.2.538-.222.064L177.3,219Zm.831.575h-.186l-.131-.07-.049.014-.044-.07,0-.406h.108l.662.228.252.5-.565-.005Zm.48-.262,1.233.426v.041l-1-.009Zm1.324.457.031.011h-.031Zm.3.1.032.011.233.483-.566-.022v-.475Zm.412.59.437.016-.411.036Zm1.159.044.3.012.035.012.156.36-.55-.378Zm1.25.906-.481-.331,1.207.061Zm.918-.244.008,0,.813.28-.616.167Zm-1.539-.185-.179-.414,1.377.475Zm.587-.277-1.492-.515h1.563Zm-1.687-.605v-1.156l1.64,1.156Zm-1.369-.815-.485-.334v-1.313l1.7,1.194Zm-2.085-1.435-.174-.12-.01-1.348,1.611,1.134Zm-.291-1.711-.361-.436.426-.108Zm.174-1.465-.22-.355.272-.081Zm.17-1.426-.155-.36.207-.076Zm.06-1.534.134-.353h.031l-.066.556Zm-.072-.15-.134-.276.23.023Zm-.433-.117.088.389-.259-.1Zm-.463.546-.122-.04.2-.09Zm-.266.085.057.25-.626.44Zm-.817.992.351-.049-.349.189-.09-.033Zm-.385.468h.306l.03.07-.84.542Zm.372.154.038.089-.173.293-.941.318.01-.012Zm-1.237.9.146.258-.456.118Zm.117.731-.727.01.171-.209Zm.239.087-.008.035-.6.377h-.623l-.009,0,0-.15.2-.246Zm-1.248.075v-.058h.05Zm-.088.107-.124.151-.091-.032-.212-.277.424-.006Zm-.5-.248-.334-.434.8.012.011,0,.01.413Zm-.4-.526-.222-.289.833.3Zm-.509-.363-.508.349-.689-.01-.043-.361,1.228-.01.01,0Zm-1.251-.113-.045-.379,1.037.372Zm-.091,0-.675.006-.335-.425h.948l.012,0Zm-1.081-.509-.3-.382,1.068.382Zm-1.752-.518-.064-.407,1.076.385Zm-.091,0-.52.011-.363-.444.8-.016.012,0Zm-.956-.522-.275-.337.908.325Zm-.593-.413-.727.439-.47.009-.011,0-.071-.518,1.252.027.019.007Zm-1.29-.165-.048-.352,1.044.373Zm-.092,0-.633-.013-.329-.4.891.026.018.007Zm-1.037-.51-.26-.32.95.34Zm-2.592-2.037.654-.444.067-.027.583.873Zm.624-.533-.014.009-.953.391-.437-.932.038.013Zm-1.744-1.257.126-.178.971.447-.828.3Zm.178-.253.314-.446.57.853Zm-.851-1.242.47-.244.535.8Zm-.269-.888.052-.317.032-.019.483.722Zm-.235-.814-.549-.481-.089-.191.032-.236Zm-1.194-.9.019.045-.158.642-.181-.744Zm.079.183.3.687-.049.185-.416-.172v-.006Zm.223.96-.171.648-.195-.8Zm1.29,4.062.712.214-1.124.37Zm.775.3.2.466-.623.411-.135-.005Zm-.6.992-.066.043.029-.045Zm-.251.165-.174.115-.073-.3.357.014Zm-.234.42,0,.061-.046-.062Zm.009.222.063,1.455-.642-.222V210.84l.412.01Zm-.58-.356V210.3l.321.432Zm-1.641-.039h-.023l-.545-.543,1.726.07Zm-2.2-.206-.636-.43,1.61.065Zm-2.036-.194-.965-.333,1.789.073Zm-1.868.013.154.244-.718-.018.426-.232Zm1.591.838v.185l-.682-.231Zm.091.006.556.037.378.487-.933-.315Zm.676.045.031,0,.859.568-.426-.02-.053-.018Zm1.038.667.237.157-.5-.169Zm.648.031.569.026.426.576-1-.336Zm.686.032.482.022.623.635-.6-.02-.048-.016Zm1.2.751.174.177-.565-.191Zm.389.013.641.022.362.554-.988-.334Zm.752.025.466.016.451.62-.48-.023-.048-.016Zm.986.731.066.091-.3-.1Zm.116.005.126.006-.048.1Zm-.069-.094-.453-.622.752.026.019.442-.08.166Zm.436-.192.183-.379h0l.333.493-.153.117-.353-.017Zm.25.316-.229.174-.008-.186Zm1.021.3-.475.165-.486-.165Zm-1.08,1.381.147.988-.442-.845.045-.208Zm.032.965-.519.061.162-.745Zm-.54.154.585-.069.028.054-.435.351-.182-.32Zm.5,1.09-.641-.381.29-.235Zm-.941,1.978,1.073.706-1.1.528Zm-.064,2.682,1.014.628-1.042.529Zm-.064,2.656.963.614-.991.552Zm-.062,2.609.964.634-.993.56Zm-.064,2.655.994.661-1.024.564Zm-.064,2.673.951.679-.981.567Zm-.067,2.774.893.645-.923.569Zm-.066,2.726.933.63-.962.6Zm-.032,1.334,1.047-.65.291.2-.918,1.143-.421-.629Zm.61,1.136-.562.162.366-.455Zm-.679,1.773.427.548-.453.521Zm-.032,1.317.822.68-.852.552Zm-.069,2.877.8.638-.823.522Zm-.068,2.834.83.664-.861.611Zm-.072,2.982.771.6-.8.588Zm-.069,2.888.78.674-.81.592Zm-.072,3,.769.61-.8.612Zm-.072,2.99.757.662-.788.6Zm.611,5.164.625.579-.432.473-.592-.6h0Zm.195,1.183.427.433-.013.5-.717-.6Zm1.984-1.958-.5-.628.522-.582Zm.027-1.458-.8-.7.828-.709Zm.057-3.057-.822-.673.847-.68Zm.057-3.054-.871-.652c.276-.2.617-.454.9-.654Zm.054-2.913-.823-.655.847-.63Zm.055-2.938-.841-.656.865-.646Zm.053-2.883-.841-.686.865-.588Zm.054-2.9-.871-.64.894-.61Zm.079-4.226-.45-.626.472-.575Zm.052-2.824-.4-.546.42-.5Zm.024-1.292-.857-.669.88-.539Zm.053-2.815-.849-.63.871-.537Zm.05-2.7-.877-.624.9-.519Zm.05-2.713-.845-.595.866-.53Zm.049-2.638-.875-.611.9-.5Zm.074-3.972-.375-.548.394-.469Zm.023-1.253-1-.628,1.025-.527Zm.049-2.636-1.088-.647,1.109-.465Zm-.784-2.675.51-.548.106.72Zm-.113-1.055-.064-.05.137-.32Zm.157-.8-.3.688-.548-.425-.016-.111.043-.2.878-.265Zm.722-.8.076-.181h-.257l-.1-.082h1.021l.016.3-.739.036Zm.835-.263h.052l.016.3-.051,0Zm.073.387.02.382-.05.029-.022-.408Zm.113.432.818-.477.31-.015.013,0,.126.507-1.257.037-.007,0Zm1.289.11.1.414-1.135-.384Zm.092,0,.663-.019.344.45-.879.026-.016-.006Zm1.074.519.266.347-.967-.326Zm.6.392.7-.431.459-.014.012,0,.076.489-1.213.032-.016-.005Zm1.259.139.059.376-1.037-.351Zm.092,0,.437-.011.32.393-.683.033-.01,0Zm.828.47.225.276-.745-.252Zm2.01.5.63-.02.324.405-.849.026-.015,0Zm1.025.473.273.341-.948-.32Zm1.748.525.041.329-.971-.329Zm.091,0h.633l.268.346-.845.018-.012,0Zm.97.436.25.322-.912-.308Zm1.618.433-.052.334-1.025-.347Zm.815.438.2.257-.729-.247Zm.566-.011.215,0-.309.364-.057-.019Zm.311.023.432.62-.745-.252Zm-.279,1.562.7.584-.377.721-.342-1.308Zm-.235,2.109.654.465-.689.464Zm-.028,1.308.367.4-.279.4Zm.43.471.657.719-.2.211-.783-.446v-.016Zm.393,1-.593.627-.113-1.031Zm.29,2.485-.605.663-.119-1.086Zm1.415,12.6.3.185.062.554-.447.616-.539-.6v0Zm.276,2.627.322.2.062.549-.449.6-.543-.58h0Zm-.121,1.427-.363.486-.109-.989Zm.573,3.8.468.315.051.458-.4.512-.616-.635h0Zm.289,2.624.478.37.043.385-.416.557-.6-.627v0Zm.3,2.627.466.329.06.539-.405.5-.634-.719v0Zm.347,2.7.418.3.062.554-.4.513-.639-.642h0Zm.2,2.665.524.372.053.469-.387.5-.657-.677v0Zm.321,2.735.511.393.061.55-.377.461-.68-.7v0Zm.311,2.759.512.414.062.554-.378.449-.688-.713v0Zm.242,2.747-.437.653-.122-1.1Zm.428,1.409-.146.471-.618-.963Zm-.076.581-.006-.01.161-.519.278.18-.248.461Zm.486-.255.163.647-.385-.233Zm.342.863-.011-.042a.024.024,0,0,0,.007-.006Zm-.038-.149-.4-1.587h.132l.167.109.124,1.451Zm.079-.778.241.378-.189.235Zm-.017-.194v0l.268-.219.414.271-.363.451Zm.705-.046-.364-.239.521-.427Zm-.733-2.845-.425-.283-.058-.521.506-.646.591.618v0Zm-.626-5.519-.414-.289-.057-.515.512-.6.572.559v0Zm-1.188-10.7-.417-.276-.056-.508.483-.562.591.626h0Zm-.184-4.041.362-.4.1.869Zm-2.153-16.282.637-.686.12,1.062Zm-.291-2.54.645-.645.119,1.05Zm.165-1.385.344-.457.106.936Zm-.385-1.057.6-.576.108.951Zm-.348-3.332.036-.813.132.5Zm.525-1.163.59.005.2.4-.8-.27.037-.005Zm.691.006.957.009v.472l-.7-.027-.039-.013Zm.957.571v.118l-.395-.133Zm.775.179.116.241-.59-.2Zm.1-.009.843-.074.645.444-1.307-.067-.04-.014Zm1.63.468.041.028.158.364-1.332-.45Zm.868.6.062.043-.145-.049Zm.238.017.365.027-.234.064Zm-.342-.948.067-.494,1.44,1.014Zm-5.611-9.557,0,.009-.32.541-.215.1Zm-3.575,4.152-.127,0-.009-.379.344.124Zm-13.157-6.8-.05-.019.822-.3.523.783Zm-1.648,1.144,1.112-.365-.537.841-.462-.019Zm.136,1.064-.116,0-.373-.5.37.015Zm.025,2.86.069-.144.036,0,.008.18Zm.241.208.582.2-.565.2Zm-.238,2.862-.234.189.095-.434Zm-.668,23.545-.39.487.025-1.034Zm-.347,27.856.679.565-.035,1.323h-.136Zm.919,1.888h-.155l.035-1.322.726-.588Zm1.745-55.008-.246.275.147-.745.029-.009Zm.478-.747.717-.034.021.4-.756-.255.045-.014Zm14.9,5.281.724.245-.694.2Zm.035,1.091.266,1.018-.291-.532.019-.487Zm5.693,48.99a.042.042,0,0,0,.018-.018l.016-.032.46.277.194.767h-.05Zm.939.995h-.118l-.073-.857.229-.285.168.266Z" transform="translate(-150.539 -202.491)"/>
</svg>
