<svg id="Group_12318" data-name="Group 12318" xmlns="http://www.w3.org/2000/svg" width="35.541" height="114.207" viewBox="0 0 35.541 114.207">
  <g id="Group_12191" data-name="Group 12191" transform="translate(15.058 29.488)">
    <g id="Group_12169" data-name="Group 12169" transform="translate(6.511 0)">
      <rect id="Rectangle_2133" data-name="Rectangle 2133" width="0.506" height="84.647" fill="#636363"/>
    </g>
    <g id="Group_12170" data-name="Group 12170" transform="translate(0 0)">
      <rect id="Rectangle_2134" data-name="Rectangle 2134" width="0.506" height="84.647" fill="#636363"/>
    </g>
    <g id="Group_12171" data-name="Group 12171" transform="translate(0.047 2.415)">
      <rect id="Rectangle_2135" data-name="Rectangle 2135" width="6.891" height="0.506" fill="#636363"/>
    </g>
    <g id="Group_12172" data-name="Group 12172" transform="translate(0.047 6.514)">
      <rect id="Rectangle_2136" data-name="Rectangle 2136" width="6.891" height="0.506" fill="#636363"/>
    </g>
    <g id="Group_12173" data-name="Group 12173" transform="translate(0.047 10.612)">
      <rect id="Rectangle_2137" data-name="Rectangle 2137" width="6.891" height="0.506" fill="#636363"/>
    </g>
    <g id="Group_12174" data-name="Group 12174" transform="translate(0.047 14.711)">
      <rect id="Rectangle_2138" data-name="Rectangle 2138" width="6.891" height="0.506" fill="#636363"/>
    </g>
    <g id="Group_12175" data-name="Group 12175" transform="translate(0.047 18.81)">
      <rect id="Rectangle_2139" data-name="Rectangle 2139" width="6.891" height="0.506" fill="#636363"/>
    </g>
    <g id="Group_12176" data-name="Group 12176" transform="translate(0.047 22.909)">
      <rect id="Rectangle_2140" data-name="Rectangle 2140" width="6.891" height="0.506" fill="#636363"/>
    </g>
    <g id="Group_12177" data-name="Group 12177" transform="translate(0.047 27.008)">
      <rect id="Rectangle_2141" data-name="Rectangle 2141" width="6.891" height="0.506" fill="#636363"/>
    </g>
    <g id="Group_12178" data-name="Group 12178" transform="translate(0.047 31.106)">
      <rect id="Rectangle_2142" data-name="Rectangle 2142" width="6.891" height="0.506" fill="#636363"/>
    </g>
    <g id="Group_12179" data-name="Group 12179" transform="translate(0.047 35.205)">
      <rect id="Rectangle_2143" data-name="Rectangle 2143" width="6.891" height="0.506" fill="#636363"/>
    </g>
    <g id="Group_12180" data-name="Group 12180" transform="translate(0.047 39.304)">
      <rect id="Rectangle_2144" data-name="Rectangle 2144" width="6.891" height="0.506" fill="#636363"/>
    </g>
    <g id="Group_12181" data-name="Group 12181" transform="translate(0.047 43.403)">
      <rect id="Rectangle_2145" data-name="Rectangle 2145" width="6.891" height="0.506" fill="#636363"/>
    </g>
    <g id="Group_12182" data-name="Group 12182" transform="translate(0.047 47.502)">
      <rect id="Rectangle_2146" data-name="Rectangle 2146" width="6.891" height="0.506" fill="#636363"/>
    </g>
    <g id="Group_12183" data-name="Group 12183" transform="translate(0.047 51.6)">
      <rect id="Rectangle_2147" data-name="Rectangle 2147" width="6.891" height="0.506" fill="#636363"/>
    </g>
    <g id="Group_12184" data-name="Group 12184" transform="translate(0.047 55.699)">
      <rect id="Rectangle_2148" data-name="Rectangle 2148" width="6.891" height="0.506" fill="#636363"/>
    </g>
    <g id="Group_12185" data-name="Group 12185" transform="translate(0.047 59.798)">
      <rect id="Rectangle_2149" data-name="Rectangle 2149" width="6.891" height="0.506" fill="#636363"/>
    </g>
    <g id="Group_12186" data-name="Group 12186" transform="translate(0.047 63.897)">
      <rect id="Rectangle_2150" data-name="Rectangle 2150" width="6.891" height="0.506" fill="#636363"/>
    </g>
    <g id="Group_12187" data-name="Group 12187" transform="translate(0.047 67.996)">
      <rect id="Rectangle_2151" data-name="Rectangle 2151" width="6.891" height="0.506" fill="#636363"/>
    </g>
    <g id="Group_12188" data-name="Group 12188" transform="translate(0.047 72.094)">
      <rect id="Rectangle_2152" data-name="Rectangle 2152" width="6.891" height="0.506" fill="#636363"/>
    </g>
    <g id="Group_12189" data-name="Group 12189" transform="translate(0.047 76.193)">
      <rect id="Rectangle_2153" data-name="Rectangle 2153" width="6.891" height="0.506" fill="#636363"/>
    </g>
    <g id="Group_12190" data-name="Group 12190" transform="translate(0.047 80.292)">
      <rect id="Rectangle_2154" data-name="Rectangle 2154" width="6.891" height="0.506" fill="#636363"/>
    </g>
  </g>
  <g id="Group_12208" data-name="Group 12208" transform="translate(9.959 38.665)">
    <g id="Group_12199" data-name="Group 12199" transform="translate(0 0)">
      <g id="Group_12193" data-name="Group 12193">
        <g id="Group_12192" data-name="Group 12192">
          <path id="Path_7470" data-name="Path 7470" d="M433.137,771.523v15.839a.408.408,0,0,1-.215.357,3.154,3.154,0,0,1-.351.166,3.327,3.327,0,0,1-1.261.246c-.078,0-.155,0-.232-.008a3.335,3.335,0,0,1-1.379-.4.382.382,0,0,1-.063-.043.4.4,0,0,1-.152-.315V771.523a.406.406,0,0,1,.152-.316.378.378,0,0,1,.063-.042,3.256,3.256,0,0,1,.368-.174,3.314,3.314,0,0,1,1.011-.229c.077-.006.154-.008.232-.008a3.337,3.337,0,0,1,1.261.245,3.248,3.248,0,0,1,.351.167A.408.408,0,0,1,433.137,771.523Z" transform="translate(-429.485 -770.754)" fill="#7d7d7d"/>
        </g>
      </g>
      <g id="Group_12195" data-name="Group 12195">
        <g id="Group_12194" data-name="Group 12194">
          <path id="Path_7471" data-name="Path 7471" d="M433.137,771.523v15.839a.408.408,0,0,1-.215.357,3.154,3.154,0,0,1-.351.166,3.327,3.327,0,0,1-1.261.246c-.078,0-.155,0-.232-.008a3.335,3.335,0,0,1-1.379-.4.382.382,0,0,1-.063-.043.4.4,0,0,1-.152-.315V771.523a.406.406,0,0,1,.152-.316.378.378,0,0,1,.063-.042,3.256,3.256,0,0,1,.368-.174,3.314,3.314,0,0,1,1.011-.229c.077-.006.154-.008.232-.008a3.337,3.337,0,0,1,1.261.245,3.248,3.248,0,0,1,.351.167A.408.408,0,0,1,433.137,771.523Z" transform="translate(-429.485 -770.754)" fill="#7d7d7d"/>
        </g>
      </g>
      <g id="Group_12196" data-name="Group 12196" transform="translate(0.583 0.008)" opacity="0.2">
        <path id="Path_7472" data-name="Path 7472" d="M439.307,770.879v17.36a3.3,3.3,0,0,1-1.011-.229v-16.9A3.3,3.3,0,0,1,439.307,770.879Z" transform="translate(-438.296 -770.879)" fill="#7d7d7d"/>
      </g>
      <g id="Group_12197" data-name="Group 12197" transform="translate(3.087 0.245)" opacity="0.09" style="mix-blend-mode: multiply;isolation: isolate">
        <path id="Path_7473" data-name="Path 7473" d="M476.7,774.983v15.839a.408.408,0,0,1-.215.357,3.178,3.178,0,0,1-.351.166V774.459a3.263,3.263,0,0,1,.351.167A.408.408,0,0,1,476.7,774.983Z" transform="translate(-476.135 -774.459)" fill="#7d7d7d"/>
      </g>
      <g id="Group_12198" data-name="Group 12198" transform="translate(0 0.453)" opacity="0.09" style="mix-blend-mode: multiply;isolation: isolate">
        <path id="Path_7474" data-name="Path 7474" d="M429.637,777.605v16.47a.4.4,0,0,1-.152-.315V777.92A.405.405,0,0,1,429.637,777.605Z" transform="translate(-429.485 -777.605)" fill="#7d7d7d"/>
      </g>
    </g>
    <g id="Group_12207" data-name="Group 12207" transform="translate(13.564 0)">
      <g id="Group_12201" data-name="Group 12201">
        <g id="Group_12200" data-name="Group 12200">
          <path id="Path_7475" data-name="Path 7475" d="M638.106,771.523v15.839a.407.407,0,0,1-.215.357,3.164,3.164,0,0,1-.351.166,3.328,3.328,0,0,1-1.261.246c-.078,0-.155,0-.232-.008a3.337,3.337,0,0,1-1.379-.4.384.384,0,0,1-.063-.043.4.4,0,0,1-.152-.315V771.523a.406.406,0,0,1,.152-.316.38.38,0,0,1,.063-.042,3.263,3.263,0,0,1,.369-.174,3.313,3.313,0,0,1,1.011-.229c.077-.006.154-.008.232-.008a3.338,3.338,0,0,1,1.261.245,3.258,3.258,0,0,1,.351.167A.407.407,0,0,1,638.106,771.523Z" transform="translate(-634.454 -770.754)" fill="#7d7d7d"/>
        </g>
      </g>
      <g id="Group_12203" data-name="Group 12203">
        <g id="Group_12202" data-name="Group 12202">
          <path id="Path_7476" data-name="Path 7476" d="M638.106,771.523v15.839a.407.407,0,0,1-.215.357,3.164,3.164,0,0,1-.351.166,3.328,3.328,0,0,1-1.261.246c-.078,0-.155,0-.232-.008a3.337,3.337,0,0,1-1.379-.4.384.384,0,0,1-.063-.043.4.4,0,0,1-.152-.315V771.523a.406.406,0,0,1,.152-.316.38.38,0,0,1,.063-.042,3.263,3.263,0,0,1,.369-.174,3.313,3.313,0,0,1,1.011-.229c.077-.006.154-.008.232-.008a3.338,3.338,0,0,1,1.261.245,3.258,3.258,0,0,1,.351.167A.407.407,0,0,1,638.106,771.523Z" transform="translate(-634.454 -770.754)" fill="#7d7d7d"/>
        </g>
      </g>
      <g id="Group_12204" data-name="Group 12204" transform="translate(0.583 0.008)" opacity="0.2">
        <path id="Path_7477" data-name="Path 7477" d="M644.276,770.879v17.36a3.3,3.3,0,0,1-1.011-.229v-16.9A3.3,3.3,0,0,1,644.276,770.879Z" transform="translate(-643.265 -770.879)" fill="#7d7d7d"/>
      </g>
      <g id="Group_12205" data-name="Group 12205" transform="translate(3.087 0.245)" opacity="0.09" style="mix-blend-mode: multiply;isolation: isolate">
        <path id="Path_7478" data-name="Path 7478" d="M681.669,774.983v15.839a.408.408,0,0,1-.215.357,3.172,3.172,0,0,1-.35.166V774.459a3.257,3.257,0,0,1,.35.167A.408.408,0,0,1,681.669,774.983Z" transform="translate(-681.104 -774.459)" fill="#7d7d7d"/>
      </g>
      <g id="Group_12206" data-name="Group 12206" transform="translate(0 0.453)" opacity="0.09" style="mix-blend-mode: multiply;isolation: isolate">
        <path id="Path_7479" data-name="Path 7479" d="M634.606,777.605v16.47a.4.4,0,0,1-.152-.315V777.92A.405.405,0,0,1,634.606,777.605Z" transform="translate(-634.454 -777.605)" fill="#7d7d7d"/>
      </g>
    </g>
  </g>
  <g id="Group_12216" data-name="Group 12216" transform="translate(16.496 11.871)">
    <g id="Group_12210" data-name="Group 12210" transform="translate(0 0)">
      <g id="Group_12209" data-name="Group 12209">
        <path id="Path_7480" data-name="Path 7480" d="M532.4,366.733V384.7a.462.462,0,0,1-.244.4,3.541,3.541,0,0,1-.4.188,3.774,3.774,0,0,1-1.431.279c-.088,0-.176,0-.263-.01a3.78,3.78,0,0,1-1.565-.457.437.437,0,0,1-.071-.049.458.458,0,0,1-.172-.357V366.733a.46.46,0,0,1,.172-.358.421.421,0,0,1,.071-.048,3.774,3.774,0,0,1,1.565-.457c.087-.007.175-.01.263-.01a3.789,3.789,0,0,1,1.431.278,3.707,3.707,0,0,1,.4.189A.462.462,0,0,1,532.4,366.733Z" transform="translate(-528.261 -365.861)" fill="#7d7d7d"/>
      </g>
    </g>
    <g id="Group_12212" data-name="Group 12212" transform="translate(0 0)">
      <g id="Group_12211" data-name="Group 12211">
        <path id="Path_7481" data-name="Path 7481" d="M532.4,366.733V384.7a.462.462,0,0,1-.244.4,3.541,3.541,0,0,1-.4.188,3.774,3.774,0,0,1-1.431.279c-.088,0-.176,0-.263-.01a3.78,3.78,0,0,1-1.565-.457.437.437,0,0,1-.071-.049.458.458,0,0,1-.172-.357V366.733a.46.46,0,0,1,.172-.358.421.421,0,0,1,.071-.048,3.774,3.774,0,0,1,1.565-.457c.087-.007.175-.01.263-.01a3.789,3.789,0,0,1,1.431.278,3.707,3.707,0,0,1,.4.189A.462.462,0,0,1,532.4,366.733Z" transform="translate(-528.261 -365.861)" fill="#7d7d7d"/>
      </g>
    </g>
    <g id="Group_12213" data-name="Group 12213" transform="translate(0.661 0.009)" opacity="0.2">
      <path id="Path_7482" data-name="Path 7482" d="M539.4,366V385.7a3.752,3.752,0,0,1-1.147-.26V366.264A3.753,3.753,0,0,1,539.4,366Z" transform="translate(-538.256 -366.004)" fill="#7d7d7d"/>
    </g>
    <g id="Group_12214" data-name="Group 12214" transform="translate(3.502 0.278)" opacity="0.09" style="mix-blend-mode: multiply;isolation: isolate">
      <path id="Path_7483" data-name="Path 7483" d="M581.821,370.659v17.968a.463.463,0,0,1-.243.4,3.592,3.592,0,0,1-.4.188V370.065a3.733,3.733,0,0,1,.4.189A.463.463,0,0,1,581.821,370.659Z" transform="translate(-581.18 -370.065)" fill="#7d7d7d"/>
    </g>
    <g id="Group_12215" data-name="Group 12215" transform="translate(0 0.514)" opacity="0.09" style="mix-blend-mode: multiply;isolation: isolate">
      <path id="Path_7484" data-name="Path 7484" d="M528.433,373.634v18.683a.458.458,0,0,1-.172-.357V373.992A.46.46,0,0,1,528.433,373.634Z" transform="translate(-528.261 -373.634)" fill="#7d7d7d"/>
    </g>
  </g>
  <g id="Group_12235" data-name="Group 12235" transform="translate(9.875 7.49)">
    <g id="Group_12217" data-name="Group 12217" transform="translate(1.528 0)">
      <path id="Path_7485" data-name="Path 7485" d="M451.322,306.947l.246-7.255v-.041h.08v.041l.246,7.255.01.287h-.594Z" transform="translate(-451.312 -299.65)" fill="#b5b5b5"/>
    </g>
    <g id="Group_12218" data-name="Group 12218" transform="translate(15.261 0)">
      <path id="Path_7486" data-name="Path 7486" d="M658.85,306.947l.246-7.255v-.041h.08v.041l.246,7.255.01.287h-.594Z" transform="translate(-658.84 -299.65)" fill="#b5b5b5"/>
    </g>
    <g id="Group_12226" data-name="Group 12226" transform="translate(0 4.74)">
      <g id="Group_12220" data-name="Group 12220">
        <g id="Group_12219" data-name="Group 12219">
          <path id="Path_7487" data-name="Path 7487" d="M431.868,372.156v17.968a.474.474,0,0,1-.214.4,3.083,3.083,0,0,1-1.611.467c-.078,0-.155,0-.232-.009a2.981,2.981,0,0,1-1.011-.26,3.144,3.144,0,0,1-.368-.2.4.4,0,0,1-.062-.048.483.483,0,0,1-.152-.357V372.156a.485.485,0,0,1,.152-.358.4.4,0,0,1,.063-.048,3.166,3.166,0,0,1,.368-.2,2.985,2.985,0,0,1,1.011-.26c.077-.006.154-.009.232-.009a3,3,0,0,1,1.261.278,3.113,3.113,0,0,1,.35.189A.474.474,0,0,1,431.868,372.156Z" transform="translate(-428.217 -371.284)" fill="#7d7d7d"/>
        </g>
      </g>
      <g id="Group_12222" data-name="Group 12222">
        <g id="Group_12221" data-name="Group 12221">
          <path id="Path_7488" data-name="Path 7488" d="M431.868,372.156v17.968a.474.474,0,0,1-.214.4,3.083,3.083,0,0,1-1.611.467c-.078,0-.155,0-.232-.009a2.981,2.981,0,0,1-1.011-.26,3.144,3.144,0,0,1-.368-.2.4.4,0,0,1-.062-.048.483.483,0,0,1-.152-.357V372.156a.485.485,0,0,1,.152-.358.4.4,0,0,1,.063-.048,3.166,3.166,0,0,1,.368-.2,2.985,2.985,0,0,1,1.011-.26c.077-.006.154-.009.232-.009a3,3,0,0,1,1.261.278,3.113,3.113,0,0,1,.35.189A.474.474,0,0,1,431.868,372.156Z" transform="translate(-428.217 -371.284)" fill="#7d7d7d"/>
        </g>
      </g>
      <g id="Group_12223" data-name="Group 12223" transform="translate(0.583 0.009)" opacity="0.2">
        <path id="Path_7489" data-name="Path 7489" d="M438.035,371.426v19.693a2.982,2.982,0,0,1-1.011-.26V371.686A2.984,2.984,0,0,1,438.035,371.426Z" transform="translate(-437.024 -371.426)" fill="#7d7d7d"/>
      </g>
      <g id="Group_12224" data-name="Group 12224" transform="translate(3.086 0.278)" opacity="0.09" style="mix-blend-mode: multiply;isolation: isolate">
        <path id="Path_7490" data-name="Path 7490" d="M475.413,376.082V394.05a.474.474,0,0,1-.214.4,2.991,2.991,0,0,1-.35.188V375.488a3.119,3.119,0,0,1,.35.189A.474.474,0,0,1,475.413,376.082Z" transform="translate(-474.848 -375.488)" fill="#7d7d7d"/>
      </g>
      <g id="Group_12225" data-name="Group 12225" transform="translate(0 0.514)" opacity="0.09" style="mix-blend-mode: multiply;isolation: isolate">
        <path id="Path_7491" data-name="Path 7491" d="M428.369,379.057V397.74a.483.483,0,0,1-.152-.357V379.415A.485.485,0,0,1,428.369,379.057Z" transform="translate(-428.217 -379.057)" fill="#7d7d7d"/>
      </g>
    </g>
    <g id="Group_12234" data-name="Group 12234" transform="translate(13.733 4.74)">
      <g id="Group_12228" data-name="Group 12228">
        <g id="Group_12227" data-name="Group 12227">
          <path id="Path_7492" data-name="Path 7492" d="M639.4,372.156v17.968a.474.474,0,0,1-.215.4,3.083,3.083,0,0,1-1.611.467c-.078,0-.155,0-.232-.009a2.981,2.981,0,0,1-1.011-.26,3.14,3.14,0,0,1-.368-.2.39.39,0,0,1-.063-.048.484.484,0,0,1-.152-.357V372.156a.486.486,0,0,1,.152-.358.391.391,0,0,1,.063-.048,3.161,3.161,0,0,1,.368-.2,2.985,2.985,0,0,1,1.011-.26c.077-.006.154-.009.232-.009a3,3,0,0,1,1.261.278,3.109,3.109,0,0,1,.35.189A.474.474,0,0,1,639.4,372.156Z" transform="translate(-635.745 -371.284)" fill="#7d7d7d"/>
        </g>
      </g>
      <g id="Group_12230" data-name="Group 12230">
        <g id="Group_12229" data-name="Group 12229">
          <path id="Path_7493" data-name="Path 7493" d="M639.4,372.156v17.968a.474.474,0,0,1-.215.4,3.083,3.083,0,0,1-1.611.467c-.078,0-.155,0-.232-.009a2.981,2.981,0,0,1-1.011-.26,3.14,3.14,0,0,1-.368-.2.39.39,0,0,1-.063-.048.484.484,0,0,1-.152-.357V372.156a.486.486,0,0,1,.152-.358.391.391,0,0,1,.063-.048,3.161,3.161,0,0,1,.368-.2,2.985,2.985,0,0,1,1.011-.26c.077-.006.154-.009.232-.009a3,3,0,0,1,1.261.278,3.109,3.109,0,0,1,.35.189A.474.474,0,0,1,639.4,372.156Z" transform="translate(-635.745 -371.284)" fill="#7d7d7d"/>
        </g>
      </g>
      <g id="Group_12231" data-name="Group 12231" transform="translate(0.583 0.009)" opacity="0.2">
        <path id="Path_7494" data-name="Path 7494" d="M645.563,371.426v19.693a2.982,2.982,0,0,1-1.011-.26V371.686A2.983,2.983,0,0,1,645.563,371.426Z" transform="translate(-644.552 -371.426)" fill="#7d7d7d"/>
      </g>
      <g id="Group_12232" data-name="Group 12232" transform="translate(3.086 0.278)" opacity="0.09" style="mix-blend-mode: multiply;isolation: isolate">
        <path id="Path_7495" data-name="Path 7495" d="M682.94,376.082V394.05a.474.474,0,0,1-.215.4,2.994,2.994,0,0,1-.35.188V375.488a3.123,3.123,0,0,1,.35.189A.474.474,0,0,1,682.94,376.082Z" transform="translate(-682.375 -375.488)" fill="#7d7d7d"/>
      </g>
      <g id="Group_12233" data-name="Group 12233" transform="translate(0 0.514)" opacity="0.09" style="mix-blend-mode: multiply;isolation: isolate">
        <path id="Path_7496" data-name="Path 7496" d="M635.9,379.057V397.74a.483.483,0,0,1-.152-.357V379.415A.486.486,0,0,1,635.9,379.057Z" transform="translate(-635.745 -379.057)" fill="#7d7d7d"/>
      </g>
    </g>
  </g>
  <g id="Group_12238" data-name="Group 12238" transform="translate(5.484 18.191)">
    <g id="Group_12236" data-name="Group 12236" transform="translate(0)">
      <path id="Path_7497" data-name="Path 7497" d="M362.179,553.595l-.317-.479,12.535-8.284-11.022-7.863.017-.479,11.082-6.777-9.842-9.31.03-.442,9.8-7.054-8.7-6.718-.019-.438,8.77-8.115-7.587-6.55v-.434L374.572,484,367.4,472.4l.008-.315,7.465-10.733.472.328-7.357,10.578,7.2,11.643-.056.368-7.581,6.594,7.58,6.543.007.428-8.757,8.1,8.737,6.746-.008.461-9.833,7.076,9.862,9.329-.048.454-11.032,6.747,11.009,7.854-.008.474Z" transform="translate(-361.862 -461.354)" fill="#888"/>
    </g>
    <g id="Group_12237" data-name="Group 12237" transform="translate(12.683)">
      <path id="Path_7498" data-name="Path 7498" d="M566.687,553.595,553.8,545.08l-.008-.474,11.009-7.854-11.032-6.747-.048-.454,9.862-9.329-9.832-7.076-.008-.461,8.737-6.746-8.757-8.1.007-.428,7.58-6.543-7.581-6.594-.056-.368,7.2-11.643-7.357-10.578.472-.328,7.465,10.733.008.315L554.294,484l7.647,6.651v.434l-7.588,6.55,8.77,8.115-.02.438-8.7,6.718,9.8,7.054.029.442-9.842,9.31,11.082,6.777.017.479-11.022,7.863L567,553.115Z" transform="translate(-553.521 -461.354)" fill="#888"/>
    </g>
  </g>
  <g id="Group_12241" data-name="Group 12241" transform="translate(5.337 18.19)">
    <g id="Group_12239" data-name="Group 12239" transform="translate(0 22.3)">
      <path id="Path_7499" data-name="Path 7499" d="M385.3,870.318l-.031-.4-5.511-70.769H365.976l-5.542,71.168-.8-.062,5.571-71.536.4-.369h14.521l.4.369,5.57,71.536Z" transform="translate(-359.636 -798.351)" fill="#3a444a"/>
    </g>
    <g id="Group_12240" data-name="Group 12240" transform="translate(12.83 0)">
      <rect id="Rectangle_2155" data-name="Rectangle 2155" width="0.8" height="94.239" fill="#3a444a"/>
    </g>
  </g>
  <g id="Group_12244" data-name="Group 12244" transform="translate(10.906 18.19)">
    <g id="Group_12242" data-name="Group 12242" transform="translate(14.521 0)">
      <rect id="Rectangle_2156" data-name="Rectangle 2156" width="0.8" height="23.101" fill="#3a444a"/>
    </g>
    <g id="Group_12243" data-name="Group 12243" transform="translate(0 0)">
      <rect id="Rectangle_2157" data-name="Rectangle 2157" width="0.8" height="23.101" fill="#3a444a"/>
    </g>
  </g>
  <g id="Group_12248" data-name="Group 12248" transform="translate(2.549 111.784)">
    <g id="Group_12245" data-name="Group 12245" transform="translate(11.725 0)">
      <path id="Path_7500" data-name="Path 7500" d="M503.516,1878.134h-8.827L496,1875.71h6.2Z" transform="translate(-494.689 -1875.71)" fill="#3a444a"/>
    </g>
    <g id="Group_12246" data-name="Group 12246" transform="translate(26.325 0)">
      <path id="Path_7501" data-name="Path 7501" d="M721.032,1878.134h-5.711l.169-2.424h4.572Z" transform="translate(-715.321 -1875.71)" fill="#3a444a"/>
    </g>
    <g id="Group_12247" data-name="Group 12247" transform="translate(0 0)">
      <path id="Path_7502" data-name="Path 7502" d="M323.216,1878.134h-5.711l.97-2.424h4.572Z" transform="translate(-317.505 -1875.71)" fill="#3a444a"/>
    </g>
  </g>
  <g id="Group_12249" data-name="Group 12249" transform="translate(18.277)">
    <path id="Path_7503" data-name="Path 7503" d="M555.536,186.532l.219,20.923,0,.287h-.581l0-.287.22-20.923v-.068h.134Z" transform="translate(-555.178 -186.464)" fill="#ccc"/>
  </g>
  <g id="Group_12252" data-name="Group 12252" transform="translate(5.091 18.287)">
    <g id="Group_12250" data-name="Group 12250" transform="translate(0 11.15)">
      <rect id="Rectangle_2158" data-name="Rectangle 2158" width="26.952" height="0.797" fill="#3a444a"/>
    </g>
    <g id="Group_12251" data-name="Group 12251" transform="translate(0 0)">
      <rect id="Rectangle_2159" data-name="Rectangle 2159" width="26.952" height="0.797" fill="#3a444a"/>
    </g>
  </g>
  <g id="Group_12255" data-name="Group 12255" transform="translate(2.42 15.684)">
    <g id="Group_12253" data-name="Group 12253" transform="translate(0 0.021)">
      <path id="Path_7504" data-name="Path 7504" d="M318.255,439.525h-2.707V423.791h2.707Zm-1.907-.8h1.107V424.591h-1.107Z" transform="translate(-315.548 -423.791)" fill="#3a444a"/>
    </g>
    <g id="Group_12254" data-name="Group 12254" transform="translate(29.121 0)">
      <path id="Path_7505" data-name="Path 7505" d="M758.792,439.2h-3.174V423.47h3.174Zm-2.374-.8h1.573V424.27h-1.573Z" transform="translate(-755.618 -423.47)" fill="#3a444a"/>
    </g>
  </g>
  <g id="Group_12256" data-name="Group 12256" transform="translate(5.031 40.491)">
    <path id="Path_7506" data-name="Path 7506" d="M381.681,812.723H355.409l-.4-.4V798.751l.4-.4h26.272l.4.4v13.571Zm-25.872-.8h25.472V799.151H355.809Z" transform="translate(-355.009 -798.351)" fill="#3a444a"/>
  </g>
  <g id="Group_12257" data-name="Group 12257" transform="translate(8.453 76.629)">
    <rect id="Rectangle_2160" data-name="Rectangle 2160" width="20.229" height="0.8" transform="translate(0 0)" fill="#3a444a"/>
  </g>
  <g id="Group_12258" data-name="Group 12258" transform="translate(7.164 93.17)">
    <rect id="Rectangle_2161" data-name="Rectangle 2161" width="22.805" height="0.8" transform="translate(0 0)" fill="#3a444a"/>
  </g>
  <g id="Group_12259" data-name="Group 12259" transform="translate(6.589 47.389)">
    <rect id="Rectangle_2162" data-name="Rectangle 2162" width="23.955" height="0.575" transform="translate(0 0)" fill="#888"/>
  </g>
  <g id="Group_12268" data-name="Group 12268" transform="translate(1.593 8.654)">
    <g id="Group_12260" data-name="Group 12260" transform="translate(1.407 0)">
      <path id="Path_7507" data-name="Path 7507" d="M324.327,324.545l.246-7.255v-.041h.08v.041l.246,7.255.01.287h-.594Z" transform="translate(-324.317 -317.248)" fill="#ccc"/>
    </g>
    <g id="Group_12261" data-name="Group 12261" transform="translate(31.935 0)">
      <path id="Path_7508" data-name="Path 7508" d="M785.662,324.545l.246-7.255v-.041h.08v.041l.246,7.255.01.287h-.594Z" transform="translate(-785.652 -317.248)" fill="#ccc"/>
    </g>
    <g id="Group_12264" data-name="Group 12264" transform="translate(31.661 4.029)">
      <g id="Group_12262" data-name="Group 12262">
        <path id="Path_7509" data-name="Path 7509" d="M783.79,379.1v19.85a.511.511,0,0,1-.269.447,3.912,3.912,0,0,1-.44.208,4.167,4.167,0,0,1-1.58.308V378.136a4.182,4.182,0,0,1,1.58.307,4.06,4.06,0,0,1,.44.209A.511.511,0,0,1,783.79,379.1Z" transform="translate(-781.502 -378.136)" fill="#ccc"/>
      </g>
      <g id="Group_12263" data-name="Group 12263" transform="translate(1.58 0.308)" opacity="0.09" style="mix-blend-mode: multiply;isolation: isolate">
        <path id="Path_7510" data-name="Path 7510" d="M806.083,383.442v19.85a.511.511,0,0,1-.269.447,3.966,3.966,0,0,1-.439.208V382.786a4.109,4.109,0,0,1,.439.209A.511.511,0,0,1,806.083,383.442Z" transform="translate(-805.375 -382.786)"/>
      </g>
    </g>
    <g id="Group_12267" data-name="Group 12267" transform="translate(0 4.029)">
      <g id="Group_12265" data-name="Group 12265">
        <path id="Path_7511" data-name="Path 7511" d="M303.052,398.949V379.1a.511.511,0,0,1,.269-.447,3.924,3.924,0,0,1,.439-.208,4.167,4.167,0,0,1,1.58-.308v21.777a4.18,4.18,0,0,1-1.58-.307,4.063,4.063,0,0,1-.439-.209A.511.511,0,0,1,303.052,398.949Z" transform="translate(-303.052 -378.136)" fill="#ccc"/>
      </g>
      <g id="Group_12266" data-name="Group 12266" transform="translate(0 0.308)" opacity="0.2">
        <path id="Path_7512" data-name="Path 7512" d="M303.052,403.291v-19.85a.511.511,0,0,1,.269-.447,3.924,3.924,0,0,1,.439-.208v21.161a4.121,4.121,0,0,1-.439-.209A.511.511,0,0,1,303.052,403.291Z" transform="translate(-303.052 -382.786)" fill="#fff"/>
      </g>
    </g>
  </g>
  <g id="Group_12274" data-name="Group 12274" transform="translate(16.603 39.129)">
    <g id="Group_12269" data-name="Group 12269" transform="translate(0)">
      <path id="Path_7513" data-name="Path 7513" d="M533.813,778.6v17.036a.439.439,0,0,1-.231.384,3.381,3.381,0,0,1-.377.179,3.581,3.581,0,0,1-1.357.264c-.084,0-.167,0-.249-.009a3.564,3.564,0,0,1-1.087-.247,3.5,3.5,0,0,1-.4-.187.415.415,0,0,1-.067-.046.434.434,0,0,1-.163-.339V778.6a.443.443,0,0,1,.231-.385,3.584,3.584,0,0,1,1.484-.433q.123-.009.249-.009a3.592,3.592,0,0,1,1.357.264,3.544,3.544,0,0,1,.377.179A.439.439,0,0,1,533.813,778.6Z" transform="translate(-529.885 -777.768)" fill="#ccc"/>
    </g>
    <g id="Group_12270" data-name="Group 12270" transform="translate(0)">
      <path id="Path_7514" data-name="Path 7514" d="M533.813,778.6v17.036a.439.439,0,0,1-.231.384,3.381,3.381,0,0,1-.377.179,3.581,3.581,0,0,1-1.357.264c-.084,0-.167,0-.249-.009a3.564,3.564,0,0,1-1.087-.247,3.5,3.5,0,0,1-.4-.187.415.415,0,0,1-.067-.046.434.434,0,0,1-.163-.339V778.6a.443.443,0,0,1,.231-.385,3.584,3.584,0,0,1,1.484-.433q.123-.009.249-.009a3.592,3.592,0,0,1,1.357.264,3.544,3.544,0,0,1,.377.179A.439.439,0,0,1,533.813,778.6Z" transform="translate(-529.885 -777.768)" fill="#ccc"/>
    </g>
    <g id="Group_12271" data-name="Group 12271" transform="translate(0.627 0.009)" opacity="0.2">
      <path id="Path_7515" data-name="Path 7515" d="M540.449,777.9v18.672a3.562,3.562,0,0,1-1.087-.246V778.15A3.556,3.556,0,0,1,540.449,777.9Z" transform="translate(-539.362 -777.903)" fill="#fff"/>
    </g>
    <g id="Group_12272" data-name="Group 12272" transform="translate(3.32 0.264)" opacity="0.09" style="mix-blend-mode: multiply;isolation: isolate">
      <path id="Path_7516" data-name="Path 7516" d="M580.667,782.316v17.036a.439.439,0,0,1-.231.384,3.426,3.426,0,0,1-.377.179V781.753a3.567,3.567,0,0,1,.377.179A.439.439,0,0,1,580.667,782.316Z" transform="translate(-580.059 -781.753)"/>
    </g>
    <g id="Group_12273" data-name="Group 12273" transform="translate(0 0.488)" opacity="0.09" style="mix-blend-mode: multiply;isolation: isolate">
      <path id="Path_7517" data-name="Path 7517" d="M530.048,785.137v17.713a.434.434,0,0,1-.163-.339V785.476A.436.436,0,0,1,530.048,785.137Z" transform="translate(-529.885 -785.137)"/>
    </g>
  </g>
  <g id="Group_12283" data-name="Group 12283" transform="translate(4.901 34.111)">
    <g id="Group_12275" data-name="Group 12275" transform="translate(25.654)">
      <path id="Path_7518" data-name="Path 7518" d="M740.725,709.243l.246-7.255v-.041h.08v.041l.246,7.255.01.287h-.594Z" transform="translate(-740.716 -701.946)" fill="#ccc"/>
    </g>
    <g id="Group_12276" data-name="Group 12276" transform="translate(1.128)">
      <path id="Path_7519" data-name="Path 7519" d="M370.1,709.243l.246-7.255v-.041h.08v.041l.246,7.255.01.287h-.594Z" transform="translate(-370.09 -701.946)" fill="#ccc"/>
    </g>
    <g id="Group_12279" data-name="Group 12279" transform="translate(25.369 4.22)">
      <g id="Group_12277" data-name="Group 12277">
        <path id="Path_7520" data-name="Path 7520" d="M738.378,766.547v17.036a.439.439,0,0,1-.231.384,3.4,3.4,0,0,1-.377.178,3.576,3.576,0,0,1-1.356.264V765.72a3.59,3.59,0,0,1,1.356.264,3.508,3.508,0,0,1,.377.179A.438.438,0,0,1,738.378,766.547Z" transform="translate(-736.414 -765.72)" fill="#ccc"/>
      </g>
      <g id="Group_12278" data-name="Group 12278" transform="translate(1.356 0.264)" opacity="0.09" style="mix-blend-mode: multiply;isolation: isolate">
        <path id="Path_7521" data-name="Path 7521" d="M757.511,770.274V787.31a.438.438,0,0,1-.231.384,3.372,3.372,0,0,1-.377.179V769.711a3.521,3.521,0,0,1,.377.179A.439.439,0,0,1,757.511,770.274Z" transform="translate(-756.903 -769.711)"/>
      </g>
    </g>
    <g id="Group_12282" data-name="Group 12282" transform="translate(0 4.22)">
      <g id="Group_12280" data-name="Group 12280">
        <path id="Path_7522" data-name="Path 7522" d="M353.041,783.583V766.547a.438.438,0,0,1,.231-.384,3.369,3.369,0,0,1,.377-.179A3.578,3.578,0,0,1,355,765.72v18.689a3.59,3.59,0,0,1-1.356-.263,3.529,3.529,0,0,1-.377-.179A.439.439,0,0,1,353.041,783.583Z" transform="translate(-353.041 -765.72)" fill="#ccc"/>
      </g>
      <g id="Group_12281" data-name="Group 12281" transform="translate(0 0.264)" opacity="0.2">
        <path id="Path_7523" data-name="Path 7523" d="M353.041,787.309V770.273a.438.438,0,0,1,.231-.384,3.357,3.357,0,0,1,.377-.179v18.161a3.5,3.5,0,0,1-.377-.179A.438.438,0,0,1,353.041,787.309Z" transform="translate(-353.041 -769.711)" fill="#fff"/>
      </g>
    </g>
  </g>
  <g id="Group_12284" data-name="Group 12284" transform="translate(4.764 18.46)">
    <path id="Path_7524" data-name="Path 7524" d="M365.181,477l-14.208-11.332.2-.25,14,11.168,13.2-11.169.207.244Z" transform="translate(-350.974 -465.421)" fill="#3a444a"/>
  </g>
  <g id="Group_12290" data-name="Group 12290" transform="translate(16.279 14.379)">
    <g id="Group_12285" data-name="Group 12285" transform="translate(0 0)">
      <path id="Path_7525" data-name="Path 7525" d="M529.56,404.714v19.85a.511.511,0,0,1-.269.447,3.912,3.912,0,0,1-.439.208,4.171,4.171,0,0,1-1.581.308c-.1,0-.194,0-.29-.01a4.173,4.173,0,0,1-1.729-.505.479.479,0,0,1-.078-.053.506.506,0,0,1-.19-.395v-19.85a.508.508,0,0,1,.19-.4.484.484,0,0,1,.078-.053,4.172,4.172,0,0,1,1.729-.5c.1-.007.193-.01.29-.01a4.181,4.181,0,0,1,1.581.307,4.037,4.037,0,0,1,.439.209A.511.511,0,0,1,529.56,404.714Z" transform="translate(-524.983 -403.751)" fill="#ccc"/>
    </g>
    <g id="Group_12286" data-name="Group 12286" transform="translate(0 0)">
      <path id="Path_7526" data-name="Path 7526" d="M529.56,404.714v19.85a.511.511,0,0,1-.269.447,3.912,3.912,0,0,1-.439.208,4.171,4.171,0,0,1-1.581.308c-.1,0-.194,0-.29-.01a4.173,4.173,0,0,1-1.729-.505.479.479,0,0,1-.078-.053.506.506,0,0,1-.19-.395v-19.85a.508.508,0,0,1,.19-.4.484.484,0,0,1,.078-.053,4.172,4.172,0,0,1,1.729-.5c.1-.007.193-.01.29-.01a4.181,4.181,0,0,1,1.581.307,4.037,4.037,0,0,1,.439.209A.511.511,0,0,1,529.56,404.714Z" transform="translate(-524.983 -403.751)" fill="#ccc"/>
    </g>
    <g id="Group_12287" data-name="Group 12287" transform="translate(0.731 0.01)" opacity="0.2">
      <path id="Path_7527" data-name="Path 7527" d="M537.291,403.908v21.756a4.157,4.157,0,0,1-1.267-.287V404.2A4.145,4.145,0,0,1,537.291,403.908Z" transform="translate(-536.024 -403.908)" fill="#fff"/>
    </g>
    <g id="Group_12288" data-name="Group 12288" transform="translate(3.869 0.307)" opacity="0.09" style="mix-blend-mode: multiply;isolation: isolate">
      <path id="Path_7528" data-name="Path 7528" d="M584.152,409.051V428.9a.511.511,0,0,1-.269.447,3.92,3.92,0,0,1-.439.208V408.395a4.092,4.092,0,0,1,.439.209A.511.511,0,0,1,584.152,409.051Z" transform="translate(-583.444 -408.395)"/>
    </g>
    <g id="Group_12289" data-name="Group 12289" transform="translate(0 0.568)" opacity="0.09" style="mix-blend-mode: multiply;isolation: isolate">
      <path id="Path_7529" data-name="Path 7529" d="M525.173,412.337v20.639a.505.505,0,0,1-.19-.394v-19.85A.508.508,0,0,1,525.173,412.337Z" transform="translate(-524.983 -412.337)"/>
    </g>
  </g>
  <g id="Group_12305" data-name="Group 12305" transform="translate(7.944 8.654)">
    <g id="Group_12291" data-name="Group 12291" transform="translate(1.719 0)">
      <path id="Path_7530" data-name="Path 7530" d="M425.024,324.545l.246-7.255v-.041h.08v.041l.246,7.255.01.287h-.594Z" transform="translate(-425.015 -317.248)" fill="#ccc"/>
    </g>
    <g id="Group_12292" data-name="Group 12292" transform="translate(18.933 0)">
      <path id="Path_7531" data-name="Path 7531" d="M685.147,324.545l.246-7.255v-.041h.08v.041l.246,7.255.01.287h-.594Z" transform="translate(-685.138 -317.248)" fill="#ccc"/>
    </g>
    <g id="Group_12298" data-name="Group 12298" transform="translate(0 4.718)">
      <g id="Group_12293" data-name="Group 12293">
        <path id="Path_7532" data-name="Path 7532" d="M403.064,389.5v19.85a.524.524,0,0,1-.237.447,3.406,3.406,0,0,1-1.78.516c-.086,0-.171,0-.256-.01a3.294,3.294,0,0,1-1.116-.287,3.448,3.448,0,0,1-.407-.218.426.426,0,0,1-.069-.054.534.534,0,0,1-.168-.395V389.5a.537.537,0,0,1,.168-.4.431.431,0,0,1,.069-.053,3.456,3.456,0,0,1,.407-.218,3.292,3.292,0,0,1,1.116-.287c.085-.007.17-.01.256-.01a3.311,3.311,0,0,1,1.393.307,3.436,3.436,0,0,1,.387.209A.524.524,0,0,1,403.064,389.5Z" transform="translate(-399.031 -388.538)" fill="#ccc"/>
      </g>
      <g id="Group_12294" data-name="Group 12294">
        <path id="Path_7533" data-name="Path 7533" d="M403.064,389.5v19.85a.524.524,0,0,1-.237.447,3.406,3.406,0,0,1-1.78.516c-.086,0-.171,0-.256-.01a3.294,3.294,0,0,1-1.116-.287,3.448,3.448,0,0,1-.407-.218.426.426,0,0,1-.069-.054.534.534,0,0,1-.168-.395V389.5a.537.537,0,0,1,.168-.4.431.431,0,0,1,.069-.053,3.456,3.456,0,0,1,.407-.218,3.292,3.292,0,0,1,1.116-.287c.085-.007.17-.01.256-.01a3.311,3.311,0,0,1,1.393.307,3.436,3.436,0,0,1,.387.209A.524.524,0,0,1,403.064,389.5Z" transform="translate(-399.031 -388.538)" fill="#ccc"/>
      </g>
      <g id="Group_12295" data-name="Group 12295" transform="translate(0.644 0.01)" opacity="0.2">
        <path id="Path_7534" data-name="Path 7534" d="M409.876,388.7v21.756a3.294,3.294,0,0,1-1.116-.287V388.982A3.293,3.293,0,0,1,409.876,388.7Z" transform="translate(-408.76 -388.695)" fill="#fff"/>
      </g>
      <g id="Group_12296" data-name="Group 12296" transform="translate(3.409 0.307)" opacity="0.09" style="mix-blend-mode: multiply;isolation: isolate">
        <path id="Path_7535" data-name="Path 7535" d="M451.169,393.838v19.85a.524.524,0,0,1-.237.447,3.3,3.3,0,0,1-.387.208V393.182a3.411,3.411,0,0,1,.387.209A.524.524,0,0,1,451.169,393.838Z" transform="translate(-450.545 -393.182)"/>
      </g>
      <g id="Group_12297" data-name="Group 12297" transform="translate(0 0.568)" opacity="0.09" style="mix-blend-mode: multiply;isolation: isolate">
        <path id="Path_7536" data-name="Path 7536" d="M399.2,397.124v20.64a.534.534,0,0,1-.168-.395v-19.85A.537.537,0,0,1,399.2,397.124Z" transform="translate(-399.031 -397.124)"/>
      </g>
    </g>
    <g id="Group_12304" data-name="Group 12304" transform="translate(17.213 4.718)">
      <g id="Group_12299" data-name="Group 12299">
        <path id="Path_7537" data-name="Path 7537" d="M663.187,389.5v19.85a.524.524,0,0,1-.237.447,3.407,3.407,0,0,1-1.78.516c-.086,0-.171,0-.256-.01a3.294,3.294,0,0,1-1.116-.287,3.436,3.436,0,0,1-.407-.218.425.425,0,0,1-.069-.054.534.534,0,0,1-.168-.395V389.5a.537.537,0,0,1,.168-.4.429.429,0,0,1,.069-.053,3.444,3.444,0,0,1,.407-.218,3.291,3.291,0,0,1,1.116-.287c.085-.007.17-.01.256-.01a3.31,3.31,0,0,1,1.393.307,3.429,3.429,0,0,1,.387.209A.524.524,0,0,1,663.187,389.5Z" transform="translate(-659.154 -388.538)" fill="#ccc"/>
      </g>
      <g id="Group_12300" data-name="Group 12300">
        <path id="Path_7538" data-name="Path 7538" d="M663.187,389.5v19.85a.524.524,0,0,1-.237.447,3.407,3.407,0,0,1-1.78.516c-.086,0-.171,0-.256-.01a3.294,3.294,0,0,1-1.116-.287,3.436,3.436,0,0,1-.407-.218.425.425,0,0,1-.069-.054.534.534,0,0,1-.168-.395V389.5a.537.537,0,0,1,.168-.4.429.429,0,0,1,.069-.053,3.444,3.444,0,0,1,.407-.218,3.291,3.291,0,0,1,1.116-.287c.085-.007.17-.01.256-.01a3.31,3.31,0,0,1,1.393.307,3.429,3.429,0,0,1,.387.209A.524.524,0,0,1,663.187,389.5Z" transform="translate(-659.154 -388.538)" fill="#ccc"/>
      </g>
      <g id="Group_12301" data-name="Group 12301" transform="translate(0.644 0.01)" opacity="0.2">
        <path id="Path_7539" data-name="Path 7539" d="M670,388.7v21.756a3.294,3.294,0,0,1-1.116-.287V388.982A3.294,3.294,0,0,1,670,388.7Z" transform="translate(-668.884 -388.695)" fill="#fff"/>
      </g>
      <g id="Group_12302" data-name="Group 12302" transform="translate(3.409 0.307)" opacity="0.09" style="mix-blend-mode: multiply;isolation: isolate">
        <path id="Path_7540" data-name="Path 7540" d="M711.292,393.838v19.85a.524.524,0,0,1-.237.447,3.328,3.328,0,0,1-.387.208V393.182a3.437,3.437,0,0,1,.387.209A.525.525,0,0,1,711.292,393.838Z" transform="translate(-710.668 -393.182)"/>
      </g>
      <g id="Group_12303" data-name="Group 12303" transform="translate(0 0.568)" opacity="0.09" style="mix-blend-mode: multiply;isolation: isolate">
        <path id="Path_7541" data-name="Path 7541" d="M659.322,397.124v20.64a.534.534,0,0,1-.168-.395v-19.85A.537.537,0,0,1,659.322,397.124Z" transform="translate(-659.154 -397.124)"/>
      </g>
    </g>
  </g>
  <g id="Group_12308" data-name="Group 12308" transform="translate(6.341 18.525)">
    <g id="Group_12306" data-name="Group 12306" transform="translate(0 0)">
      <rect id="Rectangle_2163" data-name="Rectangle 2163" width="0.32" height="11.47" fill="#3a444a"/>
    </g>
    <g id="Group_12307" data-name="Group 12307" transform="translate(24.131 0)">
      <rect id="Rectangle_2164" data-name="Rectangle 2164" width="0.32" height="11.47" fill="#3a444a"/>
    </g>
  </g>
  <g id="Group_12313" data-name="Group 12313" transform="translate(0 58.853)">
    <g id="Group_12309" data-name="Group 12309" transform="translate(1.049 3.543)">
      <rect id="Rectangle_2165" data-name="Rectangle 2165" width="17.72" height="0.8" fill="#3a444a"/>
    </g>
    <g id="Group_12310" data-name="Group 12310" transform="translate(4.669 0.724)">
      <path id="Path_7542" data-name="Path 7542" d="M352.373,1093.165h-2.832v-6.393h2.832Zm-2.512-.32h2.191v-5.752h-2.191Z" transform="translate(-349.541 -1086.772)" fill="#3a444a"/>
    </g>
    <g id="Group_12311" data-name="Group 12311" transform="translate(0 0)">
      <path id="Path_7543" data-name="Path 7543" d="M285.394,1079.775c0,2.178-1.435,3.944-3.205,3.944a2.732,2.732,0,0,1-1.538-.483,4.149,4.149,0,0,1-1.667-3.46c0-2.177,1.435-3.943,3.205-3.943a2.642,2.642,0,0,1,.844.138A3.9,3.9,0,0,1,285.394,1079.775Z" transform="translate(-278.984 -1075.832)" fill="#ccc"/>
    </g>
    <g id="Group_12312" data-name="Group 12312" transform="translate(0 0)" opacity="0.2">
      <path id="Path_7544" data-name="Path 7544" d="M284.344,1080.916c-.667,1.93-2.3,2.938-3.693,2.32a4.149,4.149,0,0,1-1.667-3.46c0-2.177,1.435-3.943,3.205-3.943a2.642,2.642,0,0,1,.844.138C284.442,1076.727,285.029,1078.934,284.344,1080.916Z" transform="translate(-278.984 -1075.832)" fill="#fff"/>
    </g>
  </g>
  <g id="Group_12316" data-name="Group 12316" transform="translate(8.366 40.731)">
    <g id="Group_12314" data-name="Group 12314" transform="translate(0 0)">
      <rect id="Rectangle_2166" data-name="Rectangle 2166" width="0.32" height="13.892" fill="#3a444a"/>
    </g>
    <g id="Group_12315" data-name="Group 12315" transform="translate(20.081 0)">
      <rect id="Rectangle_2167" data-name="Rectangle 2167" width="0.32" height="13.892" fill="#3a444a"/>
    </g>
  </g>
  <g id="Group_12317" data-name="Group 12317" transform="translate(18.27 34.111)">
    <path id="Path_7545" data-name="Path 7545" d="M555.086,709.243l.246-7.255v-.041h.08v.041l.246,7.255.01.287h-.594Z" transform="translate(-555.076 -701.946)" fill="#ccc"/>
  </g>
</svg>
