<svg xmlns="http://www.w3.org/2000/svg" width="108.238" height="98.04" viewBox="0 0 108.238 98.04">
  <path id="Path_21519" data-name="Path 21519" d="M215.229,437.256c-.1,0-.2,0-.326,0-3.821,0-18.918-.833-31.711-1.582-4.2-.457-8.088-.964-10.994-1.5h-.01l0,0h0c-.021.007-.041.019-.062.029a.538.538,0,0,0,.045-.123c.041-.173-.006-.331-.105-.355a.182.182,0,0,0-.177.1.166.166,0,0,0-.108-.137c-.063-.015-.13.028-.182.105a.186.186,0,0,0-.114-.165c-.068-.015-.142.039-.2.13,0-.1-.039-.18-.1-.2l9.188-7.807c12.063,2.337,27.8,5.319,31.646,5.71h0a.021.021,0,0,0,.021-.02.021.021,0,0,0-.018-.022c-3.838-.39-19.551-3.365-31.609-5.7l.35-.3c14.807.77,32.223,1.553,32.519,1.566h0a.021.021,0,0,0,.021-.019.022.022,0,0,0-.02-.021c-.3-.014-17.68-.795-32.476-1.566l9.027-7.669,23.942,1.339h0a.021.021,0,0,0,.02-.019.02.02,0,0,0-.019-.021l-23.9-1.339,22.482-19.1a.024.024,0,0,0,0-.031.022.022,0,0,0-.03,0l-22.515,19.134-17.63-.987L188.9,397.9a.022.022,0,0,0,0-.03.024.024,0,0,0-.03,0l-16.739,18.8-11.057-.62,15.43-20.9a.022.022,0,0,0,0-.03.022.022,0,0,0-.029.005l-15.446,20.922-1.473-.082a.877.877,0,0,0-.1-.038.463.463,0,0,0,.035-.241.666.666,0,0,0-.385-.444.084.084,0,0,0-.037-.087l-.065-.04a.081.081,0,0,0-.013-.09l13.784-21.249a.02.02,0,0,0-.006-.029.021.021,0,0,0-.028.006l-13.784,21.249a.086.086,0,0,0-.09.024l-.137.168a.083.083,0,0,0,.011.117.047.047,0,0,1,.012,0l-.316.488-.122-.015a.085.085,0,0,0-.061.016l-.416.328-.517.06a.084.084,0,0,0-.072.092.089.089,0,0,0,0,.011c-1.852.573-24.022,7.394-49.4,13.139a.019.019,0,0,0-.016.024.021.021,0,0,0,.02.015h0c25.407-5.75,47.6-12.581,49.411-13.141l0,.006a2.648,2.648,0,0,0-.8,1.017c-1.665,1.49-6.395,5.708-12.316,10.824-8.848,2.979-26.6,8.848-36.525,11.359a.02.02,0,0,0-.016.024.02.02,0,0,0,.02.015l0,0c9.889-2.5,27.553-8.337,36.433-11.327-2.4,2.073-5,4.294-7.661,6.54q-4.518,3.8-8.444,6.986c-8.787,2.193-17.461,4.3-20.117,4.735a.02.02,0,0,0-.017.022.022.022,0,0,0,.02.018h0c2.648-.438,11.276-2.53,20.035-4.714-2.9,2.351-5.556,4.439-7.927,6.239q-4.974,3.773-8.3,5.861-2.284.329-4.639.645a.021.021,0,0,0-.018.024.021.021,0,0,0,.02.016h0q2.307-.31,4.548-.631a25.987,25.987,0,0,1-3.735,2.019.021.021,0,0,0,.008.04h.008a26.616,26.616,0,0,0,3.819-2.072c5.49-.789,10.651-1.621,15.3-2.426q-2.16,2.18-4.154,4.082-3.3,3.144-6.107,5.489c-3.175,1.557-5.9,2.82-7.888,3.62a.021.021,0,0,0-.012.027.023.023,0,0,0,.019.014l.007,0c1.958-.788,4.627-2.024,7.737-3.546a43.916,43.916,0,0,1-7.754,5.4.021.021,0,0,0-.009.029.021.021,0,0,0,.018.011.016.016,0,0,0,.009,0,44.437,44.437,0,0,0,7.893-5.516c6.554-3.216,15.033-7.686,22.969-11.965,1.536-.3,2.927-.584,4.155-.838-1,1.1-2.051,2.228-3.14,3.377-1.524,1.612-3.187,3.323-4.959,5.081-14.8,6.76-26.757,11.482-26.936,11.553a.022.022,0,0,0-.012.028.023.023,0,0,0,.019.013.01.01,0,0,0,.007,0c.179-.069,12.086-4.77,26.836-11.508-3.184,3.156-6.717,6.458-10.423,9.594a142.593,142.593,0,0,1-15.876,4.675.021.021,0,0,0-.015.025.02.02,0,0,0,.02.016h0a142.611,142.611,0,0,0,15.779-4.642,93.27,93.27,0,0,1-16.342,11.4.02.02,0,0,0-.009.027.019.019,0,0,0,.018.011h.009a92.647,92.647,0,0,0,16.457-11.478c6.193-2.159,12.34-4.591,17.373-6.679,6.64-2.755,12.315-5.311,15.536-6.792l-2.509,16.411-6.981,19.774-1.82.46-.082,1.484,2,.163,1.525-.645.109-1.336-1.348-.169,7.428-10.073,2.013,9.485-.032.377-.8.262v.781l1.084.083.754-.3v-.782l-.709-.05.023-.278,1.484-3.073h0l.506-1.048,2.23,5.143a.078.078,0,0,0,.039.037l-1.5.44v1.459l1.916.138,1.428-.687v-1.332l-1.318-.109-.028-.474,1.577-7.72h0l.293-1.432,6.525,8.9-1.036.194v.906l1.332.193,1.016-.347v-.929l-.975-.079-.016,0a.131.131,0,0,0,0-.02.206.206,0,0,0,0-.027v0l-5.72-19.013-1.929-16.5a2.576,2.576,0,0,0,2.124-.1s0,.008.006.011a.086.086,0,0,0,.057.022.088.088,0,0,0,.06-.024l.055-.056.236.182a.083.083,0,0,0,.051.018.1.1,0,0,0,.054-.022,1.165,1.165,0,0,0,.629.2c.036,0,.071,0,.106,0,.675-.074,1.268-.857,1.866-1.721a7.567,7.567,0,0,1,1.342-1.619q.859.089,1.812.171c8.554.827,37.947,3.654,41.113,3.7h0a.021.021,0,0,0,.02-.02.025.025,0,0,0-.02-.022c-2.9-.041-27.8-2.417-38.541-3.451,13.766,1.021,36.416,1.457,36.674,1.461h0a.019.019,0,0,0,.02-.019.021.021,0,0,0-.019-.021c-.275,0-25.958-.5-39.243-1.669l-2.12-.206a.039.039,0,0,0,.022-.02.091.091,0,0,0,0-.081.242.242,0,0,0-.082-.051,1.076,1.076,0,0,0-.247,0,.634.634,0,0,0-.11.051h-.13c-.034,0-.076-.034-.1-.034a.458.458,0,0,1-.123-.049c.021-.175-.04-.323-.139-.339-.061-.007-.123.039-.167.117-.024-.073-.067-.12-.121-.127s-.127.04-.171.121c-.022-.084-.069-.146-.129-.153s-.138.052-.183.147c-.013-.1-.058-.181-.126-.194a.181.181,0,0,0-.166.1.169.169,0,0,0-.107-.136.176.176,0,0,0-.171.089.161.161,0,0,0-.1-.134.19.19,0,0,0-.189.094.174.174,0,0,0-.1-.155c-.069-.021-.149.031-.209.123,0-.1-.034-.178-.1-.2s-.169.036-.234.147c.015-.124-.02-.226-.094-.252a.177.177,0,0,0-.176.069.165.165,0,0,0-.083-.148c-.064-.027-.146.012-.214.093a.181.181,0,0,0-.085-.185c-.09-.039-.216.055-.288.207a4.517,4.517,0,0,1-.652-.292l-1.019-2.579a.665.665,0,0,0,.345.1.353.353,0,0,0,.071-.006,1.323,1.323,0,0,0,.761-.438v2.177l.062.062v.106l.248.048v.238l.184-.062.176.134v-.134h.319l.051.172.021-.172.243-.063.045.235.01-.172.216-.073.247.185.185.011v.084h.237v-.43h.1l-.031.224h.2a.374.374,0,0,0,.031-.176c0-.124.227.084.227.084l-.041-.177h.134l-.006-.209a3.251,3.251,0,0,0,1.366-.576,1.916,1.916,0,0,0,.9-1.62c12.32.943,33.46,2.471,41.084,2.471.353,0,.679,0,.971-.011a.02.02,0,0,0,.021-.02.022.022,0,0,0-.021-.02h0q-.439.009-.971.009c-7.624,0-28.762-1.526-41.081-2.469a4.7,4.7,0,0,0-.276-1.6,2.189,2.189,0,0,1,.633-2.269c.833.208,3.183.536,6.359.921,10.1,1.493,28.83,4.2,34.129,4.509h0a.019.019,0,0,0,.02-.019.02.02,0,0,0-.019-.021c-5.05-.3-22.3-2.769-32.65-4.293,11.831,1.391,32.365,3.372,32.648,3.4a.021.021,0,0,0,.022-.019.021.021,0,0,0-.019-.022c-.293-.029-22.608-2.181-34.111-3.574-3.468-.514-5.92-.882-6.463-.966a.082.082,0,0,0-.076-.077l-.615-.037c.019-.151-.027-.28-.115-.3-.06-.015-.126.025-.178.1a.166.166,0,0,0-.108-.138c-.062-.015-.13.029-.183.106a.183.183,0,0,0-.114-.166c-.068-.016-.142.039-.2.13,0-.1-.041-.185-.107-.2a.172.172,0,0,0-.174.081.168.168,0,0,0-.094-.145.173.173,0,0,0-.179.071.161.161,0,0,0-.084-.142c-.059-.025-.134.008-.2.076a.173.173,0,0,0-.086-.164c-.066-.029-.151.016-.219.1a.2.2,0,0,0-.077-.208c-.073-.033-.172.022-.247.126.026-.122,0-.229-.07-.263a.18.18,0,0,0-.182.054.163.163,0,0,0-.069-.156c-.061-.034-.146,0-.222.07a.181.181,0,0,0-.066-.19c-.089-.05-.228.038-.313.19l-.633-.164-.144-.147-1.165-2.447.674-.572c.062.025.125.053.194.08a4.771,4.771,0,0,0,2.419.085,2.25,2.25,0,0,0,2.3-1.549c.23-.437.44-.79.618-1.069,1.767.107,3.743.227,5.854.352,8.435,1.709,24.2,4.742,33.653,5.553h0a.02.02,0,0,0,.02-.019.019.019,0,0,0-.019-.02c-9.34-.8-24.862-3.777-33.362-5.5,1.594.095,3.261.194,4.97.294,12.817,1.4,28.618,2.348,28.829,2.361h0a.022.022,0,0,0,.021-.021c0-.012-.009-.019-.02-.023-.2-.011-15.333-.92-27.989-2.268,12.608.736,27.137,1.534,30.875,1.534.12,0,.228,0,.326,0a.021.021,0,0,0,0-.042ZM172.2,434.22c.03,0,.153.032.359.075a8.271,8.271,0,0,0-.508.718l-.568-.035a2.432,2.432,0,0,1,.5-.626.2.2,0,0,0,.09-.065A.628.628,0,0,1,172.2,434.22Zm-.684-.065c.015.087.055.15.114.164a.186.186,0,0,0,.178-.1.167.167,0,0,0,.1.135,2.612,2.612,0,0,0-.477.619l-1.79-.107.984-.837a.123.123,0,0,0,.072.07.192.192,0,0,0,.194-.089c.01.084.047.147.1.163s.157-.037.216-.137c0,.115.047.2.12.222S171.461,434.232,171.513,434.155Zm-4.9,6.909,1.134.753v.085h-.024v.243c-.138.014-.24.06-.24.115s.1.1.24.113v.111c-.138.015-.24.061-.24.115s.1.1.24.114v.09c-.141.013-.244.058-.244.115s.1.1.244.114v.091c-.141.012-.244.058-.244.114s.1.1.244.114v.067c-.138.013-.24.059-.24.115s.1.1.24.114v.1c-.138.012-.24.058-.24.112s.1.1.24.114v.092c-.138.014-.24.06-.24.114a.057.057,0,0,0,.02.038,8.7,8.7,0,0,1-1.415.637.079.079,0,0,0-.1-.045l-.31.091a.08.08,0,0,0-.046.037,1.72,1.72,0,0,1-1.041-.1l-.281-.708.025-1.394a.132.132,0,0,0,.108-.02.188.188,0,0,0,.033-.21.177.177,0,0,0,.194,0c.057-.048.055-.151,0-.256.1.061.2.073.252.022a.186.186,0,0,0,.013-.208.182.182,0,0,0,.2-.006.187.187,0,0,0,.015-.2.161.161,0,0,0,.174-.014c.054-.05.047-.149-.006-.249l.559-.57.332.18a.072.072,0,0,0,.073,0l.324-.143Zm-1.8,4.328c.093.008.19.016.288.022a1.02,1.02,0,0,0-.183.244Zm-.017-.042-.179-.452a1.444,1.444,0,0,0,.621.106c.111,0,.24-.009.384-.022a.109.109,0,0,0,0,.025c0,.005.009.009.012.016a2.607,2.607,0,0,0-.5.354C165.027,445.368,164.912,445.357,164.8,445.35Zm.556,16.4-1.285-1.411,1.04-.688Zm.6,5.172-1.461-1.349,1.226-.667Zm-.167,12.948,1.353,1-.245.509Zm-.97-1.323-.013-.086.971-.578-.314,1.541h0Zm-2.591,2.832h-.624l-.791-.543,1.935-1.15.032.551Zm.571-.807.047.807h-.437Zm-3.989,4.937h-.749l-.716-3.373,1.585,1.932Zm.421-1.075.88,1.075h-.97Zm-1.862-2.531h1.742l-.161,1.928Zm-.023-.166,1.363-2.129.5,1.147-.082.982Zm-3.15.283-.063-.224.219.014Zm-.125.17-3.628,4.921,3.416-5.332.1,0Zm-2.319-.543,1.919.12-4.369,6.82Zm2.021-.038-1.964-.124,1.162-3.29.9,3.262Zm.83-8.034,1.342.239.027.344-2.522,2.683Zm1.775-6.339,1.435,1.2-1.741.8Zm.82-5.363,1.157,1.2-1.455.739Zm.788-5.155.91,1.178-1.209.778Zm.012-7.747a.426.426,0,0,1-.2-.06c-.107-.07-.132-.2-.075-.388.152-.507.421-1.32.693-2.021l.5.465-.054,1.8C158.707,448.81,158.391,448.887,158,448.971Zm.809-.145a2.7,2.7,0,0,1-.609.142C158.459,448.912,158.67,448.861,158.813,448.826Zm-8.069-1.612a1.194,1.194,0,0,0-.022-.166l.269-.07c.055.174.131.3.18.284s.053-.157.014-.337c.081-.021.167-.047.256-.071.056.168.13.288.178.275s.053-.154.016-.333c.081-.024.164-.047.249-.074.055.172.13.29.178.279s.053-.159.015-.339c.079-.023.16-.05.242-.075.063.164.141.276.187.261s.046-.152,0-.324c.092-.029.183-.061.277-.093.062.159.137.267.183.253s.046-.15,0-.319c.084-.028.168-.058.253-.089.074.16.16.268.206.249s.035-.152-.018-.32c.086-.031.172-.064.258-.1.075.162.162.273.208.254s.035-.158-.02-.329c.076-.03.152-.062.229-.094.078.154.167.258.211.238s.031-.153-.027-.316c.095-.039.188-.081.283-.124.081.147.168.243.211.223s.027-.149-.032-.306c.086-.04.171-.081.255-.122.085.143.174.234.217.212s.022-.148-.04-.3l.211-.109c.1.166.2.277.25.253s.013-.177-.072-.351c.056-.031.111-.063.166-.1a.161.161,0,0,0,.15.074c.069-.014.114-.091.127-.2.049.074.112.118.173.106s.11-.085.125-.18a.28.28,0,0,0,.093.08.529.529,0,0,0,.017.135c.043.175.158.292.257.268.068-.016.109-.1.115-.2a.185.185,0,0,0,.179.1.15.15,0,0,0,.093-.1l.871.81q-2.451,1.287-4.939,2.542c-.292-.172-.6-.373-.952-.607A9.842,9.842,0,0,0,150.744,447.214Zm-6.758,1.081c.861-.943,1.688-1.864,2.476-2.751,5.109-2.785,9.616-5.275,12.712-6.995l-.15,5.1a.113.113,0,0,0-.076.014.185.185,0,0,0-.063.2c-.01-.007-.02-.016-.03-.021a.482.482,0,0,0-.052-.209c-.078-.159-.216-.252-.307-.207a.18.18,0,0,0-.074.188.169.169,0,0,0-.171-.036.188.188,0,0,0-.074.2.18.18,0,0,0-.192-.053c-.063.03-.087.118-.07.224-.068-.079-.149-.117-.212-.09a.18.18,0,0,0-.083.174.165.165,0,0,0-.164-.054.182.182,0,0,0-.092.171.158.158,0,0,0-.155-.057c-.062.019-.1.091-.1.185a.172.172,0,0,0-.17-.072c-.068.021-.107.107-.1.218-.055-.082-.128-.128-.192-.11s-.12.125-.112.252c-.057-.109-.144-.177-.219-.158a.179.179,0,0,0-.107.157.166.166,0,0,0-.152-.076c-.068.015-.114.093-.126.2-.048-.074-.112-.118-.173-.106-.1.019-.154.177-.12.35a.5.5,0,0,0,.016.063c-.056.034-.113.067-.17.1-.089-.138-.179-.227-.221-.2s-.019.147.048.3c-.069.037-.138.072-.207.108-.093-.17-.2-.283-.243-.261s-.018.175.061.352c-.081.038-.162.078-.244.115-.086-.168-.186-.285-.233-.262s-.024.171.049.347c-.092.041-.183.084-.276.123-.082-.169-.176-.282-.222-.261s-.029.166.036.339c-.074.033-.148.062-.222.092-.075-.163-.162-.275-.208-.256s-.035.158.021.329c-.087.033-.172.068-.257.1-.075-.17-.165-.283-.212-.265s-.036.162.022.335l-.24.087c-.064-.174-.146-.3-.195-.281s-.046.165,0,.348l-.274.092c-.064-.171-.145-.291-.192-.275s-.047.161,0,.337l-.235.076c-.056-.166-.129-.283-.175-.27s-.054.153-.017.329c-.086.025-.168.05-.249.075-.055-.17-.13-.288-.177-.276s-.054.156-.016.331c-.089.025-.175.052-.256.073-.056-.167-.128-.282-.176-.27s-.052.149-.018.323c-.1.027-.186.05-.269.07-.054-.167-.125-.283-.173-.272s-.054.149-.021.321l-.239.059a.131.131,0,0,0,0-.014.084.084,0,0,0-.1-.064l-.429.1a.08.08,0,0,0-.06.06C148.826,447.267,146.862,447.7,143.986,448.3Zm5.718-21.981-.076.091c-.044-.009-.077-.013-.1-.016Zm.077-.027.213-.077c.073.167.159.283.207.265s.038-.161-.018-.336l.26-.1c.073.168.162.282.209.264s.036-.162-.021-.336c.078-.032.162-.064.247-.1.073.163.159.274.205.256s.036-.16-.019-.333c.078-.03.158-.064.239-.1.073.165.16.275.207.257s.036-.162-.022-.338c.077-.031.154-.065.234-.1.08.154.169.258.214.239s.029-.157-.033-.323c.088-.038.176-.079.266-.121.078.152.165.252.209.232s.03-.153-.029-.317l.242-.117c.091.152.187.251.231.228s.019-.158-.052-.318q.123-.06.246-.126c.092.156.19.255.235.233s.018-.163-.056-.326c.073-.038.145-.077.218-.117.094.144.193.238.235.214s.014-.154-.061-.311c.09-.05.18-.1.268-.154.1.139.193.223.234.2s.012-.149-.064-.3c.081-.048.161-.1.24-.149.1.133.2.214.238.189s.007-.148-.072-.294l.2-.133c.113.156.232.255.275.226.026-.016.018-.08-.015-.162l.036.016.011.018a.08.08,0,0,0,.062.038h.009a.069.069,0,0,0,.034-.008h0l1.367,1.354c-.1.474-.167.844-.181.977a2.7,2.7,0,0,0,.014.476c0,.045.008.093.012.139a1,1,0,0,1-.145.028,3.611,3.611,0,0,1-.491.014,2.772,2.772,0,0,0-.608.038c-.022-.025-.035-.043-.036-.043a.02.02,0,0,0-.029-.006.02.02,0,0,0,0,.028.2.2,0,0,0,.02.028c-.058.009-.122.017-.192.029-.157.028-.3.055-.433.085a3.35,3.35,0,0,1-2.193-.172,15.816,15.816,0,0,0-2.471-.63Zm6.727-8.9.577-.518a.04.04,0,0,0,.015.009,2.609,2.609,0,0,0,0,.442c-.124.156-.281.351-.469.584a.466.466,0,0,1-.136-.219A.551.551,0,0,1,156.509,417.386Zm2.742.158a.034.034,0,0,0,.022.011.014.014,0,0,0,.008,0,.021.021,0,0,0,.009-.007l.291.469-.081.11-.318-.684c0-.026,0-.052,0-.075l.068.108A.108.108,0,0,0,159.251,417.545ZM166.2,433.69c-.119-.114-.265-.156-.334-.09a.184.184,0,0,0-.016.2.166.166,0,0,0-.174.013.192.192,0,0,0-.013.211.183.183,0,0,0-.2.006c-.051.047-.047.138,0,.233a.2.2,0,0,0-.229-.022.18.18,0,0,0-.029.191.166.166,0,0,0-.172,0,.159.159,0,0,0-.046.151l-.5-.032.048-2.681,2.2,1.378Zm-1.417,1.127a.173.173,0,0,0-.183-.017c-.06.038-.071.134-.036.237a.342.342,0,0,0-.08-.048l.007-.4.337.02A.19.19,0,0,0,164.782,434.817Zm.3,5.206-.239.241-.447-.244.011-.653.234.009Zm-.238-.64.843.033-.488.491Zm1.421,1.657-.466-.253-.361-.531.9-.2.648.659Zm-1.035.421c-.119-.113-.264-.154-.335-.09a.187.187,0,0,0-.016.2.168.168,0,0,0-.174.014.187.187,0,0,0-.014.21.183.183,0,0,0-.2.005c-.051.047-.047.14,0,.233a.318.318,0,0,0-.133-.047l.033-1.783,1.313.716h0l.034.018Zm-1.03,10.37-.993.694c-.212-.074-.427-.141-.64-.209-.094-.03-.186-.058-.277-.089l-.005-.5a.052.052,0,0,0,.014,0c.065-.041.076-.144.04-.256.083.068.174.094.232.054a.189.189,0,0,0,.045-.208.169.169,0,0,0,.183.018.189.189,0,0,0,.043-.213.18.18,0,0,0,.191.012.192.192,0,0,0,.034-.213.175.175,0,0,0,.194,0c.057-.048.055-.15,0-.255.1.061.2.075.252.022a.228.228,0,0,0,.018-.022l.651,1.024Zm.3,2.542-.9.716-1.3-1.67v-.032l2.2.98Zm.306,2.613-2.422,1.212-.032-.012-.019-1.881,1.238-.984,1.225,1.578Zm.6,5.1-2.876,1.293-.122-.046-.019-1.875,1.554-1.027,1.457,1.6Zm.616,5.263-3.043,1.357-.519-.171-.018-1.834,1.916-1.042,1.643,1.515Zm1.208,13.372-1.606-1.19.342-1.672.052,0,1.375,2.529Zm.26-.161.322.592-.447-.331Zm-7.834.783-.128-.3.071-.849.922.629Zm1.016-.413.656.449h-1.411Zm-7.343-3.7,2.675-2.846.228,2.936-2.986.143Zm2.828-3.009.544-.578.7,2.56h-.249l-.217,1.085-.539.024Zm-.21-.573-.49-.089h.483Zm.177.156a.1.1,0,0,0,.018-.039.081.081,0,0,0-.027-.074l-.01-.131h.445l-.411.439Zm-.081-4.27.015-.1,1.91-.879.852.713-2.779.272Zm.842-5.514,1.6-.815,1.83,1.9-.007.16-.343.141-3.129-1.093Zm.784-5.125,1.343-.864L160.529,460l0,.055-.248.108-2.652-1.061Zm-1.076-14.112a.526.526,0,0,0,.026.046.076.076,0,0,0-.025-.015C156.584,444.8,156.584,444.79,156.583,444.778Zm-.42-6.322a7.962,7.962,0,0,0,1.457-.143c-.157.331-.35.522-.58.564-.385.071-.765-.3-.878-.416Zm0-.043a.08.08,0,0,0-.083-.062l-.6.031a.083.083,0,0,0-.076.076c-.061.01-.1.019-.1.019a3.246,3.246,0,0,1-2.486-.358c1.723-2.09,2.795-3.462,3.035-3.772l2.282,2a11.75,11.75,0,0,1-.405,1.705c-.028.079-.057.151-.087.218A7.767,7.767,0,0,1,156.164,438.413Zm-5.911-2.3c.058-.014.149-.035.272-.066.055.176.129.3.178.286s.054-.155.018-.334c.082-.023.172-.045.269-.071.055.172.131.3.18.284s.053-.158.014-.338l.256-.072c.056.17.13.289.178.274s.053-.153.016-.33c.081-.024.164-.048.249-.076.055.172.13.292.178.279s.053-.158.015-.338c.079-.023.16-.049.242-.075.063.164.141.274.187.26s.046-.151,0-.325c.092-.029.183-.06.277-.092.062.159.137.266.183.252s.046-.149,0-.318l.253-.09c.074.159.16.267.206.249s.035-.152-.018-.318l.258-.1c.075.164.162.273.208.256s.035-.158-.02-.329c.076-.031.152-.064.229-.093.078.153.167.255.211.236s.031-.152-.027-.315c.095-.041.188-.081.283-.126.081.148.168.244.211.224s.027-.148-.032-.306l.255-.124c.085.144.174.235.217.213s.022-.146-.04-.3c.046-.022.091-.047.137-.071a.112.112,0,0,0,.062-.005.078.078,0,0,0,.022-.015c.094.157.195.259.24.236s.013-.177-.072-.35a.257.257,0,0,1,.025-.015.112.112,0,0,0,.058-.006.116.116,0,0,0,.061-.063l.087-.049-.045-.076a.166.166,0,0,0,.175.036c.071-.035.091-.147.056-.27.079.1.178.143.247.108s.089-.136.062-.252c.077.076.165.109.227.073l.009-.008a.247.247,0,0,0-.02.119.167.167,0,0,0-.164-.042c-.064.027-.092.113-.082.219a.185.185,0,0,0-.192-.068c-.072.03-.1.134-.078.253l-.125.053a.079.079,0,0,0-.049.063.081.081,0,0,0,.018.061c-.232.3-1.308,1.678-3.044,3.782a5.159,5.159,0,0,1-.894-.628,6.289,6.289,0,0,0-1.794-1.274Zm6.5-2.61a.2.2,0,0,0,.062-.211.178.178,0,0,0,.189.03.194.194,0,0,0,.052-.21.173.173,0,0,0,.193.019c.061-.041.068-.145.025-.254.092.07.19.091.249.045a.151.151,0,0,1,.231-.194.187.187,0,0,0,.033-.2.171.171,0,0,0,.174,0,.141.141,0,0,0,.046-.115l1.4-1.539-.086,2.9c-.067-.01-.138.045-.188.137-.007-.1-.047-.175-.111-.193s-.166.049-.223.163c.006-.125-.036-.224-.112-.245a.175.175,0,0,0-.17.081v-.008c.028-.322.049-.6.06-.8a.146.146,0,0,0,.127-.017.183.183,0,0,0,.032-.2.169.169,0,0,0,.175,0c.08-.065.056-.227-.055-.368s-.264-.2-.344-.139a.183.183,0,0,0-.034.2.167.167,0,0,0-.175,0,.187.187,0,0,0-.031.207.184.184,0,0,0-.2-.012c-.055.043-.059.135-.021.233a.2.2,0,0,0-.227-.044.182.182,0,0,0-.045.188.167.167,0,0,0-.171-.018.18.18,0,0,0-.055.184.162.162,0,0,0-.164-.021.188.188,0,0,0-.063.2.176.176,0,0,0-.181-.035c-.063.036-.081.129-.056.237a.194.194,0,0,0-.211-.07c-.072.036-.09.149-.056.27-.078-.1-.177-.142-.247-.106-.005,0-.01.007-.015.01a.249.249,0,0,0,.017-.15A.179.179,0,0,0,156.751,433.5Zm-.465-6.626a2.662,2.662,0,0,1-.014-.467c.013-.134.075-.49.174-.948l1.049,1.039a7.843,7.843,0,0,1-1.2.508C156.294,426.96,156.289,426.915,156.285,426.873Zm-1.94-2.941c-.006-.01-.012-.017-.018-.027l.032.015A.065.065,0,0,0,154.346,423.932ZM155,423.2a.18.18,0,0,0,.2.019c.064-.046.066-.16.013-.276.092.082.2.113.261.068s.066-.149.021-.258c.088.062.179.08.235.036a.186.186,0,0,0,.031-.208.173.173,0,0,0,.184,0,.192.192,0,0,0,.028-.217.18.18,0,0,0,.191,0,.192.192,0,0,0,.018-.214.176.176,0,0,0,.194-.01c.054-.053.043-.153-.016-.256.1.053.2.059.253,0a.187.187,0,0,0,0-.21.177.177,0,0,0,.2-.019.182.182,0,0,0,0-.2.168.168,0,0,0,.172-.028.069.069,0,0,0,.015-.024l.386.031a.114.114,0,0,0-.062.034.188.188,0,0,0,0,.21.176.176,0,0,0-.2.019c-.047.049-.036.142.016.233-.092-.048-.181-.055-.23-.006a.177.177,0,0,0-.015.191.166.166,0,0,0-.172.01.18.18,0,0,0-.025.192.163.163,0,0,0-.165,0,.191.191,0,0,0-.031.211.173.173,0,0,0-.184-.006c-.056.044-.059.138-.019.24a.2.2,0,0,0-.219-.034c-.064.048-.066.16-.013.277-.093-.083-.2-.113-.261-.066a.159.159,0,0,0-.049.155l-.031.011a.146.146,0,0,0-.132,0,.124.124,0,0,0-.047.061l-.554.188A.257.257,0,0,0,155,423.2Zm4.381-7.2a1.761,1.761,0,0,1-.531.515l-.323-.522a.155.155,0,0,0,.025,0l.368.046a.081.081,0,0,0,.088-.056Zm-.248,1.282c0,.019,0,.038.006.059l-.092-.2Zm.257.99-.108.146-.19-.587a.744.744,0,0,0,.044-.1Zm5.33,6.73-.726.162-.18-.365.328-.35.082.007.583.448Zm.12-.073.046.035-.1.022Zm-.989,9.617c.02,0,.127.009.311.019l0,.206-1.5-.92-.01-.023,1.539-.6-.023,1.291c-.182-.01-.289-.018-.309-.019a.022.022,0,0,0-.021.019A.02.02,0,0,0,163.85,434.552Zm-.333,1.375-.23-.553.732-.15a.205.205,0,0,0-.019.113l-.01.013a.152.152,0,0,0-.155-.02c-.061.033-.082.119-.063.224a.186.186,0,0,0-.2-.051c-.089.047-.095.213-.012.369Zm.074,6.882a.2.2,0,0,0-.217-.049c-.068.043-.077.155-.033.275-.087-.088-.189-.128-.256-.085a.178.178,0,0,0-.056.18.162.162,0,0,0-.167-.027c-.061.031-.082.12-.063.223a.188.188,0,0,0-.2-.051.14.14,0,0,0-.063.092l-.158-.075,0-.157,1.192-.479A.3.3,0,0,0,163.591,442.809Zm.325,6.6,0,.036-1.02-.088-.37-.581Zm-.845.8c-.051.047-.047.139,0,.234a.2.2,0,0,0-.229-.024.179.179,0,0,0-.03.19.163.163,0,0,0-.172,0,.177.177,0,0,0-.038.188.16.16,0,0,0-.165-.008.189.189,0,0,0-.045.207.225.225,0,0,0-.115-.04l-.01-.96.752-.151.219.346A.161.161,0,0,0,163.07,450.215Zm-1.106,2.725-.791-.252.025-.584c.085.128.206.2.287.151.061-.03.082-.119.062-.222a.185.185,0,0,0,.2.051c.07.027.142.052.214.077Zm-4.287-8.079a.366.366,0,0,0,.079.077l-.08-.007A.333.333,0,0,0,157.676,444.86Zm.308-.083a.17.17,0,0,0,.173.062c.062-.023.095-.1.094-.2a.179.179,0,0,0,.183.058.137.137,0,0,1,.019-.013l.063.027a.136.136,0,0,0,.08.088.125.125,0,0,0,.1-.01l.3.132,0,.131-1.069-.1A.216.216,0,0,0,157.984,444.777Zm-.467-11.142a.172.172,0,0,0,.181.035.192.192,0,0,0,.062-.208.178.178,0,0,0,.189.026.188.188,0,0,0,.051-.206.177.177,0,0,0,.194.018c.061-.043.068-.146.026-.255.092.07.19.091.248.046a.187.187,0,0,0,.031-.208.178.178,0,0,0,.033.016c-.011.186-.029.433-.054.725a.106.106,0,0,0-.058-.046c-.066-.022-.145.02-.207.106a.186.186,0,0,0-.1-.179c-.1-.034-.221.077-.279.247a.48.48,0,0,0-.027.2l-.3-.174A.265.265,0,0,0,157.516,433.635Zm1.333.707c.073.018.157-.043.214-.148.007.107.051.19.119.207a.14.14,0,0,0,.116-.035l0,.1-.692-.059-.152-.087c0-.032.006-.063.01-.1a.1.1,0,0,0,.053.035c.077.021.165-.048.223-.164C158.731,434.22,158.773,434.32,158.849,434.342Zm-2.189-9.8.042-.164,1.186.249-.525.2Zm.481.374-.63.243c.034-.146.07-.3.109-.456Zm-2.439-1.231-.036-.042.027-.01.025.041A.129.129,0,0,1,154.7,423.688Zm1.756-.43c.061-.045.067-.148.021-.258.088.062.18.08.236.036a.188.188,0,0,0,.031-.209.174.174,0,0,0,.184.007.192.192,0,0,0,.028-.216.179.179,0,0,0,.191,0,.187.187,0,0,0,.018-.212.231.231,0,0,0,.155.012,7,7,0,0,0-.29.726.352.352,0,0,0-.2.218c-.1-.014-.359-.054-.608-.1a.49.49,0,0,0-.026-.069C156.289,423.273,156.395,423.3,156.458,423.258Zm.989-1.086c-.018.029-.036.063-.054.1a.344.344,0,0,0-.048-.134A.406.406,0,0,0,157.447,422.172Zm-.355,1.471c0,.089.036.16.094.18s.138-.015.2-.091c.01.088.047.154.106.169.077.021.166-.045.226-.16-.008.124.032.226.108.248s.158-.038.216-.143c.005.108.048.192.116.21s.131-.029.184-.106a.173.173,0,0,0,.109.148c.064.017.134-.03.188-.11.019.08.061.139.119.149s.13-.036.179-.118c.023.082.068.139.128.146h.011l-.959.373-1.226-.79A.211.211,0,0,0,157.092,423.643Zm2.165.357a.421.421,0,0,0,.026.086l-.117.046A.313.313,0,0,0,159.257,424Zm.347-4.046-.081.409-.639-.962-.025-.17.466-.137Zm-.121-.906.232-.069.058.124-.1.52Zm2.384,4.548-.832.235-.281-.865.391-.918Zm1.158-.012.01.02-.225.71-.067,0-.121-.578s0,0,0-.005Zm.384.777-.514-.039.193-.613Zm1.05-.246.181.334c-.111-.009-.22-.014-.329-.023l-.084-.065Zm.2.377.188.348-.48-.368C164.468,424.477,164.565,424.486,164.664,424.492Zm-.7-.09-.176-.014.161-.137.091.071Zm2.407,6.873-.473.759-.447-.519.881-.246Zm-1.824.408-.008-.006.011-.64.428.056.1.113-.454.453Zm-.362,1.378-1.581.61.021-.93.993-.925.568,1.206Zm-.036,1.965-.929.193-.148-.356,1.079.09Zm-.246,3.171-.011-.012.047-.016Zm.154,1.987-.615.532-.224-.395.54-.46.3.166Zm-1.671,2.772.026-1.128.986-.856.624,1.1,0,.18a.192.192,0,0,0-.01.051Zm-.781,8.582a.2.2,0,0,0-.118-.04l.138-.1A.224.224,0,0,0,161.608,451.54Zm-.23.2a.251.251,0,0,0-.132-.063l.142-.1A.281.281,0,0,0,161.378,451.737Zm.329-.391.239-.171v0c-.061.046-.069.154-.025.269A.262.262,0,0,0,161.707,451.346Zm.232-.865-.594-.294.589-.118Zm-.656-.449.014-.643.631.055,0,.457Zm.018-.808.008-.4.614-.107v.08l0,.483Zm.95-.429,0-.14.438.689-.436-.038Zm-.323-.249-.615.107.016-.722.616-.1Zm-2.622-3.292.539.052.493.219-1.069,1.013Zm.106-3.6,1.741-.915-.027,1.279-1.005.828-.713-1.1Zm-1.77-5.956.442-.483.173.339-.009.065-.533.143Zm-.975-1.569a.18.18,0,0,0,.193.052c.069-.035.09-.14.06-.257l0,0c.077.088.171.129.238.1a.193.193,0,0,0,.07-.2l.229.132a.039.039,0,0,0-.008.043l.177.345-.982-.076A.3.3,0,0,0,156.667,434.127Zm.885-.134.666.385-.49-.041Zm.852.1a.363.363,0,0,0,.019.076c0,.042-.009.086-.013.13l-.19-.11A.2.2,0,0,0,158.405,434.092Zm2.047-4.294.359-.38.579.4-.027,1.291-.229-.09Zm.44,1.127-1.1-.435.541-.568Zm-1.077-2.891,1.216-1.226.452.286a.155.155,0,0,0-.036.093v.066l-1.611,1.068-.028.008Zm-.623-2.456c.039-.026.076-.051.112-.077l.24.156-.1.023Zm-.019.169-.4.1.257-.159ZM155.3,423.99a.084.084,0,0,0-.057,0l-.017,0,.317-.14a.146.146,0,0,0,.145.006.136.136,0,0,0,.056-.092l.514-.225.539.347c-.039.136-.076.273-.113.41l-1.326-.279Zm.435-.366a.311.311,0,0,0,.048.028l-.038.017A.29.29,0,0,0,155.734,423.624Zm1.1.091-.383-.249.335.053A.268.268,0,0,0,156.838,423.715Zm-.853-.269a.192.192,0,0,0,.181.029l.009.007-.184.079A.307.307,0,0,0,155.985,423.446Zm.848.459.956.619-1.065-.224C156.759,424.167,156.795,424.038,156.832,423.905Zm5.349-.027.362-.125.115.55-.29-.024Zm1.276.578-.578.5-.074-.35.076-.242.549.042Zm.851,1.9-.678-.065.243-.272.435.316Zm-.934.313-.111.036.085-.1Zm.077-.237-.034-.075.094.008Zm.111-.062.58.054-.611.195-.063-.143Zm-.233.2-.145.162-.42.135.014-.57.451.043Zm.743,12.9-.274.235-.7-.381.974.037Zm-.35.38-.522.445-.6-1.055Zm-2.265,2.114.637-.525-.011.466-.636.549Zm-1.842,3.066a.293.293,0,0,0,.139-.14c.007.106.051.19.119.205a.189.189,0,0,0,.183-.108.172.172,0,0,0,.111.147c.064.016.134-.031.186-.115.021.08.063.14.122.147s.129-.037.177-.119a.23.23,0,0,0,.07.116l-.257.243Zm1.434-.389-.129-.059a.122.122,0,0,0-.063-.03h0l-1.292-.6a.319.319,0,0,0,0-.053l.887-.235.617.952C161.063,444.618,161.057,444.627,161.05,444.634Zm-1.527-.9a.358.358,0,0,0-.021-.043.507.507,0,0,0-.055-.079l.637-.524.274.424Zm2.623-4.546-.038,1.661-.62-.3.028-1.276Zm-.042,1.842,0,.183-.637.525.022-1.011Zm.33-.04.659-.559.225.4-.9.776Zm0-.055.037-1.6.6,1.057Zm.056-2.391.473-.147-.473.151Zm-.33.037-.186-.5.2-.249Zm-.341-.574-.279.044.012-.53.073-.064.563-.091,0,.193Zm-3.51-2.535q.042-.3.076-.59l.247-.27.646.373-.01.352-.9.245Zm.213-.862-.12.131c0-.034.008-.067.012-.1Zm-.1-.056c0-.018,0-.038.007-.059l.064.036Zm1.3-.62a.232.232,0,0,0-.04-.08h.119A.28.28,0,0,0,159.727,433.937Zm1.578-.236-.622,0,.637-.68Zm0,.163-.017.767-.412-.034-.055-.091a.257.257,0,0,0,.077-.1.166.166,0,0,0,.129.119c.1.006.193-.134.2-.311s-.062-.327-.163-.334c-.062,0-.12.047-.159.127-.03-.069-.075-.114-.129-.116s-.124.047-.162.133a.2.2,0,0,0-.111-.136l.025-.026Zm-.044,2.061-.005,0,.005-.007Zm.026-1.212-.011.546-.347-.575Zm-1.029-.8a.145.145,0,0,0-.08-.056h.061l.028.046Zm-.248.051a.208.208,0,0,0-.07-.108h.191A.213.213,0,0,0,160.007,433.965Zm-.011.468a.137.137,0,0,0,.094.065c.075.008.148-.062.19-.173.021.114.08.2.154.2a.167.167,0,0,0,.143-.1l.092.154-.753-.063Zm.727.235.542.9,0,.134-.159.13-1.493-.926,0-.062.231-.248Zm-1.12.505.091.053-.093.024Zm.191.109,1,.573h-1.207l.016-.521Zm1.459.84-.016.737-1.546.313,1.415-1.135Zm1.275.844.076.082-.08.1Zm-.915-2.223.255.02-.266.452Zm0-.084.017-.792.64,0,0,.216-.352.6Zm.643-.235-.006.288-.155-.011Zm.337-.282.259.621-.273-.022Zm-.959-.44v-.039l.654-.609-.015.649Zm.005-.269.017-.778.658-.7-.02.874Zm.043-2.016.639.253v.035l-.659.7Zm-.568-7.171.094-.032c.279.029.608.06.988.091l.236.507-1.273-.32Zm1.772,1.305-.1.1,0-.133.072-.017Zm.272,4.9-.389-.826.819-.151.39.453-.638.582Zm-1.651-4.047.371.423-.078.087-.226-.146Zm-1.77-1.06.277-.649.651.746-.824.209-.067-.044Zm1.049.235.313.359-1.03-.177Zm.09-.023.376-.094.094.518-.119-.02Zm.456-.115,1.023-.261-.929.774Zm1.14-.251-.023.977-.956-.164Zm-.068,1.054-.472.523-.453-.521-.031-.166Zm.382,2.3.184.215-.251-.032,0-.105Zm-.069.268.333.038.413.481-.761.139Zm-.327-.123-.222-.027.235-.521Zm-.238-1.547-.282-.18.062-.07Zm-.469-.1-.021-.008a.058.058,0,0,0-.008-.018l.034.021Zm.06.056.014-.014.648.417-.654.686.021-1A.171.171,0,0,0,161.746,427.1Zm.655.646-.4.9-.254-.03,0-.18Zm-.438.975-.232.513.012-.541Zm-.24.935.412-.915.255.031-.031,1.342-.64-.311Zm.972.193.252.535-.262-.083Zm.989-.392.57-.105-.006.33-.207.19Zm.561.452,0,.194-.092-.106Zm.015-.842-.1-.087.1.012Zm0,.11v.005l-.7.13-.386-.447.849.1Zm-1.163-.4-.252-.293.278-.333.8.722Zm-.329-.456v-.492l.234.212Zm-.361-1.013-.413-.474.458-.508-.023,1Zm.4-1.868,0-.089.035.079Zm0-.418-.05-.008a.17.17,0,0,0-.055-.034l0-.009.066-.206.053.251Zm-.34-.032-1.154.293-.111-.611Zm-1.234.313-.469.12-.7-.807.089-.209.965.242Zm-1.233-.755-.2-.228.268.067Zm-.339-.264.3.348-.239.561-.133-.926Zm-.06,1.21-.146-.1a1.466,1.466,0,0,0,.12-.1Zm1.595.547.217.249.077.424-1.308-.844Zm.241,1.937-1.374.3,1.387-.922Zm0,.086-.01.483-.027.027-1.5-.177Zm-.108.585-.531.556-.989-.684v-.052Zm.092.141-.018.836-.468-.324Zm.3,1.2.64.313-.028,1.194-.639-.254Zm.966.486.362.117.093.2,0,.01-.45-.283Zm.576.184.126.041-.1.024Zm.267-.087.564-.516.15.175,0,.25-.55.141Zm.707.08,0,.144-.249-.079Zm.33-.045.26.3-.264-.035Zm0-.221.367-.084-.367.094Zm-.3-1.472-.2-.024-.885-.8.037-.043,1.054.779Zm-1.211-.937-.3-.267.322.236Zm-.306-.274h0l0,0Zm.016-.662.207-.068-.212.238Zm.02-.826.005-.262,0-.026.067-.1.1-.11.232.534Zm.218-.821,0-.013.014.011Zm-.227-.953-.019-.088.045,0Zm-.05.16-.083.26-.251-.536.279.022Zm-1.419-.416.722-.25.155.331C161.849,424.234,161.555,424.207,161.3,424.182Zm-.351-.054-.308-.021c-.153-.022-.271-.042-.349-.06l.166-.389Zm-.456-.552.162-.381.253.778Zm.5.638a.086.086,0,0,0,.035.037l.008,0,.039.216-.866-.218.039-.091Zm-.865.018-.1-.026a.17.17,0,0,0,.091-.055l.043,0Zm-.184-.047-.116-.03a.117.117,0,0,0,.021-.024l.048,0A.166.166,0,0,0,159.942,424.186Zm-.534.014.151,1.052c-.042.036-.093.077-.15.12L158.2,424.6l1.126-.439A.12.12,0,0,0,159.408,424.2Zm-1.368.484-.168.356-.4-.165.538-.207Zm.07.045,1.156.748-.122.08-1.2-.488Zm1.763,1.346.581.368-.59-.032Zm.005-.188v-.017l.914.591h0Zm1.053.664.008,0-.008,0Zm-.257,2.772-.307.322-.487-.873Zm.684,1.964,0,.13-.094-.171Zm-.033,1.481-.867.928h-.13l-.65-1.076,0-.077,1.661-.534Zm-1.19.925-.488,0,.023-.768Zm-.508.679a.3.3,0,0,0,.035-.047.209.209,0,0,0,.083.132l-.038.04-.084-.006Zm.008.2-.015.015v-.016Zm-.35.223-.515-.3.522.044Zm-1.175-.793a.231.231,0,0,0,.051.146l-.124-.073A.326.326,0,0,0,158.11,434.007Zm.275.464.008,0c0,.031-.008.063-.011.092l-.464.14-.145-.284Zm-.013.186c-.005.046-.01.091-.016.139l-.252.274-.147-.287Zm-.033.279c-.019.155-.04.314-.062.474l-.133-.261Zm-.016.745.089.175h-.158c.008-.055.017-.109.024-.163Zm.081-.021.861-.234-.012.43h-.749Zm.846.279-.011.391-.433.116-.259-.507Zm.33,0h1.132l-1.141.3Zm1.357.025-1.391,1.117.022-.751Zm.3,1.063-.007.335-.818.454-.8-.457Zm-.008.384,0,.182-.482.415-.289-.166Zm-.334.682.325-.28-.006.294-.23.037Zm-1.55,5.954a.186.186,0,0,0,.11.031l1.034.478a.225.225,0,0,0-.066.072.168.168,0,0,0-.107-.128c-.063-.014-.13.031-.183.108-.017-.077-.055-.134-.111-.146s-.146.042-.2.138c-.007-.1-.047-.175-.111-.194s-.166.051-.223.164c.006-.125-.037-.224-.111-.246a.126.126,0,0,0-.04,0Zm.088.736a.347.347,0,0,0,.03.171l-.117-.052A.389.389,0,0,0,159.43,444.783Zm.185,2.156,1.4.114,0,.15-.365.346-1.267-.557Zm1.732.174.035-.032.2.015-.244.3Zm.2-.185.434-.413,0,.1-.262.321Zm-.19-.047.007-.337.455-.1Zm-.33,0-.867-.07.873-.2Zm-.012.549L161,447.7l-.19-.085Zm.323.329v-.1l.45-.552.177.014-.013.53Zm.578-.807.056-.068v.074Zm-.548-.582.008-.39.58.257Zm-.331.076-1.428.323-.317-.026L160.5,445.6l.544.242Zm-.4-.975.378-.359a.2.2,0,0,0,.051.068l-.01.477Zm.447-1.152-.457-.708.475-.127Zm-.55-.854-.314-.484.91-.752-.023,1.085Zm.915-.8.636-.552-.022.946-.626.167Zm2.589-.92-.5-.886.528-.458Zm.378-2.711.057.085-.059.05Zm-.333.231-1.139-.041-.089-.051,1.234-.265Zm-1.232-.176.987-.737.257.275,0,.2Zm-.142.006-.22-.121.008-.342,1.233-.4.052.055Zm-.206-.729.022-.958.2-.246.822.878Zm.039-1.655v-.038l.678-.379-.456.559Zm-.318-.514-.532-.5.547-.114Zm-.621-.646v0l.455-.774.2.017-.015.629Zm.983-.736.311.028.169.4-.492.1Zm.459-.042-.33-.791,1.444.883Zm-.405-2.267.042-1.807.6.374.274.582Zm.9-1.272.28.176-.137.128Zm-.129-.276-.042-.088.32-.084.546.175v.061l-.289.268Zm.819.294,0,.216-.136-.086Zm.884-.148.067.008-.033.032Zm.031.161.172.2-.518.144Zm.058-.059.082-.08.852.111-.731.2Zm.229-.227.4-.4.474.515Zm-.1-.013-.375-.05-.32-.373.945-.242.2.217Zm.32-.832.665-.151-.419.419Zm-1.071.159.019-1.059.8.872Zm-1.3-2.32.448-.535.552,1.273Zm-.133-.1-.382-.282.007-.326.292-.327.392-.127.2.455Zm.467-1.112.63-.2-.472.565Zm.741-.533a.044.044,0,0,1-.007.011l-.4-.291.031-.035.271.1Zm-.442-.3-.1-.071.118.044Zm-.055.061-.261.293-.2-.018-.289-.666.426.156Zm-.706-.461.028-.032.111.082Zm-.05-.189-.155-.113-.033-.075.637-.546.082.166Zm.609-.41.135.274-.494.11Zm-.032-.435.084-.072c.061,0,.122.01.184.013l-.195.208Zm-1.55-.77-.047-.1.813-.231.052.048Zm-.156.055-.841.291-.036-.113-.007-.055.831-.235Zm-1.239-.936-.233-.719.612-.168Zm-.1.231-.187.439-1.107-1.064v-.007l1-.275Zm-1.044-.787.671-.363.053.164Zm-.267.052-.039-.272.3-1.5.471.71.184.566Zm.281-1.882.069-.346.285.879Zm-.74-1.313-.008-.058.336-.454.124.381Zm.652,1.331-.268,1.347-.321-2.233Zm.9,3.119-.2.478h-.027a.532.532,0,0,0,.043-.171c.014-.177-.056-.328-.157-.337-.062,0-.121.046-.161.124a.169.169,0,0,0-.128-.118c-.063-.006-.124.046-.164.13a.2.2,0,0,0-.116-.14l-.14-.976Zm-5.106-.1-.32.044.316-.109A.364.364,0,0,0,155.29,423.5Zm-.338.213.237-.033-.167.178-.084-.136Zm.433,0a.5.5,0,0,0,.076.085l-.259.111Zm1.278.661c-.014.054-.027.105-.041.159l-.84-.343Zm1.139.817-.1.207-.192-.326Zm.076.03,1.1.448c-.11.07-.229.143-.353.216l-.553.136-.316-.537Zm.49.811-.219.123-.036-.059Zm-.381.009-.563.139.287-.605Zm-.509.211.552-.138.046.08c-.072.04-.144.078-.217.116l-.34-.018Zm.622-.018.055.093-.206-.012Zm.072-.04c.12-.066.238-.134.352-.2l.779-.192.245.1-.015.5-1.281-.068Zm1.359.287-.016.534-.725.23-.488-.827Zm.329.018.735.038.142.09-.889.283Zm.968.185.131.083-1.141,1.151.027-.922Zm-.58,3.09-.5.525.04-1.351Zm-.511.873,1.281.509.329.591v.087l-1.66.538Zm-3.428,3.836a.175.175,0,0,0,.084-.166l.079.007a.132.132,0,0,0,.109.009l1.095.087.161.313-.969.289-.607-.532A.1.1,0,0,0,156.31,434.48Zm1.566.325.169.331-.464.505-.638-.558Zm.36.9c-.007.05-.015.1-.023.15h-.388l-.035-.031Zm-.036.233c-.011.071-.023.145-.035.216l-.247-.216Zm.041,0h.213l.271.53-.155.04-.369-.323C158.216,436.1,158.229,436.02,158.242,435.938Zm.523.6.126.245-.245-.213Zm.293.393-.211-.414.391-.106-.019.659Zm1.183.975-.311.174-.321-.534Zm.041.025.325.185-.432.371-.224-.372Zm.4.337.5.959-.019.906-.906-1.5Zm.425,2.09-1.636-.8.008-.254.653-.562Zm-1.641-.623,1.67.821-1.721.9Zm.526,3.212-.636.524.043-1.441Zm-.682,2.118.057.025-.058-.006Zm-.342.408-.118.061c.043-.078.084-.147.123-.2Zm1.552,2.195-.514.488-.591-.975Zm.164.072.315.138-.018.828-.582.1-.307-.507Zm-.458,1.1-.852.148.6-.568Zm.091.151.093.154-.651-.057Zm.175-.03.486-.084-.007.316-.357-.03Zm.476.4-.009.376-.239-.4Zm.972,1.306,0,.309-.72.514.05-1.15Zm-.164,1.387a.231.231,0,0,0,.032-.179.235.235,0,0,0,.144.051l0,.193C161.9,452.1,161.836,452.073,161.778,452.051Zm.484-2.216,0-.365.547.048.116.184Zm.748-.3.509.045-.426.084Zm-.739-1.165.01,0-.006.005Zm0-.187.009-.415,1.4-.24-1.146.693Zm1.578-.847-1.565.264.01-.45,1.428.115Zm-1.551-.35.011-.482,1.052.567Zm-.309-.913-.611-.271.013-.594a.14.14,0,0,0,.042.011c.062,0,.12-.046.159-.125a.171.171,0,0,0,.13.116c.1.007.193-.132.2-.309a.64.64,0,0,0,0-.081l.094-.014Zm-.108-1.413a.156.156,0,0,0-.118-.1c-.062,0-.12.048-.159.127a.169.169,0,0,0-.129-.116.124.124,0,0,0-.07.019l.025-1.2.625-.165-.033,1.4Zm.492-.912.359.776-.378.059Zm1.435-1.186c0,.008,0,.017,0,.025l-.028-.017Zm.091-2.815.174-.147,0,.239Zm.7-.732-.126-.186.457-.1Zm-.629-.759.133-.1,0,.239Zm-.248-.266-.767-.82,1.126.709Zm-.816-1.045.572-.7.6,1.44Zm.386-.734-.748.419.025-1.107.561-.116.276.663Zm.91-3.563-.448-.953.208-.192.258.161Zm.475-.916.7-.194.489.566-.152.245-.059.017-.988-.619Zm1.536.654,1.028-.272.543.59-1.539-.281Zm-.271-.1.033-.05.03.034Zm.345.312.3.352-.672-.418Zm.615.546-.075-.046-.41-.478,1.375.251Zm-.809-.9-.073-.086.51-.818.585.634Zm-.146-1.783.453-.451v.941Zm.43-.579-.8.181-.78-.845,1.454.451Zm-2.542-2.586.473-.566-.028,1.592Zm.191-1.446.084-.093.075.151Zm-.042-.017-.421-.152-.337-.246.016-.017.631-.142.217.441Zm.054-.594.594-.132-.425.477Zm.73-.748c.1.009.2.014.3.022l-.062.167-.088.1Zm-.023-.042-.219-.405.08-.084.728-.161-.247.672C164.964,424.472,164.85,424.463,164.738,424.456Zm.551-.726-.59.13.237-.252Zm-.292-.19.151-.161.189.282Zm-.251.029-.309.33-.024-.045Zm-.413.136-.2-.379.46.16Zm.03.229-.047.009h-.007l.04-.034Zm-.055.092h.008l-.219.233-.084-.063.217-.186Zm-.427.068-.274-.212.419.087Zm-.064.055-.231.2-.257-.518.093.018Zm-1.788-.6-.767-1.647,1.544,1.427Zm-.879-1.884.384-.1-.337.2Zm-.081.213-.611.169-.059-.181.589-.159Zm-.7-.091-.651-2.005.11-.554,1.12,2.4Zm-.915-2.82-.162-.5.112-.152.272.585Zm-.58-1.786.231.494a.592.592,0,0,1-.037.1Zm.119.9c-.069.02-.137.041-.2.056a.762.762,0,0,0,.176-.136Zm-.04-.125a.768.768,0,0,1-.253.182l-.248-1.726Zm-.412.232a1.311,1.311,0,0,1-.718-.049,1.76,1.76,0,0,0,.674-.252Zm.465-.068.151.465-.328.447-.12-.835C158.806,418.176,158.905,418.15,159.009,418.12Zm.318,5.516a.494.494,0,0,0-.04.078c-.018-.1-.068-.178-.136-.186s-.117.034-.16.106a.168.168,0,0,0-.114-.13.181.181,0,0,0-.166.1.163.163,0,0,0-.1-.128c-.062-.016-.131.028-.184.105a.175.175,0,0,0-.109-.148c-.07-.017-.147.038-.2.133,0-.1-.043-.176-.108-.194s-.167.045-.225.16c.008-.124-.033-.225-.108-.246a.173.173,0,0,0-.172.078.164.164,0,0,0-.091-.144c-.066-.024-.146.02-.209.1a.183.183,0,0,0-.094-.179.145.145,0,0,0-.028-.007,5.654,5.654,0,0,1,.416-.958.136.136,0,0,0,.106-.038.19.19,0,0,0,0-.211.181.181,0,0,0,.2-.017.186.186,0,0,0,0-.2.168.168,0,0,0,.172-.027c.057-.064.03-.185-.057-.295a.076.076,0,0,0,.025-.043l.016-.078a.081.081,0,0,0-.061-.095l-.495-.123,1.3-1.767Zm-1.831-2.4,0,0a.1.1,0,0,0-.022.037l-.235-.018.054-.072Zm-.308.018-.2-.014a.41.41,0,0,0-.049-.087l.056-.04.252.062Zm-2.423,2.178-.007-.009a.437.437,0,0,0-.01-.051.259.259,0,0,0,.076.042Zm1.816,1.253c-.041.169-.081.335-.116.492l-.047.017-.987-.977Zm-.092.571.763-.3.133.055.275.466-.3.644-.869-.861Zm1.118,1.116.11.005a.754.754,0,0,1-.068.035Zm.2.011.4.021.506.857-.155.049-.873-.864C157.723,426.43,157.764,426.409,157.805,426.387Zm.948.953.244.413-.376-.372Zm.473.638-.393-.665.679-.216-.033,1.133Zm-1.46,10.085a11.632,11.632,0,0,0,.4-1.689l1.043.914-.012.386a3.906,3.906,0,0,1-1.509.583C157.717,438.2,157.743,438.133,157.766,438.064Zm1.762-.329.257.429c-.091.049-.182.1-.275.153Zm.279.463.242.4-.561.482.021-.72Zm-1.183,5.785a.407.407,0,0,0,.009.069l-.024-.025a.347.347,0,0,0,0-.056Zm-.531.3a.372.372,0,0,0-.054-.035.264.264,0,0,0,0-.038.564.564,0,0,0,.058.055Zm-.519.294v.011l-.017-.021A.122.122,0,0,1,157.574,444.573Zm-.3.109a.389.389,0,0,0,0,.062.4.4,0,0,0-.056-.076.2.2,0,0,0,0-.03A.3.3,0,0,0,157.275,444.682Zm-.323.078a.292.292,0,0,0-.038-.036c0-.006,0-.015,0-.021a.446.446,0,0,0,.038.05Zm.4.3.109.009a.138.138,0,0,0,.12.025.175.175,0,0,0,.019-.011l1.381.134v.041a2.281,2.281,0,0,0-.187.307l-.716.378-.8-.746A.184.184,0,0,0,157.348,445.065Zm1.41.571c-.095.188-.2.42-.3.673l-.354-.329Zm.061-.033.15-.08-.037,1.227-.441-.411C158.6,446.057,158.716,445.8,158.819,445.6Zm.381,3.213c0-.006,0-.014,0-.02l.046-1.571.637,1.052-.7.67Zm1.317.505.4.655-1.532-.753Zm.648,3.535.8.255.026,2.613-.931-.444Zm.825,3.048-.982.635.046-1.081Zm.006.194,0,.257-1.018.808.018-.425Zm-1.026,1.282,1.03-.815.015,1.485-1.055-.43Zm-.431,2.366-1.4-1.811,1.518-.979Zm-.021.492v.019l-.021-.009Zm.435-2.442,1.063.432.027,2.64-1.2-.481Zm1.092,3.25,0,.154-1.268.645.055-1.285Zm0,.337v.094l-1.292.855.013-.3Zm-1.3,1.152,1.3-.861.016,1.535-1.325-.5Zm-.43,2.339-1.686-1.751,1.8-.916Zm-.024.569,0,.075-.1-.033Zm.337-.161a.177.177,0,0,0,.009-.02.084.084,0,0,0-.007-.05l.1-2.332,1.334.5.028,2.764-1.48-.515Zm1.467,1.042v.142l-1.55.715.059-1.378Zm0,.322v.047l-1.568.854.008-.181Zm3.726,11.019-.065.039-1.056.058-.064-.43,1.218.108-.006.1Zm-2.431-.61-.472-.04-.08-1.359.6,1.135-.063,0Zm-7.529-7.047.1-.272,4.112.683-.006.07-2.656,5.168Zm4.234,7.124-.258.012.1-1.152.521-.325.408.265Zm.906-1.11,1.529.993-2.233.107Zm-1.177,1.286.163-.009-.187.293Zm-.317-.164-.274-.716.352-.219Zm.444-1.357.036-.424.316.205Zm.051-.61.079-.943h.536l.585.775-.744.462Zm-.252-.943-.062.738-.391-.253.266-.485Zm-.1-.164.129-.238-.019.238Zm.44,0,.039-.475.358.475Zm.06-.721.018-.227.678-1.237,1.151,2.184h-1.3Zm.053-.63.148-1.772.4.765Zm.173-2.078.014-.168.958.158-.5.908Zm.028-.333v-.011l.018-.444,1.331.039-.323.588Zm-.322-.178-.354-.3.366.012Zm-.132.1-2.879-.478,2.392.07Zm-.138,3.2-.351.641h-1.058l1.618-3.15Zm-.441.8-.217.395-.607-.395Zm-.3.541-.282.514-.357-.931Zm.138.088.455.3-.071.844-.429.266-.3-.779Zm-.187,1.5-.492.307.038-.467h-.092l.285-.519Zm-.509.51.569-.352.249.65-.845.04Zm.88.46.074.193-.011.124-1.009.032.025-.3Zm.787-.039,2.41-.116.021.369-2.647.086Zm2.39-.441-1.489-.969.354-.552,1.134,1.5Zm-1.628-1.056-.342-.223.692-.43.037.049Zm.391-.872-.519-.687h1.124l-.33.514Zm.771-.641.064.121-.235.146Zm-1.167-2.567.578-1.052.7.114.2,3.47-.108.068Zm1.266-1.106-.6-.1.336-.611.226.007Zm-.18-.873.115-.21.013.214Zm.091-.624.006.1-.283.515-1.411-.043.018-.414Zm-2.018.568-.577-.016-.319-.268.912-.089Zm-.842-.023-2.093-.061,1.811-.177Zm-1.792,6.238.791-1.54.431,1.125-.4.721h-.743Zm.971,1.951,1.008-.034,0,.057h-1.006Zm1.422-.047,2.764-.09.01.16h-2.819Zm2.7-1.263-1.023-1.354.2-.31.518-.322.212.4Zm-.166-2.074.042-.024.007.118Zm.125-4.235.174-.009,1.3,2.929-1.246.888Zm-.01-.166-.008-.145h.058l.062.14Zm.233-.14,1.64.047-1.584.078Zm-.074-.165-.2-.463-.009-.155,3.17.7Zm-.55-.809-1.658.162.045-1.029,1.61.525Zm-1.606-1.04.007-.166,1.578-.859.015,1.548Zm-.383,1.234-1.1.106-.917-.768,2.082-.957Zm-3.513,4.254h-.541l-.214-2.757Zm1.775,5.07.036-.435h1.006l-.013.157-.684,1.071-.345-.795Zm1,.075-.105,1.255-.451-.307-.02-.045Zm-.121,1.445-.036.425-.277-.64Zm.329.025.165-1.978h2.885l.086,1.471-2.074,1.233Zm3.33-2.829.472.043.035.609-.467.026Zm1.8.747.727-.04-.672.4Zm-.113-.761-.069-.466-.074.007.447-1.471.9,2.037Zm-.318-.444-.677.055-.8-1.518-.06-1.032,1.3-.928L164.82,475Zm-1.423-6.515,3.453-.168-1.436,4.727Zm-.195-1.191.3-.13,1.887.614Zm-.227-.078,0-.225.292.094Zm-.024-2.421-.027-2.652,1.816,1.675Zm-.029-2.879v-.023l.125-.056,3.15,1.19-1.3.71Zm-.024-2.375-.026-2.568,1.468,1.613Zm-.028-2.816V458.4l.037-.02,2.694,1.1-1.12.741Zm-.023-2.349-.025-2.406,1.164,1.5Zm-.038-3.826.265.084c.2.066.408.129.611.2l-.867.605Zm1.5-2.415c-.115-.1-.249-.134-.315-.072a.184.184,0,0,0-.016.2.177.177,0,0,0-.158,0l-.11-.172.73-.149Zm.109-.631-1.529-.7,0-.005.123-.074,1.416.475Zm-.822-.757.834.12,0,.159Zm-.283-.208,1.135-.684-.015.845Zm.973-1.153-1.374-.74.757-.932.779,1.684Zm-.695-1.838-.759.933.025-1.008.728.059Zm-.733-.115.009-.4.454-.073.243.529C162.688,445.18,162.449,445.16,162.337,445.153Zm.632-.5.689-.108-.472.579Zm-.072-.153-.462-1,.118.056a.644.644,0,0,0,.037.09c.084.158.224.246.314.2a.133.133,0,0,0,.062-.09l.96.462-.112.138Zm.269-.833a.2.2,0,0,0,.064-.207.186.186,0,0,0,.2.034c.068-.043.077-.154.032-.274.087.089.19.127.257.085s.077-.142.04-.255c.083.069.173.092.232.054a.094.094,0,0,0,.019-.019l-.018.977Zm2.313-3.056L165,440.35l.266-.057Zm-.536-.338.182-.182.086.126Zm-.5-.99.085-.073.053.078Zm-.027-.527v0l.012-.637.516.524Zm-.305-1.408-.472-1.135c.117.071.293.174.487.28Zm-.5-1.2-.022-.053.075-.092c.073.067.153.1.213.065s.082-.123.063-.224a.186.186,0,0,0,.2.05l-.01.55C163.911,436.33,163.72,436.219,163.611,436.154Zm4.412-3.181.207.227-1.065.332-.156-.247Zm-.7-1.005h0l-.846-.918v-.977l1.47,2.574Zm-2.639-2.864-.093-.1.039-2.159,1.559,2.727Zm-.211-2.966-.251-.508.474-.531.173-.039Zm.476-1.3-.01-.016.028-.033Zm.317-.385,1.263-1.417c1.662.328,5.848,1.156,11.064,2.172-4.822-.257-9.186-.507-12.339-.719Zm.039-.105.533-1.449.644.127Zm.1-.743-.195-.29.5-.53Zm-.348-.519-.112-.167.513-.178Zm-.192-.14.129.194-.328.281-.585-.2Zm-.909.316.062.021.256.475-.164.139-.648-.132-.253-.194-.022-.044Zm-2.669-1.455.475-.285,1.053,1.7Zm-.167-.22-.984-2.11,1.381,1.649.188.3ZM160,419.19l-.116-.248.249-.044,1.076,1.735Zm-.152-.325-.325-.7.085-.116.478.771Zm-.974-2.309a1.761,1.761,0,0,0,.554-.549l.121.007a.336.336,0,0,1,.115.089c.083.107.073.263-.032.474-.149.3-.254.527-.317.691Zm.139-.613v0a1.638,1.638,0,0,1,.384.024Zm-.515,1.9a1.593,1.593,0,0,1-.743.258.582.582,0,0,1-.125-.091,1.14,1.14,0,0,1-.173-1,.084.084,0,0,0,.073-.048l.257-.571.451-.356ZM157.407,417s0,0,.006,0a1.16,1.16,0,0,0,.185,1.036.669.669,0,0,0,.077.059.5.5,0,0,1-.221-.075.91.91,0,0,1-.311-.694C157.262,417.182,157.351,417.07,157.407,417Zm-.031-.1a.081.081,0,0,0,0,.071c-.051.064-.132.164-.241.3a2.685,2.685,0,0,1,.005-.391.072.072,0,0,0,.038-.013l.323-.253Zm-.272.481a.909.909,0,0,0,.326.679.563.563,0,0,0,.312.085,1,1,0,0,0,.481.11,3.4,3.4,0,0,1-.78-.041,1.59,1.59,0,0,1-.783-.282C156.834,417.713,156.984,417.529,157.1,417.379Zm.332.878a2.727,2.727,0,0,0,1.115-.019l.141.981-1.34,1.817-.356-.088a.08.08,0,0,0-.068.012l-.107.079c-.121-.089-.255-.11-.315-.044a.183.183,0,0,0,0,.2.165.165,0,0,0-.173.027.189.189,0,0,0,0,.21.18.18,0,0,0-.2.018.2.2,0,0,0,.016.234c-.092-.048-.181-.054-.231-.005a.176.176,0,0,0-.015.19.168.168,0,0,0-.172.012.174.174,0,0,0-.025.188.168.168,0,0,0-.165.006.188.188,0,0,0-.03.21.17.17,0,0,0-.185-.006c-.056.043-.059.14-.018.24a.2.2,0,0,0-.22-.034c-.064.047-.065.16-.012.277-.093-.083-.2-.112-.261-.067a.176.176,0,0,0-.043.183.167.167,0,0,0-.169-.016.2.2,0,0,0-.046.229.186.186,0,0,0-.2-.037c-.086.055-.08.221.015.373l.009.013-.245.253s0,.006-.005.009c-.023-.01-.043-.016-.056-.008-.044.028,0,.178.1.343-.076.048-.153.1-.231.144-.1-.161-.214-.264-.258-.237s-.006.172.085.34l-.261.151c-.1-.159-.2-.262-.249-.237s-.011.169.072.333c-.07.039-.141.078-.211.115-.092-.155-.19-.255-.235-.232s-.018.162.056.326l-.245.126c-.092-.161-.194-.265-.238-.24s-.018.163.058.329c-.078.038-.154.076-.23.111-.082-.165-.177-.277-.222-.257s-.028.168.039.345c-.089.039-.177.082-.262.121-.082-.164-.175-.273-.221-.254s-.029.164.036.335l-.226.1c-.073-.16-.157-.267-.2-.251s-.036.158.019.329l-.24.1c-.073-.162-.159-.273-.205-.255s-.037.16.019.332c-.086.034-.169.066-.247.1-.065-.142-.138-.242-.186-.25,2.9-3.473,5.115-6.195,6.247-7.6A1.675,1.675,0,0,0,157.436,418.257Zm-7.051,7.631c-.093.036-.18.07-.259.1-.011-.025-.022-.048-.033-.07l.249-.3A.725.725,0,0,0,150.385,425.888Zm5.568,1.735a1.21,1.21,0,0,1-.91-.49,2.854,2.854,0,0,1,.576-.035,3.307,3.307,0,0,0,.5-.014,1.038,1.038,0,0,0,.144-.025C156.276,427.354,156.248,427.589,155.954,427.623Zm-3.821-.541a3.377,3.377,0,0,0,2.215.173c.135-.027.274-.056.431-.082l.216-.034a1.326,1.326,0,0,0,.889.53c.025,0,.051,0,.076,0,.331-.039.36-.306.34-.62a7.642,7.642,0,0,0,1.228-.517l1.945,1.926-.069,2.352L158,432.353a.482.482,0,0,0-.1-.2c-.11-.139-.264-.2-.344-.138a.184.184,0,0,0-.033.2.167.167,0,0,0-.175,0,.188.188,0,0,0-.031.208.184.184,0,0,0-.2-.013c-.055.044-.059.135-.021.233-.082-.062-.17-.082-.226-.041a.174.174,0,0,0-.045.185.169.169,0,0,0-.171-.017.181.181,0,0,0-.055.187.158.158,0,0,0-.164-.025.188.188,0,0,0-.063.2.174.174,0,0,0-.181-.033c-.063.033-.082.128-.057.235-.072-.069-.152-.1-.212-.068s-.09.147-.056.269c-.079-.095-.178-.143-.248-.107a.176.176,0,0,0-.072.175.168.168,0,0,0-.164-.044.207.207,0,0,0-.082.219.185.185,0,0,0-.192-.067c-.093.04-.113.205-.043.368a.56.56,0,0,0,.077.128l-.051.027c-.093-.169-.2-.282-.243-.26s-.018.175.061.351l-.244.117c-.086-.169-.186-.285-.233-.262s-.024.171.049.347c-.092.042-.183.082-.276.122-.082-.167-.176-.281-.222-.261s-.029.165.036.338c-.074.033-.148.064-.222.092-.075-.164-.162-.273-.208-.256s-.035.16.021.332l-.257.1c-.075-.167-.165-.283-.212-.265s-.036.163.022.336l-.24.086c-.064-.175-.146-.3-.195-.281s-.046.164,0,.348l-.274.092c-.064-.172-.145-.291-.192-.276s-.047.16,0,.339l-.235.074c-.056-.166-.129-.28-.175-.269s-.054.153-.017.329l-.249.075c-.055-.171-.13-.288-.177-.276s-.054.156-.016.331l-.256.072c-.056-.165-.128-.283-.176-.27s-.052.151-.018.322l-.269.073c-.054-.17-.125-.286-.173-.274s-.054.149-.021.323c-.209.052-.331.078-.337.08l0,.014-.4.214a.079.079,0,0,0-.042.073c-.972.249-5.362,1.381-10.985,2.809l.135-.15c4-4.48,7.73-8.834,10.784-12.474A16.021,16.021,0,0,1,152.133,427.081ZM149.72,436.3a.085.085,0,0,0,.073.043.071.071,0,0,0,.038-.01l.208-.111c.178.031.639.252,1.819,1.277a5.34,5.34,0,0,0,.9.629c-1.6,1.938-3.752,4.488-6.316,7.379-2.158,1.176-4.423,2.406-6.735,3.652-3.51.693-7.777,1.5-12.6,2.334,3.543-3.582,7.418-7.722,11.572-12.369C144.323,437.694,148.74,436.557,149.72,436.3Zm3.07,1.847a3.279,3.279,0,0,0,2.526.365l.094-.017a.084.084,0,0,0,.075.048h0l.6-.031a.075.075,0,0,0,.049-.02,1.254,1.254,0,0,0,.8.432.623.623,0,0,0,.108-.008c.25-.046.459-.256.623-.617a4.1,4.1,0,0,0,1.529-.574l-.023.773c-3.076,1.711-7.553,4.182-12.632,6.953C149.077,442.594,151.206,440.072,152.79,438.15Zm-2.264,8.948a.185.185,0,0,1,.006.018c-.008,0-.018-.009-.026-.011Zm7.425-1.039.444.413c-.277.707-.549,1.53-.7,2.038-.064.213-.03.362.1.439a.38.38,0,0,0,.1.044,12.627,12.627,0,0,1-2.627.347,4.614,4.614,0,0,1-2.249-.743Q155.5,447.344,157.951,446.059Zm1.178,3.221,1.787.88-2.084,1.059Zm-.366,2.391.512.85c-.213.1-.443.2-.69.317Zm.04-.253,2.141-1.088-.06,1.413-.076.061c-.259.122-.729.345-1.383.648Zm1.874.492-1.055.867-.175-.291C159.989,452.235,160.4,452.042,160.677,451.911Zm.2.053-.116,2.7-1.051-1.743Zm-.129,3,0,.09-.08.036-2.256-1.079,0-.023,1.169-.96Zm-2.365-.783,2.085,1-2.4,1.073Zm-.346,2.264,2.625-1.173.072.033-.062,1.454-1.628,1.049-1.014-1.314Zm-.432,2.825,2.462.985-2.8,1.2Zm-.363,2.373,3.042-1.3.229.092-.068,1.583-1.928.982-1.279-1.328Zm-.433,2.833,2.925,1.022-3.288,1.353Zm-.392,2.563,3.551-1.459.32.112-.07,1.643-2.23,1.028-1.571-1.316Zm-.5,6.356h-1.245l1.021-2.89Zm-2.7,5.068,1.094,2.312-.319.5Zm1.2,2.148-1.314-2.778.07-.2,3.02.2Zm.13-3.049,1.686-.08.016.194Zm1.867.121-.017-.209.493-.021-.047.231Zm.4.164-.123.618h.136l-.2.267-.188-.885Zm1.406.618.367.846-1.24-.846Zm1.271,2.931.149.343h-.178Zm.244.148h1.825l.286.194h-2.026Zm2.246.36-1.1,2.28-.989-2.28Zm.1-.205-.228-.154h.3Zm.992-2.2.1-.059-.092.189Zm-.01-.187-.076-1.289.468-.026.045.766-.2.408Zm.553-.414h.143l-.2.12Zm3.668,2.076.691.512-.958.049,0,0Zm.787.671,2.81,5.167-3.748-5.117Zm-.413-1.448,1.08-2.238,1.033,3.432-1.421.075Zm1.009-2.474-1.106,2.3-1.187-2.182,2.289-.126Zm-2.381-.046-.04-.073a.082.082,0,0,0-.1-.124.117.117,0,0,0-.03-.014l1.542.136ZM165,474.993l1.361-4.481-.465,6.506Zm-1.793-6.211,2.829-1.261.266,2.271Zm-.464-5.321,2.679-1.2.271,2.317Zm-.156-5.181,2.239-1.12.249,2.135Zm1.114-3.061.823-.654.235,2.02Zm-1.264-1.954.921-.644a5.137,5.137,0,0,1,.992.472l.126,1.081Zm.963-.672.825-.576.12,1.021A5.21,5.21,0,0,0,163.394,452.593Zm.229-2.092a.14.14,0,0,0,.1-.031.182.182,0,0,0,.015-.2.168.168,0,0,0,.174-.016c.057-.053.047-.163-.017-.267l.073-.1.167,1.429Zm.6-1.265,0-.209.649.219-.628.211Zm.007-.381,0-.22,1.641.235.1.09-.8.215Zm.007-.388.018-.979,1.386,1.181Zm-.3-1.711-.678-1.463.018-.024.685.056Zm-.628-1.525.589-.725.079-.011-.014.788Zm1-.673.308.777-.322-.025Zm1.362.494a.077.077,0,0,0,.036.013.063.063,0,0,0,.023,0l.309-.092a.083.083,0,0,0,.059-.072,8.773,8.773,0,0,0,1.442-.652.165.165,0,0,0,.036.017l-.394.565-.054-.02h-.123v.273l-.022.032-.339-.074v.13H166.5v.164l-.12-.037v.18l-1.175-.093A2.868,2.868,0,0,1,165.672,445.052Zm2.054-.431v.09c-.126.016-.217.06-.217.112s.091.095.217.11v.1l-.5-.19.4-.568a.721.721,0,0,0,.108.019v.1c-.138.013-.24.059-.24.113S167.588,444.607,167.727,444.621Zm.164-.646c.031,0,.06-.007.086-.012-.029.014-.057.03-.086.048Zm-2.506-3.793-.141-.208.507-.509.519.529Zm-.6-.883-.131-.193.405-.344.56.569Zm-.353-1.409.021-1.22a4.074,4.074,0,0,0,.551.24c.088.026.17.053.251.08l.525,1.106-.624.529Zm.584-1.019a4.066,4.066,0,0,1-.562-.247l.021-1.135a.293.293,0,0,0,.09.05l.665,1.4C165.16,436.916,165.09,436.893,165.014,436.871Zm-.356-1.323a.066.066,0,0,0,.03-.012c.064-.039.076-.143.04-.255.083.069.173.092.232.053a.188.188,0,0,0,.046-.207.172.172,0,0,0,.183.019.192.192,0,0,0,.043-.214.178.178,0,0,0,.191.011.19.19,0,0,0,.033-.212.177.177,0,0,0,.194,0,.119.119,0,0,0,.039-.07c.965.059,2.276.142,3.849.237l-3.009,2.556-.248-.1c-.436-.182-.693-.289-.942-.378Zm1.034-.924a.332.332,0,0,0-.039-.145c.1.061.2.073.252.024a.191.191,0,0,0,.013-.211.182.182,0,0,0,.2,0,.187.187,0,0,0,.016-.2.169.169,0,0,0,.174-.013c.053-.052.047-.15-.007-.25l.562-.459.2.312a.082.082,0,0,0,.094.035l1.249-.39c.007,0,.011-.007.017-.011s0,0,.007,0l0,0,.008-.01a.049.049,0,0,0,.013-.018l0,0v0a.078.078,0,0,0,0-.025.057.057,0,0,0,0-.01.094.094,0,0,0-.01-.031l-.05-.088h0l-.053-.092c.173.061.382.139.5.181-.025.107-.006.2.058.235s.146,0,.221-.071a.187.187,0,0,0,.067.193c.058.033.138,0,.211-.062a.184.184,0,0,0,.08.186c.073.033.171-.022.247-.125-.027.121,0,.228.069.258s.162-.013.235-.106c-.01.106.018.195.084.223a.189.189,0,0,0,.2-.077.174.174,0,0,0,.086.164.193.193,0,0,0,.2-.082.26.26,0,0,0,.01.054l-1.029.874C167.992,434.766,166.667,434.685,165.692,434.624Zm5.428-1.067a.226.226,0,0,0-.117.079.169.169,0,0,0-.094-.145.18.18,0,0,0-.178.074.164.164,0,0,0-.085-.144.19.19,0,0,0-.2.077.173.173,0,0,0-.086-.163c-.066-.028-.151.015-.22.1a.2.2,0,0,0-.078-.207c-.073-.033-.172.021-.247.125.026-.123,0-.228-.07-.262a.176.176,0,0,0-.182.053.169.169,0,0,0-.069-.156c-.061-.033-.147,0-.222.071a.181.181,0,0,0-.066-.19c-.086-.047-.219.032-.305.176-.162-.06-.509-.185-.683-.245l-3.588-6.279,0-.192a.17.17,0,0,0-.029-.092l.627-1.707c3.219.218,7.7.474,12.645.736l2.437.476Zm9.238-7.85-2.181-.424c.83.045,1.672.087,2.523.131Zm9.414-8-9.027,7.671c-.966-.051-1.92-.1-2.858-.15-5.325-1.038-9.621-1.885-11.329-2.225l5.594-6.283Zm-17.673-.989-5.588,6.274c-.323-.062-.548-.107-.661-.13l.121-.33a.082.082,0,0,0-.018-.086.086.086,0,0,0-.086-.021l-2.764.959-3.392-5.475,1.338-1.813ZM161,416.1l-1.313,1.777-.349-.563c.051-.135.146-.354.327-.716.112-.222.122-.4.027-.518a.292.292,0,0,0-.06-.057Zm-2.206-.758a.078.078,0,0,0,.063-.029l.045-.055.08.049a.069.069,0,0,0,.044.015.082.082,0,0,0,.06-.03.636.636,0,0,1,.365.413.43.43,0,0,1-.034.226,1.622,1.622,0,0,0-.431-.027.083.083,0,0,0-.045-.022l-.459-.057Zm-1.476,1.027.012,0h.01l.249-.028-.507.4a.082.082,0,0,0-.021.1c-.085.075-.26.233-.521.468A2.9,2.9,0,0,1,157.317,416.364Zm-.863,1.072a.559.559,0,0,0,0,.257.512.512,0,0,0,.15.241c-1.168,1.452-3.488,4.309-6.533,7.943-.056-.1-.111-.158-.146-.145s-.038.147.009.308c-.007.008-.013.015-.019.024-.187.067-.3.1-.3.107v0l-.738.308a.084.084,0,0,0-.044.109l.007.007c-.831.285-2.437.833-4.578,1.554C150.09,423.113,154.756,418.956,156.454,417.436ZM136.439,434.83c2.693-2.27,5.315-4.511,7.737-6.6,2.206-.743,3.857-1.306,4.694-1.593a.113.113,0,0,0,.036.01.064.064,0,0,0,.032-.008l.356-.148c.1-.036.164-.057.184-.063l.119.018c-3.051,3.633-6.774,7.981-10.768,12.453l-.176.2c-3.262.827-6.934,1.757-10.59,2.669Q131.956,438.606,136.439,434.83Zm-24.671,19.1q3.3-2.076,8.223-5.815c2.389-1.812,5.064-3.919,8-6.3,3.663-.914,7.344-1.842,10.617-2.673-4.155,4.645-8.028,8.782-11.57,12.36C122.395,452.312,117.245,453.143,111.768,453.933Zm5.11,7.121q2.757-2.308,5.981-5.382,2.009-1.914,4.2-4.126c4.784-.828,9.024-1.628,12.524-2.317C131.737,453.454,123.378,457.862,116.878,461.054Zm22.959-11.917c2.236-1.206,4.427-2.4,6.518-3.535q-1.166,1.313-2.438,2.71C142.71,448.56,141.346,448.837,139.838,449.136Zm.923,2.633c1.1-1.166,2.164-2.31,3.178-3.421,2.9-.6,4.877-1.037,5.719-1.225a.082.082,0,0,0,.078.059.057.057,0,0,0,.019,0l.383-.088a.083.083,0,0,0-.01.038v.133a.082.082,0,1,0,.164,0v-.107c.039-.008.088-.02.146-.037l.111.05c.052.137.112.227.155.217.027-.006.04-.055.041-.127A10.468,10.468,0,0,1,152,448c.338.229.644.428.931.6-5.766,2.914-11.6,5.681-17.048,8.174Q138.3,454.365,140.761,451.769Zm1.906,8.04c-5,2.076-11.11,4.49-17.268,6.642.079-.067.158-.132.237-.2,3.284-2.794,6.687-5.942,10.167-9.4,5.488-2.51,11.365-5.3,17.175-8.233a4.672,4.672,0,0,0,2.291.761,12.918,12.918,0,0,0,2.739-.369,2.3,2.3,0,0,0,.853-.159l-.635,4.153C155.01,454.484,149.324,457.045,142.667,459.809Zm16.629-7.252.2.325-1.046.858.13-.85Zm-4.822,29.095-.382-.023-.039-.144,2.247-3.507.2.929Zm2.556-3.189h.024l1.528,1.044-1.343,2.1-.564-2.66Zm1.072,7.209h.7l-.2,2.367Zm1.03,0h1.026l-1.24,2.568Zm1.14-.234-1.017-1.24.192-2.3h.263l1.073,2.475Zm2.064-3.9h.525l.132,2.252-1.524,1.75-.505-1.163Zm1.868,4.071h-.773l-.115-1.939,1.677-1.926Zm-1.1,0h-1.473l1.38-1.585Zm.2-2.175-.111-1.9h1.763Zm-.052,6.212-1.68-3.871h1.539l.23,3.915v0l-.1.03A.088.088,0,0,0,163.251,489.65Zm.189-3.871h.73l-.567,2.772Zm1.629-4.4h-1.888l-.083-1.415.327-.678.653-.389h.593l.707.965Zm3.364.244,1.383-.072,1.761,5.853Zm.17-4.1-2.567-.229.48-6.707Zm2.068-27.357a.928.928,0,0,0,.2.006c.116.013.236.026.355.038a8.215,8.215,0,0,0-1.317,1.6c-.593.857-1.18,1.632-1.837,1.7a1.074,1.074,0,0,1-.708-.19.082.082,0,0,0-.027-.091l-.219-.171,3.272-2.855a.533.533,0,0,0,.112-.031A.834.834,0,0,1,170.671,450.16Zm-3.551-.636a.186.186,0,0,0,.085.186.2.2,0,0,0,.2-.08c0,.088.039.157.1.175.075.028.169-.037.234-.148-.015.125.02.229.094.255s.159-.031.223-.13c0,.108.037.194.1.215s.133-.021.19-.1c.012.08.046.138.1.154s.136-.021.194-.1c.014.083.053.143.11.157s.132-.027.185-.107c.019.082.06.143.119.153.074.013.152-.052.2-.159.014.115.066.2.14.212s.127-.04.171-.123c.022.085.069.145.129.153s.123-.037.167-.115c.024.07.066.12.121.127s.124-.037.168-.117l.064.025.108.041-3.2,2.8a.08.08,0,0,0-.139-.043l-.157.161a.082.082,0,0,0-.021.069,2.5,2.5,0,0,1-2.113.084l-.426-3.647.853-.287s.006,0,.01-.005l.019.005a.118.118,0,0,0,.025,0,.158.158,0,0,0,.022,0l.943-.252a4.461,4.461,0,0,0,.682.3c-.013.108.014.2.081.228S167.053,449.606,167.121,449.525Zm-2.859-2.25.034-1.923.339.025.248.628a.375.375,0,0,0,.027.069l1.046,2.647Zm1.351-.861a.657.657,0,0,1-.438-.115l-.232-.587a.95.95,0,0,1,.217-.291l1.217.1v.441A1.346,1.346,0,0,1,165.613,446.413Zm4.965,1.082a3.228,3.228,0,0,1-1.345.57l-.071-2.333,2.3.178A1.874,1.874,0,0,1,170.577,447.5Zm.609-3.207a4.674,4.674,0,0,1,.274,1.58l-2.3-.176-.014-.453-.206-.031v-.318l-.925.278-.125-.057v-.173c.15-.011.264-.058.264-.116s-.114-.107-.264-.116v-.085c.138-.015.24-.059.24-.115s-.1-.1-.24-.113v-.1c.138-.016.24-.06.24-.114s-.1-.1-.24-.114v-.01c1.438-.8,3.052-1.862,3.371-2.073l.426.026h.006a.082.082,0,0,0,.062-.031c.017.006.036.01.055.017A2.224,2.224,0,0,0,171.187,444.288Zm5.335-1.612c-2.146-.273-3.745-.506-4.5-.673C172.711,442.107,174.318,442.35,176.522,442.676Zm-7.886-1.344c-.027.121,0,.228.07.26s.162-.015.235-.107c-.011.106.019.194.084.222a.188.188,0,0,0,.2-.075.174.174,0,0,0,.085.164.2.2,0,0,0,.2-.083.18.18,0,0,0,.1.167c.062.021.134-.017.2-.089.01.083.046.147.1.163.073.021.157-.037.216-.14,0,.115.047.206.119.222s.13-.027.182-.1c.015.086.055.15.114.164s.126-.026.178-.1a.169.169,0,0,0,.108.137c.077.018.163-.052.216-.167l.157.01c-.382.252-1.762,1.158-3.067,1.9a.039.039,0,0,0,0-.016c0-.055-.1-.1-.24-.112v-.1c.138-.014.24-.058.24-.113s-.1-.1-.24-.115v-.067c.136-.014.237-.06.237-.114s-.1-.1-.237-.114v-.091c.136-.014.237-.06.237-.113s-.1-.1-.237-.114v-.091c.138-.014.24-.059.24-.114s-.1-.1-.24-.115v-.111c.138-.016.24-.06.24-.113s-.1-.1-.24-.115v-.129a.082.082,0,0,0,.024-.058v-.185a.084.084,0,0,0-.037-.07l-1.055-.7.317-.169.608.157c-.019.1,0,.188.061.22s.146,0,.222-.071a.184.184,0,0,0,.066.192.2.2,0,0,0,.211-.06c0,.088.023.159.079.183C168.462,441.49,168.56,441.436,168.636,441.332Zm-1.785-.986-1.666-1.691.614-.522Zm-1.006-2.306-.481-1.01c.237.086.488.19.9.363l.229.1Zm.9-.492c-.062-.024-.118-.047-.175-.071l3.025-2.571,1.812.109a4.637,4.637,0,0,0-.242.49c-.809,1.9-2.011,2.125-2.023,2.127h0A4.738,4.738,0,0,1,166.746,437.548Zm4.669-1.444c-.624,1.182-1.113,1.457-2.1,1.517a3.521,3.521,0,0,0,1.887-2.1,4.709,4.709,0,0,1,.252-.5l.565.034C171.847,435.328,171.64,435.676,171.415,436.1Zm.679-1.09a7.7,7.7,0,0,1,.507-.711c.768.164,2.567.544,5.035,1.045Zm5.835.351c-2-.4-3.588-.735-4.58-.946,2.544.429,5.674.833,9.04,1.209Z" transform="translate(-107.011 -393.753)"/>
</svg>
