<svg xmlns="http://www.w3.org/2000/svg" width="25.255" height="48.905" viewBox="0 0 25.255 48.905">
  <g id="Group_23907" data-name="Group 23907" transform="translate(0 0)">
    <path id="Path_20621" data-name="Path 20621" d="M2529.9-461.949h1.53l-.765-1.933-.764,1.933Zm1.934.309h-2.349l1.179-3.081,1.17,3.081Z" transform="translate(-2518.04 464.721)"/>
    <path id="Path_20622" data-name="Path 20622" d="M2286.053-305.9l-4.58-22.339v-18.048l-1.795-5.482h-1.686l-1.795,5.482v18.048l0,.014-4.569,22.325-.276-.056,4.566-22.311v-18.064l.007-.021,1.866-5.7h2.094l1.872,5.741v18.042l4.574,22.311-.276.056Z" transform="translate(-2266.212 354.804)"/>
    <path id="Path_20623" data-name="Path 20623" d="M2247.775-117.769h-5.416l5.331-4.045.17.224-4.663,3.539h4.578v.282Z" transform="translate(-2237.931 130.198)"/>
    <path id="Path_20624" data-name="Path 20624" d="M2071.044,173.235H2061.2l9.79-4.063.108.26-8.484,3.521h8.43v.282Z" transform="translate(-2061.2 -153.675)"/>
    <path id="Path_20625" data-name="Path 20625" d="M2693.561-117.769h-5.416v-.282h4.578l-4.663-3.539.17-.224,5.331,4.045Z" transform="translate(-2672.734 130.198)"/>
    <path id="Path_20626" data-name="Path 20626" d="M2699.238,173.235h-9.844v-.282h8.429l-8.483-3.521.108-.26,9.79,4.063Z" transform="translate(-2673.983 -153.675)"/>
    <path id="Path_20627" data-name="Path 20627" d="M2469.427-119.965h-5.557v-.141h5.557v.141Z" transform="translate(-2454.025 128.532)"/>
    <path id="Path_20628" data-name="Path 20628" d="M2469.427,35.141h-5.557V35h5.557v.141Z" transform="translate(-2454.025 -22.783)"/>
    <path id="Path_20629" data-name="Path 20629" d="M2469.427,171.757h-5.557v-.141h5.557v.141Z" transform="translate(-2454.025 -156.059)"/>
    <path id="Path_20630" data-name="Path 20630" d="M2469.427,326.863h-5.557v-.141h5.557v.141Z" transform="translate(-2454.025 -307.373)"/>
    <path id="Path_20631" data-name="Path 20631" d="M2469.427,463.484h-5.557v-.141h5.557v.141Z" transform="translate(-2454.025 -440.654)"/>
    <path id="Path_20632" data-name="Path 20632" d="M2469.427,618.584h-5.557v-.141h5.557v.141Z" transform="translate(-2454.025 -591.962)"/>
    <path id="Path_20633" data-name="Path 20633" d="M2424.049,849.015h-7.891v-.282h7.891v.282Z" transform="translate(-2407.48 -816.622)"/>
    <path id="Path_20634" data-name="Path 20634" d="M2357.967,1187.4h-11.288v-.282h11.288v.282Z" transform="translate(-2339.7 -1146.739)"/>
    <path id="Path_20635" data-name="Path 20635" d="M2539.751-344.421l-3.082-3.637.107-.091,3.081,3.637-.107.091Z" transform="translate(-2525.045 350.998)"/>
    <path id="Path_20636" data-name="Path 20636" d="M2488.067-344.421l-.108-.091,3.082-3.637.107.091-3.081,3.637Z" transform="translate(-2477.526 350.998)"/>
    <path id="Path_20637" data-name="Path 20637" d="M2502.771-208.582l-4.691-2.227.06-.127,4.691,2.227-.061.127Z" transform="translate(-2487.399 217.141)"/>
    <path id="Path_20638" data-name="Path 20638" d="M2471.85-208.582l-.06-.127,4.69-2.227.061.127-4.691,2.227Z" transform="translate(-2461.752 217.141)"/>
    <path id="Path_20639" data-name="Path 20639" d="M2467.816-115.7l-5.567-3.792.08-.116,5.566,3.792-.079.116Z" transform="translate(-2452.444 128.043)"/>
    <path id="Path_20640" data-name="Path 20640" d="M2462.329-115.7l-.08-.116,5.567-3.792.079.116-5.566,3.792Z" transform="translate(-2452.444 128.043)"/>
    <path id="Path_20641" data-name="Path 20641" d="M2467.956,38.872l-5.567-3.34.073-.121,5.566,3.34-.072.121Z" transform="translate(-2452.581 -23.184)"/>
    <path id="Path_20642" data-name="Path 20642" d="M2462.462,38.872l-.073-.121,5.567-3.34.072.121-5.566,3.34Z" transform="translate(-2452.581 -23.184)"/>
    <path id="Path_20643" data-name="Path 20643" d="M2467.816,176.025l-5.567-3.792.08-.116,5.566,3.792-.079.116Z" transform="translate(-2452.444 -156.547)"/>
    <path id="Path_20644" data-name="Path 20644" d="M2462.329,176.025l-.08-.116,5.567-3.792.079.116-5.566,3.792Z" transform="translate(-2452.444 -156.547)"/>
    <path id="Path_20645" data-name="Path 20645" d="M2467.956,330.593l-5.567-3.34.073-.121,5.566,3.34-.072.121Z" transform="translate(-2452.581 -307.773)"/>
    <path id="Path_20646" data-name="Path 20646" d="M2462.462,330.593l-.073-.121,5.567-3.34.072.121-5.566,3.34Z" transform="translate(-2452.581 -307.773)"/>
    <path id="Path_20647" data-name="Path 20647" d="M2467.816,467.751l-5.567-3.792.08-.116,5.566,3.792-.079.116Z" transform="translate(-2452.444 -441.142)"/>
    <path id="Path_20648" data-name="Path 20648" d="M2462.329,467.751l-.08-.116,5.567-3.792.079.116-5.566,3.792Z" transform="translate(-2452.444 -441.142)"/>
    <path id="Path_20649" data-name="Path 20649" d="M2468.734,624.931l-6.724-5.7.091-.108,6.725,5.7-.092.107Z" transform="translate(-2452.211 -592.625)"/>
    <path id="Path_20650" data-name="Path 20650" d="M2414.381,624.931l-.091-.108,6.733-5.7.091.108-6.733,5.7Z" transform="translate(-2405.657 -592.625)"/>
    <path id="Path_20651" data-name="Path 20651" d="M2423.676,857.883l-9.056-5.7.075-.119,9.056,5.7-.075.119Z" transform="translate(-2405.98 -819.871)"/>
    <path id="Path_20652" data-name="Path 20652" d="M2367.025,857.883l-.075-.119,9.056-5.7.075.119-9.056,5.7Z" transform="translate(-2359.475 -819.871)"/>
    <path id="Path_20653" data-name="Path 20653" d="M2378.587,1090.961l-11.4-5.741.063-.126,11.4,5.741-.063.126Z" transform="translate(-2359.708 -1047.204)"/>
    <path id="Path_20654" data-name="Path 20654" d="M2319.143,1090.961l-.063-.126,11.4-5.741.063.126-11.4,5.741Z" transform="translate(-2312.775 -1047.204)"/>
    <path id="Path_20655" data-name="Path 20655" d="M2341.4-57.411l-1.945-2.178-.941,2.16-.129-.056,1.03-2.361,2.091,2.342-.1.094Z" transform="translate(-2331.603 69.746)"/>
    <path id="Path_20656" data-name="Path 20656" d="M2196.2,208l-2.025-1.745-1.539,1.668-.1-.1,1.631-1.768,1.962,1.691.851-2.926,2.245,3.008-.113.084-2.077-2.782L2196.2,208Z" transform="translate(-2189.32 -188.46)"/>
    <path id="Path_20657" data-name="Path 20657" d="M2692.262,208l-.833-2.864-2.077,2.782-.113-.084,2.246-3.008.851,2.926,1.962-1.691,1.631,1.768-.1.1-1.539-1.668L2692.262,208Z" transform="translate(-2673.885 -188.46)"/>
    <path id="Path_20658" data-name="Path 20658" d="M2691.634-57.411l-.1-.094,2.091-2.342,1.03,2.361-.129.056-.941-2.16-1.945,2.178Z" transform="translate(-2676.119 69.746)"/>
    <path id="Path_20659" data-name="Path 20659" d="M2249.394,54.226h-.993a.141.141,0,0,1,0-.282h.993a.141.141,0,1,1,0,.282Z" transform="translate(-2243.686 -41.264)"/>
    <path id="Path_20660" data-name="Path 20660" d="M2249.394,73.231h-.993a.141.141,0,0,1,0-.282h.993a.141.141,0,1,1,0,.282Z" transform="translate(-2243.686 -59.804)"/>
    <path id="Path_20661" data-name="Path 20661" d="M2249.394,92.235h-.993a.141.141,0,0,1,0-.282h.993a.141.141,0,1,1,0,.282Z" transform="translate(-2243.686 -78.343)"/>
    <path id="Path_20662" data-name="Path 20662" d="M2249.394,111.239h-.993a.141.141,0,0,1,0-.282h.993a.141.141,0,1,1,0,.282Z" transform="translate(-2243.686 -96.883)"/>
    <path id="Path_20663" data-name="Path 20663" d="M2249.394,130.24h-.993a.141.141,0,0,1,0-.282h.993a.141.141,0,1,1,0,.282Z" transform="translate(-2243.686 -115.419)"/>
    <path id="Path_20664" data-name="Path 20664" d="M2249.394,149.243h-.993a.141.141,0,0,1,0-.282h.993a.141.141,0,1,1,0,.282Z" transform="translate(-2243.686 -133.958)"/>
    <path id="Path_20665" data-name="Path 20665" d="M2271.53,38a.071.071,0,0,1-.071-.07V35.071a.071.071,0,0,1,.141,0v2.857a.07.07,0,0,1-.071.07Z" transform="translate(-2266.319 -22.784)"/>
    <path id="Path_20666" data-name="Path 20666" d="M2855.783,54.226h-.993a.141.141,0,0,1,0-.282h.993a.141.141,0,0,1,0,.282Z" transform="translate(-2835.251 -41.264)"/>
    <path id="Path_20667" data-name="Path 20667" d="M2855.783,73.231h-.993a.141.141,0,0,1,0-.282h.993a.141.141,0,0,1,0,.282Z" transform="translate(-2835.251 -59.804)"/>
    <path id="Path_20668" data-name="Path 20668" d="M2855.783,92.235h-.993a.141.141,0,0,1,0-.282h.993a.141.141,0,0,1,0,.282Z" transform="translate(-2835.251 -78.343)"/>
    <path id="Path_20669" data-name="Path 20669" d="M2855.783,111.239h-.993a.141.141,0,0,1,0-.282h.993a.141.141,0,0,1,0,.282Z" transform="translate(-2835.251 -96.883)"/>
    <path id="Path_20670" data-name="Path 20670" d="M2855.783,130.24h-.993a.141.141,0,0,1,0-.282h.993a.141.141,0,0,1,0,.282Z" transform="translate(-2835.251 -115.419)"/>
    <path id="Path_20671" data-name="Path 20671" d="M2855.783,149.243h-.993a.141.141,0,0,1,0-.282h.993a.141.141,0,0,1,0,.282Z" transform="translate(-2835.251 -133.958)"/>
    <path id="Path_20672" data-name="Path 20672" d="M2877.91,38a.071.071,0,0,1-.07-.07V35.071a.07.07,0,1,1,.141,0v2.857a.07.07,0,0,1-.071.07Z" transform="translate(-2857.875 -22.784)"/>
    <path id="Path_20673" data-name="Path 20673" d="M2091.064,345.955h-.993a.141.141,0,1,1,0-.282h.993a.141.141,0,1,1,0,.282Z" transform="translate(-2089.228 -325.861)"/>
    <path id="Path_20674" data-name="Path 20674" d="M2091.064,364.955h-.993a.141.141,0,0,1,0-.282h.993a.141.141,0,0,1,0,.282Z" transform="translate(-2089.228 -344.396)"/>
    <path id="Path_20675" data-name="Path 20675" d="M2091.064,383.955h-.993a.141.141,0,0,1,0-.282h.993a.141.141,0,0,1,0,.282Z" transform="translate(-2089.228 -362.931)"/>
    <path id="Path_20676" data-name="Path 20676" d="M2091.064,402.955h-.993a.141.141,0,0,1,0-.282h.993a.141.141,0,0,1,0,.282Z" transform="translate(-2089.228 -381.467)"/>
    <path id="Path_20677" data-name="Path 20677" d="M2091.064,421.966h-.993a.141.141,0,0,1,0-.282h.993a.141.141,0,0,1,0,.282Z" transform="translate(-2089.228 -400.013)"/>
    <path id="Path_20678" data-name="Path 20678" d="M2091.064,440.966h-.993a.141.141,0,0,1,0-.282h.993a.141.141,0,0,1,0,.282Z" transform="translate(-2089.228 -418.549)"/>
    <path id="Path_20679" data-name="Path 20679" d="M2113.19,329.72a.07.07,0,0,1-.071-.071v-2.856a.07.07,0,1,1,.141,0v2.856a.07.07,0,0,1-.07.071Z" transform="translate(-2111.85 -307.373)"/>
    <path id="Path_20680" data-name="Path 20680" d="M3014.474,345.955h-.993a.141.141,0,1,1,0-.282h.993a.141.141,0,1,1,0,.282Z" transform="translate(-2990.062 -325.861)"/>
    <path id="Path_20681" data-name="Path 20681" d="M3014.474,364.955h-.993a.141.141,0,0,1,0-.282h.993a.141.141,0,1,1,0,.282Z" transform="translate(-2990.062 -344.396)"/>
    <path id="Path_20682" data-name="Path 20682" d="M3014.474,383.955h-.993a.141.141,0,0,1,0-.282h.993a.141.141,0,1,1,0,.282Z" transform="translate(-2990.062 -362.931)"/>
    <path id="Path_20683" data-name="Path 20683" d="M3014.474,402.955h-.993a.141.141,0,0,1,0-.282h.993a.141.141,0,1,1,0,.282Z" transform="translate(-2990.062 -381.467)"/>
    <path id="Path_20684" data-name="Path 20684" d="M3014.474,421.966h-.993a.141.141,0,0,1,0-.282h.993a.141.141,0,1,1,0,.282Z" transform="translate(-2990.062 -400.013)"/>
    <path id="Path_20685" data-name="Path 20685" d="M3014.474,440.966h-.993a.141.141,0,0,1,0-.282h.993a.141.141,0,1,1,0,.282Z" transform="translate(-2990.062 -418.549)"/>
    <path id="Path_20686" data-name="Path 20686" d="M3036.6,329.72a.071.071,0,0,1-.071-.071v-2.856a.071.071,0,0,1,.141,0v2.856a.07.07,0,0,1-.07.071Z" transform="translate(-3012.684 -307.373)"/>
  </g>
</svg>
