<svg id="Group_23912" data-name="Group 23912" xmlns="http://www.w3.org/2000/svg" width="51.508" height="77.782" viewBox="0 0 51.508 77.782">
  <path id="Path_21167" data-name="Path 21167" d="M1448.1-435.339l3.79,20.584,3.72-8.413-6.919-12.171Zm.676,77.262-.478-.065,5.737-42.3-2.47-13.412-.039-.071.018-.042-4.024-21.852h1.454l7.178,12.628-4.088,9.242,7.419,13.384-.423.234-6.76-12.2,2.223,12.073-5.747,42.381Z" transform="translate(-1437.392 435.823)"/>
  <path id="Path_21168" data-name="Path 21168" d="M1652.962-423.168l3.722,8.413,3.79-20.584h-.592l-6.919,12.171Zm6.835,65.091-5.747-42.381.008-.038,2.216-12.035-6.761,12.2-.423-.234,7.419-13.384-4.087-9.242,7.178-12.628h1.453l-4.024,21.852.019.042-.039.071-2.47,13.412,5.737,42.3-.479.065Z" transform="translate(-1619.674 435.823)"/>
  <path id="Path_21169" data-name="Path 21169" d="M1343.631-359.559h47.606l-9.772-5.158H1353.4l-9.772,5.158Zm49.557.483H1341.68l11.6-6.125h28.3l11.6,6.125Z" transform="translate(-1341.68 371.959)"/>
  <path id="Path_21170" data-name="Path 21170" d="M1535.883-68.227h-17.734v-.483h17.734v.483Z" transform="translate(-1501.263 103.839)"/>
  <path id="Path_21171" data-name="Path 21171" d="M1506.457,200.735h-24.777v-.483h24.777v.483Z" transform="translate(-1468.283 -139.386)"/>
  <path id="Path_21172" data-name="Path 21172" d="M1457.309,218.8l-.2-.138,11.6-16.606.2.138L1457.309,218.8Z" transform="translate(-1446.065 -141.016)"/>
  <path id="Path_21173" data-name="Path 21173" d="M1506.907,77.1l-7.547-13.245.209-.12,7.547,13.245-.21.12Z" transform="translate(-1484.272 -15.934)"/>
  <path id="Path_21174" data-name="Path 21174" d="M1652.875,218.8l-11.6-16.605.2-.138,11.595,16.606-.2.138Z" transform="translate(-1612.611 -141.016)"/>
  <path id="Path_21175" data-name="Path 21175" d="M1641.429,77.1l-.21-.12,7.577-13.245.21.12L1641.429,77.1Z" transform="translate(-1612.557 -15.932)"/>
  <path id="Path_21176" data-name="Path 21176" d="M1500.441,62.4l0-.483,21.152-.084,0,.483-21.152.084Z" transform="translate(-1485.247 -14.215)"/>
  <path id="Path_21177" data-name="Path 21177" d="M1499.553-54.175l-.213-.114,6.687-12.492.212.114-6.686,12.492Z" transform="translate(-1484.253 102.094)"/>
  <path id="Path_21178" data-name="Path 21178" d="M1656.907-54.177l-6.718-12.492.214-.115,6.716,12.492-.212.114Z" transform="translate(-1620.668 102.097)"/>
  <path id="Path_21179" data-name="Path 21179" d="M1479.872,260.651H1473.7v-.242h6.172v.242Z" transform="translate(-1461.067 -193.787)"/>
  <path id="Path_21180" data-name="Path 21180" d="M1486.178,207.705l-5.409-5.636.174-.167,5.408,5.636-.174.167Z" transform="translate(-1467.46 -140.879)"/>
  <path id="Path_21181" data-name="Path 21181" d="M1475.387,266.012l-2.787-4.848.21-.12,2.788,4.848-.21.12Z" transform="translate(-1460.072 -194.361)"/>
  <path id="Path_21182" data-name="Path 21182" d="M1493.739,161.956l-6.659,0v-.242l6.659,0v.242Z" transform="translate(-1473.167 -104.533)"/>
  <path id="Path_21183" data-name="Path 21183" d="M1481.21,165.891l-.111-.215,7.408-3.807.109.215-7.406,3.807Z" transform="translate(-1467.758 -104.676)"/>
  <path id="Path_21184" data-name="Path 21184" d="M1486.36,122.4l-.17-.172,4.254-4.216.17.172-4.254,4.216Z" transform="translate(-1472.361 -65.019)"/>
  <path id="Path_21185" data-name="Path 21185" d="M1514.707-19.736h-3.2v-.242h3.2v.242Z" transform="translate(-1495.259 59.77)"/>
  <path id="Path_21186" data-name="Path 21186" d="M1511.605-15.49l-1.286-3.57.228-.082,1.286,3.57-.228.082Z" transform="translate(-1494.182 59.015)"/>
  <path id="Path_21187" data-name="Path 21187" d="M1517.268-108.154l-.209-.122,2.561-4.387.209.122-2.562,4.387Z" transform="translate(-1500.277 143.586)"/>
  <path id="Path_21188" data-name="Path 21188" d="M1510.627-124.16l-3.587-1.181.075-.23,3.588,1.181-.076.23Z" transform="translate(-1491.216 155.259)"/>
  <path id="Path_21189" data-name="Path 21189" d="M1519.611-62.145l-2.562-4.542.21-.119,2.562,4.543-.211.119Z" transform="translate(-1500.268 102.117)"/>
  <path id="Path_21190" data-name="Path 21190" d="M1496.706,117.891h-3.686v-.242h3.686v.242Z" transform="translate(-1478.538 -64.688)"/>
  <path id="Path_21191" data-name="Path 21191" d="M1506.461-157.05l-.231-.07,1.032-3.427.232.07-1.033,3.427Z" transform="translate(-1490.484 186.888)"/>
  <path id="Path_21192" data-name="Path 21192" d="M1478.322-301.816l-4.562-2.773.125-.206,4.563,2.773-.126.206Z" transform="translate(-1461.121 317.333)"/>
  <path id="Path_21193" data-name="Path 21193" d="M1473.49-357.458l-.22-.1,2.581-5.642.22.1-2.581,5.642Z" transform="translate(-1460.678 370.15)"/>
  <path id="Path_21194" data-name="Path 21194" d="M1429.824-339.89l-4.634-3.743.152-.188,4.634,3.743-.152.188Z" transform="translate(-1417.199 352.625)"/>
  <path id="Path_21195" data-name="Path 21195" d="M1462.751-388.788l-.192-.148,2.087-2.7.191.148-2.087,2.7Z" transform="translate(-1450.993 395.862)"/>
  <path id="Path_21196" data-name="Path 21196" d="M1458.154-404.1l-2.824-1.3.1-.22,2.824,1.3-.1.219Z" transform="translate(-1444.455 408.515)"/>
  <path id="Path_21197" data-name="Path 21197" d="M1454.858-430.727l-.237-.044.515-2.758.237.044-.515,2.758Z" transform="translate(-1443.813 433.748)"/>
  <path id="Path_21198" data-name="Path 21198" d="M1736.586-388.788l-2.086-2.7.191-.148,2.086,2.7-.192.148Z" transform="translate(-1696.911 395.862)"/>
  <path id="Path_21199" data-name="Path 21199" d="M1735.071-404.1l-.1-.219,2.823-1.3.1.22-2.823,1.3Z" transform="translate(-1697.336 408.515)"/>
  <path id="Path_21200" data-name="Path 21200" d="M1758.894-430.727l-.515-2.758.238-.044.515,2.758-.238.044Z" transform="translate(-1718.505 433.748)"/>
  <path id="Path_21201" data-name="Path 21201" d="M1415.825-339.328l-.235-.055.876-3.743.235.055-.877,3.743Z" transform="translate(-1408.518 351.997)"/>
  <path id="Path_21202" data-name="Path 21202" d="M1533.954-357.407l-.225-.089,2.22-5.642.224.089-2.219,5.642Z" transform="translate(-1515.352 370.093)"/>
  <path id="Path_21203" data-name="Path 21203" d="M1559.533-357.458l-2.582-5.642.22-.1,2.583,5.642-.22.1Z" transform="translate(-1536.351 370.15)"/>
  <path id="Path_21204" data-name="Path 21204" d="M1584.161-357.442l-.221-.1,2.461-5.642.221.1-2.461,5.642Z" transform="translate(-1560.758 370.132)"/>
  <path id="Path_21205" data-name="Path 21205" d="M1483.588-273.334l-.128-.2,3.633-2.273.128.2-3.633,2.273Z" transform="translate(-1469.893 291.123)"/>
  <path id="Path_21206" data-name="Path 21206" d="M1652.875,218.8l-11.6-16.605.2-.138,11.595,16.606-.2.138Z" transform="translate(-1612.611 -141.016)"/>
  <path id="Path_21207" data-name="Path 21207" d="M1641.42,77.1l-.211-.12,7.547-13.245.21.12L1641.42,77.1Z" transform="translate(-1612.548 -15.934)"/>
  <path id="Path_21208" data-name="Path 21208" d="M1457.309,218.8l-.2-.138,11.6-16.606.2.138L1457.309,218.8Z" transform="translate(-1446.065 -141.016)"/>
  <path id="Path_21209" data-name="Path 21209" d="M1506.618,77.1l-7.578-13.245.21-.12,7.578,13.245-.21.12Z" transform="translate(-1483.982 -15.932)"/>
  <path id="Path_21210" data-name="Path 21210" d="M1656.876-54.175l-6.687-12.492.214-.114,6.686,12.492-.213.114Z" transform="translate(-1620.668 102.094)"/>
  <path id="Path_21211" data-name="Path 21211" d="M1499.233-54.177l-.213-.114,6.718-12.492.212.115-6.717,12.492Z" transform="translate(-1483.964 102.097)"/>
  <path id="Path_21212" data-name="Path 21212" d="M1689.6,260.651h-6.173v-.242h6.173v.242Z" transform="translate(-1650.728 -193.787)"/>
  <path id="Path_21213" data-name="Path 21213" d="M1682.693,207.705l-.174-.167,5.408-5.636.174.167-5.409,5.636Z" transform="translate(-1649.904 -140.879)"/>
  <path id="Path_21214" data-name="Path 21214" d="M1717.929,266.012l-.21-.12,2.787-4.848.209.12-2.787,4.848Z" transform="translate(-1681.736 -194.361)"/>
  <path id="Path_21215" data-name="Path 21215" d="M1664.97,161.956v-.242l6.659,0v.242l-6.659,0Z" transform="translate(-1634.034 -104.533)"/>
  <path id="Path_21216" data-name="Path 21216" d="M1669.377,165.891l-7.407-3.807.111-.215,7.406,3.807-.11.215Z" transform="translate(-1631.321 -104.676)"/>
  <path id="Path_21217" data-name="Path 21217" d="M1693.464,122.4l-4.254-4.216.169-.172,4.254,4.216-.169.172Z" transform="translate(-1655.955 -65.019)"/>
  <path id="Path_21218" data-name="Path 21218" d="M1679.907-19.736h-3.2v-.242h3.2v.242Z" transform="translate(-1644.651 59.77)"/>
  <path id="Path_21219" data-name="Path 21219" d="M1695.727-15.49l-.227-.082,1.286-3.57.227.082-1.286,3.57Z" transform="translate(-1661.643 59.015)"/>
  <path id="Path_21220" data-name="Path 21220" d="M1678.182-108.154l-2.562-4.387.209-.122,2.562,4.387-.209.122Z" transform="translate(-1643.665 143.586)"/>
  <path id="Path_21221" data-name="Path 21221" d="M1676.395-124.16l-.076-.23,3.586-1.181.075.23-3.586,1.181Z" transform="translate(-1644.297 155.259)"/>
  <path id="Path_21222" data-name="Path 21222" d="M1675.821-62.145l-.21-.119,2.561-4.543.211.119-2.562,4.542Z" transform="translate(-1643.657 102.117)"/>
  <path id="Path_21223" data-name="Path 21223" d="M1693.786,117.891H1690.1v-.242h3.686v.242Z" transform="translate(-1656.759 -64.688)"/>
  <path id="Path_21224" data-name="Path 21224" d="M1703.232-157.05l-1.033-3.427.231-.07,1.032,3.427-.231.07Z" transform="translate(-1667.702 186.888)"/>
  <path id="Path_21225" data-name="Path 21225" d="M1699.015-301.816l-.126-.206,4.562-2.773.126.206-4.563,2.773Z" transform="translate(-1664.708 317.333)"/>
  <path id="Path_21226" data-name="Path 21226" d="M1721.68-357.458,1719.1-363.1l.22-.1,2.581,5.642-.22.1Z" transform="translate(-1682.984 370.15)"/>
  <path id="Path_21227" data-name="Path 21227" d="M1746.581-339.89l-.151-.188,4.634-3.743.152.188-4.635,3.743Z" transform="translate(-1707.699 352.625)"/>
  <path id="Path_21228" data-name="Path 21228" d="M1795.3-339.328l-.876-3.743.235-.055.877,3.743-.237.055Z" transform="translate(-1751.097 351.997)"/>
  <path id="Path_21229" data-name="Path 21229" d="M1664.58-357.407l-2.22-5.642.225-.089,2.219,5.642-.224.089Z" transform="translate(-1631.674 370.093)"/>
  <path id="Path_21230" data-name="Path 21230" d="M1635.61-357.458l-.22-.1,2.584-5.642.22.1-2.584,5.642Z" transform="translate(-1607.284 370.15)"/>
  <path id="Path_21231" data-name="Path 21231" d="M1612.122-357.442l-2.462-5.642.221-.1,2.462,5.642-.221.1Z" transform="translate(-1584.017 370.132)"/>
  <path id="Path_21232" data-name="Path 21232" d="M1702.5-273.334l-3.633-2.273.129-.2,3.632,2.273-.129.2Z" transform="translate(-1664.69 291.123)"/>
  <path id="Path_21233" data-name="Path 21233" d="M1382.326-298.959h-.894a.242.242,0,0,1-.242-.242.242.242,0,0,1,.242-.242h.894a.242.242,0,0,1,.242.242.242.242,0,0,1-.242.242Z" transform="translate(-1377.409 312.492)"/>
  <path id="Path_21234" data-name="Path 21234" d="M1382.326-292.535h-.894a.242.242,0,0,1-.242-.242.242.242,0,0,1,.242-.242h.894a.242.242,0,0,1,.242.242.242.242,0,0,1-.242.242Z" transform="translate(-1377.409 306.683)"/>
  <path id="Path_21235" data-name="Path 21235" d="M1382.326-286.109h-.894a.242.242,0,0,1-.242-.242.242.242,0,0,1,.242-.242h.894a.242.242,0,0,1,.242.242.242.242,0,0,1-.242.242Z" transform="translate(-1377.409 300.872)"/>
  <path id="Path_21236" data-name="Path 21236" d="M1382.326-279.684h-.894a.242.242,0,0,1-.242-.242.242.242,0,0,1,.242-.242h.894a.242.242,0,0,1,.242.242.242.242,0,0,1-.242.242Z" transform="translate(-1377.409 295.062)"/>
  <path id="Path_21237" data-name="Path 21237" d="M1382.326-273.259h-.894a.242.242,0,0,1-.242-.242.242.242,0,0,1,.242-.242h.894a.242.242,0,0,1,.242.242.242.242,0,0,1-.242.242Z" transform="translate(-1377.409 289.252)"/>
  <path id="Path_21238" data-name="Path 21238" d="M1382.326-266.836h-.894a.242.242,0,0,1-.242-.241.242.242,0,0,1,.242-.242h.894a.242.242,0,0,1,.242.242.242.242,0,0,1-.242.241Z" transform="translate(-1377.409 283.443)"/>
  <path id="Path_21239" data-name="Path 21239" d="M1387.25-297.791a.12.12,0,0,1-.121-.121v-7.463a.121.121,0,0,1,.121-.121.12.12,0,0,1,.12.121v7.463a.12.12,0,0,1-.12.121Z" transform="translate(-1382.781 317.967)"/>
  <path id="Path_21240" data-name="Path 21240" d="M1382.326-260.411h-.894a.242.242,0,0,1-.242-.242.242.242,0,0,1,.242-.242h.894a.242.242,0,0,1,.242.242.242.242,0,0,1-.242.242Z" transform="translate(-1377.409 277.633)"/>
  <path id="Path_21241" data-name="Path 21241" d="M1382.326-253.985h-.894a.242.242,0,0,1-.242-.242.242.242,0,0,1,.242-.242h.894a.242.242,0,0,1,.242.242.242.242,0,0,1-.242.242Z" transform="translate(-1377.409 271.822)"/>
  <path id="Path_21242" data-name="Path 21242" d="M1382.326-247.56h-.894a.242.242,0,0,1-.242-.242.242.242,0,0,1,.242-.242h.894a.242.242,0,0,1,.242.242.242.242,0,0,1-.242.242Z" transform="translate(-1377.409 266.012)"/>
  <path id="Path_21243" data-name="Path 21243" d="M1382.326-241.136h-.894a.242.242,0,0,1-.242-.242.242.242,0,0,1,.242-.242h.894a.242.242,0,0,1,.242.242.242.242,0,0,1-.242.242Z" transform="translate(-1377.409 260.202)"/>
  <path id="Path_21244" data-name="Path 21244" d="M1382.326-234.712h-.894a.242.242,0,0,1-.242-.242.242.242,0,0,1,.242-.242h.894a.242.242,0,0,1,.242.242.242.242,0,0,1-.242.242Z" transform="translate(-1377.409 254.393)"/>
  <path id="Path_21245" data-name="Path 21245" d="M1382.326-228.286h-.894a.242.242,0,0,1-.242-.242.242.242,0,0,1,.242-.242h.894a.242.242,0,0,1,.242.242.242.242,0,0,1-.242.242Z" transform="translate(-1377.409 248.582)"/>
  <path id="Path_21246" data-name="Path 21246" d="M1400.355-298.959h-.894a.241.241,0,0,1-.241-.242.242.242,0,0,1,.241-.242h.894a.242.242,0,0,1,.242.242.242.242,0,0,1-.242.242Z" transform="translate(-1393.714 312.492)"/>
  <path id="Path_21247" data-name="Path 21247" d="M1400.355-292.535h-.894a.242.242,0,0,1-.241-.242.242.242,0,0,1,.241-.242h.894a.242.242,0,0,1,.242.242.242.242,0,0,1-.242.242Z" transform="translate(-1393.714 306.683)"/>
  <path id="Path_21248" data-name="Path 21248" d="M1400.355-286.109h-.894a.242.242,0,0,1-.241-.242.242.242,0,0,1,.241-.242h.894a.242.242,0,0,1,.242.242.242.242,0,0,1-.242.242Z" transform="translate(-1393.714 300.872)"/>
  <path id="Path_21249" data-name="Path 21249" d="M1400.355-279.684h-.894a.242.242,0,0,1-.241-.242.242.242,0,0,1,.241-.242h.894a.242.242,0,0,1,.242.242.242.242,0,0,1-.242.242Z" transform="translate(-1393.714 295.062)"/>
  <path id="Path_21250" data-name="Path 21250" d="M1400.355-273.259h-.894a.242.242,0,0,1-.241-.242.242.242,0,0,1,.241-.242h.894a.242.242,0,0,1,.242.242.242.242,0,0,1-.242.242Z" transform="translate(-1393.714 289.252)"/>
  <path id="Path_21251" data-name="Path 21251" d="M1400.355-266.836h-.894a.241.241,0,0,1-.241-.241.242.242,0,0,1,.241-.242h.894a.242.242,0,0,1,.242.242.242.242,0,0,1-.242.241Z" transform="translate(-1393.714 283.443)"/>
  <path id="Path_21252" data-name="Path 21252" d="M1405.27-297.791a.121.121,0,0,1-.121-.121v-7.463a.121.121,0,0,1,.121-.121.121.121,0,0,1,.122.121v7.463a.121.121,0,0,1-.122.121Z" transform="translate(-1399.076 317.967)"/>
  <path id="Path_21253" data-name="Path 21253" d="M1400.355-260.411h-.894a.242.242,0,0,1-.241-.242.242.242,0,0,1,.241-.242h.894a.242.242,0,0,1,.242.242.242.242,0,0,1-.242.242Z" transform="translate(-1393.714 277.633)"/>
  <path id="Path_21254" data-name="Path 21254" d="M1400.355-253.985h-.894a.242.242,0,0,1-.241-.242.242.242,0,0,1,.241-.242h.894a.242.242,0,0,1,.242.242.242.242,0,0,1-.242.242Z" transform="translate(-1393.714 271.822)"/>
  <path id="Path_21255" data-name="Path 21255" d="M1400.355-247.56h-.894a.242.242,0,0,1-.241-.242.242.242,0,0,1,.241-.242h.894a.242.242,0,0,1,.242.242.242.242,0,0,1-.242.242Z" transform="translate(-1393.714 266.012)"/>
  <path id="Path_21256" data-name="Path 21256" d="M1400.355-241.136h-.894a.242.242,0,0,1-.241-.242.242.242,0,0,1,.241-.242h.894a.242.242,0,0,1,.242.242.242.242,0,0,1-.242.242Z" transform="translate(-1393.714 260.202)"/>
  <path id="Path_21257" data-name="Path 21257" d="M1400.355-234.712h-.894a.242.242,0,0,1-.241-.242.242.242,0,0,1,.241-.242h.894a.242.242,0,0,1,.242.242.242.242,0,0,1-.242.242Z" transform="translate(-1393.714 254.393)"/>
  <path id="Path_21258" data-name="Path 21258" d="M1400.355-228.286h-.894a.242.242,0,0,1-.241-.242.242.242,0,0,1,.241-.242h.894a.242.242,0,0,1,.242.242.242.242,0,0,1-.242.242Z" transform="translate(-1393.714 248.582)"/>
  <path id="Path_21259" data-name="Path 21259" d="M1809.156-298.959h-.894a.242.242,0,0,1-.242-.242.242.242,0,0,1,.242-.242h.894a.242.242,0,0,1,.242.242.242.242,0,0,1-.242.242Z" transform="translate(-1763.396 312.492)"/>
  <path id="Path_21260" data-name="Path 21260" d="M1809.156-292.535h-.894a.242.242,0,0,1-.242-.242.242.242,0,0,1,.242-.242h.894a.242.242,0,0,1,.242.242.242.242,0,0,1-.242.242Z" transform="translate(-1763.396 306.683)"/>
  <path id="Path_21261" data-name="Path 21261" d="M1809.156-286.109h-.894a.242.242,0,0,1-.242-.242.242.242,0,0,1,.242-.242h.894a.242.242,0,0,1,.242.242.242.242,0,0,1-.242.242Z" transform="translate(-1763.396 300.872)"/>
  <path id="Path_21262" data-name="Path 21262" d="M1809.156-279.684h-.894a.242.242,0,0,1-.242-.242.242.242,0,0,1,.242-.242h.894a.242.242,0,0,1,.242.242.242.242,0,0,1-.242.242Z" transform="translate(-1763.396 295.062)"/>
  <path id="Path_21263" data-name="Path 21263" d="M1809.156-273.259h-.894a.242.242,0,0,1-.242-.242.242.242,0,0,1,.242-.242h.894a.242.242,0,0,1,.242.242.242.242,0,0,1-.242.242Z" transform="translate(-1763.396 289.252)"/>
  <path id="Path_21264" data-name="Path 21264" d="M1809.156-266.836h-.894a.242.242,0,0,1-.242-.241.242.242,0,0,1,.242-.242h.894a.242.242,0,0,1,.242.242.242.242,0,0,1-.242.241Z" transform="translate(-1763.396 283.443)"/>
  <path id="Path_21265" data-name="Path 21265" d="M1814.081-297.791a.12.12,0,0,1-.12-.121v-7.463a.12.12,0,0,1,.12-.121.12.12,0,0,1,.12.121v7.463a.12.12,0,0,1-.12.121Z" transform="translate(-1768.767 317.967)"/>
  <path id="Path_21266" data-name="Path 21266" d="M1809.156-260.411h-.894a.242.242,0,0,1-.242-.242.242.242,0,0,1,.242-.242h.894a.242.242,0,0,1,.242.242.242.242,0,0,1-.242.242Z" transform="translate(-1763.396 277.633)"/>
  <path id="Path_21267" data-name="Path 21267" d="M1809.156-253.985h-.894a.242.242,0,0,1-.242-.242.242.242,0,0,1,.242-.242h.894a.242.242,0,0,1,.242.242.242.242,0,0,1-.242.242Z" transform="translate(-1763.396 271.822)"/>
  <path id="Path_21268" data-name="Path 21268" d="M1809.156-247.56h-.894a.242.242,0,0,1-.242-.242.242.242,0,0,1,.242-.242h.894a.242.242,0,0,1,.242.242.242.242,0,0,1-.242.242Z" transform="translate(-1763.396 266.012)"/>
  <path id="Path_21269" data-name="Path 21269" d="M1809.156-241.136h-.894a.242.242,0,0,1-.242-.242.242.242,0,0,1,.242-.242h.894a.242.242,0,0,1,.242.242.242.242,0,0,1-.242.242Z" transform="translate(-1763.396 260.202)"/>
  <path id="Path_21270" data-name="Path 21270" d="M1809.156-234.712h-.894a.242.242,0,0,1-.242-.242.242.242,0,0,1,.242-.242h.894a.242.242,0,0,1,.242.242.242.242,0,0,1-.242.242Z" transform="translate(-1763.396 254.393)"/>
  <path id="Path_21271" data-name="Path 21271" d="M1809.156-228.286h-.894a.242.242,0,0,1-.242-.242.242.242,0,0,1,.242-.242h.894a.242.242,0,0,1,.242.242.242.242,0,0,1-.242.242Z" transform="translate(-1763.396 248.582)"/>
  <path id="Path_21272" data-name="Path 21272" d="M1827.186-298.959h-.894a.242.242,0,0,1-.242-.242.242.242,0,0,1,.242-.242h.894a.242.242,0,0,1,.241.242.241.241,0,0,1-.241.242Z" transform="translate(-1779.7 312.492)"/>
  <path id="Path_21273" data-name="Path 21273" d="M1827.186-292.535h-.894a.242.242,0,0,1-.242-.242.242.242,0,0,1,.242-.242h.894a.242.242,0,0,1,.241.242.242.242,0,0,1-.241.242Z" transform="translate(-1779.7 306.683)"/>
  <path id="Path_21274" data-name="Path 21274" d="M1827.186-286.109h-.894a.242.242,0,0,1-.242-.242.242.242,0,0,1,.242-.242h.894a.242.242,0,0,1,.241.242.242.242,0,0,1-.241.242Z" transform="translate(-1779.7 300.872)"/>
  <path id="Path_21275" data-name="Path 21275" d="M1827.186-279.684h-.894a.242.242,0,0,1-.242-.242.242.242,0,0,1,.242-.242h.894a.242.242,0,0,1,.241.242.242.242,0,0,1-.241.242Z" transform="translate(-1779.7 295.062)"/>
  <path id="Path_21276" data-name="Path 21276" d="M1827.186-273.259h-.894a.242.242,0,0,1-.242-.242.242.242,0,0,1,.242-.242h.894a.242.242,0,0,1,.241.242.242.242,0,0,1-.241.242Z" transform="translate(-1779.7 289.252)"/>
  <path id="Path_21277" data-name="Path 21277" d="M1827.186-266.836h-.894a.242.242,0,0,1-.242-.241.242.242,0,0,1,.242-.242h.894a.242.242,0,0,1,.241.242.241.241,0,0,1-.241.241Z" transform="translate(-1779.7 283.443)"/>
  <path id="Path_21278" data-name="Path 21278" d="M1832.1-297.791a.121.121,0,0,1-.122-.121v-7.463a.121.121,0,0,1,.122-.121.121.121,0,0,1,.12.121v7.463a.121.121,0,0,1-.12.121Z" transform="translate(-1785.062 317.967)"/>
  <path id="Path_21279" data-name="Path 21279" d="M1827.186-260.411h-.894a.242.242,0,0,1-.242-.242.242.242,0,0,1,.242-.242h.894a.242.242,0,0,1,.241.242.242.242,0,0,1-.241.242Z" transform="translate(-1779.7 277.633)"/>
  <path id="Path_21280" data-name="Path 21280" d="M1827.186-253.985h-.894a.242.242,0,0,1-.242-.242.242.242,0,0,1,.242-.242h.894a.242.242,0,0,1,.241.242.242.242,0,0,1-.241.242Z" transform="translate(-1779.7 271.822)"/>
  <path id="Path_21281" data-name="Path 21281" d="M1827.186-247.56h-.894a.242.242,0,0,1-.242-.242.242.242,0,0,1,.242-.242h.894a.241.241,0,0,1,.241.242.241.241,0,0,1-.241.242Z" transform="translate(-1779.7 266.012)"/>
  <path id="Path_21282" data-name="Path 21282" d="M1827.186-241.136h-.894a.242.242,0,0,1-.242-.242.242.242,0,0,1,.242-.242h.894a.242.242,0,0,1,.241.242.242.242,0,0,1-.241.242Z" transform="translate(-1779.7 260.202)"/>
  <path id="Path_21283" data-name="Path 21283" d="M1827.186-234.712h-.894a.242.242,0,0,1-.242-.242.242.242,0,0,1,.242-.242h.894a.242.242,0,0,1,.241.242.242.242,0,0,1-.241.242Z" transform="translate(-1779.7 254.393)"/>
  <path id="Path_21284" data-name="Path 21284" d="M1827.186-228.286h-.894a.242.242,0,0,1-.242-.242.242.242,0,0,1,.242-.242h.894a.242.242,0,0,1,.241.242.242.242,0,0,1-.241.242Z" transform="translate(-1779.7 248.582)"/>
</svg>
