<svg xmlns="http://www.w3.org/2000/svg" width="104.621" height="93.332" viewBox="0 0 104.621 93.332">
  <g id="Group_23906" data-name="Group 23906" transform="translate(0)">
    <path id="Path_20613" data-name="Path 20613" d="M414.12,424.111v0a.179.179,0,0,0-.006-.041v0h0a.136.136,0,0,0-.018-.039l-.006-.008a.115.115,0,0,0-.028-.029l0,0a.091.091,0,0,0-.019-.012L399.687,416.5l1.294-2.052,2.518-.351a.089.089,0,0,0,.072-.065.087.087,0,0,0-.034-.091l-2.723-2.01a.006.006,0,0,1-.006,0l-.012-.006-.012-.005a.028.028,0,0,0-.014,0h-.017l-.009,0a.062.062,0,0,1-.012,0l-.013.007s-.006,0-.007,0l-1.625,1.2a.081.081,0,0,0-.035.026l-.035.025a.157.157,0,0,0-.138.022l-8.951,6.6-30.587-.645-11.32-7.563a.149.149,0,0,0-.157-.006l-3.174-1.525a.085.085,0,0,0-.095.014.064.064,0,0,0-.008.01l-2.534,1.777,0,0a.094.094,0,0,0-.03.044h0a.024.024,0,0,0,0,.012v0h0a.082.082,0,0,0,.013.056.026.026,0,0,1,.006.007h0a.055.055,0,0,0,.027.021l1.432.771s.007.009.013.012a.081.081,0,0,0,.041.01l.027,0h.816l2.186,2.675-13.9,6.678h0l-.01.005-.02.015-.008.006-.018.022,0,0-.583.909h0a.215.215,0,0,0-.016.033v.007a.174.174,0,0,0-.006.03v.008a.142.142,0,0,0,0,.032v.006a.1.1,0,0,0,.01.03v0l0,0a.178.178,0,0,0,.014.02.109.109,0,0,0,.009.012.186.186,0,0,0,.025.022l.007,0a.117.117,0,0,0,.036.016.024.024,0,0,0,.015,0,.1.1,0,0,0,.024,0h0l21.081.458.189,2.173a.063.063,0,0,0,.006.061l.274,3.157a.088.088,0,0,0,.007.03l20.468,66.162a.12.12,0,0,0,.015.034l.7,1.14-.012.015a.063.063,0,0,0-.014.054.066.066,0,0,0,.033.045l.094.053,2.293,3.752a.15.15,0,0,0,.128.072h0a.153.153,0,0,0,.128-.07l3.135-4.972a.154.154,0,0,0,.019-.049l5.091-23.124a.065.065,0,0,0,.035-.051.062.062,0,0,0-.014-.044l7-31.816.023-.034a.064.064,0,0,0,0-.071l2.45-11.128a.158.158,0,0,0,0-.036l-.128-4.44,17.48.38h0a.153.153,0,0,0,.041-.006.043.043,0,0,0,.012-.007.1.1,0,0,0,.025-.01h0l1.318-.844,0,0a.159.159,0,0,0,.032-.029h0a.2.2,0,0,0,.017-.024l0-.013a.03.03,0,0,1,0-.008A.192.192,0,0,0,414.12,424.111Zm-19.706,7.654-.132-.136.233-.325Zm-.775,3.519-.213-.259.389-.542Zm-.714,3.243-.212-.267.416-.656Zm-1.42,6.452-.212-.26.407-.625Zm-.719,3.266-.245-.3.444-.605Zm-.748,3.4-.224-.3.429-.63Zm-.737,3.351-.286-.393.55-.8Zm-.731,3.32-.251-.321.488-.758Zm-.729,3.31-.276-.351.5-.663Zm-.755,3.431-.247-.343.473-.688Zm-.776,3.52-.336-.444.621-.847Zm-1.533,6.963-.327-.441.6-.78Zm-.759,3.444-.318-.389.566-.74Zm-.8,3.618-.35-.484.633-.8Zm-.783,3.56-.352-.477.623-.754Zm-.771,3.5-.333-.42.579-.692Zm-.785,3.569-.327-.414.576-.713Zm-.05.224-.959.376.052-.237.546-.675.374.475Zm-1.1,2.993-.1-.127.318-.212Zm-.131.211-.784.4.107-.273.595-.4.141.17Zm-2.6,1.029-.03-.017.023-.038Zm-.143-.08-.369-.2-.7-1.717.19-.228.725.211.254,1.754Zm-.291-.012.227.125-.1.179Zm-1.4-1.16.194-.234.427.281.093.231c-.013.125-.025.239-.035.338l-.457-.25Zm-1.692-4.341.717.713-.354.458Zm-.61-1.975.677.259-.312.919Zm-1.05-3.393c.122.05.3.117.552.2l-.257.747Zm-.572-1.85.819.851c-.155.237-.288.439-.379.574Zm-.567-1.834.6.195-.266.888Zm-.527-1.7.792.775-.38.554Zm-.562-1.817.582.187-.247.892Zm-.52-1.68.806.755-.4.561Zm-1.1-3.574.793.713-.414.515Zm-1.095-3.534.641.228-.253,1.023Zm-.461-1.492.689.613-.346.5Zm-1.086-3.509.641.533-.348.413Zm-.647-2.094.651.257-.228,1.11Zm-.449-1.45.7.6-.367.473Zm-1.075-3.476.714.57-.383.5Zm-.629-2.029.6.219-.2,1.079Zm-.475-1.532.765.632-.4.531Zm-.625-2.021.6.255-.206,1.034Zm-.406-1.31.686.495-.393.452ZM359.9,448.2l.8.708-.42.534Zm-1.027-3.318.749.552-.418.517Zm-.606-1.96.563.208-.178,1.033Zm-.448-1.448.789.574-.45.52Zm-.581-1.88.534.207-.172.961Zm-.482-1.555.822.631-.453.559Zm-.577-1.869.534.2-.178.946Zm-.487-1.571.846.666-.47.551Zm-.565-1.83.49.2-.153.891Zm-.441-1.424.831.512-.5.556Zm-.583-1.882.517.21-.15.977Zm-.561-5.645.467.889-.126.274-.26-.229Zm-1.749-.349.756-.329.369.255-.141.1Zm-2.134-.048-.59-.619,2.085.048-1.342.577Zm-3.2-.069-.51-.621,1.53.035.174.224-.961.367Zm-3.013-.065-.04-.036.974-.555.815.018-1.557.577Zm-3.047-.067-.694-.628,1.517.033.437.215-1.066.385Zm-6.281-.137-.515-.412.432-.207,1.756.039-1.48.586Zm10.127-11.425.117.019-.035.256-.3.108Zm4.44.737,1.2,1.682-.19.081-1.671-1.1v-1.1Zm6.259,5.225-.469-.31.583-.534Zm7.465,1.9-.723.135-.007,0-.2-.049.086-.107Zm1.991.042.044.522-.3.039-.706-.02c-.321-.078-.85-.214-1.359-.344l1.182-.221Zm1.518.033.653.216-1.955.25-.042-.495Zm6.7.142-.8.113.113-.127Zm1.962.041-.733.6-.162-.005-1.548-.4,1.552-.221Zm.991.022,1.092.277-.012.014-1.626.19-.036-.493Zm3.037.065-1.428.165-.208-.053.12-.145Zm5.153.108-1.782.177-.09-.025.184-.189Zm1.845.039.845.262-1.488.2L384.9,420Zm3.491.074a.088.088,0,0,0,0,.059l-2.4.437.553-.536Zm11.4-5.188-.233-.4.508-.033Zm2.2,5.083.307,2.854-5.314-3.17,1.079-1.71Zm6.7,3.869-.044-.436.881.454Zm-.175,0-1.339-.03-.093-1.207,1.378.711Zm-.007.3-1.28.348-.029-.376Zm-4.145-.394,2.45-1.286.089.047.1,1.3Zm-10.162,2.437-.548.332.531-.922Zm-.033-1.134.008.3-.755,1.312-.106.064v-.5l.409-.946.433-.242Zm-.287,5.928-.4.55-.415-.422.194-.873.658.557Zm-.7,3.179-.546.756-.323-.393.285-1.285.63.709Zm-.676,3.067-.582.922-.324-.411.3-1.332.661.588Zm-1.432,6.5-.573.878-.333-.407.344-1.557.618.83Zm-.725,3.29-.6.813-.306-.376.32-1.443.632.79Zm-1.415,6.429-.705,1.036-.26-.36.391-1.767.627.845Zm-.752,3.416-.653,1.014-.306-.391.343-1.548.668.688Zm-1.5,6.817-.627.914-.31-.433.357-1.612.635.888Zm-.723,3.282-.771,1.055-.23-.306.083-.376.036-.013a.062.062,0,0,0,.043-.044.067.067,0,0,0-.013-.06l-.032-.038.287-1.295.647.855ZM380.2,492.362l.436-1.97.608,1.192-.051.233-.72.893Zm.189.452-.4.5.173-.782ZM379,495.565l.086-.022-.034.087Zm-4.581-.426-.062-.2.421-.99.128.049.295.951Zm-1.124-3.629.368-1.084.153.058.622,2.009-.165.212-.879-.875Zm-.526-1.7.4-.5.421.45.077.25-.085.25-.767-.294Zm-.294-3.65.076.242-.141.408c-.28-.1-.51-.18-.642-.236l-.035-.111c.091-.133.243-.365.422-.638Zm-.248-.444.074-.117.088.285Zm.388.895.092.3-.175-.057Zm-.1-1.34.273-.421.793.245.5,1.62-.373.515-.653-.208Zm-.96-2.075-.121-.038.054-.177Zm-.155-1.518.347-.5.708.283.553,1.787-.246.349-.855-.28Zm-.137.578-.155-.152.075-.11Zm-.8-2.582-.138-.045.057-.211Zm-.142-1.482.339-.476.72.269.5,1.6-.349.425-.712-.227Zm-.16.5-.118-.111.059-.082Zm-2.337-4.862.428-.514.326.269.013.039-.761.225Zm-.073-2.917-.089-.033.035-.142Zm-.161-1.545.4-.579.607.2.508,1.637-.437.613-.559-.2Zm-.114.654-.208-.186.1-.15Zm-.863-2.784-.038-.015.013-.065Zm-.117-1.4.444-.526.574.184.511,1.649-.365.495-.687-.261Zm-.132.6-.218-.181.117-.139Zm-.8-2.58-.09-.036.031-.153Zm-.145-1.489.444-.576.562.194.511,1.651-.424.594L365.93,464Zm-.142.562-.175-.149.092-.119Zm-.8-2.581-.122-.046.042-.211Zm-.138-1.468.48-.627.507.178.511,1.65-.44.613-.564-.211Zm-.164.491-.132-.1.07-.091Zm-.775-2.5-.131-.048.044-.233Zm-.135-1.462.512-.676.463.185.515,1.662-.473.61-.525-.19Zm-.182.436-.092-.077.048-.063Zm-2.888-9.321-.181-.07.064-.308Zm-.127-1.432.543-.67.426.154.5,1.624-.48.662-.5-.2Zm-.2.367-.058-.043.032-.042Zm-.726-2.346-.163-.06.052-.3Zm-.1-1.357.645-.746.287.105.49,1.583-.538.7-.421-.158Zm-.229.281-.009-.006.005-.005Zm-.694-2.237-.195-.074.063-.35Zm-.124-1.427.63-.78.293.111.483,1.561-.628.79-.294-.114Zm-.938-2-.191-.074.064-.339Zm-.108-1.37.739-.861.143.052.5,1.621-.625.807-.291-.111Zm-.938-2.008-.242-.1.076-.437Zm-.1-1.359.7-.775.219.082.458,1.479-.7.809-.212-.088Zm-1.893-2.477-.015-.183.672-.307v0l.075.24-.032.208-.661.164Zm.436-3.319.058.75-.251-.162Zm-.306.514-.4-.255-.035-.409.225-.49.454.4Zm.634-.2.1.2-.075.189Zm-2.786-3.609a.086.086,0,0,0-.083-.008l-.076.033-2.672-.06,1.273-2.315,1.226,1.5.011.021a.072.072,0,0,0,.028.034l.016.01.669.82-.349-.008Zm-7.1-.13,1.6-.913.746.966Zm-7.3-1.55.6.291.1,1.112-.6-.014C337.658,421.779,337.621,421.236,337.594,420.86Zm.1-.143.438-.211.038.444Zm-.279.134c.031.436.067.956.1,1.393l-2.877-.065Zm.114,1.7c.013.216.023.391.028.506l-.258.088-.64-.615Zm.2.448c0-.116-.013-.269-.024-.444l1.248.026Zm.731-.73-.089-1.027,2.2,1.074Zm-.106-1.226-.053-.611.57-.273,3.875,1.987.014.218-1.779-.039Zm-.1-1.2.281.144-.259.123Zm4.674,2.4.267.135-.258-.007Zm.663.145-.676-.347-.2-2.941.885,3.288Zm-1.091-3.956.235,3.516-3.665-1.877Zm.284,4.24,0,.037-.041-.037Zm-.594-.013-.3.11-.25-.122Zm.347.06.266.238.017.27-.718-.352Zm.472.57H343l-.012-.166.124.111Zm-.038-.415-.013-.2,1.085.025-.774.439Zm.872-.479,3.359-1.83.185.233-2.832,1.613Zm2.337-9.586h.921a.146.146,0,0,0,.028.03l-.041,1.064Zm15.191,6.952a.244.244,0,0,0,.034.017c.523.132.925.237,1.239.314l-1.508-.039Zm15.8.455,1.171.3-1.766-.047.167-.2Zm17.07.8-.1.546.018-.814ZM397.9,414.3l1.275.066.143,1.183-.256.416v0l-.1.156-.863-.449-.223-1.356Zm.89,10-.039-.382.244.005Zm-3.544-.764,1.228-1.945,1.441,2.006Zm-1.008.859.349-.235-.1.242Zm-.517,2.957-.122-.142.04-.092.082-.05Zm.8,1.418-.494-.163v-.713l.6.687Zm.2-.086.185.214-.258-.086Zm-1.191,2.171-.813-.829.007-.032.625-.2.263.091a.08.08,0,0,0,.041.012h0l.071.026v.041Zm-2.261,10.2-1.094.337.323-1.445.784,1.053Zm-1.917,8.65-.912-.343,0,0L389.5,449Zm1.005.514-.914.478.132-.594.545.029Zm-7.633,29.389-1.1.362-.062-.079.369-1.647,1.018-.37.124.149Zm-.8,3.61-1.008.315-.129-.169.368-1.642,1.023-.353.119.165Zm-.8,3.6-.919.312-.205-.25.365-1.631.993-.338.145.2Zm-.778,3.508-.965.336-.179-.217.376-1.683.937-.347.2.251Zm-.263,1.19-.614-.747.844-.292Zm-.917-.911.085.1-.117.041Zm-.838,2.359-.444.461-.336-.48-.059-.192.786-.273.1.257Zm-3.607-.611.26-.336.844.285.545,1.759-.192.285-.952-.365Zm-1.364-4.4.413-.57.585.179.014.045-.487.61-.506-.2Zm.5-.681.29-.4.168.539Zm.565.485.235.76-.642-.251Zm-.053-1.192.219-.3.838.867.075.239-.453,1.3-.031-.013Zm-2.077-2.061.536-.757.39.127.02.068c-.153.237-.321.5-.49.757l-.438-.136Zm.615-.868.165-.235.1.322Zm.382.467.262.845-.674-.208C373.031,484.482,373.178,484.257,373.28,484.1Zm0-1.013.184-.258.876.846.062.2-.285,1.249-.229-.071Zm-2.169-2.36.463-.565.537.171.018.061-.426.619-.574-.229Zm.552-.672.263-.32.139.447Zm.516.5.23.746-.582-.233Zm-.023-1.1.22-.268.745.57.2.644-.369,1.113-.182-.072Zm-2.112-2.169.437-.631.556.215.022.068-.442.623-.552-.205Zm.514-.741.261-.378.169.543Zm.549.548.228.734-.593-.219Zm-.068-1.243.182-.264.8.636.222.715-.374,1.091-.176-.066Zm-1.971-2.224.885-.26.028.091-.322.4Zm.506.339-.4.5-.234-.756Zm-1.2-2.08.347-.487.7.249.017.051-.39.468-.657-.218Zm.426-.6.358-.5.218.707Zm.687.557.161.521-.467-.155Zm-.108-1.369.1-.135,1,.9.071.229-.323,1.09-.223-.074Zm-2.092-2.1.426-.576.59.224.021.069-.378.55-.641-.21Zm.506-.685.287-.388.174.565Zm.58.561.184.593-.483-.158ZM368.3,467l.164-.223.832.677.341,1.1-.293.553-.437-.145Zm-2.1-2.107.359-.5.7.275.018.055-.376.446-.679-.217Zm.437-.611.348-.489.221.712Zm.681.584.149.481-.438-.139Zm-.112-1.382.184-.259.767.584.328,1.051-.243.735-.422-.134Zm-2.108-2.15.348-.482.709.263.018.059-.357.464-.7-.242Zm.426-.594.361-.5.222.719Zm.7.587.156.507-.431-.149Zm-.116-1.4.071-.1.92.575.268.861-.217.834-.415-.144ZM364,457.772l.33-.428.749.274.018.059-.32.419-.76-.268Zm.414-.537.391-.506.227.733Zm.731.594.138.444-.377-.133Zm-.114-1.393.127-.165.862.647.24.773-.228.845-.392-.137Zm-2.143-2.254.268-.323.852.359-.27.357-.832-.335Zm.357-.426.467-.56.27.872Zm.824.595.125.406-.332-.133Zm-.127-1.43.059-.072.931.573.3.962-.185.714-.49-.2Zm-2.051-5.6.019.061-.233.3-.826-.3.259-.357Zm-.7-.411.4-.556.25.811Zm.767.622.088.281-.239-.087Zm-.142-1.483.037-.052.975.656.229.737-.164.735-.49-.18ZM359.7,443.9l.264-.344.859.319.018.056-.269.335-.851-.306Zm-1.073-3.462.181-.23,1,.385.017.054-.182.21-1-.364Zm-1.064-3.432.18-.232,1,.379.018.058-.184.226-.992-.372Zm-1.077-3.477.128-.149,1.1.447.018.055-.09.1-1.138-.41Zm-1.02-3.29.127-.173,1.087.435.016.052-.137.151-1.073-.4Zm.623-3.9-.96-.29.335-.846Zm12.761,39.687-.413.559-.306-.248.195-.586.488.156Zm.048.153.325,1.045-.685-.557Zm-.532-.55.185-.562.215.69Zm-.614-3.135-.388.543-.272-.206.148-.569.493.171Zm.049.156.291.94-.625-.473Zm-.527-.514.167-.644.245.786Zm-1.336-2.765.18-.667.512.181.019.061-.5.7-.15-.092Zm.759-.269.344,1.106-.786-.49Zm-.545-.523.177-.66.253.81Zm-.573-3.07-.449.582-.177-.132.178-.686.428.171Zm.047.151.325,1.044-.717-.536Zm-.462-.514.137-.528.208.668Zm-1.323-2.548-.055-.176.187-.629.512.194.017.055-.53.637Zm.706-.408.325,1.043-.789-.485Zm-.538-.52.183-.619.244.781Zm-1.218-2.524.191-.852.4.145.018.06-.526.7Zm.656-.494.36,1.158-.826-.541Zm-.436-.488.119-.53.2.649Zm-1.29-2.412-.064-.2.169-.7.5.179.019.062-.522.721Zm.667-.5.374,1.2-.838-.563Zm-.531-.522.161-.667.253.816Zm-1.238-2.532c.056-.242.124-.517.186-.779l.441.162.018.056-.579.759-.005,0Zm.692-.406.382,1.227-.9-.553Zm-.474-.5c.052-.213.1-.413.143-.571l.218.7Zm-1.271-2.494c.09-.306.164-.559.224-.769l.4.148.018.059-.582.734,0,0Zm.686-.411.362,1.16-.877-.511Zm-.426-.482c.056-.2.1-.35.129-.47l.183.588Zm-.7-3.132-.577.746-.035-.115.2-.894.373.134Zm.048.152.349,1.123-.886-.431Zm-.433-.541.111-.493.186.6Zm-1.3-2.436.158-.715.48.178.015.05-.587.682,0,0Zm.7-.341.334,1.075-.852-.477Zm-.513-.5.148-.672.255.821Zm-2.7-2.8-.019-.245.581-.531.349.662-.747.193Zm1.384-1.549-.061.778-.512-.183-.615-1.166,1.05.317Zm-.484.766.411.148-.034.425-.066.018Zm1.2.533-.627.552-.092-.174.019-.237.679-.179Zm-.69,0,.028-.345.542.2Zm.735.13.355,1.139-.92-.642Zm-.7-.609.05-.618.437.795Zm-1.126-.506-.423-.275.121-.3Zm-.427-.122.551.358.053.1-.53.487Zm.127,1.639,0-.035.13-.034.674.328-.669.167Zm.32-.12.631-.164.229.435,0,.015-.186.045Zm.9.409.012.039-.056-.028Zm.452,1.461-.96-.385.587-.819Zm.109.354.027.085-.078-.028Zm-.264-1.877,1.02.712.2.651-.191.875-.383-.143Zm1,2.366-.112.511-.194-.625Zm-.776,2.091.615-.714.342,1.1Zm1.069.752,0,.007,0,0Zm-.212-1.71.974.544.243.778-.156.7-.49-.174Zm1.033,2.149-.154.688-.26-.838Zm-.766,2.2.545-.7.32,1.032Zm.978.694.057.184-.159-.059Zm-.181-1.608.954.465.307.986c-.039.154-.105.391-.181.657l-.483-.181Zm1.044,2.232c-.056.193-.114.4-.17.589l-.229-.738ZM358.9,440.1l.547-.689.317,1.026Zm.975.69.051.168-.149-.055Zm-.191-1.64,1,.58.236.761c-.041.138-.1.368-.2.756l-.436-.159Zm1.006,2.223c-.04.166-.085.359-.137.58l-.221-.71Zm-.636,2.074.459-.6.27.873Zm.841.632.1.337-.291-.1Zm-.148-1.5,1.014.622.192.62-.209.86-.388-.139Zm.965,2.228-.12.5-.189-.609Zm1.155,3.437-.153.686-.259-.836Zm.043,1.123.966.633.07.229-.785.145-.294-.948Zm-1.068,1.415.029-.037.659-.124.391.151-.721.2-.339-.13Zm.932-.206.126-.023.024.081Zm.425-.077.541-.1-.487.274Zm-.338-.07-.32.059-.37-.143.471-.621Zm-.563.105-.311.058.1-.136Zm-.5.091,0,0-.1-.325.272.1Zm-.164.508-.592.164.515-.413Zm.276-.13.08.029-.065.02Zm.284.108.423.161-.459.529-.194-.625Zm.21-.059.533-.15-.229.265Zm.63-.064.106.343-.3-.114Zm.258-.19.708-.4.132.422-.235.794-.4-.15Zm.567.945-.134.453-.177-.569Zm1.16,3.479-.163.625-.244-.79Zm-.085.872.127.1-.07.092ZM366,458.664l-.128.477-.182-.587Zm.075,1.093-.009.012-.006-.02Zm1.049,2.463-.136.525-.2-.641Zm-.069.742.239.181-.127.18Zm1.153,2.75-.155.472-.179-.579Zm.159.978-.112.149-.1-.32Zm8.729,27.738.227-.234.316.365-.569-.009Zm.056-.245.035-.149.05.06Zm-.36.223-.158-.514.187-.281.119.137Zm-.3.057-.194-.074.117-.174Zm.633-1.544-.318.478-.515-.6-.079-.257c.013-.034.027-.066.039-.1l.912.307Zm-.393.589-.15.224-.193-.624Zm.163-.012.152-.224-.073.318Zm-.595-1.175c.206-.52.332-.847.407-1.055l.414,1.332Zm-1.21-3.405.028-.082.946.369.022.067-.4.543-.454-.43Zm1.043.51.357,1.147-.706-.667Zm-.973-.713.4-1.139.458,1.47Zm-.944-3.427.7.216.017.054-.364.5-.426-.44Zm.761.426.355,1.139-.675-.7Zm-.732-.553.238-1.04.383,1.233Zm-1.306-3.187.1-.29.786.315.023.069-.4.562-.438-.425Zm.954.25.371,1.192-.721-.7Zm-.816-.664.314-.947.381,1.226Zm-1.221-3.085.1-.281.774.288.017.055-.386.47-.445-.341Zm.936.21.267.857-.6-.455Zm-.8-.613.317-.927.366,1.182Zm-1.233-3.128.151-.449.656.263.023.071-.395.568-.392-.313Zm.878.043.316,1.014-.657-.522Zm-.685-.613.258-.762.307.986Zm-.76-1.262.114-.387.638.214-.739.216Zm.151-.512.268-.91.348,1.117Zm-1.2-2.858.258-.484.5.164.019.059-.474.663-.248-.223Zm.825-.106L370.4,471l-.849-.766Zm-.507-.5.223-.419.17.549Zm-.185.075-.186.351-.143-.458Zm.1,1.035-.049.069-.049-.157Zm.807,2.434-.06.2-.078-.252Zm-.156.921.142.457-.385-.154Zm.217-.325.791-.233.109.354-.312.925-.3-.121Zm.546,1.168-.1.287-.114-.37Zm.331,1.055-.13.189-.119-.387Zm.708,2.646-.04.118-.047-.151Zm.446.957-.164.2-.133-.426Zm.637,2.529-.041.124-.05-.16Zm.459,1.1-.138.195-.145-.468Zm.719,2.515-.06.258-.093-.3Zm.4.918-.175.24-.192-.62Zm1.125,3.755-.148.2-.15-.488Zm.1.09.862.815.074.237c-.09.252-.289.767-.467,1.218l-.05-.017-.615-1.984Zm.065,2.133-.712-.24.456-.59Zm-.371-1.2-.292-.111.181-.25Zm.049.158.019.059-.539.7-.407-.138-.018-.059.524-.72Zm-.994.405-.276-.889.724.275Zm.39.46-.177.228-.1-.322Zm1.253,2.484-.225.335-.374.091-.23-.743Zm.124.047.3.116-.018.023-.445.107Zm.142.3-.165.2-.348.054.1-.154Zm.212-.049,0,0,.027.186-.213.034Zm.388.093.662.016-.3.321Zm.271.43-.238.252-.08-.546Zm.566-.413.123,0-.1.774-.4-.371Zm-.391-.766.133-.139.144.462Zm-.085-.1-.106-.123.126-.557.154.5Zm.346-.65.118.167-.05.052Zm-.164-.745.294-1.3.422,1.053Zm16.213-67.038-.389.365.389-.843Zm-.713,1.069.051.12-.244.3Zm.323.429-.122-.289.511-.629v.016Zm-.071.165-.481,1.115-.327-.5.144-.315.52-.636Zm.134,4.21-1.073.328.3-1.351.783.974ZM391,436.287l-.245-.338.46-.623Zm.962,1.615-1.074.279.311-1.4.775,1.069Zm-2.251.715.627-.162-.392.54-.247-.33Zm.967-.891-.606-.71.048-.211.555-.749.287.4Zm-.242-2.32.824-.36-.584.79-.257-.354Zm.394-1.744.572-.845.3.35-.328,1.469-.593-.736Zm1.114-.207.714.838-1,.438Zm-.468-.749.465-.686.014,0-.221.991Zm-.33-.442.6-.183-.354.522-.253-.3Zm.946-.865-.588-.718.052-.231.505-.731.318.4Zm.048-1.791.128-.184.248.086-.1.441Zm-.288-.463.007-.018.849-.568-.492.711-.365-.124Zm.81-.291-.118.53-.2-.069Zm-.523.528-.084.119-.166-.206Zm.664.226.333.116-.387.121Zm.028-.127.219-.973h.233l.246,1.093-.185.057Zm.726.246v0h-.005Zm.144.053-.02-.092.039-.012v.111Zm-.049-.218-.229-1.021.3.1v.9Zm.068-1.059-.6-.2.3-.69.3.7Zm-1.332-.524.289.446-.713.476Zm-.593,1.409.182.227-.345.5Zm-.328,1.453.589.716-.019.087-.179.265-.679.207Zm-.368,1.625.213.25-.4.6Zm-.361,1.6.594.735-.019.083-.841.368Zm-.359,1.587.214.3-.4.547Zm-.344,1.524.606.71-.048.216-.138.191-.713.184Zm-.374,1.658.2.274-.387.536Zm-.347,1.535.585.84-.049.222-.057.074-.79.244Zm-.344,1.528.689-.214-.415.549-.283-.3Zm-.043.187.238.253-.422.562Zm-.464,11.6-.083.039-.742-1.023,0,0,.837.928Zm-3.1,13.643-.772-1.017.013-.059.151-.053.74.861-.055.242Zm-.7,3.474-.017.005-.834-1.026.011-.05.078-.025.775,1.033Zm-.758,3.419-.086.029-.772-1.045.012-.061.069-.024.789,1.044Zm-.761,3.437-.163.059-.741-.906.012-.053.185-.064.719.906Zm-.777,3.5-.154.054-.732-1.01.014-.06.075-.025.808.988Zm-.923-.787.641.885-.909.317Zm-.6,1.317-.074.029-.569-1.032.052-.231.787-.991.237.291Zm.745,3-.19.064-.715-.965.013-.057.164-.05.741.951Zm-.943-.735.624.844-.878.3Zm.082-.368.014-.059.034.043Zm-.673,1.624-.043.015-.579-1.154.05-.225.793-.919.224.29Zm.763,2.95-.267.1-.677-.852.008-.038.272-.093.677.828Zm-.982-.59.586.735-.818.3Zm.079-.348.041-.185.109.132Zm-.648,1.51-.1.039-.526-1.182.053-.233.783-.908.241.293Zm-.04.181-.012-.024.017-.006Zm.332-2.564.326-.378-.136.609Zm-.49-.667.878-.3.048.1-.05.222-.469.543-.419-.51Zm1.294-2.854.3-.354-.129.579Zm-.5-.662.843-.292.066.12-.046.213-.446.516-.421-.54Zm1.257-2.807.337-.425-.147.657Zm-.476-.651.914-.331.017.03-.051.238-.488.612-.4-.493Zm1.562-1.736.649.793-.9.327Zm.082-.363.019-.082.048.059Zm-.669,1.6-.6-1.148.052-.23.752-.923.244.309Zm.285-2.4.348-.426-.15.674Zm-.458-.644.912-.3.007.014-.05.222-.493.6-.388-.49Zm.4-1.778.773-.943.224.3-.437,1.95-.61-1.079Zm1.171-1.428-.009.039-.019-.007Zm-.156-.013-.145-.054.166.026Zm.117-.144-.542-.085.688-.24-.044.2Zm-.2.249-.15.184-.248-.326Zm.13.048.076.029-.1.447-.175-.233Zm.107,1.275.68.919-.956.314Zm.109-.482.147-.661.992.359-1.082.378Zm1.545-.688,0-.008,0,0Zm.151.014.347.056-.528.185Zm-.519.248-1-.362.026-.117,1.045.163Zm-.518-2.522.741.908-1.026.36Zm-.606,1.319-.6-1.08.053-.234.749-.952.237.316Zm.282-2.373.348-.441-.156.7Zm-.442-.663.9-.293-.049.221-.494.631-.375-.5Zm1.54-1.751.679.894-.948.308Zm.083-.373.008-.03.018.023Zm-.675,1.634-.6-1.054.052-.232.738-.948.245.284Zm.272-2.339.352-.453-.153.685Zm-.451-.578.893-.282-.024.11-.505.65-.374-.435Zm.414-1.832.681-.854.26.342-.392,1.756-.6-1.02Zm1.161-.112.767,1.068-1.083.343Zm-.4-.846.383-.479-.17.758Zm-.412-.6.871-.22-.012.053-.528.661-.342-.449Zm.39-1.726.627-.836.292.388-.362,1.617-.609-.938Zm1.15-.094.823,1.048-.009.044-1.122.283Zm-.442-.85.458-.612-.21.941Zm-.368-.563.841-.286-.556.741-.3-.4Zm.436-1.927.573-.706.313.367-.335,1.5-.6-.944Zm1.114.028.761.976-1.06.361Zm-.458-.836.463-.573-.2.886Zm-.359-.506.9-.414-.013.061-.613.757-.288-.337Zm.436-1.93.686-.881.252.278-.4,1.785-.59-.954Zm1.148-.155.659.91-.961.442Zm-.38-.832.359-.462-.154.69Zm-.425-.527.869-.316-.019.083-.514.663-.345-.386Zm.525-1.66.721-.337-.082.372Zm.609.16-.035.162-.468-.188Zm.4-.415.242.319-.31-.016Zm-.256-.242-.831.388.62-.861.249.3Zm-.941.655.729.291-.134.6-.61-.83Zm1.014.405.612.246-.726.262Zm.029-.128.058-.257.442.023.378.5-.11.039Zm.954.376v.006l-.006,0Zm.08-.363-.189-.229.237.014Zm-.035.162-.008.029-.324-.43h0Zm-1.234-1.692.383-.531-.175.781Zm-.006-2.314.6-.794.291.331-.339,1.522-.6-.838Zm-.079,2.212-.325-.39.827-.309Zm1.206-2.343.772.956-1.077.4Zm-.448-.768.439-.583-.193.862Zm-.366-.487.827-.342-.549.729-.29-.332Zm1.538-1.986.739.906-1.038.426Zm-.577,1.19-.59-.843.049-.224.583-.773.3.32Zm-.629-.673.591.846-.025.112-.863.356Zm-.38,1.68.245.28-.442.588Zm-.354,1.565.6.841-.027.122-.862.321Zm-.359,1.584.289.348-.535.743Zm-.409,1.811.6.812-.849.307Zm-.332,1.471.3.334-.531.683Zm-.389,1.722.588.951-.9.413Zm-.395,1.747.241.283-.423.525Zm-.336,1.485.6.944-.03.142-.883.3Zm-.4,1.756.256.34-.476.636Zm-.382,1.692.609.937,0,.02-.871.219Zm-.345,1.531.3.387-.536.669Zm-.4,1.755.587,1-.876.276Zm-.368,1.624.329.381-.584.749Zm-.417,1.85.539.944-.814.265Zm-.358,1.578.329.44-.6.765Zm-.435,1.922.543.975-.821.255Zm-.339,1.5.35.463-.628.767Zm-.435,1.923.539.953-.813.265Zm-.357,1.582.34.429-.606.742Zm-.426,1.88.525,1-.818.3Zm-.375,1.663.357.436-.637.8Zm-.441,1.952.488.883-.746.26Zm-.333,1.472.371.477-.651.756Zm-.435,1.924.5,1-.787.268Zm-.368,1.624.369.451-.639.74Zm-.432,1.906.452,1.015-.742.275Zm-.373,1.655.379.463-.638.681Zm.037-.161.012-.054.829-.306.085.191-.048.219-.446.474Zm.821.3-.123.55-.182-.222Zm1.563-1.229.148-.056-.041.19Zm.23-.422-.583-.711.8-.269Zm.612-3.079.077-.028-.023.1Zm.159-.4-.645-.83.888-.277Zm.658-3.148.042-.015-.013.055Zm.122-.377-.713-.87.977-.321Zm.653-3.121.043-.015-.012.052Zm.124-.385-.625-.788.866-.3Zm.274-1.237-.985.341-.141-.179.36-1.611,1.069-.349.072.1Zm.488-2.2-.7-.924.978-.342Zm.948-1.9.057-.075.329.135Zm-.145-.024-.064-.009.031-.139.111.047Zm-.364-.056-1.044-.163.1-.45.991.406Zm-.821-.7,1.034-.362.018.024-.156.7Zm1.143-.746-.682-.91.953-.314Zm.3-1.372-1.067.353-.067-.091.367-1.64,1.063-.343.067.086Zm-.132-3.046.874-.3-.231,1.044Zm-.092-.107-.116-.133.331-1.484,1.146-.361-.362,1.639Zm1.443-2.345-.808-1.06,1.113-.318Zm-.8-1.2.309-1.38,1.123-.285-.3,1.34Zm.738-3.042,1.08-.366-.309,1.389Zm-.029-.128.348-1.553,1.139-.389-.345,1.555Zm1.564-2.3-.818-.964,1.106-.339Zm-.8-1.1.348-1.556,1.075-.495.062.085-.359,1.62Zm1.6-2.468-.765-.848,1.015-.284Zm-.828-.965.32-1.432.941-.341.16.062-.31,1.4Zm1.914-2.535.006-.033.107.041Zm-.307-.015-.38-.022-.309-.372.716.268Zm-.874-.731.311-1.392,1.126-.419-.32,1.445Zm1.516-2.17-.821-.935,0-.008,1.111-.37Zm-.787-1.09.312-1.394,1.129-.465-.329,1.488Zm1.485-2.057-.053-.064.055.058Zm-1.3-1.579.446-.593-.193.864Zm.6-1.292-.584-.839.053-.234.541-.748.306.411Zm.09-1.93.5-.684-.232,1.035Zm.828-.784,1.075-.277-.23,1.039-1.086.317Zm1.156-.64-.773-1.067,0-.018.789,1Zm-.734-1.247.012-.054,1.091-.365-.314,1.419Zm.045-.2.3-1.344,1.115-.489-.325,1.467Zm1.454-2-.791-.964L392,433.2l1.118-.514Zm-.74-1.189.252-1.128,1.074-.328-.209.942Zm1.405-1.813-.783-.974.018-.079.814.83Zm.581-1.647.036-.012-.036.064Zm0-.136v-.705l.43.142-.3.522Zm-.3-1.459-.226-.536.048-.109.179.2Zm0-2.045-.569.7-.07-.165.106-.229.533-.5Zm-44.844-3.555,1.313-2.491.121.149-1.347,2.451Zm4.954-1.671.056.344-.078-.219Zm2.115,1.247.406.3-.371.292Zm.552.4.248.18.008.128-.629-.015Zm.445-1.291.457.36-.521.411-.04-.7Zm.6.47.654.517.01.643-.972-.023-.317-.23-.023-.4Zm6.935-1.11.2,2.337-.917-.609c-.037-.45-.088-1.024-.156-1.752Zm5.119-.762.044.487-.645.091-.2,0,.787-.573Zm8.787,1.131-3.062,2.285h-.087l-.173-2.372Zm9.85.264L385.31,423.3l-.286-2.32Zm1.1-.491.154.058.208.262-.017.584-.51-.27-.327-.218,0-.076Zm2.074,2.871-.046-.407.631.421Zm.938.323-.845.511-.059-.531Zm-14.238-.279-1.118.127-.364-.1v-.1l1.421.033Zm-2.73.49-.056,0,1.131-.125v.154Zm-1.205-.026-.012-.009v-.022l.089-.47.6-.077.247.005-.786.576Zm-4.447-.1-.5-.01.726-.579.38.007,1.086.233.013.14-1.525.2Zm-11.686-.59-.376-.274.547.011,0,.238Zm-3.224.2a.078.078,0,0,0-.017,0l-.02,0-.072-.118-.058-.161.629-.077Zm1.68-.5-.288.553-.164.023-.031-.527.407-.051Zm.193,0,.672.014.432.317-1.375.188Zm.243-.3Zm1.582.339.574.012,0,.1-.568.077Zm.625-2.723,0,.219-.152-.1.153-.119Zm14.813.6.441.9-.129.672-.213-.142Zm1.084,1.831-.463-.95.2-1.069.111,0Zm14.932.689h-.039l.036-1.262.169,1.143Zm-.968.691-.022-.412.58.014Zm-9.829-.558.541-.06h.051l-.542.463Zm-5.6,0,.391-.052.023.332Zm-.217-.146-.083-.056.44.009Zm5.331-2.422.161,1.31-1.034-.672Zm-1.2.873.113,1.071-.8-.566Zm-3.158,1.213.06-.307.48.319Zm1.453.033.676-.492v.508Zm.676.318v.057l-.227-.064Zm.172-.938.018-.012.959.673-.976-.023Zm1.158.576-.14-1.318.014-.011,1.211.789.081.654-1.036-.024Zm1.275-.417.847.552-.782-.017Zm2.426-.089,1,.7-.947-.023Zm-.124.674-.964-.021.914-.668Zm7.1-.974-.679-.489.637-.469Zm.47.552.7.5,0,.1-.663-.014Zm.7.293-.713-.512-.061-1.215.808.54Zm-5.8.607.022.3-.376-.261Zm-.568-.112-.031-.024.192.007Zm.773.542-.033-.449.749-.081.238,0-.771.569-.123,0Zm2.322-1.322c.014.163.029.344.044.525l-.734-.014Zm.176.028.661.515-.619-.013C386.564,423.194,386.552,423.03,386.535,422.84Zm.04-.189.983-.727.119,1.442-.192,0Zm1.276.719-.118-1.427.733.528.04.913Zm2.291-1.14.765.511-.622.446Zm-6.168,1.053-.046-.637.936.658Zm-.174,0-1.013-.02,0,0-.162-1.529,1.126.791Zm-1.2-.155-1.068-.751.916-.669Zm-2.36-.024-.088-1.484,1.082.76Zm-.174-.007-1.037-.677-.192-1.552.06-.044.127,0,.947.665Zm-5.133-.175-.516-.342.1-.515Zm-.709-.26-.077.406-.05,0-.035-.511Zm-.3.4-1.127-.025-.249-.169-.142-1.41,1.474.975Zm-1.535-.035-.845-.018-.054-.645.893.6Zm-.028-.284-.947-.639.817-.651Zm-1.054-.5.064.764-1.055-.023.956-.765Zm-7.462,1.289c0-.086-.008-.2-.017-.343l.517-.038.332.008-.586.414Zm-2-.435.656.014-.709.05Zm6.772-2.509.118,1.6-1.227-.816Zm-1.451,1.023.085,1.068-.815-.551Zm-1.786,1.261.731-.516.045.533Zm.8.32,0,.034-.142-.036Zm.094-.951.009-.007.983.666v.016l-.939-.021Zm1.158.563-.1-1.309.027-.018,1.4.927.04.545-1.183-.028Zm1.531.149-.031-.426.661.441Zm-.52.291-.3.04-.071-.048Zm.378.124.03.394-.493-.335Zm.2.418-.032-.441.582-.077.1,0Zm2.366-.477,0,.029-.144-.032Zm-1.33-.35-.151-1.655,1.207.814Zm-.174,0-.972-.648-.129-1.751h.013l.927.625Zm-.766-2.391.55.014.034.379Zm-6.911,2.237,0-.043.068.046Zm-.174,0-.812-.019-.091-.729.891.588Zm-.985-.023-1.18-.025,1.086-.726Zm-1.481-.033-.183-.005.028-1.52.16,1.522Zm-1.069-.024-.007-.408.535.422Zm.919.332.012-.008.252.006-.2.027Zm.782.1a.087.087,0,0,0,.073-.09l.814.017.074.591-.008.009-1.319-.478Zm1.112.331-.05-.4.363.007Zm1.641-.23.269.175-.817-.135Zm.284-.022.414-.029c.007.116.013.217.017.3l-.026,0Zm1.091.383.634-.446.324,0,.909.237.01.128-1.3.174Zm2.046-.158.156.042-.151.019Zm-.016-.182-.007-.076,1.4.033.132.088-.9.119Zm1.74.191.563.38-.11,0-1.119-.29Zm3.484.092.24.051-.234.031Zm-.016-.18,0-.061,1.374.03.145.1-.744.1Zm1.73.211.338.229-.79-.17Zm1.412.293.658-.481.135,0,.943.256v.027Zm3.7-.414-.047.006-.009-.008Zm.586.108.045.374-.464-.326Zm1.023-.072.437.01.941.239,0,.047-1.981.216Zm1.2.028.159,0,0,.036Zm.333.006,1.37.031.082.058-.989.106-.457-.116Zm1.666.238.567.4h-.046l-1.246-.317Zm2.054-.155,1.155.026c.009.107.017.211.024.3l-1.931.227Zm1.33.032.994.022.161.124-1.134.133C386.617,423.844,386.611,423.75,386.6,423.646Zm1.284.027.634.015,0,.013-.522.061Zm.643.2.013.312-.348-.273Zm.558.379.52-.371-.011.41h-.123Zm.81.046.017-.58.275,0,.086.584Zm.416-.921.747-.535.107.071.06.53-.908-.02Zm.857-.826-.065-.042.067-.044.069.036Zm-.352-.234-.269-.18.218.114Zm-.756-.632-.056-.392.494.623Zm-4.929,1.594-1.221-.857-.106-1.472,1.044.029Zm-1.5-2.332.1,1.347-1.987-1.4Zm-2.2-.059.938.66-.989.72-1.244-.874-.031-.541Zm-1.475.381-.621-.438.6.017Zm-.151-.728.107-.009v.013Zm-.633-.11.7-.524.026.45Zm-4.574.274-.155.814-.4-.827Zm-.734,1.508-2.405-1.592,2.3.061Zm-2.733-1.6,1.023.676-.891.71-1.368-.921-.046-.5Zm-6.208,2.245h-.072l-.2-2.416,3.464.093Zm-.456-.012-.662-.014c-.008-.132-.02-.28-.033-.448Zm-.836-.018-1.026-.023-.41-.269-.1-1.264,1.487.99C363.6,422.46,363.615,422.651,363.629,422.828Zm-2.446-.959.749-.5.078,1.046Zm-1.444.757-.169-1.612,1.3.857Zm-.881-2.341-.034.027-.044-.028Zm-.225-.308.512-.368-.008.381Zm-.166.308.213.141-.21.163Zm.365.241.292.193-.034,1.833-.6-.471-.019-1.274Zm-.645,1.312-.511-.4.5-.394Zm-1.457.484-.093-.069.087-.065Zm-2.146.7-.033-.093.66.013Zm-7-7.554-.054-.111.39-.187.267.322-.376.136Zm.809.273.6.718-.875-.616Zm5.578,6.455-.318-.383.013-.083.284.406Zm-2.118-1.848.427.315.214.607-.682.242Zm-1.666-2.124-.019-.343.494.6-.281.153Zm.042.489-.016.008,0-.045Zm2.351,1.806-.054-.066-.263-.743.317.459Zm.173-.1.063.088-.062.02Zm-1.877-1.953v0a.1.1,0,0,0-.025-.028l-.7-.84,0-.055.021-.287.817.954v.394Zm.4.756-.373.11.185-.338Zm-.116-.413v-.4l.541.63.019.054-.263.076Zm.559.464-.007.2-.135-.163Zm.163.276.082.231-.087-.106Zm-.723-1.407v-.629l.381,1.072Zm-.173-.2-.658-.767.649-.173.009.025Zm-.067-1.1-.735.2.133-1.894Zm-.145,1.777.2.236-.248.448-.035-.026-.232-.484Zm.623.752.306.368-.011.283-.714-.529Zm.472.567.263.319.043.121-.314-.233Zm.825,1,.3.362.1.764Zm.059-.2V420.7l.16-.05.04.314Zm.372.222.4.575-.018.109-.347-.418Zm-.372-.836v-.686l.109.842Zm-.173-.25-.537-.773-.13-.365,0-.07a.083.083,0,0,0,0-.017l-.015-.093.681-.2Zm-1.42-3.258v-.039l.3.326.163,1.008Zm-.51-1.437.337.516v.434Zm-.665,2.223-.451-.546a.082.082,0,0,0-.023-.028l0,0-.942-1.136,1.581-.569Zm-.018.249-.008.113-.138-.29Zm.255,1.271.08-.042.087.181-.166-.124Zm.327.471.019.042-.314.093-.019-.367Zm1.136.841-.039,1.052-.8-1.675Zm.867,1.207.333.934-1-.7Zm.787,1.168-.138-1.06.268.323-.12.737Zm.277-.562.479.577h0l-.572-.011Zm.112-.524-.022-.03,0-.021Zm-.164-.236-.473-.681.278-.086.221.614Zm-.506-.85-.161-1.245.416,1.166Zm-.518-2.245-.668.192-.2-1.249.807.886Zm-.92-1.368-.035-.219.419.639Zm-.212-.233-.248-.27v-.362l.192.292Zm-.248-.95v-.139l.08.052.045.279Zm0-.5v-.079l.014.087Zm-.6-.393-.033-.048.457-.5v.823Zm-.967.25-1.236.445-.27-.326.052-.019Zm-.37-.278.488-.171.187.123Zm-1.834.761.031.065a.1.1,0,0,0,.02.04l.075.16-.274.1Zm.523.443,1.41.994-.666.8-.844-1.755Zm1.518,1.136.5,1.054-.041.582-1.13-.837Zm.623,1.97.025.472-.063-.076.028-.4Zm.015.735-1.311,2.486-1.11-1.4,2.259-1.286Zm.18-.055.3-.087-.15.271Zm.45,0,.638,1.333-.82-1Zm2.2,2.892-.3-.005-.38-.466Zm.177.326.109.307-.039.025-.217-.266Zm.381.083.015-.1.181.007-.069.044Zm2.145.07.231-.027.03.52-.861-.019Zm2.385.385.219.16-1.186-.027Zm.528.165,0-.238.564-.079-.007.329Zm.863-.358.091-.013,1.152.418-1.249-.027Zm2.278.068a.071.071,0,0,0,.028.012l1.9.318.1.064v.009l-2.3-.05Zm4.566.379.007.079-.53-.012Zm.181.085-.009-.107.583-.079.826.214Zm5.031.036.006.072-.485-.012Zm.18.075-.009-.1.728-.1,1.1.233Zm5.005-.069.351-.039.891.243-1.242-.026Zm1.956.221-1.139-.311.877-.1.592.416Zm2.835-.089.011.151-1.157-.026Zm.171-.017L382,423.9l.972.247-1.38-.028h0Zm4.88.17c0,.039.005.075.007.108l-.788-.018Zm.18.112c0-.037-.006-.082-.008-.132l1.316-.155.415.324Zm3.809.084-.087-.584.9.019.066.584Zm2.106-.469.8.531-1.621-.035Zm2.065-1.638.065.2-.128-.05Zm.114-2.2.95-1.469v.587l-.055.294-.353.822-.556-.164Zm1.368,1.075.049.068-.357.431Zm.1-.16.112-.181.12.068-.167.2Zm.2-.328.526-.852.3.1-.685.83Zm-.139-.1-.208-1.051.706.244Zm-.194-1.229.875-1.449.211,1.231-.3.488Zm.366-2.5.36.186.082.48-.525-.228Zm-.115.611.545.238-.856,1.419Zm-.84,2.829-.017.1-.021-.008Zm.425-.622.178.9-.329-.1Zm.217,1.092.007.038-.1.163c-.005.008-.008.015-.012.021l-.513.831.22-1.17Zm-1.237,2.62-.1-.073.078-.129Zm-.187.238-.1,0,.03-.05Zm-.3-.008-.314-.006v-.053l.123-.288.28.2Zm-.138.553.452-.21,0,0-.556.376Zm.959-.818.167-.894.01-.021.861-1.042.1.144Zm1.152-2.1.216-.26.088.05-.213.337Zm.328-.4.394-.475-.326.516Zm.707-.647,1.136,1.694-1.624-.92Zm-.38-.523.177-.289.065.373Zm-.034-2.546,1.063.549-.758,1.229Zm1.181.17-.582-.8.462.063Zm.059-.714.458.062-.355.574Zm-.285.7-1.02-.526-.062-.358.486.065Zm-1.113-1.063-.1-.609.481.661Zm-.179-.026-.093-.012.048-.252Zm.031.177.049.286-.239-.124.034-.181Zm-.471.018-.008-.006.017-.04Zm-.058.31-.321,1.71-.01-.045,0-.009-.142-.713.407-.976Zm-.507,1.661-.017.025-.224-.086.155-.372Zm-.112.173-.633.977.438-1.052Zm-.328,1.951-.379.882-.119-1.027Zm.167.051.056.017-.37,1.974-.057.093-.032-.012-.1-.9Zm-.634,1.572-.018-.055.009-.02Zm.011.6.067.208-.175.286-.317-.228.16-.371Zm-.546.111.06-.3.061.024Zm3.918.87-1.557-2.167.255-.4,1.933,1.1.668.993-.273.5Zm.967-1.285.589.333-.164.3Zm.441.967.239.355-.426-.01Zm.093-.171.2-.376.483.274-.341.618Zm-.75-1.116-1.372-2.044.087-.139,3.375,2.013-.569,1.033Zm-1.428-2.279-.11-.64,0-.006.74-.362Zm.759-2.047.114.059-.471.519Zm.17-.276.5-.806.432.058,0,0-.935.749Zm.756-1.224.048.07-.068-.036Zm.116-.137.112-.078.035.293Zm.243-.444.616-1,.263.45-.872.609Zm1.005-1.328.7-.481-.316.5Zm-.243-.043.117-.433.72-.143Zm1.222-.556.11.269-.416.215Zm-.306-.213-.749.149.053-.2Zm-.65-.22.264-.986.522,1.045Zm-.287.406-.566.11-.354-.433.986.074Zm-.051.186-.111.417-.278-.339Zm-.177.608-.546.884-.114-.938.641.033Zm-1.2,1.954-.012.018-.586-.081-.046-.273Zm-.778-.088-.574-.08-.631-.866,1.148.6Zm-1.97-.076L396,416.19l.059.008Zm-.592.034.475.245-.311.751-.181-.908Zm.044,1.284-.256.615-.145-.055.253-1.306Zm-.434.731.111.042-.221.534Zm-.476,2.466.1.866-.049.117-.15-.464Zm-.055,1.224-.144.334-.1-.038.126-.651Zm-.848,1.848-.032.169-.049-.17Zm-.17.323-.5-.338.414.008Zm-.694-.646-.024-.154.3.161Zm-.175,0-.1,0-1.1-.736.1-.072,1.061.559Zm-.945-.924.716-.506.154.964Zm-.171-.09-.2-.105.913-.591.133.1Zm.563-.8-.937.606-.285-.149L389.99,421l0-.171,1.952.724Zm-2.4-1.227,0,.1-.112-.042-.045-.059.145-.1Zm-.508-.129-.689.47-1.651-.044Zm-2.848.412-1.359-.036,0-.038,1.626-.215-.237.23A.082.082,0,0,0,386.346,420.717Zm-1.534-.04-.069,0,.067-.008Zm-1.034-.051-1.322-.348,2.28-.227.055.443Zm-.663,0-1.677-.044.224-.229.3-.029Zm-1.876-.089-.178-.124.333-.033Zm-.257.032-.9-.023,0-.036.715-.071Zm-.91-.232-.027-.423.535.373Zm-1.222.115-1.2-.3,1.905-.222Zm-2.5-.006-1.045-.028,1.183-.136Zm-1.5-.149v0Zm-.18.022-.557.065.646-.533Zm-3.266,0,.237-.266.046-.007,1.218.312Zm-.226-.007-.2,0-.2-.133.6-.085Zm-.525-.013-.627-.016.5-.071Zm-.846-.16-.039-.426.536.354Zm-.511-.47-.785.574-.1,0-1.063-.351,1.734-.222Zm-1.485.554-2.543-.069c.43-.054.98-.125,1.683-.216Zm-4.387.185c.046.489.1,1.081.144,1.633l-2.548-1.7Zm-1.488.755-.908.6-1.479-.975-.051-.487,1.2.031ZM359.465,420l-.022-.2.006-.292.771.515Zm-1.308.265h.007l.008.562-.635.5-.445-.351Zm-1.488.994.041.719-.218.173-.554-.4Zm-.9.6.046.79-1.191-.026Zm-1.55.12-.294-1.764.754-.6-.358,2.649Zm-.265-2.007.331-2.038.41,1.446Zm-.262.529-1.56-4.374,2.051,1.354Zm-1.5-3.3-.673-1.029-.081-.5.273.18Zm-.82-1.937-.106-.66.274.771Zm-.943-.723-.146-.206.494-.171Zm-.265-.074-.089-.06.037-.012Zm-.271-.179-.023-.015.12-.049.017.024Zm-1.661.484-.195.012-.011,0v-1.368l1.335.88Zm-.379.041-.6-.721.044-1.151.554.364Zm-.324-2.085.324-.647v.861Zm-.112-.164-.489-.472.846-.24Zm-.245,0a.152.152,0,0,0-.07.054h-1.064l-.187-.223.884-.252Zm.072,1.78.477.576-.509.245Zm.407,1.653.595,1.238-.916-1.122Zm2.231,2.882,0,.013-.193.105-.544-.664Zm-.016.218-.008.113-.061-.076Zm-.069.311-2.258,1.285-.184-.229,2.286-1.244Zm-3.153,1.994.851-.484,1.174,1.48-.045.087-1.164-.026Zm1.556,1.374-.38.145-.119-.156Zm.216.1-.254.482-.231-.3Zm4.213,0,.022.029-.08.034-.095-.066Zm.135.166.055.067-.081-.056Zm.955.177.511-.169.024.314-.593-.1Zm4.608.689a.139.139,0,0,0,.041.007h0a.124.124,0,0,0,.035,0l35.168.764-2.005,4.35a.325.325,0,0,0-.01.031L377.3,492.155l-19.967-64.183a.28.28,0,0,0-.012-.028l-2.255-4.1Zm-3.243.588-.141-.12v-.136Zm.177.324.126.227-.363.921-.071-.136-.008-1.285Zm-.747,1.919.109,1.411-.029.026a.068.068,0,0,0-.02.056.066.066,0,0,0,.036.05l.025.012.012.158-.753-.639-.022-.249.337-1.022Zm.174,2.508-.044.289-.428-.173Zm.137-.035.013,0,.143.46-.213-.085Zm.307-.078.811-.2.224.108-.616.857-.209-.085Zm.341.873-.05.07-.032-.1Zm1,.793-.613.679-.317-1.024Zm.023,2.52-.047.054-.026-.082Zm1.06.763-.652.761-.347-1.119Zm.069,2.633-.1.13-.06-.192Zm.872.818-.548.679-.312-1Zm.192,2.615-.1.128-.059-.19Zm.869.8-.561.648-.3-.962Zm.286,2.547-.183.24-.107-.347Zm.646.864-.46.571-.256-.828Zm.5,2.6-.233.32-.145-.468Zm.608.816-.493.625-.281-.911Zm.128.048.371.134.5,1.608-.549.728-.4-.153-.492-1.589Zm-.768,1.122-.069-.059.036-.047Zm.327,1.057-.133-.051.044-.242Zm.049.156.182.589-.6.478.209-1.144Zm-.416,1.3.753-.211.252.813-.126.144-.835-.6Zm1.052.747.049.16-.114-.083Zm.355,1.15-.14-.059.048-.242Zm-.122-1.419.545-.625.442.169.483,1.556-.547.657-.435-.186Zm.835,1.858-.189.228-.109-.352Zm.625.875-.436.571-.265-.854Zm.547,2.615-.249.324-.144-.467Zm.492.907-.4.522-.231-.744Zm.63,2.595-.27.374-.168-.537Zm.413.942-.362.47-.207-.668Zm.7,2.594-.282.4-.179-.577Zm.372.933-.357.421-.184-.594Zm.772,2.476-.347.471-.211-.683Zm.282,1-.32.463-.2-.634Zm.727,2.6-.269.378-.165-.533Zm.368.923-.341.41-.18-.583Zm.13.044.6.2.223.723-1.029.3-.221-.715Zm-.577,1.044-.175-.143.1-.113Zm-.641.614.762-.224.31,1-.1.13-.95-.849Zm1.118.926.05.16-.1-.093Zm.363,1.174-.138-.055.052-.224Zm-.135-1.459.482-.6.519.206.553,1.787-.338.487-.721-.278Zm1.141,1.988-.363.523-.233-.754Zm.18,1.063-.262.368-.164-.526Zm.9,2.452-.378.458-.2-.643Zm.185,1-.271.4-.178-.576Zm1.061,2.578-.457.646-.273-.884Zm-.025,1.107c-.065.1-.131.2-.2.3l-.123-.4Zm.97,2.532-.331.457-.193-.62C373.27,487.224,373.444,487.281,373.636,487.339Zm.159.981-.236.3-.137-.442Zm.127.049.775.3.545,1.759-.259.357-.851-.325-.526-1.7Zm-.414,1.105-.251-.27.121-.151Zm.232.744.033.109-.062-.024Zm.751,2.425.122.4-.242-.241Zm.372,1.2-.028-.01.015-.035Zm.383,1.233.022.072-.164.025h-.262Zm.294-.07.231-.054-.09.133-.11.016Zm.314.416-.108.13-.075-.184Zm-.127-.174.031-.044.32-.049-.132.159Zm.543-.122.358-.057.067.461-.614-.177Zm.765.637.3.088-.281.07Zm.043-.122.255-.273.412.381-.155.039Zm1.159-.8.052.061-.059-.01Zm-.024.181.2.035.361.437-.648.163Zm.4.068.313.054.186.267-.194.049Zm.579.21-.087-.123.128.022Zm.346-.05.4.069-.441.041Zm-.537-.223-.086-.125.389.117-.022.055Zm-.179-.032-.335-.058-.181-.22.407.124Zm-.5-.41.17-.066.106.15Zm-.011-.134.033-.146.072.106Zm-.3-.037-.217-.7.081-.085.236.337Zm-.044-.878.313-.326-.131.589Zm.468-1.019-.031-.08.054-.019Zm-.079-.2-.493-1.234.051-.228.778-.834.236.288-.437,1.96Zm.7-1.2.591.749-.822.286Zm.037-.164.012-.056.237-.082.709.862-.011.051-.263.093Zm.913.925-.04.182-.1-.132Zm.955-2.906.215.272-.376.451Zm.036-.164.433-1.954.031-.012.573,1.2-.051.233-.721.865Zm.749-3.377.187.252-.332.4Zm.036-.17.443-2,.006,0,.6,1.166-.051.229-.763.925Zm.755-3.4.181.25-.33.415Zm.037-.168.415-1.873.635.993-.047.217-.775.976Zm.747-3.371.224.274-.4.522Zm.036-.162.415-1.87.622,1.032-.051.232-.717.935Zm.739-3.336.2.271-.367.478Zm.037-.169.39-1.76.646.909-.048.214-.742.97Zm1.406-2.536-.486-.2.167-.223.323.4Zm-.61-.25-.164-.066.116-.522.255.315Zm-.013-.75.391-1.765.611,1.042-.053.236-.648.858Zm.716-3.234.189.248-.349.477Zm.787-3.547.269.375-.52.757Zm.747-3.372.243.307-.442.589Zm.036-.164.382-1.724.606.992-.052.233-.65.864Zm.7-3.147.268.345-.525.813Zm.743-3.358.221.3-.427.627Zm.487-2.2.25-1.127.281.374-.509.747Zm.312-1.261.875-.457-.579.85Zm.7-.841-.508-.189.112-.512.533.708Zm-.024-2.377.262.324-.478.65Zm.475-2.142.247-1.114.294.361-.476.732Zm.683-3.081.036-.013-.049.071Zm-.609,1.348-.822-.877,1.1-.361Zm-.8-1.022.266-1.189,1.1-.338-.258,1.162Zm1.442-1.9-.784-1.051.005-.02.788,1.031Zm-.743-1.234.012-.051,1.086-.316-.31,1.4Zm1.43-.464.017,0-.025.037Zm.032-.144.239-1.08.286.364-.437.691Zm.952-4.3.281.343-.516.718Zm.479-2.16.019-.008-.024.034Zm.034-.159.245-1.106.373.379-.479.664Zm.745-2.856.446-.142-.572.363Zm.093-.164.242-.426.413.138v.079Zm.447-.787.184-.32.017.549Zm.176-.569-.266.468-.671-.767v-.573l.932.71Zm-.936-2.631v-.668l.33.006-.271.628Zm1.121-1.527h.024l.3.308-.318.1Zm.272.005.99.024-.745.223Zm2.545.059-1.562.514.7-.536Zm.517.01.1,0,.038.359-.236-.328Zm.712.016,1.422.033-1.7.487Zm.977-.28.306-.553,1.025.581Zm.388-.705.568-1.029,1.906,1.139.071.659-1.237-.026ZM404,419.268l.124,1.112-.244-.123Zm.165,1.476.336,2.989-.969-.579.31-2.578Zm.512,3-.327-2.907,2.974,1.534-2.618,1.373Zm-.509-.012-.7-.014.045-.377Zm-.877-.019h-.024l-.06-.551.14.081Zm-.166.3.02.187-.254.068-.479-.271Zm.038.36.006.054-.065-.039Zm.23-.061.539-.147-.567.384Zm.023-.186.012-.107.355.007Zm4.424-1.83,1.156-.606.129,1.269Zm-.187-.1-3.343-1.724-.147-1.3,4.648,2.422Zm-3.936-2.029-.858-.443.98-.564Zm-.038.32-.308,2.565-.186-.109-.309-2.869Zm-5.42-2.062-.612.3.833-.92.13.066Zm.272-.935.647-.517-.406.641Zm.992-1.652.662-.462-.6.956Zm2.128-1.75.033.083-.266.036Zm-.06-.611.758.056-.609.314Zm-.086-.18L401,412.283l1.475,1.091Zm-1.162-.087-.987-.072,1.255-.926Zm-.868.568-.2.038-.039-.324Zm.125.151.239.292-.515-.026-.026-.207Zm-.451.256-.678-.034.658-.13Zm-1.432.243.187,1.141-1.017-.53Zm-1.34,1-.248.6-.494-.067.746-.551Zm-2.076,5.218-.966-2.991,1.8-1.327Zm-.331-.459-1,.813.286-3.017Zm-1.163.718-.661-2.374.953-.7Zm.129.467.012-.129,1.03-.841-.049,2.159-.006.028-.81-.58Zm.925,1.545-.112.579-.223-.005-.283-1.016Zm-.54.482-.553-.291-.177-1.1.428.306ZM390,420.643l.014-.476,1.4,1Zm-.713-.531-.016-.023.118,0Zm-2.454.1-.6-.184.774.016Zm-5.139-.134-.6-.159.745.017Zm-.208.123-.642.064-.517-.362h.028Zm-4.7-.268-.449-.115.533.011Zm-5.19-.089-.536-.137.647.013Zm-.346.091-.687.1-.524-.347.263.005Zm-4.281-.171-.461-.153,1.413.029C367.6,419.681,367.283,419.72,366.967,419.762Zm-6.048.276-.374-.01-.844-.563,1.646.035Zm-6.441,2.319.58-4.294L358,420Zm.28-3.366-.392-1.385.531.35Zm-.433-1.774-2.367-1.563-.5-1.4,3.53,2.356Zm-3.376-3.3-.774.269-.025-.034.716-.3.076.052Zm-.9.092-.959-1.343,1.6,1.073Zm-3.267-2.057-.157-.151h.691Zm-.192.054-.861.245-.374-.451h1.022Zm-2.536.211.247-.091-.04.292Zm.43-.16.446-.163-.5.676-.013-.016Zm.644-.14.111.473-.582.167Zm.419.386-.142.039-.067-.291Zm-1.037-.439.021-.162.3.046Zm-.625.43.337.327H343.7Zm1.393.265.015.062h-.24Zm.167-.048.221-.062.144.172h-.341Zm.509.284.573.69-.69.71-.326-1.4Zm1.124,1.354-.041,1.027-.25-1.375Zm-.131,1.5-.012-.014.008,0Zm.218.54,2.365,2.9-5.765,3.138-.3-4.267Zm-3.624,5.289-.849-3.152.606-.288Zm-.608-3.6.323-.436.019.271Zm-.334.16-3.868,1.846-.312-.159,4.544-2.183Zm-4.49,2.145-4.142,1.978-.59-.012,4.707-2.262Zm-5.286,2.255.538.011-.787.378Zm.606.316.4.324-1.037-.023Zm2.805-.239.174,0,.656.63-2.309-.05Zm3.21.076.689.624-2.369-.051Zm2.43.355.66.322-1.463-.033Zm3.789-.22h.056l.511.62-2.123-.046Zm2.1.409.193.25-.806-.017Zm.9-.343.169,0,.59.62-1.076-.024Zm2.912.066.591.013.22.152-.763.333a.085.085,0,0,0-.047.107l-1.343-.028Zm3.02.974.123,0,.1.172,0,.262-.2-.169Zm.221.61.006,1.148-.107-.2-.085-1.1Zm-.825.629.1-.219.3.57Zm-.159.031-.145.318-.041-.483Zm-.073,1.152.339.22-.253.77Zm.152,1.749.66.558-.588.269Zm.838,1.72.282.112.592,1.91-.013.015-.979-.6-.07-.227Zm.885,2.2.056.035.067.219-.113.661-.563-.23-.017-.051Zm.111,1.1.313.127.611,1.972-.041.049-1-.785-.077-.249Zm.9,2.327.126.1.075.243-.1.556-.606-.229-.017-.053Zm.195,1.074.264.1.614,1.981-.054.066-.97-.742-.074-.239Zm.846,2.328.143.108.075.243-.1.571-.607-.232-.018-.059Zm.215,1.1.268.1.594,1.921-.065.075-.937-.682-.072-.235Zm.818,2.277.158.113.073.238-.091.525-.634-.237-.017-.051Zm.242,1.051.234.087.605,1.957-.09.112-.9-.658-.073-.238Zm.772,2.333.2.151.069.224-.107.515-.625-.244-.018-.059Zm.138,1.019-.193.928-.354-1.143Zm.123.046.258.1.626,2.018-.088.11-.958-.843-.077-.25ZM360.8,449l.222.2.081.262-.085.459-.671-.255-.018-.06Zm.2,1.047-.2,1.074-.4-1.3Zm.813,2.352.264.19.07.224-.09.448-.68-.285-.018-.056Zm.342,1.046.217.089.625,2.022-.1.133-.914-.757-.075-.244Zm.762,2.431.241.2.079.25-.085.455-.672-.245-.019-.059Zm.334,1.081.2.074.619,1.995-.124.163-.861-.687-.076-.246Zm.72,2.415.277.221.075.239-.085.428-.685-.257-.019-.061Zm.241,1.016L364,461.449l-.4-1.293Zm.123.046.2.073.621,2-.143.186-.85-.734-.078-.25Zm.693,2.45.328.281.076.249-.075.362-.727-.286-.02-.062Zm.426,1.069.166.064.6,1.953-.172.205-.8-.662-.075-.242Zm.615,2.4.371.31.076.243-.058.273-.776-.294-.016-.054Zm.362.954-.248,1.191-.451-1.457Zm.123.046.114.045.661,2.131-.152.222-.838-.745-.078-.253Zm.646,2.593.357.317.074.239-.083.338-.721-.255-.02-.067Zm.438,1.063.169.06.585,1.89-.15.179-.835-.683-.071-.224Zm.521,2.228-.373.448-.311-1.007Zm.7,1.833.259.233.077.246-.1.427-.684-.266-.019-.06Zm.21,1.032-.227.991-.38-1.224Zm.122.046.216.084.656,2.113-.107.148-.958-.9-.079-.255Zm.786,2.541.271.255.074.241-.111.4-.663-.211-.017-.058Zm.323,1.062.219.069.625,2.016-.121.172-.948-.928-.076-.248Zm.744,2.459.311.3.074.242-.108.359-.684-.225-.019-.061Zm.363,1.07.206.066.647,2.09c-.04.062-.079.123-.117.18l-.977-1.015-.079-.254Zm1.092,3.692c.081.029.169.059.264.089l.571,1.842-.165.2-.911-.971-.076-.249Zm.589,2.24-.357.448-.383-1.239Zm1.206,3.688.4.4.094.3-.077.18-.8-.307-.019-.06Zm.371,1.005-.359.845-.344-1.114Zm-.128,1.485.578-.089h.2l.207.513-.182.217-.691-.45Zm1.044.56.129.321-.257-.168Zm.414,1.018.083.206-.1-.056C375.98,497.07,375.985,497.02,375.991,496.969Zm1.083-.919.509-.128.193.055-.007.05-.558.974Zm1.032-.26.759-.188.138.165-.594,1.505-.538.277Zm1.116.243.215.261-.429.285Zm.893-.192-.571.38-.268-.324.159-.406.956-.089Zm-.533-.719.008-.019.158.048Zm-.793-.4-.181-.26.892-.35-.171.772Zm-.259-.369-.158-.228.409-1.83.941-.327.2.251-.385,1.742Zm2.758-2.971-.543-1.064.843-.293Zm.332-1.506-.935.325,0-.011.049-.226.521-.624.382.482Zm.449-2.045-.493-1.035.781-.265Zm.319-1.448-.869.293-.042-.087.052-.238.471-.568.4.541Zm.477-2.163-.517-1,.793-.245Zm.308-1.395-.885.273-.026-.049.053-.237.472-.6.4.549Zm.483-2.195-.637-.991.921-.3Zm.317-1.439-.922.3.018-.081.551-.718.363.443Zm.452-2.056-.562-.935.831-.288Zm.3-1.37-.92.317.047-.212.514-.671.372.5Zm.47-2.134-.645-.909.022-.1.89-.21Zm.373-1.7-.277-.341.5-.657Zm.38-1.723-.578-.986.857-.28Zm.311-1.414-.9.3.038-.169.5-.683.379.5Zm.488-2.215-.627-.829.016-.024.863-.294Zm.284-1.294-.772.265.5-.728.286.4Zm.444-2.015-.635-.886.035-.155.885-.254Zm.316-1.438-.831.238.521-.693.321.408Zm.428-1.948-.547-.9.028-.044.786-.264Zm.3-1.353-.7.24.429-.666.29.369Zm.453-2.054-.668-.688.034-.156.879-.27Zm.277-1.26-.831.255.518-.761.326.448Zm.479-2.178-.561-.755.055-.081.735-.2Zm.26-1.185-.653.183.4-.584.265.351Zm.416-1.892-.626-.835.05-.219.016-.024.861-.282Zm.332-1.506-.76.248.484-.657.289.357Zm.4-1.815-.607-.758.207-.319.687-.227Zm.319-1.453-.6.2.364-.56.253.308Zm.414-1.881-.541-.726.182-.264.622-.205Zm.3-1.342-.533.174.342-.5.2.264Zm-.737.242-.125.04.255-1.148.333.436Zm.167-1.274.31-1.4.647.677-.119.543-.464.674Zm.383-1.517.222-.347.644-.188-.258,1.171Zm.9-.678-.573.165.334-.53.249.316Zm.415-1.888-.661-.588.043-.194.147-.2.743-.25Zm.3-1.383-.647.217.4-.552.256.311Zm.369-1.676-.631-.707.047-.212.334-.465.615-.282Zm.4-1.825-.5.229.332-.462.176.179Zm.29-1.316L394,430.1l.019-.083a.224.224,0,0,0,0-.033v-.037l.922-.581Zm-.576-3.648.142-.246.685-.418.038,1.323Zm.432-1.921.163-.377h.023l.1.212Zm1.092-.8.143.145-.585-.013Zm.189-.057.927-.278-.64.487-.082,0ZM398.2,424l.352.49-1.719-.037Zm2.989-.029.146,0,.142.578-2.158-.047Zm.325.007.535.013.606.344-.84.227-.16,0Zm1.355.477.236.134-.676-.015Zm1.459-.344v.5l-.725-.016Zm.172-.064,1.866.039-1.765.537-.1,0Zm2.387.063.058.563-1.787-.038Zm.173-.006.666.014.033.426-.5.136-.139,0Zm.882.569,1.678-.455v.514l-1.677-.036Zm1.852-.509,1.047.025.388.2-1.328.351-.106,0Zm1.663.342.538.279-1.47-.034Zm.437-.115.424-.113.063.365Zm-.229-.117-.134-.07.364.008Zm-.747-.387-1.607-.829-.131-1.273,4.14,2.155Zm-7.113-4.9-1.1.634a.08.08,0,0,0-.023.017l-3.756-1.936.6-.943Zm-1.944-4.833-.056-.138.9-.461s0,0,.006-.007l.554.409Zm-2.805-.707,0,0,.049.413-.83.164Zm-7.057,5.2.769,2.76a.029.029,0,0,0,0,.011l.122.437-2.66-1.9Zm-33.727,1.174L355.1,417.73l.129-.954,3.8,2.539Zm-11.828-8.188-1.1-1.062,2.209,1.062Zm-1.593-1.3,1.343,1.3h-.963l-.437-1.325Zm-.165.194.356,1.084-.49-.075Zm-.148-.2-.156,1.179-.173-.026h-.01a.092.092,0,0,0-.018,0l-1.714.3Zm-.506,1.354-.516.915-1.155-.623Zm1.3,1.117.287,1.229-1-1.229Zm.571,1.579.684-.7.3,1.651-.15.072Zm1.064,1.575-3.526,1.683-.021-.309,3.354-1.61Zm7.122,7.869.213.184.055.708-.472-.9Zm20.717,72.013.451.295-.156.188Zm1.032,1.357c-.012.115-.019.211-.025.29l-.283-.459Zm.091.482c.006-.1.018-.249.033-.416l.188.105.811,2Zm.826.378.155-.269.118.064.2,1.37Zm.678.477-.193-1.323.484-.841Zm.416-.825.487-.251-.687,1.744Zm.9-.461.719-.37-1.529,2.424Zm1.7-2.021-.823-.248.221-1,.959-.375Zm11.774-53.478-.163-.211.307-.446Zm2.647-17-.017-.035h.017Zm17.778.026-.066-.034-.088-.515.98.021Z" transform="translate(-328.498 -410.054)"/>
    <g id="Group_23843" data-name="Group 23843" transform="translate(0 1.817)">
      <path id="Path_20614" data-name="Path 20614" d="M386.6,434.911l-4.165,3.733c-.015-.029-.031-.056-.05-.084l4.693-4.247a.065.065,0,1,0-.087-.1l-4.685,4.238c-.14-.161-.3-.238-.371-.175-.042.036-.045.112-.02.2-.079-.046-.149-.057-.191-.02s-.045.111-.02.2c-.078-.047-.149-.058-.191-.022s-.046.111-.023.2c-.076-.046-.146-.057-.189-.022s-.047.111-.022.2c-.078-.046-.147-.057-.19-.022s-.046.109-.023.2c-.077-.046-.147-.057-.19-.023s-.046.111-.022.2c-.079-.047-.148-.059-.19-.022s-.047.11-.023.2c-.077-.048-.148-.059-.19-.025s-.048.111-.023.2c-.078-.048-.148-.06-.19-.025s-.048.109-.024.2c-.077-.046-.147-.059-.189-.024s-.048.109-.024.2c-.078-.045-.148-.059-.19-.025s-.048.108-.024.2c-.077-.047-.147-.06-.189-.026s-.049.109-.025.2c-.078-.046-.148-.061-.19-.027s-.048.108-.025.2c-.077-.049-.147-.06-.189-.026s-.048.107-.026.2c-.076-.048-.146-.062-.19-.028s-.048.107-.025.2c-.076-.047-.147-.061-.189-.027s-.049.108-.027.2c-.077-.049-.146-.063-.189-.029s-.05.106-.027.2c-.076-.049-.145-.061-.189-.028s-.049.106-.028.2c-.076-.048-.146-.063-.189-.029s-.05.107-.028.2c-.076-.049-.146-.063-.189-.031s-.049.108-.027.2c-.076-.049-.146-.064-.188-.029s-.05.1-.029.2c-.076-.05-.145-.063-.189-.032s-.049.105-.029.2c-.075-.048-.145-.065-.187-.031s-.05.1-.029.194c-.076-.048-.146-.062-.189-.03s-.051.1-.03.194c-.075-.049-.144-.065-.188-.032s-.05.106-.029.2c-.077-.05-.146-.065-.189-.032s-.052.1-.03.193c-.076-.049-.145-.065-.189-.032s-.051.1-.03.192c-.076-.049-.145-.064-.189-.033s-.051.1-.032.193c-.075-.05-.144-.065-.188-.034s-.051.1-.031.194c-.075-.051-.144-.067-.187-.034s-.051.1-.032.191c-.075-.05-.144-.066-.187-.034s-.052.1-.032.192c-.076-.051-.144-.067-.188-.035s-.053.1-.033.19c-.074-.051-.143-.067-.186-.036s-.053.1-.033.192c-.075-.051-.144-.068-.187-.038s-.053.1-.034.19c-.074-.049-.143-.065-.187-.036s-.053.1-.034.191c-.075-.051-.144-.068-.187-.038s-.052.1-.034.191c-.074-.051-.143-.068-.186-.04s-.053.1-.034.191c-.074-.051-.143-.069-.187-.039s-.053.1-.034.19c-.075-.053-.144-.069-.187-.04s-.054.1-.035.189c-.075-.05-.144-.067-.187-.038s-.054.1-.035.188c-.075-.051-.144-.069-.187-.041s-.054.1-.035.19c-.075-.053-.143-.07-.186-.042a.063.063,0,0,0-.011.012c.01-.074,0-.132-.045-.155s-.121-.01-.2.043c.02-.089.008-.159-.038-.187s-.121-.009-.2.041c.02-.088.009-.158-.038-.187s-.12-.012-.2.042c.02-.09.009-.159-.038-.188s-.12-.01-.2.041c.019-.089.008-.158-.038-.188s-.119-.01-.2.042c.02-.088.009-.16-.037-.188s-.119-.011-.2.04c.02-.088.01-.158-.036-.188s-.119-.012-.2.039c.021-.087.01-.159-.035-.186s-.119-.014-.2.039c.02-.09.011-.159-.035-.188s-.119-.012-.2.038c.02-.088.011-.159-.035-.187s-.119-.012-.2.037c.021-.086.012-.157-.034-.188s-.118-.012-.2.04c.022-.09.013-.161-.033-.189s-.118-.013-.2.037c.02-.088.011-.158-.034-.189s-.118-.012-.2.036c.022-.086.013-.158-.033-.187s-.118-.014-.2.036c.022-.087.013-.158-.032-.188s-.118-.013-.2.034c.023-.086.014-.157-.03-.187s-.118-.014-.2.034c.022-.087.014-.158-.031-.187s-.116-.014-.2.035c.022-.087.014-.158-.03-.189s-.117-.014-.2.034c.022-.087.013-.159-.031-.188s-.117-.016-.2.033c.022-.087.014-.158-.03-.188s-.117-.016-.2.032c.023-.087.017-.158-.028-.189s-.117-.016-.2.033c.023-.087.016-.159-.029-.188s-.116-.014-.195.03c.023-.086.016-.156-.028-.187s-.116-.017-.2.032c.023-.087.016-.158-.028-.189s-.116-.017-.2.031c.024-.088.017-.159-.026-.188s-.115-.017-.195.029c.023-.087.017-.156-.027-.186s-.115-.018-.195.028c.024-.085.018-.156-.026-.187s-.114-.018-.194.029c.024-.087.018-.158-.025-.19s-.115-.017-.194.03c.024-.088.019-.157-.024-.19s-.114-.017-.194.03c.024-.087.018-.159-.024-.19s-.115-.018-.194.029c.025-.086.019-.158-.024-.189s-.114-.019-.193.028c.025-.087.019-.157-.023-.189s-.114-.018-.193.027c.025-.087.019-.158-.023-.189s-.114-.019-.192.027c.025-.087.02-.158-.022-.189s-.114-.018-.192.026c.024-.087.02-.158-.023-.189s-.112-.019-.192.026c.025-.086.021-.157-.022-.189s-.112-.02-.191.025c.025-.086.021-.157-.021-.188s-.113-.02-.191.025c.025-.087.021-.157-.021-.191s-.112-.019-.192.026c.027-.086.022-.158-.019-.19s-.112-.019-.191.025c.026-.086.022-.157-.019-.189s-.112-.021-.192.023c.027-.085.022-.156-.018-.189s-.111-.02-.191.024c.027-.086.023-.158-.018-.19s-.111-.022-.19.023c.027-.087.023-.159-.017-.191-.08-.063-.265.036-.418.223-.022.028-.041.055-.06.083l-6.336-4.951a.067.067,0,0,0-.091.011.065.065,0,0,0,.012.092l6.353,4.962c-.053.115-.06.215-.009.255s.112.022.191-.02c-.027.086-.024.154.017.188s.113.022.192-.023c-.027.086-.024.158.019.191s.111.023.191-.023c-.026.086-.023.157.019.19s.111.022.191-.024c-.027.086-.022.157.019.19s.114.021.194-.023c-.027.086-.023.156.019.188s.112.02.193-.023c-.027.086-.022.155.019.189s.113.02.193-.024c-.026.087-.023.157.02.189s.113.022.192-.024c-.025.086-.022.157.022.19s.113.019.193-.027c-.025.087-.021.157.022.19s.113.021.194-.025c-.026.086-.021.157.022.19s.113.019.193-.028c-.025.088-.019.157.023.19s.114.021.195-.027c-.025.087-.02.158.023.19s.115.018.194-.028c-.024.088-.019.158.024.19s.114.019.195-.028c-.024.087-.019.159.024.189s.116.02.2-.028c-.024.087-.019.159.024.19s.116.018.2-.029c-.024.088-.018.157.025.19s.116.019.2-.029c-.024.087-.018.159.025.188s.115.018.195-.028c-.024.087-.017.158.028.189s.116.017.2-.03c-.025.086-.018.157.026.189s.116.016.2-.032c-.024.087-.017.159.027.19s.116.016.2-.031c-.023.086-.017.157.028.189s.116.014.2-.032c-.023.089-.017.158.028.188s.117.017.2-.033c-.023.09-.016.159.029.19s.118.016.2-.033c-.023.089-.016.159.029.19s.117.015.2-.034c-.023.087-.015.158.029.188s.118.016.2-.034c-.022.087-.015.158.03.19s.118.014.2-.035c-.023.088-.015.159.03.188s.118.016.2-.033c-.023.086-.014.158.031.188s.118.013.2-.035c-.022.088-.014.158.032.189s.118.012.2-.038c-.022.089-.013.159.033.19s.119.014.2-.036c-.022.087-.013.159.032.187s.12.014.2-.037c-.022.088-.014.159.032.189s.119.014.2-.037c-.022.088-.013.159.033.187s.12.013.2-.038c-.021.088-.013.159.033.19s.121.012.2-.039c-.02.088-.012.159.035.188s.121.011.2-.039c-.021.088-.011.159.035.189s.12.011.2-.041c-.021.09-.011.159.035.189s.121.012.2-.039c-.022.088-.012.159.036.188s.121.011.2-.04c-.02.088-.01.158.037.188s.121.01.2-.043c-.02.089-.009.159.037.19a.207.207,0,0,0,.2-.042c-.022.09-.011.157.036.188s.122.012.2-.042c-.02.09-.009.159.039.188a.126.126,0,0,0,.087.009l.056.2-.36.284a.587.587,0,0,0-.094,0L372.1,446c.1-.179.125-.347.045-.4a.205.205,0,0,0-.2.043c.019-.088.008-.159-.04-.187s-.12-.01-.2.042c.019-.088.009-.159-.038-.187s-.121-.01-.2.042c.019-.088.008-.158-.038-.187s-.121-.01-.2.042c.022-.088.01-.159-.037-.188s-.118-.011-.2.041c.02-.088.01-.159-.036-.188s-.119-.01-.2.039c.02-.088.011-.156-.036-.187s-.12-.012-.2.041c.02-.09.011-.16-.035-.188s-.119-.012-.2.039c.02-.088.011-.159-.035-.188s-.12-.012-.2.039c.02-.088.011-.158-.035-.189s-.12-.011-.2.038c.022-.087.012-.158-.034-.187s-.118-.013-.2.038c.02-.087.011-.159-.035-.188s-.118-.013-.2.038c.022-.088.012-.16-.033-.189s-.118-.014-.2.036c.022-.087.013-.159-.032-.188s-.118-.014-.2.036c.022-.088.013-.159-.033-.188s-.118-.013-.2.035c.022-.088.012-.158-.033-.187s-.117-.014-.2.035c.022-.087.014-.158-.031-.19s-.117-.013-.2.035c.022-.088.013-.157-.031-.187s-.117-.015-.2.034c.022-.088.013-.159-.031-.189s-.116-.013-.2.034c.022-.09.016-.158-.029-.189s-.117-.014-.2.034c.023-.088.014-.159-.029-.189s-.116-.016-.2.032c.023-.087.016-.158-.029-.19s-.115-.015-.195.034c.022-.088.016-.157-.028-.189s-.115-.016-.2.032c.024-.087.016-.158-.028-.19s-.116-.016-.193.032c.023-.087.015-.157-.028-.19s-.115-.016-.194.032c.023-.089.017-.158-.027-.189s-.115-.017-.194.03c.023-.088.017-.156-.027-.189s-.114-.016-.193.029c.024-.086.017-.157-.025-.188s-.114-.018-.194.029c.024-.087.018-.158-.025-.188s-.114-.019-.193.029c.023-.087.019-.159-.024-.19s-.116-.017-.194.029c.025-.088.019-.157-.024-.19s-.113-.018-.193.028c.025-.087.02-.157-.023-.189s-.114-.019-.193.028c.025-.087.019-.159-.023-.191s-.113-.017-.192.029c.024-.088.02-.159-.023-.189s-.112-.02-.191.027c.024-.088.02-.159-.022-.192s-.114-.018-.192.028c.025-.088.02-.158-.021-.189s-.113-.02-.192.026c.026-.087.021-.158-.022-.19s-.112-.02-.191.026c.026-.087.021-.158-.02-.192s-.112-.019-.191.028c.025-.088.022-.158-.02-.191s-.112-.02-.19.024c.026-.085.023-.156-.02-.19s-.112-.021-.191.024c.027-.086.023-.158-.018-.189s-.112-.022-.19.023c.025-.086.023-.157-.018-.189s-.113-.022-.191.024c.028-.087.023-.158-.018-.19-.073-.058-.233.019-.376.176l-5.976-4.638.04-.213a.064.064,0,0,0-.127-.025l-.031.145-.032-.025.032-.083a.066.066,0,0,0-.038-.084.065.065,0,0,0-.083.038l-.017.047-.108-.085a.071.071,0,0,0-.058-.011.066.066,0,0,0-.043.04L326.786,510.52h-.795a.331.331,0,1,0,0,.663h2.666a.331.331,0,1,0,0-.663h-.671L356.207,434.6l.048.038L340.046,510.32h-.258a.33.33,0,1,0,0,.661h2.666a.33.33,0,1,0,0-.661h-.263l14.187-75.589,5.919,4.6c-.121.17-.163.339-.091.4.041.03.112.022.191-.024-.027.087-.024.158.018.192s.112.02.191-.023c-.026.085-.024.156.018.19s.112.02.192-.023c-.027.087-.023.158.018.188s.113.023.192-.022c-.025.086-.023.158.02.19s.112.021.192-.025c-.026.087-.022.159.019.192s.114.02.193-.024c-.025.085-.022.156.021.188s.113.019.192-.024c-.026.086-.021.156.02.188s.114.02.193-.024c-.026.087-.022.158.021.189s.114.021.194-.025c-.025.086-.022.158.02.189s.115.019.193-.025c-.025.086-.02.158.022.189s.114.019.195-.027c-.025.087-.021.157.022.19s.114.018.194-.028c-.025.088-.02.16.023.19s.115.019.194-.027c-.024.087-.019.157.024.19s.115.018.2-.029c-.025.088-.02.158.024.19s.116.019.2-.029c-.027.087-.019.158.024.188s.114.02.195-.028c-.024.086-.019.158.025.189s.116.017.2-.029c-.024.087-.018.156.025.189s.116.017.2-.028c-.024.086-.018.155.027.188s.116.015.2-.031c-.024.087-.017.159.027.189s.115.017.2-.03c-.024.087-.017.158.028.189s.117.017.2-.031c-.023.088-.016.158.029.187s.116.017.2-.029c-.023.087-.018.156.028.188s.116.015.2-.034c-.023.088-.015.159.028.189s.118.017.2-.032c-.023.087-.015.158.03.187s.117.017.2-.03c-.021.086-.014.157.03.187s.119.017.2-.034c-.023.088-.014.16.03.19s.118.015.2-.035c-.023.09-.015.159.03.189s.118.015.2-.035c-.022.088-.014.159.031.19s.119.014.2-.035c-.023.088-.014.158.03.187s.12.015.2-.036c-.022.089-.014.159.032.19s.119.011.2-.038c-.022.088-.014.158.032.189s.119.013.2-.036c-.023.087-.013.158.032.187s.121.012.2-.037c-.022.087-.013.157.033.188s.12.013.2-.038c-.02.088-.011.159.035.186s.119.014.2-.037c-.02.088-.012.159.035.189s.12.011.2-.04c-.02.09-.012.16.035.189s.121.013.2-.038c-.02.088-.012.158.035.187s.122.012.2-.038c-.021.087-.009.158.036.187s.121.012.2-.041c-.02.09-.01.16.037.188s.121.011.2-.04c-.019.088-.01.158.037.188a.209.209,0,0,0,.2-.043c-.02.089-.009.159.038.188s.121.011.2-.04c-.02.087-.009.157.039.187a.175.175,0,0,0,.163-.019c.007.041.05.077.118.1-.072.031-.117.072-.117.118s.048.086.121.113c-.072.03-.118.071-.117.118s.048.086.122.114c-.072.029-.118.071-.117.117s.047.085.12.114c-.072.03-.118.072-.117.118s.048.085.122.113c-.072.03-.119.071-.118.117s.048.086.12.114c-.071.028-.117.071-.116.117s.047.086.12.113c-.072.03-.117.071-.115.118s.047.086.12.113c-.072.031-.118.071-.117.118s.048.086.12.113c-.072.031-.117.071-.116.118s.047.085.121.114c-.072.03-.118.071-.117.116s.047.086.122.116c-.072.028-.118.071-.117.116s.047.087.12.114c-.072.03-.117.072-.117.118s.048.086.12.113c-.072.031-.118.071-.117.118s.047.086.12.113c-.071.031-.117.071-.116.119s.048.083.12.112c-.072.03-.118.071-.117.117s.048.086.12.114c-.072.029-.118.073-.117.117s.048.086.122.115c-.072.03-.118.069-.117.117s.047.085.12.113c-.072.031-.117.071-.117.117s.047.087.122.114c-.073.03-.119.072-.118.118s.048.085.122.113c-.072.031-.118.072-.117.118s.048.084.12.113c-.072.031-.118.072-.116.118s.048.085.121.113c-.072.031-.118.07-.117.117,0,.088.172.158.379.153s.376-.076.375-.165c0-.045-.047-.085-.12-.112.072-.031.118-.073.117-.118s-.047-.086-.121-.115c.072-.028.117-.072.117-.116s-.048-.086-.121-.114c.072-.029.118-.072.117-.117s-.047-.087-.121-.113c.072-.03.118-.072.117-.119s-.048-.086-.121-.113c.072-.029.116-.071.116-.117s-.047-.085-.12-.112c.072-.032.118-.073.117-.118s-.048-.086-.12-.113c.071-.03.117-.072.117-.118s-.048-.086-.122-.114c.073-.029.117-.071.117-.116s-.047-.086-.12-.113c.072-.031.118-.072.117-.118s-.048-.086-.122-.113c.072-.03.118-.072.117-.118s-.047-.085-.121-.114c.072-.03.118-.071.117-.118s-.048-.086-.121-.113c.072-.029.118-.071.117-.117s-.048-.086-.12-.114c.072-.029.117-.071.117-.117s-.047-.086-.121-.113c.073-.03.117-.071.117-.118s-.048-.086-.121-.113c.072-.031.118-.071.117-.118s-.047-.086-.121-.115c.072-.03.118-.07.117-.117s-.048-.085-.121-.114c.073-.028.118-.071.117-.116s-.048-.086-.12-.116c.072-.028.118-.071.117-.117s-.048-.086-.121-.113c.072-.03.117-.071.117-.118s-.048-.087-.121-.113c.072-.031.118-.071.117-.118s-.048-.086-.12-.113c.071-.031.117-.072.117-.118s-.048-.085-.121-.113c.072-.031.117-.071.117-.117s-.048-.086-.121-.116l.233-.183.116.418a.077.077,0,0,0-.014.042.106.106,0,0,0,.045.072l.017.059a.036.036,0,0,0,.006.01.115.115,0,0,0-.064.088c0,.046.048.087.122.116-.072.028-.118.071-.117.117s.048.086.121.114c-.072.029-.117.07-.116.117s.047.086.12.113c-.072.031-.118.071-.117.118s.047.086.12.113c-.071.03-.117.071-.116.118s.047.085.12.113c-.072.03-.118.071-.117.117s.049.086.122.116c-.072.028-.118.071-.117.115s.047.086.121.116c-.073.029-.117.07-.117.116s.048.087.121.114c-.072.029-.118.071-.117.118s.047.086.121.113c-.072.029-.118.071-.117.118s.048.085.121.113c-.072.03-.117.073-.116.117s.047.086.12.115c-.072.029-.118.072-.117.118s.046.085.119.113c-.072.029-.117.071-.117.118s.048.085.122.113c-.073.03-.117.072-.117.117s.047.085.12.113c-.072.03-.118.072-.117.119s.048.083.121.112c-.072.03-.117.071-.116.119s.048.084.12.112c-.072.029-.117.072-.116.117s.048.085.121.114c-.072.03-.118.072-.117.117s.047.085.121.112c-.072.032-.117.072-.117.119s.048.085.12.112c-.072.031-.117.071-.116.118,0,.088.171.156.378.154s.376-.078.375-.167c0-.046-.047-.086-.12-.113.072-.031.117-.071.116-.118s-.048-.086-.12-.112c.072-.032.117-.072.116-.119s-.046-.085-.121-.113c.072-.03.118-.072.117-.117s-.047-.086-.121-.116c.072-.028.118-.071.117-.116s-.047-.087-.121-.113c.072-.031.118-.073.117-.119s-.046-.086-.121-.112c.072-.032.118-.072.117-.119s-.048-.086-.12-.113c.071-.031.116-.071.116-.118s-.047-.085-.12-.113c.072-.03.118-.071.116-.117s-.048-.086-.121-.116c.072-.028.118-.07.117-.115s-.048-.086-.121-.112c.072-.032.117-.075.117-.119s-.048-.086-.121-.114c.072-.03.118-.071.117-.117s-.046-.087-.12-.113c.072-.03.117-.072.117-.119s-.048-.085-.12-.113c.071-.03.117-.071.117-.117s-.048-.086-.121-.114c.072-.03.118-.071.117-.117s-.048-.086-.121-.115c.072-.03.117-.071.117-.117s-.048-.086-.121-.113c.072-.03.118-.071.117-.118s-.046-.086-.12-.114c.072-.029.118-.071.117-.117s-.048-.085-.122-.114c.072-.029.117-.072.117-.119s-.048-.083-.12-.112c.072-.029.117-.071.117-.117s-.046-.086-.121-.114c.072-.028.118-.071.117-.117s-.048-.086-.12-.113c.073-.03.117-.071.117-.118s-.048-.086-.121-.113c.072-.03.118-.072.118-.118s-.066-.1-.164-.127a.3.3,0,0,0-.007-.1c.075.054.143.071.186.042s.056-.1.039-.188c.074.052.142.07.186.04s.054-.1.037-.19c.075.052.143.07.186.04s.055-.1.036-.19c.075.054.143.071.187.041s.054-.1.036-.191c.074.051.142.07.187.04s.054-.1.036-.192c.074.053.142.07.186.042s.054-.1.035-.193c.074.051.143.069.187.039s.054-.1.035-.192c.074.05.143.068.188.039s.053-.1.034-.194c.075.052.143.071.187.04s.054-.1.034-.193c.075.051.144.068.187.038s.054-.1.035-.192c.075.051.144.067.187.036s.053-.1.034-.192c.074.05.143.067.187.036s.053-.105.033-.193c.075.049.144.065.187.035s.053-.1.032-.193c.076.049.145.065.189.035s.053-.106.032-.2c.076.053.144.067.188.035s.052-.1.033-.195c.075.05.145.067.188.034s.053-.106.031-.2c.077.05.145.066.189.034s.052-.106.032-.2c.075.05.145.067.188.034s.051-.107.031-.2c.075.05.144.065.188.033s.052-.106.03-.2c.077.049.145.065.189.033s.051-.106.03-.2c.076.047.146.062.188.03s.051-.105.03-.2c.076.049.145.063.188.031s.051-.108.03-.2c.076.05.146.064.189.032s.05-.108.029-.2c.077.049.146.065.189.031s.052-.107.029-.2c.076.047.145.063.188.029s.051-.108.029-.2c.077.049.146.064.189.031s.051-.109.028-.2c.076.049.147.062.189.031s.05-.109.027-.2c.077.048.147.061.189.028s.051-.109.028-.2c.077.049.147.061.189.028s.05-.108.027-.2c.077.048.147.061.189.027s.049-.109.027-.2c.076.046.146.06.189.025s.049-.108.026-.2c.077.048.146.061.189.026s.049-.109.026-.2c.077.048.147.061.189.026s.048-.109.026-.2c.077.046.147.06.189.025s.049-.111.024-.2c.078.046.148.06.191.025s.048-.111.024-.2c.077.048.147.059.189.024s.049-.111.024-.2c.078.046.148.059.19.023s.047-.111.023-.2c.078.046.148.057.191.022s.048-.111.023-.2c.077.046.147.056.189.021s.048-.111.023-.2c.079.046.148.057.191.022s.046-.112.022-.205c.078.048.149.058.19.022s.047-.111.023-.2c.078.045.147.057.189.022s.047-.124.017-.223l4.2-3.763a.065.065,0,1,0-.087-.1ZM327.847,510.52h-.923l29.1-76.06.071.055Zm14.212-.2h-1.881l15.2-70.964Zm29.917-64.159c.013-.013.025-.028.037-.043l.016.033ZM373,445.2a.361.361,0,0,0,.008.056l-.025-.015Zm-.319.408a.911.911,0,0,0,.13-.113.959.959,0,0,0,.074.153l-.159.125Zm.145.52-.014-.05a.277.277,0,0,0,.057.028Zm-.053-.191-.008-.028.194-.154a.993.993,0,0,0,.071.081A.428.428,0,0,0,372.774,445.932Z" transform="translate(-325.659 -422.449)"/>
      <path id="Rectangle_6237" data-name="Rectangle 6237" d="M.782,0H7.864a.783.783,0,0,1,.783.783V2.331a.782.782,0,0,1-.782.782H.784A.784.784,0,0,1,0,2.329V.782A.782.782,0,0,1,.782,0Z" transform="translate(44.591 88.402)"/>
      <path id="Path_20615" data-name="Path 20615" d="M329.075,451.547c-.006.178.549.341,1.238.362s1.253-.107,1.258-.285a.139.139,0,0,0-.063-.1c.066-.032.106-.074.109-.121,0-.064-.055-.124-.153-.17.1-.034.169-.086.173-.148s-.055-.122-.152-.168c.1-.034.169-.086.172-.149s-.055-.121-.152-.169c.1-.034.168-.087.173-.149s-.055-.123-.151-.169c.1-.034.168-.086.171-.148s-.054-.123-.151-.168c.1-.034.169-.087.172-.149s-.054-.123-.152-.17c.1-.034.169-.085.172-.148s-.054-.123-.151-.169c.1-.033.168-.086.172-.148s-.055-.122-.152-.169c.1-.034.169-.086.173-.149s-.054-.122-.153-.168c.1-.033.168-.085.172-.149s-.055-.123-.152-.169c.1-.034.169-.087.173-.148s-.056-.124-.153-.17c.1-.033.168-.086.173-.147s-.056-.123-.152-.169c.1-.034.168-.086.171-.149s-.054-.121-.151-.168c.1-.034.168-.085.172-.148s-.055-.123-.151-.17c.1-.031.167-.085.171-.147s-.054-.123-.151-.169c.1-.034.169-.086.172-.148s-.055-.122-.151-.169c.1-.034.168-.085.172-.15s-.054-.122-.152-.167c.1-.033.167-.087.172-.15s-.055-.122-.152-.169c.1-.033.169-.086.173-.146s-.055-.124-.153-.169c.1-.034.168-.086.172-.149s-.055-.124-.151-.168c.1-.035.168-.086.171-.149s-.055-.123-.151-.17c.1-.034.167-.084.172-.148s-.055-.122-.152-.169c.1-.034.169-.086.172-.147s-.055-.123-.151-.17c.1-.034.169-.086.171-.149s-.055-.122-.151-.166c.1-.034.168-.087.172-.15s-.054-.123-.151-.169c.1-.034.169-.086.172-.147s-.055-.123-.152-.17c.1-.033.169-.085.173-.148s-.055-.124-.153-.168c.1-.034.169-.086.174-.149s-.056-.122-.152-.17c.1-.034.168-.083.173-.147s-.055-.122-.153-.169c.1-.034.169-.086.172-.149s-.055-.122-.151-.168c.1-.034.168-.087.171-.15s-.055-.123-.152-.17c.1-.03.167-.084.173-.147s-.055-.123-.151-.169c.1-.034.167-.086.171-.146s-.054-.124-.151-.17c.1-.034.169-.084.172-.148s-.055-.123-.153-.168c.1-.034.169-.087.173-.151s-.055-.121-.151-.167c.1-.035.167-.086.172-.149s-.055-.122-.153-.169c.1-.034.169-.086.173-.148s-.055-.121-.153-.169c.1-.034.169-.086.172-.148s-.055-.124-.151-.17c.1-.032.168-.085.172-.148s-.056-.122-.151-.169c.1-.034.167-.085.172-.147s-.054-.123-.151-.17c.1-.034.168-.086.171-.147s-.054-.125-.151-.169c.1-.034.169-.087.171-.149s-.055-.122-.152-.169c.1-.034.168-.086.174-.149s-.056-.122-.152-.169c.1-.033.168-.085.172-.148s-.055-.122-.152-.169c.1-.034.168-.086.172-.148s-.055-.124-.153-.17c.1-.032.169-.086.173-.148s-.055-.123-.151-.169c.1-.033.167-.085.172-.148s-.055-.121-.151-.169c.1-.034.168-.085.173-.147s-.055-.125-.152-.171c.1-.032.168-.085.171-.149s-.054-.122-.152-.168c.1-.034.169-.086.171-.148.009-.112-.186-.217-.442-.246l.043-1.938a.067.067,0,0,0-.064-.069.066.066,0,0,0-.065.063l-.043,1.935c-.255,0-.456.076-.463.187-.005.063.055.123.151.168-.1.034-.168.086-.173.151s.055.121.153.169c-.1.034-.169.086-.174.147s.055.123.152.169c-.1.034-.169.086-.172.148s.055.125.152.169c-.1.034-.168.086-.173.15s.055.122.152.17c-.1.031-.166.084-.171.147s.054.122.151.169c-.1.034-.169.086-.171.147s.055.124.151.17c-.1.034-.168.086-.172.147s.055.125.152.169c-.1.034-.169.086-.173.15s.056.121.152.169c-.1.034-.168.084-.172.148s.054.122.153.169c-.1.033-.169.086-.173.148s.055.125.153.169c-.1.034-.169.086-.173.149s.055.123.151.17c-.1.031-.168.085-.173.146s.055.123.152.169c-.1.034-.167.085-.171.148s.054.121.151.169c-.1.034-.169.086-.171.147s.055.124.151.17c-.1.033-.169.086-.173.148s.055.123.151.17c-.1.032-.168.085-.172.147s.055.122.152.17c-.1.034-.168.084-.172.148s.055.121.153.168c-.1.034-.169.087-.173.15s.055.122.152.169c-.1.032-.168.086-.174.148s.056.123.153.17c-.1.031-.168.083-.173.146s.055.122.151.169c-.1.034-.167.086-.171.147s.054.124.151.171c-.1.033-.169.085-.173.149s.055.122.151.167c-.1.034-.167.087-.171.149s.054.122.151.17c-.1.034-.168.086-.172.147s.055.125.152.169c-.1.034-.169.086-.173.149s.055.123.152.169c-.1.033-.168.086-.173.148s.055.122.152.17c-.1.034-.168.084-.172.148s.056.122.153.169c-.1.034-.168.086-.173.147s.055.124.152.171c-.1.033-.169.086-.172.148s.055.122.152.167c-.1.034-.168.086-.172.15s.055.12.151.168c-.1.034-.167.086-.171.148s.054.124.151.17c-.1.033-.168.086-.172.148s.055.124.152.169c-.1.033-.169.086-.172.148s.054.123.152.169c-.1.035-.169.084-.172.149s.055.122.151.168c-.1.034-.168.085-.172.15s.055.122.153.168c-.1.033-.169.087-.173.148s.055.123.152.169c-.1.034-.168.086-.171.149s.054.123.151.167c-.1.034-.169.086-.172.148s.055.124.151.171c-.1.033-.167.084-.172.147s.055.123.151.169c-.1.034-.168.086-.172.147s.055.124.152.17c-.1.034-.168.086-.171.148s.054.122.151.169c-.1.033-.168.085-.171.149s.054.121.151.169c-.1.033-.168.086-.173.148s.055.123.152.169c-.1.033-.167.085-.171.149s.054.123.151.168c-.1.034-.169.086-.172.148s.055.124.151.171c-.1.033-.168.086-.173.146s.055.124.152.169c-.1.034-.166.086-.172.148s.055.122.151.169c-.1.034-.167.086-.172.149s.055.123.153.168a.306.306,0,0,0-.153.1c-.086-.007-.176-.013-.268-.015s-.167,0-.247,0a.332.332,0,0,0-.126-.095c.1-.034.167-.086.172-.148s-.055-.122-.152-.169c.1-.034.168-.086.172-.15s-.055-.122-.151-.169c.1-.031.168-.085.171-.148s-.054-.123-.152-.169c.1-.034.169-.086.173-.147s-.055-.124-.152-.17c.1-.034.167-.085.172-.147s-.055-.124-.152-.169c.1-.034.169-.087.172-.151s-.055-.121-.153-.168c.1-.034.169-.085.173-.148s-.055-.122-.152-.169c.1-.034.168-.086.172-.148s-.055-.125-.151-.169c.1-.034.167-.086.171-.148s-.055-.124-.152-.17c.1-.032.168-.085.172-.148s-.055-.123-.152-.169c.1-.034.169-.086.172-.147s-.055-.122-.151-.17c.1-.034.167-.086.172-.148s-.054-.124-.152-.169c.1-.034.168-.087.172-.15s-.054-.121-.151-.169c.1-.033.169-.085.172-.147s-.055-.122-.152-.17c.1-.033.169-.085.172-.148s-.055-.124-.152-.168c.1-.034.168-.088.172-.149s-.055-.124-.152-.17c.1-.033.168-.086.172-.148s-.054-.123-.152-.169c.1-.034.169-.085.172-.148s-.055-.121-.151-.169c.1-.034.167-.086.171-.149s-.055-.123-.151-.169c.1-.032.168-.085.172-.149s-.054-.122-.152-.168c.1-.033.168-.086.173-.148s-.055-.122-.153-.17c.1-.032.169-.084.172-.146s-.055-.125-.152-.169c.1-.033.169-.087.173-.149s-.055-.122-.151-.169c.1-.034.167-.086.172-.148s-.055-.122-.152-.168c.1-.034.169-.086.173-.15s-.055-.121-.151-.168c.1-.034.168-.086.171-.148s-.055-.123-.152-.17c.1-.033.168-.085.171-.148s-.054-.123-.15-.168c.1-.034.167-.086.171-.149s-.054-.122-.152-.17c.1-.033.169-.085.171-.147s-.054-.124-.151-.169c.1-.034.169-.087.173-.149s-.056-.123-.151-.169c.1-.034.167-.086.173-.148s-.055-.122-.152-.169c.1-.033.168-.085.171-.149s-.055-.123-.152-.168c.1-.034.169-.086.172-.149s-.054-.122-.152-.17c.1-.033.169-.086.172-.147s-.055-.123-.151-.169c.1-.034.167-.086.172-.149s-.055-.122-.153-.169c.1-.034.168-.085.171-.147s-.054-.123-.152-.171c.1-.032.169-.083.172-.147s-.055-.122-.151-.169c.1-.034.169-.086.173-.147s-.055-.124-.152-.17c.1-.034.167-.085.172-.148s-.055-.123-.153-.169c.1-.033.169-.085.172-.149s-.054-.121-.152-.169c.1-.033.169-.086.173-.148s-.055-.123-.152-.168c.1-.034.169-.087.173-.149s-.055-.124-.152-.169c.1-.033.168-.086.172-.149s-.055-.123-.152-.17c.1-.033.168-.083.172-.146s-.054-.123-.151-.169c.1-.034.169-.086.172-.148s-.055-.123-.152-.169c.1-.034.169-.086.173-.149s-.055-.123-.152-.168c.1-.034.167-.086.172-.15s-.055-.121-.151-.169c.1-.034.169-.086.172-.147s-.055-.124-.153-.17c.1-.033.169-.084.172-.147.007-.11-.178-.212-.426-.243l.229-1.814a.066.066,0,0,0-.056-.074.067.067,0,0,0-.072.056l-.229,1.82c-.263,0-.474.074-.481.187,0,.063.055.123.152.17-.1.033-.168.086-.172.147s.054.124.151.169c-.1.034-.169.087-.173.149s.056.123.152.169c-.1.034-.168.086-.173.148s.055.122.152.17c-.1.032-.168.083-.172.147s.055.123.152.169c-.1.034-.168.087-.172.148s.055.123.152.17c-.1.033-.168.086-.172.149s.055.121.151.167c-.1.034-.168.086-.172.149s.055.122.152.169c-.1.034-.168.085-.173.146s.054.125.151.171c-.1.031-.167.085-.171.146s.054.124.152.169c-.1.034-.169.086-.172.149s.055.122.152.169c-.1.034-.168.084-.172.148s.055.123.151.169c-.1.034-.168.087-.172.149s.055.122.152.169c-.1.033-.168.086-.172.147s.054.124.152.169c-.1.035-.169.086-.172.15s.055.122.151.169c-.1.034-.168.085-.172.148s.055.123.151.17c-.1.033-.167.085-.172.148s.055.123.152.169c-.1.034-.168.086-.171.147s.055.123.151.171c-.1.033-.169.085-.172.148s.054.123.152.168c-.1.034-.169.085-.173.15s.055.122.152.168c-.1.034-.168.087-.171.148s.054.124.152.17c-.1.032-.169.084-.173.148s.055.124.153.169c-.1.032-.169.084-.172.148s.055.122.152.17c-.1.033-.168.086-.174.148s.055.123.152.168c-.1.034-.167.086-.172.149s.055.122.151.169c-.1.034-.168.086-.171.148s.054.123.152.171c-.1.031-.169.085-.173.147s.055.124.151.169c-.1.034-.167.086-.171.148s.054.123.151.17c-.1.034-.168.085-.171.147s.054.124.152.169c-.1.034-.169.086-.173.151s.054.121.152.169c-.1.033-.169.086-.172.147s.055.122.151.169c-.1.034-.168.086-.173.149s.055.122.153.169c-.1.033-.168.085-.173.149s.055.122.152.169c-.1.031-.169.085-.172.148s.055.123.151.169c-.1.033-.168.086-.172.146s.055.124.151.17c-.1.034-.167.086-.171.147s.054.124.151.169c-.1.034-.169.086-.172.151s.055.121.152.168c-.1.034-.169.085-.173.148s.055.122.152.17c-.1.033-.169.085-.173.147s.056.123.152.169c-.1.034-.167.086-.172.148s.055.124.152.17c-.1.033-.169.086-.172.149s.054.122.152.169c-.1.033-.169.086-.173.148s.056.122.152.169c-.1.034-.168.086-.173.147s.055.125.152.17c-.1.033-.167.085-.172.149s.055.122.151.167c-.1.035-.168.086-.171.148s.054.122.151.17c-.1.034-.169.086-.172.148s.055.124.151.169c-.1.034-.168.086-.173.149s.056.122.153.168c-.1.033-.169.086-.173.148s.055.123.152.17c-.1.032-.169.084-.171.147s.055.124.152.169c-.1.034-.169.086-.172.147s.039.106.113.15C329.118,451.455,329.077,451.5,329.075,451.547Z" transform="translate(-327.187 -422.402)"/>
      <path id="Path_20616" data-name="Path 20616" d="M348.07,416.473c.145.032.28-.013.3-.1a.147.147,0,0,0-.06-.132.14.14,0,0,0,.108-.094.144.144,0,0,0-.059-.132.141.141,0,0,0,.107-.094.143.143,0,0,0-.059-.132.3.3,0,0,1,.156-.32.147.147,0,0,0-.059-.133.135.135,0,0,0,.107-.1.139.139,0,0,0-.059-.129.144.144,0,0,0,.108-.1.14.14,0,0,0-.06-.131.141.141,0,0,0,.107-.1c.015-.071-.054-.148-.161-.192l.048-.167a1.412,1.412,0,0,0,.275.073,1.528,1.528,0,0,0,.3.03l-.029.207c-.118-.007-.216.036-.23.107a.141.141,0,0,0,.059.133.136.136,0,0,0-.107.094.137.137,0,0,0,.058.129.144.144,0,0,0-.106.1.138.138,0,0,0,.058.132c-.056.019-.1.05-.107.1a.14.14,0,0,0,.059.131.139.139,0,0,0-.108.094.123.123,0,0,1-.049.228.139.139,0,0,0,.059.129.147.147,0,0,0-.107.1.12.12,0,0,1-.048.226c-.018.086.085.181.231.212s.28-.012.3-.1a.138.138,0,0,0-.059-.131.142.142,0,0,0,.107-.1.137.137,0,0,0-.059-.131.142.142,0,0,0,.108-.1.12.12,0,0,1,.048-.225.146.146,0,0,0-.057-.132.141.141,0,0,0,.107-.093.144.144,0,0,0-.059-.132.14.14,0,0,0,.107-.1.121.121,0,0,1,.049-.226.121.121,0,0,1,.048-.225c.017-.074-.058-.153-.17-.195l.034-.246c.071-.012.116-.036.121-.07.014-.075-.167-.171-.418-.228l.245-.8a.064.064,0,0,0-.043-.078.063.063,0,0,0-.081.041l-.249.816c-.268-.04-.488-.014-.5.063-.007.036.033.078.1.117l-.054.192c-.122-.011-.225.032-.24.108a.137.137,0,0,0,.059.129.149.149,0,0,0-.108.1.144.144,0,0,0,.06.132.12.12,0,0,0-.048.225.144.144,0,0,0-.109.1.147.147,0,0,0,.059.132.141.141,0,0,0-.108.093.121.121,0,0,1-.048.227.121.121,0,0,1-.049.226.144.144,0,0,0,.059.131.141.141,0,0,0-.107.094C347.821,416.346,347.923,416.441,348.07,416.473Z" transform="translate(-335.576 -413.341)"/>
      <path id="Path_20617" data-name="Path 20617" d="M477.758,438.356c-.094.052-.148.116-.141.178s.077.109.181.138c-.093.051-.149.114-.141.177s.076.112.181.138c-.094.053-.15.115-.142.18s.078.109.18.136c-.094.051-.148.116-.141.178s.076.111.181.137c-.1.052-.149.116-.142.178s.077.111.181.138c-.093.052-.148.115-.14.177s.077.11.181.138c-.094.053-.149.115-.141.178s.077.11.181.139c-.094.05-.149.114-.141.175s.078.11.181.138c-.093.053-.149.116-.141.178s.077.111.181.138c-.094.051-.149.115-.141.179s.077.109.181.138c-.094.051-.149.116-.142.178s.077.109.182.135c-.095.053-.15.118-.143.179s.077.11.182.137c-.093.054-.15.117-.141.18s.076.109.18.135c-.093.053-.148.117-.14.179s.077.11.181.138c-.094.052-.149.115-.142.176s.077.111.181.138c-.094.053-.149.116-.142.178s.077.109.182.138c-.094.052-.149.115-.142.178s.077.111.181.137c-.1.053-.15.117-.141.177s.076.111.18.138c-.094.053-.148.116-.142.179s.077.109.182.136c-.094.052-.15.117-.141.178s.076.11.181.138c-.094.053-.15.116-.141.178s.078.109.18.135c-.093.054-.148.117-.141.179s.077.111.181.138c-.095.053-.149.115-.141.178s.076.111.18.137c-.093.053-.148.117-.14.179s.077.11.181.137c-.094.053-.15.114-.141.179s.076.11.18.135c-.094.053-.149.117-.142.179s.077.11.181.137c-.093.051-.149.115-.14.177s.076.111.181.137c-.095.054-.15.117-.142.178s.078.112.181.139c-.093.052-.148.114-.14.177s.077.11.181.138c-.1.052-.15.116-.142.176s.076.11.181.139c-.093.051-.149.114-.141.178s.077.109.181.137c-.095.051-.149.117-.141.177s.076.111.18.138c-.094.051-.149.116-.141.178s.077.11.18.136c-.093.052-.149.118-.14.178s.076.11.181.137c-.094.054-.15.117-.142.179s.078.111.181.136c-.093.054-.149.118-.141.179s.078.11.18.138c-.093.052-.148.114-.141.176s.077.112.182.138c-.095.052-.149.114-.141.178s.077.111.181.137c-.094.051-.15.114-.142.178s.078.111.182.137c-.094.051-.15.115-.142.177s.077.111.181.138c-.093.051-.15.116-.141.176s.076.111.181.138c-.094.052-.149.115-.142.178s.077.11.181.139c-.094.051-.15.114-.141.175s.077.11.18.139c-.093.051-.148.114-.141.176s.077.111.181.139c-.095.05-.149.115-.141.176s.076.111.181.138c-.094.052-.15.116-.142.179s.077.11.181.136c-.094.052-.148.117-.141.179s.077.11.181.137c-.094.052-.149.117-.141.179s.076.111.181.137c-.083.046-.137.1-.142.157a.156.156,0,0,0-.065.122c.024.178.6.248,1.281.156s1.219-.31,1.194-.487c-.007-.053-.062-.1-.154-.129a.158.158,0,0,0,.077-.135c-.008-.061-.077-.109-.182-.138.1-.051.15-.116.142-.178s-.076-.109-.18-.136c.094-.053.149-.118.141-.179s-.077-.11-.181-.138c.095-.052.149-.114.141-.178s-.077-.111-.18-.137c.093-.052.149-.116.141-.177s-.076-.111-.18-.138c.093-.052.148-.114.141-.178s-.077-.11-.181-.136c.094-.052.149-.117.141-.179s-.077-.109-.181-.137c.093-.052.148-.116.141-.176s-.077-.112-.181-.138c.094-.053.15-.116.142-.177s-.076-.11-.181-.138c.095-.052.149-.116.142-.177s-.077-.111-.181-.139c.093-.05.149-.114.141-.176s-.077-.11-.181-.139c.094-.05.149-.114.141-.175s-.077-.112-.181-.138c.094-.052.15-.116.141-.179s-.077-.109-.18-.136c.094-.051.149-.117.141-.179s-.077-.109-.181-.137c.093-.052.149-.115.141-.178s-.077-.11-.181-.136c.094-.053.15-.118.141-.179s-.076-.11-.181-.138c.094-.053.15-.114.142-.179s-.077-.109-.181-.135c.093-.053.149-.117.14-.179s-.076-.109-.181-.138c.1-.052.149-.114.142-.177s-.076-.111-.181-.137c.093-.052.15-.115.142-.177s-.077-.111-.181-.139c.094-.051.149-.114.14-.178s-.076-.111-.18-.137c.094-.051.149-.117.141-.177s-.077-.11-.181-.138c.094-.052.149-.116.141-.178s-.076-.109-.181-.137c.095-.051.149-.117.142-.177s-.077-.109-.181-.137c.095-.053.149-.116.141-.179s-.077-.109-.18-.137c.094-.052.149-.116.141-.178s-.077-.109-.181-.138c.093-.051.149-.115.14-.179s-.077-.109-.18-.135c.094-.053.149-.116.142-.179s-.077-.109-.18-.137c.093-.052.148-.115.141-.179s-.078-.11-.181-.135c.093-.054.149-.117.141-.18s-.076-.109-.181-.137c.095-.052.15-.115.142-.177s-.078-.111-.181-.137c.1-.054.149-.117.141-.179s-.077-.109-.181-.138c.094-.051.149-.114.142-.177s-.077-.109-.181-.138c.094-.05.149-.115.141-.176s-.076-.111-.181-.138c.094-.052.15-.115.142-.179s-.077-.109-.18-.137c.093-.051.148-.116.14-.178s-.077-.109-.181-.137c.095-.053.149-.117.142-.179s-.078-.109-.181-.135c.093-.054.149-.117.141-.179s-.077-.11-.181-.137c.095-.054.149-.117.142-.18s-.076-.109-.181-.137c.095-.052.149-.116.142-.178s-.077-.109-.181-.138c.093-.052.149-.114.141-.179s-.077-.109-.181-.135c.1-.052.15-.116.143-.179s-.077-.11-.181-.137c.093-.052.149-.115.141-.177s-.077-.112-.181-.138c.095-.054.149-.117.14-.178s-.076-.109-.18-.138c.093-.053.149-.115.141-.177s-.077-.111-.181-.136c.094-.054.149-.118.142-.18s-.077-.109-.182-.139c.1-.05.149-.114.143-.175s-.078-.111-.182-.138c.094-.053.149-.117.141-.178s-.076-.111-.18-.138c.094-.051.149-.116.142-.179s-.077-.111-.181-.136c.094-.053.149-.114.141-.179-.014-.111-.223-.179-.479-.158l-.281-2.084a.064.064,0,0,0-.073-.055.065.065,0,0,0-.056.073l.28,2.081c-.251.046-.434.162-.42.271.008.064.076.112.181.138-.094.054-.149.116-.141.178s.077.111.181.137c-.095.053-.15.117-.142.177s.077.11.181.139c-.095.053-.149.114-.143.176s.078.111.181.138c-.094.051-.149.116-.14.178s.076.11.18.138c-.094.051-.149.116-.141.177s.077.11.181.137c-.094.051-.149.117-.141.177s.077.111.18.137c-.094.054-.149.116-.142.178s.078.111.181.137c-.094.053-.149.118-.14.179s.076.11.18.137c-.095.054-.15.116-.142.178s.077.111.181.138c-.095.052-.149.115-.142.178s.077.111.181.138c-.095.052-.149.114-.141.178s.076.11.18.136c-.094.052-.149.117-.142.177s.077.111.181.138c-.094.051-.149.116-.142.177s.077.111.181.137c-.094.054-.149.117-.142.178s.077.11.181.138c-.094.053-.149.115-.141.177s.076.11.181.137c-.1.053-.15.117-.142.177s.077.111.181.139c-.094.051-.149.115-.142.177s.077.111.182.138c-.1.05-.15.115-.141.176s.076.111.181.138c-.095.053-.15.114-.142.179s.077.11.181.136c-.094.052-.15.118-.14.179s.077.11.181.137c-.095.053-.15.116-.142.179s.077.11.181.136c-.094.054-.15.116-.142.179s.077.11.181.137c-.094.052-.149.115-.142.177s.077.112.181.139c-.094.053-.149.115-.141.177s.077.112.18.139c-.094.05-.149.114-.141.175s.077.113.182.139c-.095.052-.15.114-.142.177s.076.111.181.136c-.093.051-.149.117-.141.179s.076.11.18.138c-.094.051-.148.115-.141.177s.077.11.181.136c-.094.053-.149.118-.141.179s.076.111.18.138c-.094.052-.149.116-.14.178s.077.11.18.136c-.094.053-.149.118-.141.179s.076.11.18.138c-.094.052-.149.114-.141.177s.076.112.181.137c-.094.052-.149.118-.141.179s.076.11.181.137c-.094.051-.15.115-.142.177s.077.111.181.137c-.093.052-.149.117-.141.178s.077.111.181.138c-.094.052-.149.116-.141.178s.076.11.181.137c-.094.053-.15.117-.142.177s.077.111.181.139c-.093.052-.148.114-.141.176s.077.11.181.138c-.094.052-.149.115-.141.176s.076.111.181.138c-.095.052-.15.116-.142.179s.077.11.181.137c-.094.051-.149.117-.141.178s.077.11.181.137c-.093.052-.149.116-.142.179s.077.111.181.137c-.093.053-.148.117-.14.178s.077.11.181.137c-.094.053-.15.116-.142.179s.076.11.181.136c-.093.053-.149.117-.142.179s.078.111.18.138c-.093.052-.148.115-.14.178s.077.111.181.137c-.094.051-.15.115-.141.176s.077.112.181.139c-.093.052-.148.116-.14.178s.076.111.181.137a.271.271,0,0,0-.138.136c-.058.007-.117.012-.177.021s-.112.017-.167.025a.113.113,0,0,0,.026-.085c-.008-.062-.076-.109-.181-.137.095-.054.149-.116.141-.179s-.077-.109-.181-.135c.093-.054.149-.117.14-.179s-.076-.109-.181-.139c.095-.051.15-.114.142-.176s-.077-.109-.181-.138c.094-.051.149-.115.142-.176s-.077-.112-.18-.139c.093-.052.148-.114.14-.177s-.076-.11-.181-.137c.095-.051.15-.117.142-.178s-.077-.109-.18-.138c.093-.051.149-.115.141-.177s-.077-.11-.181-.135c.1-.053.149-.118.142-.179s-.077-.11-.181-.137c.094-.053.15-.116.142-.179s-.077-.11-.181-.135c.094-.053.148-.118.141-.179s-.077-.109-.181-.138c.093-.053.149-.114.141-.178s-.077-.111-.181-.137c.094-.052.149-.115.141-.18s-.077-.109-.18-.137c.093-.052.148-.114.14-.178s-.077-.111-.181-.137c.093-.052.15-.117.141-.178s-.076-.111-.18-.137c.094-.054.149-.116.141-.179s-.077-.11-.181-.136c.094-.052.149-.117.141-.178s-.077-.109-.181-.139c.094-.051.149-.114.142-.176s-.078-.109-.18-.137c.093-.052.147-.117.14-.179s-.077-.109-.181-.138c.1-.052.15-.115.141-.179s-.077-.109-.18-.137c.093-.051.148-.117.14-.178s-.077-.109-.181-.136c.094-.053.15-.116.141-.179s-.076-.11-.18-.135c.094-.053.149-.117.142-.18s-.078-.109-.181-.137c.093-.053.148-.116.14-.177s-.076-.112-.181-.138c.1-.054.15-.117.142-.179s-.077-.11-.181-.138c.093-.052.148-.114.141-.178s-.077-.108-.181-.137c.094-.052.149-.116.141-.177s-.076-.112-.18-.139c.093-.05.149-.114.141-.177s-.077-.111-.181-.138c.094-.051.149-.117.14-.179s-.076-.111-.181-.138c.095-.05.149-.115.142-.177s-.077-.111-.181-.138c.093-.052.149-.117.14-.178s-.076-.11-.181-.137c.1-.052.15-.117.142-.178s-.077-.111-.181-.138c.093-.052.149-.117.141-.178s-.077-.109-.18-.138c.094-.051.148-.114.14-.177s-.077-.112-.181-.138c.093-.053.149-.115.141-.179s-.076-.11-.181-.137c.095-.051.15-.115.141-.178s-.076-.111-.18-.137c.095-.052.148-.115.141-.179s-.078-.109-.181-.137c.094-.052.148-.115.141-.176s-.077-.111-.18-.138c.094-.054.149-.116.141-.178s-.076-.11-.181-.138c.095-.052.15-.115.142-.176s-.077-.111-.18-.139c.094-.051.149-.114.14-.176s-.077-.112-.18-.138c.093-.051.148-.116.141-.178s-.076-.109-.181-.137c.094-.052.15-.117.142-.179s-.077-.109-.181-.135c.094-.053.149-.118.141-.179s-.077-.109-.181-.137c.094-.054.149-.117.141-.18s-.077-.109-.181-.135c.094-.053.149-.117.142-.179s-.076-.11-.181-.138c.094-.053.149-.115.142-.178s-.077-.11-.181-.137c.094-.052.149-.115.142-.177s-.077-.112-.18-.138c.093-.053.148-.115.14-.178-.014-.119-.257-.189-.542-.152h-.013l-.242-1.654a.067.067,0,0,0-.075-.056.065.065,0,0,0-.054.074l.242,1.661c-.211.051-.358.156-.345.255C477.586,438.28,477.654,438.329,477.758,438.356Z" transform="translate(-393.593 -423.217)"/>
      <path id="Path_20618" data-name="Path 20618" d="M460.8,418.225l.138.285c-.075.049-.117.118-.1.173a.108.108,0,0,1,.07.194.126.126,0,0,0,.106.07.121.121,0,0,0-.036.121.119.119,0,0,0,.106.071.108.108,0,0,0,.07.193.129.129,0,0,0-.037.122.135.135,0,0,0,.106.071.124.124,0,0,0-.035.122.12.12,0,0,0,.106.069.127.127,0,0,0-.036.123.123.123,0,0,0,.106.07.125.125,0,0,0-.036.123c.026.073.149.1.274.051s.205-.141.177-.213a.12.12,0,0,0-.106-.071.108.108,0,0,0-.07-.194.106.106,0,0,0-.069-.192.107.107,0,0,0-.07-.193.268.268,0,0,1-.033-.316.128.128,0,0,0-.107-.071.126.126,0,0,0,.037-.121.108.108,0,0,1-.07-.194c-.025-.067-.127-.092-.239-.061l-.113-.239a1.525,1.525,0,0,0,.286-.056,1.363,1.363,0,0,0,.278-.108l.056.122c-.081.051-.127.121-.107.18a.131.131,0,0,0,.106.071.122.122,0,0,0-.035.122.125.125,0,0,0,.106.071.12.12,0,0,0-.036.121.115.115,0,0,0,.106.071.127.127,0,0,0-.037.122.125.125,0,0,0,.106.071.123.123,0,0,0-.036.122.13.13,0,0,0,.105.071.264.264,0,0,1,.035.313.118.118,0,0,0,.1.071.131.131,0,0,0-.036.123c.028.074.149.1.275.052s.2-.142.177-.215a.107.107,0,0,1-.07-.193.127.127,0,0,0-.106-.071.124.124,0,0,0,.036-.122.126.126,0,0,0-.106-.071.127.127,0,0,0,.036-.122.13.13,0,0,0-.107-.071.122.122,0,0,0,.037-.122.107.107,0,0,1-.07-.192.126.126,0,0,0-.106-.071.123.123,0,0,0,.036-.121.108.108,0,0,1-.07-.194c-.023-.064-.118-.091-.224-.067l-.066-.137c.059-.044.09-.086.08-.12-.019-.071-.222-.077-.467-.019l-.257-.687a.065.065,0,0,0-.084-.037.064.064,0,0,0-.038.082l.253.677c-.261.081-.451.2-.429.28C460.679,418.2,460.726,418.218,460.8,418.225Z" transform="translate(-386.032 -415.032)"/>
      <path id="Path_20619" data-name="Path 20619" d="M479.437,511.428h-.182L439,440.131,436.813,436a.066.066,0,0,0-.071-.033l-.279.061-.006-.039a.067.067,0,0,0-.074-.054.064.064,0,0,0-.054.073l.01.064a.068.068,0,0,0-.009.05l.117.622L448.38,511.1h-.314a.332.332,0,0,0,0,.663h2.665a.332.332,0,0,0,0-.663h-.175a.062.062,0,0,0,.037-.068L436.573,436.72l-.091-.566.11-.024,2.295,4.063,37.733,71.273a.33.33,0,0,0,.151.624h2.666a.331.331,0,1,0,0-.662Zm-28.97-.378a.059.059,0,0,0,.037.046h-1.992l-11.187-69.69Zm-9.226-66.685,37.865,67.063H476.77l-.023,0Z" transform="translate(-375.147 -423.444)"/>
    </g>
  </g>
</svg>
