<svg id="Group_23909" data-name="Group 23909" xmlns="http://www.w3.org/2000/svg" width="47.653" height="98.04" viewBox="0 0 47.653 98.04">
  <path id="Path_20770" data-name="Path 20770" d="M-455.946-358.43l-.29-.039,8.77-65.468v-30.55a.146.146,0,0,1,.146-.146h3.216v.292h-3.07v30.423l-8.772,65.488Z" transform="translate(467.931 456.47)"/>
  <path id="Path_20771" data-name="Path 20771" d="M-379.779-444.26l-.17-.238,3.047-2.175-3.045-2.112.167-.24,3.216,2.231a.146.146,0,0,1,.063.119.146.146,0,0,1-.061.12l-3.216,2.3Z" transform="translate(400.475 451.511)"/>
  <path id="Path_20772" data-name="Path 20772" d="M-485.8-454.341h-13.952v-.292H-485.8v.292Z" transform="translate(506.408 456.47)"/>
  <path id="Path_20773" data-name="Path 20773" d="M-460.531-429.406h-10.645v-.292h10.645v.292Z" transform="translate(481.142 434.422)"/>
  <path id="Path_20774" data-name="Path 20774" d="M-520.1-470.209l5.109,4.324.82-2.561-3.367-1.763Zm5.351,4.529,3.881,3.285,6.371-3.286-2-2.584-1.752,2.713a.146.146,0,0,1-.117.067.137.137,0,0,1-.122-.057l-2.091-2.707-1.429,2.686a.146.146,0,0,1-.123.077.146.146,0,0,1-.129-.067l-1.7-2.627-.8,2.5Zm3.861,3.605a.147.147,0,0,1-.094-.034l-9.611-8.134a.146.146,0,0,1-.043-.162.146.146,0,0,1,.137-.1h3a.144.144,0,0,1,.068.017l3.508,1.837h0a.145.145,0,0,1,.055.05l1.729,2.677,1.418-2.667a.145.145,0,0,1,.117-.077.143.143,0,0,1,.128.056l2.1,2.723,1.752-2.713a.145.145,0,0,1,.117-.067.145.145,0,0,1,.122.057l2.229,2.886a.145.145,0,0,1,.027.121.147.147,0,0,1-.076.1l-6.614,3.411a.144.144,0,0,1-.067.016Z" transform="translate(524.889 470.501)"/>
  <path id="Path_20775" data-name="Path 20775" d="M-536.662-255.963h-20.464a.146.146,0,0,1-.146-.146v-2.3a.146.146,0,0,1,.126-.145l20.464-2.821.04.289-20.338,2.8v2.022h20.318v.292Z" transform="translate(557.273 285.578)"/>
  <path id="Path_20776" data-name="Path 20776" d="M-541.029-213.672a.147.147,0,0,1-.08-.024l-4.821-3.165-5.4,3.168a.147.147,0,0,1-.151,0l-5.189-3.214.154-.249,5.114,3.168,5.406-3.17a.146.146,0,0,1,.154,0l4.817,3.162,4.817-3.162.161.244-4.9,3.215a.147.147,0,0,1-.08.024Z" transform="translate(556.743 246.502)"/>
  <path id="Path_20777" data-name="Path 20777" d="M-552.3-249.97a.146.146,0,0,1-.07-.018l-4.239-2.3.139-.257,4.023,2.179v-2.687a.146.146,0,0,1,.071-.126.145.145,0,0,1,.145,0l5.193,2.816v-3.38a.147.147,0,0,1,.079-.13.146.146,0,0,1,.152.011l4.885,3.462v-4.048a.146.146,0,0,1,.081-.131.146.146,0,0,1,.153.014l5.7,4.331-.177.233-5.466-4.153v4.037a.147.147,0,0,1-.079.13.147.147,0,0,1-.152-.011l-4.885-3.462v3.343a.147.147,0,0,1-.071.126.146.146,0,0,1-.145,0l-5.193-2.815v2.687a.147.147,0,0,1-.071.126.146.146,0,0,1-.075.021Z" transform="translate(556.688 279.585)"/>
  <path id="Path_20778" data-name="Path 20778" d="M-356.613-357.334h-.292v-96.038h.292v96.038Z" transform="translate(380.098 455.354)"/>
  <path id="Path_20779" data-name="Path 20779" d="M-355.154-445.274h-.487v-.292h.487v.292Z" transform="translate(378.981 448.453)"/>
  <path id="Path_20780" data-name="Path 20780" d="M-355.154-429.406h-.487v-.292h.487v.292Z" transform="translate(378.981 434.422)"/>
  <path id="Path_20781" data-name="Path 20781" d="M-355.154-413.537h-.487v-.292h.487v.292Z" transform="translate(378.981 420.389)"/>
  <path id="Path_20782" data-name="Path 20782" d="M-355.154-397.67h-.487v-.292h.487v.292Z" transform="translate(378.981 406.359)"/>
  <path id="Path_20783" data-name="Path 20783" d="M-355.154-381.8h-.487v-.292h.487v.292Z" transform="translate(378.981 392.327)"/>
  <path id="Path_20784" data-name="Path 20784" d="M-355.154-365.933h-.487v-.292h.487v.292Z" transform="translate(378.981 378.296)"/>
  <path id="Path_20785" data-name="Path 20785" d="M-355.154-350.065h-.487v-.292h.487v.292Z" transform="translate(378.981 364.264)"/>
  <path id="Path_20786" data-name="Path 20786" d="M-355.154-334.2h-.487v-.292h.487v.292Z" transform="translate(378.981 350.233)"/>
  <path id="Path_20787" data-name="Path 20787" d="M-355.154-318.329h-.487v-.292h.487v.292Z" transform="translate(378.981 336.202)"/>
  <path id="Path_20788" data-name="Path 20788" d="M-355.154-302.46h-.487v-.292h.487v.292Z" transform="translate(378.981 322.17)"/>
  <path id="Path_20789" data-name="Path 20789" d="M-355.154-286.592h-.487v-.292h.487v.292Z" transform="translate(378.981 308.138)"/>
  <path id="Path_20790" data-name="Path 20790" d="M-355.154-270.725h-.487v-.292h.487v.292Z" transform="translate(378.981 294.108)"/>
  <path id="Path_20791" data-name="Path 20791" d="M-355.154-254.855h-.487v-.292h.487v.292Z" transform="translate(378.981 280.075)"/>
  <path id="Path_20792" data-name="Path 20792" d="M-355.154-238.987h-.487v-.292h.487v.292Z" transform="translate(378.981 266.044)"/>
  <path id="Path_20793" data-name="Path 20793" d="M-355.154-223.12h-.487v-.292h.487v.292Z" transform="translate(378.981 252.014)"/>
  <path id="Path_20794" data-name="Path 20794" d="M-355.154-207.252h-.487v-.292h.487v.292Z" transform="translate(378.981 237.982)"/>
  <path id="Path_20795" data-name="Path 20795" d="M-355.154-191.383h-.487v-.292h.487v.292Z" transform="translate(378.981 223.95)"/>
  <path id="Path_20796" data-name="Path 20796" d="M-355.154-175.515h-.487v-.292h.487v.292Z" transform="translate(378.981 209.919)"/>
  <path id="Path_20797" data-name="Path 20797" d="M-355.154-159.647h-.487v-.292h.487v.292Z" transform="translate(378.981 195.888)"/>
  <path id="Path_20798" data-name="Path 20798" d="M-355.154-143.779h-.487v-.292h.487v.292Z" transform="translate(378.981 181.857)"/>
  <path id="Path_20799" data-name="Path 20799" d="M-355.154-127.91h-.487v-.292h.487v.292Z" transform="translate(378.981 167.824)"/>
  <path id="Path_20800" data-name="Path 20800" d="M-355.154-112.042h-.487v-.292h.487v.292Z" transform="translate(378.981 153.793)"/>
  <path id="Path_20801" data-name="Path 20801" d="M-355.154-96.174h-.487v-.292h.487v.292Z" transform="translate(378.981 139.762)"/>
  <path id="Path_20802" data-name="Path 20802" d="M-355.154-80.306h-.487V-80.6h.487v.292Z" transform="translate(378.981 125.731)"/>
  <path id="Path_20803" data-name="Path 20803" d="M-355.154-64.437h-.487v-.292h.487v.292Z" transform="translate(378.981 111.698)"/>
  <path id="Path_20804" data-name="Path 20804" d="M-355.154-48.569h-.487v-.292h.487v.292Z" transform="translate(378.981 97.667)"/>
  <path id="Path_20805" data-name="Path 20805" d="M-355.154-32.7h-.487v-.292h.487v.292Z" transform="translate(378.981 83.637)"/>
  <path id="Path_20806" data-name="Path 20806" d="M-355.154-16.833h-.487v-.292h.487v.292Z" transform="translate(378.981 69.605)"/>
  <path id="Path_20807" data-name="Path 20807" d="M-355.154-.965h-.487v-.292h.487v.292Z" transform="translate(378.981 55.573)"/>
  <path id="Path_20808" data-name="Path 20808" d="M-355.154,14.9h-.487V14.61h.487V14.9Z" transform="translate(378.981 41.542)"/>
  <path id="Path_20809" data-name="Path 20809" d="M-355.154,30.771h-.487v-.292h.487v.292Z" transform="translate(378.981 27.511)"/>
  <path id="Path_20810" data-name="Path 20810" d="M-355.154,46.639h-.487v-.292h.487v.292Z" transform="translate(378.981 13.48)"/>
  <path id="Path_20811" data-name="Path 20811" d="M-355.154,62.508h-.487v-.292h.487v.292Z" transform="translate(378.981 -0.552)"/>
  <path id="Path_20812" data-name="Path 20812" d="M-355.154,78.376h-.487v-.292h.487v.292Z" transform="translate(378.981 -14.584)"/>
  <path id="Path_20813" data-name="Path 20813" d="M-355.154,94.244h-.487v-.292h.487v.292Z" transform="translate(378.981 -28.615)"/>
  <path id="Path_20814" data-name="Path 20814" d="M-355.154,110.112h-.487v-.292h.487v.292Z" transform="translate(378.981 -42.646)"/>
  <path id="Path_20815" data-name="Path 20815" d="M-355.154,125.981h-.487v-.292h.487v.292Z" transform="translate(378.981 -56.678)"/>
  <path id="Path_20816" data-name="Path 20816" d="M-355.154,141.849h-.487v-.292h.487v.292Z" transform="translate(378.981 -70.709)"/>
  <path id="Path_20817" data-name="Path 20817" d="M-355.154,157.716h-.487v-.292h.487v.292Z" transform="translate(378.981 -84.74)"/>
  <path id="Path_20818" data-name="Path 20818" d="M-355.154,173.585h-.487v-.292h.487v.292Z" transform="translate(378.981 -98.772)"/>
  <path id="Path_20819" data-name="Path 20819" d="M-355.154,189.454h-.487v-.292h.487v.292Z" transform="translate(378.981 -112.804)"/>
  <path id="Path_20820" data-name="Path 20820" d="M-355.154,205.321h-.487v-.292h.487v.292Z" transform="translate(378.981 -126.834)"/>
  <path id="Path_20821" data-name="Path 20821" d="M-355.154,221.189h-.487V220.9h.487v.292Z" transform="translate(378.981 -140.866)"/>
  <path id="Path_20822" data-name="Path 20822" d="M-355.154,237.057h-.487v-.292h.487v.292Z" transform="translate(378.981 -154.897)"/>
  <path id="Path_20823" data-name="Path 20823" d="M-355.154,252.926h-.487v-.292h.487v.292Z" transform="translate(378.981 -168.929)"/>
  <path id="Path_20824" data-name="Path 20824" d="M-355.154,268.794h-.487V268.5h.487v.292Z" transform="translate(378.981 -182.96)"/>
  <path id="Path_20825" data-name="Path 20825" d="M-355.154,284.662h-.487v-.292h.487v.292Z" transform="translate(378.981 -196.992)"/>
  <path id="Path_20826" data-name="Path 20826" d="M-355.154,300.53h-.487v-.292h.487v.292Z" transform="translate(378.981 -211.023)"/>
  <path id="Path_20827" data-name="Path 20827" d="M-355.154,316.4h-.487v-.292h.487v.292Z" transform="translate(378.981 -225.055)"/>
  <path id="Path_20828" data-name="Path 20828" d="M-355.154,332.266h-.487v-.293h.487v.293Z" transform="translate(378.981 -239.085)"/>
  <path id="Path_20829" data-name="Path 20829" d="M-355.154,348.135h-.487v-.292h.487v.292Z" transform="translate(378.981 -253.118)"/>
  <path id="Path_20830" data-name="Path 20830" d="M-355.154,364.005h-.487v-.292h.487v.292Z" transform="translate(378.981 -267.151)"/>
  <path id="Path_20831" data-name="Path 20831" d="M-376-429.406h-3.216v-.292H-376v.292Z" transform="translate(399.825 434.422)"/>
  <path id="Path_20832" data-name="Path 20832" d="M-379.779-405.155l-.17-.238,3.047-2.175-3.045-2.112.167-.24,3.216,2.23a.146.146,0,0,1,.063.119.146.146,0,0,1-.061.12l-3.216,2.3Z" transform="translate(400.475 416.932)"/>
  <path id="Path_20833" data-name="Path 20833" d="M-376-390.3h-3.216v-.292H-376v.292Z" transform="translate(399.825 399.844)"/>
  <path id="Path_20834" data-name="Path 20834" d="M-379.779-366.052l-.17-.238,3.047-2.175-3.045-2.112.167-.24,3.216,2.23a.146.146,0,0,1,.063.119.146.146,0,0,1-.061.12l-3.216,2.3Z" transform="translate(400.475 382.356)"/>
  <path id="Path_20835" data-name="Path 20835" d="M-376-351.2h-3.216v-.292H-376v.292Z" transform="translate(399.825 365.266)"/>
  <path id="Path_20836" data-name="Path 20836" d="M-379.779-326.948l-.17-.238,3.047-2.175-3.045-2.112.167-.24,3.216,2.23a.146.146,0,0,1,.063.119.146.146,0,0,1-.061.12l-3.216,2.3Z" transform="translate(400.475 347.778)"/>
  <path id="Path_20837" data-name="Path 20837" d="M-376-312.094h-3.216v-.292H-376v.292Z" transform="translate(399.825 330.689)"/>
  <path id="Path_20838" data-name="Path 20838" d="M-379.779-287.845l-.17-.238,3.047-2.175-3.045-2.112.167-.24,3.216,2.23a.146.146,0,0,1,.063.119.146.146,0,0,1-.061.12l-3.216,2.3Z" transform="translate(400.475 313.201)"/>
  <path id="Path_20839" data-name="Path 20839" d="M-376-272.991h-3.216v-.292H-376v.292Z" transform="translate(399.825 296.112)"/>
  <path id="Path_20840" data-name="Path 20840" d="M-379.779-248.741l-.17-.238,3.047-2.175-3.045-2.112.167-.24,3.216,2.23a.146.146,0,0,1,.063.119.147.147,0,0,1-.061.12l-3.216,2.3Z" transform="translate(400.475 278.624)"/>
  <path id="Path_20841" data-name="Path 20841" d="M-376-233.887h-3.216v-.292H-376v.292Z" transform="translate(399.825 261.534)"/>
  <path id="Path_20842" data-name="Path 20842" d="M-382.122-209.362l-.174-.235,3.321-2.451-3.048-2.114.167-.24,3.216,2.23a.146.146,0,0,1,.063.118.146.146,0,0,1-.059.12l-3.486,2.573Z" transform="translate(402.55 244.047)"/>
  <path id="Path_20843" data-name="Path 20843" d="M-376-194.784h-3.216v-.292H-376v.292Z" transform="translate(399.825 226.958)"/>
  <path id="Path_20844" data-name="Path 20844" d="M-388.987-166.752l-.181-.229,4.126-3.264-3.329-2.412.172-.237,3.486,2.525a.147.147,0,0,1,.06.115.146.146,0,0,1-.055.118l-4.277,3.383Z" transform="translate(408.627 207.343)"/>
  <path id="Path_20845" data-name="Path 20845" d="M-380.678-150.741h-3.828v-.292h3.828v.292Z" transform="translate(404.504 188.013)"/>
  <path id="Path_20846" data-name="Path 20846" d="M-397.914-113.906l-.188-.224,5.168-4.322-4.131-3.145.177-.233,4.277,3.256a.147.147,0,0,1,.058.113.146.146,0,0,1-.052.115l-5.308,4.439Z" transform="translate(416.526 162.189)"/>
  <path id="Path_20847" data-name="Path 20847" d="M-387.473-93.383h-4.718v-.292h4.718v.292Z" transform="translate(411.299 137.294)"/>
  <path id="Path_20848" data-name="Path 20848" d="M-409.3-45.3l-.192-.22L-403-51.19l-5.166-3.928.177-.233,5.308,4.037a.146.146,0,0,1,.058.111.147.147,0,0,1-.05.115L-409.3-45.3Z" transform="translate(426.598 103.405)"/>
  <path id="Path_20849" data-name="Path 20849" d="M-396.148-20.159H-402v-.292h5.853v.292Z" transform="translate(419.974 72.546)"/>
  <path id="Path_20850" data-name="Path 20850" d="M-424.1,42.534l-.2-.217,8.207-7.424-6.489-5.126.181-.23,6.624,5.233a.147.147,0,0,1,.055.11.146.146,0,0,1-.048.113l-8.336,7.54Z" transform="translate(439.685 28.343)"/>
  <path id="Path_20851" data-name="Path 20851" d="M-407.425,75.051h-7.33v-.292h7.33v.292Z" transform="translate(431.252 -11.643)"/>
  <path id="Path_20852" data-name="Path 20852" d="M-442.829,156.281l-.2-.214,10.376-9.643-8.2-6.313.178-.232,8.335,6.418a.146.146,0,0,1,.057.109.146.146,0,0,1-.047.114l-10.5,9.761Z" transform="translate(456.252 -69.227)"/>
  <path id="Path_20853" data-name="Path 20853" d="M-421.71,195.638h-9.2v-.292h9.2v.292Z" transform="translate(445.536 -118.272)"/>
  <path id="Path_20854" data-name="Path 20854" d="M-431.665,279.677h-10.5v-.292h10.5v.292Z" transform="translate(455.492 -192.584)"/>
  <path id="Path_20855" data-name="Path 20855" d="M-339.591-358.43l-8.771-65.469v-30.442h-3.07v-.292h3.216a.146.146,0,0,1,.146.146v30.569l8.769,65.449-.289.039Z" transform="translate(375.259 456.47)"/>
  <path id="Path_20856" data-name="Path 20856" d="M-349.419-444.26l-3.216-2.3a.147.147,0,0,1-.061-.12.146.146,0,0,1,.063-.119l3.216-2.231.167.24-3.045,2.112,3.047,2.175-.17.238Z" transform="translate(376.376 451.511)"/>
  <path id="Path_20857" data-name="Path 20857" d="M-309.7-454.341h-13.952v-.292H-309.7v.292Z" transform="translate(350.694 456.47)"/>
  <path id="Path_20858" data-name="Path 20858" d="M-313.007-429.406h-10.645v-.292h10.645v.292Z" transform="translate(350.694 434.422)"/>
  <path id="Path_20859" data-name="Path 20859" d="M-314.871-468.446l.821,2.561,5.109-4.324H-311.5l-3.368,1.763Zm-9.674,2.764,6.372,3.286,3.881-3.285-.8-2.5-1.7,2.627a.145.145,0,0,1-.13.067.147.147,0,0,1-.123-.077l-1.428-2.686-2.091,2.707a.144.144,0,0,1-.122.057.146.146,0,0,1-.117-.067l-1.752-2.713-2,2.584Zm6.391,3.607a.147.147,0,0,1-.067-.016l-6.614-3.411a.146.146,0,0,1-.076-.1.145.145,0,0,1,.027-.121l2.229-2.886a.139.139,0,0,1,.122-.057.146.146,0,0,1,.117.067l1.752,2.713,2.1-2.723a.142.142,0,0,1,.127-.056.146.146,0,0,1,.117.077l1.418,2.667,1.729-2.677a.143.143,0,0,1,.054-.05l3.508-1.837a.143.143,0,0,1,.067-.017h3a.147.147,0,0,1,.138.1.148.148,0,0,1-.043.162l-9.611,8.134a.148.148,0,0,1-.095.034Z" transform="translate(351.81 470.501)"/>
  <path id="Path_20860" data-name="Path 20860" d="M-303.339-255.963H-323.8v-.292h20.318v-2.022l-20.338-2.8.04-.289,20.465,2.821a.146.146,0,0,1,.126.145v2.3a.147.147,0,0,1-.147.146Z" transform="translate(350.845 285.578)"/>
  <path id="Path_20861" data-name="Path 20861" d="M-319.367-213.672a.148.148,0,0,1-.08-.024l-4.9-3.215.16-.244,4.817,3.162,4.817-3.162a.145.145,0,0,1,.154,0l5.406,3.17,5.114-3.168.154.249-5.189,3.214a.146.146,0,0,1-.15,0l-5.4-3.168-4.821,3.165a.147.147,0,0,1-.08.024Z" transform="translate(351.306 246.502)"/>
  <path id="Path_20862" data-name="Path 20862" d="M-308.1-249.97a.141.141,0,0,1-.074-.021.145.145,0,0,1-.072-.126V-252.8l-5.193,2.815a.146.146,0,0,1-.145,0,.146.146,0,0,1-.071-.126v-3.343L-318.54-250a.146.146,0,0,1-.151.011.147.147,0,0,1-.079-.13v-4.037L-324.237-250l-.177-.233,5.7-4.331a.146.146,0,0,1,.153-.014.146.146,0,0,1,.081.131v4.048l4.886-3.462a.147.147,0,0,1,.152-.011.146.146,0,0,1,.079.13v3.38l5.193-2.816a.145.145,0,0,1,.145,0,.147.147,0,0,1,.072.126v2.687l4.022-2.179.14.257-4.24,2.3a.142.142,0,0,1-.069.018Z" transform="translate(351.368 279.585)"/>
  <path id="Path_20863" data-name="Path 20863" d="M-348.193-357.334h-.292v-96.038h.292v96.038Z" transform="translate(372.653 455.354)"/>
  <path id="Path_20864" data-name="Path 20864" d="M-350.945-445.274h-.487v-.292h.487v.292Z" transform="translate(375.259 448.453)"/>
  <path id="Path_20865" data-name="Path 20865" d="M-350.945-429.406h-.487v-.292h.487v.292Z" transform="translate(375.259 434.422)"/>
  <path id="Path_20866" data-name="Path 20866" d="M-350.945-413.537h-.487v-.292h.487v.292Z" transform="translate(375.259 420.389)"/>
  <path id="Path_20867" data-name="Path 20867" d="M-350.945-397.67h-.487v-.292h.487v.292Z" transform="translate(375.259 406.359)"/>
  <path id="Path_20868" data-name="Path 20868" d="M-350.945-381.8h-.487v-.292h.487v.292Z" transform="translate(375.259 392.327)"/>
  <path id="Path_20869" data-name="Path 20869" d="M-350.945-365.933h-.487v-.292h.487v.292Z" transform="translate(375.259 378.296)"/>
  <path id="Path_20870" data-name="Path 20870" d="M-350.945-350.065h-.487v-.292h.487v.292Z" transform="translate(375.259 364.264)"/>
  <path id="Path_20871" data-name="Path 20871" d="M-350.945-334.2h-.487v-.292h.487v.292Z" transform="translate(375.259 350.233)"/>
  <path id="Path_20872" data-name="Path 20872" d="M-350.945-318.329h-.487v-.292h.487v.292Z" transform="translate(375.259 336.202)"/>
  <path id="Path_20873" data-name="Path 20873" d="M-350.945-302.46h-.487v-.292h.487v.292Z" transform="translate(375.259 322.17)"/>
  <path id="Path_20874" data-name="Path 20874" d="M-350.945-286.592h-.487v-.292h.487v.292Z" transform="translate(375.259 308.138)"/>
  <path id="Path_20875" data-name="Path 20875" d="M-350.945-270.725h-.487v-.292h.487v.292Z" transform="translate(375.259 294.108)"/>
  <path id="Path_20876" data-name="Path 20876" d="M-350.945-254.855h-.487v-.292h.487v.292Z" transform="translate(375.259 280.075)"/>
  <path id="Path_20877" data-name="Path 20877" d="M-350.945-238.987h-.487v-.292h.487v.292Z" transform="translate(375.259 266.044)"/>
  <path id="Path_20878" data-name="Path 20878" d="M-350.945-223.12h-.487v-.292h.487v.292Z" transform="translate(375.259 252.014)"/>
  <path id="Path_20879" data-name="Path 20879" d="M-350.945-207.252h-.487v-.292h.487v.292Z" transform="translate(375.259 237.982)"/>
  <path id="Path_20880" data-name="Path 20880" d="M-350.945-191.383h-.487v-.292h.487v.292Z" transform="translate(375.259 223.95)"/>
  <path id="Path_20881" data-name="Path 20881" d="M-350.945-175.515h-.487v-.292h.487v.292Z" transform="translate(375.259 209.919)"/>
  <path id="Path_20882" data-name="Path 20882" d="M-350.945-159.647h-.487v-.292h.487v.292Z" transform="translate(375.259 195.888)"/>
  <path id="Path_20883" data-name="Path 20883" d="M-350.945-143.779h-.487v-.292h.487v.292Z" transform="translate(375.259 181.857)"/>
  <path id="Path_20884" data-name="Path 20884" d="M-350.945-127.91h-.487v-.292h.487v.292Z" transform="translate(375.259 167.824)"/>
  <path id="Path_20885" data-name="Path 20885" d="M-350.945-112.042h-.487v-.292h.487v.292Z" transform="translate(375.259 153.793)"/>
  <path id="Path_20886" data-name="Path 20886" d="M-350.945-96.174h-.487v-.292h.487v.292Z" transform="translate(375.259 139.762)"/>
  <path id="Path_20887" data-name="Path 20887" d="M-350.945-80.306h-.487V-80.6h.487v.292Z" transform="translate(375.259 125.731)"/>
  <path id="Path_20888" data-name="Path 20888" d="M-350.945-64.437h-.487v-.292h.487v.292Z" transform="translate(375.259 111.698)"/>
  <path id="Path_20889" data-name="Path 20889" d="M-350.945-48.569h-.487v-.292h.487v.292Z" transform="translate(375.259 97.667)"/>
  <path id="Path_20890" data-name="Path 20890" d="M-350.945-32.7h-.487v-.292h.487v.292Z" transform="translate(375.259 83.637)"/>
  <path id="Path_20891" data-name="Path 20891" d="M-350.945-16.833h-.487v-.292h.487v.292Z" transform="translate(375.259 69.605)"/>
  <path id="Path_20892" data-name="Path 20892" d="M-350.945-.965h-.487v-.292h.487v.292Z" transform="translate(375.259 55.573)"/>
  <path id="Path_20893" data-name="Path 20893" d="M-350.945,14.9h-.487V14.61h.487V14.9Z" transform="translate(375.259 41.542)"/>
  <path id="Path_20894" data-name="Path 20894" d="M-350.945,30.771h-.487v-.292h.487v.292Z" transform="translate(375.259 27.511)"/>
  <path id="Path_20895" data-name="Path 20895" d="M-350.945,46.639h-.487v-.292h.487v.292Z" transform="translate(375.259 13.48)"/>
  <path id="Path_20896" data-name="Path 20896" d="M-350.945,62.508h-.487v-.292h.487v.292Z" transform="translate(375.259 -0.552)"/>
  <path id="Path_20897" data-name="Path 20897" d="M-350.945,78.376h-.487v-.292h.487v.292Z" transform="translate(375.259 -14.584)"/>
  <path id="Path_20898" data-name="Path 20898" d="M-350.945,94.244h-.487v-.292h.487v.292Z" transform="translate(375.259 -28.615)"/>
  <path id="Path_20899" data-name="Path 20899" d="M-350.945,110.112h-.487v-.292h.487v.292Z" transform="translate(375.259 -42.646)"/>
  <path id="Path_20900" data-name="Path 20900" d="M-350.945,125.981h-.487v-.292h.487v.292Z" transform="translate(375.259 -56.678)"/>
  <path id="Path_20901" data-name="Path 20901" d="M-350.945,141.849h-.487v-.292h.487v.292Z" transform="translate(375.259 -70.709)"/>
  <path id="Path_20902" data-name="Path 20902" d="M-350.945,157.716h-.487v-.292h.487v.292Z" transform="translate(375.259 -84.74)"/>
  <path id="Path_20903" data-name="Path 20903" d="M-350.945,173.585h-.487v-.292h.487v.292Z" transform="translate(375.259 -98.772)"/>
  <path id="Path_20904" data-name="Path 20904" d="M-350.945,189.454h-.487v-.292h.487v.292Z" transform="translate(375.259 -112.804)"/>
  <path id="Path_20905" data-name="Path 20905" d="M-350.945,205.321h-.487v-.292h.487v.292Z" transform="translate(375.259 -126.834)"/>
  <path id="Path_20906" data-name="Path 20906" d="M-350.945,221.189h-.487V220.9h.487v.292Z" transform="translate(375.259 -140.866)"/>
  <path id="Path_20907" data-name="Path 20907" d="M-350.945,237.057h-.487v-.292h.487v.292Z" transform="translate(375.259 -154.897)"/>
  <path id="Path_20908" data-name="Path 20908" d="M-350.945,252.926h-.487v-.292h.487v.292Z" transform="translate(375.259 -168.929)"/>
  <path id="Path_20909" data-name="Path 20909" d="M-350.945,268.794h-.487V268.5h.487v.292Z" transform="translate(375.259 -182.96)"/>
  <path id="Path_20910" data-name="Path 20910" d="M-350.945,284.662h-.487v-.292h.487v.292Z" transform="translate(375.259 -196.992)"/>
  <path id="Path_20911" data-name="Path 20911" d="M-350.945,300.53h-.487v-.292h.487v.292Z" transform="translate(375.259 -211.023)"/>
  <path id="Path_20912" data-name="Path 20912" d="M-350.945,316.4h-.487v-.292h.487v.292Z" transform="translate(375.259 -225.055)"/>
  <path id="Path_20913" data-name="Path 20913" d="M-350.945,332.266h-.487v-.293h.487v.293Z" transform="translate(375.259 -239.085)"/>
  <path id="Path_20914" data-name="Path 20914" d="M-350.945,348.135h-.487v-.292h.487v.292Z" transform="translate(375.259 -253.118)"/>
  <path id="Path_20915" data-name="Path 20915" d="M-350.945,364.005h-.487v-.292h.487v.292Z" transform="translate(375.259 -267.151)"/>
  <path id="Path_20916" data-name="Path 20916" d="M-348.217-429.406h-3.216v-.292h3.216v.292Z" transform="translate(375.259 434.422)"/>
  <path id="Path_20917" data-name="Path 20917" d="M-349.419-405.155l-3.216-2.3a.147.147,0,0,1-.061-.12.147.147,0,0,1,.063-.119l3.216-2.23.167.24-3.045,2.112,3.047,2.175-.17.238Z" transform="translate(376.376 416.932)"/>
  <path id="Path_20918" data-name="Path 20918" d="M-348.217-390.3h-3.216v-.292h3.216v.292Z" transform="translate(375.259 399.844)"/>
  <path id="Path_20919" data-name="Path 20919" d="M-349.419-366.052l-3.216-2.3a.147.147,0,0,1-.061-.12.146.146,0,0,1,.063-.119l3.216-2.23.167.24-3.045,2.112,3.047,2.175-.17.238Z" transform="translate(376.376 382.356)"/>
  <path id="Path_20920" data-name="Path 20920" d="M-348.217-351.2h-3.216v-.292h3.216v.292Z" transform="translate(375.259 365.266)"/>
  <path id="Path_20921" data-name="Path 20921" d="M-349.419-326.948l-3.216-2.3a.147.147,0,0,1-.061-.12.147.147,0,0,1,.063-.119l3.216-2.23.167.24-3.045,2.112,3.047,2.175-.17.238Z" transform="translate(376.376 347.778)"/>
  <path id="Path_20922" data-name="Path 20922" d="M-348.217-312.094h-3.216v-.292h3.216v.292Z" transform="translate(375.259 330.689)"/>
  <path id="Path_20923" data-name="Path 20923" d="M-349.419-287.845l-3.216-2.3a.147.147,0,0,1-.061-.12.146.146,0,0,1,.063-.119l3.216-2.23.167.24-3.045,2.112,3.047,2.175-.17.238Z" transform="translate(376.376 313.201)"/>
  <path id="Path_20924" data-name="Path 20924" d="M-348.217-272.991h-3.216v-.292h3.216v.292Z" transform="translate(375.259 296.112)"/>
  <path id="Path_20925" data-name="Path 20925" d="M-349.419-248.741l-3.216-2.3a.147.147,0,0,1-.061-.12.147.147,0,0,1,.063-.119l3.216-2.23.167.24-3.045,2.112,3.047,2.175-.17.238Z" transform="translate(376.376 278.624)"/>
  <path id="Path_20926" data-name="Path 20926" d="M-348.217-233.887h-3.216v-.292h3.216v.292Z" transform="translate(375.259 261.534)"/>
  <path id="Path_20927" data-name="Path 20927" d="M-349.151-209.362l-3.486-2.573a.146.146,0,0,1-.059-.12.146.146,0,0,1,.063-.118l3.216-2.23.167.24-3.048,2.114,3.321,2.451-.174.235Z" transform="translate(376.376 244.047)"/>
  <path id="Path_20928" data-name="Path 20928" d="M-348.217-194.784h-3.216v-.292h3.216v.292Z" transform="translate(375.259 226.958)"/>
  <path id="Path_20929" data-name="Path 20929" d="M-348.363-166.752l-4.278-3.383a.147.147,0,0,1-.056-.118.148.148,0,0,1,.06-.115l3.486-2.525.172.237-3.329,2.412,4.126,3.264-.181.229Z" transform="translate(376.376 207.343)"/>
  <path id="Path_20930" data-name="Path 20930" d="M-347.6-150.741h-3.828v-.292h3.828v.292Z" transform="translate(375.259 188.013)"/>
  <path id="Path_20931" data-name="Path 20931" d="M-347.336-113.906l-5.308-4.439a.146.146,0,0,1-.052-.116.147.147,0,0,1,.058-.113l4.277-3.256.177.233-4.132,3.145,5.168,4.322-.187.224Z" transform="translate(376.376 162.189)"/>
  <path id="Path_20932" data-name="Path 20932" d="M-346.715-93.383h-4.718v-.292h4.718v.292Z" transform="translate(375.259 137.294)"/>
  <path id="Path_20933" data-name="Path 20933" d="M-346.021-45.3l-6.624-5.788a.146.146,0,0,1-.05-.115.145.145,0,0,1,.058-.111l5.308-4.037.177.233-5.165,3.928,6.489,5.67-.192.22Z" transform="translate(376.375 103.405)"/>
  <path id="Path_20934" data-name="Path 20934" d="M-345.579-20.159h-5.853v-.292h5.853v.292Z" transform="translate(375.259 72.546)"/>
  <path id="Path_20935" data-name="Path 20935" d="M-344.311,42.534l-8.335-7.54a.146.146,0,0,1-.048-.113.146.146,0,0,1,.055-.11l6.624-5.233.181.23-6.489,5.126,8.207,7.424-.2.217Z" transform="translate(376.375 28.343)"/>
  <path id="Path_20936" data-name="Path 20936" d="M-344.1,75.051h-7.33v-.292h7.33v.292Z" transform="translate(375.259 -11.643)"/>
  <path id="Path_20937" data-name="Path 20937" d="M-342.146,156.281l-10.5-9.761a.146.146,0,0,1-.047-.114.146.146,0,0,1,.057-.109l8.335-6.418.178.232-8.2,6.313,10.376,9.643-.2.214Z" transform="translate(376.376 -69.227)"/>
  <path id="Path_20938" data-name="Path 20938" d="M-342.233,195.638h-9.2v-.292h9.2v.292Z" transform="translate(375.259 -118.272)"/>
  <path id="Path_20939" data-name="Path 20939" d="M-340.93,279.677h-10.5v-.292h10.5v.292Z" transform="translate(375.259 -192.584)"/>
  <path id="Path_20940" data-name="Path 20940" d="M-517-183.519h-1.082a.292.292,0,0,1-.292-.292.292.292,0,0,1,.292-.292H-517a.292.292,0,0,1,.292.292.292.292,0,0,1-.292.292Z" transform="translate(522.878 217.255)"/>
  <path id="Path_20941" data-name="Path 20941" d="M-517-177.752h-1.082a.292.292,0,0,1-.292-.292.292.292,0,0,1,.292-.292H-517a.292.292,0,0,1,.292.292.292.292,0,0,1-.292.292Z" transform="translate(522.878 212.156)"/>
  <path id="Path_20942" data-name="Path 20942" d="M-517-171.987h-1.082a.292.292,0,0,1-.292-.292.292.292,0,0,1,.292-.293H-517a.293.293,0,0,1,.292.293.293.293,0,0,1-.292.292Z" transform="translate(522.878 207.058)"/>
  <path id="Path_20943" data-name="Path 20943" d="M-517-166.22h-1.082a.292.292,0,0,1-.292-.293.292.292,0,0,1,.292-.292H-517a.292.292,0,0,1,.292.292.292.292,0,0,1-.292.293Z" transform="translate(522.878 201.958)"/>
  <path id="Path_20944" data-name="Path 20944" d="M-517-160.454h-1.082a.292.292,0,0,1-.292-.292.292.292,0,0,1,.292-.293H-517a.292.292,0,0,1,.292.293.292.292,0,0,1-.292.292Z" transform="translate(522.878 196.86)"/>
  <path id="Path_20945" data-name="Path 20945" d="M-517-154.686h-1.082a.292.292,0,0,1-.292-.292.292.292,0,0,1,.292-.292H-517a.292.292,0,0,1,.292.292.292.292,0,0,1-.292.292Z" transform="translate(522.878 191.76)"/>
  <path id="Path_20946" data-name="Path 20946" d="M-512.3-181.014a.146.146,0,0,1-.146-.146v-8.1a.146.146,0,0,1,.146-.146.146.146,0,0,1,.146.146v8.1a.146.146,0,0,1-.146.146Z" transform="translate(517.631 221.946)"/>
  <path id="Path_20947" data-name="Path 20947" d="M-517-148.919h-1.082a.292.292,0,0,1-.292-.292.292.292,0,0,1,.292-.292H-517a.292.292,0,0,1,.292.292.292.292,0,0,1-.292.292Z" transform="translate(522.878 186.66)"/>
  <path id="Path_20948" data-name="Path 20948" d="M-517-143.154h-1.082a.292.292,0,0,1-.292-.292.292.292,0,0,1,.292-.292H-517a.293.293,0,0,1,.292.292.292.292,0,0,1-.292.292Z" transform="translate(522.878 181.562)"/>
  <path id="Path_20949" data-name="Path 20949" d="M-517-137.388h-1.082a.292.292,0,0,1-.292-.293.292.292,0,0,1,.292-.292H-517a.293.293,0,0,1,.292.292.292.292,0,0,1-.292.293Z" transform="translate(522.878 176.464)"/>
  <path id="Path_20950" data-name="Path 20950" d="M-517-131.621h-1.082a.292.292,0,0,1-.292-.292.292.292,0,0,1,.292-.292H-517a.292.292,0,0,1,.292.292.292.292,0,0,1-.292.292Z" transform="translate(522.878 171.364)"/>
  <path id="Path_20951" data-name="Path 20951" d="M-517-125.853h-1.082a.292.292,0,0,1-.292-.293.292.292,0,0,1,.292-.292H-517a.292.292,0,0,1,.292.292.293.293,0,0,1-.292.293Z" transform="translate(522.878 166.264)"/>
  <path id="Path_20952" data-name="Path 20952" d="M-517-120.087h-1.082a.292.292,0,0,1-.292-.292.292.292,0,0,1,.292-.292H-517a.292.292,0,0,1,.292.292.292.292,0,0,1-.292.292Z" transform="translate(522.878 161.165)"/>
  <path id="Path_20953" data-name="Path 20953" d="M-427.342-183.519h-1.081a.292.292,0,0,1-.292-.292.292.292,0,0,1,.292-.292h1.081a.292.292,0,0,1,.292.292.292.292,0,0,1-.292.292Z" transform="translate(443.597 217.255)"/>
  <path id="Path_20954" data-name="Path 20954" d="M-427.342-177.752h-1.081a.292.292,0,0,1-.292-.292.292.292,0,0,1,.292-.292h1.081a.292.292,0,0,1,.292.292.292.292,0,0,1-.292.292Z" transform="translate(443.597 212.156)"/>
  <path id="Path_20955" data-name="Path 20955" d="M-427.342-171.987h-1.081a.292.292,0,0,1-.292-.292.292.292,0,0,1,.292-.293h1.081a.292.292,0,0,1,.292.293.292.292,0,0,1-.292.292Z" transform="translate(443.597 207.058)"/>
  <path id="Path_20956" data-name="Path 20956" d="M-427.342-166.22h-1.081a.292.292,0,0,1-.292-.293.292.292,0,0,1,.292-.292h1.081a.292.292,0,0,1,.292.292.292.292,0,0,1-.292.293Z" transform="translate(443.597 201.958)"/>
  <path id="Path_20957" data-name="Path 20957" d="M-427.342-160.454h-1.081a.292.292,0,0,1-.292-.292.292.292,0,0,1,.292-.293h1.081a.292.292,0,0,1,.292.293.292.292,0,0,1-.292.292Z" transform="translate(443.597 196.86)"/>
  <path id="Path_20958" data-name="Path 20958" d="M-427.342-154.686h-1.081a.292.292,0,0,1-.292-.292.292.292,0,0,1,.292-.292h1.081a.292.292,0,0,1,.292.292.292.292,0,0,1-.292.292Z" transform="translate(443.597 191.76)"/>
  <path id="Path_20959" data-name="Path 20959" d="M-422.636-181.014a.146.146,0,0,1-.146-.146v-8.1a.146.146,0,0,1,.146-.146.146.146,0,0,1,.146.146v8.1a.146.146,0,0,1-.146.146Z" transform="translate(438.35 221.946)"/>
  <path id="Path_20960" data-name="Path 20960" d="M-427.342-148.919h-1.081a.292.292,0,0,1-.292-.292.292.292,0,0,1,.292-.292h1.081a.292.292,0,0,1,.292.292.292.292,0,0,1-.292.292Z" transform="translate(443.597 186.66)"/>
  <path id="Path_20961" data-name="Path 20961" d="M-427.342-143.154h-1.081a.292.292,0,0,1-.292-.292.292.292,0,0,1,.292-.292h1.081a.292.292,0,0,1,.292.292.292.292,0,0,1-.292.292Z" transform="translate(443.597 181.562)"/>
  <path id="Path_20962" data-name="Path 20962" d="M-427.342-137.388h-1.081a.292.292,0,0,1-.292-.293.292.292,0,0,1,.292-.292h1.081a.292.292,0,0,1,.292.292.292.292,0,0,1-.292.293Z" transform="translate(443.597 176.464)"/>
  <path id="Path_20963" data-name="Path 20963" d="M-427.342-131.621h-1.081a.292.292,0,0,1-.292-.292.292.292,0,0,1,.292-.292h1.081a.292.292,0,0,1,.292.292.292.292,0,0,1-.292.292Z" transform="translate(443.597 171.364)"/>
  <path id="Path_20964" data-name="Path 20964" d="M-427.342-125.853h-1.081a.292.292,0,0,1-.292-.293.292.292,0,0,1,.292-.292h1.081a.292.292,0,0,1,.292.292.292.292,0,0,1-.292.293Z" transform="translate(443.597 166.264)"/>
  <path id="Path_20965" data-name="Path 20965" d="M-427.342-120.087h-1.081a.292.292,0,0,1-.292-.292.292.292,0,0,1,.292-.292h1.081a.292.292,0,0,1,.292.292.292.292,0,0,1-.292.292Z" transform="translate(443.597 161.165)"/>
  <path id="Path_20966" data-name="Path 20966" d="M-287.169-183.519h-1.081a.292.292,0,0,1-.292-.292.292.292,0,0,1,.292-.292h1.081a.292.292,0,0,1,.292.292.292.292,0,0,1-.292.292Z" transform="translate(319.649 217.255)"/>
  <path id="Path_20967" data-name="Path 20967" d="M-287.169-177.752h-1.081a.292.292,0,0,1-.292-.292.292.292,0,0,1,.292-.292h1.081a.292.292,0,0,1,.292.292.292.292,0,0,1-.292.292Z" transform="translate(319.649 212.156)"/>
  <path id="Path_20968" data-name="Path 20968" d="M-287.169-171.987h-1.081a.292.292,0,0,1-.292-.292.292.292,0,0,1,.292-.293h1.081a.292.292,0,0,1,.292.293.292.292,0,0,1-.292.292Z" transform="translate(319.649 207.058)"/>
  <path id="Path_20969" data-name="Path 20969" d="M-287.169-166.22h-1.081a.292.292,0,0,1-.292-.293.292.292,0,0,1,.292-.292h1.081a.292.292,0,0,1,.292.292.292.292,0,0,1-.292.293Z" transform="translate(319.649 201.958)"/>
  <path id="Path_20970" data-name="Path 20970" d="M-287.169-160.454h-1.081a.292.292,0,0,1-.292-.292.292.292,0,0,1,.292-.293h1.081a.292.292,0,0,1,.292.293.292.292,0,0,1-.292.292Z" transform="translate(319.649 196.86)"/>
  <path id="Path_20971" data-name="Path 20971" d="M-287.169-154.686h-1.081a.292.292,0,0,1-.292-.292.292.292,0,0,1,.292-.292h1.081a.292.292,0,0,1,.292.292.292.292,0,0,1-.292.292Z" transform="translate(319.649 191.76)"/>
  <path id="Path_20972" data-name="Path 20972" d="M-282.463-181.014a.146.146,0,0,1-.146-.146v-8.1a.146.146,0,0,1,.146-.146.146.146,0,0,1,.146.146v8.1a.146.146,0,0,1-.146.146Z" transform="translate(314.402 221.946)"/>
  <path id="Path_20973" data-name="Path 20973" d="M-287.169-148.919h-1.081a.292.292,0,0,1-.292-.292.292.292,0,0,1,.292-.292h1.081a.292.292,0,0,1,.292.292.292.292,0,0,1-.292.292Z" transform="translate(319.649 186.66)"/>
  <path id="Path_20974" data-name="Path 20974" d="M-287.169-143.154h-1.081a.292.292,0,0,1-.292-.292.292.292,0,0,1,.292-.292h1.081a.292.292,0,0,1,.292.292.292.292,0,0,1-.292.292Z" transform="translate(319.649 181.562)"/>
  <path id="Path_20975" data-name="Path 20975" d="M-287.169-137.388h-1.081a.292.292,0,0,1-.292-.293.292.292,0,0,1,.292-.292h1.081a.292.292,0,0,1,.292.292.292.292,0,0,1-.292.293Z" transform="translate(319.649 176.464)"/>
  <path id="Path_20976" data-name="Path 20976" d="M-287.169-131.621h-1.081a.292.292,0,0,1-.292-.292.292.292,0,0,1,.292-.292h1.081a.292.292,0,0,1,.292.292.292.292,0,0,1-.292.292Z" transform="translate(319.649 171.364)"/>
  <path id="Path_20977" data-name="Path 20977" d="M-287.169-125.853h-1.081a.292.292,0,0,1-.292-.293.292.292,0,0,1,.292-.292h1.081a.292.292,0,0,1,.292.292.293.293,0,0,1-.292.293Z" transform="translate(319.649 166.264)"/>
  <path id="Path_20978" data-name="Path 20978" d="M-287.169-120.087h-1.081a.292.292,0,0,1-.292-.292.292.292,0,0,1,.292-.292h1.081a.292.292,0,0,1,.292.292.292.292,0,0,1-.292.292Z" transform="translate(319.649 161.165)"/>
  <path id="Path_20979" data-name="Path 20979" d="M-197.506-183.519h-1.082a.292.292,0,0,1-.292-.292.292.292,0,0,1,.292-.292h1.082a.292.292,0,0,1,.292.292.292.292,0,0,1-.292.292Z" transform="translate(240.365 217.255)"/>
  <path id="Path_20980" data-name="Path 20980" d="M-197.506-177.752h-1.082a.292.292,0,0,1-.292-.292.292.292,0,0,1,.292-.292h1.082a.292.292,0,0,1,.292.292.292.292,0,0,1-.292.292Z" transform="translate(240.365 212.156)"/>
  <path id="Path_20981" data-name="Path 20981" d="M-197.506-171.987h-1.082a.292.292,0,0,1-.292-.292.292.292,0,0,1,.292-.293h1.082a.292.292,0,0,1,.292.293.292.292,0,0,1-.292.292Z" transform="translate(240.365 207.058)"/>
  <path id="Path_20982" data-name="Path 20982" d="M-197.506-166.22h-1.082a.292.292,0,0,1-.292-.293.292.292,0,0,1,.292-.292h1.082a.292.292,0,0,1,.292.292.292.292,0,0,1-.292.293Z" transform="translate(240.365 201.958)"/>
  <path id="Path_20983" data-name="Path 20983" d="M-197.506-160.454h-1.082a.292.292,0,0,1-.292-.292.292.292,0,0,1,.292-.293h1.082a.292.292,0,0,1,.292.293.292.292,0,0,1-.292.292Z" transform="translate(240.365 196.86)"/>
  <path id="Path_20984" data-name="Path 20984" d="M-197.506-154.686h-1.082a.292.292,0,0,1-.292-.292.292.292,0,0,1,.292-.292h1.082a.292.292,0,0,1,.292.292.292.292,0,0,1-.292.292Z" transform="translate(240.365 191.76)"/>
  <path id="Path_20985" data-name="Path 20985" d="M-192.8-181.014a.146.146,0,0,1-.146-.146v-8.1a.147.147,0,0,1,.146-.146.147.147,0,0,1,.147.146v8.1a.147.147,0,0,1-.147.146Z" transform="translate(235.121 221.946)"/>
  <path id="Path_20986" data-name="Path 20986" d="M-197.506-148.919h-1.082a.292.292,0,0,1-.292-.292.292.292,0,0,1,.292-.292h1.082a.292.292,0,0,1,.292.292.292.292,0,0,1-.292.292Z" transform="translate(240.365 186.66)"/>
  <path id="Path_20987" data-name="Path 20987" d="M-197.506-143.154h-1.082a.292.292,0,0,1-.292-.292.292.292,0,0,1,.292-.292h1.082a.292.292,0,0,1,.292.292.292.292,0,0,1-.292.292Z" transform="translate(240.365 181.562)"/>
  <path id="Path_20988" data-name="Path 20988" d="M-197.506-137.388h-1.082a.292.292,0,0,1-.292-.293.292.292,0,0,1,.292-.292h1.082a.292.292,0,0,1,.292.292.292.292,0,0,1-.292.293Z" transform="translate(240.365 176.464)"/>
  <path id="Path_20989" data-name="Path 20989" d="M-197.506-131.621h-1.082a.292.292,0,0,1-.292-.292.292.292,0,0,1,.292-.292h1.082a.292.292,0,0,1,.292.292.292.292,0,0,1-.292.292Z" transform="translate(240.365 171.364)"/>
  <path id="Path_20990" data-name="Path 20990" d="M-197.506-125.853h-1.082a.292.292,0,0,1-.292-.293.292.292,0,0,1,.292-.292h1.082a.292.292,0,0,1,.292.292.292.292,0,0,1-.292.293Z" transform="translate(240.365 166.264)"/>
  <path id="Path_20991" data-name="Path 20991" d="M-197.506-120.087h-1.082a.292.292,0,0,1-.292-.292.292.292,0,0,1,.292-.292h1.082a.292.292,0,0,1,.292.292.292.292,0,0,1-.292.292Z" transform="translate(240.365 161.165)"/>
  <path id="Path_20992" data-name="Path 20992" d="M-442.18-394.339h-1.082a.292.292,0,0,1-.292-.293.292.292,0,0,1,.292-.292h1.082a.292.292,0,0,1,.292.292.292.292,0,0,1-.292.293Z" transform="translate(456.717 403.672)"/>
  <path id="Path_20993" data-name="Path 20993" d="M-442.18-388.574h-1.082a.292.292,0,0,1-.292-.292.292.292,0,0,1,.292-.293h1.082a.292.292,0,0,1,.292.293.292.292,0,0,1-.292.292Z" transform="translate(456.717 398.574)"/>
  <path id="Path_20994" data-name="Path 20994" d="M-442.18-382.807h-1.082a.292.292,0,0,1-.292-.292.292.292,0,0,1,.292-.292h1.082a.292.292,0,0,1,.292.292.292.292,0,0,1-.292.292Z" transform="translate(456.717 393.475)"/>
  <path id="Path_20995" data-name="Path 20995" d="M-442.18-377.039h-1.082a.292.292,0,0,1-.292-.292.292.292,0,0,1,.292-.292h1.082a.292.292,0,0,1,.292.292.292.292,0,0,1-.292.292Z" transform="translate(456.717 388.375)"/>
  <path id="Path_20996" data-name="Path 20996" d="M-442.18-371.273h-1.082a.292.292,0,0,1-.292-.292.292.292,0,0,1,.292-.292h1.082a.292.292,0,0,1,.292.292.292.292,0,0,1-.292.292Z" transform="translate(456.717 383.276)"/>
  <path id="Path_20997" data-name="Path 20997" d="M-442.18-365.507h-1.082a.292.292,0,0,1-.292-.292.292.292,0,0,1,.292-.292h1.082a.292.292,0,0,1,.292.292.292.292,0,0,1-.292.292Z" transform="translate(456.717 378.178)"/>
  <path id="Path_20998" data-name="Path 20998" d="M-437.474-391.833a.146.146,0,0,1-.146-.146v-8.1a.146.146,0,0,1,.146-.146.146.146,0,0,1,.146.146v8.1a.146.146,0,0,1-.146.146Z" transform="translate(451.47 408.362)"/>
  <path id="Path_20999" data-name="Path 20999" d="M-442.18-359.741h-1.082a.292.292,0,0,1-.292-.292.292.292,0,0,1,.292-.293h1.082a.292.292,0,0,1,.292.293.292.292,0,0,1-.292.292Z" transform="translate(456.717 373.079)"/>
  <path id="Path_21000" data-name="Path 21000" d="M-442.18-353.974h-1.082a.293.293,0,0,1-.292-.293.292.292,0,0,1,.292-.292h1.082a.292.292,0,0,1,.292.292.292.292,0,0,1-.292.293Z" transform="translate(456.717 367.98)"/>
  <path id="Path_21001" data-name="Path 21001" d="M-442.18-348.207h-1.082a.292.292,0,0,1-.292-.292.292.292,0,0,1,.292-.292h1.082a.292.292,0,0,1,.292.292.292.292,0,0,1-.292.292Z" transform="translate(456.717 362.88)"/>
  <path id="Path_21002" data-name="Path 21002" d="M-442.18-342.441h-1.082a.292.292,0,0,1-.292-.292.292.292,0,0,1,.292-.292h1.082a.292.292,0,0,1,.292.292.292.292,0,0,1-.292.292Z" transform="translate(456.717 357.781)"/>
  <path id="Path_21003" data-name="Path 21003" d="M-442.18-336.674h-1.082a.292.292,0,0,1-.292-.292.292.292,0,0,1,.292-.292h1.082a.292.292,0,0,1,.292.292.292.292,0,0,1-.292.292Z" transform="translate(456.717 352.682)"/>
  <path id="Path_21004" data-name="Path 21004" d="M-442.18-330.908h-1.082a.292.292,0,0,1-.292-.292.292.292,0,0,1,.292-.292h1.082a.292.292,0,0,1,.292.292.292.292,0,0,1-.292.292Z" transform="translate(456.717 347.583)"/>
  <path id="Path_21005" data-name="Path 21005" d="M-272.332-394.339h-1.081a.292.292,0,0,1-.292-.293.292.292,0,0,1,.292-.292h1.081a.292.292,0,0,1,.293.292.292.292,0,0,1-.293.293Z" transform="translate(306.529 403.672)"/>
  <path id="Path_21006" data-name="Path 21006" d="M-272.332-388.574h-1.081a.292.292,0,0,1-.292-.292.292.292,0,0,1,.292-.293h1.081a.293.293,0,0,1,.293.293.293.293,0,0,1-.293.292Z" transform="translate(306.529 398.574)"/>
  <path id="Path_21007" data-name="Path 21007" d="M-272.332-382.807h-1.081a.292.292,0,0,1-.292-.292.292.292,0,0,1,.292-.292h1.081a.293.293,0,0,1,.293.292.293.293,0,0,1-.293.292Z" transform="translate(306.529 393.475)"/>
  <path id="Path_21008" data-name="Path 21008" d="M-272.332-377.039h-1.081a.292.292,0,0,1-.292-.292.292.292,0,0,1,.292-.292h1.081a.292.292,0,0,1,.293.292.292.292,0,0,1-.293.292Z" transform="translate(306.529 388.375)"/>
  <path id="Path_21009" data-name="Path 21009" d="M-272.332-371.273h-1.081a.292.292,0,0,1-.292-.292.292.292,0,0,1,.292-.292h1.081a.292.292,0,0,1,.293.292.292.292,0,0,1-.293.292Z" transform="translate(306.529 383.276)"/>
  <path id="Path_21010" data-name="Path 21010" d="M-272.332-365.507h-1.081a.292.292,0,0,1-.292-.292.292.292,0,0,1,.292-.292h1.081a.292.292,0,0,1,.293.292.292.292,0,0,1-.293.292Z" transform="translate(306.529 378.178)"/>
  <path id="Path_21011" data-name="Path 21011" d="M-267.624-391.833a.146.146,0,0,1-.146-.146v-8.1a.146.146,0,0,1,.146-.146.146.146,0,0,1,.146.146v8.1a.146.146,0,0,1-.146.146Z" transform="translate(301.281 408.362)"/>
  <path id="Path_21012" data-name="Path 21012" d="M-272.332-359.741h-1.081a.292.292,0,0,1-.292-.292.292.292,0,0,1,.292-.293h1.081a.292.292,0,0,1,.293.293.292.292,0,0,1-.293.292Z" transform="translate(306.529 373.079)"/>
  <path id="Path_21013" data-name="Path 21013" d="M-272.332-353.974h-1.081a.292.292,0,0,1-.292-.293.292.292,0,0,1,.292-.292h1.081a.292.292,0,0,1,.293.292.293.293,0,0,1-.293.293Z" transform="translate(306.529 367.98)"/>
  <path id="Path_21014" data-name="Path 21014" d="M-272.332-348.207h-1.081a.292.292,0,0,1-.292-.292.292.292,0,0,1,.292-.292h1.081a.292.292,0,0,1,.293.292.292.292,0,0,1-.293.292Z" transform="translate(306.529 362.88)"/>
  <path id="Path_21015" data-name="Path 21015" d="M-272.332-342.441h-1.081a.292.292,0,0,1-.292-.292.292.292,0,0,1,.292-.292h1.081a.293.293,0,0,1,.293.292.292.292,0,0,1-.293.292Z" transform="translate(306.529 357.781)"/>
  <path id="Path_21016" data-name="Path 21016" d="M-272.332-336.674h-1.081a.292.292,0,0,1-.292-.292.292.292,0,0,1,.292-.292h1.081a.292.292,0,0,1,.293.292.292.292,0,0,1-.293.292Z" transform="translate(306.529 352.682)"/>
  <path id="Path_21017" data-name="Path 21017" d="M-272.332-330.908h-1.081a.292.292,0,0,1-.292-.292.292.292,0,0,1,.292-.292h1.081a.292.292,0,0,1,.293.292.292.292,0,0,1-.293.292Z" transform="translate(306.529 347.583)"/>
</svg>
