<svg xmlns="http://www.w3.org/2000/svg" width="44.759" height="78.88" viewBox="0 0 44.759 78.88">
  <path id="Path_21513" data-name="Path 21513" d="M198.247,24.234c-.015-.047-.076-.075-.163-.083.067-.055.1-.112.088-.159s-.076-.075-.163-.082c.067-.056.1-.112.088-.159s-.075-.075-.162-.083c.067-.055.1-.112.088-.159s-.075-.075-.162-.082c.067-.056.1-.113.088-.159s-.075-.075-.162-.082c.068-.056.1-.112.088-.159s-.075-.075-.163-.082c.067-.056.1-.113.088-.16s-.076-.074-.163-.082c.067-.055.1-.112.088-.159s-.075-.075-.163-.082c.067-.056.1-.113.088-.16s-.076-.074-.163-.082c.067-.056.1-.112.088-.159s-.076-.075-.163-.083c.068-.055.1-.112.088-.159s-.075-.075-.162-.082c.067-.056.1-.113.088-.16s-.075-.074-.163-.082c.067-.056.1-.112.088-.159-.029-.094-.244-.112-.487-.043v-.056c.139-.022.232-.056.23-.088s-.053-.043-.134-.054c.08-.021.129-.044.128-.067s-.053-.042-.135-.054c.08-.02.129-.044.128-.067s-.052-.042-.134-.054c.08-.021.129-.044.127-.068s-.052-.042-.133-.054c.079-.021.128-.044.127-.067s-.053-.042-.134-.054c.08-.02.129-.044.128-.067s-.052-.042-.134-.054c.08-.02.129-.044.128-.068s-.053-.042-.134-.054c.079-.02.129-.044.127-.068s-.053-.042-.134-.054c.08-.02.129-.044.128-.067s-.052-.043-.134-.054c.08-.02.129-.044.128-.067s-.052-.042-.134-.054c.079-.021.129-.044.127-.068s-.052-.042-.134-.054c.079-.021.129-.044.127-.067s-.052-.042-.133-.054c.08-.02.129-.044.127-.067s-.061-.045-.154-.057V19.5a.122.122,0,0,0-.129-.122l-9.617.567-.035-.078,3.269-11.735.624-2.347.23-.739-.38-.346-.393.346L190.3,5.7l-4.912,14.35-19.146,1.128-.755-2.306-3.689-11.5c0-.03.017-.129-.014-.166a.043.043,0,0,0-.033-.016h0a2.4,2.4,0,0,1-.377-.371L161,6.25a.02.02,0,0,0-.035,0l-.054.1a.021.021,0,0,0,0,.017l.224.593-.214.107a.017.017,0,0,0-.01.012.019.019,0,0,0,0,.016l.14.26c.025.1,1.416,5.531,3.895,13.9l-9.641.568a.123.123,0,0,0-.115.122v.11l-.027.03c.017-.081.013-.139-.013-.152s-.073.021-.127.084c.016-.081.014-.138-.014-.152-.057-.028-.2.145-.312.384-.015.03-.028.06-.04.089,0-.021-.01-.037-.022-.042-.028-.014-.074.02-.127.084.017-.082.013-.138-.013-.152s-.074.02-.127.084c.016-.082.013-.139-.014-.152s-.074.02-.127.084c.017-.082.014-.139-.013-.152s-.074.021-.127.084c.017-.082.014-.139-.014-.152s-.073.021-.127.084c.017-.081.014-.138-.013-.152-.057-.028-.2.145-.312.384s-.162.456-.1.484c.027.013.074-.02.127-.084-.017.081-.013.138.014.152s.074-.021.127-.084c-.016.082-.013.138.014.152s.074-.021.127-.084c-.017.081-.013.138.014.152s.074-.021.127-.085c-.017.082-.014.139.013.152s.074-.02.127-.084c-.017.082-.014.139.014.152s.059-.011.1-.056a34.4,34.4,0,0,0,.738,4.065,4.44,4.44,0,0,1,.458,1.808,1.915,1.915,0,0,0,.587,1.341,2.016,2.016,0,0,1,.274.279,2.614,2.614,0,0,0,.388.385,1.2,1.2,0,0,0,.632.265.508.508,0,0,0,.172-.029.752.752,0,0,0,.412-.574c.009-.033.775-2.987.931-3.834a.762.762,0,0,0,.407-.173c.213-.158.338-.354.277-.436-.029-.039-.1-.045-.18-.024.045-.075.059-.14.03-.18s-.1-.045-.18-.024c.045-.075.059-.14.03-.18s-.1-.045-.181-.024c.045-.075.06-.14.03-.179s-.1-.045-.181-.024c.045-.075.06-.14.03-.18s-.1-.045-.18-.024c.045-.075.059-.14.03-.18s-.1-.045-.181-.024c.045-.075.059-.14.03-.18s-.1-.045-.18-.024c.045-.074.06-.14.03-.18s-.1-.045-.181-.024c.045-.075.06-.14.03-.18s-.1-.045-.181-.024a.188.188,0,0,0,.036-.165l7.5-.468q.367,1.217.761,2.5l-.888,2.118a.08.08,0,0,0,0,.056l.041.129h0l3.357,10.317a.08.08,0,0,0,.042.047.075.075,0,0,0,.036.009.086.086,0,0,0,.028-.005l.032-.011.182.224a.081.081,0,0,0,.055.03l1.3.131q1.046,3.124,2.187,6.384v1.516a.02.02,0,0,0,.011.018l.5.258-1.154,20.437-5.686,14.807-.029.058h-.26l-.9.312,0,0-.006.006a.013.013,0,0,0,0,.007s0,0,0,0v.284a.02.02,0,0,0,.02.021h2.171a.02.02,0,0,0,.013,0l.285-.231a.02.02,0,0,0,.007-.016v-.21a.02.02,0,0,0-.012-.018l-.325-.156-.009,0h-.132l3.115-3.795-.52,3.265h-.225l-.007,0-.9.312a.019.019,0,0,0,.007.038v.246a.02.02,0,0,0-.021.021.021.021,0,0,0,.021.02h2.171a.02.02,0,0,0,.013,0l.284-.23a.019.019,0,0,0,.008-.016v-.21a.021.021,0,0,0-.011-.019l-.326-.156-.009,0h-.26l5.02-7.319,5.494,7.839-.615.214a.021.021,0,0,0-.013.026.019.019,0,0,0,.019.012v.246a.02.02,0,0,0,0,.04h2.171a.02.02,0,0,0,.013,0l.285-.23a.02.02,0,0,0,.007-.016v-.17h1.92a.019.019,0,0,0,.013,0l.285-.23a.019.019,0,0,0,.008-.016v-.21a.021.021,0,0,0-.011-.019l-.326-.156-.009,0h-.512l-3.371-8.959a.157.157,0,0,0-.085-.228l-1.843-4.9-.84-20.257h0l.475-.38.1-.664-.054-.855,2.2-6.973.135-.013.008-.091.007,0,.02,0,1.355-.352a.081.081,0,0,0,.057-.054l3.419-10.826a.081.081,0,0,0-.1-.1l-.08.024.038-.116v-.006a.1.1,0,0,0,0-.021.121.121,0,0,0,0-.012.072.072,0,0,0-.008-.021.076.076,0,0,0,0-.009l0,0v0l-.648-.933.045-.2-.149-.1,1.213-3.732,8.962-.559a.09.09,0,0,0-.008.062c.014.047.076.075.162.082-.067.055-.1.112-.088.159s.075.075.163.082c-.068.056-.1.113-.089.16s.076.074.163.082c-.067.055-.1.112-.088.159s.076.075.163.082c-.067.056-.1.113-.088.16s.076.075.163.082c-.067.056-.1.112-.088.159s.076.075.163.082c-.067.056-.1.112-.088.159s.075.074.162.082c-.067.056-.1.112-.088.159s.076.075.162.082c-.067.056-.1.112-.088.159s.075.074.163.082c-.067.056-.1.112-.088.159s.076.075.162.082c-.067.055-.1.112-.088.16s.076.074.162.082c-.067.056-.1.112-.088.159s.071.072.152.081a11.885,11.885,0,0,0-.127,1.51,1.238,1.238,0,0,0,.262.793,1.725,1.725,0,0,1,.317.753,1.872,1.872,0,0,1,.02.729c-.027.162-.019.237.175.327a.2.2,0,0,0,.084.02.149.149,0,0,0,.081-.023c.132-.083.141-.335.149-.948,0-.394.011-.883.07-1.419.1-.956.231-1.678.3-2.02a1.115,1.115,0,0,0,.243-.047C198.1,24.475,198.277,24.332,198.247,24.234Zm-4.223-2.324-.215-.206.284-.017.135.033-.148.187Zm-1.934.121-.88-.167,2.056-.127-.742.266Zm-1.482.092-.2-.209.307-.019.1.019-.161.206Zm-1.6.1-.913-.167,1.885-.116-.581.259Zm-1.674.1-.19-.213.421-.026-.186.236Zm-3.7,12.6-.12-.02,1.068-3.251.091-.019Zm-1.46.659h.177l.034-.133.336-.028-.959,2.908-.44-.071Zm-.539-1.119.1-.326.071.071-.071.285Zm.641-1.984.173-.641.142-.071-.244.712Zm1.024-.478.19.041.038-.167.389-.082-.992,3.009-.51-.087Zm.129-.434.113-.356.537.09-.1.313-.409.087.019-.08Zm.55-4.7.237-.123-.207.62-.18-.027Zm-.075.811-.088.264-.066-.287Zm.214-1.25.178-.562.2.046-.13.388Zm.946-2.221-.466,1.395-.2-.047.669-2.11Zm-1.648,4.548v.386l-.539,1.71h-.1Zm-1.147,6.406.1-.291.509.088-.1.295-.348.029.017-.066Zm-1.044,3.405.048-.151.869.139-.006.019h-.911Zm.969-.168-.268-.043.972-2.95.287-.024Zm.76-3.16.083-.253.264.045-.06.183Zm.509-.179.122.021-.034.109-.134.011Zm-.111-.184-.264-.045,1.014-3.076.3-.063Zm.809-3.3.082-.247.26.044-.046.14Zm.393-.359-.261-.044,1.008-3.056.3-.092Zm-.423-.071-.538-.09.847-2.649.19.054.046-.168a.079.079,0,0,0,.045,0l.39-.119Zm.592-3.023.015-.055-.2-.081.17-.427.58.083-.113.344Zm-3.119,3.716h-.339l-.383.985a.145.145,0,0,0-.024.025L176,40.263l-.613.03-5.159-6.923-3.124-9.536,7.74-.483c.167,1.1.493,3.344.543,4.491.053,1.185.092,1.243.27,1.321a.336.336,0,0,1,.131.093c.067.074.131.135.189.19a.6.6,0,0,1,.264.47c.006.222.062.353.174.4a.228.228,0,0,0,.088.017.823.823,0,0,0,.481-.278,2.614,2.614,0,0,0,.466-1.646c.022-.252.044-.513.083-.753.119-.737.212-1.643.236-1.886l.034-.006a.841.841,0,0,0,.406-.072c.247-.1.415-.258.377-.353-.019-.045-.081-.067-.169-.068.062-.062.092-.122.074-.167s-.082-.068-.169-.068c.063-.061.092-.121.074-.167s-.082-.067-.169-.068c.062-.061.092-.121.073-.167s-.081-.067-.168-.068c.062-.061.092-.121.074-.167s-.082-.067-.169-.068c.062-.061.092-.121.074-.166s-.082-.068-.169-.068c.062-.061.092-.121.074-.167s-.082-.067-.169-.068c.062-.061.092-.121.074-.167s-.082-.068-.169-.068c.062-.061.092-.121.074-.166s-.082-.068-.169-.068c.063-.061.093-.121.074-.167a.1.1,0,0,0-.062-.053l6.843-.427Zm1.342,47.71-2.1-4.431.171-.685Zm-15.9-47.084.1-.034.966,3-.1.032Zm-1.213-3.727c.107-.038.339-.113.606-.2l-.379.372a.082.082,0,0,0-.02.083l.964,2.988-.105.032Zm-2.494-4.921-.115-.17.25.038-.1.13Zm-1.924.12-.607-.116.082-.1,1.333-.082-.509.278Zm-.958.06-.124-.142.249.048-.077.092Zm-2.066.129-.437-.116a.087.087,0,0,0-.014-.051c-.029-.04-.1-.045-.181-.024,0-.007.007-.014.011-.02l1.5-.093-.575.284Zm-.773,1.016c.028.04.1.045.18.024-.045.075-.06.14-.03.18s.1.045.181.023c-.045.075-.059.14-.03.18s.1.045.181.024c-.045.074-.059.14-.03.18s.1.045.181.024c-.045.075-.059.14-.03.18s.1.045.18.024c-.045.075-.059.14-.03.18s.1.045.181.024c-.045.075-.059.14-.03.18s.1.045.18.024a.336.336,0,0,0-.036.079l-.33.019h-.028l-.043,0c.042-.072.055-.135.026-.173s-.1-.045-.18-.024c.045-.075.059-.14.03-.18s-.1-.045-.18-.024c.045-.075.059-.14.03-.179s-.1-.046-.181-.024c.045-.075.06-.14.03-.18s-.1-.045-.18-.023c.045-.075.059-.14.03-.18s-.1-.045-.18-.024c.045-.075.059-.14.03-.18s-.1-.045-.181-.024c.045-.075.059-.14.03-.18s-.1-.045-.181-.024c.045-.075.059-.14.03-.18s-.1-.045-.181-.023c.045-.075.06-.14.03-.18s-.1-.045-.18-.024c.045-.075.059-.14.03-.18a.077.077,0,0,0-.027-.022l.246-.015a.1.1,0,0,0,.012.084c.029.04.1.045.181.024-.045.075-.06.14-.03.18s.1.045.18.024c-.045.075-.06.14-.03.18s.1.045.181.024C157.6,25.045,157.591,25.11,157.62,25.149Zm-1.274-3.144.08.081-.115-.034.019-.047Zm2.3-.136.73.211-.092.122-2.014.127c.2-.1.562-.278.881-.431Zm1.13-.067.283.35-.479-.139.158-.209ZM161.6,21.7l.872.247-.047.062-1.815.114.716-.407Zm1.312-.077.291.337-.194.012-.331-.094.193-.254Zm1.749-.1.392.074c.024.081.049.164.073.246l-1.167.073.412-.376Zm3.667-.216,1.053.225-.041.045-2.122.134.769-.383Zm1.572-.093.293.309-.21.013-.367-.079.222-.24ZM173.428,21l.015.019-.073-.005L173.38,21Zm4.964-.293.823.171-.063.073-2.5.158-.014-.016c.01-.008.017-.016.017-.024a.022.022,0,0,0-.01-.016c.351-.1.8-.215,1.2-.314Zm1.257-.074.294.268h-.011l-.49-.1.14-.163Zm2.559-.151.782.188-.036.041-2.135.135.989-.341Zm1.243-.073.288.253-.208.013-.316-.076.164-.185Zm7.26-.428.191.213-.072.021-.385.024.216-.255Zm2.176-.129.522.2-2,.125,1.078-.3Zm1.052-.062.125.151-.134.078-.213.013.183-.24ZM178.178,45.633h-.143l.143-.254Zm.175,32.495.37-1.459,1.38,1.7-1.458.181Zm-7.235-.4.636-4,.377.021-.973,3.928Zm2.4-19.619.144-.092.18.73v.036l-.323-.191Zm-3.726-19.434-.9-2.816.636.073q.411,1.254.837,2.537ZM168.736,35.4l.552-.181.176.539-.636-.072Zm-2.456-6.47.228.049a.067.067,0,0,0,0,.024l.917,2.856-.265.08L166.214,29Zm-10.843-5.113V23.4q.041-.069.082-.151c.014-.03.028-.06.04-.089,0,.021.009.037.022.043s.074-.02.127-.084a.374.374,0,0,0-.01.1l-.246.6Zm3.586-1.282-.846,1.112-.05,0-.186-.191.96-.994.059,0Zm-1.168.837-.61-.624v-.178l1.474-.093Zm-1.3.646,0-.026.061,0Zm.693-.314v-.083l.077.079Zm-.488.03-.143.009-.047-.06.021-.511a.172.172,0,0,0,.009-.017c.023-.047.041-.092.059-.136l.1.1ZM156.7,22.9c.033-.117.038-.2,0-.219s-.056.009-.1.049l0-.11.146-.009v.348Zm-.7.5s0,.007.008.009c.02.01.052-.007.088-.042l-.017.414-.075,0Zm.943.573.286-.018a.724.724,0,0,0-.208.264h-.027l-.157-.2Zm.546-.278-.239-.243v-.524l.525.538-.218.226Zm-.627-1.34-.008-.009.024.008Zm-.16.01-.487.031-.029-.03.082-.2.342.1Zm-.946,1.048,0,.389-.169.011Zm.251.618.062,0-.01.236-.039.019h-.01v0Zm.615.213a.2.2,0,0,0,.03-.131l.071-.034.121.151Zm1.294-.1a.081.081,0,0,0,.007-.013l.023.007Zm-.179-.466.123-.127.11.113Zm1.372-1.046.793.913-1.561.1Zm.947.9-.872-1,.065-.085,1-.064.792.978-.1.118Zm.672.2-.051.062-.231-.044Zm1.454-1.418-.866,1.137-.037,0-.079-.1.912-1.1.032,0Zm-1.061.945-.722-.891,1.545-.1Zm-1.676-1.076.057-.075.2.058Zm1.675,1.268.008.011h-.018Zm1.134-1.031.632.933-1.409.087Zm.773.924-.694-1.027.058-.076.958-.061.075.021.633.735-.279.361Zm.552.211-.013.017-.075-.012Zm-.993-1.571.012-.016.044.012Zm2.724-1.327.043-.309.157.475-.15.076Zm-.156-.455-.454-1.751.568,1.54Zm31,1.4a.091.091,0,0,0-.043-.048l.342-.021a.1.1,0,0,0-.012.063l-.3.09A.1.1,0,0,0,196.147,21.611Zm-.563-.26.086-.13c.213-.02.372-.064.369-.106,0-.023-.053-.042-.134-.054.08-.02.129-.044.128-.067s-.053-.042-.134-.054c.08-.02.129-.044.128-.067s-.036-.035-.092-.047l.016-.024c.044-.016.071-.033.069-.05s-.009-.016-.021-.023l.129-.193.009.018c-.021.011-.033.023-.032.034s.028.031.073.042l.013.025c-.051.017-.08.036-.079.054s.052.042.134.054c-.08.02-.129.044-.128.067s.053.042.134.054c-.08.021-.129.044-.128.068s.052.042.134.054c-.079.02-.129.043-.127.067s.052.042.134.054c-.08.02-.129.044-.127.067,0,.042.162.069.374.067l.017.032Zm.635-.95,0,0h.006Zm-.077-.1-.024-.046a.2.2,0,0,0,.045.015Zm-.711,1.063-.03,0-.111-.134a2.013,2.013,0,0,0,.227,0Zm-.253-.267.027,0-.019.006Zm.768-.5c-.019,0-.04-.009-.066-.013a.431.431,0,0,0,.1-.035Zm.029-.346a.348.348,0,0,0-.113-.03.577.577,0,0,0,.083-.027Zm.03.26c-.009-.021-.057-.037-.13-.047.08-.02.129-.044.128-.068s-.053-.042-.134-.054c.069-.017.114-.038.124-.058l.073.138Zm-.818.231-.033.009.01-.013Zm-.1.094a.385.385,0,0,0,.106.027c-.08.02-.129.044-.128.067s.052.042.134.054a.484.484,0,0,0-.092.031l-.082-.1Zm-.009.337h0c0,.008.009.015.02.022l.152.184-.621.038.318-.4Zm1.025-1.039a.338.338,0,0,0,.11.03.272.272,0,0,0-.12.051l-.041-.078Zm-1.076.068h0c0,.023.052.042.134.054-.079.02-.129.044-.127.067s.052.042.134.054c-.08.02-.129.044-.128.067s.053.042.134.054c-.079.021-.129.044-.127.067s.025.03.066.04l-.048.061a.05.05,0,0,0-.006.007l-.114.145-.482-.582Zm-.16.715-.4.51-.894.055-.55-.527.5-.659.79-.05Zm-1.935-.047-.526-.5.955-.061Zm-.654.691-.543-.609.449-.572.057,0,.616.591-.446.585Zm-.625-.7-.377-.422.745-.047Zm-1.465.831-.513-.537.55-.649.9-.056.455.51-.533.68Zm-.6-.626-.468-.49.935-.059Zm-.646.7c-.2-.209-.37-.393-.525-.555l.493-.625.05,0,.548.575-.513.6Zm-.61-.644c-.18-.187-.329-.341-.456-.471l.871-.055Zm-2.445.832h-.081v-.183c.087-.108.177-.218.269-.33l-.156.511Zm.247-.782-.329.4V20.99l.214.046Zm-.043-.233v-.156h.183l-.082.27Zm-1.341,1.085-.349.021.452-.4.014.012Zm1.793-.394.239.269-.33.02Zm.395.26-.352-.4.243-.777.885-.056c.166.169.353.362.542.558l-.487.618Zm-1.988-.487-.1.085-.684-.6.966-.061ZM184,20.889l.764.672-.558.49-1.1.067-.648-.661.44-.5Zm-.457,1.675-.211-.215.054,0,.4.073-.161.14Zm-1.97.123-.987-.169,2.033-.125-.632.268Zm-1.57.1-.227-.217.278-.017.192.033-.176.2Zm-1.844.115-.608-.132a.077.077,0,0,0,0-.009.1.1,0,0,0-.057-.05l1.741-.107-.692.275Zm-4.519.282c-.051-.05-.125-.121-.232-.222h.013l.4.084-.1.134Zm-2.176.136-.861-.136.039-.052,1.989-.122-.721.283Zm-1.23.077-.195-.178.344.054-.092.121Zm-2.223.139-.795-.107.062-.09,1.786-.11-.606.278Zm9.968,35.5-.025.015-.18-.565,0-.181.21.127Zm2.746,19.31-.135-.5,0-.182.161.684Zm-.312-1.152-.932-3.449.111-.007.056.159a.2.2,0,0,0,.076.1l.683,2.907Zm-7.49-8a.02.02,0,0,0,0-.019l-.382-.762.031-.078.81.031L172.93,69.5l-.088-.172Zm.647.46.191.074,1.608,2.668-.11.186H174.5l-1.119-2.186Zm2.12,3.274.064.107v.185h-.073Zm.327-.246-.174-.289,1.741-2.971.293-.06.2.753-1.291,2.582Zm1.558-4.157-.393.594a.019.019,0,0,0,0,.015c.009.052.017.094.025.131l-1.6,2.731-1.433-2.376.064-.24a.02.02,0,0,0,0-.015l-.471-.846.054-.136Zm-3.5,4.1-.019.627-1.383.031.567-2.289Zm1.6,1,0-.081h.083v.117h-.006A.162.162,0,0,0,175.667,73.623Zm1.645-.9a.019.019,0,0,0-.019-.02h-.056l1-2,.679,2.514h-1.589Zm-.23-4.629-2.7-.1-.027-.043,1.482-.829,1.241.712Zm-2.944-.394-.24-.168.059-1.493,1.555.892Zm-1.892,5.592-.384.009,1.02-2.575Zm5.091.249h.206l-.205.013Zm2-.326-.241-.891.312.891Zm-.612-4.651.028.146-.221.49-.058.116-.271-.772Zm-1.149-1.325-.387.279-1.018-.584,1.379-.773Zm-1.735-.494-1.871-1.073.064-1.624,1.492-.977,1.98,1.264.036,1.459Zm1.239-5.082-1.557,1.02-1.061-.678v-.535l1.638-.96.98.582Zm-2.79-.469-.139-.122.067-1.68,1.562.929Zm-.191,1.2.234-.086.892.569-1.175.769Zm1.725.48,1.419-.93.207.136.045,1.862Zm1.594-2.119-.174.055-.823-.49.973-.571Zm-1-13.628H176.3l.125-.045Zm-1.458-.488-.039-.431,1.055-3.065.843,2.345-.211,1.152ZM177.8,52.9l-.134-.471.134.086Zm-4.3-10.842v0l1.249-.06.049.413a.02.02,0,0,0,.02.018h.034l-.823,2.453-.872-2.634Zm1.826,5.076h-.165l-.16-.049-.01-.113h.79Zm-.5-1.631.444-3.076h.385v.6a.02.02,0,0,0,.007.015.021.021,0,0,0,.008,0Zm.21-2.589-.411,2.842-.013-.005h-.291l-.118-.355Zm1.705,6.852-1.71.044v-.161l1.71-.045Zm-1.71.377,1.337-.038-.851.559-.486-.312Zm1.957-.056.17,0,.041,1.66-1.381-.887Zm.577-.009h.371l-.346,1.021Zm-1.821-2.265h-.387v-.343l.026-.009h.886Zm-1.012-5.98-1.254.06-.021-.089a.022.022,0,0,0-.014-.015l-.477-.133-.07-.211,1.783-.066Zm1.075,7.185,0,0h.93v.259l-1.416.038Zm-1.239,1.534h.174l.477.307-.682.448Zm.952.5,1.688,1.084.032,1.306-1.005.681-1.763-1.149.05-1.267Zm.422,3.269-1.387.94-.169-.092.071-1.817Zm-1.249,1.239,1.545-1.046.653.426v.635l-1.457.93-.74-.451Zm2.386.281.221.05.043,1.777-1.6-.975Zm.189-1.27-.213.086-.524-.342.719-.487Zm.812-2.433-.16.067-.3-.19.4-1.187Zm-.948-3.16h-.349V48.41l.331-.2Zm-.739-.705h-.41V48.04l.8-.538h.3l.009.008.007.318Zm-.122-5.282.2-.019.262,1.3Zm-1.689-2.428.077.653-1.816.067-1.9-5.755Zm-6.2-18.686.361.33-.784.847-.063,0-.251-.258.635-.917Zm.45.413.728.666-1.425.088Zm-1.1.778-.288.017.127-.183Zm-.443.028-.425.026-.369-1.126.185-.011.8.829Zm-1.408-1.061v.384l-.071.183-.146-.553ZM168.377,32.4l-.65-.137-.092-.288.554-.167Q168.281,32.1,168.377,32.4Zm-1.413-9-.012-.037.17-.01-.043.062Zm3.414-.248.1-.006-.015.02Zm1.438-1.489.47.433-.627.732-.056,0L171.2,22.4l.562-.739Zm.56.516.616.567-1.164.072Zm-.932.663-.607.037.286-.376Zm2.431.1.03,0-.006.007Zm.19-.012.71-.043c.01.062.022.14.036.233l-.077.005-.705-.15Zm4.16-1.666.366.35-.718.837-.05,0-.275-.315.627-.872Zm3.639-.23.428.438-.659.748-.068,0-.454-.414.691-.771Zm.514.526.567.579-1.139.07Zm-.983.675-.7.043.337-.376Zm-2.716-.536.69.661-1.327.082Zm-1.011.765-.28.017a.324.324,0,0,0-.077-.013l.163-.226Zm-2.693.646c-.014-.092-.026-.171-.036-.233l.35-.022a.092.092,0,0,0,0,.056c.018.045.082.067.169.068l-.022.024-.276.095Zm-.169-1.115.051.009a.537.537,0,0,0-.079.026Zm.412.505h.016c.266-.014.479-.065.477-.114,0-.024-.053-.042-.135-.054.08-.02.129-.044.128-.068s-.052-.042-.134-.054c.08-.02.129-.044.128-.068s-.053-.042-.134-.054c.08-.02.129-.044.127-.067s-.043-.038-.11-.05l.009-.013a.248.248,0,0,0,.083-.038l.119.14c-.028.013-.045.026-.044.039s.048.04.121.051l0,.005c-.074.02-.12.043-.118.065s.052.042.133.054c-.079.021-.129.044-.127.068s.053.042.134.054c-.08.02-.129.044-.127.067s.026.03.067.04a1.192,1.192,0,0,0-.169.054c-.026.01-.05.022-.074.033l-.456.028Zm.616-.578-.016-.019.051.009Zm-.037-.264a.565.565,0,0,0,.06.012.453.453,0,0,0-.089.03Zm-.062.089a.219.219,0,0,0,.128.043.367.367,0,0,0-.106.041l-.044-.052Zm.447.81v-.006a.069.069,0,0,0-.014-.019h.021l.02.024Zm-.387-1.138.016,0-.013.019c-.052.017-.083.036-.082.055s.011.018.026.026l-.082.12a.228.228,0,0,0-.09-.03l-.01-.012c.066-.019.106-.04.1-.061s-.052-.042-.134-.054a.229.229,0,0,0,.122-.056Zm-1.059.665a.23.23,0,0,0,.127.042c-.08.021-.129.044-.128.067s.052.042.134.054c-.08.02-.129.044-.127.067s.052.042.134.054a.328.328,0,0,0-.112.045l-.149-.177Zm.331.42-.088.127-.032,0-.13-.155A1.152,1.152,0,0,0,175.067,22.491Zm1.527.273a.276.276,0,0,0-.018.027l-.021-.024Zm.135.19-.008.008-.008-.009Zm.422-.485c-.028.006-.058.013-.089.021l-.7.043-.019-.023c.223-.019.39-.064.388-.108,0-.024-.053-.042-.135-.054.08-.021.129-.044.129-.067s-.053-.042-.135-.054c.08-.02.129-.044.128-.067s-.052-.042-.134-.054c.079-.02.129-.044.127-.068s-.052-.042-.134-.054c.079-.02.129-.044.128-.067s-.053-.042-.134-.054c.08-.02.129-.044.128-.067s-.053-.042-.135-.054c.08-.02.129-.044.129-.067s-.053-.042-.135-.054c.08-.02.129-.044.127-.067s-.052-.043-.134-.054c.08-.02.129-.044.128-.067s-.053-.042-.135-.054a.475.475,0,0,0,.075-.024l.087-.005.686.787Zm-2.436-1a.313.313,0,0,0,.116.033c-.08.021-.129.044-.127.067s.052.043.134.054c-.08.02-.129.044-.127.067s.049.041.126.052l0,0c-.073.019-.117.042-.116.064s.015.023.039.032l-.22.279-.513-.61Zm-.178.848.259.308-.528.033Zm1.834.69v0c-.018-.045-.082-.067-.169-.068a.27.27,0,0,0,.072-.105l.139-.048.178.211Zm7.524-.7h.008l0,0Zm-1.523-.945-.349-.356.7-.044Zm-1.353.347-.656-.6,1.263-.08Zm-.825-.588.744.679-.421.47-.984.06-.776-.743.341-.4Zm-.873-.189.03-.035.12.025Zm-.651.571-.28-.268.539-.034Zm-1.206.523-.606-.694,1.158-.073Zm-2.775-.816a.033.033,0,0,0,.012.013l-.873.055-.107-.127Zm-1.012.078-.58.037.173-.2.282.018Zm.195.232.586.7c-.141.177-.255.323-.352.446l-.946.058c-.177-.165-.406-.376-.7-.651l.42-.49Zm-1.506.47-.381-.351.721-.046Zm-1.254.313-.545-.574,1.031-.066Zm-.7-.564.629.662-.361.475-.939.058-.814-.745.35-.379Zm-.9-.189,0,0,.012,0Zm-.681.556-.274-.251.538-.034Zm-1.267.593-.715-.736,1.281-.081Zm-2.345-.54-.1-.088.068,0Zm-.733,1.1-.276-.321.657-.848.088-.006.281.259-.708.913Zm-.357-.415-.531-.617.068-.062,1.04-.066Zm.005.193.2.232-.4.024Zm1.172-.585q.111.368.223.743l-.838.051Zm2.832,9.192-.554.167-.9-2.794.67.144Q167.738,30.386,168.139,31.649Zm-.661.37.065.2-.124-.026a.079.079,0,0,0-.042,0l-.121.038-.044-.137Zm-.071.34.193.041.932,2.9-.259.085-.966-3Zm.376.079.65.136q.393,1.23.8,2.5l-.551.181Zm6.88,15.707.329-.039v.207l-.345.232Zm.556.408h.574v.086l-1.113.689-.063,0,.015-.383Zm-1.01.788-.17.005.175-.117Zm-.013.326,0,.09-.115-.086Zm-.524.107.5.378-.056,1.424-.059.039-.4-1.712Zm.205,2.488.086.375-.126-.082Zm.455,4.274.3-.144.5.3-.823.525Zm1.106.348,1.916,1.166.032,1.329-1.284.753-1.869-1.111.056-1.405Zm-1.805,7.039h0l-.616-2.53.015-.261.77-1.461Zm-.29.19L173,64.34l-.141-.082.1-1.748Zm-.21.527.292-.191.141.579-.148.329-.285-.163Zm.34,3.319-.826-.032,0-.062.906-2.021Zm-.984,1.578.24.47-.64,1.614.333-2.094Zm-1.968,4.13.72.039-.619,1.211-.146-1.13Zm.665,1.04-.326,2.049-.146-1.127Zm4.46-.438.009-.282a.176.176,0,0,0,.022,0h.011l.064,0v.357l-.026.038Zm1.715.081-.015-.468,1.718-.112.116.433-.462,1.818Zm1.907.173.878,3.252-1.3-1.6Zm3.485,8.315-.009,0h-.529l-.617-2.63,1.871,2.3-.636.222a.02.02,0,0,0-.013.026.019.019,0,0,0,.019.012v.113ZM181.387,79.3l-.168-.715.882.135,1.651,3.489Zm.631-.758-.621-.095.521-.116Zm-.858-.208-.537-2.285.075-.3,1.149,2.429Zm-.618-2.631-.131-.556.176.372Zm-.365-2,.554-.036.193.513-.18.721Zm-1.514-3.844.095-.19h.175l.385,2.06Zm.082-1.694-.706-.027a.183.183,0,0,0-.034-.025l-.053-2.169.019-.011.773,2.227Zm-.82-3.358,0-.183,0-.015.349.223.031.543-.153.085Zm.668-.307-.151.052-.416-.266c.122-.381.311-.941.5-1.485Zm-.107-2.591c-.26.747-.451,1.3-.589,1.711l-.1-3.971.681,2.133Zm-.157-3.8-.149.065-.364-.221.459-1.138Zm-.086-2.083-.5,1.239-.09-3.7.572,2.008Zm-.727-8.067.037-.022.147.137h.121l-.289.518Zm-.451-2.87-.366-1.819.7,1.819Zm-2.251-4.766L170.6,34.5l-.053-.162L175,40.312ZM167.136,23.54l.245.033-.28.017Zm2.265-.333.414-.026h0l.244.224-1.267.079Zm1.117.086.384.061-.451.028Zm2.51-.309.212-.013.24.222-1.172.073Zm.917.088.335.071-.411.025Zm1.534.241a.09.09,0,0,0,0,.058c.019.045.082.067.169.067-.062.061-.093.121-.074.167s.082.067.169.068c-.062.061-.093.121-.074.167s.081.067.168.068c-.062.06-.092.121-.074.166s.082.067.169.068c-.062.061-.092.121-.074.166s.082.067.169.068c-.062.061-.092.121-.074.167s.081.067.169.068c-.062.061-.092.121-.074.167s.082.067.169.068c-.062.061-.092.121-.074.166s.082.068.169.068c-.062.061-.092.121-.074.167s.082.068.169.068c-.062.061-.092.121-.073.167s.081.067.168.068c-.062.06-.092.121-.074.166.039.1.269.091.516-.009a1.16,1.16,0,0,0,.193-.1l.488.062a.082.082,0,0,0-.006.024c0,.011-.1,1.087-.24,1.937-.04.247-.063.51-.084.765a2.542,2.542,0,0,1-.415,1.54c-.272.253-.372.24-.4.23-.043-.018-.071-.113-.074-.253a.749.749,0,0,0-.315-.584c-.055-.053-.117-.11-.181-.181a.493.493,0,0,0-.186-.133c-.082-.036-.123-.054-.173-1.18-.051-1.149-.375-3.388-.543-4.493Zm1.816,2.15a.12.12,0,0,0,.026-.108c-.019-.045-.082-.067-.17-.068.063-.061.093-.121.075-.167s-.082-.067-.169-.068c.062-.061.092-.121.073-.167s-.081-.067-.168-.068c.062-.061.092-.121.073-.167s-.082-.067-.169-.068c.062-.061.092-.121.074-.166s-.082-.068-.169-.068c.062-.062.092-.121.074-.167s-.082-.068-.169-.068c.062-.061.092-.121.074-.167s-.081-.067-.169-.068c.063-.061.093-.121.074-.167s-.081-.068-.169-.068c.063-.061.092-.121.074-.166s-.082-.068-.169-.068c.059-.058.088-.114.075-.159l.318-.02a.132.132,0,0,0-.036.124c.019.045.082.067.169.068-.062.061-.092.121-.074.167s.082.067.169.068c-.062.061-.092.121-.074.167s.082.067.169.068c-.063.061-.093.121-.074.166s.082.068.169.069c-.062.061-.092.121-.074.167s.082.067.169.068c-.062.061-.092.121-.074.167s.082.068.169.068c-.062.061-.092.121-.074.166s.082.067.169.068c-.062.061-.092.121-.074.167s.082.067.169.068c-.062.061-.093.121-.074.166s.081.068.168.068c-.062.061-.092.121-.073.167a.089.089,0,0,0,.041.041Zm.271-2.525a.344.344,0,0,0-.094-.012.352.352,0,0,0,.037-.04l.2.043Zm2.045-.355.223.214-.9.056Zm.774.026.655.112-.8.05Zm2.6-.238.187-.011.211.215-1.029.065Zm.955.076.382.069-.5.031Zm.118-.1.048-.042.569-.035-.057.179Zm2.32-.182.3-.019-.312.107v-.062Zm1.967-.86c.153.16.3.32.443.467l-.853.052Zm1.254-.063.432.453-.86.053Zm2.063-.2.464.52-.917.056Zm1.287,0,.458.44-.832.051Zm2.627.551a.591.591,0,0,0-.34.238h-.006l-.719-.174Zm.994.1.029,0a.363.363,0,0,0-.055.056l-.224.014Zm-.292-2.041c-.131.022-.216.054-.215.086s.052.042.135.054c-.08.021-.129.044-.128.068,0,.008.009.016.022.023l-.119.007a.121.121,0,0,0-.058-.028l-.016-.03c.047-.017.075-.034.074-.052s-.013-.021-.035-.03l.066-.082Zm-1.263.074a.3.3,0,0,0,.124.036c-.08.02-.129.044-.128.067s.053.042.135.054c-.078.02-.126.043-.127.066L194.27,20l-.019-.023.388-.226Zm-.841.152-.081-.1.277-.016Zm-.576.113-.412-.158.558-.033Zm-2.562.165-.166-.186,1.051-.062Zm-.736.067-.7-.179.892-.052Zm-.322.044-2.2.138,1.055-.316.384-.023C189.356,20.109,189.592,20.17,189.974,20.267Zm-2.4.071c-.069-.067-.126-.121-.172-.164l.895-.052Zm-.132.04-.2.061h-.017l.1-.057-.089-.2h.006C187.286,20.229,187.355,20.3,187.441,20.379ZM185.3,20.3l-.086.269-.978.062.718-.311Zm-1.4.344-.277-.245.976-.058Zm-.821-.077-.454-.109.581-.034Zm-2.722.309-.247.015-.293-.268,1.535-.09Zm-1.053-.1-.446-.093.553-.033Zm-2.668.156a.425.425,0,0,0-.174-.041l-.056-.064.794-.047C176.974,20.834,176.788,20.885,176.638,20.927Zm-.465-.045h-.006c-.266.014-.479.065-.476.114,0,.023.052.042.134.053-.08.021-.129.044-.128.068s.012.018.027.026l-.093,0a.309.309,0,0,0-.118-.034c.08-.02.129-.044.127-.067s-.052-.042-.134-.054c.08-.02.129-.044.128-.068s-.031-.033-.082-.044l.653-.039Zm-1.367.139c-.08.02-.129.044-.128.067l0,0c-.328-.019-.694-.041-1.069-.064l-.032-.039,1.153-.068c-.038.015-.062.031-.061.047S174.724,21.01,174.806,21.022Zm-2.505.043.817.055-.191.223-2.189.138.922-.378Zm-1.944.44h-.01l-.292-.308,1.228-.073Zm-.884-.084-.691-.148.876-.051Zm-3.057.3-.012-.036.04.041Zm-2.657.2-.408.026-.29-.337,1.112-.065Zm-1.212-.082-.58-.164.739-.044Zm-2.219.3-.122.008-.284-.35,1.124-.066Zm-.877-.159-.445-.129.569-.034Zm-2.375.32c-.065-.028-.186-.069-.409-.137L156.506,22l1.317-.078C157.358,22.141,157.159,22.242,157.077,22.3Zm-.884-.28-.01,0h.011Zm-.047.114-.058.14-.219-.223Zm-.108.263,0,.013h-.011a.165.165,0,0,0,0-.033Zm-.279,1.652,0,.14-.185-.129Zm3.829-.236.363-.022.19.036.165.189-1.293.081Zm1.133.125.207.04-.254.015Zm1.791-.305.394-.024.156.023.138.2-1.2.075Zm1.1.083.442.067-.519.032Zm1.021.03L163.7,23.6l.037-.047,1.734-.107-.455.272Zm2.415,4.44-.011,0,.009-.009Zm.049.155q.1.323.2.649l-.882-.191.365-.359Zm-.147,3.837.1-.032.045.139-.1.033Zm1.127,3.444.089-.029.061.189-.076.019Zm.243-.08.259-.085.07.219h-.008l-.256.065Zm.347.3.036,0,.928,2.891-.252.092-.944-2.928Zm1.738,2.788.1.292-.777-.046Zm3.851,9.47-.029.731-.324.217.344-.952Zm-.5,3.664-.2-.08.035-.615Zm-.27,1.228.244-.109.241.157-.559,1.274Zm-.127,2.251.673-1.534-.149,3.784-.022.014-.512-2.077Zm.212,2.449-.19.121-.162-.094.067-1.182Zm-.426,1.352.258-.129.325.193-.657,1.248Zm-.368,6.517.185-.084.319.183-.583,1.3Zm-1.372,7.757-.758.017,1.289-3.357Zm-1.056.793.139,1.067-.993,1.94.294-1.547Zm-1.117,3.522-.334.654-.144-.019.708-1.843Zm.082.733,1.266-2.475.186,1.439-.164,1.03-.153.187Zm1.016.326L167.2,82.508l2.045-4Zm2.582-.208-1.555.074.019-.079,1.555-.025Zm-1.6.239,1.48-.07-2.29,3.339Zm1.728-.432-1.628.026.11-.442,1.26-1.535.418,1.716Zm-1.29-1.334.6-2.407.316,1.3Zm.681-2.748.105-.426,1.486.081-.01.336L172.8,75.681Zm3.685.317h.85l1.62,1.992-.366,1.441-2.253-3.215Zm4.1,4,.184.227,1.02,3.776L178.752,78.7Zm-.213-5.3-.546-2.92,1.1,2.92Zm-1.751-7.451.178-.1.209.142.05,1.218Zm-.207-6.4.054-.032.277.121.045,1.09Zm-.12-6,.011-.007.189.039.033.783Zm-.132-3.953-.255-.155v-.021l.385-.692.036.869Zm-.21-4.716-.765-2,.108-.81,1.557-.075Zm1.016-3.254-.064.206-1.587.077.058-.433,1.271-.047,0,.007Zm.149-.57-.339.1-.053.112-1.329.049.011-.081,3.251-4.916Zm1.919-5.9-3.9,5.9h-.561l.033-.378,4.786-7.3.191.09Zm5.692-12.587.651-.224.162.182-.813.051Zm1.339-.271.8.146-.959.06Zm2.563-.164.179.188-.7.043Zm.685-.005.642.122-.775.049Zm2.7-.213.2.193-.9.056Zm.7.024.455.11-.569.036Zm2.606,2.528s0-.005,0-.008c-.015-.047-.076-.075-.163-.082.068-.056.1-.113.088-.159s-.075-.075-.162-.083c.067-.055.1-.112.088-.159s-.075-.074-.162-.082c.067-.056.1-.112.088-.159s-.075-.075-.162-.082c.067-.056.1-.112.088-.159s-.075-.074-.162-.082c.068-.056.1-.113.088-.159s-.076-.075-.163-.082c.067-.056.1-.113.088-.159s-.076-.075-.163-.082c.067-.056.1-.113.088-.159s-.075-.075-.162-.083c.067-.055.1-.112.088-.159s-.076-.075-.163-.082c.068-.056.1-.113.088-.159s-.051-.062-.11-.075l.432-.027a.119.119,0,0,0-.034.106c.014.047.075.074.162.082-.067.056-.1.112-.088.159s.076.074.162.082c-.067.055-.1.112-.088.159s.075.075.163.082c-.068.056-.1.113-.088.159s.075.075.163.083c-.067.055-.1.112-.088.159s.075.074.163.082c-.067.055-.1.113-.088.159s.075.075.163.082c-.067.056-.1.113-.088.16s.076.075.163.082c-.067.055-.1.112-.088.159s.076.075.163.082c-.067.056-.1.113-.088.16s.076.074.163.082c-.067.056-.1.112-.088.16l0,0Zm-10.32-4.952V18.041l.32-.934.472-.564Zm.9-3.913.189.085-.188.66-.435.519Zm.2-.581.12.206,0,.006-.208.047Zm.034.507-.161-.073.194-.043Zm.582-2.256-.1.529-.095-.054Zm-.346,1.17-.071.509-.017.058-.112-.192.129-.375Zm-1.923,5.393.389-1.133V19.9l-.025.088h-.033Zm-18.422,1.69-.771.385-.274.017-.308-.317,0-.005Zm-11.978.706.288.294c-.027,0-.064.03-.106.08h0c.015-.079.012-.134-.015-.147s-.074.021-.127.084c.016-.082.013-.139-.013-.152s-.074.02-.128.084c.017-.081.014-.139-.013-.152s-.066.016-.113.069l-.009-.015c.009-.061.005-.1-.016-.118v-.012Zm2.133,8.562c-.066.255-.17.411-.31.462-.231.085-.528-.125-.666-.223a2.607,2.607,0,0,1-.348-.352,1.874,1.874,0,0,0-.311-.309,1.836,1.836,0,0,1-.51-1.2,4.609,4.609,0,0,0-.474-1.885,30.56,30.56,0,0,1-.693-3.8c.028,0,.069-.028.116-.085-.017.081-.013.139.014.152s.074-.02.127-.084c-.017.082-.014.139.014.152s.074-.02.127-.084c-.017.082-.014.139.013.152s.074-.02.127-.084c-.017.081-.013.138.014.152s.073-.02.127-.084a.221.221,0,0,0,0,.136v.329a.122.122,0,0,0,.122.122h.007l.056,0,.383.266v.078a.117.117,0,0,0,.1.117.129.129,0,0,0,0,.128c.029.039.1.045.18.024-.045.075-.059.14-.03.18s.1.045.181.023c-.045.075-.059.14-.03.18s.1.045.18.024c-.045.075-.059.14-.03.18s.1.045.181.024c-.045.075-.059.14-.03.18s.1.045.181.024c-.045.075-.059.14-.03.18s.1.045.181.023c-.045.075-.06.14-.03.18s.1.045.18.023c-.045.075-.059.141-.03.18s.1.045.181.024c-.045.075-.059.14-.03.18s.1.045.18.024c-.045.075-.059.14-.03.18s.1.045.181.024c-.045.075-.06.14-.03.18s.1.045.18.024c-.045.075-.059.14-.03.18s.1.045.18.024c-.045.075-.059.14-.03.18.062.082.284.021.5-.137a.832.832,0,0,0,.275-.314l.337-.02C158.755,26.944,158.143,29.391,157.826,30.606Zm7.456-6.9.338-.2.054.177Zm1.3,2.96q.2.665.415,1.344a.106.106,0,0,0-.017.011l-.28.275c-.538.169-.792.253-.913.3l-.006-.018Zm1.6,9.3.1-.024.949,2.943-.086.032Zm1.256,3.216-.125-.155.029-.01,1.218.072.072.214Zm4.52,8.763-.217.6.039-.692Zm-5.264,30.485.123.02-.523,1.023Zm4.639-.555-.413-1.694,1.449-1.766h.881l.23.329Zm5.19-33.264v-.458l.112.061S178.524,44.575,178.524,44.606Zm.183-.56s-.112-.03-.127-.071a7.5,7.5,0,0,1,.31-.753Zm.427-1.516-.071-.071.214-.529h.071Zm.427-1.333h-.112l.4-1.241.071.346Zm.754-2.177-.072-.143.072-.356h.1Zm.254-.9h-.112l.158-.559.157-.081Zm.855-3.164h.142l-.611,1.923-.1-.071Zm-.228,3.97.016-.185h.694Zm1.283-.333-.19.049,1.075-3.269.136-.011Zm3.359-10.635-1.106,3.5-.088.019,1.153-3.508Zm-.472-.026.086-.262.259.037-.043.133Zm.28-.4-.876-.125.228-.57.19.041v0Zm11.494-.933c-.059.544-.066,1.038-.071,1.435a2.608,2.608,0,0,1-.067.81.042.042,0,0,1-.015-.005c-.1-.047-.1-.047-.082-.153a2.03,2.03,0,0,0-.021-.785,1.888,1.888,0,0,0-.342-.815,1.075,1.075,0,0,1-.234-.7,11.887,11.887,0,0,1,.13-1.511,1.17,1.17,0,0,0,.2-.043c.254-.078.436-.221.406-.319a.126.126,0,0,0-.1-.071h.4a.1.1,0,0,0-.013.075c.011.036.05.062.107.075C197.366,24.947,197.242,25.663,197.139,26.6Z" transform="translate(-153.491 -4.701)"/>
</svg>
