<svg xmlns="http://www.w3.org/2000/svg" width="53.413" height="95.415" viewBox="0 0 53.413 95.415">
  <g id="Group_23913" data-name="Group 23913" transform="translate(0)">
    <path id="Path_21285" data-name="Path 21285" d="M-1021.635,826.142l-10.007-76.529h-4.468l-10.008,76.529-.545-.072,10.039-76.767a.275.275,0,0,1,.272-.239h4.951a.275.275,0,0,1,.273.239l10.039,76.767-.545.072Z" transform="translate(1060.581 -730.727)"/>
    <path id="Path_21286" data-name="Path 21286" d="M-1014.6,753.769l2.517,1.654,2.517-1.654-2.517-1.842-2.517,1.842Zm-.588,4.353,3.105,2.638,3.106-2.638-3.106-2.041-3.105,2.041Zm-.9,6.766,4.009,2.9,4.009-2.9-4.009-3.407-4.009,3.407Zm-.969,7.186,4.978,5.612,4.979-5.612-4.979-3.6-4.978,3.6Zm-1.9,14.2,6.878,8.018,6.888-8.018-6.883-7.759-6.883,7.759Zm-2.6,19.9,9.486,10.676,9.49-10.641-9.5-11.071-9.48,11.036Zm9.486,11.365h0a.274.274,0,0,1-.205-.093l-9.851-11.086a.276.276,0,0,1,0-.362l9.692-11.282-7.089-8.264a.276.276,0,0,1,0-.362l7.086-7.987-5.224-5.889a.275.275,0,0,1-.068-.212.275.275,0,0,1,.112-.193l5.078-3.676-4.146-3a.277.277,0,0,1-.113-.212.273.273,0,0,1,.1-.22l4.207-3.575-3.317-2.818a.276.276,0,0,1-.1-.226.275.275,0,0,1,.123-.213l3.214-2.112-2.65-1.742a.276.276,0,0,1-.124-.223.275.275,0,0,1,.112-.229l2.7-1.972-2.172-1.591.325-.443,2.313,1.693,2.313-1.693.324.443-2.172,1.591,2.7,1.972a.275.275,0,0,1,.112.229.276.276,0,0,1-.124.223l-2.65,1.742,3.214,2.112a.274.274,0,0,1,.124.213.276.276,0,0,1-.1.226l-3.317,2.818,4.207,3.575a.273.273,0,0,1,.1.22.277.277,0,0,1-.113.212l-4.146,3,5.078,3.676a.275.275,0,0,1,.112.193.273.273,0,0,1-.068.212l-5.224,5.889,7.086,7.987a.276.276,0,0,1,0,.362l-7.1,8.264,9.707,11.318a.275.275,0,0,1,0,.361l-9.855,11.051a.274.274,0,0,1-.205.093Z" transform="translate(1038.783 -731.163)"/>
    <path id="Path_21287" data-name="Path 21287" d="M-948.658,766.262h-5.429v-.549h5.429v.549Z" transform="translate(978.076 -745.565)"/>
    <path id="Path_21288" data-name="Path 21288" d="M-952.615,804.553h-6.53V804h6.53v.549Z" transform="translate(982.585 -779.69)"/>
    <path id="Path_21289" data-name="Path 21289" d="M-957.667,853.9H-965.6v-.549h7.935v.549Z" transform="translate(988.338 -823.67)"/>
    <path id="Path_21290" data-name="Path 21290" d="M-964.213,918.324h-9.755v-.551h9.755v.551Z" transform="translate(995.795 -881.081)"/>
    <path id="Path_21291" data-name="Path 21291" d="M-973.542,1009.963h-12.349v-.549h12.349v.549Z" transform="translate(1006.421 -962.752)"/>
    <path id="Path_21292" data-name="Path 21292" d="M-989.082,1162.592h-16.677v-.55h16.677v.55Z" transform="translate(1024.126 -1098.775)"/>
    <path id="Path_21293" data-name="Path 21293" d="M-953.863,632.806h4.406V619.162h-4.406v13.643Zm4.68.549h-4.955a.275.275,0,0,1-.275-.275V618.887a.275.275,0,0,1,.275-.274h4.955a.275.275,0,0,1,.275.274V633.08a.275.275,0,0,1-.275.275Z" transform="translate(978.367 -614.469)"/>
    <path id="Path_21294" data-name="Path 21294" d="M-953.251,624.442l-.38-.4,4.955-4.73.379.4-4.955,4.732Z" transform="translate(977.67 -615.093)"/>
    <path id="Path_21295" data-name="Path 21295" d="M-948.676,624.442l-4.955-4.732.38-.4,4.955,4.73-.379.4Z" transform="translate(977.67 -615.093)"/>
    <path id="Path_21296" data-name="Path 21296" d="M-953.251,667.922l-.38-.4,4.955-4.73.379.4-4.955,4.73Z" transform="translate(977.67 -653.842)"/>
    <path id="Path_21297" data-name="Path 21297" d="M-948.676,667.922l-4.955-4.73.38-.4,4.955,4.73-.379.4Z" transform="translate(977.67 -653.842)"/>
    <path id="Path_21298" data-name="Path 21298" d="M-953.251,711.4l-.38-.4,4.955-4.732.379.4-4.955,4.731Z" transform="translate(977.67 -692.592)"/>
    <path id="Path_21299" data-name="Path 21299" d="M-948.676,711.4l-4.955-4.731.38-.4L-948.3,711l-.379.4Z" transform="translate(977.67 -692.592)"/>
    <path id="Path_21300" data-name="Path 21300" d="M-908.318,585.143v5.985l12.866-5.79a.271.271,0,0,1,.113-.024h10.113l-2.889-3.456-7.2-.782-13.006,4.067Zm-.275,6.685a.274.274,0,0,1-.149-.045.273.273,0,0,1-.126-.231v-6.613a.275.275,0,0,1,.193-.262l13.254-4.143a.277.277,0,0,1,.112-.012l7.364.8a.273.273,0,0,1,.181.1l3.337,3.991a.275.275,0,0,1,.038.293.275.275,0,0,1-.249.159H-895.28l-13.2,5.94a.272.272,0,0,1-.113.025Z" transform="translate(937.777 -580.522)"/>
    <path id="Path_21301" data-name="Path 21301" d="M-903.025,589.65a.278.278,0,0,1-.186-.072l-4.838-4.435.371-.406,4.378,4.012v-5.322a.275.275,0,0,1,.163-.251.276.276,0,0,1,.3.048l3.939,3.553v-4.725a.275.275,0,0,1,.162-.25.276.276,0,0,1,.295.043l3.561,3.135V580.8a.274.274,0,0,1,.185-.259.273.273,0,0,1,.306.09l3.248,4.161V581.2a.274.274,0,0,1,.182-.259.276.276,0,0,1,.3.084l3.138,3.8V581.6h.55v3.991a.275.275,0,0,1-.182.259.277.277,0,0,1-.3-.084l-3.138-3.8v3.621a.275.275,0,0,1-.185.26.273.273,0,0,1-.306-.091l-3.248-4.16v3.992a.275.275,0,0,1-.161.25.273.273,0,0,1-.295-.044l-3.561-3.133V587.4a.276.276,0,0,1-.163.251.276.276,0,0,1-.3-.048l-3.939-3.553v5.33a.276.276,0,0,1-.164.251.279.279,0,0,1-.111.023Z" transform="translate(937.047 -580.521)"/>
    <path id="Path_21302" data-name="Path 21302" d="M-791.147,632.613h-1.217a.275.275,0,0,1-.275-.275.274.274,0,0,1,.275-.274h1.217a.274.274,0,0,1,.275.274.275.275,0,0,1-.275.275Z" transform="translate(834.194 -626.456)"/>
    <path id="Path_21303" data-name="Path 21303" d="M-791.147,639.143h-1.217a.275.275,0,0,1-.275-.274.275.275,0,0,1,.275-.275h1.217a.275.275,0,0,1,.275.275.275.275,0,0,1-.275.274Z" transform="translate(834.194 -632.276)"/>
    <path id="Path_21304" data-name="Path 21304" d="M-791.147,645.682h-1.217a.275.275,0,0,1-.275-.275.274.274,0,0,1,.275-.274h1.217a.274.274,0,0,1,.275.274.275.275,0,0,1-.275.275Z" transform="translate(834.194 -638.103)"/>
    <path id="Path_21305" data-name="Path 21305" d="M-791.147,652.213h-1.217a.275.275,0,0,1-.275-.275.274.274,0,0,1,.275-.274h1.217a.274.274,0,0,1,.275.274.275.275,0,0,1-.275.275Z" transform="translate(834.194 -643.924)"/>
    <path id="Path_21306" data-name="Path 21306" d="M-791.147,658.742h-1.217a.275.275,0,0,1-.275-.274.275.275,0,0,1,.275-.275h1.217a.275.275,0,0,1,.275.275.275.275,0,0,1-.275.274Z" transform="translate(834.194 -649.742)"/>
    <path id="Path_21307" data-name="Path 21307" d="M-791.147,665.282h-1.217a.275.275,0,0,1-.275-.275.275.275,0,0,1,.275-.274h1.217a.275.275,0,0,1,.275.274.275.275,0,0,1-.275.275Z" transform="translate(834.194 -655.571)"/>
    <path id="Path_21308" data-name="Path 21308" d="M-785.646,630.468a.137.137,0,0,1-.137-.137v-4.37a.137.137,0,0,1,.137-.137.137.137,0,0,1,.137.137v4.37a.137.137,0,0,1-.137.137Z" transform="translate(828.084 -620.894)"/>
    <path id="Path_21309" data-name="Path 21309" d="M-723.462,632.613h-1.216a.275.275,0,0,1-.275-.275.274.274,0,0,1,.275-.274h1.216a.274.274,0,0,1,.275.274.275.275,0,0,1-.275.275Z" transform="translate(773.872 -626.456)"/>
    <path id="Path_21310" data-name="Path 21310" d="M-723.462,639.143h-1.216a.275.275,0,0,1-.275-.274.275.275,0,0,1,.275-.275h1.216a.275.275,0,0,1,.275.275.275.275,0,0,1-.275.274Z" transform="translate(773.872 -632.276)"/>
    <path id="Path_21311" data-name="Path 21311" d="M-723.462,645.682h-1.216a.275.275,0,0,1-.275-.275.274.274,0,0,1,.275-.274h1.216a.274.274,0,0,1,.275.274.275.275,0,0,1-.275.275Z" transform="translate(773.872 -638.103)"/>
    <path id="Path_21312" data-name="Path 21312" d="M-723.462,652.213h-1.216a.275.275,0,0,1-.275-.275.274.274,0,0,1,.275-.274h1.216a.274.274,0,0,1,.275.274.275.275,0,0,1-.275.275Z" transform="translate(773.872 -643.924)"/>
    <path id="Path_21313" data-name="Path 21313" d="M-723.462,658.742h-1.216a.275.275,0,0,1-.275-.274.275.275,0,0,1,.275-.275h1.216a.275.275,0,0,1,.275.275.275.275,0,0,1-.275.274Z" transform="translate(773.872 -649.742)"/>
    <path id="Path_21314" data-name="Path 21314" d="M-723.462,665.282h-1.216a.275.275,0,0,1-.275-.275.275.275,0,0,1,.275-.274h1.216a.275.275,0,0,1,.275.274.275.275,0,0,1-.275.275Z" transform="translate(773.872 -655.571)"/>
    <path id="Path_21315" data-name="Path 21315" d="M-717.962,630.468a.137.137,0,0,1-.137-.137v-4.37a.137.137,0,0,1,.137-.137.137.137,0,0,1,.137.137v4.37a.137.137,0,0,1-.137.137Z" transform="translate(767.764 -620.894)"/>
    <path id="Path_21316" data-name="Path 21316" d="M-1173.725,585.314h10.113a.272.272,0,0,1,.113.024l12.866,5.79v-5.985l-13.006-4.067-7.2.782-2.889,3.456Zm23.366,6.515a.273.273,0,0,1-.113-.025l-13.2-5.94h-10.642a.275.275,0,0,1-.249-.159.274.274,0,0,1,.038-.293l3.336-3.991a.273.273,0,0,1,.181-.1l7.364-.8a.276.276,0,0,1,.111.012l13.254,4.143a.276.276,0,0,1,.193.262v6.613a.273.273,0,0,1-.125.231.274.274,0,0,1-.149.045Z" transform="translate(1174.588 -580.522)"/>
    <path id="Path_21317" data-name="Path 21317" d="M-1127.865,589.65a.281.281,0,0,1-.111-.023.275.275,0,0,1-.164-.251v-5.33l-3.939,3.553a.276.276,0,0,1-.3.048.276.276,0,0,1-.163-.251V582.66l-3.561,3.133a.273.273,0,0,1-.295.044.275.275,0,0,1-.162-.25V581.6l-3.248,4.16a.274.274,0,0,1-.306.091.275.275,0,0,1-.185-.26v-3.621l-3.138,3.8a.277.277,0,0,1-.3.084.275.275,0,0,1-.182-.259V581.6h.55v3.227l3.138-3.8a.277.277,0,0,1,.3-.084.275.275,0,0,1,.182.259v3.586l3.248-4.161a.273.273,0,0,1,.306-.09.274.274,0,0,1,.186.259v4.184l3.561-3.135a.275.275,0,0,1,.295-.043.275.275,0,0,1,.161.25v4.725l3.939-3.553a.275.275,0,0,1,.3-.048.275.275,0,0,1,.163.251v5.322l4.378-4.012.371.406-4.838,4.435a.279.279,0,0,1-.186.072Z" transform="translate(1147.256 -580.521)"/>
    <path id="Path_21318" data-name="Path 21318" d="M-1080.333,632.613h-1.217a.275.275,0,0,1-.274-.275.274.274,0,0,1,.274-.274h1.217a.274.274,0,0,1,.275.274.275.275,0,0,1-.275.275Z" transform="translate(1091.917 -626.456)"/>
    <path id="Path_21319" data-name="Path 21319" d="M-1080.333,639.143h-1.217a.275.275,0,0,1-.274-.274.275.275,0,0,1,.274-.275h1.217a.275.275,0,0,1,.275.275.275.275,0,0,1-.275.274Z" transform="translate(1091.917 -632.276)"/>
    <path id="Path_21320" data-name="Path 21320" d="M-1080.333,645.682h-1.217a.275.275,0,0,1-.274-.275.274.274,0,0,1,.274-.274h1.217a.274.274,0,0,1,.275.274.275.275,0,0,1-.275.275Z" transform="translate(1091.917 -638.103)"/>
    <path id="Path_21321" data-name="Path 21321" d="M-1080.333,652.213h-1.217a.275.275,0,0,1-.274-.275.274.274,0,0,1,.274-.274h1.217a.275.275,0,0,1,.275.274.275.275,0,0,1-.275.275Z" transform="translate(1091.917 -643.924)"/>
    <path id="Path_21322" data-name="Path 21322" d="M-1080.333,658.742h-1.217a.275.275,0,0,1-.274-.274.275.275,0,0,1,.274-.275h1.217a.275.275,0,0,1,.275.275.275.275,0,0,1-.275.274Z" transform="translate(1091.917 -649.742)"/>
    <path id="Path_21323" data-name="Path 21323" d="M-1080.333,665.282h-1.217a.275.275,0,0,1-.274-.275.275.275,0,0,1,.274-.274h1.217a.275.275,0,0,1,.275.274.275.275,0,0,1-.275.275Z" transform="translate(1091.917 -655.571)"/>
    <path id="Path_21324" data-name="Path 21324" d="M-1074.833,630.468a.137.137,0,0,1-.137-.137v-4.37a.137.137,0,0,1,.137-.137.137.137,0,0,1,.137.137v4.37a.137.137,0,0,1-.137.137Z" transform="translate(1085.809 -620.894)"/>
    <path id="Path_21325" data-name="Path 21325" d="M-1148.017,632.613h-1.217a.275.275,0,0,1-.275-.275.274.274,0,0,1,.275-.274h1.217a.274.274,0,0,1,.275.274.275.275,0,0,1-.275.275Z" transform="translate(1152.237 -626.456)"/>
    <path id="Path_21326" data-name="Path 21326" d="M-1148.017,639.143h-1.217a.274.274,0,0,1-.275-.274.275.275,0,0,1,.275-.275h1.217a.275.275,0,0,1,.275.275.275.275,0,0,1-.275.274Z" transform="translate(1152.237 -632.276)"/>
    <path id="Path_21327" data-name="Path 21327" d="M-1148.017,645.682h-1.217a.275.275,0,0,1-.275-.275.274.274,0,0,1,.275-.274h1.217a.274.274,0,0,1,.275.274.275.275,0,0,1-.275.275Z" transform="translate(1152.237 -638.103)"/>
    <path id="Path_21328" data-name="Path 21328" d="M-1148.017,652.213h-1.217a.275.275,0,0,1-.275-.275.274.274,0,0,1,.275-.274h1.217a.274.274,0,0,1,.275.274.275.275,0,0,1-.275.275Z" transform="translate(1152.237 -643.924)"/>
    <path id="Path_21329" data-name="Path 21329" d="M-1148.017,658.742h-1.217a.275.275,0,0,1-.275-.274.275.275,0,0,1,.275-.275h1.217a.275.275,0,0,1,.275.275.275.275,0,0,1-.275.274Z" transform="translate(1152.237 -649.742)"/>
    <path id="Path_21330" data-name="Path 21330" d="M-1148.017,665.282h-1.217a.275.275,0,0,1-.275-.275.275.275,0,0,1,.275-.274h1.217a.275.275,0,0,1,.275.274.275.275,0,0,1-.275.275Z" transform="translate(1152.237 -655.571)"/>
    <path id="Path_21331" data-name="Path 21331" d="M-1142.519,630.468a.137.137,0,0,1-.137-.137v-4.37a.137.137,0,0,1,.137-.137.137.137,0,0,1,.138.137v4.37a.137.137,0,0,1-.138.137Z" transform="translate(1146.13 -620.894)"/>
    <path id="Path_21332" data-name="Path 21332" d="M-1012.653,1369.914h-22.6a.275.275,0,0,1-.275-.275.275.275,0,0,1,.275-.275h22.6a.275.275,0,0,1,.275.275.275.275,0,0,1-.275.275Z" transform="translate(1050.658 -1283.54)"/>
  </g>
</svg>
