<svg id="Group_23914" data-name="Group 23914" xmlns="http://www.w3.org/2000/svg" width="34.212" height="68.025" viewBox="0 0 34.212 68.025">
  <path id="Path_21333" data-name="Path 21333" d="M269.425,708.573H236.387a.588.588,0,0,0-.587.588h0a.588.588,0,0,0,.587.588h33.037a.588.588,0,0,0,.587-.588h0a.588.588,0,0,0-.587-.588Z" transform="translate(-235.8 -699.305)"/>
  <path id="Path_21334" data-name="Path 21334" d="M252.118,726.375h-1.381a.2.2,0,1,1,0-.392h1.381a.2.2,0,0,1,0,.392Z" transform="translate(-249.396 -715.364)"/>
  <path id="Path_21335" data-name="Path 21335" d="M252.118,734.706h-1.381a.2.2,0,1,1,0-.392h1.381a.2.2,0,0,1,0,.392Z" transform="translate(-249.396 -723.049)"/>
  <path id="Path_21336" data-name="Path 21336" d="M252.118,743.036h-1.381a.2.2,0,1,1,0-.392h1.381a.2.2,0,0,1,0,.392Z" transform="translate(-249.396 -730.733)"/>
  <path id="Path_21337" data-name="Path 21337" d="M252.118,751.355h-1.381a.2.2,0,1,1,0-.392h1.381a.2.2,0,0,1,0,.392Z" transform="translate(-249.396 -738.406)"/>
  <path id="Path_21338" data-name="Path 21338" d="M252.118,759.685h-1.381a.2.2,0,1,1,0-.392h1.381a.2.2,0,0,1,0,.392Z" transform="translate(-249.396 -746.09)"/>
  <path id="Path_21339" data-name="Path 21339" d="M252.118,768.015h-1.381a.2.2,0,1,1,0-.392h1.381a.2.2,0,0,1,0,.392Z" transform="translate(-249.396 -753.773)"/>
  <path id="Path_21340" data-name="Path 21340" d="M260.8,726.641a.1.1,0,0,1-.1-.1v-3.972a.1.1,0,0,1,.2,0v3.972a.1.1,0,0,1-.1.1Z" transform="translate(-258.768 -712.127)"/>
  <path id="Path_21341" data-name="Path 21341" d="M640.668,726.375h-1.381a.2.2,0,1,1,0-.392h1.381a.2.2,0,1,1,0,.392Z" transform="translate(-607.796 -715.364)"/>
  <path id="Path_21342" data-name="Path 21342" d="M640.668,734.706h-1.381a.2.2,0,1,1,0-.392h1.381a.2.2,0,1,1,0,.392Z" transform="translate(-607.796 -723.049)"/>
  <path id="Path_21343" data-name="Path 21343" d="M640.668,743.036h-1.381a.2.2,0,1,1,0-.392h1.381a.2.2,0,1,1,0,.392Z" transform="translate(-607.796 -730.733)"/>
  <path id="Path_21344" data-name="Path 21344" d="M640.668,751.355h-1.381a.2.2,0,1,1,0-.392h1.381a.2.2,0,1,1,0,.392Z" transform="translate(-607.796 -738.406)"/>
  <path id="Path_21345" data-name="Path 21345" d="M640.668,759.685h-1.381a.2.2,0,1,1,0-.392h1.381a.2.2,0,1,1,0,.392Z" transform="translate(-607.796 -746.09)"/>
  <path id="Path_21346" data-name="Path 21346" d="M640.668,768.015h-1.381a.2.2,0,1,1,0-.392h1.381a.2.2,0,1,1,0,.392Z" transform="translate(-607.796 -753.773)"/>
  <path id="Path_21347" data-name="Path 21347" d="M649.358,726.641a.1.1,0,0,1-.1-.1v-3.972a.1.1,0,0,1,.2,0v3.972a.1.1,0,0,1-.1.1Z" transform="translate(-617.176 -712.127)"/>
  <path id="Path_21348" data-name="Path 21348" d="M378.557,726.375h-1.381a.2.2,0,1,1,0-.392h1.381a.2.2,0,0,1,0,.392Z" transform="translate(-366.024 -715.364)"/>
  <path id="Path_21349" data-name="Path 21349" d="M378.557,734.706h-1.381a.2.2,0,1,1,0-.392h1.381a.2.2,0,0,1,0,.392Z" transform="translate(-366.024 -723.049)"/>
  <path id="Path_21350" data-name="Path 21350" d="M378.557,743.036h-1.381a.2.2,0,1,1,0-.392h1.381a.2.2,0,0,1,0,.392Z" transform="translate(-366.024 -730.733)"/>
  <path id="Path_21351" data-name="Path 21351" d="M378.557,751.355h-1.381a.2.2,0,1,1,0-.392h1.381a.2.2,0,0,1,0,.392Z" transform="translate(-366.024 -738.406)"/>
  <path id="Path_21352" data-name="Path 21352" d="M378.557,759.685h-1.381a.2.2,0,1,1,0-.392h1.381a.2.2,0,0,1,0,.392Z" transform="translate(-366.024 -746.09)"/>
  <path id="Path_21353" data-name="Path 21353" d="M378.557,768.015h-1.381a.2.2,0,1,1,0-.392h1.381a.2.2,0,0,1,0,.392Z" transform="translate(-366.024 -753.773)"/>
  <path id="Path_21354" data-name="Path 21354" d="M387.248,726.641a.1.1,0,0,1-.1-.1v-3.972a.1.1,0,0,1,.2,0v3.972a.1.1,0,0,1-.1.1Z" transform="translate(-375.406 -712.127)"/>
  <path id="Path_21355" data-name="Path 21355" d="M514.228,726.375h-1.381a.2.2,0,1,1,0-.392h1.381a.2.2,0,1,1,0,.392Z" transform="translate(-491.167 -715.364)"/>
  <path id="Path_21356" data-name="Path 21356" d="M514.228,734.706h-1.381a.2.2,0,1,1,0-.392h1.381a.2.2,0,1,1,0,.392Z" transform="translate(-491.167 -723.049)"/>
  <path id="Path_21357" data-name="Path 21357" d="M514.228,743.036h-1.381a.2.2,0,1,1,0-.392h1.381a.2.2,0,1,1,0,.392Z" transform="translate(-491.167 -730.733)"/>
  <path id="Path_21358" data-name="Path 21358" d="M514.228,751.355h-1.381a.2.2,0,1,1,0-.392h1.381a.2.2,0,1,1,0,.392Z" transform="translate(-491.167 -738.406)"/>
  <path id="Path_21359" data-name="Path 21359" d="M514.228,759.685h-1.381a.2.2,0,1,1,0-.392h1.381a.2.2,0,1,1,0,.392Z" transform="translate(-491.167 -746.09)"/>
  <path id="Path_21360" data-name="Path 21360" d="M514.228,768.015h-1.381a.2.2,0,1,1,0-.392h1.381a.2.2,0,1,1,0,.392Z" transform="translate(-491.167 -753.773)"/>
  <path id="Path_21361" data-name="Path 21361" d="M522.918,726.641a.1.1,0,0,1-.1-.1v-3.972a.1.1,0,0,1,.2,0v3.972a.1.1,0,0,1-.1.1Z" transform="translate(-500.548 -712.127)"/>
  <path id="Path_21362" data-name="Path 21362" d="M269.425,589.144H236.387a.588.588,0,0,0-.587.588h0a.588.588,0,0,0,.587.588h33.037a.588.588,0,0,0,.587-.588h0a.588.588,0,0,0-.587-.588Z" transform="translate(-235.8 -589.144)"/>
  <path id="Path_21363" data-name="Path 21363" d="M252.118,606.945h-1.381a.2.2,0,1,1,0-.392h1.381a.2.2,0,0,1,0,.392Z" transform="translate(-249.396 -605.202)"/>
  <path id="Path_21364" data-name="Path 21364" d="M252.118,615.275h-1.381a.2.2,0,1,1,0-.392h1.381a.2.2,0,0,1,0,.392Z" transform="translate(-249.396 -612.886)"/>
  <path id="Path_21365" data-name="Path 21365" d="M252.118,623.595h-1.381a.2.2,0,1,1,0-.392h1.381a.2.2,0,0,1,0,.392Z" transform="translate(-249.396 -620.56)"/>
  <path id="Path_21366" data-name="Path 21366" d="M252.118,631.925h-1.381a.2.2,0,1,1,0-.392h1.381a.2.2,0,0,1,0,.392Z" transform="translate(-249.396 -628.244)"/>
  <path id="Path_21367" data-name="Path 21367" d="M252.118,640.255h-1.381a.2.2,0,1,1,0-.392h1.381a.2.2,0,0,1,0,.392Z" transform="translate(-249.396 -635.927)"/>
  <path id="Path_21368" data-name="Path 21368" d="M252.118,648.577h-1.381a.2.2,0,0,1,0-.393h1.381a.2.2,0,0,1,0,.393Z" transform="translate(-249.396 -643.603)"/>
  <path id="Path_21369" data-name="Path 21369" d="M260.8,607.2a.1.1,0,0,1-.1-.1v-3.972a.1.1,0,1,1,.2,0V607.1a.1.1,0,0,1-.1.1Z" transform="translate(-258.768 -601.955)"/>
  <path id="Path_21370" data-name="Path 21370" d="M640.668,606.945h-1.381a.2.2,0,1,1,0-.392h1.381a.2.2,0,1,1,0,.392Z" transform="translate(-607.796 -605.202)"/>
  <path id="Path_21371" data-name="Path 21371" d="M640.668,615.275h-1.381a.2.2,0,1,1,0-.392h1.381a.2.2,0,1,1,0,.392Z" transform="translate(-607.796 -612.886)"/>
  <path id="Path_21372" data-name="Path 21372" d="M640.668,623.595h-1.381a.2.2,0,1,1,0-.392h1.381a.2.2,0,1,1,0,.392Z" transform="translate(-607.796 -620.56)"/>
  <path id="Path_21373" data-name="Path 21373" d="M640.668,631.925h-1.381a.2.2,0,1,1,0-.392h1.381a.2.2,0,1,1,0,.392Z" transform="translate(-607.796 -628.244)"/>
  <path id="Path_21374" data-name="Path 21374" d="M640.668,640.255h-1.381a.2.2,0,1,1,0-.392h1.381a.2.2,0,1,1,0,.392Z" transform="translate(-607.796 -635.927)"/>
  <path id="Path_21375" data-name="Path 21375" d="M640.668,648.577h-1.381a.2.2,0,0,1,0-.393h1.381a.2.2,0,0,1,0,.393Z" transform="translate(-607.796 -643.603)"/>
  <path id="Path_21376" data-name="Path 21376" d="M649.358,607.2a.1.1,0,0,1-.1-.1v-3.972a.1.1,0,1,1,.2,0V607.1a.1.1,0,0,1-.1.1Z" transform="translate(-617.176 -601.955)"/>
  <path id="Path_21377" data-name="Path 21377" d="M378.557,606.945h-1.381a.2.2,0,1,1,0-.392h1.381a.2.2,0,0,1,0,.392Z" transform="translate(-366.024 -605.202)"/>
  <path id="Path_21378" data-name="Path 21378" d="M378.557,615.275h-1.381a.2.2,0,1,1,0-.392h1.381a.2.2,0,0,1,0,.392Z" transform="translate(-366.024 -612.886)"/>
  <path id="Path_21379" data-name="Path 21379" d="M378.557,623.595h-1.381a.2.2,0,1,1,0-.392h1.381a.2.2,0,0,1,0,.392Z" transform="translate(-366.024 -620.56)"/>
  <path id="Path_21380" data-name="Path 21380" d="M378.557,631.925h-1.381a.2.2,0,1,1,0-.392h1.381a.2.2,0,0,1,0,.392Z" transform="translate(-366.024 -628.244)"/>
  <path id="Path_21381" data-name="Path 21381" d="M378.557,640.255h-1.381a.2.2,0,1,1,0-.392h1.381a.2.2,0,0,1,0,.392Z" transform="translate(-366.024 -635.927)"/>
  <path id="Path_21382" data-name="Path 21382" d="M378.557,648.577h-1.381a.2.2,0,1,1,0-.393h1.381a.2.2,0,0,1,0,.393Z" transform="translate(-366.024 -643.603)"/>
  <path id="Path_21383" data-name="Path 21383" d="M387.248,607.2a.1.1,0,0,1-.1-.1v-3.972a.1.1,0,1,1,.2,0V607.1a.1.1,0,0,1-.1.1Z" transform="translate(-375.406 -601.955)"/>
  <path id="Path_21384" data-name="Path 21384" d="M514.228,606.945h-1.381a.2.2,0,1,1,0-.392h1.381a.2.2,0,1,1,0,.392Z" transform="translate(-491.167 -605.202)"/>
  <path id="Path_21385" data-name="Path 21385" d="M514.228,615.275h-1.381a.2.2,0,1,1,0-.392h1.381a.2.2,0,1,1,0,.392Z" transform="translate(-491.167 -612.886)"/>
  <path id="Path_21386" data-name="Path 21386" d="M514.228,623.595h-1.381a.2.2,0,1,1,0-.392h1.381a.2.2,0,1,1,0,.392Z" transform="translate(-491.167 -620.56)"/>
  <path id="Path_21387" data-name="Path 21387" d="M514.228,631.925h-1.381a.2.2,0,1,1,0-.392h1.381a.2.2,0,1,1,0,.392Z" transform="translate(-491.167 -628.244)"/>
  <path id="Path_21388" data-name="Path 21388" d="M514.228,640.255h-1.381a.2.2,0,1,1,0-.392h1.381a.2.2,0,1,1,0,.392Z" transform="translate(-491.167 -635.927)"/>
  <path id="Path_21389" data-name="Path 21389" d="M514.228,648.577h-1.381a.2.2,0,1,1,0-.393h1.381a.2.2,0,0,1,0,.393Z" transform="translate(-491.167 -643.603)"/>
  <path id="Path_21390" data-name="Path 21390" d="M522.918,607.2a.1.1,0,0,1-.1-.1v-3.972a.1.1,0,1,1,.2,0V607.1a.1.1,0,0,1-.1.1Z" transform="translate(-500.548 -601.955)"/>
  <path id="Path_21391" data-name="Path 21391" d="M433.295,661.435h2.833l-.487-66.849h-1.861l-.486,66.849Zm3.227.392H432.9l0-.2.49-67.437h2.639v.195l.49,67.439Z" transform="translate(-417.605 -593.801)"/>
  <path id="Path_21392" data-name="Path 21392" d="M439.258,646.309l-.358-.161,2.3-5.115.358.161-2.3,5.115Z" transform="translate(-423.14 -637.007)"/>
  <path id="Path_21393" data-name="Path 21393" d="M441.7,646.309l-2.3-5.115.358-.161,2.3,5.115-.358.161Z" transform="translate(-423.601 -637.007)"/>
  <path id="Path_21394" data-name="Path 21394" d="M438.986,710.846l-.336-.2,2.364-3.952.337.2-2.364,3.952Z" transform="translate(-422.91 -697.572)"/>
  <path id="Path_21395" data-name="Path 21395" d="M441.4,710.846l-2.364-3.952.336-.2,2.364,3.952-.337.2Z" transform="translate(-423.269 -697.572)"/>
  <path id="Path_21396" data-name="Path 21396" d="M438.568,762l-.338-.2,2.426-4.163.339.2L438.568,762Z" transform="translate(-422.521 -744.568)"/>
  <path id="Path_21397" data-name="Path 21397" d="M441.056,762l-2.427-4.162.339-.2,2.426,4.163-.339.2Z" transform="translate(-422.891 -744.568)"/>
  <path id="Path_21398" data-name="Path 21398" d="M438.121,815.886l-.341-.194,2.492-4.388.341.194-2.492,4.388Z" transform="translate(-422.107 -794.065)"/>
  <path id="Path_21399" data-name="Path 21399" d="M440.7,815.886,438.21,811.5l.341-.194,2.491,4.388-.342.194Z" transform="translate(-422.503 -794.065)"/>
  <path id="Path_21400" data-name="Path 21400" d="M437.653,872.706l-.343-.189,2.56-4.634.343.189-2.56,4.634Z" transform="translate(-421.673 -846.253)"/>
  <path id="Path_21401" data-name="Path 21401" d="M440.329,872.706l-2.56-4.634.343-.189,2.56,4.634-.343.189Z" transform="translate(-422.097 -846.253)"/>
  <path id="Path_21402" data-name="Path 21402" d="M437.155,932.719l-.345-.186,2.633-4.9.345.186-2.633,4.9Z" transform="translate(-421.212 -901.367)"/>
  <path id="Path_21403" data-name="Path 21403" d="M439.932,932.719l-2.632-4.9.345-.186,2.633,4.9-.345.186Z" transform="translate(-421.664 -901.367)"/>
  <path id="Path_21404" data-name="Path 21404" d="M436.638,996.186,436.29,996l2.71-5.191.348.182-2.71,5.191Z" transform="translate(-420.732 -959.645)"/>
  <path id="Path_21405" data-name="Path 21405" d="M439.51,996.186l-2.71-5.191.348-.182,2.71,5.191-.348.182Z" transform="translate(-421.203 -959.645)"/>
  <path id="Path_21406" data-name="Path 21406" d="M436.089,1063.43l-.349-.177,2.791-5.508.349.177-2.791,5.509Z" transform="translate(-420.225 -1021.382)"/>
  <path id="Path_21407" data-name="Path 21407" d="M439.071,1063.43l-2.791-5.509.349-.177,2.791,5.508-.349.177Z" transform="translate(-420.723 -1021.382)"/>
  <path id="Path_21408" data-name="Path 21408" d="M435.492,1134.792l-.352-.173,2.878-5.856.352.173-2.878,5.855Z" transform="translate(-419.671 -1086.891)"/>
  <path id="Path_21409" data-name="Path 21409" d="M438.6,1134.792l-2.878-5.855.352-.173,2.878,5.856-.352.173Z" transform="translate(-420.206 -1086.891)"/>
  <path id="Path_21410" data-name="Path 21410" d="M434.874,1210.659l-.354-.168,2.97-6.237.355.168-2.97,6.237Z" transform="translate(-419.1 -1156.523)"/>
  <path id="Path_21411" data-name="Path 21411" d="M438.1,1210.659l-2.97-6.237.354-.168,2.97,6.237-.354.168Z" transform="translate(-419.662 -1156.523)"/>
  <path id="Path_21412" data-name="Path 21412" d="M434.206,1291.485l-.356-.164,3.068-6.656.356.164-3.068,6.657Z" transform="translate(-418.481 -1230.693)"/>
  <path id="Path_21413" data-name="Path 21413" d="M437.578,1291.485l-3.068-6.657.355-.164,3.069,6.656-.356.164Z" transform="translate(-419.09 -1230.693)"/>
  <path id="Path_21414" data-name="Path 21414" d="M433.5,1377.754l-.358-.16,3.174-7.12.358.16-3.174,7.12Z" transform="translate(-417.826 -1309.844)"/>
  <path id="Path_21415" data-name="Path 21415" d="M437.014,1377.754l-3.174-7.12.358-.16,3.174,7.12-.358.16Z" transform="translate(-418.472 -1309.844)"/>
  <path id="Path_21416" data-name="Path 21416" d="M439.91,599.093l-.33-.212,2.253-3.518.33.211-2.253,3.519Z" transform="translate(-423.767 -594.881)"/>
  <path id="Path_21417" data-name="Path 21417" d="M441.874,599.093l-2.253-3.519.33-.211,2.253,3.518-.33.212Z" transform="translate(-423.804 -594.881)"/>
</svg>
