<svg id="Group_23937" data-name="Group 23937" xmlns="http://www.w3.org/2000/svg" width="19.938" height="47.722" viewBox="0 0 19.938 47.722">
  <path id="Path_21440" data-name="Path 21440" d="M1576.085,893.535h6.546l-1.088-29.159h-4.37l-1.088,29.159Zm6.677.253h-6.809a.129.129,0,0,1-.092-.039.123.123,0,0,1-.035-.093l1.1-29.413a.126.126,0,0,1,.126-.122h4.615a.127.127,0,0,1,.127.122l1.1,29.413a.124.124,0,0,1-.036.093.126.126,0,0,1-.091.039Z" transform="translate(-1569.389 -846.067)"/>
  <path id="Path_21441" data-name="Path 21441" d="M1603.286,909.187H1598.5v-.254h4.787v.254Z" transform="translate(-1590.924 -888.629)"/>
  <path id="Path_21442" data-name="Path 21442" d="M1600.3,995.886h-5.119v-.253h5.119v.253Z" transform="translate(-1587.77 -970.977)"/>
  <path id="Path_21443" data-name="Path 21443" d="M1597.394,1082.837h-5.444v-.253h5.444v.253Z" transform="translate(-1584.702 -1053.564)"/>
  <path id="Path_21444" data-name="Path 21444" d="M1594.6,1168.237h-5.755v-.253h5.755v.253Z" transform="translate(-1581.758 -1134.678)"/>
  <path id="Path_21445" data-name="Path 21445" d="M1591.744,1255.317h-6.074v-.253h6.074v.253Z" transform="translate(-1578.737 -1217.388)"/>
  <path id="Path_21446" data-name="Path 21446" d="M1588.217,1357.687h-6.467v-.253h6.467v.253Z" transform="translate(-1575.014 -1314.621)"/>
  <path id="Path_21447" data-name="Path 21447" d="M1578.471,869.582l2.289,1.782,2.289-1.782-2.289-2.231-2.289,2.231Zm-.143,4,2.432,2.141,2.431-2.141-2.431-1.893-2.432,1.893Zm-.167,4.768,2.6,1.677,2.6-1.677-2.6-2.289-2.6,2.289Zm-.135,3.743,2.734,2.29,2.733-2.29-2.733-1.764-2.734,1.764Zm-.2,5.081,2.938,2.349,2.937-2.349-2.937-2.461-2.937,2.461Zm-.171,5.161,3.109,1.859,3.108-1.859-3.108-2.487-3.109,2.487Zm3.109,2.133a.126.126,0,0,1-.065-.017l-3.33-1.991a.127.127,0,0,1-.061-.1.124.124,0,0,1,.047-.107l3.206-2.565-3.013-2.411a.125.125,0,0,1-.048-.1.127.127,0,0,1,.045-.1l3.021-2.53-2.831-2.372a.127.127,0,0,1,.012-.2l2.783-1.8-2.644-1.705a.127.127,0,0,1-.015-.2l2.7-2.379-2.522-2.221a.127.127,0,0,1,.006-.2l2.5-1.947-2.353-1.832a.125.125,0,0,1-.049-.093.127.127,0,0,1,.038-.1l2.388-2.328-2.214-2.159.177-.181L1580.76,867l2.219-2.163.177.181-2.215,2.159,2.388,2.328a.127.127,0,0,1-.011.191l-2.353,1.832,2.5,1.947a.126.126,0,0,1,.006.2l-2.522,2.221,2.7,2.379a.128.128,0,0,1,.043.1.129.129,0,0,1-.058.1l-2.644,1.705,2.782,1.8a.127.127,0,0,1,.013.2l-2.831,2.372,3.021,2.53a.128.128,0,0,1,.045.1.125.125,0,0,1-.047.1l-3.014,2.411,3.206,2.565a.126.126,0,0,1-.014.208l-3.331,1.991a.126.126,0,0,1-.064.017Z" transform="translate(-1570.791 -846.743)"/>
  <path id="Path_21448" data-name="Path 21448" d="M1644.068,564.108l2,.849,2.546-2.6v-4.6l-1.56-1.573a.129.129,0,0,1-.036-.1.126.126,0,0,1,.052-.092l1.2-.876v-4.327l-1.29-1.346-1.492.251,1.467.937a.127.127,0,0,1,.059.107v3.8a.127.127,0,0,1-.059.107l-1.579,1,1.371,1.985a.127.127,0,0,1,.022.072v4.709a.127.127,0,0,1-.061.108l-2.642,1.59Zm2.029,1.126a.129.129,0,0,1-.049-.01l-2.307-.98a.127.127,0,0,1-.016-.225l2.793-1.681v-4.6l-1.423-2.061a.127.127,0,0,1,.037-.179l1.632-1.032V550.8l-1.686-1.077a.127.127,0,0,1,.048-.232l1.882-.318a.129.129,0,0,1,.113.038l1.372,1.431a.127.127,0,0,1,.035.088v4.443a.127.127,0,0,1-.052.1l-1.137.827,1.492,1.506a.127.127,0,0,1,.037.089v4.709a.127.127,0,0,1-.036.088l-2.643,2.7a.129.129,0,0,1-.091.038Z" transform="translate(-1633.82 -546.925)"/>
  <path id="Path_21449" data-name="Path 21449" d="M1545.273,562.357l2.547,2.6,2-.849-2.642-1.59a.127.127,0,0,1-.061-.108V557.7a.127.127,0,0,1,.023-.072l1.37-1.985-1.58-1a.128.128,0,0,1-.059-.107v-3.8a.128.128,0,0,1,.059-.107l1.467-.937-1.492-.251-1.29,1.346v4.327l1.2.876a.127.127,0,0,1,.052.092.129.129,0,0,1-.036.1l-1.56,1.573v4.6Zm2.517,2.877a.127.127,0,0,1-.091-.038l-2.643-2.7a.127.127,0,0,1-.036-.088V557.7a.128.128,0,0,1,.037-.089l1.492-1.506-1.136-.827a.125.125,0,0,1-.052-.1v-4.443a.127.127,0,0,1,.035-.088l1.372-1.431a.13.13,0,0,1,.113-.038l1.882.318a.127.127,0,0,1,.047.232l-1.686,1.077v3.665l1.632,1.032a.127.127,0,0,1,.036.179l-1.423,2.061v4.6l2.793,1.681a.127.127,0,0,1-.016.225l-2.307.98a.133.133,0,0,1-.05.01Z" transform="translate(-1540.128 -546.925)"/>
  <path id="Path_21450" data-name="Path 21450" d="M1550.325,506.607l1.681.283v-.411l-2.878-1.628,1.2,1.755Zm1.807.561-.021,0-1.883-.318a.126.126,0,0,1-.083-.053l-1.533-2.25a.127.127,0,0,1,.167-.182l3.415,1.932a.125.125,0,0,1,.065.11v.635a.127.127,0,0,1-.127.127Z" transform="translate(-1543.519 -504.346)"/>
  <path id="Path_21451" data-name="Path 21451" d="M1482.823,550.6h4l-.11-1.141-3.89,1.141Zm4.14.253h-5.022a.127.127,0,0,1-.036-.248l4.884-1.432a.127.127,0,0,1,.162.109l.138,1.432a.127.127,0,0,1-.032.1.126.126,0,0,1-.094.042Z" transform="translate(-1480.094 -546.923)"/>
  <path id="Path_21452" data-name="Path 21452" d="M1448.705,676.9h5.884l1.218-1.763-7.1,1.763Zm5.951.253h-6.988a.127.127,0,0,1-.031-.249l8.434-2.094a.127.127,0,0,1,.135.2l-1.445,2.093a.127.127,0,0,1-.1.055Z" transform="translate(-1447.542 -666.255)"/>
  <path id="Path_21453" data-name="Path 21453" d="M1452.375,814.85h1.058l4.562-3.069.622-1.175h-1.834l-4.409,4.244Zm1.1.253h-1.411a.127.127,0,0,1-.088-.218l4.672-4.5a.124.124,0,0,1,.088-.036h2.1a.126.126,0,0,1,.108.061.128.128,0,0,1,0,.125l-.736,1.388a.134.134,0,0,1-.041.046l-4.621,3.108a.125.125,0,0,1-.071.022Z" transform="translate(-1451.714 -794.996)"/>
  <path id="Path_21454" data-name="Path 21454" d="M1579.266,525.776a.127.127,0,0,1-.126-.128l.012-1.375.254,0-.011,1.224,1.733-.293.042.25-1.882.318-.021,0Z" transform="translate(-1572.535 -523.273)"/>
  <path id="Path_21455" data-name="Path 21455" d="M1524.024,562.683l-.673-.706-.644.7-.187-.171.736-.8a.127.127,0,0,1,.093-.041.135.135,0,0,1,.093.039l.767.8-.183.175Z" transform="translate(-1518.757 -558.787)"/>
  <path id="Path_21456" data-name="Path 21456" d="M1555.108,583.267l-3.2-.431a.127.127,0,0,1-.033-.242l1.288-.545-1.269-.81a.126.126,0,0,1-.059-.109.129.129,0,0,1,.062-.107l1.292-.778-1.327-.808a.126.126,0,0,1-.007-.212l1.506-1.061.146.207-1.348.95,1.341.816a.127.127,0,0,1,0,.217l-1.3.781,1.3.829a.126.126,0,0,1,.058.117.128.128,0,0,1-.077.106l-1.083.458,2.742.369-.034.251Z" transform="translate(-1546.565 -574.459)"/>
  <path id="Path_21457" data-name="Path 21457" d="M1577.449,687.9l-.5-1.611.242-.075.5,1.611-.242.075Z" transform="translate(-1570.455 -677.086)"/>
  <path id="Path_21458" data-name="Path 21458" d="M1475.292,706.911l-.252-1.116a.127.127,0,0,1,.136-.154l1.536.144-.034-1.594a.126.126,0,0,1,.16-.125l1.712.459v-2.138a.127.127,0,0,1,.057-.106l1.914-1.257-1.9-.968a.127.127,0,0,1,0-.226l1.885-.94-1.892-1.1a.127.127,0,0,1-.033-.027l-.777-.914-1.324.935a.126.126,0,0,1-.152,0l-.624-.5.158-.2.549.437,1.341-.948a.126.126,0,0,1,.17.021l.839.986,2.078,1.209a.127.127,0,0,1-.008.223l-1.87.933,1.871.953a.126.126,0,0,1,.012.219l-2.039,1.34v2.235a.127.127,0,0,1-.16.122l-1.708-.458.033,1.567a.128.128,0,0,1-.04.1.13.13,0,0,1-.1.034l-1.5-.141.214.946-.247.056Z" transform="translate(-1473.657 -686.902)"/>
  <path id="Path_21459" data-name="Path 21459" d="M1599.7,676h3.966l-.641-.928h-2.684l-.641.928Zm4.207.253h-4.449a.127.127,0,0,1-.112-.068.129.129,0,0,1,.008-.131l.816-1.181a.128.128,0,0,1,.1-.055h2.818a.129.129,0,0,1,.1.055l.816,1.181a.126.126,0,0,1-.1.2Z" transform="translate(-1591.717 -666.259)"/>
  <path id="Path_21460" data-name="Path 21460" d="M1616.9,543.479h2.457V543.1H1616.9v.382Zm2.585.253h-2.712a.126.126,0,0,1-.126-.127v-.635a.126.126,0,0,1,.126-.126h2.712a.126.126,0,0,1,.127.126v.635a.126.126,0,0,1-.127.127Z" transform="translate(-1608.162 -540.912)"/>
  <path id="Path_21461" data-name="Path 21461" d="M1670.924,506.479v.411l1.681-.283,1.2-1.755-2.877,1.628Zm-.127.688a.127.127,0,0,1-.127-.127V506.4a.126.126,0,0,1,.065-.11l3.415-1.932a.127.127,0,0,1,.167.182l-1.533,2.25a.129.129,0,0,1-.084.053l-1.883.318-.021,0Z" transform="translate(-1659.472 -504.346)"/>
  <path id="Path_21462" data-name="Path 21462" d="M1705.694,550.6h4l-3.89-1.141-.11,1.141Zm4.883.253h-5.022a.125.125,0,0,1-.094-.042.127.127,0,0,1-.033-.1l.139-1.432a.126.126,0,0,1,.055-.093.129.129,0,0,1,.107-.017l4.884,1.432a.127.127,0,0,1-.035.248Z" transform="translate(-1692.485 -546.923)"/>
  <path id="Path_21463" data-name="Path 21463" d="M1673.369,676.9h5.884l-7.1-1.763,1.218,1.763Zm6.921.253H1673.3a.126.126,0,0,1-.1-.055l-1.446-2.093a.127.127,0,0,1,.135-.2l8.433,2.094a.127.127,0,0,1-.03.249Z" transform="translate(-1660.479 -666.255)"/>
  <path id="Path_21464" data-name="Path 21464" d="M1706.059,814.85h1.058l-4.408-4.244h-1.834l.622,1.175,4.562,3.069Zm1.373.253h-1.411a.128.128,0,0,1-.071-.022l-4.621-3.108a.131.131,0,0,1-.041-.046l-.736-1.388a.127.127,0,0,1,.112-.186h2.1a.125.125,0,0,1,.088.036l4.671,4.5a.127.127,0,0,1-.088.218Z" transform="translate(-1687.841 -794.996)"/>
  <path id="Path_21465" data-name="Path 21465" d="M1674.683,525.776l-.021,0-1.883-.318.042-.25,1.733.293-.011-1.224.254,0,.013,1.375a.127.127,0,0,1-.127.128Z" transform="translate(-1661.476 -523.273)"/>
  <path id="Path_21466" data-name="Path 21466" d="M1736.4,562.683l-.183-.175.767-.8a.13.13,0,0,1,.093-.039.125.125,0,0,1,.092.041l.736.8-.187.171-.644-.7-.673.706Z" transform="translate(-1721.732 -558.787)"/>
  <path id="Path_21467" data-name="Path 21467" d="M1673.954,583.267l-.034-.251,2.742-.369-1.084-.458a.127.127,0,0,1-.019-.224l1.3-.829-1.3-.781a.127.127,0,0,1,0-.217l1.341-.816-1.348-.95.146-.207,1.506,1.061a.127.127,0,0,1-.007.212l-1.327.808,1.292.778a.129.129,0,0,1,.062.107.127.127,0,0,1-.059.109l-1.269.81,1.288.545a.127.127,0,0,1-.033.242l-3.2.431Z" transform="translate(-1662.559 -574.459)"/>
  <path id="Path_21468" data-name="Path 21468" d="M1700.892,687.9l-.243-.075.5-1.611.243.075-.5,1.611Z" transform="translate(-1687.947 -677.086)"/>
  <path id="Path_21469" data-name="Path 21469" d="M1706.143,706.911l-.247-.056.213-.946-1.5.141a.128.128,0,0,1-.138-.129l.033-1.567-1.708.458a.127.127,0,0,1-.16-.122v-2.235l-2.039-1.34a.127.127,0,0,1,.012-.219l1.871-.953-1.87-.933a.127.127,0,0,1-.007-.223l2.077-1.209.839-.986a.126.126,0,0,1,.17-.021l1.341.948.549-.437.157.2-.623.5a.126.126,0,0,1-.152,0l-1.324-.935-.777.914a.141.141,0,0,1-.032.027l-1.893,1.1,1.885.94a.125.125,0,0,1,.071.113.128.128,0,0,1-.07.114l-1.9.968,1.913,1.257a.128.128,0,0,1,.057.106v2.138l1.712-.459a.128.128,0,0,1,.111.023.126.126,0,0,1,.048.1l-.034,1.594,1.536-.144a.127.127,0,0,1,.135.154l-.251,1.116Z" transform="translate(-1687.839 -686.902)"/>
</svg>
