<svg xmlns="http://www.w3.org/2000/svg" width="31.422" height="76.739" viewBox="0 0 31.422 76.739">
  <path id="Path_21520" data-name="Path 21520" d="M538.6,418.556a.142.142,0,0,0-.167-.11c-.061.014-.128.027-.187.037a.394.394,0,0,0-.319-.191.4.4,0,0,0-.225.06.372.372,0,0,0-.085.012.359.359,0,0,0-.084-.013.4.4,0,0,0-.114.013.365.365,0,0,0-.085-.013.382.382,0,0,0-.225.06.391.391,0,0,0-.193.058.4.4,0,0,0-.086.012.4.4,0,0,0-.083-.013.409.409,0,0,0-.114.014.462.462,0,0,0-.085-.014.389.389,0,0,0-.26.088l-.811-.1-4.547-2.063-.071-.033-5.239-2.375-2.587-18.807a.4.4,0,0,0,.678-.065.386.386,0,0,0-.017-.349.744.744,0,0,0,.133-.5.575.575,0,0,0-.311-.4c-.233-.133-.354-.077-.414-.006-.129.151-.068.494.04.755a.371.371,0,0,0-.193.332l-.007-.008-.009-.009a.306.306,0,0,0-.03-.024.047.047,0,0,0-.011-.007.18.18,0,0,0-.032-.017.094.094,0,0,0-.014-.007l-.032-.01-.019-.005-.03,0-.016,0h-.018l-.015,0-.033,0-.014,0a.194.194,0,0,0-.036.012l-.01,0-.035.019-.009.007a.268.268,0,0,0-.03.025l-.01.009-.023.029-.01.014a.3.3,0,0,0-.016.028.173.173,0,0,0-.008.022.084.084,0,0,0-.009.025.192.192,0,0,0-.006.028l0,.016-.057.492a.41.41,0,0,0-.052-.03.365.365,0,0,0-.5.112.338.338,0,0,0,.126.4,2.28,2.28,0,0,1-.587.374c-.2.092-.442.225-.474.436-.029.192.112.414.456.72a.829.829,0,0,0,.531.246.493.493,0,0,0,.138-.02.529.529,0,0,0,.11-.046l-.761,6.643-4.42,1.689a.134.134,0,0,0-.071-.072.186.186,0,0,0-.181.056.134.134,0,0,0-.063-.056c-.081-.031-.188.037-.27.159,0,0-.008-.007-.012-.008-.067-.026-.151.016-.224.1a.077.077,0,0,0-.018-.011c-.082-.032-.188.035-.269.157a.126.126,0,0,0-.066-.061.167.167,0,0,0-.155.036.139.139,0,0,0-.047-.036c-.108-.042-.261.092-.34.3a.63.63,0,0,0-.022.066h-.064a.208.208,0,0,0-.148.059l-.176.173a.211.211,0,0,0-.051.22.2.2,0,0,0,.074.1l-.13.189a.36.36,0,0,0-.479.121.255.255,0,0,0-.023.145.268.268,0,0,0-.118.119.258.258,0,0,0-.023.091.288.288,0,0,0-.136.129.28.28,0,0,0-.023.14.291.291,0,0,0-.2.151.241.241,0,0,0-.017.051.265.265,0,0,0-.106.112.255.255,0,0,0-.025.1.275.275,0,0,0-.116.119.254.254,0,0,0-.024.1.281.281,0,0,0-.152.134.272.272,0,0,0-.023.081.283.283,0,0,0-.188.146.314.314,0,0,0,.053.327l-.086.082a.14.14,0,0,0-.007.2.143.143,0,0,0,.1.044.145.145,0,0,0,.1-.039l.105-.1a1.6,1.6,0,0,1,.263,1.511c-.165.366-.037.5.053.549a.361.361,0,0,0,.168.036,1.567,1.567,0,0,0,1.1-.749c.094-.153.255-.378.443-.638.635-.884,1.559-2.171,1.481-2.917l4.133.432-.7,6.074-9.269,2.5a.191.191,0,0,0-.1-.178.183.183,0,0,0-.181.056.133.133,0,0,0-.062-.056c-.082-.03-.188.037-.27.159l-.011-.007c-.067-.026-.151.016-.224.1-.007,0-.012-.011-.019-.012-.082-.031-.188.035-.269.158a.124.124,0,0,0-.066-.06.16.16,0,0,0-.154.036.119.119,0,0,0-.048-.036c-.08-.031-.182.033-.263.15l-.1,0a.219.219,0,0,0-.152.06.21.21,0,0,0-.063.151v.282a.209.209,0,0,0,.014.075l-.146.263a.348.348,0,0,0-.426.14.255.255,0,0,1-.141.265.252.252,0,0,0-.023.091.268.268,0,0,0-.135.129.251.251,0,0,0-.024.138.292.292,0,0,0-.2.151.252.252,0,0,0-.017.05.277.277,0,0,0-.107.112.286.286,0,0,0-.024.1.266.266,0,0,0-.116.118.257.257,0,0,0-.024.1.269.269,0,0,0-.152.134.222.222,0,0,0-.022.08.279.279,0,0,0-.188.146.312.312,0,0,0,.054.328l-.152.186a.141.141,0,0,0,.018.2.14.14,0,0,0,.2-.021l.168-.2a.423.423,0,0,0,.285,0,3.64,3.64,0,0,0,.7,2.04.533.533,0,0,0,.34.132.591.591,0,0,0,.206-.041,2.032,2.032,0,0,0,1.125-1.191,9.027,9.027,0,0,1,.749-1.227,1.68,1.68,0,0,0,.37-1.268,1.515,1.515,0,0,0-.254-.625l8.65.876-1.579,13.8-6.57,37.78a.282.282,0,0,0,.229.326.209.209,0,0,0,.048,0,.283.283,0,0,0,.278-.233l.092-.53,1.352-3.021h0l3.457-7.728.069,9.807-.13,1.4a.282.282,0,0,0,.255.306h.026a.281.281,0,0,0,.28-.256l.049-.529,5.393-15.069,5.262,14.832.048.531a.282.282,0,0,0,.561-.051l-.115-1.265.137-7.015h0l.006-.318.1-4.963.1.211.031.065,2.3,4.813.041.085h0l3.772,7.882.111.539a.282.282,0,1,0,.552-.114l-7.861-38.179-.008-.137a.136.136,0,0,0-.028-.071l-1.736-12.617,9.359.322c-.046.051-.085.1-.117.133a.35.35,0,0,0-.431.138.267.267,0,0,0-.024.1.28.28,0,0,0-.141.132.264.264,0,0,1-.222.223.267.267,0,0,0-.023.092.271.271,0,0,0-.141.13v0a.288.288,0,0,0-.221.154.246.246,0,0,0-.027.115.283.283,0,0,0-.138.131.266.266,0,0,0-.025.113.3.3,0,0,0-.245.157.252.252,0,0,0-.022.079.266.266,0,0,0-.148.349l-.255.282a.139.139,0,0,0,.009.2.143.143,0,0,0,.095.037.139.139,0,0,0,.105-.047l.2-.227a1.149,1.149,0,0,0,.035.693,2.223,2.223,0,0,0,1.445,1.384,1.792,1.792,0,0,0,.361.034,1.968,1.968,0,0,0,1.321-.488,1.535,1.535,0,0,0,.461-1.384,5.2,5.2,0,0,1,.564-2.692.4.4,0,0,0,.221-.292c.052-.009.115-.022.2-.039A.14.14,0,0,0,538.6,418.556Zm-15.39-24.61c.049-.058.168,0,.236.037a.445.445,0,0,1,.243.3.572.572,0,0,1-.091.367.4.4,0,0,0-.324-.09C523.18,394.335,523.131,394.04,523.21,393.947Zm-7.948,16.419c-.189.262-.352.49-.448.648-.293.48-.89.763-1.083.66-.108-.057-.04-.254.01-.366a1.665,1.665,0,0,0-.223-1.573.307.307,0,0,0,.287-.161.233.233,0,0,0,.023-.079.29.29,0,0,0,.188-.147.264.264,0,0,0,.025-.1.275.275,0,0,0,.151-.135.25.25,0,0,0,.024-.1.27.27,0,0,0,.117-.117.237.237,0,0,0,.017-.051.252.252,0,0,0,.13-.25.3.3,0,0,0,.2-.152.277.277,0,0,0,.023-.092.273.273,0,0,0,.135-.129.26.26,0,0,0,.023-.145.27.27,0,0,0,.118-.118.3.3,0,0,0-.026-.287l.213-.312,1.545.16C516.822,408.191,515.858,409.536,515.262,410.366Zm15.75,7.128,1.993.668-1.993-.239Zm-.435-.947.056.025.1.043v.488l-.31-.1Zm.153.854v.49l-.6-.072.193-.555Zm-.577-.491-.53-.179.652-.173Zm-4.612,5.831-.611-.665,1.071-.65Zm.111.536.65.707-.735-.464Zm.169,4.024,1.049.69-1.608.9v-.008Zm-.607.87-.088-1.329.453.3Zm.7-1.144.025-.069.194.215Zm-.084-.609-.742-.822,1.3-.763Zm-.106.3-.053.148-.573-.378-.033-.5Zm-.646,7.459.252,2.783-.909-.074Zm3.535,10.524a.1.1,0,0,0-.022.033l-.012.024-.408-.112-.077-.324.5.025Zm-.013-4.6.289.023-.28.114Zm-10.51,14.371.195.321-.639.773Zm-.05-.624-.137-.226.224.014Zm.182.3.361-.89-.118,1.288Zm.49,3.822.575,1.107-.738.655Zm-.833-6.709.462-.891.462.519-.1,1.078Zm.682.955-1.164-.025.348-.673Zm1.32-21.909.75.824,0,.069v.01l-1.581.79Zm-.07-.495-.177-.2.209.13Zm1.054-3.3-.027.528-.52-.678.084-.17Zm-.337-.575.407-.823-.054,1.067Zm.476,7.3.569,2.091h-.763Zm-1.044-11.367,0-.034.372-.215.454.413-.185.319Zm.5.726-.04.067-.137-.2Zm-3.612-5.623-.865-.4-.051-.458.781-.189,3.02,1.095Zm1.223.444-.129.06-.14-.065Zm-1.923-.457-.124,0-.006-.057Zm1.062-1.153,2.957-.715-.2,1.718Zm4.059-.761.175.006-.038.754-.323-.34Zm-.382-.3.3-.219-.1.228ZM522.158,417l.4.42-.664-.037.008-.171Zm-.235-.172,0-.074.037.039Zm1.28-2.943-.559-.681.759-.822.221.328.08,1.215Zm.52.324.022.339-.3-.36Zm-.091.645-.6-.024-.829-.74.86.067Zm.153.287.007.105-.152.128-.28-.25Zm.052.787.1,1.567-.973-.052-.594-.627,1.262-1.068Zm1.529,3.966c-.326-.377-.6-.714-.765-.942l0-.091.125-.1.965-.153.043.317Zm.444-.379.144,1.04c-.129-.141-.255-.282-.376-.42Zm-3.972,4.1-.269.163.018-.351Zm-.234-.526.016-.314.642.582-.164.1Zm.477.708,2.394,1.786,0,.039-.362.211-2.566-1.692v-.024Zm2.227-.744.126,1.894-1.7-1.544,1.087-.659Zm-.222-.473.183-.112.015.237Zm-.44,2.032-1.3-.973.138-.083Zm.733,1.395.12-.07.01.157Zm.154.439.156,2.36-2.336-1.614,1.754-1.027Zm-.687-.453-1.748,1.023-.67-.462.106-2.087Zm-2.017,1.181-.446.26.028-.55Zm.256.176,2.627,1.814v.009l-.636.317-2.719-1.545.009-.173Zm2.648,2.128.027.4-.388-.22Zm-.96.163-1.962.976-.571-.35.1-2.006Zm-1.618,1.517-.712-.043.353-.176Zm-.642-.392-.307.152.017-.331Zm1.153.706.678.415-2.234.21.066-.716ZM521.2,420.022l-.131-.264.14.1Zm-.058,1.137-.016.312-.184.314-.343-.312Zm-.131,1.067.074.067-.02.4-.225-.169Zm.078,10.162,2.66-.25.943.578-3.6-.236-.011-.045Zm3.127-.293.691-.064.033.508Zm-.4-.245-.545-.335,1.608.1.009.134Zm-1.057-.647-.66-.406,1.974-.982.715.405.073,1.11Zm2.013-9.719-.089-1.36.472.344Zm-.114-1.726-.019-.3c.179.227.391.477.606.723Zm-.092-1.391-.015-.24c.021-.094.046-.2.074-.311l.771.042Zm-.077-1.17-.048-.73.192.173Zm-.075-1.131-.053-.8.056.019.407.638c-.037.136-.073.275-.11.415Zm-.082-1.44-.014-.021-.024-.348.465.035Zm-.123-1.663-.067-1.017.181.426Zm-1.9,4.73.536.029.508.534Zm.871.79-.3-.019-.757-.551Zm.589.318.228.123a.14.14,0,0,0,.038.013l-.247.186-.483-.351Zm.294.467,0,.059-.04-.029Zm-.272.206.3.22.136,2.056-1.742-1.292Zm.24-9.224-.078-1.184.192.351Zm-.065,7.531.05.752H524l-.749-.79Zm-1.606.651-.511-.031.016-.329Zm.424.308.769.561-1.3.981-.478-.353.063-1.247Zm-.769,1.719-.281.211.021-.405Zm.235.174,2,1.484,0,.042-.429.261-2.114-1.334,0-.048Zm1.308,1.95-1.038.629-.875-.792.052-1.013Zm-1.943-10.687-.436-.591.023-.2.474-.433Zm-.022.444-.042.821-.419-1.444h0Zm-.124,2.434-.066,0,.076-.169Zm-.071,1.423-.033.649-.465-.937.07-.161Zm-.1,2.051-.006.12-.052,0Zm-.021.4-.045.88-.419-.311.289-.579Zm-.343-.3-.316-.019.169-.146.327-.194Zm-.137.274-.145.29-.154-.308Zm.016,1.248-.172-.307.01-.019Zm.248,1.02-.674.39-.313-.283.045-.388.371-.74Zm-.93.537-.114.067.018-.153Zm.572,1.344.351.263-.025.492-.415-.6Zm.86,12.844-1,2.535.235-2.535Zm-.859-5.671-.482-.295.554-1.123Zm-.016.32-.025.479-.636-.7.07-.142Zm-.08,1.284-.057.614-1.441.134Zm-.083.9h0Zm1.22,3.472.99,3.638-.058.056-2.238-.148.029-.313Zm4.272,9.079-.143,0,.025-.154Zm-.057-.529.04-.244.031.335Zm.136.81.2,2.224-.311.508-.262,0-.031-.812h-.18l.313-1.911Zm.459,5.059.03.334-.124-.259Zm-.062-6.922.048-.058-.035.2Zm2.208,4.641-1.381-.023.924-1.907Zm-.443-3.094.208.058-.13.27ZM527,448.024l-.1,0-.078-.859.975-1.593.278.233Zm.031.583.274.051-.3-.006Zm-7.8,3.907.432.014-.162.362Zm.138.672-.269.6.08-.862Zm-.9-7.889.653.847-1.537,1.158.448-2.019ZM518.1,445l.028-.125.027.006.1.124Zm2.13-1.063.032.19-.269.018.021-.218Zm-.19-.292.025-.28.059-.069.059.356Zm.217-1.264,1.653-1.634-1.608,1.9Zm.05,2.024.106.634-.495-.1.048-.513Zm5.433,5.173.358.748-1.819,1.473-.19-.134.757-2.116Zm-.015-1.221.029.005-.026.042Zm.332,1.23h0l.4.45-.132.106Zm-4.942-2.037-.113-.679.891-.775-.162.671Zm.456-.126-.122.5-.27,0Zm1.164-1.479,1.87,2.015,0,.019-2.869-.048.252-1.04Zm-.086-.506.106-.093h.094l-.132.168Zm-.979,2.773,2.975.048.046.335-2.891-.066v-.288l-.134-.016Zm.13.6,2.589.058-.431.369-2.157-.067Zm2.938.13.007.053-.1.268-.273-.01Zm-.681.584.491.014-.7,1.957L522.7,450.7Zm-.007,2.457-.108.088.047-.131Zm.24.167,1.19.835-1.939.2.217-.606Zm.8-4.964-.512-1.883.947-.022-.312,1.9Zm-.292,0h-.3l.04.29-1.627-1.754.3-.386,1.076-.025Zm-1.361-2.137.579-.735.2.717Zm-.793.018-.215.006.2-.825,1.04-.072Zm-.21.557.1.113-.391.5.112-.458Zm-.428,0-1.061.923-.357-2.161,1.748-.119Zm-1.58,1.747.324-.28.126.759-.041.052Zm.061.542-.67-.012.4-.344Zm.054-3.8-.026-.154,1.267.07Zm-.019,1.609.174,1.046-.441.384-.221-.287Zm-.344-.37-.322.242.023-.251Zm.067.3-.409.956-.066-.085.051-.554Zm-.339,1.509.135.175-.333.29Zm.8,1.04.015.02a.144.144,0,0,0,.111.055h0v.237l-.946-.022-.274-.278,0-.032Zm-.185.936-.351-.358.663.016v.351Zm.312.292v.025l-.025-.026Zm-1.328-.042.9.029.385.391-1.384,1.341-.055-.061Zm-.084-5.2-.913.063,1.008-1.094Zm.127,4.726.014-.147.2,0,.25.255Zm.011-6.218-1.251,1.357.164-.738,1.18-1.627Zm-.165,1.777-.034.364-1.049-.208-.061-.078Zm-.516.556-.267-.008-.04-.052Zm-.044.281.481.016-.05.543Zm.406,6.926.055-.592.091-.088.472.529-.074.167Zm.349-.877,1.051-1.019-.656,1.465Zm1.4-1.12h.217l.36.367.187.525-1.325,1.139h-.035l-.208-.234Zm.865,1.178.321.9-1.329-.039Zm-.043-.965-.013-.035.435.3-.086.074Zm-.019-.385v-.607l1.841.057-1.18,1.014Zm.678.82,1.272.891-.167.466-1.231-1.25Zm.99,2.6,2.4-.25.233.018h0l.7.06.029.32-3.419-.031Zm3.316-.458-.152-.012-.242-.021.352-.442Zm-.138-7.764.761-.017.17.142-.8,1.307Zm1.186-.027.186-.005.048.2Zm-.325-.275-.351-.3.779.212.018.073Zm-.775-.7,1.069.055.06.253Zm.351.715-.461.01-.038-.42.006-.006Zm-.439,6.5.061.671-.651.82-.133-.01-1.4-.982,1.7-1.38Zm-.2-1.868.031,0,0,.037Zm-.255-.29-.359-.407.584.012.037.4Zm-.265-.688.125-.2.325.061.014.154Zm.376-.614.027-.045,0,.045Zm-.049-7.138-.106-1.179.247.319Zm-.539,3.289-2-2.554,2.112,1.864Zm-.062.378-.076.461-1.07.025-.814-2.992Zm-1.756-.681-1.151-.064.535-2.2Zm-1.437-.08-1.986-.108-.109-.655,2.5-2.954.264.968Zm-.059-3.908-2.2,2.173-.007-.05.209-2.254Zm-2.568-.065-.246-1.483.658-2.962Zm-.127.962-.623-.177.34-1.532Zm-.023.322-.915.914.215-.969Zm-.836,1.233-.216.3.024-.106Zm-.45.052-.651.652.169-2.077.784.062Zm-.114.512-.069.307-.544.751.039-.485Zm-.223,1-.146.663-.289-.058v-.006Zm-.208.937-.037.172-.23-.008.017-.212Zm-.1.452-.3,1.362.111-1.368Zm-.256,2.45,1.721-1.3-.143,1.54-1.743.5Zm1.343,2.784-.36-.4.384-.739.082,0Zm.59,6.169-.6.014.08-.865Zm-1.035-8.219.652-.188-.015.156-.023.045Zm-.891.255s.005,0,.009,0l1.219.29-.037.072-1.16-.036-.24-.269Zm1.046.644-.271.524-.487-.547Zm.211,8.1.045-.478,2.916-.067h.012l-2.229,1.98Zm.194-2.1.065-.7.54-1.207,1.329,1.837-1.19,1.293Zm.738-2.2.276-.617.3.008.026.03a.142.142,0,0,0,.2.013l.041-.035,1.748.05.3.841-1.5,1.631Zm2.793-.826-.394-1.108.048-.042,1.156,1.174Zm.843.307-.53.576-.213-.6Zm-.023,1.245,3.56.034.011.117-1.517,1.748-2.077-1.842Zm3.606.539.269,2.973-1.61-1.427Zm.241-3.585.312.354-.251.316Zm.048,6.951.018.016.07.774-.554,1.119-2.142-1.909Zm.136,1.327.11,1.218-.5-.442Zm.064-5.541-.019-.213.165.013.017.024.061.126Zm-.028-1.229-.063-.132.6-.522.576.654Zm-.057-.512.338-.427.065.075Zm.327-.866-.533-.6-.035-.385.592.958Zm-.632-1.71-.03-.32,1.088.025Zm.144-.909.018-.035,1.583.026.077.324Zm1.384-2.151.18.153.053.835Zm.144-4.8.956,1.821-.908-1.078Zm.011,4.558-.264-.221,0-.014.222-.46Zm-.666-1.918-.46-1.942.375-.454.513.609.117,1.814Zm-.54-2.286-.215-.905.486.577Zm.638-.33.258-.312.043.668Zm-.185-.218-.812-.964-.026-.114,1.245.425.01.149Zm-.8.315.12.506-.268.324Zm.2.85.391,1.655-1.03-.053.188-1.058Zm-.715.422-.184.223L526.356,442l.274-1.678.333.429.019.082Zm-.174-3.155-.357-.46-.17-1.882.219.018.407,1.72Zm-.553-2.626-.107-1.187.284,1.2Zm-.014,6.088-.007.048-2.234-1.973,2.068.008Zm-2.436-2.208.79-3.252,1.429,3.065.018.2Zm1.1-3.251.953,1.231.091,1.006Zm.872-6.27-.054-.812.489.278-.269.544Zm.031.283-.011.023,0-.024Zm0,6.7-.9-1.168.8.067Zm.042-5.832-.019-.281.133-.271,1.4-.132Zm.394-1.12.21-.423.863.49Zm.089-.815-.636-.362-.039-.582.812.668Zm-2.719,9.884-2.095-7.695,3.759.247a.173.173,0,0,0,.049.016l.025.277Zm1.7-16.074-.064-.958.327.207Zm-.087-1.305-.046-.7.6.659-.113.322Zm.109-1.372.4-1.074.621.452Zm.88-5.944,2.777.931-2.445.647-.116-.014Zm1.334,2.124-1,.312-.06-.44Zm-.245-.455,2.173-.574.656.219-1.6.5Zm3.123-1.117-.94.248-3.315-1.111-.157-1.139Zm-4.427,2.016-.445.071.412-.311Zm-.1-.751-.854-.047c.053-.213.113-.445.176-.687l.658.588Zm-.706-2.161.106.036c-.008.03-.016.061-.025.091Zm.627,1.584-.519-.463c.027-.1.053-.2.081-.3l.425.662Zm-.2-1.44.093.671-.235-.366.087-.323Zm-.117-.857c-.037.135-.082.3-.131.477l-.422-.141-.093-.145.619-.386Zm-.853-.737.219-1.139.509,1.2Zm.628-.9-.312-.737.123-.643Zm-.408-2.976.1.727-.2,1.048-.247-.581.2-1.465Zm-.237-1.717-.076.563-.3-.546-.012-.2.35-.111Zm-.078-.573-.331.105-.32-4.835Zm-.638,3.985-.125.136-1.112-1.652.047-.043,1.151.987Zm-.064-.965-.916-.785.815-.745Zm-.14-2.122.015.232-1.007.92-.087-.074.011-.223,1.042-.892Zm-.71-.994.1.144h-.277Zm-.1-.622h.4l-.25.209Zm.4,1.048.214.3-.857.735.052-1.036Zm-.56-.578.009-.194.083.115Zm.93.612-.024-.034h.022Zm-.022-.315h-.2l-.232-.326.393-.329Zm-.069-1.047h-.614l.576-.578Zm-.062-.952-.728.73.108-2.123.6,1.07ZM523,403.244l.108,1.637-.528-.944.015-.287Zm-.217-3.289.047.714-.09.135Zm-.071,1.4.148-.223.074,1.109-.253-.276Zm-.051,1.006.3.328.012.186-.359.359Zm-.651-4.665a.593.593,0,0,1-.538-.2c-.3-.263-.43-.457-.41-.592.017-.111.142-.215.393-.329a2.349,2.349,0,0,0,.656-.428.44.44,0,0,0,.232.031l-.162,1.417A.44.44,0,0,1,522.007,397.693Zm.231,12.958,1,1.493-.777.842-.326-.4Zm-.119,2.356.154.188-.174.189Zm.334.409.362.442-.718-.056Zm-.4.918.539.48-.561-.022Zm.868.775.506.453-1.246,1.051-.232-.243.066-1.3ZM522.01,404l-.01.193-.013.006Zm-.059.513.033-.013,0,.09-.039.015Zm-.047.407.061-.023-.094,1.844H521.7Zm-.257,2.243h.2l-.023.461-.228-.024Zm-.1.857.255.026-.051,1.008-.267-.483Zm-.119,1.032.3.534-.035.68-.446.408Zm-4.475-2.562a.715.715,0,0,0,.025-.079l4.377-1.671-.011.091-4.407,1.7Zm4.356-1.343-.183,1.593h-3.959Zm-3.908,2.015h3.677l-.043.379Zm3.64,5.277.374,1.293-.539.145Zm-.2,1.739.562-.152-.595.432Zm-.1.845.224.009-.093.212-.139-.146Zm-.05.439.058.061-.087.2Zm.076.832.373.753-.59-.01Zm-.3,1.163.532.01-.583.439Zm-.156,2.105-.111.222.04-.348Zm-.054-5.227-.052.458-3.47.84-.55-.2Zm-4.019,1.417-.333.081-.023-.211Zm-.494,1.2-.434-.008v-.373l.412.191Zm-.056-.517-.373-.171.344-.083Zm-4.727.406,4.635-1.25.034.307-4.054.981-.627-.011C510.956,416.863,510.96,416.852,510.964,416.844Zm.273,1.542a1.542,1.542,0,0,1-.346,1.16,9.232,9.232,0,0,0-.759,1.246c-.3.562-.476.9-1.051,1.124a.377.377,0,0,1-.405-.067,3.754,3.754,0,0,1-.657-2.043c0-.008.01-.013.014-.022a.242.242,0,0,0,.022-.08.293.293,0,0,0,.188-.147.254.254,0,0,0,.025-.1.271.271,0,0,0,.152-.135.261.261,0,0,0,.024-.1.27.27,0,0,0,.117-.118.26.26,0,0,0,.016-.05.253.253,0,0,0,.131-.25.292.292,0,0,0,.2-.152.265.265,0,0,0,.023-.091.271.271,0,0,0,.135-.129.267.267,0,0,0,.022-.146.274.274,0,0,0,.119-.118.314.314,0,0,0-.059-.333l.154-.278,1.625.165A1.44,1.44,0,0,1,511.237,418.386Zm3.8-.678-4-.4.029-.007,3.966.069Zm0-1.353v.588l-2.337-.041,2.339-.565A.151.151,0,0,0,515.032,416.355Zm.282,1.015.428.008-.428.291Zm.349.4.5-.34.8.472Zm.993-.379.455.009.5.232-.309.143Zm1,.581-.084-.01.383-.176.186.086Zm.635-.341.44-.2,1.178.02-.006.057-1.3.27Zm1.129.519-.385-.177.834-.173-.044.391Zm.489,4.25.367.53-.531.909Zm-.244,2.134.788-1.347.55.794-.008.148-1.373.78Zm-.082.722,1.363-.777-.642,1.3-.724-.5Zm.595.775-.042.083-.181-.237Zm-.654-.254.474.618-.708,1.43Zm.665.867.638.831-.015.3-1.615.871Zm-1.032,2.345,1.46-.788-.637,1.292-.823-.5Zm-.052.454.583.641-.855,1.733Zm-.369,3.161,1.761.116-.038.41-.988,4.446-.781-4.709Zm-.246,1.41.053-.306.473,2.844-.724-.1Zm-.222,2.716.725.1-.945,2.584Zm.865.539.173,1.043-.488,2.2-.71-.2a.126.126,0,0,0-.088,0Zm-1.1,3.311.459.129-.545-.043.011-.143A.152.152,0,0,0,518.026,440.583Zm-.076-3.5-.266,3.268-.326.139Zm-.663,3.818.3.024-.574,1.53Zm-.53,3.047.809-2.155-.126,1.543-.7.7Zm-.1.566.745-.745-.05.616-.145.2-.6.2Zm-.127.723.611.019-.991,2.171Zm-.7,4.034,1.016.032-.217.89-.835-.715Zm-1.168,10.2.418-1.72h1.938l.006.056-2.1,2.259Zm.048.82-.335.361.176-.727Zm1.264-4.552.029,1.729H515.3l-.048-.417.419-1.72Zm-.218-.763.191-.789.019,1.07Zm1.256-5.165.005.713-.148-.126Zm-.538-.8.476-.136-.036.149Zm.545,1.887.012,1.666a.139.139,0,0,0-.007.156l.008.014,0,.254-.743-.216.5-2.067Zm.018,2.384v.014l-.823-.045,0-.144.014-.06Zm-.775,2.845.441.59-.422.51Zm.184,1.343.431-.521.187.251,0,.27Zm.442-.977-.634-.848-.036-2.112.82.045.019,2.709Zm.124-7.931-1.006.289,1.047-.789Zm-.457,1.939-.4,1.661-.38-2.332Zm-.949.065.374,2.3-.025.1-.791.144Zm-.5,2.9.722.041-.285,1.175-.526-.7Zm.35,1.571-.292,1.2-.213-1.877Zm-.677.309.191,1.685-.106.435h-.454Zm-.417,2.4h.434l-.314,1.293-.246-.57Zm-.215,1.229.224.516-.384,1.577-.252.269Zm-.295,2.653-.049.2h-.138Zm-.25.483h.131l-.464,1.908Zm-1.133,6.511.074-.422.446-1.838.337.343Zm.981-2.192-.383-.389.179-.736,1.723-2.272Zm-.037-1.811.61-2.508h1.292Zm.679-2.791.151-.623.595-.637.546,1.26Zm1.509-.208-.554-1.277,2.029-2.178v.159Zm1.488-13.94-1.125.848,0-.013,1.285-2.811Zm.186-2.707-.326-.01.372-.123,0,.04Zm.02,4.339.117,0,.736.828-.481.929-.361-.311Zm.013,1.823.226.193-.221.428Zm.009,1.335,1.279.027-.34.837-.632-.181-.306-.5Zm.008,1.119.243.014.348.57-.577,1.422Zm.019,2.794,1.078-1.3-.028.3-.586,1.311-.462.027Zm.97-.135-.039.413-.151.008Zm-.966.749.33-.019-.157.352-.172-.231Zm0,.577.037.05-.036.08Zm.005.809.637-1.426.254-.014-.036.388-.845,2.5Zm.743.159-.359,3.877-.363-1.742Zm-.689,7.441-.028-3.9.27,1.293Zm.322,2.62.35-3.782,1.99-2.756Zm.4-4.333.382-4.129.909-.808.949,1.831Zm2.382-3.446-.874-1.685,2.165-1.924Zm1.177-4.2-1.684.04,1.053-1.146.761,1.05Zm.391-.175-.827-1.142,1.438-1.564.178.5Zm.827-2.94.37-.4-.258.718Zm.261.737.01-.03,2,1.771-.987,1.14Zm1.13,3.187,1.09-1.256,1.5,1.325h-2.562Zm.242.68,2.065,1.841-.823,1.66Zm2.283,2.036.663.591.1,1.094h-1.6Zm.67-5.576,1.149,2.928h-.883Zm.118,7.543.3,3.277-1.9-3.277Zm-1.211,1.242,1.567,2.7.209,2.309Zm1.536-3.892.691,1.914-.563-.5Zm.606,6.687-.365-4.037h.445Zm.085-4.319h-.476l-.049-.546.526.469Zm.023-1.219-.814-2.255-.051-.575h.921Zm.072-3.681-1.216-3.1.246-.055.992,2.072Zm-.788-3.532.158.014-.125.028Zm.821,1.822-.406-.848.412.518Zm.016-.773-.608-.763.626-.141Zm.024-1.26-1.054-.088-.183-.38,1.242.226Zm.011-.528-.228-.042h.229Zm.007-.421-.542-.875.568-.5Zm.034-1.753-.726.635-.108-.173.846-1.066Zm.021-1.068-1.013,1.274-.732-1.183,1.752-.491Zm.124-3.214-.055-.864,1.472,2.059Zm.033,9.582.01-.551.53.665-.3.393Zm.05-2.567,0-.222,1.166.211.4,1.264-.9,1.2-.7-.875.025-1.317a.141.141,0,0,0,.091-.139A.138.138,0,0,0,529.078,453.223Zm.054-4.881,1.078.018-1.059.295Zm.145,1.776-.141.123.011-.538Zm.092.293.605,1.93h-.88l.034-1.719Zm.694,2.211.089.288-1.065-.194,0-.094Zm.3,0h.885l-.8.287Zm.39,2.185.612,1.949-.784-.037-.652-.819Zm-1.34,1.777.34-.453.454.571-.756-.035Zm2,4.191-1.828-3.821,1.865.087.619,1.971Zm.169.352.624-1.677.573,1.827-1.076.1Zm.251.525,1.033-.1,2.058,6.56Zm2.7,4.274-1.381-4.4.466-.045Zm-.973-4.723-.495.048-.7-2.23.481-1.29Zm-.822-3.993-.51,1.372-.479-1.526.967.045Zm-.08-.394-1-.047-.7-2.238.966-1.282Zm-.81-3.935-.995,1.32-.322-1.024,1.283-.46Zm-.112-.541h-1.375l.848-2.558Zm-.64-3.111-.927,2.794-.569-1.815,1.438-1.258Zm-.123-.6-1.465,1.281-.308-.982,1.735-.486Zm-1.86-.575-.093-1.461,1.766,1.489Zm1.592-.73-1.628-2.278,1.086-.356Zm-1.8-2.518-.029-.449,1.205.063Zm1.143-.671-1.19-.061-.094-1.466,1.284,1.522Zm-.256-1.242-1.15-2.192-.01-.168.623-.253Zm-.622-3.029-.584-.049-.082-1.269.624,1.126Zm-.812-3.941.582,2.827-.477-.858-.126-1.966Zm-.027,4.318-.632-.216.621.051Zm-.029-.449-1.3-.108-.073-.309.941-1.97.316.567Zm-1.43-.954.408-2.492.421.757Zm1.271-1.52-.125-.224.1-.2Zm-.064-1-.228.478-.419-.753.625-.077Zm-.162-2.531.122,1.9-.662.08.42-2.563Zm-.28-1.357-.962,5.877-1.058-4.467-.084-.929,2-.989Zm-.19-1.021-1.216-.691.114-.23,1.1.906Zm-.059-.427-.916-.754.635-1.285Zm-.349-2.538-.79,1.6-.965-.794,0-.049,1.729-.965Zm-.113-.82-.878-.969.537-1.513Zm-.436-3.172-1.467.858-.013-.2.46-1.315,1.018.643Zm-.11-.8-.623-.679.38-1.089Zm1.318-5.134-1.412-.048,1.593-.5.117.013Zm.316.011.284-.507.026,0,.755.541Zm1.556.044-.666-.479.8.1Zm-.708-.909,1.152-.361-.167.479Zm1.444.945-.445-.016.13-.369.64.077Zm.395.014.267-.253a.137.137,0,0,0,.018-.026l3.373.406Zm3.683-.3-3.372-1.13v-.454l3.538,1.6Zm2.986,3.435a1.412,1.412,0,0,1-.418,1.263,1.882,1.882,0,0,1-1.558.42,2.105,2.105,0,0,1-1.339-1.291,1.037,1.037,0,0,1-.029-.618.35.35,0,0,0,.427-.141.272.272,0,0,0,.022-.079.28.28,0,0,0,.142-.132.26.26,0,0,0,.024-.114.3.3,0,0,0,.245-.157.247.247,0,0,0,.025-.116.274.274,0,0,0,.139-.129v0a.3.3,0,0,0,.221-.154.283.283,0,0,0,.023-.092.275.275,0,0,0,.141-.131.3.3,0,0,0,.022-.073.288.288,0,0,0,.2-.151.248.248,0,0,0,.023-.095.275.275,0,0,0,.141-.132.309.309,0,0,0-.055-.327l.245-.282.168,0h.007a.2.2,0,0,0,.119-.037.377.377,0,0,0,.2.07.368.368,0,0,0,.114-.013.4.4,0,0,0,.085.013.346.346,0,0,0,.111-.013.416.416,0,0,0,.083.013.383.383,0,0,0,.224-.059.991.991,0,0,1,.284-.071.366.366,0,0,0,.085.012.333.333,0,0,0,.11-.012.316.316,0,0,0,.084.012.368.368,0,0,0,.2-.046A5.179,5.179,0,0,0,537.371,421.762Z" transform="translate(-507.181 -393.781)"/>
</svg>
