<svg id="Group_23904" data-name="Group 23904" xmlns="http://www.w3.org/2000/svg" width="27.243" height="98.148" viewBox="0 0 27.243 98.148">
  <path id="Path_20364" data-name="Path 20364" d="M522.492,94.433c0-.057-.174-.1-.4-.111v-.095a.086.086,0,0,0-.08-.09.085.085,0,0,0-.08.09v.1c-.2.012-.35.056-.35.109s.15.1.35.109v.137c-.2.011-.35.056-.35.109s.15.1.35.109v.137c-.2.012-.35.056-.35.109s.15.1.35.109v.137c-.2.011-.35.056-.35.109s.15.1.35.109v.136c-.2.012-.35.056-.35.109s.15.1.35.109V96.1c-.2.011-.35.055-.35.109s.15.1.35.109v.137c-.2.011-.35.056-.35.109s.15.1.35.109v.137c-.2.012-.35.056-.35.109s.15.1.35.109v.137c-.2.012-.35.056-.35.109s.15.1.35.109v.136c-.2.011-.35.056-.35.109s.15.1.35.109v.136c-.2.011-.35.056-.35.109s.15.1.35.109v.137c-.2.013-.35.056-.35.109s.15.1.35.109v.137c-.2.012-.35.055-.35.109s.15.1.35.109v.137c-.2.012-.35.056-.35.109s.15.1.35.109v.071a.085.085,0,0,0,.08.091.086.086,0,0,0,.08-.091v-.069c.224-.007.4-.053.4-.111s-.174-.1-.4-.11V98.8c.224-.006.4-.053.4-.111s-.174-.1-.4-.11v-.134c.224-.007.4-.053.4-.111s-.174-.1-.4-.11v-.134c.224-.007.4-.053.4-.111s-.174-.1-.4-.11v-.133c.224-.007.4-.053.4-.111s-.174-.1-.4-.111v-.134c.224-.006.4-.053.4-.11s-.174-.1-.4-.11v-.134c.224-.007.4-.054.4-.111s-.174-.1-.4-.11v-.133c.224-.007.4-.054.4-.111s-.174-.1-.4-.11v-.133c.224-.008.4-.054.4-.111s-.174-.1-.4-.11v-.133c.224-.007.4-.054.4-.111s-.174-.1-.4-.111v-.133c.224-.008.4-.054.4-.111s-.174-.1-.4-.111v-.133c.224-.008.4-.054.4-.111s-.174-.1-.4-.11V94.9c.224-.007.4-.054.4-.111s-.174-.1-.4-.11v-.133C522.318,94.537,522.492,94.491,522.492,94.433Z" transform="translate(-517.104 -50.901)"/>
  <path id="Path_20365" data-name="Path 20365" d="M561.181,99.906c0-.057-.174-.1-.4-.11v-.1a.081.081,0,1,0-.16,0v.1c-.2.012-.35.056-.35.109s.15.1.35.11v.136c-.2.012-.35.056-.35.109s.15.1.35.109v.136c-.2.012-.35.056-.35.109s.15.1.35.109v.137c-.2.012-.35.056-.35.109s.15.1.35.109v.137c-.2.012-.35.056-.35.109s.15.1.35.109v.137c-.2.012-.35.056-.35.109s.15.1.35.109v.137c-.2.011-.35.056-.35.109s.15.1.35.109v.136c-.2.011-.35.056-.35.109s.15.1.35.109v.136c-.2.012-.35.055-.35.109s.15.1.35.109v.136c-.2.012-.35.057-.35.109s.15.1.35.109v.137c-.2.011-.35.055-.35.109s.15.1.35.109v.137c-.2.011-.35.055-.35.109s.15.1.35.109v.136c-.2.012-.35.056-.35.109s.15.1.35.109v.137c-.2.012-.35.055-.35.109s.15.1.35.109v.071a.081.081,0,1,0,.16,0v-.069c.225-.007.4-.054.4-.111s-.174-.1-.4-.11v-.134c.225-.007.4-.053.4-.11s-.174-.1-.4-.111v-.134c.225-.007.4-.053.4-.11s-.174-.1-.4-.111v-.134c.225-.006.4-.053.4-.111s-.174-.1-.4-.11v-.133c.225-.007.4-.054.4-.111s-.174-.1-.4-.111v-.133c.225-.008.4-.054.4-.111s-.174-.1-.4-.11V102.5c.225-.007.4-.054.4-.111s-.174-.1-.4-.111v-.133c.225-.007.4-.054.4-.111s-.174-.1-.4-.11v-.134c.225-.007.4-.054.4-.11s-.174-.1-.4-.111v-.133c.225-.007.4-.054.4-.111s-.174-.1-.4-.111v-.133c.225-.007.4-.054.4-.112s-.174-.1-.4-.11v-.133c.225-.008.4-.054.4-.111s-.174-.1-.4-.111v-.134c.225-.007.4-.053.4-.11s-.174-.1-.4-.111v-.133C561.007,100.011,561.181,99.964,561.181,99.906Z" transform="translate(-537.459 -53.781)"/>
  <path id="Path_20366" data-name="Path 20366" d="M539.374,35.632c0-.057-.173-.1-.4-.11v-.134c.225-.006.4-.053.4-.111s-.173-.1-.4-.11V35.12a.106.106,0,0,0,.025-.063V34.5l.135.018h.013a.1.1,0,0,0,.048-.013l.009-.006a.119.119,0,0,0,.033-.035h0a.041.041,0,0,0,0-.012c0-.005,0-.011.006-.017v0c0-.007,0-.014,0-.022a.162.162,0,0,0,0-.017.138.138,0,0,0-.007-.019c0-.005,0-.011-.008-.016a.109.109,0,0,0-.012-.014.08.08,0,0,0-.016-.013l0,0-9.882-6.373-.8-10.113,5.035.709v.415a.1.1,0,0,0,.022.063v.059c-.2.011-.351.056-.351.109s.151.1.351.109v.137c-.2.011-.351.055-.351.109s.151.1.351.109V19.8c-.2.012-.351.056-.351.109s.151.1.351.109v.137c-.2.012-.351.056-.351.109s.151.1.351.109v.137c-.2.011-.351.056-.351.109s.151.1.351.109v.137c-.2.012-.351.056-.351.109s.151.1.351.109v.137c-.2.012-.351.056-.351.109s.151.1.351.109v.137c-.2.012-.351.056-.351.109s.151.1.351.109v.137c-.2.011-.351.055-.351.108s.151.1.351.109v.137c-.2.012-.351.055-.351.109s.151.1.351.109v.137c-.2.012-.351.055-.351.108s.151.1.351.109v.137c-.2.011-.351.055-.351.109s.151.1.351.109v.137c-.2.011-.351.055-.351.109s.151.1.351.109V23.7c-.2.011-.351.055-.351.109s.151.1.351.109v.071a.081.081,0,1,0,.16,0v-.069c.225-.007.4-.054.4-.11s-.174-.1-.4-.111v-.133c.225-.007.4-.053.4-.11s-.174-.1-.4-.111v-.133c.225-.007.4-.054.4-.111s-.174-.1-.4-.111v-.134c.225-.007.4-.054.4-.111s-.174-.1-.4-.11V22.5c.225-.007.4-.054.4-.111s-.174-.1-.4-.111v-.133c.225-.007.4-.053.4-.111s-.174-.1-.4-.111v-.133c.225-.007.4-.053.4-.111s-.174-.1-.4-.111v-.133c.225-.007.4-.054.4-.111s-.174-.1-.4-.111v-.133c.225-.007.4-.054.4-.111s-.174-.1-.4-.111v-.134c.225-.006.4-.053.4-.111s-.174-.1-.4-.111v-.133c.225-.007.4-.054.4-.111s-.174-.1-.4-.111v-.133c.225-.007.4-.054.4-.111s-.174-.1-.4-.111v-.133c.225-.008.4-.054.4-.111s-.174-.1-.4-.111v-.133c.225-.007.4-.054.4-.111s-.174-.1-.4-.11V19.03a.1.1,0,0,0,.026-.066v-.386l.079.011h.017a.1.1,0,0,0,.106-.1.113.113,0,0,0-.026-.069.115.115,0,0,0,.026-.07.1.1,0,0,0-.061-.1l-5.62-4.292c0-.006.006-.011.006-.017a.108.108,0,0,0-.026-.082l-.094-.1L526.457,3.63l.037-.248a.1.1,0,0,0-.075-.116l-.449-.123a.1.1,0,0,0-.07-.029h-.033l-.779-.213a.1.1,0,0,0-.094.02l-.223.182v0a.1.1,0,0,0-.026.036.037.037,0,0,0,0,.014.113.113,0,0,0-.005.023l-.025.521a.1.1,0,0,0,.024.071v.016c-.2.011-.35.056-.35.109s.15.1.35.11v.329c0,.007.036.013.08.013s.079-.006.079-.013V4.007c.224-.006.4-.054.4-.111s-.175-.1-.4-.11V3.771a.1.1,0,0,0,.024-.06l.017-.364.526.254-.433,2.943h0l-.532,3.618h0l-.268,1.813v0l-.242,1.646-5.993.794h0a.1.1,0,0,0-.025.009.03.03,0,0,0-.011,0,.1.1,0,0,0-.019.016s-.008,0-.01.009l-.01.019c0,.005-.005.01-.008.015v0a.153.153,0,0,0,0,.02s0,.009,0,.014h0a.083.083,0,0,0,.008.03l0,.008a.086.086,0,0,0,.022.031.148.148,0,0,0,.021.013l.01.007h0l.1.042-.023.57a.1.1,0,0,0,.023.069v.033c-.2.011-.351.055-.351.108s.15.1.351.109v.137c-.2.011-.351.055-.351.109s.15.1.351.109v.137c-.2.011-.351.055-.351.109s.15.1.351.109V16.4c-.2.012-.351.056-.351.109s.15.1.351.109v.137c-.2.012-.351.056-.351.109s.15.1.351.108v.137c-.2.012-.351.056-.351.109s.15.1.351.109v.137c-.2.012-.351.056-.351.109s.15.1.351.109v.137c-.2.012-.351.056-.351.109s.15.1.351.109v.136c-.2.012-.351.056-.351.109s.15.1.351.109v.136c-.2.012-.351.056-.351.109s.15.1.351.109v.136c-.2.012-.351.056-.351.109s.15.1.351.11v.136c-.2.011-.351.055-.351.109s.15.1.351.109v.137c-.2.012-.351.056-.351.109s.15.1.351.109v.137c-.2.012-.351.056-.351.109s.15.1.351.109v.071a.086.086,0,0,0,.08.091.086.086,0,0,0,.08-.091v-.069c.225-.006.4-.054.4-.111s-.175-.1-.4-.11V19.81c.225-.006.4-.052.4-.11s-.175-.1-.4-.11v-.133c.225-.007.4-.053.4-.111s-.175-.1-.4-.11V19.1c.225-.007.4-.054.4-.112s-.175-.1-.4-.11v-.134c.225-.007.4-.053.4-.111s-.175-.1-.4-.11v-.134c.225-.007.4-.054.4-.111s-.175-.1-.4-.11v-.134c.225-.007.4-.054.4-.111s-.175-.1-.4-.11v-.133c.225-.007.4-.054.4-.111s-.175-.1-.4-.111v-.133c.225-.007.4-.054.4-.111s-.175-.1-.4-.111v-.133c.225-.007.4-.054.4-.111s-.175-.1-.4-.111v-.133c.225-.007.4-.054.4-.111s-.175-.1-.4-.11v-.134c.225-.007.4-.054.4-.111s-.175-.1-.4-.111v-.133c.225-.008.4-.054.4-.112s-.175-.1-.4-.111v-.133c.225-.007.4-.054.4-.111s-.175-.1-.4-.11V15.3a.1.1,0,0,0,.026-.061l.019-.494,3.293,1.358.012.005,2.124.876-.634,10.58-10.846,1.46s0,0-.005,0a.092.092,0,0,0-.023.008l-.014.006a.115.115,0,0,0-.017.015l-.012.012s-.006.011-.008.017a.06.06,0,0,0-.008.018v0a.065.065,0,0,0,0,.017.077.077,0,0,0,0,.016v0a.132.132,0,0,0,.007.023s0,.009.006.014a.134.134,0,0,0,.017.021s0,.006.007.008a.089.089,0,0,0,.024.014l.01.005h0l.312.089-.061.681a.1.1,0,0,0,.013.056c-.195.012-.339.056-.339.108s.148.1.35.109v.136c-.2.012-.35.056-.35.109s.148.1.35.11v.136c-.2.012-.35.056-.35.109s.148.1.35.109v.136c-.2.012-.35.056-.35.109s.148.1.35.109v.136c-.2.012-.35.056-.35.109s.148.1.35.109v.137c-.2.012-.35.056-.35.109s.148.1.35.109v.137c-.2.012-.35.056-.35.109s.148.1.35.109v.137c-.2.012-.35.056-.35.109s.148.1.35.109v.137c-.2.012-.35.056-.35.109s.148.1.35.11v.137c-.2.011-.35.055-.35.108s.148.1.35.109V33.6c-.2.012-.35.055-.35.109s.148.1.35.109v.137c-.2.011-.35.055-.35.109s.148.1.35.109v.137c-.2.011-.35.056-.35.109s.148.1.35.109v.137c-.2.011-.35.056-.35.109s.148.1.35.109v.072a.085.085,0,0,0,.08.09.086.086,0,0,0,.079-.09v-.069c.225-.008.4-.054.4-.111s-.174-.1-.4-.111v-.134c.225-.007.4-.053.4-.111s-.174-.1-.4-.111v-.133c.225-.007.4-.054.4-.111s-.174-.1-.4-.11v-.133c.225-.007.4-.054.4-.111s-.174-.1-.4-.111v-.133c.225-.007.4-.054.4-.111s-.174-.1-.4-.11v-.133c.225-.007.4-.054.4-.111s-.174-.1-.4-.11v-.133c.225-.007.4-.054.4-.111s-.174-.1-.4-.111V32.4c.225-.007.4-.054.4-.111s-.174-.1-.4-.111v-.133c.225-.007.4-.054.4-.111s-.174-.1-.4-.11v-.134c.225-.007.4-.054.4-.11s-.174-.1-.4-.111v-.133c.225-.007.4-.054.4-.111s-.174-.1-.4-.111v-.133c.225-.007.4-.054.4-.111s-.174-.1-.4-.111v-.133c.225-.007.4-.054.4-.111s-.174-.1-.4-.11v-.134c.225-.007.4-.055.4-.111s-.167-.1-.384-.11a.162.162,0,0,0,.01-.034l.058-.643,7.462,2.109.005,0,2.62.74-.573,10.64-5.447,2.265a.088.088,0,0,0-.042.026h0a.121.121,0,0,0-.02.028s0,.009,0,.015a.074.074,0,0,0,0,.014s0,0,0,.007,0,.012,0,.018,0,.014,0,.021v.008s0,0,.006.007a.071.071,0,0,0,.012.02l.012.012a.089.089,0,0,0,.017.011.076.076,0,0,0,.017.008l.006,0,5.235,1.37-1.208,22.452h0l-1.7,31.472a.1.1,0,0,0,0,.066l-.006.105v.006a.086.086,0,0,0,0,.019.129.129,0,0,0,0,.018.146.146,0,0,0,.013.022.077.077,0,0,0,.007.012h0a.083.083,0,0,0,.026.017l.007.006a.1.1,0,0,0,.036.009h0l4.73.139h0a.078.078,0,0,0,.018,0l.118,0h.006l5.63-.146h0l5.079-.132a.1.1,0,0,0,.045-.013l.011-.006h0l0,0a.1.1,0,0,0,.043-.08.08.08,0,0,0-.008-.037l-.525-6.847h0l-3.525-45.909,4.741.315h.008a.09.09,0,0,0,.041-.009l.011-.006a.14.14,0,0,0,.026-.02s0,0,.006-.005l0,0a.121.121,0,0,0,.008-.018.059.059,0,0,0,.006-.017l0,0v-.011a.148.148,0,0,0,0-.021.1.1,0,0,0,0-.017.048.048,0,0,0-.007-.018.04.04,0,0,0-.01-.015.036.036,0,0,0-.008-.01l-5.224-5.37-.715-9.318,3.416.435,0,0h0a.1.1,0,0,0,.046.03.041.041,0,0,0,.013,0c.005,0,.008,0,.013,0h.01a.122.122,0,0,0,.026,0h.006l.05-.016,5.472.7v.584a.1.1,0,0,0,.026.066v.045c-.2.012-.351.056-.351.109s.149.1.351.109v.137c-.2.012-.351.055-.351.109s.149.1.351.109v.137c-.2.011-.351.055-.351.109s.149.1.351.109v.137c-.2.011-.351.056-.351.109s.149.1.351.109v.137c-.2.011-.351.056-.351.109s.149.1.351.109v.137c-.2.012-.351.056-.351.109s.149.1.351.109V37.3c-.2.011-.351.055-.351.109s.149.1.351.109v.137c-.2.011-.351.055-.351.109s.149.1.351.109v.137c-.2.012-.351.056-.351.109s.149.1.351.11v.137c-.2.011-.351.055-.351.109s.149.1.351.109v.137c-.2.012-.351.055-.351.109s.149.1.351.109v.137c-.2.012-.351.055-.351.109s.149.1.351.109v.137c-.2.012-.351.055-.351.109s.149.1.351.109v.137c-.2.011-.351.056-.351.109s.149.1.351.109v.072a.08.08,0,1,0,.159,0V40c.225-.007.4-.054.4-.111s-.173-.1-.4-.111v-.133c.225-.008.4-.054.4-.111s-.173-.1-.4-.111v-.132c.225-.007.4-.054.4-.111s-.173-.1-.4-.111v-.133c.225-.007.4-.054.4-.11s-.173-.1-.4-.111v-.133c.225-.008.4-.054.4-.111s-.173-.1-.4-.111v-.133c.225-.007.4-.054.4-.112s-.173-.1-.4-.11v-.134c.225-.007.4-.054.4-.11s-.173-.1-.4-.111v-.133c.225-.008.4-.054.4-.111s-.173-.1-.4-.111v-.133c.225-.007.4-.053.4-.111s-.173-.1-.4-.111v-.133c.225-.007.4-.053.4-.11s-.173-.1-.4-.111v-.134c.225-.007.4-.053.4-.111s-.173-.1-.4-.111V36.1c.225-.007.4-.054.4-.111s-.173-.1-.4-.111v-.133C539.2,35.737,539.374,35.69,539.374,35.632Zm-3.761-2.047.4.106-.432.111Zm.032-.207.049-.31.626.264v.225Zm-5-.552.7-.041-.741.348Zm2.077,13.544-1.3-.716,1.3-.295Zm.209.354,1.735.959-1.743-.538a.1.1,0,0,0,.008-.038Zm-.209.3-.1.027-1.453-.448-.067-.768.063-.088,1.555.859Zm-.478.128-1,.266-.052-.591Zm.8,32.013-1.086-.8.914-1.442Zm.439,5.714-1.181-.774,1.006-1.5Zm.443,5.776-1.334-.826,1.143-1.664Zm.74,9.655-1.621-2.173,1.37-1.1Zm-4.914.377-.175-.118.418-.014,1.8.078Zm-10.227-3.635,1.318,1.155-1.493,2.088Zm.158-2.938,1.109,1.825-1.245.707ZM520,88.306l1.253,1.752-1.392.817Zm.16-2.974,1.082.672-1.208,1.654Zm.307-5.7.991.662-1.112,1.576Zm.307-5.729.977.707-1.1,1.678Zm.138-2.562L522,72.916l-1.208.617Zm.378-7,.734.542-.834,1.306Zm.253-4.684.642.5-.732,1.161Zm.248-4.625.6.484-.679,1.073Zm.236-4.376.572.476-.652,1.007Zm-1.983-5.215,1.023.035.036.044-1.06.377Zm2.594-6.138.458.433-.532.948Zm.186-3.45.341.306-.395.7ZM523.429,25l.313.422-.382.744Zm.169-2.822.206.216-.244.42Zm.165-2.757.242.3-.29.51Zm-2.138-4.247.515.078.074.081-.667.4Zm1.067-1.065.521.337-.514,0Zm.844.546.294.19-.027.447-1.088-.165-.011-.477Zm1.881-9.333.312.362,0,.073-.444.484Zm.984-.779-.123-.109.08-.146Zm.831,4.89-.383-.492.2-.575Zm3.347,7.361-.746-.327.76-.37Zm-.953.635.619-.032-.619.211Zm6.7,15.677-.411-.173.411-.133Zm-.7-.3-1-.424v-.774l1.572,1.013Zm-1-.2.668.281-.668.16Zm-1.393.126-.734-.194v-.058l.8-.374a.089.089,0,0,0-.009.027Zm-2.346,12.849.017.192-.178.245-.042-.549Zm3.71,54.962-4.3-.186,2.6-2.093,1.7,2.279Zm-15.251.139L521,98.348l2.523,2.21-4.2.135Zm2.45-55.186.312.009-.045.837-.6-.729Zm.557-.648.437.472-.461-.015Zm-2.452-13.94-.8-.707.8.114Zm-2.173-.9.679.1-.656.307a.157.157,0,0,0-.023.017Zm0-1.113.937-.056v1.022l-.937-.593Zm-.208.24-.328-.208.328-.02Zm1.145-.506-.517.031.517-.249Zm2.109,1.1.475.568-1.139-.162v-.906Zm-.663-.761v-.029l.067.08Zm1.4,1.319.076.058-.031,0Zm-.6-.71-.7-.834,1.369-.083.129,1.52Zm-.4-1.061,1.013-.5.036.431Zm-.621.295-.058-.045.058,0Zm0,.261v1.033l-1.028-.145V28.83l.648-.04Zm-1.6.806-.575-.082v-.282Zm1.807.467,1.339.19.009.013-1.349.607Zm1.488.369.4.473-1.632.083Zm.2-.089.068-.031,1.041.148-.022.4-.625.031Zm.761-15.247.092-.055,1.156.175-.024.4h-.745Zm.2.525h-1.081l.7-.416Zm1.309-1.224.133.027.9.7-1.035-.669Zm2.277-9.392-.258-.471.108-.2.261.232Zm-.532,5.64.048-1.773L526,9.016l.061,1.713Zm.272.055.016.446-.244-.271Zm-.13-3.615-.047.059.021-.776Zm-.026.369.038-.048,0,.1Zm.054.409,0,.087-.08-.186Zm0,.609-.117.107.01-.353Zm.314,1.8.486-1.379.49.629-.976.75Zm-.039-.517-.058-1.609.43.551Zm-.071-1.965-.022-.634.119-.15.7.69-.269.766Zm-.03-1.2.257-1.015.3.553-.453.57Zm-.037-.7-.033-.916.181.331Zm-.07-1.956-.014-.345.248.118a.085.085,0,0,0,.012,0l-.162.3Zm-.318,2-.327.68-.135-.314.466-.508Zm-.013.51-.023.84L525.5,7.15Zm-.037,1.334-.027,1-.052.048-.575-.951.367-.764Zm-.056,1.491-.58,1.012-.29-.38.8-.744Zm.006.41-.036,1.324-.413-.542Zm.169,1.449.312.346.008.218-.323-.425Zm3.634,5.229-.064.017-.945-.36-.011-.229,1.019.446ZM528.08,36.29l-.533.332-.255-.236-.071-1.625,1.133,1.01Zm.369,3.5-.8.4-.193-.169-.075-1.706,1.228,1.159Zm.4,11.708-.788.471-.09-.072-.1-2.179,1.321,1.208Zm1.241,48.62-.148-3.355h0l-.114-2.591,2.189,2.935Zm-6.968-32.088,1.391-.786-.06,3.028-1.622-1.841Zm.707-25.662.055-.085,1.136-.562-.031,1.535-.322-.052Zm.486.779-.9-.145.3-.456Zm-.146-8.349.884-.586.114.1-.032,1.657-1.043-1.037Zm.5-10.732.465-.267.219.229-.018,1.179-.8-.884Zm.006-2.771.382-.248.334.417-.014.883-.826-.837Zm.955-1.81.005-.331.711.809-.731.474.011-.782.023-.04A.1.1,0,0,0,525.636,19.487Zm2.4-5.236-.29,1.3-.183-.08-.6-.6,1.063-.709ZM525.676,16.8l.214-.026.289.512-.508-.1Zm.778-1.579.987.433.232.232-.045.205-1.178-.3-.021-.55Zm1.375.922.018-.082.116.117Zm-.247.152-.014.064-1.076.132-.014-.015-.019-.47Zm-1.4.569-.066-.117.044-.006Zm.481.508-.151-.021-.022-.556.4.425Zm-.411-1.358-.012-.064.009,0ZM526.037,16l-.13-.139.11.028Zm.062.373.027.16-.122.016-.315-.562v-.054Zm-.416.028.1.174-.1.012Zm.64,1.452.044,1.118-.643-.708Zm.2-.138.187-.128.34.048-.5.641Zm.725-.5.15-.1-.015.066Zm-.191-.122-.392-.421.853-.1-.055.247Zm.681-.552.154-.018-.177.12Zm.44-.449-.216-.217.206.09Zm-.24-.454.151-.678.06.771Zm-.9-.395-.38-.166.128-.086Zm-.607-.265-.014-.006-.014-.365.233.234Zm-.208.39.014.36-.037-.01-.05-.3Zm-.11-.177-.014-.088.111.023Zm-.134.471-.141-.036.122-.081Zm-.5.244h-.048l.048-.035Zm0,.209-.008.5-1.26.154.926-.649Zm-1.552.594.036-.594h.81Zm1.54.112,0,.319-1-.2Zm.824.7.015.086-.645.35.008-.56Zm-.85,1.1-.182-.206.185-.1Zm.21-.121.729.8.015.4-.749-.851Zm1.647,4.052-.132.087-.468-.517-.037-.961.89.889Zm.143,3.27-.085.065-.533-.609-.039-.995.954.93Zm1.643,2.358-.83.592-.048-.053.307-.714.493.086Zm-2.384-.7-.887-.153.855-.653Zm.009.214.041,1.084-1.185-1.261.021-.017Zm-1.225,1.371,1.139.232-1.161.856Zm1.294.377.016.374-1.344.961.007-.36ZM525.5,30.984l1.3-.929.053,1.212-1.316-.245Zm-.262-.211-.131-.11.135-.1Zm-.12.172-.314-.058.13-.1Zm-.544.111.023,0h-.03Zm.873.17.691.68-.715.031.014-.71Zm.9.88.575.566,0,.054-.01.006-1.5-.259.007-.327Zm.285-.012.264-.011.012.283Zm-.2-.2-.62-.611,1.06.2.019.394Zm.58-1.985.317-.227.16.17-.435,1.009Zm.562-.271.007,0,0,0Zm.082-.19.009-.007,0,.009Zm-.47.081-.185.132-.011-.269.11.047Zm-1.672-1.778,1.255,1.334V29.1l-1.277-.26Zm-.233,1.261,0,.128-.117-.153Zm-.027,1.287-.3.225-.054-.046.369-.637Zm-1.057.781-.351.018-.249-.226.7.131Zm-.164.469-.265.458-.506.021.717-.529Zm.158.143.312.283L524.01,32Zm.107-.185.135-.231.8-.04-.014.708-.423.018Zm.921.646-.005.186-.195-.177Zm1.447.745-1.27.843.021-1.058Zm.464-.318-.022-.508.579-.025.275.228-.755.379Zm-.032-.716-.013-.315.362.3Zm.36-.277.966.179-.022.042-.643.027Zm1.677.1-.4-.073.145-.279.306.325Zm-.61-.113-1.4-.26-.032-.025.549-1.272,1.088,1.156Zm-.788-1.765.036-.087,1.406.593-.345.662Zm.12-.277.139-.325.237-.169,1,1.077Zm.2-.989-.7-.749.951.164Zm-.09.209-.139.319-.394.282-.205-.088L526.968,29l-.05-1.279.092.016Zm-1.088-2.243.363-.278-.347.708Zm-1.509-2.777-.036-.038.038-.02Zm.211-.179.95-.544,0,.042-.953.629Zm.028-1.831.863,1.081-.887.508Zm.877.151-.816-.9.759-.549Zm-.863-1.125V20.69l.781-.507Zm-.214.39-.162-.2.166-.109Zm.206.083.884.977.013.323-.9-1.125Zm1.1,1.217.279.308-.26.172Zm-.175.857.067,1.724-.981-1.121Zm.3,2.306.353.4-.328.25Zm-.1-2.439.368-.244-.351.694Zm-.114-2.886.29-.209-.279.468Zm-.01-.25-.018-.492.277.305Zm-1.206.55-.3.2-.072-.089.381-.657Zm-.477.31-.02.013.013-.022Zm.435,2.546-.189.108-.15-.159.35-.681Zm-.376.214-.142.082.077-.151Zm.572.6,1.006,1.057-1.035.907Zm1.06,1.287.034.876-1.125.86-.015,0,.012-.775Zm-1.313,1.652-.225-.3.234-.2Zm-.005.342-.025,1.274-.32-.065-.605-.785.182-.373.732-.1Zm-.657,1.145-.585-.119.191-.392Zm.194.253.4.523-.518.9-1.09-.914.33-.683Zm-.222,1.6-.169.295-1.155-.214-.16-.145.408-.838ZM523.2,30.8l.344.313-.467.024.018-.355Zm.563.51.052.046-.78.575.032-.586Zm.953.865.242.219-1.065-.184Zm.462,1.707-.1.069-.281-.254.4-.714Zm-.284.187-.5.331.291-.517Zm2.179,2.116-.01-.009.009-.006Zm.032.712-1.8,1.121.013-.65,1.569-1.071.2.184Zm.2-.214.059.053-.055.034Zm-.07,3.15-1.855-1.615,1.737-1.082Zm.024.55-2.02,1,.059-2.96,1.949,1.7Zm.08,1.819L525.8,42.01l-.468-.442,1.933-.958Zm.583,1.514.675-.256-.079.137-.443.2Zm-.164,8.007-.1-.08.093-.051Zm.019.418-2.12,1.267-.473-.394,2.279-1.261.308.248Zm.138,3.149-2.088-1.74,1.961-1.172Zm.2,4.6L525.78,58l2.2-1.272Zm.212,4.8-2.429-1.9,2.285-1.35Zm.207,4.741-2.432-1.8L528.4,66.3Zm.2,4.607-2.7-1.726,2.456-1.261.11.07Zm.243,5.55L526.5,77.795l2.32-1.49.013.009Zm.248,5.643-2.6-1.736,2.262-1.379.209.136ZM524.3,88.51l.5-.294,1.721,1.069-2.265,1.381Zm.768-38.686,2.215,1.789-2.276,1.259h0Zm2.886,6.449-.424-.333.4-.239Zm-.244,9.168.631-.357.037.842Zm.575.677L525.919,67.5l-.8-.591,2.4-1.353Zm-.762-.811-2.639-1.915.818-.483,2.548,1.988Zm-2.72-2.11.019-.977.7.551Zm.189-1.109,2.475-1.417.694.543-2.441,1.443Zm-.164-.146.064-3.285,2.4,1.875Zm.151-3.482.605-.351,2.459,1.991-.559.32Zm-.077-.2.013-.7.5.4Zm.08-4.059,2.182,1.713-2.242,1.339Zm.08,3.212,2.278-1.361.582.459-2.317,1.341Zm2.293-1.613-2.29-1.8.57-.339,2.213,1.844Zm-2.365-2,.014-.668.46.384Zm-.194,9.777,2.529,1.835-2.393,1.352-.2-.145Zm-.063,3.3h0v0Zm.184.135.8.594-1.017.593.022-1.079Zm.988.729,2.545,1.878-.985.5L524.8,68.395Zm-1.208.832,2.554,1.659L524.778,71.5l-.137-.087Zm2.755,1.79.845.548-2.458,1.263-.858-.551Zm-2.686,1.37.858.551-1.011.519.02-1Zm-.16,1.447,2.608,1.929-2.386,1.467-.287-.207Zm2.789,2.062,1.248.924-2.322,1.491-1.31-.949Zm.192-.118,1.166-.717.071,1.631Zm-.18-.134-2.7-2,1.125-.577,2.826,1.81Zm-2.771,1.7-.1.063,0-.134Zm.183.133,1.315.952-1.641,1.052.037-1.826Zm-.061,5.414-.328-.219,0-.074h0l.053-2.731,2.55,1.675Zm2.472-1.223,1.467.963-2.262,1.378-1.484-.99Zm-2.653-1.992,1.737-1.117,2.589,1.875-1.668.988Zm-.018,3.332-.138.082,0-.171Zm.192.128,1.486.992-1.86,1.132.04-1.925Zm.054,5.479-.487-.3.053-2.679,2.684,1.661Zm2.45-1.2,1.679,1.039-2.212,1.35L525.008,88.1Zm-2.786-1.968,1.959-1.194,2.716,1.812-1.887,1.108Zm.132,3.286-.3.173.007-.353Zm2.12,1.315,2.663,1.654-2.249,1.278-2.775-1.49Zm.2-.121,2.211-1.35.219.136,0,.082h0l.12,2.718Zm2.411-1.472.009,0v.01Zm-.2-.123-1.674-1.035,1.785-1.048.086,1.964Zm-.24-5.824-1.464-.961L529,79.977l.078,1.78Zm-.383-11.059-.844-.549.884-.451.043.958Zm-.847-10.251.469-.268.029.658Zm-.181-9.055-2.326-1.875.241-.13,2.266,1.905Zm-2.405-2.069,0-.2.144.121Zm.044-2.2,2.224.374-2.255,1.135ZM525.2,43.5l1.941.313.282.23,0,.052-2.258,1.03Zm.034-1.746.222.21-.226-.028Zm-.01.49,1.595,1.305-1.615-.26Zm.245-.068.243.03,1.319,1.247Zm2.032,3.68-2.067-.384-.181-.157,2.181-1Zm-2.365.786,1.293-.035.9.778-2.2-.371Zm-.216.338-.392-.066-.229-.249.628-.017Zm.236-1.35.033.006h0l.149.028.857.739-1.055.029Zm1.583.968.794-.021.031.735Zm-.234-.2-.759-.655,1.765.328.013.3Zm-1.557-.791-.017.834-.821.022-.374-.4.047-.072.855-.391Zm-1.114.864-.369.01.155-.242Zm.187.2.172.186-.878-.147.012-.02Zm3.721-.1.864-.023.417.4-1.245.458Zm1.16-.031.4-.01-.143.255Zm-.214-.2-.062-.059.287.054Zm-.295.009-.66.018-.011-.254.526.1Zm-.68-.449-.01-.208.269.256Zm-.074-1.669.005,0,.351.288-.318.558Zm.217-.1.211-.1.156.086-.122.211Zm.447-.2.039-.018-.017.03Zm-.627.057-.05-.04-.007-.158s0,0,.006.005l.213.118Zm-1.613-1.731,1.287.161.049,1.1Zm-.956-4.627-.069-.063.071-.049Zm.263-2.733,1.362,1.26-1.407.961Zm1.54,1.14-1.471-1.36.072-.048L527,35.968Zm-1.8,1.225-.237.162-.16-.145.411-.734Zm-.414.282-.215.146.127-.225Zm.16.144.241.218-.039,1.982-1.105-1.252.3-.536Zm.173,3.6-.3-.284.316-.483Zm-.057.234-.86.426.5-.767Zm.015,1.955v.054l-.065-.064Zm-.033,1.594-.372-.322.389-.606Zm-.348-.025-.153-.1.016-.023Zm.09.3-.1.048-.416-.015.166-.257Zm-.528.241-.179.082.055-.086Zm-.53.242-.086.039-.288-.311.536.018Zm-.428.665-.561.015.779-.356Zm1.7.705,0,.141-.154-.166Zm-.031,1.6-.339-.284.355-.547Zm-.166.134-.656.331.369-.572Zm.158.154-.045,2.353-1.269-1.4.275-.426ZM524.8,52.7l-.253-.211.266-.42Zm-.005.267v.021l-.868.481.508-.8Zm0,.263-.052,2.636-1.324-1.587.281-.443Zm-.078,3.9-.247-.2.26-.414Zm-.017.255-.834.5.49-.776Zm.008.239-.058,2.9-1.389-1.68.359-.569Zm-.082,4.171-.257-.2.269-.421Zm-.006.261v0l-.862.494.5-.78Zm0,.246-.063,3.158-1.494-1.813.458-.716Zm-.083,4.169-.181-.135.189-.261Zm-.005.256-.006.273-1.1.623.808-1.118Zm-.091,4.55-.169-.108.176-.267Zm0,.245,0,.154-.745.38.47-.713Zm-.009.39-.079,4.01L522.7,73.553l.751-1.142Zm-.1,4.978-.371.227.376-.533Zm-.006.248-.037,1.89h0l-.052,2.608-1.75-2.429,1.169-1.657Zm-.108,5.431-.361.214.367-.5Zm0,.245-.092,4.664-1.83-2.552,1.252-1.715Zm-.111,5.573-.383.225.39-.5Zm0,.245-.045,2.223h0l-.05,2.49-.224-.127-1.739-2.429,1.338-1.735ZM524.2,93.7l.271.153-.277.157Zm0-.237.048-2.437,2.671,1.433-2.242,1.273Zm2.936-.887,2.068,1.111-2.214,1.352-2.1-1.188Zm.214-.121,2.139-1.216.1,2.215-.176.107Zm2.773,1.766,2.674,1.668-.66,1.031Zm-.334-.892-.214-4.885,2.056,2.41-1.6,2.326Zm-.247-5.646.171-.1-.165.245Zm-.011-.237-.2-4.644,2.017,2.349L530,87.167Zm-.233-5.313-.012-.264.329-.2-.3.476Zm-.023-.5-.184-4.186,1.84,2.146-1.064,1.678Zm-.227-5.159.14.1-.125.215Zm-.011-.269,0-.039.636-.409-.376.639Zm-.012-.28-.169-3.835,1.779,2.029-.729,1.24Zm-.205-4.666.1.064-.091.14ZM528.813,71l0-.113.586-.3-.358.558Zm-.014-.343-.14-3.195,1.683,1.644-.724,1.13Zm-.191-4.313.219.158-.2.34Zm.063-.212.56-.326-.3.516Zm-.081-.194-.143-3.259,1.613,1.693-.619,1.07Zm-.2-4.551.27.211-.241.434Zm.142-.154.491-.29-.261.47Zm-.154-.15-.132-3,1.508,1.542-.53.956Zm-.192-4.368.309.242-.276.491Zm.11-.18.647-.375-.345.612Zm-.125-.168-.127-2.873,1.516,1.57-.417.739Zm-.181-4.112.056-.034.246.2-.275.455Zm.246-.148.386-.23-.22.363Zm-.5-.923-2.138-1.8,2.011-1.084Zm-2.309-1.941-.33-.277,2.486-1.252.016.359Zm2.368-1.457.129.111-.121.066Zm.19-.113.316.021-.18.1Zm.66-.164-.47-.032.745-.274-.127.227Zm.9-.989.347-.009.2.038-.712.262Zm.359-.218-.213-.04.141-.25.345.282Zm-.43-.08-1.125-.209-.63-.6.44-.77,1.509,1.234Zm-1.209-1.762.139-.244,1.678.927-.31.55Zm.243-.425.159-.28.405-.185,1.294,1.063-.183.327Zm.336-.59.023-.041.025.02Zm.208-.161.864-.328-.813.371Zm-.411-.067-1,.38c-.011,0-.017.013-.026.019l-.052-1.181.151.018Zm-.542-.715.975.122-.264.462Zm-.571-.819-.052-1.179.14-.07.365.318Zm.617-.789.581.507-1.064.482Zm-.326-.56.483-.239-.225.463Zm-.5-3.329.2-.126.165.151-.338.64Zm.386-.24.181-.113-.1.188Zm-.651-1.034L525.69,34.5l1.274-.836Zm-1.525-1.374-.149-.135,0-.23,1.548-1.027.021.458Zm1.613-1.346a.116.116,0,0,0,.044.01h0l.082,0,.12.118-.237.155Zm.227-.209.69-.347-.166.317Zm.79-.631-.168-.138.294-.012-.063.119Zm1.217-.612-.4-.423.33-.637.082,1.053Zm.14-1.1,1.116.471-1.04.522Zm-1.12-1.544.751-.536.112,1.46Zm.2-1.118.054-.123.136.156Zm-.211-.036-1.271-.22-.19-.2.514-1.047L528.5,27.5Zm-.848-1.675.068-.138.5-.384.863.841-.382.884Zm.272-.558.084-.172.063.06Zm.181-.37.416-.848.409.452-.69.527Zm-.157-.152L526.8,24l.475-.939.984,1.088Zm-.462-2.149.086-.171.445-.293.814.812-.362.737Zm.275-.546.059-.115.047.046Zm.158-.311.369-.73.4.434-.638.422Zm-.155-.155-.973-.972.45-.756.9.988Zm-.411-1.915.1-.172.278-.2.854.658-.349.691Zm-.195-.215-.461-.507-.018-.467.781.6-.16.27Zm.576-.424.468-.784.252.271-.716.517Zm-.167-.128-.9-.693v-.046l0,0a.1.1,0,0,0,.064.022.105.105,0,0,0,.082-.04l.587-.745h.016l.633.68Zm.182-1.449.63.089-.214.359Zm.016-.771.565-.386.03.394-.636.169Zm.771-.418.585.223-.555.148Zm-1.608-1.8-.394-.395.281-.5,1.123.22Zm-.433-.753-.007-.206.111.022Zm-.174.942-.145-.029-.2-1.218.305.06Zm-.385-1.467-.037-.223.351-.256.021.544Zm.292-1.11.014.379-.381.278-.007-.045.029-1.066Zm-.4,1.74.127.763-.138-.028Zm.164.984.043.26-.228.152.006-.449Zm-.393.4-.841-.653.848.174Zm-.747-.024-.731-.11.021-.348Zm.444.278h0l.128.019-.246.174h-1.095l.022-.373Zm-1.43.4-.033.552-.506-.552Zm1.615,1.218-.414.727-.862-.979Zm.087.269-.007.464-.331.179-.017-.02Zm-.385.906.365.414-.007.383-.628-.553.08-.141Zm-.376.429.73.642V19.6l-.527.909-.639-.8Zm-.577.592-.282-.353.7-.378Zm.668,1.171-.26.448-.2.13-.613-.621.431-.758Zm-.337,1,.8.806-.369.716-.812-.855Zm-.534.508-.242-.254.622-.4Zm.86,1.209-.257.5-.225.129-.733-.812.4-.682Zm-.483.941-.442.86-.353-.475.753-.431Zm.15.166.875.971-.5,1.027-.83-1.118Zm.889,1.422-.007.45-.363.318,0,0Zm-.4,1.074.2.268-.48.065.073-.15Zm-.64.591-.074.155-.055-.072.088-.078Zm-.177.365-.259.534-.507-.1.656-.575Zm-.9.617.544.11-.285.587-.283-.236Zm.164.891-.237.491.035-.662Zm-.522,1.873-.028.521-.419-.5Zm.7,1.007-.083.143-.217-.194Zm.219.038,1.376.237-.515.915-1-.9Zm.754,1.339-.516.915-.122.081-.933-.927.566-.975Zm-.541,1.385,1.086,1.08-.519.926-1.127-1.014Zm-.718.849-.369-.332.887-.588Zm1.181,1.343-.355.632-.463.317-.864-.979.554-.983Zm-.584,1.041-.059.106-.036-.04Zm-.167.3-.5.89-.453-.426.85-.58Zm.146.165,1.182,1.338-.45.689L523.356,39.7Zm.615,2.2-.717,1.1-.108.053-1.07-1.068.686-1.224Zm-1.269,1.941-.515-.083.842-.417Zm-.125.191-.113.172-.27-.233Zm.225.037,1.279.206.381.381-.527.819-1.312-1.133Zm1.018,1.584-.032.049-1.455-.918.174-.267Zm-.145.225-.232.361-.865-.029-.688-.746.328-.5Zm-1.193.535.381.412-1.1.5.05-.938Zm-.4,1.259.4.067-.132.2-.335-.282Zm.62.1,1.232.207.458.5-.5.766L523,47.206Zm1.079,1.644-.578.894-.453.228-1.07-1.181.714-1.107Zm-.8,1.24-.052.08-.033-.037Zm-.169.261-.587.907-.589-.491,1.066-.537Zm.144.16,1.355,1.5-.409.645-1.515-1.262Zm.834,2.323-.726,1.147-.432.239-1.168-1.4.809-1.25Zm-.958,1.514-.04.063-.024-.028Zm-.157.249-.661,1.043-.617-.5,1.185-.655Zm.139.168,1.411,1.693-.407.644-1.641-1.329Zm.893,2.515-.724,1.145-.54.324-1.218-1.472.84-1.326Zm-.97,1.536-.1.164-.057-.069Zm-.22.35-.706,1.118-.663-.517,1.248-.747Zm.139.169,1.477,1.785-.417.653-1.74-1.36Zm.948,2.613-.722,1.133-.7.4-1.213-1.473.895-1.418Zm-.965,1.512-.206.323-.116-.139Zm-.325.508-.664,1.041-.75-.553,1.233-.707Zm.14.169,1.578,1.916-.337.465L522.3,64.831Zm1.12,2.55-1.078,1.487-.428.242L521.2,66.57l1-1.563Zm-1.492,2.06-.81,1.118-.63-.4,1.383-.781Zm.141.161,1.715,1.948-.332.5-2.158-1.382Zm1.268,2.627-.669,1.017-1.117.57-1.238-1.786.859-1.188Zm-.9,1.369-.5.764-.26-.375Zm-.628.952-.58.882-.987-.714,1.243-.635Zm.129.185,1.684,2.428-2.224-1.608Zm1.636,2.652L523.5,77.4l-1.615.992-1.242-1.723,1.274-1.931ZM523.2,77.83l-.846,1.2-.34-.472Zm-.973,1.381-.646.915-1.013-.677,1.267-.78Zm.128.179L524.09,81.8l-2.337-1.56Zm1.762,2.678-.721.988-1.721,1.02-1.323-1.848,1.282-1.816Zm-1.033,1.415-.925,1.266-.362-.5Zm-1.055,1.444-.663.907-1.1-.682,1.35-.8Zm.128.178,1.575,2.2-2.188-1.36Zm1.894,2.642.032.046-.851,1.1-1.8,1.055L520.04,88l1.379-1.889Zm-1.16,1.592-.983,1.274-.351-.491Zm-1.116,1.446-.7.909-1.119-.633,1.421-.834Zm.127.177,1.441,2.013L521.258,91.8Zm1.729,2.416.334.467-.356.5-2.631,1.5-1.25-2.058,1.4-1.817Zm-.311,1.369-1.625,2.274-.61-1Zm-1.757,2.458-.594.833-1.353-1.186,1.289-.732Zm.118.194,1.638,2.7-2.192-1.921Zm2.081,3.426-1.11-.031,1.069-.035Zm.074-.279-2.022-3.331,1.938-2.713.226-.129-.051,2.6h0l-.071,3.574Zm.353-6.293.494-.281,2.109,1.191-2.652,1.621ZM527,95.284l2.645,1.495-2.833,1.937-2.588-1.736Zm.2-.125,2.218-1.356.189.1.118,2.682Zm3.232,4.813,1.72-2.684.607.814Zm1.84-2.872.7-1.1,1.35.843-1.4,1.128Zm.639-1.386-3.054-1.9.325-.473,2.347-1.433,1.611,1.89Zm-2.439-2.8,1.3-1.9.617.722Zm1.424-2.073.577-.839,1.374.85-1.276.78Zm-.14-.164-2.024-2.37,2.563,1.586Zm-2.088-2.655.473-.7,2.013-1.228,1.531,1.78-1.271,1.85Zm.751-1.117,1.069-1.59.529.615Zm1.19-1.769.576-.857,1.223.8-1.211.739Zm-.141-.165L529.344,82.5l.039-.061,2.63,1.729Zm-1.978-2.712.529-.836,1.631-.992,1.608,1.877-1.131,1.683Zm.781-1.234.8-1.267.438.512Zm.919-1.452.655-1.034,1.133.837-1.285.784Zm-.141-.166-1.946-2.271.256-.436,2.318,1.714Zm-1.583-2.887.6-1.014,1.146-.737,1.614,1.84-1.032,1.629Zm.831-1.413.484-.825.288.328Zm.6-1.014.633-1.078,1.008.655-1.288.826Zm-.145-.166-1.878-2.14.224-.352,2.256,1.466Zm-1.541-2.667.552-.862,1.244-.639,1.394,1.362-.94,1.6Zm.776-1.212.508-.791.356.348Zm.622-.97.561-.875,1,.726-1.122.576Zm-.152-.149-1.784-1.741.324-.56,2,1.453ZM529.1,66.449l.495-.852,1.048-.611,1.4,1.468-.93,1.453Zm.705-1.217.405-.7.285.3Zm.515-.888.574-.994.912.715-1.127.657Zm-.151-.157-1.71-1.794.366-.661,1.9,1.488Zm-1.241-2.639.45-.81.924-.546,1.369,1.4-.837,1.447Zm.651-1.171.327-.59.246.251Zm.433-.78.558-1,.871.685-1.1.653Zm-.152-.155-1.6-1.636.4-.713L530.4,58.46Zm-1.1-2.533.534-.948.72-.416,1.273,1.318-.785,1.414ZM529.5,55.6l.211-.377.157.163Zm.319-.566.535-.949.737.594-1.035.6Zm-.151-.157-1.609-1.665.4-.657,1.732,1.4Zm-1.1-2.5.438-.724.6-.356,1.375,1.257-.684,1.215Zm.669-1.1.122-.2.083.078Zm.231-.383.658-1.085.64.554-1.136.679Zm-.157-.143-1.414-1.294.6-1.059,1.474,1.273ZM527.851,49.1l-.041-.9.281-.151.238.206Zm.436-1.161.312-.168-.166.294Zm.918-.82.059.056-.131.07Zm.2-.1.436-.16-.385.208Zm1.115-.742,0,0h-.027l-.56-.459.33-.583.19.105Zm-.161-1.218.058-.1.011.14Zm-1.082-1.588.992-.452.1,1.351Zm-.215-.419.23-.4.626.078Zm.342-.6.175-.308.442.384Zm-.224-.028-1.389-.173-.159-.131,1.262-.571.525.457Zm-.078-.971.854-.386-.431.753Zm-.173-.151-.7-.606.37-.757.328-.163,1.093,1.031Zm-.177-1.67.007-.015.009.008Zm.1-.212.439-.9.6.551-.923.457Zm-.16-.15-1.309-1.236.453-.86,1.3,1.2Zm-.754-2.287.292-.553.509-.317,1.041.927-.553,1.134Zm.485-.92.084-.157.07.062Zm.184-.347.481-.909.524.517-.851.53Zm-.16-.143L527.236,34.5l.519-1,1.185,1.167Zm-1.262-1.456-.026-.59.378-.248.055.054Zm1.033-1.534.034-.064.028.024Zm.23.1.06.049-.148.008Zm-.1-.352.021-.04.607-.3.163-.007-.679.444Zm1.254-.66,1.037-.52-.11.87-.918-.244Zm1.262-.633.013-.007,1.39.586v.727l-.184.086-1.35-.357Zm1.4.354-1.146-.484,1.146-.576Zm.209.313.607.256-.607.285Zm1.919.584-.8-.337.8-.376Zm-1.059-.446-.86-.363V30.24l1.808,1.167Zm-2.469-1.042-.037-.015-.012-.006-1.327-.56-.155-2.013,2.931,1.891Zm-1.766-2.927-.367-.419.282-.654Zm-.834-2.446.605-.461.089,1.136Zm.566-.957-.335-.37.264-.538Zm-.759-2.2.556-.367.079,1Zm.518-.847-.325-.358.257-.507Zm-.8-2,.61-.442.077.971Zm.4-1.108.138-.231.032.414Zm-.42-.8.51-.026.008.1Zm-.107-.2.591-.157.01.127Zm.8-.212.872-.233.074.028v.329l-.933.047Zm1.157-.125.55.209-.55.028Zm.888.544a.1.1,0,0,0,.064-.132c0-.005,0-.009-.006-.013l.064,0,.678.644-1.6-.225Zm.06-.405-.949-.361v-.155l.95.416Zm.209-.009,1.565.685-1.567-.6Zm-1.2-.754-1.2-.523-.077-1.6L530.5,15.91Zm-1.6-2.488-1.177-.231.378-.671.8.885Zm-1.393-.273-.225-.044-.027-.734.173-.126a.1.1,0,0,0,.042-.07.1.1,0,0,0-.02-.078l-.215-.281L526.312,12l.726.806Zm-.292-1.924-.031-.844.013-.01,1.316.985-.453.808Zm.155-.987.876-.673.258,1.522Zm-.058-3.56.364-.458.169.984Zm.076-1.566.061-.236.085.5Zm-.242-1.819-.22-.106,0-.1h.22l.017.1Zm-.438-.418-.006.2-.1-.048.024-.156Zm-.055,2.051-.257-.3.276-.387Zm-.47,1.771L525.1,7.5l.083-.564Zm-.315,1.325.477.787-.685.636Zm-.038,2.29-.4.7.151-1.03Zm.137.181.517.677-.031,1.135-1.071-.79Zm.468,2.48h0l0,0Zm0,.211-.018,1.136-1.221-.251-.13-.1,1.015-.739Zm-1.4.552.055-.374.561-.074Zm-1.606.913-.261-.039-.376-.411.627,0Zm-.822-.342.232.253-.262-.039Zm-.236.182-2-.3,2.046.011Zm1.483,1.179.485.528-1.279-.528Zm1.915,2.137-.117.2-.165.089-.71-.625.044-.742Zm-1.007-.069.53.468-.578.313Zm-.165,2.731.474.48-.522.339ZM523.52,23.5l.586.651-.648.37Zm.362,2.108.833,1.122-.165.341-.395.345-.191.026-.616-.8Zm-.646,2.613.029-.476.606-.081Zm-.245.662-.341-.286.358-.022Zm-.013.261-.075,1.391-.9-.127-.075-.057-.145-1.7.564-.034Zm-1.211-.7-.029-.337.377.317Zm-1.8.109-.393.024L519.2,28.3l1.787-.24Zm-1.048-.209.335.253-.392.024v-.28l.048-.007S518.912,28.342,518.917,28.344Zm-1.333.354-.708.043-.173-.11,1.415-.191Zm-.762.255.684.434v.384l-.877-.124-.075-.677Zm.684,1.029v.44l-.628-.53Zm-1.1-.492-.565-.477.509-.031Zm-.727-.341.515.435-.515-.073Zm-.208.332-2.2-.312,2.2-.133Zm1.022.356.685.579-1.5-.425v-.27Zm2.247.34,1.137,1-2.042-.577Zm3.412,1.215.473.562-1.761-.5Zm1.216,1.3-.408.707.054-1.026Zm-.444,1.373.794.789-.868.575Zm-.188,3.5.727.824-.8.546Zm-.205,3.8.913.91-.988.489Zm.312,2.143-.192.293-.243-.153.027-.493Zm-.305.468-.161.245.019-.334Zm-.427,1.328-.246-.008-.158-1.844.487.308Zm-.456-.016-.481-.016-1.06-1.3,1.38-.574Zm-1.607-1.061.849,1.036-.849-.028Zm-.209,1-2.529-.086,2.529-1.051Zm1.409.465.612.747-1.562-.409Zm1.478,1.555-.558.866.069-1.277Zm-.592,1.509.915,1.013-1,.5Zm-.218,4.041,1.021,1.225-1.121.62Zm-.239,4.459,1.075,1.3-1.185.707Zm-.255,4.732,1.068,1.3-1.174.673Zm-.262,4.853,1.215,1.379-1.329.751Zm.481,2.893-.688.951.072-1.345ZM520.61,76.97l1.1,1.529-1.225.753Zm-.3,5.56,1.183,1.651-1.314.78Zm-.469,8.707,1.1.624-1.221,1.583Zm4.222,9.3.067-3.374,2.495,1.674-2.482,1.7Zm2.748-1.575,2.113,1.418-4.393.141ZM527,98.84l2.747-1.878.148,3.391-.611.019Zm6.092-3.014,1.1-1.722.194,2.532Zm-.38-4.032,1.247-.762.188,2.442Zm-.373-5.812,1.178-.719.175,2.293Zm-.5-5.66,1.244-.758.186,2.427Zm-.445-5.665,1.25-.8.188,2.441Zm1.221-1.187-.973-.633.818-1.392ZM531.2,69.661l1.073-.551.133,1.727Zm1.043-.931-.965-.7.814-1.27Zm-1.418-3.854,1.074-.626.146,1.906Zm1.043-1.028L531,63.167l.723-1.25Zm-1.384-3.768,1.047-.619.142,1.834ZM531.5,59.06l-.832-.653.687-1.236Zm-1.3-3.626.978-.566.131,1.716Zm.947-.972-.694-.561.572-1.017Zm-1.363-3.277,1.063-.635.132,1.729Zm1.03-1.056-.584-.506.484-.8Zm-.745-.644L528.6,48.206l.265-.47,1.067.07.736.7Zm-1.037-1.945.389-.21.266.253Zm.582-.314.94-.506.07.926-.611-.041Zm1.119-.881.181-.25.04.444-.211-.065Zm.417-.842-.5-.277-.173-2.263,2.146,2.206Zm-1.464-3.534.443-.775.095,1.243Zm-.556-2.281.85-.422.1,1.321Zm.818-.842-.557-.514.448-.917Zm-1.019-2.838.765-.477.1,1.243Zm.73-.926-.465-.458.375-.711Zm-.62-.611L527.856,33.3l.109-.208,1.155.148.4.329Zm-.556-1.519.264-.015.069.058Zm.57-.033.437-.025.015.189-.3-.039Zm-.236-.2-.183-.151.792-.52.049.633Zm.816-.717.875.232-.051.392-.773.044Zm1.079.286,1.006.265-1.047.06Zm2.486.657-.044.478-.5-.621Zm.2.054.893.237-.942.307Zm.018-.211.057-.633a.1.1,0,0,0,0-.025l.926.391v.526Zm2.06.282-.039.253-.408-.108Zm1.046.348,1.217.514-1.217-.322Zm0-.226v-.347l1.555,1ZM528.5,17.488l.917-.047v.313l-.906-.127Zm3.172.583-.545-.517,1.834.7Zm-.884-1.186.012-.748,2.312,1.766Zm-3.494-4.11.389-.692.235,1.384ZM525.03,3.161l.055-.045.428.118-.022.15Zm.75.594-.015.561-.253.354.143-.974Zm-1.374,8.424,1.123.828,0,.147-.446.325-.882.117Zm-.545,2.272-.261,0-.723-.468,1.075-.143Zm-1.38-.417.008.409-.823,0a.1.1,0,0,0-.087-.017.071.071,0,0,0-.025.015l-2.035-.012Zm-1.064,1.11-.089.638-2.49-1.028Zm1.895,11.8.412.535-.447.061Zm-.294,1.427-.6.037-.558-.468,1.2-.161Zm-6.705.316.008.091-1.249.076Zm-.846,1.008v.241l-1.712-.485ZM522.2,43.52l-.4-.25.419-.173Zm-2.367,1.914v.475l-2.082-.545Zm4.257,55.4h-.013l.132-.091,5.01-.162.172.115Zm6.58-52.609-.42-.4.391.026Zm.166-.569-.074-.962.213.065.07.8a.1.1,0,0,0,.131.091l1.443-.384,2.1.648Zm2.094-1.173v-1l2.1,2.163Zm-3.406-13.178-.02-.017.02,0Zm.177-.426.732-.042-.045.354-.671-.086Zm1.147.37,1.06-.5.423-.025.634.791Zm3.819.085.742.2-.046.294-1.58-.2Zm1.338.572.417-.108,1.171.31Z" transform="translate(-512.131 -2.897)"/>
</svg>
