<svg id="Group_23942" data-name="Group 23942" xmlns="http://www.w3.org/2000/svg" width="21.978" height="39.261" viewBox="0 0 21.978 39.261">
  <path id="Path_21285" data-name="Path 21285" d="M-1036.365,780.78l-4.118-31.489h-1.839l-4.118,31.489-.224-.03,4.131-31.587a.113.113,0,0,1,.112-.1h2.037a.113.113,0,0,1,.112.1l4.131,31.587-.224.03Z" transform="translate(1052.39 -741.519)"/>
  <path id="Path_21286" data-name="Path 21286" d="M-1019.073,751.288l1.036.681,1.036-.681-1.036-.758-1.036.758Zm-.242,1.791,1.278,1.086,1.278-1.086-1.278-.84-1.278.84Zm-.372,2.784,1.65,1.194,1.65-1.194-1.65-1.4-1.65,1.4Zm-.4,2.957,2.049,2.309,2.049-2.309-2.049-1.483-2.049,1.483Zm-.784,5.843,2.83,3.3,2.834-3.3-2.832-3.193-2.832,3.193Zm-1.071,8.188,3.9,4.393,3.9-4.379-3.907-4.555-3.9,4.541Zm3.9,4.676h0a.113.113,0,0,1-.084-.038l-4.053-4.562a.113.113,0,0,1,0-.149l3.988-4.642-2.917-3.4a.114.114,0,0,1,0-.149l2.916-3.286-2.149-2.423a.114.114,0,0,1-.028-.087.113.113,0,0,1,.046-.079l2.089-1.513-1.706-1.235a.114.114,0,0,1-.047-.087.113.113,0,0,1,.04-.09l1.731-1.471-1.365-1.16a.113.113,0,0,1-.04-.093.113.113,0,0,1,.051-.088l1.322-.869-1.09-.717a.113.113,0,0,1-.051-.092.113.113,0,0,1,.046-.094l1.109-.812-.894-.654.134-.182.952.7.952-.7.133.182-.894.654,1.109.812a.113.113,0,0,1,.046.094.113.113,0,0,1-.051.092l-1.09.717,1.322.869a.114.114,0,0,1,.051.088.113.113,0,0,1-.04.093l-1.365,1.16,1.731,1.471a.112.112,0,0,1,.04.09.114.114,0,0,1-.047.087l-1.706,1.235,2.089,1.513a.113.113,0,0,1,.046.079.113.113,0,0,1-.028.087l-2.15,2.423,2.916,3.286a.113.113,0,0,1,0,.149l-2.921,3.4,3.994,4.657a.113.113,0,0,1,0,.149l-4.055,4.547a.113.113,0,0,1-.084.038Z" transform="translate(1029.025 -741.986)"/>
  <path id="Path_21287" data-name="Path 21287" d="M-951.853,765.939h-2.234v-.226h2.234v.226Z" transform="translate(963.958 -757.422)"/>
  <path id="Path_21288" data-name="Path 21288" d="M-956.458,804.23h-2.687V804h2.687v.226Z" transform="translate(968.79 -793.999)"/>
  <path id="Path_21289" data-name="Path 21289" d="M-962.337,853.579H-965.6v-.226h3.265v.226Z" transform="translate(974.957 -841.14)"/>
  <path id="Path_21290" data-name="Path 21290" d="M-969.954,918h-4.014v-.227h4.014V918Z" transform="translate(982.949 -902.676)"/>
  <path id="Path_21291" data-name="Path 21291" d="M-980.81,1009.64h-5.082v-.226h5.082v.226Z" transform="translate(994.339 -990.214)"/>
  <path id="Path_21292" data-name="Path 21292" d="M-998.9,1162.269h-6.862v-.226h6.862v.226Z" transform="translate(1013.316 -1136.01)"/>
  <path id="Path_21293" data-name="Path 21293" d="M-954.187,624.453h1.813v-5.614h-1.813v5.614Zm1.926.226H-954.3a.113.113,0,0,1-.113-.113v-5.84a.113.113,0,0,1,.113-.113h2.039a.113.113,0,0,1,.113.113v5.84a.113.113,0,0,1-.113.113Z" transform="translate(964.269 -616.908)"/>
  <path id="Path_21294" data-name="Path 21294" d="M-953.475,621.424l-.156-.164,2.039-1.947.156.164-2.039,1.947Z" transform="translate(963.522 -617.577)"/>
  <path id="Path_21295" data-name="Path 21295" d="M-951.592,621.424l-2.039-1.947.156-.164,2.039,1.947-.156.164Z" transform="translate(963.522 -617.577)"/>
  <path id="Path_21296" data-name="Path 21296" d="M-953.475,664.9l-.156-.164,2.039-1.947.156.164-2.039,1.946Z" transform="translate(963.522 -659.11)"/>
  <path id="Path_21297" data-name="Path 21297" d="M-951.592,664.9l-2.039-1.946.156-.164,2.039,1.947-.156.164Z" transform="translate(963.522 -659.11)"/>
  <path id="Path_21298" data-name="Path 21298" d="M-953.475,708.384l-.156-.163,2.039-1.947.156.164-2.039,1.947Z" transform="translate(963.522 -700.644)"/>
  <path id="Path_21299" data-name="Path 21299" d="M-951.592,708.384l-2.039-1.947.156-.164,2.039,1.947-.156.163Z" transform="translate(963.522 -700.644)"/>
  <path id="Path_21300" data-name="Path 21300" d="M-908.642,582.424v2.463l5.294-2.383a.111.111,0,0,1,.046-.01h4.161l-1.189-1.422-2.961-.322-5.352,1.673Zm-.113,2.751a.114.114,0,0,1-.061-.018.113.113,0,0,1-.052-.095V582.34a.113.113,0,0,1,.079-.108l5.454-1.7a.113.113,0,0,1,.046-.005l3.03.329a.113.113,0,0,1,.075.04l1.373,1.642a.113.113,0,0,1,.016.12.113.113,0,0,1-.1.065h-4.379l-5.431,2.444a.112.112,0,0,1-.046.01Z" transform="translate(920.763 -580.522)"/>
  <path id="Path_21301" data-name="Path 21301" d="M-905.982,584.277a.115.115,0,0,1-.076-.03l-1.991-1.825.153-.167,1.8,1.651v-2.19a.113.113,0,0,1,.067-.1.114.114,0,0,1,.122.02l1.621,1.462v-1.944a.113.113,0,0,1,.066-.1.114.114,0,0,1,.121.018l1.465,1.29v-1.722a.113.113,0,0,1,.076-.106.112.112,0,0,1,.126.037l1.337,1.712V580.8a.113.113,0,0,1,.075-.106.114.114,0,0,1,.125.034l1.291,1.562v-1.328h.226v1.642a.113.113,0,0,1-.075.107.114.114,0,0,1-.126-.035l-1.291-1.562v1.49a.113.113,0,0,1-.076.107.113.113,0,0,1-.126-.038l-1.336-1.712v1.643a.113.113,0,0,1-.066.1.112.112,0,0,1-.121-.018l-1.465-1.289v1.948a.114.114,0,0,1-.067.1.113.113,0,0,1-.122-.02l-1.621-1.462v2.193a.113.113,0,0,1-.068.1.116.116,0,0,1-.046.01Z" transform="translate(919.981 -580.521)"/>
  <path id="Path_21302" data-name="Path 21302" d="M-792.025,632.29h-.5a.113.113,0,0,1-.113-.113.113.113,0,0,1,.113-.113h.5a.113.113,0,0,1,.113.113.113.113,0,0,1-.113.113Z" transform="translate(809.737 -629.757)"/>
  <path id="Path_21303" data-name="Path 21303" d="M-792.025,638.82h-.5a.113.113,0,0,1-.113-.113.113.113,0,0,1,.113-.113h.5a.113.113,0,0,1,.113.113.113.113,0,0,1-.113.113Z" transform="translate(809.737 -635.994)"/>
  <path id="Path_21304" data-name="Path 21304" d="M-792.025,645.359h-.5a.113.113,0,0,1-.113-.113.113.113,0,0,1,.113-.113h.5a.113.113,0,0,1,.113.113.113.113,0,0,1-.113.113Z" transform="translate(809.737 -642.24)"/>
  <path id="Path_21305" data-name="Path 21305" d="M-792.025,651.89h-.5a.113.113,0,0,1-.113-.113.113.113,0,0,1,.113-.113h.5a.113.113,0,0,1,.113.113.113.113,0,0,1-.113.113Z" transform="translate(809.737 -648.479)"/>
  <path id="Path_21306" data-name="Path 21306" d="M-792.025,658.419h-.5a.113.113,0,0,1-.113-.113.113.113,0,0,1,.113-.113h.5a.113.113,0,0,1,.113.113.113.113,0,0,1-.113.113Z" transform="translate(809.737 -654.716)"/>
  <path id="Path_21307" data-name="Path 21307" d="M-792.025,664.959h-.5a.113.113,0,0,1-.113-.113.113.113,0,0,1,.113-.113h.5a.113.113,0,0,1,.113.113.113.113,0,0,1-.113.113Z" transform="translate(809.737 -660.963)"/>
  <path id="Path_21308" data-name="Path 21308" d="M-785.727,627.734a.056.056,0,0,1-.057-.057v-1.8a.056.056,0,0,1,.057-.056.056.056,0,0,1,.057.056v1.8a.056.056,0,0,1-.057.057Z" transform="translate(803.189 -623.795)"/>
  <path id="Path_21309" data-name="Path 21309" d="M-724.339,632.29h-.5a.113.113,0,0,1-.113-.113.113.113,0,0,1,.113-.113h.5a.113.113,0,0,1,.113.113.113.113,0,0,1-.113.113Z" transform="translate(745.082 -629.757)"/>
  <path id="Path_21310" data-name="Path 21310" d="M-724.339,638.82h-.5a.113.113,0,0,1-.113-.113.113.113,0,0,1,.113-.113h.5a.113.113,0,0,1,.113.113.113.113,0,0,1-.113.113Z" transform="translate(745.082 -635.994)"/>
  <path id="Path_21311" data-name="Path 21311" d="M-724.339,645.359h-.5a.113.113,0,0,1-.113-.113.113.113,0,0,1,.113-.113h.5a.113.113,0,0,1,.113.113.113.113,0,0,1-.113.113Z" transform="translate(745.082 -642.24)"/>
  <path id="Path_21312" data-name="Path 21312" d="M-724.339,651.89h-.5a.113.113,0,0,1-.113-.113.113.113,0,0,1,.113-.113h.5a.113.113,0,0,1,.113.113.113.113,0,0,1-.113.113Z" transform="translate(745.082 -648.479)"/>
  <path id="Path_21313" data-name="Path 21313" d="M-724.339,658.419h-.5a.113.113,0,0,1-.113-.113.113.113,0,0,1,.113-.113h.5a.113.113,0,0,1,.113.113.113.113,0,0,1-.113.113Z" transform="translate(745.082 -654.716)"/>
  <path id="Path_21314" data-name="Path 21314" d="M-724.339,664.959h-.5a.113.113,0,0,1-.113-.113.113.113,0,0,1,.113-.113h.5a.113.113,0,0,1,.113.113.113.113,0,0,1-.113.113Z" transform="translate(745.082 -660.963)"/>
  <path id="Path_21315" data-name="Path 21315" d="M-718.043,627.734a.056.056,0,0,1-.056-.057v-1.8a.056.056,0,0,1,.056-.056.056.056,0,0,1,.057.056v1.8a.056.056,0,0,1-.057.057Z" transform="translate(738.535 -623.795)"/>
  <path id="Path_21316" data-name="Path 21316" d="M-1174.233,582.494h4.161a.111.111,0,0,1,.047.01l5.294,2.383v-2.463l-5.352-1.673-2.961.322-1.189,1.422Zm9.615,2.681a.112.112,0,0,1-.046-.01l-5.431-2.444h-4.379a.113.113,0,0,1-.1-.065.113.113,0,0,1,.016-.12l1.373-1.642a.113.113,0,0,1,.075-.04l3.03-.329a.113.113,0,0,1,.046.005l5.454,1.7a.113.113,0,0,1,.079.108v2.721a.112.112,0,0,1-.052.095.113.113,0,0,1-.061.018Z" transform="translate(1174.588 -580.522)"/>
  <path id="Path_21317" data-name="Path 21317" d="M-1137.313,584.277a.116.116,0,0,1-.046-.01.113.113,0,0,1-.068-.1v-2.193l-1.621,1.462a.114.114,0,0,1-.122.02.114.114,0,0,1-.067-.1V581.4l-1.465,1.289a.112.112,0,0,1-.121.018.113.113,0,0,1-.067-.1v-1.643l-1.336,1.712a.113.113,0,0,1-.126.038.113.113,0,0,1-.076-.107v-1.49l-1.291,1.562a.114.114,0,0,1-.125.035.113.113,0,0,1-.075-.107v-1.642h.226v1.328l1.291-1.562a.114.114,0,0,1,.126-.034.113.113,0,0,1,.074.106v1.476l1.336-1.712a.112.112,0,0,1,.126-.037.113.113,0,0,1,.076.106v1.722l1.465-1.29a.113.113,0,0,1,.121-.018.113.113,0,0,1,.066.1V583.1l1.621-1.462a.114.114,0,0,1,.122-.02.113.113,0,0,1,.067.1v2.19l1.8-1.651.153.167-1.991,1.825a.115.115,0,0,1-.076.03Z" transform="translate(1145.292 -580.521)"/>
  <path id="Path_21318" data-name="Path 21318" d="M-1081.211,632.29h-.5a.113.113,0,0,1-.113-.113.113.113,0,0,1,.113-.113h.5a.113.113,0,0,1,.113.113.113.113,0,0,1-.113.113Z" transform="translate(1085.977 -629.757)"/>
  <path id="Path_21319" data-name="Path 21319" d="M-1081.211,638.82h-.5a.113.113,0,0,1-.113-.113.113.113,0,0,1,.113-.113h.5a.113.113,0,0,1,.113.113.113.113,0,0,1-.113.113Z" transform="translate(1085.977 -635.994)"/>
  <path id="Path_21320" data-name="Path 21320" d="M-1081.211,645.359h-.5a.113.113,0,0,1-.113-.113.113.113,0,0,1,.113-.113h.5a.113.113,0,0,1,.113.113.113.113,0,0,1-.113.113Z" transform="translate(1085.977 -642.24)"/>
  <path id="Path_21321" data-name="Path 21321" d="M-1081.211,651.89h-.5a.113.113,0,0,1-.113-.113.113.113,0,0,1,.113-.113h.5a.113.113,0,0,1,.113.113.113.113,0,0,1-.113.113Z" transform="translate(1085.977 -648.479)"/>
  <path id="Path_21322" data-name="Path 21322" d="M-1081.211,658.419h-.5a.113.113,0,0,1-.113-.113.113.113,0,0,1,.113-.113h.5a.113.113,0,0,1,.113.113.113.113,0,0,1-.113.113Z" transform="translate(1085.977 -654.716)"/>
  <path id="Path_21323" data-name="Path 21323" d="M-1081.211,664.959h-.5a.113.113,0,0,1-.113-.113.113.113,0,0,1,.113-.113h.5a.113.113,0,0,1,.113.113.113.113,0,0,1-.113.113Z" transform="translate(1085.977 -660.963)"/>
  <path id="Path_21324" data-name="Path 21324" d="M-1074.914,627.734a.056.056,0,0,1-.057-.057v-1.8a.056.056,0,0,1,.057-.056.056.056,0,0,1,.057.056v1.8a.056.056,0,0,1-.057.057Z" transform="translate(1079.43 -623.795)"/>
  <path id="Path_21325" data-name="Path 21325" d="M-1148.9,632.29h-.5a.113.113,0,0,1-.113-.113.113.113,0,0,1,.113-.113h.5a.113.113,0,0,1,.113.113.113.113,0,0,1-.113.113Z" transform="translate(1150.632 -629.757)"/>
  <path id="Path_21326" data-name="Path 21326" d="M-1148.9,638.82h-.5a.113.113,0,0,1-.113-.113.113.113,0,0,1,.113-.113h.5a.113.113,0,0,1,.113.113.113.113,0,0,1-.113.113Z" transform="translate(1150.632 -635.994)"/>
  <path id="Path_21327" data-name="Path 21327" d="M-1148.9,645.359h-.5a.113.113,0,0,1-.113-.113.113.113,0,0,1,.113-.113h.5a.113.113,0,0,1,.113.113.113.113,0,0,1-.113.113Z" transform="translate(1150.632 -642.24)"/>
  <path id="Path_21328" data-name="Path 21328" d="M-1148.9,651.89h-.5a.113.113,0,0,1-.113-.113.113.113,0,0,1,.113-.113h.5a.113.113,0,0,1,.113.113.113.113,0,0,1-.113.113Z" transform="translate(1150.632 -648.479)"/>
  <path id="Path_21329" data-name="Path 21329" d="M-1148.9,658.419h-.5a.113.113,0,0,1-.113-.113.113.113,0,0,1,.113-.113h.5a.113.113,0,0,1,.113.113.113.113,0,0,1-.113.113Z" transform="translate(1150.632 -654.716)"/>
  <path id="Path_21330" data-name="Path 21330" d="M-1148.9,664.959h-.5a.113.113,0,0,1-.113-.113.113.113,0,0,1,.113-.113h.5a.113.113,0,0,1,.113.113.113.113,0,0,1-.113.113Z" transform="translate(1150.632 -660.963)"/>
  <path id="Path_21331" data-name="Path 21331" d="M-1142.6,627.734a.056.056,0,0,1-.057-.057v-1.8a.056.056,0,0,1,.057-.056.056.056,0,0,1,.056.056v1.8a.056.056,0,0,1-.056.057Z" transform="translate(1144.085 -623.795)"/>
  <path id="Path_21332" data-name="Path 21332" d="M-1026.116,1369.589h-9.3a.113.113,0,0,1-.113-.113.113.113,0,0,1,.113-.113h9.3a.113.113,0,0,1,.113.113.113.113,0,0,1-.113.113Z" transform="translate(1041.754 -1334.049)"/>
</svg>
